<?xml version="1.0" encoding="utf-8" standalone="no"?>
<!DOCTYPE svg PUBLIC "-//W3C//DTD SVG 1.1//EN"
  "http://www.w3.org/Graphics/SVG/1.1/DTD/svg11.dtd">
<!-- Created with matplotlib (https://matplotlib.org/) -->
<svg height="288pt" version="1.1" viewBox="0 0 432 288" width="432pt" xmlns="http://www.w3.org/2000/svg" xmlns:xlink="http://www.w3.org/1999/xlink">
 <defs>
  <style type="text/css">
*{stroke-linecap:butt;stroke-linejoin:round;}
  </style>
 </defs>
 <g id="figure_1">
  <g id="patch_1">
   <path d="M 0 288 
L 432 288 
L 432 0 
L 0 0 
z
" style="fill:#ffffff;"/>
  </g>
  <g id="axes_1">
   <g id="patch_2">
    <path d="M 54 252 
L 388.8 252 
L 388.8 34.56 
L 54 34.56 
z
" style="fill:#ffffff;"/>
   </g>
   <g id="matplotlib.axis_1">
    <g id="xtick_1">
     <g id="line2d_1">
      <defs>
       <path d="M 0 0 
L 0 3.5 
" id="m5e6c67870f" style="stroke:#000000;stroke-width:0.8;"/>
      </defs>
      <g>
       <use style="stroke:#000000;stroke-width:0.8;" x="69.218182" xlink:href="#m5e6c67870f" y="252"/>
      </g>
     </g>
     <g id="text_1">
      <!-- 0 -->
      <defs>
       <path d="M 31.78125 66.40625 
Q 24.171875 66.40625 20.328125 58.90625 
Q 16.5 51.421875 16.5 36.375 
Q 16.5 21.390625 20.328125 13.890625 
Q 24.171875 6.390625 31.78125 6.390625 
Q 39.453125 6.390625 43.28125 13.890625 
Q 47.125 21.390625 47.125 36.375 
Q 47.125 51.421875 43.28125 58.90625 
Q 39.453125 66.40625 31.78125 66.40625 
z
M 31.78125 74.21875 
Q 44.046875 74.21875 50.515625 64.515625 
Q 56.984375 54.828125 56.984375 36.375 
Q 56.984375 17.96875 50.515625 8.265625 
Q 44.046875 -1.421875 31.78125 -1.421875 
Q 19.53125 -1.421875 13.0625 8.265625 
Q 6.59375 17.96875 6.59375 36.375 
Q 6.59375 54.828125 13.0625 64.515625 
Q 19.53125 74.21875 31.78125 74.21875 
z
" id="DejaVuSans-48"/>
      </defs>
      <g transform="translate(66.036932 266.598437)scale(0.1 -0.1)">
       <use xlink:href="#DejaVuSans-48"/>
      </g>
     </g>
    </g>
    <g id="xtick_2">
     <g id="line2d_2">
      <g>
       <use style="stroke:#000000;stroke-width:0.8;" x="106.831088" xlink:href="#m5e6c67870f" y="252"/>
      </g>
     </g>
     <g id="text_2">
      <!-- 250 -->
      <defs>
       <path d="M 19.1875 8.296875 
L 53.609375 8.296875 
L 53.609375 0 
L 7.328125 0 
L 7.328125 8.296875 
Q 12.9375 14.109375 22.625 23.890625 
Q 32.328125 33.6875 34.8125 36.53125 
Q 39.546875 41.84375 41.421875 45.53125 
Q 43.3125 49.21875 43.3125 52.78125 
Q 43.3125 58.59375 39.234375 62.25 
Q 35.15625 65.921875 28.609375 65.921875 
Q 23.96875 65.921875 18.8125 64.3125 
Q 13.671875 62.703125 7.8125 59.421875 
L 7.8125 69.390625 
Q 13.765625 71.78125 18.9375 73 
Q 24.125 74.21875 28.421875 74.21875 
Q 39.75 74.21875 46.484375 68.546875 
Q 53.21875 62.890625 53.21875 53.421875 
Q 53.21875 48.921875 51.53125 44.890625 
Q 49.859375 40.875 45.40625 35.40625 
Q 44.1875 33.984375 37.640625 27.21875 
Q 31.109375 20.453125 19.1875 8.296875 
z
" id="DejaVuSans-50"/>
       <path d="M 10.796875 72.90625 
L 49.515625 72.90625 
L 49.515625 64.59375 
L 19.828125 64.59375 
L 19.828125 46.734375 
Q 21.96875 47.46875 24.109375 47.828125 
Q 26.265625 48.1875 28.421875 48.1875 
Q 40.625 48.1875 47.75 41.5 
Q 54.890625 34.8125 54.890625 23.390625 
Q 54.890625 11.625 47.5625 5.09375 
Q 40.234375 -1.421875 26.90625 -1.421875 
Q 22.3125 -1.421875 17.546875 -0.640625 
Q 12.796875 0.140625 7.71875 1.703125 
L 7.71875 11.625 
Q 12.109375 9.234375 16.796875 8.0625 
Q 21.484375 6.890625 26.703125 6.890625 
Q 35.15625 6.890625 40.078125 11.328125 
Q 45.015625 15.765625 45.015625 23.390625 
Q 45.015625 31 40.078125 35.4375 
Q 35.15625 39.890625 26.703125 39.890625 
Q 22.75 39.890625 18.8125 39.015625 
Q 14.890625 38.140625 10.796875 36.28125 
z
" id="DejaVuSans-53"/>
      </defs>
      <g transform="translate(97.287338 266.598437)scale(0.1 -0.1)">
       <use xlink:href="#DejaVuSans-50"/>
       <use x="63.623047" xlink:href="#DejaVuSans-53"/>
       <use x="127.246094" xlink:href="#DejaVuSans-48"/>
      </g>
     </g>
    </g>
    <g id="xtick_3">
     <g id="line2d_3">
      <g>
       <use style="stroke:#000000;stroke-width:0.8;" x="144.443994" xlink:href="#m5e6c67870f" y="252"/>
      </g>
     </g>
     <g id="text_3">
      <!-- 500 -->
      <g transform="translate(134.900244 266.598437)scale(0.1 -0.1)">
       <use xlink:href="#DejaVuSans-53"/>
       <use x="63.623047" xlink:href="#DejaVuSans-48"/>
       <use x="127.246094" xlink:href="#DejaVuSans-48"/>
      </g>
     </g>
    </g>
    <g id="xtick_4">
     <g id="line2d_4">
      <g>
       <use style="stroke:#000000;stroke-width:0.8;" x="182.0569" xlink:href="#m5e6c67870f" y="252"/>
      </g>
     </g>
     <g id="text_4">
      <!-- 750 -->
      <defs>
       <path d="M 8.203125 72.90625 
L 55.078125 72.90625 
L 55.078125 68.703125 
L 28.609375 0 
L 18.3125 0 
L 43.21875 64.59375 
L 8.203125 64.59375 
z
" id="DejaVuSans-55"/>
      </defs>
      <g transform="translate(172.51315 266.598437)scale(0.1 -0.1)">
       <use xlink:href="#DejaVuSans-55"/>
       <use x="63.623047" xlink:href="#DejaVuSans-53"/>
       <use x="127.246094" xlink:href="#DejaVuSans-48"/>
      </g>
     </g>
    </g>
    <g id="xtick_5">
     <g id="line2d_5">
      <g>
       <use style="stroke:#000000;stroke-width:0.8;" x="219.669806" xlink:href="#m5e6c67870f" y="252"/>
      </g>
     </g>
     <g id="text_5">
      <!-- 1000 -->
      <defs>
       <path d="M 12.40625 8.296875 
L 28.515625 8.296875 
L 28.515625 63.921875 
L 10.984375 60.40625 
L 10.984375 69.390625 
L 28.421875 72.90625 
L 38.28125 72.90625 
L 38.28125 8.296875 
L 54.390625 8.296875 
L 54.390625 0 
L 12.40625 0 
z
" id="DejaVuSans-49"/>
      </defs>
      <g transform="translate(206.944806 266.598437)scale(0.1 -0.1)">
       <use xlink:href="#DejaVuSans-49"/>
       <use x="63.623047" xlink:href="#DejaVuSans-48"/>
       <use x="127.246094" xlink:href="#DejaVuSans-48"/>
       <use x="190.869141" xlink:href="#DejaVuSans-48"/>
      </g>
     </g>
    </g>
    <g id="xtick_6">
     <g id="line2d_6">
      <g>
       <use style="stroke:#000000;stroke-width:0.8;" x="257.282712" xlink:href="#m5e6c67870f" y="252"/>
      </g>
     </g>
     <g id="text_6">
      <!-- 1250 -->
      <g transform="translate(244.557712 266.598437)scale(0.1 -0.1)">
       <use xlink:href="#DejaVuSans-49"/>
       <use x="63.623047" xlink:href="#DejaVuSans-50"/>
       <use x="127.246094" xlink:href="#DejaVuSans-53"/>
       <use x="190.869141" xlink:href="#DejaVuSans-48"/>
      </g>
     </g>
    </g>
    <g id="xtick_7">
     <g id="line2d_7">
      <g>
       <use style="stroke:#000000;stroke-width:0.8;" x="294.895619" xlink:href="#m5e6c67870f" y="252"/>
      </g>
     </g>
     <g id="text_7">
      <!-- 1500 -->
      <g transform="translate(282.170619 266.598437)scale(0.1 -0.1)">
       <use xlink:href="#DejaVuSans-49"/>
       <use x="63.623047" xlink:href="#DejaVuSans-53"/>
       <use x="127.246094" xlink:href="#DejaVuSans-48"/>
       <use x="190.869141" xlink:href="#DejaVuSans-48"/>
      </g>
     </g>
    </g>
    <g id="xtick_8">
     <g id="line2d_8">
      <g>
       <use style="stroke:#000000;stroke-width:0.8;" x="332.508525" xlink:href="#m5e6c67870f" y="252"/>
      </g>
     </g>
     <g id="text_8">
      <!-- 1750 -->
      <g transform="translate(319.783525 266.598437)scale(0.1 -0.1)">
       <use xlink:href="#DejaVuSans-49"/>
       <use x="63.623047" xlink:href="#DejaVuSans-55"/>
       <use x="127.246094" xlink:href="#DejaVuSans-53"/>
       <use x="190.869141" xlink:href="#DejaVuSans-48"/>
      </g>
     </g>
    </g>
    <g id="xtick_9">
     <g id="line2d_9">
      <g>
       <use style="stroke:#000000;stroke-width:0.8;" x="370.121431" xlink:href="#m5e6c67870f" y="252"/>
      </g>
     </g>
     <g id="text_9">
      <!-- 2000 -->
      <g transform="translate(357.396431 266.598437)scale(0.1 -0.1)">
       <use xlink:href="#DejaVuSans-50"/>
       <use x="63.623047" xlink:href="#DejaVuSans-48"/>
       <use x="127.246094" xlink:href="#DejaVuSans-48"/>
       <use x="190.869141" xlink:href="#DejaVuSans-48"/>
      </g>
     </g>
    </g>
   </g>
   <g id="matplotlib.axis_2">
    <g id="ytick_1">
     <g id="line2d_10">
      <defs>
       <path d="M 0 0 
L -3.5 0 
" id="m73ed5dd0f6" style="stroke:#000000;stroke-width:0.8;"/>
      </defs>
      <g>
       <use style="stroke:#000000;stroke-width:0.8;" x="54" xlink:href="#m73ed5dd0f6" y="247.434361"/>
      </g>
     </g>
     <g id="text_10">
      <!-- 0.0 -->
      <defs>
       <path d="M 10.6875 12.40625 
L 21 12.40625 
L 21 0 
L 10.6875 0 
z
" id="DejaVuSans-46"/>
      </defs>
      <g transform="translate(31.096875 251.23358)scale(0.1 -0.1)">
       <use xlink:href="#DejaVuSans-48"/>
       <use x="63.623047" xlink:href="#DejaVuSans-46"/>
       <use x="95.410156" xlink:href="#DejaVuSans-48"/>
      </g>
     </g>
    </g>
    <g id="ytick_2">
     <g id="line2d_11">
      <g>
       <use style="stroke:#000000;stroke-width:0.8;" x="54" xlink:href="#m73ed5dd0f6" y="222.039225"/>
      </g>
     </g>
     <g id="text_11">
      <!-- 0.5 -->
      <g transform="translate(31.096875 225.838443)scale(0.1 -0.1)">
       <use xlink:href="#DejaVuSans-48"/>
       <use x="63.623047" xlink:href="#DejaVuSans-46"/>
       <use x="95.410156" xlink:href="#DejaVuSans-53"/>
      </g>
     </g>
    </g>
    <g id="ytick_3">
     <g id="line2d_12">
      <g>
       <use style="stroke:#000000;stroke-width:0.8;" x="54" xlink:href="#m73ed5dd0f6" y="196.644088"/>
      </g>
     </g>
     <g id="text_12">
      <!-- 1.0 -->
      <g transform="translate(31.096875 200.443307)scale(0.1 -0.1)">
       <use xlink:href="#DejaVuSans-49"/>
       <use x="63.623047" xlink:href="#DejaVuSans-46"/>
       <use x="95.410156" xlink:href="#DejaVuSans-48"/>
      </g>
     </g>
    </g>
    <g id="ytick_4">
     <g id="line2d_13">
      <g>
       <use style="stroke:#000000;stroke-width:0.8;" x="54" xlink:href="#m73ed5dd0f6" y="171.248951"/>
      </g>
     </g>
     <g id="text_13">
      <!-- 1.5 -->
      <g transform="translate(31.096875 175.04817)scale(0.1 -0.1)">
       <use xlink:href="#DejaVuSans-49"/>
       <use x="63.623047" xlink:href="#DejaVuSans-46"/>
       <use x="95.410156" xlink:href="#DejaVuSans-53"/>
      </g>
     </g>
    </g>
    <g id="ytick_5">
     <g id="line2d_14">
      <g>
       <use style="stroke:#000000;stroke-width:0.8;" x="54" xlink:href="#m73ed5dd0f6" y="145.853815"/>
      </g>
     </g>
     <g id="text_14">
      <!-- 2.0 -->
      <g transform="translate(31.096875 149.653034)scale(0.1 -0.1)">
       <use xlink:href="#DejaVuSans-50"/>
       <use x="63.623047" xlink:href="#DejaVuSans-46"/>
       <use x="95.410156" xlink:href="#DejaVuSans-48"/>
      </g>
     </g>
    </g>
    <g id="ytick_6">
     <g id="line2d_15">
      <g>
       <use style="stroke:#000000;stroke-width:0.8;" x="54" xlink:href="#m73ed5dd0f6" y="120.458678"/>
      </g>
     </g>
     <g id="text_15">
      <!-- 2.5 -->
      <g transform="translate(31.096875 124.257897)scale(0.1 -0.1)">
       <use xlink:href="#DejaVuSans-50"/>
       <use x="63.623047" xlink:href="#DejaVuSans-46"/>
       <use x="95.410156" xlink:href="#DejaVuSans-53"/>
      </g>
     </g>
    </g>
    <g id="ytick_7">
     <g id="line2d_16">
      <g>
       <use style="stroke:#000000;stroke-width:0.8;" x="54" xlink:href="#m73ed5dd0f6" y="95.063541"/>
      </g>
     </g>
     <g id="text_16">
      <!-- 3.0 -->
      <defs>
       <path d="M 40.578125 39.3125 
Q 47.65625 37.796875 51.625 33 
Q 55.609375 28.21875 55.609375 21.1875 
Q 55.609375 10.40625 48.1875 4.484375 
Q 40.765625 -1.421875 27.09375 -1.421875 
Q 22.515625 -1.421875 17.65625 -0.515625 
Q 12.796875 0.390625 7.625 2.203125 
L 7.625 11.71875 
Q 11.71875 9.328125 16.59375 8.109375 
Q 21.484375 6.890625 26.8125 6.890625 
Q 36.078125 6.890625 40.9375 10.546875 
Q 45.796875 14.203125 45.796875 21.1875 
Q 45.796875 27.640625 41.28125 31.265625 
Q 36.765625 34.90625 28.71875 34.90625 
L 20.21875 34.90625 
L 20.21875 43.015625 
L 29.109375 43.015625 
Q 36.375 43.015625 40.234375 45.921875 
Q 44.09375 48.828125 44.09375 54.296875 
Q 44.09375 59.90625 40.109375 62.90625 
Q 36.140625 65.921875 28.71875 65.921875 
Q 24.65625 65.921875 20.015625 65.03125 
Q 15.375 64.15625 9.8125 62.3125 
L 9.8125 71.09375 
Q 15.4375 72.65625 20.34375 73.4375 
Q 25.25 74.21875 29.59375 74.21875 
Q 40.828125 74.21875 47.359375 69.109375 
Q 53.90625 64.015625 53.90625 55.328125 
Q 53.90625 49.265625 50.4375 45.09375 
Q 46.96875 40.921875 40.578125 39.3125 
z
" id="DejaVuSans-51"/>
      </defs>
      <g transform="translate(31.096875 98.86276)scale(0.1 -0.1)">
       <use xlink:href="#DejaVuSans-51"/>
       <use x="63.623047" xlink:href="#DejaVuSans-46"/>
       <use x="95.410156" xlink:href="#DejaVuSans-48"/>
      </g>
     </g>
    </g>
    <g id="ytick_8">
     <g id="line2d_17">
      <g>
       <use style="stroke:#000000;stroke-width:0.8;" x="54" xlink:href="#m73ed5dd0f6" y="69.668405"/>
      </g>
     </g>
     <g id="text_17">
      <!-- 3.5 -->
      <g transform="translate(31.096875 73.467624)scale(0.1 -0.1)">
       <use xlink:href="#DejaVuSans-51"/>
       <use x="63.623047" xlink:href="#DejaVuSans-46"/>
       <use x="95.410156" xlink:href="#DejaVuSans-53"/>
      </g>
     </g>
    </g>
    <g id="ytick_9">
     <g id="line2d_18">
      <g>
       <use style="stroke:#000000;stroke-width:0.8;" x="54" xlink:href="#m73ed5dd0f6" y="44.273268"/>
      </g>
     </g>
     <g id="text_18">
      <!-- 4.0 -->
      <defs>
       <path d="M 37.796875 64.3125 
L 12.890625 25.390625 
L 37.796875 25.390625 
z
M 35.203125 72.90625 
L 47.609375 72.90625 
L 47.609375 25.390625 
L 58.015625 25.390625 
L 58.015625 17.1875 
L 47.609375 17.1875 
L 47.609375 0 
L 37.796875 0 
L 37.796875 17.1875 
L 4.890625 17.1875 
L 4.890625 26.703125 
z
" id="DejaVuSans-52"/>
      </defs>
      <g transform="translate(31.096875 48.072487)scale(0.1 -0.1)">
       <use xlink:href="#DejaVuSans-52"/>
       <use x="63.623047" xlink:href="#DejaVuSans-46"/>
       <use x="95.410156" xlink:href="#DejaVuSans-48"/>
      </g>
     </g>
    </g>
   </g>
   <g id="line2d_19">
    <path clip-path="url(#p70853aefa6)" d="M 69.218182 46.228408 
L 69.368633 48.027705 
L 69.519085 47.847151 
L 69.669537 44.556498 
L 69.819988 45.968864 
L 69.97044 45.212906 
L 70.120892 45.454461 
L 70.271343 48.374596 
L 70.421795 47.648734 
L 70.572246 50.212443 
L 70.722698 50.772423 
L 70.87315 50.595415 
L 71.023601 52.952076 
L 71.174053 52.931181 
L 71.324505 51.037698 
L 71.625408 53.718352 
L 71.926311 49.494255 
L 72.076763 50.213783 
L 72.227214 51.920354 
L 72.377666 48.863011 
L 72.528118 48.436973 
L 72.678569 48.88633 
L 72.829021 46.16979 
L 72.979472 47.590475 
L 73.129924 47.478439 
L 73.280376 44.443636 
L 73.430827 48.269056 
L 73.581279 46.022626 
L 73.882182 48.490767 
L 74.032634 47.986452 
L 74.333537 44.879262 
L 74.483989 47.381304 
L 74.63444 46.104533 
L 74.784892 47.392054 
L 75.085795 51.574051 
L 75.236247 53.024972 
L 75.386698 52.871505 
L 75.53715 54.739394 
L 75.687602 54.644101 
L 75.838053 55.644857 
L 76.138957 53.479713 
L 76.43986 50.972243 
L 76.590311 52.471947 
L 76.891215 50.219209 
L 77.041666 51.086634 
L 77.34257 55.294948 
L 77.493021 51.664329 
L 77.643473 54.038287 
L 77.793924 54.557855 
L 78.094828 53.031202 
L 78.245279 50.862921 
L 78.395731 53.771997 
L 78.546183 53.168417 
L 78.696634 55.169254 
L 78.847086 55.663918 
L 78.997537 55.756511 
L 79.147989 56.487428 
L 79.298441 58.960541 
L 79.448892 59.586927 
L 79.599344 59.186283 
L 79.900247 63.654908 
L 80.050699 65.766045 
L 80.351602 60.787569 
L 80.502054 64.078517 
L 80.652505 64.308115 
L 80.802957 63.8504 
L 80.953409 64.40402 
L 81.10386 65.547962 
L 81.254312 68.318952 
L 81.404763 65.990571 
L 81.555215 67.567515 
L 81.705667 67.595468 
L 82.00657 71.608118 
L 82.157022 71.761325 
L 82.307473 70.572062 
L 82.457925 71.036517 
L 82.90928 73.915023 
L 83.059731 73.762159 
L 83.360635 77.008793 
L 83.511086 76.597709 
L 83.661538 73.702757 
L 83.811989 75.691087 
L 83.962441 74.05493 
L 84.263344 69.802359 
L 84.413796 72.302082 
L 84.714699 70.388171 
L 84.865151 72.093096 
L 85.015602 71.452587 
L 85.166054 71.694777 
L 85.466957 77.055375 
L 85.617409 77.22988 
L 85.767861 78.548946 
L 85.918312 78.229035 
L 86.67057 69.852231 
L 86.821022 71.158913 
L 87.121925 77.317905 
L 87.272377 78.504941 
L 87.422828 77.12996 
L 87.723732 83.33883 
L 87.874183 78.696861 
L 88.024635 77.935715 
L 88.175087 79.68572 
L 89.077796 74.466512 
L 89.228248 78.675371 
L 89.3787 75.722885 
L 89.529151 79.557773 
L 89.679603 78.85978 
L 89.830054 78.930174 
L 89.980506 79.750046 
L 90.281409 78.021115 
L 90.431861 80.369799 
L 90.732764 77.414055 
L 90.883216 77.891462 
L 91.033667 81.807441 
L 91.184119 82.106609 
L 91.334571 81.045554 
L 91.485022 81.054379 
L 91.635474 82.331642 
L 91.785925 82.148955 
L 91.936377 80.285066 
L 92.086829 82.618885 
L 92.23728 78.923957 
L 92.387732 84.035063 
L 92.538184 84.99904 
L 92.688635 89.962319 
L 92.839087 90.691077 
L 92.989538 90.256269 
L 93.13999 91.009329 
L 93.591345 89.090618 
L 93.741797 88.626487 
L 93.892248 89.507916 
L 94.193151 86.592387 
L 94.343603 89.345178 
L 94.494055 87.951443 
L 94.644506 88.701022 
L 94.794958 90.36641 
L 94.94541 90.277776 
L 95.095861 89.471065 
L 95.246313 94.03476 
L 95.848119 87.863841 
L 96.149023 88.835897 
L 96.750829 95.553209 
L 96.901281 95.224938 
L 97.051732 93.333913 
L 97.202184 93.431161 
L 97.352636 93.696026 
L 97.503087 96.435864 
L 97.653539 94.928625 
L 97.80399 90.371206 
L 98.104894 94.092385 
L 98.255345 92.810097 
L 98.556249 95.432926 
L 98.7067 96.990955 
L 98.857152 99.765645 
L 99.007603 97.392856 
L 99.308507 101.303181 
L 99.60941 95.470479 
L 99.759862 94.963467 
L 100.060765 101.378327 
L 100.211216 101.242795 
L 100.662571 94.785823 
L 100.813023 98.725693 
L 100.963475 98.921328 
L 101.264378 96.052369 
L 101.414829 97.057902 
L 101.565281 96.98319 
L 101.715733 98.505833 
L 101.866184 96.176785 
L 102.016636 95.915702 
L 102.317539 88.798818 
L 102.618442 94.259166 
L 102.919346 88.730364 
L 103.069797 88.795537 
L 103.370701 90.119879 
L 103.521152 90.928711 
L 103.671604 95.108507 
L 104.122959 95.874234 
L 104.27341 97.49677 
L 104.574314 95.661285 
L 104.724765 94.620225 
L 105.17612 99.622631 
L 105.326572 104.515994 
L 105.477023 105.381553 
L 105.627475 104.154651 
L 105.928378 111.478239 
L 106.229281 111.447547 
L 106.379733 109.246522 
L 106.530185 110.229406 
L 106.680636 112.08978 
L 106.831088 110.043452 
L 106.98154 110.694157 
L 107.131991 110.727711 
L 107.282443 111.529686 
L 107.432894 110.637238 
L 107.583346 111.269148 
L 107.733798 111.285236 
L 108.034701 109.549617 
L 108.185153 110.066858 
L 108.335604 109.26779 
L 108.486056 107.21434 
L 108.636507 107.671975 
L 108.786959 106.913484 
L 108.937411 105.383146 
L 109.087862 106.437216 
L 109.238314 109.363457 
L 109.388766 114.475793 
L 109.539217 115.072383 
L 109.689669 112.845607 
L 109.84012 114.896063 
L 109.990572 114.642874 
L 110.141024 117.961808 
L 110.291475 118.630144 
L 110.441927 121.592173 
L 110.592379 121.298095 
L 111.194185 127.512815 
L 111.344637 125.892143 
L 111.64554 130.113714 
L 111.946443 133.93615 
L 112.397798 128.671186 
L 112.54825 129.317772 
L 112.849153 133.086778 
L 113.150056 135.068735 
L 113.450959 134.85989 
L 113.751863 137.125171 
L 114.203218 135.716325 
L 114.353669 138.073022 
L 114.654572 136.114646 
L 114.955476 134.027643 
L 115.406831 139.563813 
L 115.557282 140.485255 
L 115.707734 138.855483 
L 115.858185 138.995008 
L 116.008637 140.043001 
L 116.159089 138.948314 
L 116.30954 140.59506 
L 116.459992 140.046992 
L 116.610444 139.049737 
L 116.760895 140.855306 
L 116.911347 141.202628 
L 117.21225 144.37585 
L 117.362702 144.623312 
L 117.814057 152.001967 
L 117.964508 151.64753 
L 118.11496 152.586317 
L 118.265411 152.558237 
L 118.415863 151.425807 
L 118.566315 151.933018 
L 119.01767 154.791571 
L 119.168121 155.624006 
L 119.318573 154.663826 
L 119.469024 154.984543 
L 119.619476 157.309911 
L 119.769928 157.374143 
L 120.070831 159.682072 
L 120.522186 161.797549 
L 120.672637 158.933706 
L 120.823089 159.258596 
L 121.123992 162.554416 
L 121.575347 165.169243 
L 121.725799 165.181769 
L 121.87625 165.360204 
L 122.026702 163.160847 
L 122.177154 164.117317 
L 122.478057 168.835169 
L 122.628509 168.600666 
L 122.77896 167.654889 
L 122.929412 167.666634 
L 123.079863 168.489631 
L 123.230315 168.327699 
L 123.380767 169.351162 
L 123.531218 168.263329 
L 123.68167 170.48265 
L 123.832122 170.433079 
L 123.982573 169.192959 
L 124.283476 169.254622 
L 124.58438 170.107339 
L 124.734831 171.474056 
L 124.885283 171.112653 
L 125.035735 173.509823 
L 125.336638 170.705398 
L 125.487089 170.090738 
L 125.787993 172.505056 
L 125.938444 172.161187 
L 126.088896 172.735685 
L 126.239348 172.153417 
L 126.389799 172.318186 
L 126.540251 172.882048 
L 126.690702 174.43737 
L 126.841154 174.577458 
L 126.991606 176.406969 
L 127.142057 176.575319 
L 127.292509 176.340952 
L 127.44296 175.789126 
L 127.593412 174.104506 
L 127.743864 174.077969 
L 127.894315 175.540177 
L 128.044767 174.354252 
L 128.195219 176.247335 
L 128.34567 175.427314 
L 128.646573 176.87515 
L 128.797025 176.17879 
L 128.947477 176.887808 
L 129.097928 176.063624 
L 129.24838 177.019257 
L 129.398832 177.074521 
L 129.549283 175.619805 
L 129.699735 172.706369 
L 129.850186 172.783741 
L 130.15109 173.413767 
L 130.301541 173.132755 
L 130.451993 173.35143 
L 131.053799 176.889107 
L 131.204251 176.311644 
L 131.354703 176.807516 
L 131.505154 175.271379 
L 131.655606 175.327112 
L 131.956509 175.519527 
L 132.407864 177.94403 
L 132.708767 183.353747 
L 133.611477 189.329205 
L 133.761929 189.237951 
L 134.062832 187.995641 
L 134.213284 187.759599 
L 134.514187 190.551594 
L 134.664638 190.965342 
L 135.115993 193.386781 
L 135.266445 193.478187 
L 135.567348 193.222437 
L 135.7178 193.436894 
L 136.770961 196.634205 
L 137.222316 199.803449 
L 137.372768 199.478906 
L 137.523219 199.628273 
L 137.673671 200.083535 
L 137.824123 199.669825 
L 137.974574 200.103513 
L 138.125026 199.738597 
L 138.576381 201.51331 
L 138.877284 202.133437 
L 139.027736 201.56136 
L 139.178187 202.082974 
L 139.47909 201.449044 
L 139.629542 202.148145 
L 139.779994 202.204488 
L 140.080897 203.890777 
L 140.231349 203.11141 
L 140.3818 203.708869 
L 140.532252 204.86754 
L 140.682703 205.042091 
L 140.983607 206.70376 
L 141.134058 206.778374 
L 141.434962 206.239344 
L 141.585413 206.065098 
L 141.735865 206.11126 
L 141.886316 206.544738 
L 142.036768 208.028401 
L 142.18722 207.086426 
L 142.488123 208.235724 
L 142.638575 207.722468 
L 142.939478 208.607366 
L 143.089929 208.310696 
L 143.691736 210.68171 
L 143.842188 210.825346 
L 143.992639 210.64526 
L 144.443994 212.932525 
L 144.594446 213.414486 
L 144.744897 214.694217 
L 144.895349 214.933758 
L 145.045801 214.945768 
L 145.346704 217.237086 
L 145.497155 217.324344 
L 145.647607 217.827184 
L 145.798059 217.171355 
L 145.94851 217.105512 
L 146.098962 217.517412 
L 146.249414 218.27445 
L 146.399865 218.12942 
L 146.85122 218.854625 
L 147.603478 221.597223 
L 147.75393 221.41237 
L 148.054833 222.125024 
L 148.205285 222.315313 
L 148.355736 222.770384 
L 148.506188 222.70219 
L 148.65664 223.128684 
L 148.807091 224.472496 
L 149.107994 225.166768 
L 149.258446 225.050248 
L 149.559349 225.411247 
L 149.860253 224.812066 
L 150.010704 224.681633 
L 150.311607 223.69193 
L 150.462059 223.352504 
L 150.612511 223.420449 
L 150.762962 224.124284 
L 150.913414 223.811811 
L 151.063866 223.947023 
L 151.364769 222.496317 
L 151.665672 222.719125 
L 151.966575 221.689111 
L 152.41793 223.090294 
L 152.568382 222.885822 
L 152.718833 222.963715 
L 152.869285 223.836456 
L 153.019737 223.506004 
L 153.471092 224.593483 
L 153.621543 224.72335 
L 153.771995 224.561858 
L 154.072898 225.299396 
L 154.524253 225.572474 
L 154.674705 225.113662 
L 155.126059 226.102541 
L 155.426963 225.938085 
L 155.727866 226.254596 
L 155.878318 225.982686 
L 156.179221 226.778354 
L 156.480124 226.734173 
L 156.931479 226.064954 
L 157.081931 225.846679 
L 157.382834 226.501653 
L 157.834189 227.054361 
L 157.98464 227.040459 
L 158.285544 227.196774 
L 158.435995 226.856016 
L 158.736898 226.689083 
L 158.88735 226.414812 
L 159.037802 226.536175 
L 159.188253 226.001456 
L 159.338705 226.303819 
L 159.489157 225.997871 
L 160.391866 227.122055 
L 160.542318 226.889547 
L 160.843221 227.563073 
L 161.144124 227.71912 
L 161.745931 228.610614 
L 161.896383 229.278239 
L 162.046834 229.405125 
L 162.498189 230.471142 
L 162.648641 230.493208 
L 162.799092 230.312384 
L 162.949544 230.732418 
L 163.099996 230.279555 
L 163.250447 230.389049 
L 163.400899 230.359828 
L 163.55135 230.698644 
L 163.852254 230.446866 
L 164.153157 230.356928 
L 164.303609 230.101744 
L 164.604512 230.46443 
L 164.905415 230.426878 
L 165.055867 230.425646 
L 165.206318 230.563042 
L 165.35677 230.329724 
L 165.657673 230.339091 
L 165.808125 230.4445 
L 165.958576 230.116146 
L 166.109028 230.160943 
L 166.409931 230.045911 
L 166.710834 230.410865 
L 167.162189 230.085432 
L 167.312641 230.486712 
L 167.463093 230.168376 
L 167.613544 230.17007 
L 167.763996 230.312378 
L 168.064899 229.754018 
L 168.215351 229.708914 
L 168.365802 229.826228 
L 168.666706 229.350783 
L 168.967609 229.33544 
L 169.268512 229.583563 
L 169.418964 229.542051 
L 169.569415 229.354923 
L 169.870319 229.487199 
L 170.02077 229.800411 
L 170.171222 229.837152 
L 170.321673 229.738074 
L 170.472125 230.011496 
L 170.773028 229.741515 
L 171.073932 230.220189 
L 171.374835 230.433893 
L 171.82619 230.428881 
L 172.127093 230.78518 
L 172.277545 230.574617 
L 172.427996 230.763252 
L 172.578448 231.218802 
L 172.728899 230.9976 
L 172.879351 231.248658 
L 173.029803 231.137263 
L 173.481158 231.945987 
L 173.782061 232.109973 
L 173.932512 231.991804 
L 174.233416 232.089338 
L 174.383867 231.747368 
L 174.684771 232.248661 
L 174.835222 232.156027 
L 174.985674 232.388677 
L 175.136125 232.224256 
L 175.437029 232.531092 
L 175.58748 232.228884 
L 175.888384 232.401624 
L 176.038835 232.373568 
L 176.339738 231.903678 
L 176.49019 231.693498 
L 177.091997 231.56674 
L 177.242448 231.374571 
L 177.3929 231.583137 
L 177.543351 231.503439 
L 177.693803 231.577789 
L 177.844255 231.835922 
L 177.994706 231.35406 
L 178.446061 231.765151 
L 178.596513 231.618268 
L 178.746964 231.772495 
L 178.897416 231.695335 
L 179.499223 232.021643 
L 179.649674 232.448308 
L 179.950577 232.239012 
L 180.702836 232.497411 
L 180.853287 232.45876 
L 181.003739 232.571962 
L 181.15419 232.331826 
L 181.455094 232.331311 
L 181.605545 232.492091 
L 181.906449 232.255253 
L 182.0569 232.412716 
L 182.207352 232.354582 
L 182.357803 232.023169 
L 182.508255 232.116311 
L 182.658707 231.727516 
L 182.809158 231.921808 
L 182.95961 231.802868 
L 183.260513 232.195922 
L 183.410965 232.617672 
L 183.711868 232.817794 
L 183.86232 232.690887 
L 184.012771 232.773419 
L 184.313675 233.431748 
L 184.464126 232.957756 
L 184.765029 233.048226 
L 184.915481 232.873969 
L 185.065933 232.9016 
L 185.366836 233.459757 
L 185.517288 233.381856 
L 185.667739 233.578069 
L 185.818191 233.393939 
L 185.968642 233.617983 
L 186.119094 233.441938 
L 186.269546 233.56588 
L 186.419997 233.253137 
L 186.720901 233.229686 
L 187.021804 233.588494 
L 187.322707 232.860545 
L 187.62361 233.394991 
L 187.774062 233.379125 
L 187.924514 233.866576 
L 188.225417 233.181835 
L 188.375868 233.291381 
L 188.52632 233.481774 
L 188.676772 233.283978 
L 188.977675 233.419034 
L 189.128127 233.440123 
L 189.579481 233.169525 
L 190.030836 233.303473 
L 190.482191 234.122742 
L 190.632643 233.669899 
L 191.234449 234.109734 
L 191.535353 234.328199 
L 191.836256 234.664173 
L 191.986707 234.49709 
L 192.137159 234.641802 
L 192.438062 234.391683 
L 192.588514 234.493228 
L 192.738966 234.380825 
L 192.889417 234.511845 
L 193.19032 234.120358 
L 193.491224 234.047186 
L 193.792127 234.467844 
L 194.09303 234.157932 
L 194.243482 234.286785 
L 194.393933 234.004102 
L 194.694837 234.117918 
L 194.845288 233.863236 
L 195.296643 233.905371 
L 195.447095 234.132043 
L 195.747998 234.01732 
L 195.89845 234.116939 
L 196.048901 234.449402 
L 196.349805 234.408076 
L 196.500256 234.292876 
L 196.801159 234.396765 
L 197.102063 234.564277 
L 197.252514 234.491758 
L 197.402966 234.600368 
L 197.553418 234.481469 
L 197.854321 234.76436 
L 198.004772 234.917624 
L 198.456127 234.781855 
L 198.606579 235.053806 
L 198.757031 234.983501 
L 199.208385 234.483793 
L 199.509289 234.757007 
L 199.960644 234.33653 
L 200.111095 234.504124 
L 200.261547 234.45403 
L 200.411998 234.642384 
L 200.712902 234.311845 
L 201.013805 234.467236 
L 201.314708 234.90511 
L 201.46516 234.903508 
L 201.615611 234.74325 
L 202.217418 235.490715 
L 202.518321 235.278529 
L 202.668773 235.32591 
L 202.819224 235.648963 
L 202.969676 235.620152 
L 203.120128 235.400105 
L 203.270579 235.54737 
L 203.421031 235.198126 
L 203.571482 235.279725 
L 203.872386 235.699811 
L 204.022837 235.70288 
L 204.173289 235.322112 
L 204.624644 235.353619 
L 205.075999 235.765756 
L 205.22645 235.754914 
L 205.527354 236.094381 
L 205.677805 236.023697 
L 205.978708 236.222194 
L 206.12916 236.460565 
L 206.430063 236.53229 
L 206.580515 236.684883 
L 206.730967 236.467078 
L 207.03187 236.698024 
L 207.332773 237.10993 
L 207.483225 237.094216 
L 207.633676 237.303576 
L 208.085031 237.19083 
L 208.235483 236.880357 
L 208.385934 237.003833 
L 208.536386 236.770755 
L 208.837289 236.811867 
L 209.138193 236.417435 
L 209.288644 236.478347 
L 209.439096 236.717223 
L 209.589547 236.680517 
L 209.739999 236.874957 
L 210.492257 235.815268 
L 210.642709 235.727916 
L 210.943612 235.272426 
L 211.094064 235.298053 
L 211.244515 235.687897 
L 211.394967 235.586161 
L 211.846322 235.897847 
L 212.147225 236.200653 
L 212.59858 235.671907 
L 212.899483 235.871256 
L 213.049935 235.91449 
L 213.50129 236.862527 
L 213.651741 236.90027 
L 213.952645 237.239914 
L 214.103096 237.198557 
L 214.253548 236.96785 
L 214.554451 237.003983 
L 214.855354 236.876303 
L 215.005806 237.078135 
L 215.156258 237.007575 
L 215.607612 237.481224 
L 215.758064 237.308239 
L 216.058967 237.527204 
L 216.359871 237.4289 
L 216.510322 237.260848 
L 216.811225 237.357618 
L 217.563484 237.686227 
L 218.466193 237.432213 
L 219.068 237.832129 
L 219.368903 237.842442 
L 219.519355 238.097276 
L 219.669806 238.113473 
L 219.97071 237.944627 
L 220.422064 237.671129 
L 220.722968 238.088829 
L 221.324774 238.060785 
L 221.475226 238.280921 
L 222.678839 237.675323 
L 222.82929 237.810344 
L 222.979742 237.772683 
L 223.130194 237.937545 
L 223.280645 237.773375 
L 223.431097 237.95734 
L 223.882452 237.580736 
L 224.333807 237.812305 
L 224.63471 237.780665 
L 224.785162 237.988841 
L 225.53742 237.826211 
L 225.838323 238.018859 
L 226.289678 238.200083 
L 226.440129 237.978885 
L 226.590581 238.060567 
L 226.741033 238.013108 
L 226.891484 238.154822 
L 227.794194 237.521364 
L 228.095097 237.636737 
L 228.396001 237.754816 
L 228.546452 237.482166 
L 228.696904 237.610711 
L 228.847355 237.488905 
L 229.449162 237.678489 
L 229.750065 237.571969 
L 230.20142 237.943952 
L 230.652775 238.305901 
L 231.405033 238.557996 
L 231.555485 238.870838 
L 231.856388 238.670113 
L 232.157291 238.926988 
L 232.307743 238.817893 
L 232.759098 239.333067 
L 233.060001 239.369796 
L 233.210453 239.031719 
L 233.360904 239.021703 
L 233.511356 238.790323 
L 234.414066 238.840613 
L 234.714969 238.761935 
L 234.86542 238.942274 
L 235.166324 238.807852 
L 235.316775 238.969231 
L 236.069033 238.556413 
L 236.219485 238.822123 
L 236.369937 238.742347 
L 236.520388 238.922257 
L 236.821292 238.840105 
L 237.122195 238.723549 
L 237.423098 238.476484 
L 237.57355 238.585479 
L 238.024905 238.336275 
L 238.325808 238.357574 
L 238.476259 238.256712 
L 238.626711 238.414038 
L 239.228518 238.389083 
L 239.679872 238.576944 
L 239.980776 238.315502 
L 240.281679 238.651879 
L 240.43213 238.852188 
L 240.582582 238.686289 
L 241.033937 239.011733 
L 241.33484 238.631529 
L 241.786195 238.581966 
L 242.087098 238.590294 
L 242.388002 238.683554 
L 242.688905 238.524316 
L 242.989808 238.942296 
L 243.14026 238.816652 
L 243.742066 238.937928 
L 244.042969 238.798687 
L 244.644776 239.211838 
L 245.547486 239.170585 
L 245.697937 239.301172 
L 246.299744 239.084441 
L 246.450195 238.700403 
L 247.052002 238.732339 
L 247.352905 238.607834 
L 247.80426 238.665625 
L 247.954712 238.864467 
L 248.255615 238.729233 
L 248.406067 238.873395 
L 248.857421 238.863347 
L 249.308776 239.228196 
L 249.459228 239.444747 
L 249.760131 239.521089 
L 250.061034 239.597439 
L 250.211486 239.8373 
L 250.963744 239.832021 
L 251.264647 240.131612 
L 251.415099 240.043776 
L 251.565551 240.17041 
L 251.866454 239.995633 
L 252.016906 239.929532 
L 252.167357 239.99309 
L 252.317809 239.873367 
L 252.46826 239.907762 
L 252.769164 239.787875 
L 253.972777 239.794316 
L 254.123228 239.602202 
L 254.424132 239.683946 
L 254.875486 239.828562 
L 255.17639 239.412161 
L 255.627745 239.595629 
L 255.928648 239.363386 
L 256.079099 239.399673 
L 256.229551 239.578307 
L 256.530454 239.4381 
L 256.680906 239.391067 
L 256.831358 239.479158 
L 257.132261 239.468042 
L 257.433164 239.521221 
L 257.884519 239.138614 
L 258.185422 239.487183 
L 258.486325 239.511735 
L 258.93768 239.944432 
L 259.238584 239.7411 
L 259.539487 239.907556 
L 260.141293 239.981523 
L 260.442197 239.698692 
L 261.044003 240.022519 
L 261.64581 239.76967 
L 261.796261 239.843281 
L 262.097164 239.685534 
L 262.247616 239.611274 
L 262.398068 239.668932 
L 262.698971 239.490597 
L 262.849423 239.557886 
L 263.451229 239.389077 
L 263.601681 239.372977 
L 263.902584 239.622716 
L 264.203487 239.720224 
L 265.106197 239.839752 
L 265.256649 239.978746 
L 265.557552 239.912342 
L 266.008907 239.795944 
L 266.159358 239.642527 
L 266.610713 239.894903 
L 267.062068 239.921797 
L 267.362971 239.826951 
L 267.814326 239.869771 
L 268.265681 239.609736 
L 269.318842 239.950273 
L 270.221552 239.814172 
L 270.372004 239.63842 
L 270.823359 239.615006 
L 271.124262 239.908341 
L 271.425165 239.717941 
L 272.327875 239.970201 
L 272.628778 239.9783 
L 273.080133 240.07871 
L 273.230585 239.993272 
L 273.381036 240.219521 
L 273.982843 240.228924 
L 274.434198 240.526621 
L 274.584649 240.434605 
L 275.487359 240.73106 
L 275.637811 240.601317 
L 275.788262 240.635807 
L 275.938714 240.429822 
L 276.390069 240.488404 
L 276.690972 240.375874 
L 277.292779 240.332314 
L 277.744133 240.303568 
L 278.045037 240.088868 
L 279.549553 240.429431 
L 281.204521 240.925722 
L 281.956779 240.880857 
L 282.10723 241.048201 
L 282.558585 240.762778 
L 283.160392 240.899197 
L 283.461295 240.752964 
L 283.762198 240.642878 
L 284.063102 240.411754 
L 284.664908 240.351106 
L 284.81536 240.281649 
L 285.116263 240.279628 
L 286.319876 240.351051 
L 286.470328 240.245298 
L 286.620779 239.876526 
L 286.921682 240.020096 
L 287.072134 240.118554 
L 287.373037 240.071923 
L 287.673941 239.703264 
L 288.125295 239.657806 
L 288.426199 239.61109 
L 289.328908 239.442587 
L 289.47936 239.436422 
L 289.629812 239.725253 
L 289.780263 239.713017 
L 290.231618 239.939373 
L 290.38207 239.985904 
L 290.532521 240.30263 
L 290.833425 240.290083 
L 290.983876 240.181676 
L 291.28478 240.326725 
L 291.585683 240.185366 
L 292.037038 240.087684 
L 292.337941 239.839607 
L 292.638844 240.029614 
L 292.789296 240.00236 
L 293.240651 239.609726 
L 293.541554 239.678601 
L 293.842457 239.611612 
L 294.293812 239.255081 
L 294.444264 239.263165 
L 294.745167 239.093919 
L 295.04607 239.042789 
L 295.196522 239.31038 
L 295.497425 239.37415 
L 296.099232 239.503559 
L 296.249683 239.644845 
L 296.701038 239.440095 
L 297.001941 239.840779 
L 297.152393 240.080186 
L 297.453296 240.168532 
L 298.055103 240.504342 
L 298.506458 240.520655 
L 298.957812 239.991971 
L 299.108264 240.091957 
L 299.258716 239.942758 
L 299.710071 240.100756 
L 300.311877 240.081504 
L 300.913684 239.793429 
L 301.064135 239.874791 
L 301.214587 239.78678 
L 301.51549 239.349352 
L 301.966845 239.578114 
L 302.869555 240.04724 
L 303.32091 239.971075 
L 303.922716 240.450313 
L 304.073168 240.261946 
L 304.223619 240.3252 
L 304.674974 240.863729 
L 305.276781 240.714552 
L 305.878587 240.31371 
L 306.17949 240.391035 
L 306.329942 240.447875 
L 306.630845 240.2306 
L 306.781297 240.216646 
L 306.931749 240.043989 
L 307.0822 240.251531 
L 307.232652 240.195539 
L 307.383103 240.298271 
L 307.684007 240.238984 
L 308.586716 240.918368 
L 308.737168 240.696657 
L 309.038071 240.905167 
L 309.338975 240.683127 
L 309.639878 240.896735 
L 309.790329 240.861936 
L 310.091233 241.208744 
L 310.392136 241.190077 
L 310.542588 241.318672 
L 311.144394 241.062745 
L 311.445297 240.781496 
L 311.595749 240.795212 
L 311.746201 240.94689 
L 312.047104 240.579574 
L 312.348007 240.553882 
L 312.799362 240.486548 
L 313.250717 240.306791 
L 313.401168 240.328925 
L 313.702072 239.825764 
L 313.852523 239.765562 
L 314.002975 239.931473 
L 314.153427 239.899844 
L 314.303878 240.000497 
L 314.755233 239.828074 
L 315.056136 240.21676 
L 315.35704 240.517043 
L 315.657943 240.287456 
L 316.259749 240.538732 
L 316.410201 240.473709 
L 316.861556 241.148821 
L 317.162459 241.146401 
L 317.312911 241.066137 
L 317.463362 241.204315 
L 317.613814 241.188996 
L 317.764265 241.303084 
L 317.914717 241.114279 
L 318.065169 241.152847 
L 318.366072 241.045322 
L 318.817427 241.095854 
L 318.967878 240.892357 
L 319.11833 240.943239 
L 320.171491 240.537885 
L 320.472395 240.544923 
L 320.773298 240.387898 
L 321.074201 240.464401 
L 321.224653 240.554237 
L 321.826459 240.418657 
L 321.976911 240.58293 
L 322.127363 240.381978 
L 323.030072 240.505494 
L 323.481427 240.686815 
L 323.631879 240.836892 
L 323.932782 240.742355 
L 324.534589 241.02639 
L 325.437298 241.59553 
L 325.58775 241.561895 
L 325.888653 241.743537 
L 326.039105 241.811835 
L 326.189556 241.686703 
L 326.340008 241.75449 
L 326.640911 241.719013 
L 326.791363 241.842891 
L 327.242718 241.685674 
L 328.295879 240.974237 
L 328.747234 241.066761 
L 329.048137 240.773977 
L 329.349041 240.812404 
L 329.649944 240.80885 
L 329.800395 240.620642 
L 330.101299 240.768374 
L 330.25175 240.669022 
L 330.703105 241.078899 
L 330.853557 240.947193 
L 331.15446 241.052879 
L 331.455363 240.942762 
L 331.756267 240.789132 
L 332.508525 240.951083 
L 333.110331 240.259803 
L 333.862589 240.462703 
L 335.517557 240.261499 
L 335.668009 240.442033 
L 335.81846 240.870621 
L 335.968912 240.82693 
L 336.119364 240.9081 
L 336.871622 240.494527 
L 337.774332 240.681218 
L 337.924783 240.873345 
L 338.52659 240.70257 
L 338.827493 240.455038 
L 339.429299 240.817986 
L 339.730203 240.655973 
L 339.880654 240.785201 
L 340.332009 240.744782 
L 340.482461 240.838003 
L 340.933816 240.602885 
L 341.084267 240.699383 
L 341.234719 240.628388 
L 341.686074 240.878721 
L 342.137429 240.654454 
L 342.28788 240.724578 
L 342.438332 240.593266 
L 342.739235 240.663629 
L 343.040138 240.366082 
L 343.19059 240.517778 
L 343.341042 240.437805 
L 343.641945 240.54751 
L 344.243751 240.18148 
L 344.394203 240.051837 
L 344.544655 240.231291 
L 344.845558 240.120118 
L 345.146461 240.297127 
L 345.447364 240.222257 
L 345.898719 240.399712 
L 346.350074 240.613122 
L 346.650977 240.46838 
L 347.252784 240.599851 
L 347.403236 240.708562 
L 347.553687 240.625185 
L 348.155494 240.957592 
L 348.305945 240.989396 
L 348.456397 240.902278 
L 348.907752 240.962947 
L 349.058203 240.914456 
L 349.359107 240.699861 
L 349.66001 240.688767 
L 349.810462 240.922641 
L 350.412268 240.884244 
L 350.56272 240.96401 
L 351.314978 240.502148 
L 351.465429 240.692083 
L 351.916784 240.694688 
L 352.368139 240.913467 
L 352.518591 240.818691 
L 352.669042 240.888527 
L 352.819494 240.782793 
L 353.120397 241.073508 
L 353.571752 241.12764 
L 353.722204 240.98028 
L 354.023107 241.019644 
L 354.173559 241.230471 
L 354.775365 240.635588 
L 355.076268 240.721205 
L 355.22672 240.498225 
L 355.377172 240.522807 
L 355.527623 240.663791 
L 356.580785 239.943158 
L 356.881688 240.205131 
L 357.333043 240.36001 
L 357.784398 240.63637 
L 357.934849 240.288814 
L 358.235752 240.257108 
L 358.988011 240.154781 
L 359.138462 240.455132 
L 359.439365 240.170805 
L 359.589817 240.247344 
L 360.191624 239.792855 
L 360.642978 239.99074 
L 361.395237 240.4839 
L 361.69614 240.561047 
L 361.997043 240.857805 
L 362.147495 240.877737 
L 362.297946 241.064833 
L 362.749301 241.085533 
L 363.050204 241.324539 
L 363.200656 241.414476 
L 363.652011 241.205041 
L 364.554721 241.190062 
L 365.006076 240.883337 
L 365.156527 240.885125 
L 365.306979 240.770379 
L 365.758334 240.776384 
L 366.059237 240.28109 
L 366.36014 240.348986 
L 367.112398 240.205079 
L 367.413302 240.124933 
L 367.563753 240.228079 
L 367.864656 240.028371 
L 368.16556 239.819266 
L 368.316011 239.923302 
L 368.466463 239.840065 
L 368.767366 239.879979 
L 368.917818 240.224708 
L 369.519624 240.558841 
L 370.121431 241.012069 
L 370.572786 241.166383 
L 371.024141 241.670921 
L 372.227754 242.013674 
L 372.528657 241.95925 
L 372.82956 241.935818 
L 372.980012 241.843212 
L 373.581818 241.97928 
L 373.581818 241.97928 
" style="fill:none;stroke:#1f77b4;stroke-linecap:square;stroke-width:1.5;"/>
   </g>
   <g id="patch_3">
    <path d="M 54 252 
L 54 34.56 
" style="fill:none;stroke:#000000;stroke-linecap:square;stroke-linejoin:miter;stroke-width:0.8;"/>
   </g>
   <g id="patch_4">
    <path d="M 388.8 252 
L 388.8 34.56 
" style="fill:none;stroke:#000000;stroke-linecap:square;stroke-linejoin:miter;stroke-width:0.8;"/>
   </g>
   <g id="patch_5">
    <path d="M 54 252 
L 388.8 252 
" style="fill:none;stroke:#000000;stroke-linecap:square;stroke-linejoin:miter;stroke-width:0.8;"/>
   </g>
   <g id="patch_6">
    <path d="M 54 34.56 
L 388.8 34.56 
" style="fill:none;stroke:#000000;stroke-linecap:square;stroke-linejoin:miter;stroke-width:0.8;"/>
   </g>
  </g>
 </g>
 <defs>
  <clipPath id="p70853aefa6">
   <rect height="217.44" width="334.8" x="54" y="34.56"/>
  </clipPath>
 </defs>
</svg>
