<?xml version="1.0" encoding="utf-8" standalone="no"?>
<!DOCTYPE svg PUBLIC "-//W3C//DTD SVG 1.1//EN"
  "http://www.w3.org/Graphics/SVG/1.1/DTD/svg11.dtd">
<!-- Created with matplotlib (https://matplotlib.org/) -->
<svg height="288pt" version="1.1" viewBox="0 0 432 288" width="432pt" xmlns="http://www.w3.org/2000/svg" xmlns:xlink="http://www.w3.org/1999/xlink">
 <defs>
  <style type="text/css">
*{stroke-linecap:butt;stroke-linejoin:round;}
  </style>
 </defs>
 <g id="figure_1">
  <g id="patch_1">
   <path d="M 0 288 
L 432 288 
L 432 0 
L 0 0 
z
" style="fill:#ffffff;"/>
  </g>
  <g id="axes_1">
   <g id="patch_2">
    <path d="M 54 252 
L 388.8 252 
L 388.8 34.56 
L 54 34.56 
z
" style="fill:#ffffff;"/>
   </g>
   <g id="matplotlib.axis_1">
    <g id="xtick_1">
     <g id="line2d_1">
      <defs>
       <path d="M 0 0 
L 0 3.5 
" id="m129f217b40" style="stroke:#000000;stroke-width:0.8;"/>
      </defs>
      <g>
       <use style="stroke:#000000;stroke-width:0.8;" x="69.218182" xlink:href="#m129f217b40" y="252"/>
      </g>
     </g>
     <g id="text_1">
      <!-- 0 -->
      <defs>
       <path d="M 31.78125 66.40625 
Q 24.171875 66.40625 20.328125 58.90625 
Q 16.5 51.421875 16.5 36.375 
Q 16.5 21.390625 20.328125 13.890625 
Q 24.171875 6.390625 31.78125 6.390625 
Q 39.453125 6.390625 43.28125 13.890625 
Q 47.125 21.390625 47.125 36.375 
Q 47.125 51.421875 43.28125 58.90625 
Q 39.453125 66.40625 31.78125 66.40625 
z
M 31.78125 74.21875 
Q 44.046875 74.21875 50.515625 64.515625 
Q 56.984375 54.828125 56.984375 36.375 
Q 56.984375 17.96875 50.515625 8.265625 
Q 44.046875 -1.421875 31.78125 -1.421875 
Q 19.53125 -1.421875 13.0625 8.265625 
Q 6.59375 17.96875 6.59375 36.375 
Q 6.59375 54.828125 13.0625 64.515625 
Q 19.53125 74.21875 31.78125 74.21875 
z
" id="DejaVuSans-48"/>
      </defs>
      <g transform="translate(66.036932 266.598437)scale(0.1 -0.1)">
       <use xlink:href="#DejaVuSans-48"/>
      </g>
     </g>
    </g>
    <g id="xtick_2">
     <g id="line2d_2">
      <g>
       <use style="stroke:#000000;stroke-width:0.8;" x="132.824718" xlink:href="#m129f217b40" y="252"/>
      </g>
     </g>
     <g id="text_2">
      <!-- 10000 -->
      <defs>
       <path d="M 12.40625 8.296875 
L 28.515625 8.296875 
L 28.515625 63.921875 
L 10.984375 60.40625 
L 10.984375 69.390625 
L 28.421875 72.90625 
L 38.28125 72.90625 
L 38.28125 8.296875 
L 54.390625 8.296875 
L 54.390625 0 
L 12.40625 0 
z
" id="DejaVuSans-49"/>
      </defs>
      <g transform="translate(116.918468 266.598437)scale(0.1 -0.1)">
       <use xlink:href="#DejaVuSans-49"/>
       <use x="63.623047" xlink:href="#DejaVuSans-48"/>
       <use x="127.246094" xlink:href="#DejaVuSans-48"/>
       <use x="190.869141" xlink:href="#DejaVuSans-48"/>
       <use x="254.492188" xlink:href="#DejaVuSans-48"/>
      </g>
     </g>
    </g>
    <g id="xtick_3">
     <g id="line2d_3">
      <g>
       <use style="stroke:#000000;stroke-width:0.8;" x="196.431254" xlink:href="#m129f217b40" y="252"/>
      </g>
     </g>
     <g id="text_3">
      <!-- 20000 -->
      <defs>
       <path d="M 19.1875 8.296875 
L 53.609375 8.296875 
L 53.609375 0 
L 7.328125 0 
L 7.328125 8.296875 
Q 12.9375 14.109375 22.625 23.890625 
Q 32.328125 33.6875 34.8125 36.53125 
Q 39.546875 41.84375 41.421875 45.53125 
Q 43.3125 49.21875 43.3125 52.78125 
Q 43.3125 58.59375 39.234375 62.25 
Q 35.15625 65.921875 28.609375 65.921875 
Q 23.96875 65.921875 18.8125 64.3125 
Q 13.671875 62.703125 7.8125 59.421875 
L 7.8125 69.390625 
Q 13.765625 71.78125 18.9375 73 
Q 24.125 74.21875 28.421875 74.21875 
Q 39.75 74.21875 46.484375 68.546875 
Q 53.21875 62.890625 53.21875 53.421875 
Q 53.21875 48.921875 51.53125 44.890625 
Q 49.859375 40.875 45.40625 35.40625 
Q 44.1875 33.984375 37.640625 27.21875 
Q 31.109375 20.453125 19.1875 8.296875 
z
" id="DejaVuSans-50"/>
      </defs>
      <g transform="translate(180.525004 266.598437)scale(0.1 -0.1)">
       <use xlink:href="#DejaVuSans-50"/>
       <use x="63.623047" xlink:href="#DejaVuSans-48"/>
       <use x="127.246094" xlink:href="#DejaVuSans-48"/>
       <use x="190.869141" xlink:href="#DejaVuSans-48"/>
       <use x="254.492188" xlink:href="#DejaVuSans-48"/>
      </g>
     </g>
    </g>
    <g id="xtick_4">
     <g id="line2d_4">
      <g>
       <use style="stroke:#000000;stroke-width:0.8;" x="260.03779" xlink:href="#m129f217b40" y="252"/>
      </g>
     </g>
     <g id="text_4">
      <!-- 30000 -->
      <defs>
       <path d="M 40.578125 39.3125 
Q 47.65625 37.796875 51.625 33 
Q 55.609375 28.21875 55.609375 21.1875 
Q 55.609375 10.40625 48.1875 4.484375 
Q 40.765625 -1.421875 27.09375 -1.421875 
Q 22.515625 -1.421875 17.65625 -0.515625 
Q 12.796875 0.390625 7.625 2.203125 
L 7.625 11.71875 
Q 11.71875 9.328125 16.59375 8.109375 
Q 21.484375 6.890625 26.8125 6.890625 
Q 36.078125 6.890625 40.9375 10.546875 
Q 45.796875 14.203125 45.796875 21.1875 
Q 45.796875 27.640625 41.28125 31.265625 
Q 36.765625 34.90625 28.71875 34.90625 
L 20.21875 34.90625 
L 20.21875 43.015625 
L 29.109375 43.015625 
Q 36.375 43.015625 40.234375 45.921875 
Q 44.09375 48.828125 44.09375 54.296875 
Q 44.09375 59.90625 40.109375 62.90625 
Q 36.140625 65.921875 28.71875 65.921875 
Q 24.65625 65.921875 20.015625 65.03125 
Q 15.375 64.15625 9.8125 62.3125 
L 9.8125 71.09375 
Q 15.4375 72.65625 20.34375 73.4375 
Q 25.25 74.21875 29.59375 74.21875 
Q 40.828125 74.21875 47.359375 69.109375 
Q 53.90625 64.015625 53.90625 55.328125 
Q 53.90625 49.265625 50.4375 45.09375 
Q 46.96875 40.921875 40.578125 39.3125 
z
" id="DejaVuSans-51"/>
      </defs>
      <g transform="translate(244.13154 266.598437)scale(0.1 -0.1)">
       <use xlink:href="#DejaVuSans-51"/>
       <use x="63.623047" xlink:href="#DejaVuSans-48"/>
       <use x="127.246094" xlink:href="#DejaVuSans-48"/>
       <use x="190.869141" xlink:href="#DejaVuSans-48"/>
       <use x="254.492188" xlink:href="#DejaVuSans-48"/>
      </g>
     </g>
    </g>
    <g id="xtick_5">
     <g id="line2d_5">
      <g>
       <use style="stroke:#000000;stroke-width:0.8;" x="323.644327" xlink:href="#m129f217b40" y="252"/>
      </g>
     </g>
     <g id="text_5">
      <!-- 40000 -->
      <defs>
       <path d="M 37.796875 64.3125 
L 12.890625 25.390625 
L 37.796875 25.390625 
z
M 35.203125 72.90625 
L 47.609375 72.90625 
L 47.609375 25.390625 
L 58.015625 25.390625 
L 58.015625 17.1875 
L 47.609375 17.1875 
L 47.609375 0 
L 37.796875 0 
L 37.796875 17.1875 
L 4.890625 17.1875 
L 4.890625 26.703125 
z
" id="DejaVuSans-52"/>
      </defs>
      <g transform="translate(307.738077 266.598437)scale(0.1 -0.1)">
       <use xlink:href="#DejaVuSans-52"/>
       <use x="63.623047" xlink:href="#DejaVuSans-48"/>
       <use x="127.246094" xlink:href="#DejaVuSans-48"/>
       <use x="190.869141" xlink:href="#DejaVuSans-48"/>
       <use x="254.492188" xlink:href="#DejaVuSans-48"/>
      </g>
     </g>
    </g>
    <g id="xtick_6">
     <g id="line2d_6">
      <g>
       <use style="stroke:#000000;stroke-width:0.8;" x="387.250863" xlink:href="#m129f217b40" y="252"/>
      </g>
     </g>
     <g id="text_6">
      <!-- 50000 -->
      <defs>
       <path d="M 10.796875 72.90625 
L 49.515625 72.90625 
L 49.515625 64.59375 
L 19.828125 64.59375 
L 19.828125 46.734375 
Q 21.96875 47.46875 24.109375 47.828125 
Q 26.265625 48.1875 28.421875 48.1875 
Q 40.625 48.1875 47.75 41.5 
Q 54.890625 34.8125 54.890625 23.390625 
Q 54.890625 11.625 47.5625 5.09375 
Q 40.234375 -1.421875 26.90625 -1.421875 
Q 22.3125 -1.421875 17.546875 -0.640625 
Q 12.796875 0.140625 7.71875 1.703125 
L 7.71875 11.625 
Q 12.109375 9.234375 16.796875 8.0625 
Q 21.484375 6.890625 26.703125 6.890625 
Q 35.15625 6.890625 40.078125 11.328125 
Q 45.015625 15.765625 45.015625 23.390625 
Q 45.015625 31 40.078125 35.4375 
Q 35.15625 39.890625 26.703125 39.890625 
Q 22.75 39.890625 18.8125 39.015625 
Q 14.890625 38.140625 10.796875 36.28125 
z
" id="DejaVuSans-53"/>
      </defs>
      <g transform="translate(371.344613 266.598437)scale(0.1 -0.1)">
       <use xlink:href="#DejaVuSans-53"/>
       <use x="63.623047" xlink:href="#DejaVuSans-48"/>
       <use x="127.246094" xlink:href="#DejaVuSans-48"/>
       <use x="190.869141" xlink:href="#DejaVuSans-48"/>
       <use x="254.492188" xlink:href="#DejaVuSans-48"/>
      </g>
     </g>
    </g>
   </g>
   <g id="matplotlib.axis_2">
    <g id="ytick_1">
     <g id="line2d_7">
      <defs>
       <path d="M 0 0 
L -3.5 0 
" id="m23884db38b" style="stroke:#000000;stroke-width:0.8;"/>
      </defs>
      <g>
       <use style="stroke:#000000;stroke-width:0.8;" x="54" xlink:href="#m23884db38b" y="233.456584"/>
      </g>
     </g>
     <g id="text_7">
      <!-- 2 -->
      <g transform="translate(40.6375 237.255803)scale(0.1 -0.1)">
       <use xlink:href="#DejaVuSans-50"/>
      </g>
     </g>
    </g>
    <g id="ytick_2">
     <g id="line2d_8">
      <g>
       <use style="stroke:#000000;stroke-width:0.8;" x="54" xlink:href="#m23884db38b" y="204.296101"/>
      </g>
     </g>
     <g id="text_8">
      <!-- 4 -->
      <g transform="translate(40.6375 208.09532)scale(0.1 -0.1)">
       <use xlink:href="#DejaVuSans-52"/>
      </g>
     </g>
    </g>
    <g id="ytick_3">
     <g id="line2d_9">
      <g>
       <use style="stroke:#000000;stroke-width:0.8;" x="54" xlink:href="#m23884db38b" y="175.135618"/>
      </g>
     </g>
     <g id="text_9">
      <!-- 6 -->
      <defs>
       <path d="M 33.015625 40.375 
Q 26.375 40.375 22.484375 35.828125 
Q 18.609375 31.296875 18.609375 23.390625 
Q 18.609375 15.53125 22.484375 10.953125 
Q 26.375 6.390625 33.015625 6.390625 
Q 39.65625 6.390625 43.53125 10.953125 
Q 47.40625 15.53125 47.40625 23.390625 
Q 47.40625 31.296875 43.53125 35.828125 
Q 39.65625 40.375 33.015625 40.375 
z
M 52.59375 71.296875 
L 52.59375 62.3125 
Q 48.875 64.0625 45.09375 64.984375 
Q 41.3125 65.921875 37.59375 65.921875 
Q 27.828125 65.921875 22.671875 59.328125 
Q 17.53125 52.734375 16.796875 39.40625 
Q 19.671875 43.65625 24.015625 45.921875 
Q 28.375 48.1875 33.59375 48.1875 
Q 44.578125 48.1875 50.953125 41.515625 
Q 57.328125 34.859375 57.328125 23.390625 
Q 57.328125 12.15625 50.6875 5.359375 
Q 44.046875 -1.421875 33.015625 -1.421875 
Q 20.359375 -1.421875 13.671875 8.265625 
Q 6.984375 17.96875 6.984375 36.375 
Q 6.984375 53.65625 15.1875 63.9375 
Q 23.390625 74.21875 37.203125 74.21875 
Q 40.921875 74.21875 44.703125 73.484375 
Q 48.484375 72.75 52.59375 71.296875 
z
" id="DejaVuSans-54"/>
      </defs>
      <g transform="translate(40.6375 178.934837)scale(0.1 -0.1)">
       <use xlink:href="#DejaVuSans-54"/>
      </g>
     </g>
    </g>
    <g id="ytick_4">
     <g id="line2d_10">
      <g>
       <use style="stroke:#000000;stroke-width:0.8;" x="54" xlink:href="#m23884db38b" y="145.975136"/>
      </g>
     </g>
     <g id="text_10">
      <!-- 8 -->
      <defs>
       <path d="M 31.78125 34.625 
Q 24.75 34.625 20.71875 30.859375 
Q 16.703125 27.09375 16.703125 20.515625 
Q 16.703125 13.921875 20.71875 10.15625 
Q 24.75 6.390625 31.78125 6.390625 
Q 38.8125 6.390625 42.859375 10.171875 
Q 46.921875 13.96875 46.921875 20.515625 
Q 46.921875 27.09375 42.890625 30.859375 
Q 38.875 34.625 31.78125 34.625 
z
M 21.921875 38.8125 
Q 15.578125 40.375 12.03125 44.71875 
Q 8.5 49.078125 8.5 55.328125 
Q 8.5 64.0625 14.71875 69.140625 
Q 20.953125 74.21875 31.78125 74.21875 
Q 42.671875 74.21875 48.875 69.140625 
Q 55.078125 64.0625 55.078125 55.328125 
Q 55.078125 49.078125 51.53125 44.71875 
Q 48 40.375 41.703125 38.8125 
Q 48.828125 37.15625 52.796875 32.3125 
Q 56.78125 27.484375 56.78125 20.515625 
Q 56.78125 9.90625 50.3125 4.234375 
Q 43.84375 -1.421875 31.78125 -1.421875 
Q 19.734375 -1.421875 13.25 4.234375 
Q 6.78125 9.90625 6.78125 20.515625 
Q 6.78125 27.484375 10.78125 32.3125 
Q 14.796875 37.15625 21.921875 38.8125 
z
M 18.3125 54.390625 
Q 18.3125 48.734375 21.84375 45.5625 
Q 25.390625 42.390625 31.78125 42.390625 
Q 38.140625 42.390625 41.71875 45.5625 
Q 45.3125 48.734375 45.3125 54.390625 
Q 45.3125 60.0625 41.71875 63.234375 
Q 38.140625 66.40625 31.78125 66.40625 
Q 25.390625 66.40625 21.84375 63.234375 
Q 18.3125 60.0625 18.3125 54.390625 
z
" id="DejaVuSans-56"/>
      </defs>
      <g transform="translate(40.6375 149.774354)scale(0.1 -0.1)">
       <use xlink:href="#DejaVuSans-56"/>
      </g>
     </g>
    </g>
    <g id="ytick_5">
     <g id="line2d_11">
      <g>
       <use style="stroke:#000000;stroke-width:0.8;" x="54" xlink:href="#m23884db38b" y="116.814653"/>
      </g>
     </g>
     <g id="text_11">
      <!-- 10 -->
      <g transform="translate(34.275 120.613871)scale(0.1 -0.1)">
       <use xlink:href="#DejaVuSans-49"/>
       <use x="63.623047" xlink:href="#DejaVuSans-48"/>
      </g>
     </g>
    </g>
    <g id="ytick_6">
     <g id="line2d_12">
      <g>
       <use style="stroke:#000000;stroke-width:0.8;" x="54" xlink:href="#m23884db38b" y="87.65417"/>
      </g>
     </g>
     <g id="text_12">
      <!-- 12 -->
      <g transform="translate(34.275 91.453389)scale(0.1 -0.1)">
       <use xlink:href="#DejaVuSans-49"/>
       <use x="63.623047" xlink:href="#DejaVuSans-50"/>
      </g>
     </g>
    </g>
    <g id="ytick_7">
     <g id="line2d_13">
      <g>
       <use style="stroke:#000000;stroke-width:0.8;" x="54" xlink:href="#m23884db38b" y="58.493687"/>
      </g>
     </g>
     <g id="text_13">
      <!-- 14 -->
      <g transform="translate(34.275 62.292906)scale(0.1 -0.1)">
       <use xlink:href="#DejaVuSans-49"/>
       <use x="63.623047" xlink:href="#DejaVuSans-52"/>
      </g>
     </g>
    </g>
   </g>
   <g id="line2d_14">
    <path clip-path="url(#pbab4542987)" d="M 69.218182 101.951643 
L 69.351756 101.766076 
L 69.358116 101.783749 
L 69.364477 101.704221 
L 69.434444 101.695384 
L 69.59346 101.483308 
L 69.49169 101.73073 
L 69.612542 101.509818 
L 69.618903 101.536327 
L 69.68887 101.394943 
L 69.695231 101.403779 
L 69.9751 101.129848 
L 69.733395 101.439125 
L 69.98146 101.156357 
L 70.006903 101.244722 
L 70.089591 101.17403 
L 70.592083 100.299216 
L 70.738378 99.662987 
L 70.75746 99.68066 
L 70.763821 99.689496 
L 70.801985 99.565785 
L 70.986444 99.12396 
L 71.132739 98.690971 
L 71.14546 98.735153 
L 71.189984 98.584933 
L 71.329919 98.196126 
L 71.34264 98.240309 
L 71.571624 97.763137 
L 71.717919 97.356658 
L 71.724279 97.374331 
L 71.73064 97.392004 
L 71.806968 97.277129 
L 73.505262 92.814692 
L 73.517984 92.841201 
L 73.524344 92.858874 
L 73.543426 92.744 
L 73.58159 92.744 
L 73.753328 92.196136 
L 73.766049 92.204973 
L 74.045918 92.098934 
L 74.478442 91.639436 
L 74.484803 91.648272 
L 74.491164 91.727801 
L 74.542049 91.533398 
L 74.599295 91.718965 
L 74.612016 91.683618 
L 74.860082 92.240319 
L 75.069983 93.070951 
L 75.082704 93.017931 
L 75.13359 93.256517 
L 75.318049 93.689506 
L 75.337131 93.671833 
L 75.375295 93.83089 
L 75.782376 95.271242 
L 75.985917 96.066527 
L 76.043163 96.172566 
L 76.214901 96.923669 
L 76.227622 96.897159 
L 76.291229 97.029707 
L 76.310311 96.985524 
L 76.412081 97.374331 
L 76.564737 97.816156 
L 76.577458 97.754301 
L 76.641065 97.895685 
L 76.723753 97.789647 
L 76.952737 97.259456 
L 76.768278 97.833829 
L 76.959097 97.268293 
L 76.971819 97.303639 
L 77.009983 97.118072 
L 77.168999 96.69392 
L 77.18172 96.755775 
L 77.27713 96.649737 
L 77.47431 95.792596 
L 77.480671 95.827942 
L 77.537917 95.580519 
L 78.517457 91.939877 
L 78.530179 91.95755 
L 78.568343 91.771984 
L 79.61149 87.883919 
L 79.636932 87.804391 
L 80.063096 86.054762 
L 80.069457 86.063598 
L 80.10126 85.939887 
L 80.29844 85.206457 
L 81.990374 78.605584 
L 82.015817 78.517219 
L 82.327489 77.068031 
L 82.33385 77.076868 
L 82.352932 77.156396 
L 82.397456 77.023848 
L 82.416538 77.015012 
L 85.088013 65.439184 
L 85.603226 61.506937 
L 86.385586 55.294871 
L 87.187028 48.579123 
L 87.950307 45.786786 
L 87.956667 45.804459 
L 87.988471 45.822132 
L 88.032995 45.698421 
L 88.102962 45.733767 
L 88.185651 45.592383 
L 88.192012 45.601219 
L 88.223815 45.468672 
L 88.300143 45.397979 
L 88.242897 45.477508 
L 88.344667 45.424489 
L 88.452798 45.318451 
L 89.101585 44.487819 
L 89.127028 44.558511 
L 89.196995 44.549674 
L 89.209716 44.523165 
L 89.228798 44.443636 
L 89.292405 44.61153 
L 89.311487 44.585021 
L 89.317847 44.558511 
L 89.375093 44.752914 
L 89.387814 44.735241 
L 89.565913 45.115211 
L 89.584995 45.132884 
L 89.852142 47.527578 
L 90.252863 52.467187 
L 90.691748 57.95466 
L 91.283289 65.730789 
L 91.881191 74.549626 
L 92.046568 76.838282 
L 92.421846 82.352264 
L 92.599945 85.109255 
L 92.930699 90.031191 
L 94.469977 111.866207 
L 95.544927 126.658525 
L 95.86296 130.979578 
L 95.939288 131.978104 
L 96.734369 142.449368 
L 97.179615 148.608415 
L 97.542172 153.874975 
L 98.97968 174.145929 
L 100.309057 189.388909 
L 101.333122 191.907314 
L 101.568466 192.410995 
L 101.651155 192.393322 
L 101.70204 192.605398 
L 102.102761 193.400684 
L 102.109122 193.374175 
L 102.179089 193.550905 
L 102.350827 194.054586 
L 102.357187 194.04575 
L 102.38263 194.151788 
L 102.408072 194.125278 
L 102.624335 194.708488 
L 102.656138 194.646632 
L 103.044138 195.106131 
L 103.254039 195.212169 
L 103.476662 195.51261 
L 103.572072 195.600975 
L 103.788334 196.201858 
L 103.820138 196.166512 
L 103.839219 196.148839 
L 103.877383 196.219531 
L 103.890105 196.210695 
L 104.0364 196.466953 
L 104.303547 196.908779 
L 104.309908 196.899942 
L 104.367154 197.165038 
L 104.519809 197.403623 
L 104.52617 197.377114 
L 104.589777 197.553844 
L 104.742432 197.898468 
L 104.748793 197.871958 
L 104.755154 197.845449 
L 104.799678 198.048689 
L 104.81876 198.048689 
L 105.20676 198.835138 
L 105.213121 198.826301 
L 105.289448 198.923503 
L 105.391219 199.197435 
L 105.454825 199.162089 
L 105.512071 199.25929 
L 105.69653 199.66577 
L 105.728334 199.771808 
L 105.747416 199.727625 
L 105.995481 200.22247 
L 106.001842 200.19596 
L 106.065448 200.355018 
L 106.071809 200.346181 
L 106.249907 200.743824 
L 106.268989 200.734988 
L 106.294432 200.841026 
L 106.307153 200.80568 
L 106.47253 201.344707 
L 106.478891 201.318197 
L 106.561579 201.380053 
L 106.536137 201.247505 
L 106.587022 201.318197 
L 106.593382 201.300524 
L 106.66335 201.406562 
L 106.676071 201.380053 
L 106.885973 201.74235 
L 106.905055 201.71584 
L 106.911415 201.698167 
L 106.975022 201.830715 
L 106.987743 201.813042 
L 107.165841 202.042791 
L 107.331218 202.12232 
L 107.458431 202.27254 
L 107.528399 202.175339 
L 107.566562 202.246031 
L 107.776464 202.537636 
L 107.782825 202.528799 
L 107.871874 202.617164 
L 108.018169 202.82924 
L 108.02453 202.793894 
L 108.081775 202.988298 
L 108.107218 202.917606 
L 109.035873 204.393303 
L 109.137644 204.455158 
L 109.156726 204.428649 
L 109.163087 204.410976 
L 109.188529 204.508177 
L 109.258496 204.472831 
L 109.423873 204.570033 
L 109.563808 204.826292 
L 109.570168 204.808619 
L 109.576529 204.7556 
L 109.633775 204.950003 
L 109.665578 204.888147 
L 110.002693 205.197425 
L 110.015414 205.162079 
L 110.053578 205.329973 
L 110.085381 205.321136 
L 110.218955 205.471357 
L 110.276201 205.524376 
L 110.346168 205.612741 
L 110.390693 205.559722 
L 110.664201 206.081076 
L 110.689643 206.063403 
L 110.715086 206.010384 
L 110.772332 206.195951 
L 110.880463 206.284316 
L 110.988594 206.416863 
L 110.912266 206.169441 
L 111.007676 206.346171 
L 111.039479 206.24897 
L 111.109447 206.390354 
L 111.230299 206.60243 
L 111.249381 206.575921 
L 111.287545 206.655449 
L 111.312987 206.761487 
L 111.402037 206.690795 
L 111.860004 207.671648 
L 111.866364 207.662811 
L 111.904528 207.671648 
L 111.929971 207.74234 
L 111.949053 207.71583 
L 112.044463 207.963253 
L 112.095348 207.813032 
L 112.108069 207.804196 
L 112.146233 207.901397 
L 112.152594 207.901397 
L 112.267086 208.007435 
L 112.222561 207.866051 
L 112.292528 207.963253 
L 112.298889 207.94558 
L 112.349774 208.060454 
L 112.368856 208.060454 
L 112.623282 208.449261 
L 112.693249 208.316713 
L 112.775938 208.413915 
L 112.807741 208.360896 
L 113.004921 208.546462 
L 113.100331 208.47577 
L 113.125774 208.546462 
L 113.252987 208.749702 
L 113.28479 208.670174 
L 113.291151 208.661337 
L 113.322954 208.749702 
L 113.335675 208.749702 
L 113.462888 208.961778 
L 113.47561 208.944105 
L 113.48197 208.935269 
L 113.526495 209.041307 
L 113.539216 209.014797 
L 113.742757 209.394767 
L 113.800003 209.288729 
L 113.838167 209.421277 
L 113.850888 209.385931 
L 114.665052 210.702571 
L 114.84315 211.126723 
L 114.849511 211.10905 
L 115.13574 211.365309 
L 115.142101 211.3388 
L 115.154822 211.250434 
L 115.205707 211.427165 
L 115.237511 211.418328 
L 115.313839 211.51553 
L 115.536461 211.860154 
L 115.332921 211.506693 
L 115.542822 211.851317 
L 115.587347 211.727606 
L 115.650953 211.833644 
L 115.778166 212.195941 
L 115.803609 212.134085 
L 116.643215 213.167957 
L 116.649576 213.141448 
L 116.655937 213.114938 
L 116.713182 213.291668 
L 116.802232 213.618619 
L 116.846756 213.574437 
L 116.961248 213.494908 
L 116.891281 213.618619 
L 116.967609 213.512581 
L 117.152067 214.033935 
L 117.737248 215.023624 
L 117.908985 215.385921 
L 117.928067 215.359412 
L 117.959871 215.447777 
L 118.125248 215.748218 
L 118.131608 215.730545 
L 118.137969 215.712872 
L 118.188854 215.863093 
L 118.373313 216.269572 
L 118.386034 216.251899 
L 118.44328 216.40212 
L 118.595936 216.508158 
L 118.812198 216.95882 
L 118.837641 216.870455 
L 118.964854 216.843945 
L 118.971214 216.861618 
L 119.060264 217.003002 
L 119.092067 216.967656 
L 119.104788 216.941147 
L 119.174755 217.064858 
L 119.333772 217.382972 
L 119.340132 217.365299 
L 119.441903 217.418318 
L 119.403739 217.347626 
L 119.460985 217.400645 
L 119.467345 217.391809 
L 119.492788 217.444828 
L 119.550034 217.462501 
L 119.658165 217.71876 
L 119.689968 217.709923 
L 119.89987 218.001528 
L 119.906231 217.983855 
L 119.976198 217.921999 
L 120.027083 217.992692 
L 120.669509 219.070746 
L 120.834886 219.327005 
L 120.841247 219.300495 
L 120.866689 219.406533 
L 120.936656 219.344678 
L 121.051148 219.397697 
L 121.063869 219.371187 
L 121.07023 219.362351 
L 121.114755 219.468389 
L 121.210165 219.733484 
L 121.305574 219.671628 
L 121.311935 219.653955 
L 121.375542 219.76883 
L 121.381902 219.74232 
L 121.534558 219.980906 
L 121.636328 219.927887 
L 121.65541 219.989743 
L 121.960722 220.572952 
L 121.973443 220.564116 
L 122.164263 220.431568 
L 122.291476 220.608298 
L 123.379147 221.951448 
L 123.385508 221.933775 
L 123.455475 222.02214 
L 123.480918 221.986794 
L 123.531803 222.092832 
L 123.60177 222.22538 
L 123.639934 222.066323 
L 123.703541 222.02214 
L 123.728983 222.119342 
L 123.735344 222.119342 
L 124.142426 222.552331 
L 123.748065 222.101669 
L 124.148786 222.543494 
L 124.161508 222.508148 
L 124.218754 222.684878 
L 124.231475 222.676042 
L 125.376393 224.107556 
L 125.382753 224.089883 
L 125.465442 224.045701 
L 125.414557 224.107556 
L 125.497245 224.089883 
L 125.688065 224.567055 
L 125.700786 224.522872 
L 125.745311 224.690766 
L 125.751671 224.673093 
L 125.885245 224.796804 
L 125.891606 224.770295 
L 125.955212 224.929352 
L 125.967933 224.911679 
L 126.680327 225.777657 
L 126.693048 225.742311 
L 126.750294 225.645109 
L 126.788458 225.76882 
L 126.801179 225.751147 
L 126.922031 225.839512 
L 126.979277 225.901368 
L 127.036523 225.848349 
L 127.112851 225.786493 
L 127.144654 225.866022 
L 127.176458 225.927877 
L 127.214622 225.813003 
L 127.252785 225.874858 
L 127.284589 225.759984 
L 127.354556 225.910204 
L 127.367277 225.892531 
L 127.545376 226.139954 
L 127.608982 226.201809 
L 127.678949 226.069262 
L 127.844326 226.272501 
L 127.857048 226.245992 
L 127.88249 226.201809 
L 127.939736 226.334357 
L 127.946097 226.32552 
L 128.054228 226.387376 
L 128.060588 226.35203 
L 128.111474 226.449232 
L 128.232326 226.572943 
L 128.238687 226.55527 
L 128.416785 226.661308 
L 128.518556 226.749673 
L 128.46767 226.634798 
L 128.537637 226.723163 
L 128.664851 226.873384 
L 128.677572 226.864547 
L 128.709375 226.838038 
L 128.779342 226.899894 
L 128.912916 227.023605 
L 128.919277 226.970586 
L 129.014686 227.076624 
L 129.154621 227.226844 
L 129.160982 227.218008 
L 129.275473 227.2887 
L 129.288195 227.26219 
L 129.307277 227.244517 
L 129.33908 227.324046 
L 129.364522 227.315209 
L 129.523539 227.571468 
L 129.529899 227.544959 
L 129.707998 227.633324 
L 129.714358 227.624487 
L 129.784326 227.695179 
L 129.82885 227.624487 
L 129.962424 227.87191 
L 129.975145 227.827727 
L 130.02603 227.810054 
L 130.051473 227.880746 
L 130.076916 227.87191 
L 130.204129 227.969111 
L 130.344063 228.083986 
L 130.445834 228.190024 
L 130.598489 228.304899 
L 130.693899 228.287226 
L 130.70662 228.331408 
L 130.980128 228.525811 
L 130.986489 228.508138 
L 131.043735 228.631849 
L 131.056456 228.596503 
L 131.107342 228.658359 
L 131.139145 228.569994 
L 131.164587 228.60534 
L 131.19003 228.57883 
L 131.240915 228.676032 
L 131.374489 228.817416 
L 131.883341 229.391789 
L 131.889702 229.374116 
L 131.902423 229.33877 
L 131.96603 229.497827 
L 132.131407 229.71874 
L 132.137767 229.683394 
L 132.252259 229.621539 
L 132.385833 229.771759 
L 132.404915 229.71874 
L 132.462161 229.807105 
L 132.481243 229.807105 
L 132.621177 229.939653 
L 132.710226 230.045691 
L 132.856521 230.160566 
L 132.894685 230.12522 
L 132.901046 230.116383 
L 132.951931 230.222421 
L 132.983734 230.178239 
L 133.52439 230.796794 
L 133.530751 230.761448 
L 133.6198 230.690756 
L 133.645242 230.770285 
L 133.708849 230.823304 
L 133.759734 230.779121 
L 133.91239 230.929342 
L 133.925111 230.920506 
L 133.931472 230.893996 
L 133.982357 231.053053 
L 134.01416 231.008871 
L 134.408521 231.397677 
L 134.433963 231.362331 
L 134.484849 231.530225 
L 134.650226 231.636263 
L 134.872848 231.945541 
L 134.961898 231.901358 
L 134.923734 231.97205 
L 134.98098 231.945541 
L 135.171799 232.078088 
L 135.17816 232.051579 
L 135.190881 232.025069 
L 135.254488 232.14878 
L 135.267209 232.131107 
L 135.368979 232.192963 
L 135.305373 232.086925 
L 135.407143 232.14878 
L 135.553438 232.042742 
L 135.559799 232.051579 
L 135.66793 232.201799 
L 135.712455 232.157617 
L 135.998684 232.254819 
L 136.119537 232.343184 
L 136.132258 232.307838 
L 136.259471 232.272492 
L 136.303996 232.369693 
L 136.469373 232.55526 
L 136.475733 232.546423 
L 136.482094 232.519914 
L 136.564782 232.625952 
L 136.691995 232.749663 
L 136.698356 232.73199 
L 136.73652 232.820355 
L 136.806487 232.899884 
L 136.857372 232.864538 
L 136.997307 233.014758 
L 137.054553 232.952903 
L 137.086356 232.997085 
L 137.181766 232.93523 
L 137.289897 233.156143 
L 137.334421 233.103124 
L 137.340782 233.094287 
L 137.385307 233.217998 
L 137.391667 233.200325 
L 137.779667 233.721679 
L 137.836913 233.642151 
L 137.957765 233.544949 
L 138.212192 233.757025 
L 138.224913 233.730516 
L 138.313962 233.836554 
L 138.498421 233.977938 
L 138.523864 233.951428 
L 138.625634 233.907246 
L 138.644716 233.933755 
L 138.727405 233.863063 
L 138.77829 233.977938 
L 139.077241 234.216524 
L 139.096322 234.172341 
L 139.17265 234.269543 
L 139.280781 234.296052 
L 139.242618 234.22536 
L 139.293503 234.278379 
L 139.45888 234.366744 
L 139.46524 234.331398 
L 139.783273 234.437437 
L 139.916847 234.525802 
L 139.942289 234.472783 
L 140.018617 234.472783 
L 139.986814 234.516965 
L 140.04406 234.490456 
L 140.164912 234.667186 
L 140.190355 234.658349 
L 140.330289 234.623003 
L 140.33665 234.640676 
L 140.489306 234.693695 
L 140.495666 234.684859 
L 140.591076 234.63184 
L 140.540191 234.702532 
L 140.616519 234.676022 
L 140.673765 234.746714 
L 140.794617 234.843916 
L 140.800978 234.826243 
L 140.864584 234.967627 
L 141.042682 235.073665 
L 141.239863 235.232722 
L 141.265305 235.197376 
L 141.40524 235.303414 
L 141.589699 235.524327 
L 141.685109 235.497818 
L 141.640584 235.559673 
L 141.70419 235.506654 
L 141.907731 235.603856 
L 141.914092 235.595019 
L 141.952256 235.71873 
L 142.028584 235.842442 
L 142.079469 235.789423 
L 142.721895 235.868951 
L 142.861829 236.054518 
L 142.925436 236.134046 
L 143.046288 236.204738 
L 143.148059 236.204738 
L 143.16078 236.231248 
L 143.179862 236.213575 
L 143.497895 236.514016 
L 143.586944 236.425651 
L 143.529698 236.522853 
L 143.618747 236.460997 
L 143.790485 236.531689 
L 143.65055 236.425651 
L 143.796846 236.522853 
L 143.815927 236.50518 
L 143.854091 236.593545 
L 143.892255 236.567035 
L 144.095796 236.947005 
L 144.153042 236.911659 
L 144.203927 236.973515 
L 144.362944 237.167918 
L 144.483796 237.167918 
L 144.649173 237.388831 
L 144.655534 237.371158 
L 144.725501 237.494869 
L 145.068976 237.600907 
L 145.094419 237.636253 
L 145.138943 237.556725 
L 145.170747 237.592071 
L 145.196189 237.547888 
L 145.285238 237.583234 
L 145.380648 237.636253 
L 145.342484 237.565561 
L 145.39973 237.600907 
L 145.49514 237.583234 
L 145.456976 237.627417 
L 145.507861 237.627417 
L 145.679599 237.82182 
L 145.68596 237.812983 
L 145.698681 237.79531 
L 145.755927 237.892512 
L 145.768648 237.866002 
L 145.902222 238.007387 
L 146.029435 238.148771 
L 146.07396 238.060406 
L 146.163009 238.086915 
L 146.112123 238.104588 
L 146.169369 238.095752 
L 146.341107 238.316664 
L 146.353828 238.298991 
L 146.360189 238.272482 
L 146.442877 238.37852 
L 146.576451 238.475722 
L 146.716386 238.572923 
L 146.741828 238.519904 
L 146.837238 238.466885 
L 146.862681 238.484558 
L 146.900844 238.475722 
L 146.913566 238.528741 
L 146.95809 238.528741 
L 147.072582 238.643615 
L 147.098025 238.617106 
L 147.174353 238.572923 
L 147.206156 238.625942 
L 147.276123 238.55525 
L 147.365172 238.670125 
L 147.447861 238.634779 
L 147.479664 238.678961 
L 147.670484 239.023585 
L 148.331992 239.11195 
L 148.452844 239.3417 
L 148.478287 239.306353 
L 148.51009 239.262171 
L 148.554614 239.385882 
L 148.567336 239.385882 
L 148.809041 239.553776 
L 148.847204 239.51843 
L 148.90445 239.615631 
L 149.165237 239.836544 
L 149.222483 239.889563 
L 149.279729 239.774689 
L 149.419663 239.748179 
L 149.426024 239.757015 
L 149.502352 239.748179 
L 149.508712 239.721669 
L 149.553237 239.606795 
L 149.629565 239.66865 
L 149.852188 239.748179 
L 149.97304 239.845381 
L 149.979401 239.836544 
L 150.271991 239.156133 
L 150.322876 239.182642 
L 150.329237 239.209152 
L 150.367401 239.076604 
L 150.380122 239.094277 
L 150.647269 234.684859 
L 150.65363 234.693695 
L 150.768122 234.446273 
L 150.710876 234.711368 
L 150.812646 234.463946 
L 150.825368 234.508129 
L 150.869892 234.40209 
L 150.927138 234.45511 
L 151.035269 234.349071 
L 151.054351 234.357908 
L 151.168843 234.260706 
L 151.207007 234.172341 
L 151.289695 234.243033 
L 151.983007 234.145832 
L 152.033892 234.057467 
L 152.11022 234.119322 
L 152.339203 234.013284 
L 152.479138 233.854227 
L 152.485498 233.8719 
L 152.676318 233.704006 
L 152.708121 233.739352 
L 153.045236 234.145832 
L 153.0834 234.07514 
L 153.248777 234.030957 
L 153.293301 234.057467 
L 153.274219 234.004448 
L 153.363269 234.022121 
L 153.420514 233.916082 
L 153.4714 233.854227 
L 153.522285 233.942592 
L 153.528646 233.916082 
L 153.630416 233.960265 
L 153.57317 233.898409 
L 153.649498 233.942592 
L 154.819858 232.14878 
L 155.017038 231.662772 
L 155.51953 230.787958 
L 155.831202 229.674558 
L 156.060186 228.720215 
L 156.238284 228.163514 
L 156.486349 227.394738 
L 156.918874 226.519924 
L 156.969759 226.413885 
L 157.192382 225.94555 
L 157.287792 225.874858 
L 157.446808 225.547908 
L 157.885693 224.187085 
L 158.356382 222.552331 
L 158.553562 221.960284 
L 159.297758 219.583263 
L 159.482217 219.053073 
L 159.552185 218.787977 
L 159.832053 217.612722 
L 160.614414 214.767365 
L 160.652578 214.944096 
L 160.716184 214.679 
L 160.8752 214.184156 
L 160.887922 214.431578 
L 161.142348 217.639231 
L 161.314086 217.223915 
L 161.6512 216.251899 
L 161.657561 216.269572 
L 161.714807 216.145861 
L 161.969233 215.138499 
L 162.61802 213.0089 
L 162.872446 212.204778 
L 162.936052 211.939682 
L 163.139593 211.303453 
L 164.837888 204.684908 
L 164.882412 204.605379 
L 165.085953 203.99566 
L 165.098674 204.004496 
L 165.130478 203.916131 
L 165.308576 203.509652 
L 165.321297 203.527325 
L 165.353101 203.385941 
L 165.44215 203.288739 
L 165.702937 202.661347 
L 165.728379 202.581818 
L 165.912838 201.89257 
L 165.919199 201.901407 
L 165.925559 201.91908 
L 165.989166 201.777696 
L 166.173625 201.592129 
L 166.199068 201.600966 
L 166.243592 201.530273 
L 166.249953 201.530273 
L 166.389887 201.450745 
L 166.459854 201.450745 
L 166.491658 201.406562 
L 166.580707 201.309361 
L 166.752444 200.973573 
L 166.9051 200.584767 
L 167.178608 199.895519 
L 167.223133 199.807154 
L 167.496641 198.667244 
L 168.07546 197.377114 
L 168.081821 197.394787 
L 168.145428 197.244566 
L 168.291723 196.979471 
L 168.317165 196.988307 
L 168.965952 195.901417 
L 170.11087 193.020714 
L 170.11723 193.038387 
L 170.180837 192.90584 
L 170.384378 192.49936 
L 170.390738 192.508197 
L 170.441624 192.393322 
L 170.447984 192.402159 
L 170.537033 192.366813 
L 170.562476 192.410995 
L 170.683328 192.419832 
L 170.89323 192.296121 
L 170.899591 192.304957 
L 171.033164 192.313794 
L 171.192181 192.198919 
L 171.28123 192.101717 
L 171.47841 191.880805 
L 171.529295 191.801276 
L 171.650148 191.5892 
L 171.66923 191.606873 
L 171.790082 191.509671 
L 171.809164 191.536181 
L 171.987262 191.288758 
L 171.993623 191.306432 
L 172.06359 191.20923 
L 172.076312 191.20923 
L 172.165361 191.112028 
L 172.394344 190.80275 
L 172.674213 190.237214 
L 172.935 189.618658 
L 172.966803 189.51262 
L 173.240311 188.832209 
L 173.310278 188.567113 
L 173.501098 188.116451 
L 173.768245 187.701135 
L 174.194409 187.603934 
L 174.385229 187.383021 
L 174.410671 187.383021 
L 174.461557 187.312329 
L 174.467917 187.321166 
L 175.014933 186.737956 
L 175.021294 186.755629 
L 175.084901 186.623081 
L 175.091261 186.631918 
L 175.205753 186.614245 
L 175.224835 186.640754 
L 175.26936 186.543553 
L 175.301163 186.552389 
L 175.479261 186.384495 
L 175.574671 186.278457 
L 175.771851 185.907324 
L 175.778212 185.924997 
L 175.841818 185.810122 
L 175.848179 185.810122 
L 176.15349 185.218076 
L 176.280704 185.014836 
L 176.287064 185.023673 
L 176.376113 185.094365 
L 176.395195 184.988327 
L 176.426999 184.899962 
L 176.579654 184.661376 
L 176.643261 184.555338 
L 176.681425 184.573011 
L 176.878605 184.219551 
L 176.884966 184.228387 
L 176.935851 184.113512 
L 177.094867 183.671687 
L 177.145752 183.609831 
L 177.279326 183.344736 
L 177.368375 183.30939 
L 177.393818 183.327063 
L 177.584638 183.592158 
L 177.597359 183.574485 
L 177.699129 183.547976 
L 177.718211 183.592158 
L 177.889949 183.795398 
L 177.89631 183.786562 
L 178.036244 183.715869 
L 178.042605 183.733542 
L 178.09985 183.618668 
L 178.125293 183.645177 
L 178.914014 182.708507 
L 179.015785 182.894074 
L 179.053949 182.841055 
L 179.16208 182.796872 
L 179.085752 182.876401 
L 179.181162 182.832218 
L 179.276571 182.867565 
L 179.289293 182.832218 
L 179.384703 182.788036 
L 179.327457 182.849891 
L 179.410145 182.823382 
L 179.721817 183.10615 
L 179.734538 183.088477 
L 179.75362 183.10615 
L 179.855391 183.070804 
L 180.688637 184.060493 
L 179.880833 183.044295 
L 180.694997 184.051657 
L 180.841292 184.131185 
L 180.962145 184.334425 
L 180.987587 184.325589 
L 181.038472 184.299079 
L 181.057554 184.360935 
L 181.095718 184.343262 
L 181.343784 184.4493 
L 181.483718 184.573011 
L 181.591849 184.590684 
L 181.59821 184.573011 
L 181.655456 184.608357 
L 181.712702 184.564174 
L 181.801751 184.573011 
L 181.738144 184.537665 
L 181.827194 184.555338 
L 181.998931 184.184204 
L 182.011652 184.237224 
L 182.075259 184.140022 
L 182.240636 183.980965 
L 182.406013 184.166531 
L 182.412374 184.148858 
L 182.431456 184.131185 
L 182.495062 184.219551 
L 182.533226 184.334425 
L 182.609554 184.281406 
L 182.692242 184.24606 
L 182.6668 184.299079 
L 182.711324 184.299079 
L 182.774931 184.352098 
L 182.825816 184.307916 
L 182.927587 184.140022 
L 182.965751 184.193041 
L 183.124767 184.007474 
L 183.137488 184.016311 
L 183.360111 184.502319 
L 183.366472 184.484646 
L 183.436439 184.617193 
L 183.684504 185.377133 
L 183.849881 185.792449 
L 184.072504 186.251948 
L 184.117029 186.198929 
L 184.142471 186.287294 
L 184.180635 186.269621 
L 184.231521 186.375659 
L 184.314209 186.464024 
L 184.358734 186.402168 
L 184.460504 186.340313 
L 184.498668 186.375659 
L 185.211061 188.036923 
L 185.230143 188.01925 
L 185.274668 188.098778 
L 185.29375 188.107615 
L 185.408241 188.204817 
L 185.611782 188.505258 
L 185.420963 188.19598 
L 185.624504 188.478748 
L 185.987061 189.15916 
L 186.146077 189.574476 
L 187.042929 191.827786 
L 187.055651 191.79244 
L 187.062011 191.774767 
L 187.087454 191.854295 
L 187.151061 191.854295 
L 187.34188 192.34914 
L 187.360962 192.269611 
L 187.443651 192.393322 
L 187.589946 192.693764 
L 187.615388 192.631908 
L 187.666274 192.852821 
L 187.672634 192.852821 
L 187.806208 193.029551 
L 187.82529 193.020714 
L 188.009749 192.914676 
L 188.086077 192.799802 
L 188.11788 192.914676 
L 188.569486 193.701126 
L 188.760306 194.310845 
L 188.766667 194.293172 
L 188.804831 194.3727 
L 189.014732 195.070785 
L 189.040175 195.15915 
L 189.320043 196.09582 
L 189.332765 196.078147 
L 189.396371 196.193021 
L 189.555388 196.546482 
L 189.57447 196.502299 
L 189.58083 196.484626 
L 189.625355 196.661357 
L 189.847978 197.447806 
L 190.006994 197.854285 
L 190.325027 199.064887 
L 190.573092 200.028067 
L 190.617617 200.266653 
L 191.126469 201.945589 
L 191.13283 201.936753 
L 191.151912 202.060464 
L 191.412699 202.891096 
L 191.628961 203.421287 
L 191.648043 203.41245 
L 191.711649 203.509652 
L 191.921551 204.190063 
L 192.583059 206.522902 
L 192.589419 206.514065 
L 192.621223 206.611267 
L 193.384501 209.041307 
L 193.66437 210.243072 
L 193.727976 210.304928 
L 193.893353 210.782099 
L 193.969681 210.888138 
L 194.128698 211.011849 
L 193.988763 210.870465 
L 194.160501 210.967666 
L 194.179583 210.93232 
L 194.224107 211.082541 
L 194.34496 211.3388 
L 194.370402 211.28578 
L 194.459452 211.188579 
L 194.484894 211.259271 
L 194.599386 211.347636 
L 194.707517 211.471347 
L 194.720238 211.427165 
L 194.822009 211.31229 
L 194.777484 211.444838 
L 194.83473 211.409492 
L 194.891976 211.374146 
L 195.012828 211.69226 
L 195.254533 211.789462 
L 195.279976 211.807135 
L 195.330861 211.701096 
L 195.349943 211.727606 
L 195.41991 211.833644 
L 195.51532 212.063393 
L 195.559845 212.001538 
L 195.598009 212.098739 
L 195.776107 212.584747 
L 195.782468 212.575911 
L 195.814271 212.681949 
L 195.833353 212.646603 
L 195.973287 213.017736 
L 195.992369 213.0089 
L 196.00509 212.98239 
L 196.055976 213.150284 
L 196.19591 213.335851 
L 196.208631 213.265159 
L 196.272238 213.397706 
L 196.310402 213.247486 
L 196.463057 213.530254 
L 196.622074 213.786513 
L 196.628434 213.760003 
L 197.277221 214.846894 
L 197.677942 216.463975 
L 197.709746 216.570013 
L 197.94509 217.294607 
L 197.964172 217.294607 
L 197.983254 217.400645 
L 198.199516 217.975018 
L 198.218598 217.921999 
L 198.23768 218.028038 
L 198.377614 218.310806 
L 198.523909 218.814487 
L 198.587516 218.743795 
L 198.72745 218.434517 
L 198.740171 218.487536 
L 198.91827 218.734958 
L 198.950073 218.637757 
L 198.956434 218.558228 
L 199.039122 218.743795 
L 199.051844 218.726122 
L 199.179057 218.80565 
L 199.344434 219.123765 
L 199.350794 219.097255 
L 199.388958 219.265149 
L 199.427122 219.247476 
L 199.579778 219.433043 
L 199.617942 219.530244 
L 199.776958 219.857195 
L 199.948696 220.069271 
L 199.961417 220.060435 
L 199.99322 220.016252 
L 200.056827 220.12229 
L 200.107712 220.263675 
L 200.177679 220.175309 
L 200.247646 220.210656 
L 200.292171 220.078108 
L 200.368499 220.175309 
L 200.406663 220.095781 
L 200.419384 220.069271 
L 200.463909 220.175309 
L 200.502073 220.1488 
L 200.622925 220.051598 
L 200.699253 219.733484 
L 200.750138 219.804176 
L 200.896433 219.424206 
L 201.010925 219.21213 
L 201.030007 219.238639 
L 201.163581 218.902852 
L 201.214466 218.938198 
L 201.278072 218.982381 
L 201.335318 218.929362 
L 201.519777 219.123765 
L 201.557941 219.203293 
L 201.691515 219.406533 
L 201.716957 219.38886 
L 201.767843 219.494898 
L 201.93958 219.830686 
L 201.984105 219.936724 
L 202.194006 220.1488 
L 202.22581 220.104617 
L 202.442072 219.662792 
L 202.448433 219.698138 
L 202.52476 219.530244 
L 202.562924 219.459552 
L 202.62017 219.56559 
L 202.632891 219.539081 
L 202.690137 219.724647 
L 202.645613 219.530244 
L 202.766465 219.689301 
L 202.804629 219.600936 
L 202.868236 219.76883 
L 202.982727 220.051598 
L 203.020891 219.980906 
L 203.059055 219.954397 
L 203.046334 220.016252 
L 203.122662 220.007416 
L 203.186268 220.086944 
L 203.243514 220.060435 
L 203.345285 219.874868 
L 203.364367 219.892541 
L 203.370727 219.919051 
L 203.39617 219.821849 
L 203.466137 219.848359 
L 203.542465 219.759993 
L 203.606071 219.839522 
L 203.68876 219.919051 
L 203.752367 220.007416 
L 203.78417 219.866032 
L 203.79053 219.866032 
L 203.892301 219.954397 
L 203.930465 219.883705 
L 204.019514 219.618609 
L 204.070399 219.662792 
L 204.108563 219.556754 
L 204.17853 219.671628 
L 204.210334 219.698138 
L 204.27394 219.600936 
L 204.331186 219.698138 
L 204.350268 219.733484 
L 204.382071 219.574427 
L 204.420235 219.600936 
L 204.46476 219.468389 
L 204.547448 219.5921 
L 204.712825 219.857195 
L 204.719186 219.848359 
L 204.85276 219.94556 
L 205.005415 220.493424 
L 205.011776 220.484587 
L 205.043579 220.564116 
L 205.196235 221.103143 
L 205.202596 221.076633 
L 205.259841 221.279873 
L 205.266202 221.279873 
L 205.304366 221.474276 
L 205.425218 221.827737 
L 205.4443 221.8189 
L 205.457022 221.801227 
L 205.501546 221.969121 
L 205.526989 221.916102 
L 205.546071 221.898429 
L 205.660563 222.066323 
L 205.679645 222.013304 
L 205.711448 222.110505 
L 205.743251 222.119342 
L 205.775054 222.075159 
L 205.864104 222.22538 
L 206.010399 221.951448 
L 206.061284 222.101669 
L 206.131251 222.004467 
L 206.296628 222.101669 
L 206.41112 222.40211 
L 206.455644 222.313745 
L 206.493808 222.40211 
L 206.51289 222.446293 
L 206.563775 222.313745 
L 206.595579 222.357927 
L 206.6083 222.313745 
L 206.659185 222.463966 
L 206.684628 222.455129 
L 206.945415 222.676042 
L 206.958136 222.649532 
L 207.238005 222.543494 
L 207.377939 222.3756 
L 207.511513 222.304908 
L 207.587841 222.19887 
L 207.619644 222.260726 
L 207.664169 222.331418 
L 207.638726 222.216543 
L 207.734136 222.287235 
L 207.880431 222.083996 
L 207.893152 222.092832 
L 208.109414 221.712862 
L 208.134857 221.730535 
L 208.26207 221.827737 
L 208.300234 221.757045 
L 208.351119 221.871919 
L 208.36384 221.836573 
L 208.503775 222.013304 
L 208.548299 221.924938 
L 208.586463 221.84541 
L 208.637349 222.02214 
L 208.662791 222.128178 
L 208.796365 222.234216 
L 208.821807 222.278399 
L 208.929939 222.596513 
L 208.955381 222.587677 
L 209.381545 223.595039 
L 208.980824 222.516985 
L 209.394266 223.550856 
L 209.438791 223.453655 
L 209.496037 223.621548 
L 209.966725 222.78208 
L 210.182987 222.216543 
L 210.259315 222.296072 
L 210.322922 222.216543 
L 210.367446 222.101669 
L 210.437413 222.190034 
L 210.462856 222.128178 
L 210.590069 221.810064 
L 210.60279 221.712862 
L 210.660036 221.898429 
L 210.672758 221.863083 
L 210.679118 221.933775 
L 210.736364 221.730535 
L 210.774528 221.810064 
L 210.850856 221.474276 
L 210.901741 221.651007 
L 210.927184 221.677516 
L 210.958987 221.483113 
L 210.978069 221.544969 
L 210.98443 221.43893 
L 211.07984 221.597988 
L 211.098921 221.553805 
L 211.105282 221.474276 
L 211.187971 221.801227 
L 211.194331 221.863083 
L 211.264298 221.624497 
L 211.27702 221.624497 
L 211.302462 221.730535 
L 211.366069 221.597988 
L 211.480561 221.430094 
L 211.416954 221.64217 
L 211.486921 221.43893 
L 211.499643 221.474276 
L 211.919446 219.97207 
L 212.040298 219.38886 
L 212.05302 219.41537 
L 212.116626 219.309331 
L 212.466462 218.664266 
L 212.771773 218.399171 
L 212.790855 218.45219 
L 212.829019 218.204768 
L 212.860823 218.337315 
L 212.911708 218.408007 
L 212.981675 218.240114 
L 213.070724 218.487536 
L 213.102527 218.301969 
L 213.115249 218.213604 
L 213.22974 218.001528 
L 213.236101 218.07222 
L 213.267904 218.169422 
L 213.356953 218.107566 
L 213.414199 218.054547 
L 213.477806 217.762942 
L 213.535052 217.824798 
L 213.655904 217.921999 
L 213.764035 218.07222 
L 213.674986 217.860144 
L 213.789478 218.063384 
L 213.827642 218.151749 
L 213.884888 218.257787 
L 213.929412 218.125239 
L 213.935773 218.134076 
L 213.948494 218.169422 
L 214.012101 217.983855 
L 214.19656 217.665741 
L 214.024822 218.001528 
L 214.222002 217.71876 
L 214.29197 217.86898 
L 214.342855 217.780615 
L 214.406461 217.701087 
L 214.431904 217.780615 
L 214.48915 218.019201 
L 214.552756 217.939672 
L 214.660887 217.789452 
L 214.730855 217.86898 
L 214.769019 217.904326 
L 214.807183 217.736433 
L 214.864428 217.54203 
L 214.934396 217.630395 
L 215.004363 217.630395 
L 214.97892 217.550866 
L 215.010723 217.603885 
L 215.106133 217.418318 
L 215.131576 217.453664 
L 215.137937 217.48901 
L 215.207904 217.259261 
L 215.27151 217.241588 
L 215.239707 217.179733 
L 215.284232 217.197406 
L 215.424166 216.95882 
L 215.443248 216.994166 
L 215.487772 216.799763 
L 215.494133 216.799763 
L 215.589543 216.729071 
L 215.691313 216.40212 
L 215.723117 216.463975 
L 215.767641 216.37561 
L 215.894854 216.154697 
L 215.913936 216.181207 
L 215.9521 216.216553 
L 215.983903 216.110515 
L 216.085674 216.057496 
L 216.015707 216.154697 
L 216.098395 216.101678 
L 216.111117 216.163534 
L 216.200166 216.048659 
L 216.308297 216.137024 
L 216.378264 216.075169 
L 216.429149 216.22539 
L 216.43551 216.19888 
L 216.518198 216.287245 
L 216.524559 216.287245 
L 216.861674 216.393283 
L 216.868034 216.419793 
L 216.91892 216.278409 
L 216.944362 216.304918 
L 217.230592 215.81891 
L 217.236952 215.863093 
L 217.294198 215.677526 
L 217.319641 215.712872 
L 217.415051 215.509632 
L 217.453214 215.589161 
L 217.612231 215.518469 
L 217.624952 215.421267 
L 217.720362 215.509632 
L 217.911181 215.61567 
L 217.936624 215.668689 
L 218.000231 215.544978 
L 218.006591 215.544978 
L 218.032034 215.589161 
L 218.48364 215.050134 
L 218.540886 215.218027 
L 218.623575 215.165008 
L 218.629935 215.173845 
L 218.655378 215.103153 
L 218.687181 215.103153 
L 218.731706 214.917586 
L 218.808034 214.935259 
L 218.922525 214.85573 
L 219.017935 214.652491 
L 219.056099 214.70551 
L 219.081542 214.785038 
L 219.183312 214.670164 
L 219.405935 214.572962 
L 219.494984 214.396232 
L 219.539509 214.449251 
L 219.584033 214.343213 
L 219.711246 214.1223 
L 219.634919 214.396232 
L 219.736689 214.166483 
L 219.933869 214.369722 
L 219.762132 214.131137 
L 219.946591 214.272521 
L 220.010197 214.192992 
L 220.073804 214.307867 
L 220.13741 214.016262 
L 220.181935 214.007426 
L 220.258263 214.139973 
L 220.270984 214.069281 
L 220.315509 214.246011 
L 220.360033 214.157646 
L 220.480886 214.396232 
L 220.519049 214.352049 
L 220.544492 214.572962 
L 220.557213 214.50227 
L 220.608099 214.617145 
L 220.658984 214.449251 
L 220.703508 214.50227 
L 220.805279 214.290194 
L 220.830722 214.343213 
L 220.862525 214.201829 
L 220.945213 213.936733 
L 220.977017 214.016262 
L 220.996098 214.078118 
L 221.066066 213.813022 
L 221.072426 213.866041 
L 221.218721 213.653965 
L 221.097869 213.936733 
L 221.244164 213.698148 
L 221.339574 214.095791 
L 221.390459 213.936733 
L 221.422262 213.910224 
L 221.454066 214.086954 
L 221.68941 214.175319 
L 221.816623 214.405068 
L 221.829344 214.378559 
L 221.854787 214.334376 
L 221.861147 214.422741 
L 222.001082 214.90875 
L 222.071049 214.988278 
L 222.255508 215.704035 
L 222.261869 215.695199 
L 222.287311 215.810074 
L 222.427246 216.366774 
L 222.433606 216.366774 
L 222.529016 216.658379 
L 222.554459 216.605359 
L 222.586262 216.534667 
L 222.643508 216.667215 
L 222.649868 216.667215 
L 222.847049 216.888128 
L 222.923377 216.78209 
L 223.012426 216.729071 
L 223.031508 216.808599 
L 223.082393 217.011839 
L 223.145999 216.888128 
L 223.330458 217.444828 
L 223.355901 217.435991 
L 223.419508 217.577376 
L 223.464032 217.427155 
L 223.616688 217.656904 
L 223.686655 217.577376 
L 223.693016 217.550866 
L 223.724819 217.780615 
L 223.762983 217.727596 
L 223.807507 217.824798 
L 223.813868 217.860144 
L 223.864753 217.568539 
L 223.921999 217.648068 
L 223.998327 217.444828 
L 224.03013 217.48901 
L 224.360884 216.128188 
L 224.379966 215.933785 
L 224.462655 216.154697 
L 224.469015 216.145861 
L 224.634392 216.048659 
L 224.748884 215.969131 
L 224.653474 216.128188 
L 224.767966 215.986804 
L 224.920622 216.075169 
L 224.939704 216.039823 
L 225.00331 216.145861 
L 225.308622 216.746744 
L 225.429474 216.941147 
L 225.467638 216.914637 
L 225.505802 217.038348 
L 225.601212 217.31228 
L 225.639376 217.303444 
L 225.67754 217.391809 
L 225.798392 217.771779 
L 225.823835 217.709923 
L 225.944687 217.807125 
L 225.982851 217.877817 
L 226.014654 217.71876 
L 226.040097 217.745269 
L 226.065539 217.71876 
L 226.097343 217.860144 
L 226.16731 218.019201 
L 226.218195 217.939672 
L 226.256359 217.860144 
L 226.319966 217.975018 
L 226.326326 218.001528 
L 226.377211 217.780615 
L 226.389933 217.798288 
L 226.574392 217.648068 
L 226.580752 217.674577 
L 226.644359 217.648068 
L 226.701605 217.824798 
L 226.746129 217.736433 
L 226.809736 217.842471 
L 226.879703 217.948509 
L 226.905146 217.992692 
L 226.956031 217.798288 
L 227.191375 217.427155 
L 227.197736 217.453664 
L 227.261342 217.391809 
L 227.280424 217.435991 
L 227.382195 217.294607 
L 227.445801 217.435991 
L 227.483965 217.268098 
L 227.490326 217.268098 
L 227.515768 217.374136 
L 227.541211 217.13555 
L 227.553932 217.170896 
L 227.560293 217.056021 
L 227.642982 217.223915 
L 227.662063 217.170896 
L 227.732031 217.13555 
L 227.738391 217.250425 
L 227.751113 217.197406 
L 227.859244 217.365299 
L 227.814719 217.179733 
L 227.865604 217.303444 
L 227.954654 217.188569 
L 227.891047 217.382972 
L 227.973736 217.241588 
L 227.986457 217.329953 
L 228.069145 217.091367 
L 228.081867 217.117877 
L 228.126391 216.879291 
L 228.21544 216.623032 
L 228.336293 216.278409 
L 228.342653 216.384447 
L 228.387178 216.525831 
L 228.431703 216.243063 
L 228.438063 216.22539 
L 228.495309 216.340264 
L 228.50167 216.304918 
L 228.609801 216.614196 
L 228.628883 216.587686 
L 228.635243 216.534667 
L 228.686129 216.711398 
L 228.730653 216.667215 
L 228.762457 216.737907 
L 228.775178 216.640705 
L 228.883309 216.534667 
L 228.88967 216.570013 
L 228.908752 216.587686 
L 229.023243 216.481648 
L 229.074129 216.596523 
L 229.099571 216.419793 
L 229.125014 216.455139 
L 229.163178 216.525831 
L 229.303112 216.843945 
L 229.315833 216.808599 
L 229.404883 216.764417 
L 229.417604 216.808599 
L 229.551178 217.073694 
L 229.436686 216.790926 
L 229.563899 217.064858 
L 229.722915 217.003002 
L 229.729276 217.020675 
L 229.748358 217.011839 
L 229.920096 217.365299 
L 229.932817 217.321117 
L 229.990063 217.54203 
L 230.015505 217.435991 
L 230.066391 217.444828 
L 230.199964 217.904326 
L 230.333538 217.762942 
L 230.677013 218.531719 
L 230.358981 217.709923 
L 230.702456 218.461027 
L 230.715177 218.4787 
L 230.74062 218.372661 
L 230.74698 218.328479 
L 230.829669 218.522882 
L 231.115898 218.885179 
L 231.12862 218.752631 
L 231.13498 218.752631 
L 231.173144 218.947035 
L 231.249472 218.902852 
L 231.281275 218.876343 
L 231.306718 218.991217 
L 231.465734 219.38886 
L 231.472095 219.335841 
L 231.478456 219.309331 
L 231.52298 219.486062 
L 231.561144 219.424206 
L 231.669275 219.494898 
L 231.726521 219.706974 
L 231.796488 219.671628 
L 232.019111 218.743795 
L 232.038193 218.761468 
L 232.095439 218.858669 
L 232.127242 218.602411 
L 232.133603 218.611247 
L 232.165406 218.540555 
L 232.29898 217.930836 
L 232.426193 217.382972 
L 232.438914 217.391809 
L 232.445275 217.409482 
L 232.483439 217.188569 
L 232.559767 217.109041 
L 232.661537 216.605359 
L 232.68698 216.693725 
L 232.801472 216.649542 
L 232.915963 216.437466 
L 232.985931 216.349101 
L 233.030455 216.119351 
L 233.100422 216.251899 
L 233.106783 216.278409 
L 233.189471 216.17237 
L 233.195832 216.181207 
L 233.233996 216.075169 
L 233.278521 216.128188 
L 233.335767 216.110515 
L 233.456619 216.163534 
L 233.36757 216.030986 
L 233.46298 216.137024 
L 233.577471 215.969131 
L 233.590193 216.030986 
L 233.66016 216.22539 
L 233.736488 216.128188 
L 233.895504 215.951458 
L 233.920947 216.02215 
L 233.933668 216.145861 
L 233.971832 215.977967 
L 234.029078 216.048659 
L 234.079963 215.960294 
L 234.124488 216.084005 
L 234.188094 216.251899 
L 234.232619 216.084005 
L 234.283504 215.774728 
L 234.34711 216.004477 
L 234.385274 215.898439 
L 234.391635 215.863093 
L 234.448881 216.092842 
L 234.569733 216.37561 
L 234.467963 216.039823 
L 234.582455 216.357937 
L 234.601537 216.304918 
L 234.639701 216.57885 
L 234.766914 217.082531 
L 234.684225 216.508158 
L 234.773274 217.038348 
L 234.855963 217.268098 
L 234.983176 217.586212 
L 235.059504 217.48901 
L 235.065864 217.612722 
L 235.186717 217.771779 
L 235.193077 217.745269 
L 235.237602 217.877817 
L 235.275766 217.851307 
L 235.32029 217.957345 
L 235.40934 217.992692 
L 235.428422 217.948509 
L 235.485667 217.957345 
L 235.460225 217.886653 
L 235.51111 217.89549 
L 235.60652 217.86898 
L 235.619241 217.89549 
L 235.70829 217.966182 
L 235.727372 217.886653 
L 235.778258 217.975018 
L 235.835503 217.851307 
L 235.886389 217.913163 
L 235.962716 217.648068 
L 236.185339 217.480174 
L 236.1917 217.48901 
L 236.357077 217.780615 
L 236.363438 217.771779 
L 236.471569 217.701087 
L 236.452487 217.851307 
L 236.477929 217.71876 
L 236.649667 217.983855 
L 236.821405 217.612722 
L 236.891372 217.815961 
L 236.910454 217.904326 
L 236.999503 217.780615 
L 237.031306 217.930836 
L 237.101273 217.736433 
L 237.107634 217.754106 
L 237.126716 217.824798 
L 237.196683 217.648068 
L 237.203044 217.674577 
L 237.412945 217.029512 
L 237.419306 217.056021 
L 237.444749 217.13555 
L 237.495634 216.994166 
L 237.514716 217.003002 
L 237.591044 216.923474 
L 237.565601 217.047185 
L 237.616486 217.020675 
L 237.65465 217.188569 
L 237.692814 216.905801 
L 237.718257 216.923474 
L 237.781863 216.994166 
L 237.813667 217.073694 
L 237.864552 216.835109 
L 237.883634 216.888128 
L 237.934519 216.835109 
L 238.004486 216.985329 
L 238.010847 216.967656 
L 238.023568 217.144387 
L 238.029929 217.13555 
L 238.150781 217.347626 
L 238.246191 217.471337 
L 238.258912 217.365299 
L 238.271634 217.31228 
L 238.309798 217.462501 
L 238.33524 217.418318 
L 238.506978 217.798288 
L 238.52606 217.656904 
L 238.589666 217.851307 
L 238.615109 217.762942 
L 238.716879 217.939672 
L 238.659634 217.745269 
L 238.735961 217.921999 
L 238.742322 217.860144 
L 238.793207 218.107566 
L 238.844093 217.921999 
L 238.875896 217.948509 
L 238.882256 217.807125 
L 238.933142 218.160585 
L 238.984027 217.966182 
L 238.996748 218.036874 
L 239.060355 217.833634 
L 239.200289 217.453664 
L 239.143043 217.842471 
L 239.20665 217.480174 
L 239.238453 217.382972 
L 239.270256 217.506683 
L 239.30842 217.656904 
L 239.365666 217.497847 
L 239.378387 217.533193 
L 239.448355 217.577376 
L 239.467437 217.665741 
L 239.486519 217.559703 
L 239.550125 217.559703 
L 239.677338 217.16206 
L 239.683699 217.170896 
L 239.721863 217.038348 
L 239.810912 216.93231 
L 239.842715 216.790926 
L 239.931764 216.826272 
L 240.033535 216.870455 
L 240.052617 216.835109 
L 240.173469 216.605359 
L 240.08442 216.861618 
L 240.18619 216.658379 
L 240.2816 216.773253 
L 240.198912 216.631869 
L 240.313404 216.676052 
L 240.326125 216.57885 
L 240.421535 216.693725 
L 240.434256 216.702561 
L 240.459699 216.614196 
L 240.478781 216.605359 
L 240.485141 216.508158 
L 240.580551 216.676052 
L 240.650518 216.57885 
L 240.688682 216.702561 
L 241.121207 217.577376 
L 241.172092 217.462501 
L 241.318387 217.71876 
L 241.337469 217.603885 
L 241.432879 217.665741 
L 241.451961 217.603885 
L 241.496485 217.347626 
L 241.566452 217.435991 
L 241.789075 217.603885 
L 241.598256 217.374136 
L 241.795436 217.568539 
L 241.92901 217.409482 
L 241.8336 217.603885 
L 241.93537 217.444828 
L 242.081665 217.603885 
L 241.960813 217.391809 
L 242.100747 217.586212 
L 242.12619 217.506683 
L 242.202518 217.559703 
L 242.361534 218.019201 
L 242.367895 217.983855 
L 242.393337 218.222441 
L 242.456944 218.081057 
L 242.768616 219.220966 
L 242.927632 219.892541 
L 242.959435 219.698138 
L 243.035763 219.74232 
L 243.169337 220.50226 
L 243.19478 220.413895 
L 243.302911 220.572952 
L 243.309271 220.466914 
L 243.379239 220.405059 
L 243.404681 220.546443 
L 243.519173 220.846884 
L 243.595501 220.749683 
L 243.601861 220.73201 
L 243.633665 220.952922 
L 243.640025 220.944086 
L 243.958058 221.368238 
L 243.97714 221.306383 
L 243.989861 221.226854 
L 244.07255 221.430094 
L 244.218845 221.412421 
L 244.346058 221.129653 
L 244.416025 221.147326 
L 244.524156 220.935249 
L 244.46691 221.253364 
L 244.536878 220.952922 
L 244.587763 220.90874 
L 244.689533 220.369713 
L 244.727697 220.422732 
L 244.829468 220.749683 
L 244.85491 220.740846 
L 244.956681 220.572952 
L 244.918517 220.785029 
L 244.969402 220.7055 
L 245.039369 220.608298 
L 245.013927 220.73201 
L 245.071172 220.740846 
L 245.274713 221.067797 
L 245.319238 220.979432 
L 245.395566 220.625971 
L 245.452812 220.643644 
L 245.554582 220.873394 
L 245.580025 220.820375 
L 245.586385 220.829211 
L 245.599107 220.7055 
L 245.624549 220.749683 
L 245.73268 220.484587 
L 245.745402 220.493424 
L 245.770844 220.52877 
L 245.796287 220.413895 
L 245.802648 220.413895 
L 245.917139 219.919051 
L 245.936221 219.927887 
L 246.012549 220.033925 
L 246.02527 219.901378 
L 246.044352 219.936724 
L 246.21609 219.150274 
L 246.222451 219.159111 
L 246.286057 219.123765 
L 246.381467 218.840996 
L 246.400549 218.885179 
L 246.457795 219.203293 
L 246.419631 218.876343 
L 246.534123 219.0354 
L 246.623172 218.611247 
L 246.661336 218.646593 
L 246.667697 218.673103 
L 246.6995 218.416844 
L 246.712221 218.461027 
L 246.820352 218.195931 
L 246.845795 218.204768 
L 246.922123 218.169422 
L 246.864877 218.240114 
L 246.947565 218.213604 
L 246.966647 218.372661 
L 247.062057 218.301969 
L 247.125664 218.390334 
L 247.157467 218.363825 
L 247.303762 218.867506 
L 247.424614 219.21213 
L 247.494581 219.397697 
L 247.443696 219.203293 
L 247.539106 219.282822 
L 247.545467 219.229803 
L 247.634516 219.41537 
L 247.653598 219.256312 
L 247.698122 219.300495 
L 247.831696 219.698138 
L 247.749008 219.21213 
L 247.838057 219.653955 
L 247.939827 219.547917 
L 247.977991 219.477225 
L 248.016155 219.653955 
L 248.098844 219.76883 
L 248.054319 219.56559 
L 248.124286 219.706974 
L 248.149729 219.477225 
L 248.187893 219.813013 
L 248.232417 219.724647 
L 248.308745 219.653955 
L 248.378712 219.927887 
L 248.633138 220.166473 
L 248.639499 220.1488 
L 248.64586 220.069271 
L 248.728548 220.192982 
L 248.74127 220.157636 
L 248.804876 220.413895 
L 248.868483 220.369713 
L 248.893925 220.396222 
L 248.913007 220.307857 
L 248.93845 220.316694 
L 249.052942 220.157636 
L 249.072024 220.184146 
L 249.339171 221.182672 
L 249.351892 221.147326 
L 249.370974 221.147326 
L 249.42822 221.067797 
L 249.485466 221.306383 
L 249.561794 221.377075 
L 249.650843 221.332892 
L 249.676286 221.562642 
L 249.71445 221.624497 
L 249.803499 221.11198 
L 249.924351 221.332892 
L 249.930712 221.341729 
L 249.949794 221.209181 
L 249.956154 221.209181 
L 250.045204 221.138489 
L 250.051564 221.271037 
L 250.057925 221.253364 
L 250.115171 221.385911 
L 250.172417 221.226854 
L 250.274187 221.332892 
L 250.363236 221.589151 
L 250.407761 221.580315 
L 250.528613 221.279873 
L 250.655826 221.571478 
L 250.662187 221.536132 
L 250.776679 221.244527 
L 250.783039 221.271037 
L 250.814843 221.368238 
L 250.833925 221.076633 
L 250.853007 221.08547 
L 250.916613 220.944086 
L 250.961138 221.050124 
L 251.062908 221.156162 
L 250.973859 221.023614 
L 251.08199 221.11198 
L 251.202843 221.041287 
L 251.27917 220.740846 
L 251.323695 220.811538 
L 251.406383 220.723173 
L 251.552678 220.210656 
L 251.5654 220.219492 
L 251.603564 220.113454 
L 251.711695 219.883705 
L 251.724416 219.910214 
L 251.737137 219.963233 
L 251.794383 219.671628 
L 251.934318 218.858669 
L 251.997924 219.070746 
L 251.947039 218.83216 
L 252.042449 218.840996 
L 252.093334 218.823323 
L 252.220547 218.231277 
L 252.226908 218.284296 
L 252.25235 218.09873 
L 252.373203 217.833634 
L 252.430449 217.736433 
L 252.576744 217.232752 
L 252.646711 217.294607 
L 252.659432 217.321117 
L 252.672154 217.047185 
L 252.710317 217.109041 
L 252.754842 216.985329 
L 252.799367 217.197406 
L 252.805727 217.197406 
L 252.907498 217.294607 
L 252.83117 217.153223 
L 252.913858 217.215079 
L 252.996547 217.303444 
L 253.034711 217.13555 
L 253.130121 217.144387 
L 253.079235 216.994166 
L 253.136481 217.091367 
L 253.200088 217.197406 
L 253.238252 217.215079 
L 253.263694 217.117877 
L 253.282776 217.170896 
L 253.32094 217.091367 
L 253.365465 217.294607 
L 253.378186 217.285771 
L 253.422711 217.365299 
L 253.543563 217.656904 
L 253.556284 217.603885 
L 253.61353 217.71876 
L 253.632612 217.701087 
L 253.696219 217.86898 
L 253.766186 217.851307 
L 253.791629 217.798288 
L 253.80435 217.975018 
L 253.842514 217.913163 
L 254.026973 218.27546 
L 254.033333 218.240114 
L 254.090579 218.328479 
L 254.109661 218.354988 
L 254.160546 218.213604 
L 254.173268 218.222441 
L 254.268678 218.213604 
L 254.243235 218.293133 
L 254.275038 218.257787 
L 254.28776 218.319642 
L 254.370448 218.24895 
L 254.453137 217.86898 
L 254.510382 218.010365 
L 254.612153 217.948509 
L 254.713923 217.762942 
L 254.726645 217.86898 
L 254.87294 218.284296 
L 254.892022 218.257787 
L 254.949268 218.160585 
L 254.955628 218.142912 
L 254.987431 218.337315 
L 255.012874 218.310806 
L 255.152808 219.176784 
L 255.203694 219.265149 
L 255.292743 219.371187 
L 255.318185 219.309331 
L 255.394513 219.238639 
L 255.451759 219.273985 
L 255.515366 219.000054 
L 255.534448 219.132601 
L 255.610775 218.752631 
L 255.687103 218.664266 
L 255.769792 218.27546 
L 255.814316 218.372661 
L 255.890644 218.611247 
L 255.941529 218.558228 
L 256.049661 218.372661 
L 256.062382 218.416844 
L 256.068743 218.363825 
L 256.14507 218.620084 
L 256.354972 219.123765 
L 256.386775 218.991217 
L 256.494906 218.726122 
L 256.507628 218.743795 
L 256.679365 219.371187 
L 256.692087 219.371187 
L 256.812939 219.671628 
L 256.832021 219.79534 
L 256.933791 220.042762 
L 256.946513 219.927887 
L 256.952873 219.927887 
L 257.080086 220.369713 
L 257.092808 220.369713 
L 257.162775 220.35204 
L 257.21366 220.7055 
L 257.258185 220.829211 
L 257.334513 220.723173 
L 257.493529 220.678991 
L 257.627103 220.281348 
L 257.677988 220.219492 
L 257.709791 220.237165 
L 257.811562 219.74232 
L 257.875168 219.645119 
L 258.027824 219.300495 
L 258.040545 219.406533 
L 258.123234 219.344678 
L 258.212283 219.282822 
L 258.148676 219.433043 
L 258.231365 219.371187 
L 258.294971 219.56559 
L 258.352217 219.433043 
L 258.364939 219.318168 
L 258.441266 219.521408 
L 258.47307 219.618609 
L 258.498512 219.468389 
L 258.511234 219.468389 
L 258.523955 219.371187 
L 258.549397 219.547917 
L 258.613004 219.539081 
L 258.619365 219.539081 
L 258.721135 219.919051 
L 258.740217 219.883705 
L 258.76566 219.680465 
L 258.854709 219.830686 
L 258.924676 219.733484 
L 258.96284 219.839522 
L 258.975561 219.874868 
L 259.013725 219.662792 
L 259.06461 219.839522 
L 259.128217 219.786503 
L 259.140938 219.883705 
L 259.166381 219.857195 
L 259.242709 219.874868 
L 259.25543 219.813013 
L 259.312676 219.901378 
L 259.382643 219.74232 
L 259.497135 219.848359 
L 259.567102 220.060435 
L 259.637069 219.910214 
L 259.757922 219.751157 
L 259.681594 219.94556 
L 259.834249 219.813013 
L 259.955102 220.060435 
L 259.866053 219.804176 
L 259.974184 220.007416 
L 260.03143 219.866032 
L 260.088676 219.919051 
L 260.139561 220.016252 
L 260.260413 220.440405 
L 260.279495 220.369713 
L 260.304938 220.696664 
L 260.355823 220.555279 
L 260.387626 220.475751 
L 260.42579 220.246002 
L 260.508479 220.35204 
L 260.642053 220.696664 
L 260.5212 220.263675 
L 260.667495 220.555279 
L 260.775626 220.493424 
L 260.902839 220.016252 
L 260.921921 220.1488 
L 260.953725 220.025089 
L 260.998249 220.272511 
L 261.017331 220.360876 
L 261.074577 220.157636 
L 261.10002 220.175309 
L 261.189069 220.307857 
L 261.131823 220.007416 
L 261.214511 220.184146 
L 261.2972 220.051598 
L 261.316282 220.131127 
L 261.367167 220.387386 
L 261.424413 220.201819 
L 261.640675 220.307857 
L 261.653396 220.316694 
L 261.69156 220.219492 
L 261.697921 220.166473 
L 261.767888 220.334367 
L 261.793331 220.263675 
L 261.901462 220.12229 
L 261.926905 220.175309 
L 261.939626 220.307857 
L 262.028675 220.139963 
L 262.035036 220.1488 
L 262.041396 220.131127 
L 262.098642 220.254838 
L 262.219495 220.493424 
L 262.238577 220.413895 
L 262.308544 220.73201 
L 262.321265 220.740846 
L 262.429396 221.324056 
L 262.454839 221.271037 
L 262.499363 221.43893 
L 262.56297 221.28871 
L 262.575691 221.244527 
L 262.613855 221.597988 
L 262.715626 221.810064 
L 262.728347 221.783554 
L 262.734708 221.695189 
L 262.823757 221.907265 
L 262.830117 221.907265 
L 262.836478 221.889592 
L 262.868281 222.119342 
L 262.887363 222.057486 
L 263.109986 222.764407 
L 263.122707 222.75557 
L 263.154511 222.75557 
L 263.160871 222.861608 
L 263.24992 223.011829 
L 263.275363 222.994156 
L 263.497986 223.444818 
L 263.63792 223.913153 
L 263.644281 223.833625 
L 263.943232 223.904317 
L 264.000478 224.036864 
L 264.057724 223.957336 
L 264.369396 223.400636 
L 264.401199 223.31227 
L 264.483887 223.356453 
L 264.496609 223.374126 
L 264.515691 223.276924 
L 264.553854 223.303434 
L 264.636543 223.109031 
L 264.668346 223.250415 
L 264.90369 223.179723 
L 264.910051 223.13554 
L 264.948215 223.33878 
L 264.9991 223.268088 
L 265.005461 223.303434 
L 265.069067 223.091358 
L 265.170838 222.75557 
L 265.221723 222.799753 
L 265.253526 222.790916 
L 265.266248 222.702551 
L 265.3871 222.410946 
L 265.418903 222.366764 
L 265.450707 222.552331 
L 265.469789 222.516985 
L 265.48251 222.428619 
L 265.692411 221.8189 
L 265.698772 221.827737 
L 265.762379 221.748208 
L 265.711493 221.863083 
L 265.794182 221.880756 
L 266.182182 222.516985 
L 266.188542 222.623023 
L 266.252149 222.419783 
L 266.290313 222.508148 
L 266.392083 222.60535 
L 266.322116 222.455129 
L 266.398444 222.516985 
L 266.442969 222.561167 
L 266.532018 222.472802 
L 266.601985 222.684878 
L 266.659231 222.60535 
L 266.824608 222.516985 
L 266.85005 222.428619 
L 266.894575 222.729061 
L 266.907296 222.684878 
L 267.002706 222.896955 
L 267.021788 222.835099 
L 267.129919 222.684878 
L 267.053591 222.852772 
L 267.142641 222.720224 
L 267.257132 222.764407 
L 267.212608 222.693715 
L 267.263493 222.75557 
L 267.403427 222.649532 
L 267.42887 222.596513 
L 267.460673 222.729061 
L 267.505198 222.693715 
L 267.600608 222.631859 
L 267.613329 222.729061 
L 267.638771 222.861608 
L 267.72146 222.75557 
L 267.81687 222.923464 
L 267.880476 222.808589 
L 267.963165 222.729061 
L 267.91864 222.843935 
L 267.975886 222.808589 
L 268.115821 223.223905 
L 268.414771 223.754096 
L 268.49746 223.727586 
L 268.529263 223.860134 
L 268.561066 223.930826 
L 268.688279 224.257777 
L 268.713722 224.222431 
L 268.79005 224.054537 
L 268.834574 224.116393 
L 269.069919 224.372652 
L 269.089001 224.337306 
L 269.216214 224.107556 
L 269.222574 224.116393 
L 269.241656 224.222431 
L 269.337066 224.337306 
L 269.356148 224.27545 
L 269.394312 224.284287 
L 269.47064 224.169412 
L 269.591492 224.310796 
L 269.814115 224.346142 
L 269.941328 224.593564 
L 270.253 224.514036 
L 270.354771 224.240104 
L 270.373853 224.293123 
L 270.431098 224.231268 
L 270.469262 224.081047 
L 270.532869 224.27545 
L 270.54559 224.125229 
L 270.621918 224.019191 
L 270.666443 223.92199 
L 270.723688 224.054537 
L 270.730049 224.054537 
L 270.83818 223.975009 
L 270.768213 224.160575 
L 270.857262 224.028028 
L 270.978115 224.337306 
L 270.997197 224.284287 
L 271.060803 224.187085 
L 271.016279 224.372652 
L 271.111688 224.266614 
L 271.137131 224.30196 
L 271.257983 224.522872 
L 271.277065 224.549382 
L 271.410639 225.026553 
L 271.417 225.017717 
L 271.429721 225.141428 
L 271.467885 225.132592 
L 271.531492 225.150265 
L 271.51241 225.053063 
L 271.576016 225.114919 
L 271.588737 225.106082 
L 271.690508 225.477215 
L 271.70959 225.380014 
L 271.785918 225.441869 
L 271.728672 225.344668 
L 271.824082 225.38885 
L 272.014901 225.282812 
L 272.142114 225.132592 
L 272.167557 225.114919 
L 272.192999 225.194447 
L 272.19936 225.247466 
L 272.269327 225.159101 
L 272.301131 225.194447 
L 272.39018 225.123755 
L 272.415622 225.141428 
L 272.441065 225.070736 
L 272.460147 225.123755 
L 272.498311 224.823314 
L 272.580999 224.902842 
L 272.835425 224.381488 
L 272.848147 224.416834 
L 272.873589 224.575891 
L 272.924475 224.036864 
L 273.038966 223.69224 
L 273.058048 223.754096 
L 273.102573 223.807115 
L 273.07713 223.656894 
L 273.159819 223.71875 
L 273.306114 223.038339 
L 273.420606 222.773243 
L 273.446048 222.808589 
L 273.45877 222.861608 
L 273.516015 222.570004 
L 273.528737 222.596513 
L 273.535097 222.60535 
L 273.56054 222.463966 
L 273.585983 222.490475 
L 273.598704 222.490475 
L 273.681392 222.145851 
L 273.719556 222.234216 
L 274.082114 220.785029 
L 274.088474 220.793865 
L 274.113917 220.723173 
L 274.247491 220.35204 
L 274.260212 220.369713 
L 274.311097 220.272511 
L 274.457392 219.963233 
L 274.692736 219.998579 
L 274.743622 220.104617 
L 274.807228 220.078108 
L 274.858113 220.307857 
L 274.839031 220.051598 
L 274.947162 220.237165 
L 275.093458 220.32553 
L 275.137982 220.422732 
L 275.188867 220.281348 
L 275.201589 220.32553 
L 275.347884 220.413895 
L 275.487818 220.52877 
L 275.525982 220.52877 
L 275.5069 220.555279 
L 275.538703 220.564116 
L 275.69772 221.306383 
L 275.729523 221.156162 
L 275.774047 221.368238 
L 275.780408 221.368238 
L 275.837654 221.536132 
L 275.907621 221.46544 
L 276.022113 221.2622 
L 276.053916 221.377075 
L 276.104801 221.456603 
L 276.200211 221.730535 
L 276.238375 221.686353 
L 276.327424 221.624497 
L 276.340146 221.695189 
L 276.365588 221.783554 
L 276.435555 221.606824 
L 276.524605 221.659843 
L 276.550047 221.527295 
L 276.639096 221.624497 
L 276.855359 221.986794 
L 276.689982 221.580315 
L 276.874441 221.977957 
L 276.880801 221.916102 
L 276.957129 222.128178 
L 276.96985 222.075159 
L 277.046178 222.145851 
L 277.147949 222.296072 
L 277.167031 222.234216 
L 277.173391 222.22538 
L 277.186113 222.296072 
L 277.249719 222.304908 
L 277.306965 222.410946 
L 277.332408 222.570004 
L 277.427817 222.543494 
L 277.459621 222.472802 
L 277.504145 222.3756 
L 277.55503 222.508148 
L 277.561391 222.499312 
L 277.701326 222.896955 
L 277.828539 222.994156 
L 277.834899 222.98532 
L 277.866703 222.949974 
L 278.305588 223.453655 
L 278.318309 223.51551 
L 278.458243 223.833625 
L 278.71903 223.92199 
L 278.776276 224.089883 
L 278.833522 223.957336 
L 278.973456 223.762932 
L 278.992538 223.860134 
L 279.030702 223.683404 
L 279.049784 223.701077 
L 279.183358 223.533183 
L 279.189718 223.54202 
L 279.259686 223.648058 
L 279.310571 223.639221 
L 279.361456 223.586202 
L 279.393259 223.400636 
L 279.469587 223.559693 
L 279.49503 223.630385 
L 279.50139 223.683404 
L 279.564997 223.444818 
L 279.603161 223.612712 
L 279.895751 223.69224 
L 279.997521 223.868971 
L 280.016603 223.824788 
L 280.118374 223.656894 
L 280.143817 223.69224 
L 280.525456 223.047175 
L 280.633587 223.170886 
L 280.773521 223.559693 
L 280.805324 223.533183 
L 280.95162 223.630385 
L 281.142439 224.231268 
L 281.218767 224.054537 
L 281.24421 224.028028 
L 281.269652 224.142902 
L 281.333259 224.337306 
L 281.384144 224.204758 
L 281.403226 224.151739 
L 281.479554 224.337306 
L 281.511357 224.381488 
L 281.54316 224.593564 
L 281.632209 224.505199 
L 281.695816 224.425671 
L 281.816668 224.142902 
L 281.82939 224.178248 
L 281.861193 224.204758 
L 281.867554 224.116393 
L 281.886636 224.116393 
L 281.962963 223.798279 
L 282.02657 223.842461 
L 282.166504 224.036864 
L 282.293717 224.107556 
L 282.420931 224.399161 
L 282.433652 224.354979 
L 282.478176 224.443344 
L 282.490898 224.514036 
L 282.548144 224.434507 
L 282.586307 224.47869 
L 282.694439 224.30196 
L 282.637193 224.505199 
L 282.70716 224.319633 
L 282.821652 224.443344 
L 282.751684 224.248941 
L 282.834373 224.425671 
L 282.948865 224.522872 
L 283.413192 226.095771 
L 283.521324 226.829201 
L 283.546766 226.696654 
L 283.565848 226.643635 
L 283.572209 226.776182 
L 283.597651 226.732 
L 283.794832 227.8454 
L 283.801192 227.827727 
L 283.858438 227.977948 
L 283.87116 227.933765 
L 284.017455 228.561157 
L 284.036537 228.446283 
L 284.106504 228.667196 
L 284.252799 229.170877 
L 284.278241 229.241569 
L 284.392733 229.939653 
L 284.4627 229.754086 
L 284.469061 229.692231 
L 284.500864 229.877797 
L 284.55811 229.851288 
L 284.589913 229.886634 
L 284.729848 230.363805 
L 284.736208 230.310786 
L 284.812536 230.50519 
L 284.825258 230.487517 
L 284.977913 230.549372 
L 285.016077 230.664247 
L 285.092405 230.646574 
L 285.168733 230.593555 
L 285.206897 230.620064 
L 285.353192 230.664247 
L 285.365913 230.761448 
L 285.454962 230.611228 
L 285.82388 230.514026 
L 285.874765 230.310786 
L 285.944733 230.363805 
L 285.963815 230.293113 
L 285.970175 230.231258 
L 286.065585 230.354969 
L 286.415421 230.390315 
L 286.510831 230.602391 
L 286.536273 230.540536 
L 286.638044 230.637737 
L 286.644405 230.673083 
L 286.69529 230.522863 
L 286.739814 230.611228 
L 286.758896 230.637737 
L 286.860667 230.602391 
L 287.038765 231.097236 
L 287.070568 231.017707 
L 287.159617 231.097236 
L 287.286831 231.353495 
L 287.369519 231.159091 
L 287.407683 231.176764 
L 287.515814 231.167928 
L 287.420404 231.088399 
L 287.522175 231.159091 
L 287.814765 230.770285 
L 287.852929 230.876323 
L 287.929257 230.805631 
L 287.96742 230.911669 
L 288.164601 230.823304 
L 288.234568 230.752612 
L 288.279092 230.761448 
L 288.285453 230.814467 
L 288.35542 230.708429 
L 288.380863 230.787958 
L 288.508076 230.584718 
L 288.64801 230.514026 
L 288.762502 230.195912 
L 288.787945 230.213585 
L 288.83883 230.240094 
L 288.870633 230.142893 
L 289.067814 230.054528 
L 289.080535 229.974999 
L 289.175945 230.054528 
L 289.271354 229.877797 
L 289.309518 230.010345 
L 289.493977 230.089874 
L 289.51942 230.178239 
L 289.583026 229.974999 
L 289.595748 229.974999 
L 289.729322 229.683394 
L 289.799289 229.612702 
L 289.818371 229.497827 
L 289.869256 229.754086 
L 289.91378 229.54201 
L 289.920141 229.603866 
L 289.939223 229.409462 
L 290.015551 229.497827 
L 290.136403 229.71874 
L 290.168207 229.524337 
L 290.180928 229.506664 
L 290.250895 229.603866 
L 290.269977 229.559683 
L 290.448075 229.453645 
L 290.670698 229.215059 
L 290.702502 229.285751 
L 290.772469 229.356443 
L 290.797911 229.241569 
L 290.829715 229.179713 
L 290.874239 229.435972 
L 290.88696 229.418299 
L 291.001452 229.5155 
L 291.096862 229.656885 
L 291.141387 229.630375 
L 291.344928 229.71874 
L 291.497583 229.913143 
L 291.573911 229.89547 
L 291.510305 229.966162 
L 291.612075 229.939653 
L 291.650239 230.019182 
L 291.796534 230.328459 
L 291.828337 230.407988 
L 291.961911 230.65541 
L 292.24814 231.21211 
L 292.451681 231.980887 
L 292.941452 232.502241 
L 292.947812 232.493404 
L 292.985976 232.493404 
L 292.992337 232.581769 
L 293.005058 232.581769 
L 293.125911 232.802682 
L 293.132271 232.793846 
L 293.144993 232.926393 
L 293.259484 233.147306 
L 293.272206 233.120797 
L 293.424861 233.191489 
L 293.526632 233.341709 
L 293.545714 233.324036 
L 293.590238 233.394728 
L 293.672927 233.359382 
L 293.965517 233.46542 
L 294.124533 233.8719 
L 294.207222 234.04863 
L 294.251746 234.039794 
L 294.423484 234.119322 
L 294.537976 234.40209 
L 294.544336 234.331398 
L 294.766959 234.260706 
L 294.887812 234.145832 
L 295.027746 234.508129 
L 295.034107 234.499292 
L 295.046828 234.552311 
L 295.104074 234.481619 
L 295.142238 234.481619 
L 295.339418 234.366744 
L 295.345779 234.384417 
L 295.485713 234.587657 
L 295.542959 234.693695 
L 295.663811 234.870425 
L 295.670172 234.852752 
L 295.810106 234.949954 
L 295.873713 235.064829 
L 295.924598 235.020646 
L 296.185385 234.932281 
L 296.191746 234.888099 
L 296.248991 235.064829 
L 296.287155 235.002973 
L 296.471614 235.135521 
L 296.567024 234.905772 
L 296.598827 234.958791 
L 297.438434 235.939643 
L 297.476598 236.019172 
L 297.552925 236.063354 
L 297.572007 235.939643 
L 297.584729 235.992662 
L 297.820073 236.089864 
L 297.953647 236.372632 
L 298.163548 236.628891 
L 298.214433 236.68191 
L 298.348007 237.053043 
L 298.487942 237.141409 
L 298.602433 237.344648 
L 298.615155 237.335812 
L 298.799614 237.282793 
L 298.812335 237.220937 
L 298.888663 237.388831 
L 298.895023 237.388831 
L 299.034958 237.353485 
L 298.914105 237.433013 
L 299.041318 237.362321 
L 299.085843 237.433013 
L 299.117646 237.300466 
L 299.124007 237.300466 
L 299.136728 237.247447 
L 299.174892 237.494869 
L 299.219417 237.433013 
L 299.410236 237.371158 
L 299.422958 237.309302 
L 299.499285 237.459523 
L 299.512007 237.450686 
L 299.766433 237.662763 
L 299.804597 237.539051 
L 299.874564 237.636253 
L 299.893646 237.61858 
L 299.919089 237.733455 
L 299.938171 237.733455 
L 299.963613 237.804147 
L 300.12263 238.360847 
L 300.135351 238.325501 
L 300.300728 238.705471 
L 300.434302 239.11195 
L 300.364334 238.643615 
L 300.453384 239.050095 
L 300.656924 239.094277 
L 300.752334 239.244498 
L 300.771416 239.147296 
L 300.796859 239.235661 
L 300.981318 238.979403 
L 301.089449 239.217988 
L 301.10217 239.129623 
L 301.216662 239.094277 
L 301.114891 239.164969 
L 301.229383 239.11195 
L 301.280268 239.217988 
L 301.343875 239.156133 
L 301.350236 239.164969 
L 301.356596 239.067768 
L 301.420203 239.076604 
L 301.534695 238.979403 
L 301.68099 238.740817 
L 301.789121 238.829182 
L 301.814563 238.740817 
L 302.018104 238.652452 
L 302.132596 238.58176 
L 302.27253 238.475722 
L 302.65417 237.777637 
L 302.66053 237.786474 
L 302.838629 237.000024 
L 302.85135 237.008861 
L 303.016727 236.628891 
L 303.614628 235.648038 
L 303.748202 235.206213 
L 303.754563 235.215049 
L 303.881776 235.135521 
L 304.002628 234.932281 
L 304.008989 234.941118 
L 304.206169 234.835079 
L 304.333382 234.693695 
L 304.511481 234.587657 
L 304.524202 234.614167 
L 304.676858 234.649513 
L 304.765907 234.63184 
L 304.778628 234.693695 
L 305.179349 234.799733 
L 305.414693 234.949954 
L 305.592792 234.870425 
L 305.726365 235.109011 
L 305.758169 235.091338 
L 305.802693 235.18854 
L 305.955349 235.215049 
L 306.133447 235.126684 
L 306.139808 235.135521 
L 306.267021 235.197376 
L 306.273382 235.144357 
L 306.324267 235.126684 
L 306.368791 235.170867 
L 306.489644 235.303414 
L 306.591414 235.285741 
L 306.610496 235.312251 
L 307.049381 235.851278 
L 307.068463 235.789423 
L 307.23384 235.453635 
L 307.240201 235.462472 
L 307.297447 235.400616 
L 307.303807 235.400616 
L 307.411939 235.338761 
L 307.418299 235.347597 
L 307.431021 235.356434 
L 307.469184 235.241559 
L 307.615479 234.923445 
L 307.729971 234.693695 
L 307.736332 234.702532 
L 307.806299 234.720205 
L 307.81266 234.676022 
L 307.876266 234.463946 
L 307.939873 234.499292 
L 308.092529 234.4286 
L 308.213381 234.25187 
L 308.219742 234.260706 
L 308.442364 234.181178 
L 308.563217 234.066303 
L 308.78584 233.942592 
L 309.1802 234.022121 
L 309.307413 234.216524 
L 309.313774 234.207687 
L 309.510954 234.313725 
L 309.625446 234.499292 
L 309.644528 234.481619 
L 309.727216 234.587657 
L 309.809905 234.587657 
L 309.835348 234.552311 
L 309.867151 234.658349 
L 309.911675 234.720205 
L 309.975282 234.702532 
L 310.077052 234.552311 
L 310.089774 234.623003 
L 310.216987 234.278379 
L 310.223347 234.287216 
L 310.337839 234.110486 
L 310.3442 234.163505 
L 310.426888 234.172341 
L 310.433249 234.110486 
L 310.592265 233.757025 
L 310.655872 233.580295 
L 310.706757 233.659824 
L 310.776724 233.659824 
L 310.725839 233.597968 
L 310.808528 233.624478 
L 310.814888 233.615641 
L 310.859413 233.739352 
L 311.043872 233.810044 
L 311.050232 233.898409 
L 311.158364 233.889573 
L 311.247413 233.836554 
L 311.266495 233.916082 
L 311.584527 234.481619 
L 311.718101 234.826243 
L 311.845314 234.870425 
L 311.966167 235.100175 
L 312.017052 234.967627 
L 312.061576 235.179703 
L 312.182429 235.347597 
L 312.284199 235.409453 
L 312.398691 235.488981 
L 312.513183 235.577346 
L 312.557707 235.674548 
L 312.627675 235.665711 
L 312.958429 235.77175 
L 313.092002 236.107537 
L 313.295543 236.982351 
L 313.301904 236.973515 
L 313.384592 237.026534 
L 313.518166 237.344648 
L 313.524527 237.335812 
L 313.6581 237.388831 
L 313.772592 237.486032 
L 313.778953 237.477196 
L 313.785314 237.539051 
L 313.823477 237.539051 
L 313.95069 237.715782 
L 314.007936 237.786474 
L 314.224199 238.687798 
L 314.306887 238.767326 
L 314.453182 239.014749 
L 314.644002 239.217988 
L 314.663084 239.209152 
L 314.701248 239.31519 
L 314.828461 239.553776 
L 314.936592 239.659814 
L 315.076526 239.721669 
L 315.254624 239.827708 
L 315.534493 240.030947 
L 315.69351 240.136985 
L 315.922493 240.269533 
L 316.011542 240.375571 
L 316.18328 240.4551 
L 316.189641 240.437427 
L 316.355018 240.393244 
L 316.552198 240.508119 
L 316.558558 240.490446 
L 316.647608 240.472773 
L 316.67305 240.490446 
L 317.588984 240.437427 
L 317.665312 240.260697 
L 317.709837 240.331389 
L 317.926099 240.004438 
L 317.728919 240.393244 
L 317.989706 240.083966 
L 318.116919 240.331389 
L 318.148722 240.207677 
L 318.205968 240.357898 
L 318.22505 240.357898 
L 318.301378 240.243024 
L 318.32046 240.419754 
L 318.473115 240.525792 
L 318.708459 240.693686 
L 318.71482 240.676013 
L 318.937443 240.755541 
L 319.051935 240.80856 
L 319.153705 240.861579 
L 319.166426 240.843906 
L 319.3 240.60532 
L 319.433574 240.543465 
L 319.484459 240.463936 
L 319.548066 240.472773 
L 319.598951 240.366735 
L 319.815213 240.243024 
L 319.955148 240.25186 
L 320.184131 240.357898 
L 320.362229 240.42859 
L 320.374951 240.419754 
L 320.432197 240.490446 
L 320.444918 240.481609 
L 320.864721 241.39177 
L 320.877442 241.374097 
L 320.921967 241.36526 
L 320.941049 241.462462 
L 321.087344 241.798249 
L 321.157311 241.983816 
L 321.201836 241.886614 
L 321.278163 241.992652 
L 321.34177 242.010326 
L 321.367213 241.983816 
L 321.392655 241.930797 
L 321.475344 241.983816 
L 321.666163 242.072181 
L 321.767934 242.107527 
L 321.780655 242.098691 
L 322.041442 242.036835 
L 322.181376 241.754067 
L 322.283147 241.736394 
L 322.321311 241.860105 
L 322.403999 241.842432 
L 322.601179 241.974979 
L 322.613901 241.957306 
L 322.741114 241.94847 
L 322.747474 241.957306 
L 323.116392 241.851268 
L 323.269048 241.798249 
L 323.275409 241.807086 
L 323.294491 241.833595 
L 323.326294 241.754067 
L 323.377179 241.77174 
L 323.440786 241.701048 
L 323.567999 241.54199 
L 323.625245 241.533154 
L 323.637966 241.462462 
L 323.790622 241.36526 
L 323.847868 241.382933 
L 323.898753 241.329914 
L 324.15954 241.153184 
L 324.318556 241.047146 
L 324.954621 240.013274 
L 325.100916 239.589122 
L 325.62249 239.050095 
L 325.711539 239.005912 
L 325.934162 238.714307 
L 326.11226 238.652452 
L 326.175867 238.634779 
L 326.194949 238.608269 
L 326.283998 238.55525 
L 326.30944 238.572923 
L 326.423932 238.493395 
L 326.544785 238.325501 
L 326.722883 238.219463 
L 326.900981 238.157607 
L 327.066358 238.263645 
L 327.244457 238.325501 
L 327.314424 238.431539 
L 327.447997 238.484558 
L 327.746948 238.58176 
L 327.969571 238.882201 
L 328.045899 238.944057 
L 328.211276 239.394719 
L 328.223997 239.385882 
L 328.243079 239.49192 
L 328.313046 239.66865 
L 328.370292 239.650977 
L 328.618358 239.969092 
L 328.63744 239.889563 
L 328.720128 239.774689 
L 328.758292 239.792362 
L 328.771013 239.854217 
L 328.853702 239.66865 
L 328.980915 239.394719 
L 328.993636 239.403555 
L 329.0318 239.385882 
L 329.057243 239.483084 
L 329.069964 239.483084 
L 329.139931 239.483084 
L 329.108128 239.368209 
L 329.146292 239.474247 
L 329.235341 239.31519 
L 329.267144 239.3417 
L 329.356194 239.297517 
L 329.279866 239.31519 
L 329.362554 239.28868 
L 329.559734 239.191479 
L 329.578816 239.13846 
L 329.667866 239.209152 
L 329.858685 239.297517 
L 329.90321 239.13846 
L 329.973177 239.226825 
L 329.979538 239.235661 
L 329.992259 239.173806 
L 330.036784 239.164969 
L 330.106751 239.226825 
L 330.157636 239.058931 
L 330.494751 238.952893 
L 330.742816 238.793836 
L 330.9718 238.687798 
L 331.048127 238.634779 
L 331.099013 238.661288 
L 331.226226 238.670125 
L 332.53652 238.73198 
L 332.663733 238.908711 
L 332.740061 239.014749 
L 332.803668 238.970566 
L 333.058094 238.882201 
L 333.153504 238.811509 
L 333.172586 238.820345 
L 333.325241 238.793836 
L 333.904061 238.73198 
L 333.916782 238.670125 
L 333.961307 238.802672 
L 334.005831 238.802672 
L 334.393831 238.73198 
L 334.47652 238.572923 
L 334.521044 238.590596 
L 334.648257 238.511068 
L 334.781831 238.263645 
L 334.800913 238.254809 
L 334.819995 238.325501 
L 334.826356 238.325501 
L 334.851798 238.405029 
L 334.934487 238.343174 
L 335.042618 238.228299 
L 334.972651 238.387356 
L 335.048979 238.290155 
L 335.188913 238.387356 
L 335.246159 238.405029 
L 335.271601 238.307828 
L 335.277962 238.307828 
L 335.494224 238.466885 
L 335.506946 238.449212 
L 335.513306 238.440376 
L 335.526028 238.564087 
L 335.532388 238.564087 
L 335.615077 238.723144 
L 335.64688 238.608269 
L 335.691405 238.564087 
L 335.74865 238.599433 
L 335.850421 238.590596 
L 335.793175 238.670125 
L 335.856782 238.599433 
L 336.028519 238.705471 
L 336.03488 238.767326 
L 336.13665 238.678961 
L 336.594617 238.590596 
L 336.670945 238.440376 
L 336.71547 238.458049 
L 336.81088 238.35201 
L 336.91265 238.192953 
L 336.925371 238.343174 
L 337.084388 238.290155 
L 336.963535 238.387356 
L 337.090748 238.298991 
L 337.408781 238.219463 
L 337.529633 238.104588 
L 337.644125 238.007387 
L 337.707732 237.82182 
L 337.764978 237.839493 
L 338.292912 237.291629 
L 338.413764 237.26512 
L 338.528256 237.159082 
L 338.808125 237.229774 
L 338.928977 237.406504 
L 338.941699 237.397667 
L 339.062551 237.379994 
L 339.126158 237.477196 
L 339.215207 237.636253 
L 339.253371 237.627417 
L 339.266092 237.61858 
L 339.278813 237.724618 
L 339.425108 238.078079 
L 339.596846 238.131098 
L 339.660452 238.290155 
L 339.704977 238.139934 
L 339.819469 238.192953 
L 339.83219 238.184117 
L 339.972124 238.17528 
L 340.035731 238.095752 
L 340.137501 237.989713 
L 340.156583 238.016223 
L 340.182026 238.02506 
L 340.188387 237.980877 
L 340.22019 237.963204 
L 340.353764 237.724618 
L 340.480977 237.892512 
L 340.729042 238.104588 
L 340.735403 238.060406 
L 341.174288 237.954367 
L 341.276058 237.901348 
L 341.301501 237.954367 
L 341.320583 237.901348 
L 341.396911 237.927858 
L 341.454157 237.866002 
L 341.505042 237.927858 
L 341.68314 237.848329 
L 341.848517 237.388831 
L 341.912124 237.379994 
L 341.931206 237.450686 
L 341.937566 237.450686 
L 341.994812 237.388831 
L 342.102943 237.26512 
L 342.109304 237.318139 
L 342.300124 237.203264 
L 342.306484 237.220937 
L 342.440058 237.26512 
L 342.45914 237.247447 
L 342.516386 237.229774 
L 342.55455 237.26512 
L 342.56091 237.309302 
L 342.586353 237.229774 
L 342.65632 237.256283 
L 342.707206 237.159082 
L 342.777173 237.194428 
L 343.394156 237.291629 
L 343.502287 237.371158 
L 343.508648 237.318139 
L 343.680386 237.247447 
L 343.826681 236.902823 
L 343.928451 236.690747 
L 343.960254 236.70842 
L 344.0175 236.717256 
L 344.062025 236.664237 
L 344.373697 236.213575 
L 344.399139 236.319613 
L 344.411861 236.399142 
L 344.50727 236.337286 
L 344.532713 236.231248 
L 344.60268 236.354959 
L 344.615402 236.319613 
L 344.628123 236.32845 
L 344.659926 236.213575 
L 344.672647 236.213575 
L 344.88891 236.293104 
L 345.003401 236.354959 
L 345.009762 236.346123 
L 345.143336 236.443324 
L 345.257828 236.752602 
L 345.270549 236.70842 
L 345.486811 236.805621 
L 345.582221 236.973515 
L 345.614024 236.947005 
L 346.014745 237.318139 
L 346.033827 237.247447 
L 346.148319 236.911659 
L 346.173762 236.964678 
L 346.224647 236.85864 
L 346.758942 236.275431 
L 346.765303 236.293104 
L 346.83527 236.240085 
L 346.968843 235.930807 
L 347.121499 235.77175 
L 347.159663 235.824769 
L 347.172384 235.851278 
L 347.197827 235.612692 
L 347.242352 235.709894 
L 347.356843 235.488981 
L 347.369565 235.56851 
L 347.464974 235.435962 
L 347.490417 235.488981 
L 347.541302 235.382943 
L 347.687597 235.294578 
L 347.776646 235.382943 
L 347.929302 235.550837 
L 348.00563 235.480145 
L 348.088318 235.400616 
L 348.113761 235.453635 
L 348.158286 235.533164 
L 348.139204 235.409453 
L 348.240974 235.462472 
L 348.342745 235.259232 
L 348.368187 235.294578 
L 348.380909 235.347597 
L 348.444515 235.206213 
L 348.469958 235.259232 
L 348.48904 235.197376 
L 348.597171 235.126684 
L 348.603531 235.135521 
L 348.622613 235.206213 
L 348.724384 235.153194 
L 348.845236 235.055992 
L 349.010613 234.737878 
L 349.233236 234.614167 
L 349.322285 234.640676 
L 349.360449 234.60533 
L 349.729367 234.516965 
L 349.869301 234.375581 
L 349.913826 234.366744 
L 349.926547 234.304889 
L 349.95199 234.304889 
L 350.180974 234.410927 
L 350.276383 234.534638 
L 350.295465 234.516965 
L 350.33999 234.587657 
L 350.371793 234.516965 
L 350.4354 234.410927 
L 350.486285 234.437437 
L 350.549891 234.508129 
L 350.658023 234.60533 
L 350.664383 234.543475 
L 350.753432 234.45511 
L 350.810678 234.304889 
L 350.772514 234.463946 
L 350.874285 234.331398 
L 350.887006 234.349071 
L 350.899727 234.269543 
L 351.033301 233.827717 
L 351.039662 233.836554 
L 351.071465 233.84539 
L 351.077826 233.836554 
L 351.205039 233.46542 
L 351.211399 233.518439 
L 351.268645 233.244508 
L 351.287727 233.262181 
L 351.402219 233.173816 
L 351.41494 233.182652 
L 351.421301 233.226835 
L 351.472186 233.11196 
L 351.516711 233.120797 
L 351.663006 233.182652 
L 351.739334 233.262181 
L 351.777498 233.244508 
L 352.248186 233.28869 
L 352.343596 233.518439 
L 352.369038 233.46542 
L 352.470809 233.518439 
L 352.48353 233.46542 
L 352.489891 233.403565 
L 352.591661 233.483093 
L 352.604383 233.49193 
L 352.623465 233.368219 
L 352.636186 233.341709 
L 352.667989 233.403565 
L 352.725235 233.394728 
L 352.763399 233.447747 
L 352.77612 233.350546 
L 352.827005 233.359382 
L 352.852448 233.324036 
L 352.935137 233.341709 
L 352.979661 233.306363 
L 353.055989 233.350546 
L 353.240448 233.483093 
L 353.246809 233.430074 
L 353.405825 233.341709 
L 353.533038 233.120797 
L 353.539399 233.129633 
L 353.558481 233.076614 
L 353.65389 233.103124 
L 353.711136 233.005922 
L 353.831989 232.811519 
L 353.838349 232.820355 
L 353.857431 232.829192 
L 353.863792 232.767336 
L 353.914677 232.749663 
L 354.029169 232.696644 
L 354.099136 232.776173 
L 354.226349 232.988249 
L 354.448972 233.49193 
L 354.245431 232.979412 
L 354.455333 233.483093 
L 354.576185 233.562622 
L 354.71612 233.942592 
L 355.027792 234.216524 
L 355.104119 234.128159 
L 355.135923 234.234197 
L 355.142283 234.190014 
L 355.441234 234.287216 
L 355.523923 234.375581 
L 355.555726 234.313725 
L 355.657496 234.234197 
L 355.784709 234.030957 
L 355.854677 233.995611 
L 355.899201 234.057467 
L 356.032775 233.986774 
L 356.140906 233.774698 
L 356.159988 233.783535 
L 356.191791 233.677497 
L 356.236316 233.677497 
L 356.249037 233.730516 
L 356.287201 233.730516 
L 356.420775 233.624478 
L 356.433496 233.544949 
L 356.522545 233.659824 
L 356.611594 233.951428 
L 356.751529 234.269543 
L 356.757889 234.260706 
L 356.789693 234.340235 
L 356.840578 234.313725 
L 356.904184 234.490456 
L 356.916906 234.437437 
L 356.974152 234.578821 
L 356.993234 234.578821 
L 357.126807 234.78206 
L 357.311266 234.852752 
L 357.457561 235.250395 
L 357.463922 235.197376 
L 357.483004 235.153194 
L 357.622938 235.276905 
L 357.63566 235.223886 
L 357.692905 235.462472 
L 357.711987 235.427126 
L 357.890086 235.533164 
L 357.731069 235.382943 
L 357.896446 235.506654 
L 358.017299 235.312251 
L 357.921889 235.515491 
L 358.023659 235.321087 
L 358.049102 235.374107 
L 358.112709 235.294578 
L 358.119069 235.294578 
L 358.176315 235.179703 
L 358.233561 235.197376 
L 358.278086 235.109011 
L 358.398938 234.941118 
L 358.405299 234.949954 
L 358.736053 235.029483 
L 358.882348 235.329924 
L 358.977757 235.382943 
L 359.092249 235.559673 
L 359.09861 235.506654 
L 359.353036 235.577346 
L 359.467528 235.77175 
L 359.480249 235.762913 
L 359.626544 235.612692 
L 359.499331 235.833605 
L 359.664708 235.683384 
L 359.7792 235.74524 
L 359.817364 235.656875 
L 359.893692 235.692221 
L 360.548839 235.736403 
L 360.567921 235.824769 
L 360.663331 235.780586 
L 360.879593 235.886624 
L 360.930478 235.886624 
L 360.892314 235.868951 
L 360.968642 235.833605 
L 361.108576 235.559673 
L 361.153101 235.524327 
L 361.172183 235.612692 
L 361.23579 235.74524 
L 361.293035 235.71873 
L 361.299396 235.683384 
L 361.369363 235.842442 
L 361.382085 235.824769 
L 361.388445 235.815932 
L 361.401166 235.983826 
L 361.464773 235.877788 
L 361.52838 236.116373 
L 361.642871 236.187065 
L 361.789166 236.628891 
L 361.960904 236.673074 
L 361.967265 236.752602 
L 361.999068 236.6554 
L 362.069035 236.690747 
L 362.164445 236.540526 
L 362.196248 236.558199 
L 362.323461 236.460997 
L 362.488838 236.240085 
L 362.495199 236.257758 
L 362.50156 236.310777 
L 362.539723 236.116373 
L 362.590609 236.142883 
L 362.7051 236.045681 
L 362.819592 235.983826 
L 362.743264 236.081027 
L 362.825953 236.010335 
L 362.864117 236.081027 
L 362.940445 235.983826 
L 362.953166 235.868951 
L 363.010412 236.019172 
L 363.048576 235.974989 
L 363.0931 235.930807 
L 363.099461 235.851278 
L 363.118543 235.974989 
L 363.201231 235.92197 
L 363.220313 235.868951 
L 363.347527 235.939643 
L 363.398412 235.877788 
L 363.551067 235.497818 
L 363.57651 235.515491 
L 363.582871 235.462472 
L 363.627395 235.453635 
L 363.780051 235.197376 
L 363.799133 235.109011 
L 363.850018 235.020646 
L 363.907264 235.126684 
L 364.040838 235.232722 
L 364.16169 235.259232 
L 364.199854 235.206213 
L 364.218936 235.36527 
L 364.2571 235.36527 
L 364.65146 235.294578 
L 364.778674 235.179703 
L 364.982214 234.870425 
L 364.994936 234.896935 
L 365.071264 234.799733 
L 365.217559 234.60533 
L 365.478345 234.499292 
L 365.510149 234.4286 
L 365.580116 234.525802 
L 365.662804 234.596494 
L 365.700968 234.525802 
L 365.834542 234.437437 
L 365.872706 234.340235 
L 366.00628 234.25187 
L 366.209821 234.357908 
L 366.30523 234.472783 
L 366.330673 234.393254 
L 366.438804 234.216524 
L 366.483329 234.296052 
L 366.699591 234.569984 
L 366.750476 234.481619 
L 366.88405 234.331398 
L 366.903132 234.375581 
L 367.227525 234.287216 
L 367.291132 234.163505 
L 367.348378 234.22536 
L 367.95264 234.322562 
L 368.086213 234.508129 
L 368.232508 234.614167 
L 368.817689 235.312251 
L 368.83041 235.276905 
L 368.976705 235.100175 
L 369.008508 235.16203 
L 369.059393 234.9853 
L 369.078475 235.020646 
L 369.116639 234.967627 
L 369.243852 234.737878 
L 369.275656 234.676022 
L 369.453754 234.101649 
L 369.61277 233.898409 
L 369.676377 233.827717 
L 369.733623 233.721679 
L 369.689098 233.836554 
L 369.790869 233.765862 
L 369.797229 233.801208 
L 369.854475 233.704006 
L 369.892639 233.730516 
L 370.77677 233.810044 
L 370.916704 233.995611 
L 371.45736 234.101649 
L 371.616376 234.437437 
L 371.673622 234.375581 
L 371.775393 234.481619 
L 371.800835 234.552311 
L 371.889884 234.508129 
L 371.94713 234.340235 
L 372.010737 234.375581 
L 372.017097 234.4286 
L 372.055261 234.269543 
L 372.112507 234.340235 
L 372.23336 234.296052 
L 372.392376 233.704006 
L 372.424179 233.606805 
L 372.576835 233.306363 
L 372.62772 233.262181 
L 372.761294 232.891047 
L 372.767655 232.917557 
L 372.812179 232.829192 
L 372.996638 232.254819 
L 373.009359 232.325511 
L 373.130212 232.219473 
L 373.200179 231.99856 
L 373.257425 232.060415 
L 373.371917 232.131107 
L 373.378277 232.113434 
L 373.581818 232.184126 
L 373.581818 232.184126 
" style="fill:none;stroke:#1f77b4;stroke-linecap:square;stroke-width:1.5;"/>
   </g>
   <g id="patch_3">
    <path d="M 54 252 
L 54 34.56 
" style="fill:none;stroke:#000000;stroke-linecap:square;stroke-linejoin:miter;stroke-width:0.8;"/>
   </g>
   <g id="patch_4">
    <path d="M 388.8 252 
L 388.8 34.56 
" style="fill:none;stroke:#000000;stroke-linecap:square;stroke-linejoin:miter;stroke-width:0.8;"/>
   </g>
   <g id="patch_5">
    <path d="M 54 252 
L 388.8 252 
" style="fill:none;stroke:#000000;stroke-linecap:square;stroke-linejoin:miter;stroke-width:0.8;"/>
   </g>
   <g id="patch_6">
    <path d="M 54 34.56 
L 388.8 34.56 
" style="fill:none;stroke:#000000;stroke-linecap:square;stroke-linejoin:miter;stroke-width:0.8;"/>
   </g>
  </g>
 </g>
 <defs>
  <clipPath id="pbab4542987">
   <rect height="217.44" width="334.8" x="54" y="34.56"/>
  </clipPath>
 </defs>
</svg>
