<?xml version="1.0" encoding="utf-8" standalone="no"?>
<!DOCTYPE svg PUBLIC "-//W3C//DTD SVG 1.1//EN"
  "http://www.w3.org/Graphics/SVG/1.1/DTD/svg11.dtd">
<!-- Created with matplotlib (https://matplotlib.org/) -->
<svg height="288pt" version="1.1" viewBox="0 0 432 288" width="432pt" xmlns="http://www.w3.org/2000/svg" xmlns:xlink="http://www.w3.org/1999/xlink">
 <defs>
  <style type="text/css">
*{stroke-linecap:butt;stroke-linejoin:round;}
  </style>
 </defs>
 <g id="figure_1">
  <g id="patch_1">
   <path d="M 0 288 
L 432 288 
L 432 0 
L 0 0 
z
" style="fill:#ffffff;"/>
  </g>
  <g id="axes_1">
   <g id="patch_2">
    <path d="M 54 252 
L 388.8 252 
L 388.8 34.56 
L 54 34.56 
z
" style="fill:#ffffff;"/>
   </g>
   <g id="matplotlib.axis_1">
    <g id="xtick_1">
     <g id="line2d_1">
      <defs>
       <path d="M 0 0 
L 0 3.5 
" id="m8f12c5e3cf" style="stroke:#000000;stroke-width:0.8;"/>
      </defs>
      <g>
       <use style="stroke:#000000;stroke-width:0.8;" x="69.218182" xlink:href="#m8f12c5e3cf" y="252"/>
      </g>
     </g>
     <g id="text_1">
      <!-- 0 -->
      <defs>
       <path d="M 31.78125 66.40625 
Q 24.171875 66.40625 20.328125 58.90625 
Q 16.5 51.421875 16.5 36.375 
Q 16.5 21.390625 20.328125 13.890625 
Q 24.171875 6.390625 31.78125 6.390625 
Q 39.453125 6.390625 43.28125 13.890625 
Q 47.125 21.390625 47.125 36.375 
Q 47.125 51.421875 43.28125 58.90625 
Q 39.453125 66.40625 31.78125 66.40625 
z
M 31.78125 74.21875 
Q 44.046875 74.21875 50.515625 64.515625 
Q 56.984375 54.828125 56.984375 36.375 
Q 56.984375 17.96875 50.515625 8.265625 
Q 44.046875 -1.421875 31.78125 -1.421875 
Q 19.53125 -1.421875 13.0625 8.265625 
Q 6.59375 17.96875 6.59375 36.375 
Q 6.59375 54.828125 13.0625 64.515625 
Q 19.53125 74.21875 31.78125 74.21875 
z
" id="DejaVuSans-48"/>
      </defs>
      <g transform="translate(66.036932 266.598437)scale(0.1 -0.1)">
       <use xlink:href="#DejaVuSans-48"/>
      </g>
     </g>
    </g>
    <g id="xtick_2">
     <g id="line2d_2">
      <g>
       <use style="stroke:#000000;stroke-width:0.8;" x="122.634053" xlink:href="#m8f12c5e3cf" y="252"/>
      </g>
     </g>
     <g id="text_2">
      <!-- 500 -->
      <defs>
       <path d="M 10.796875 72.90625 
L 49.515625 72.90625 
L 49.515625 64.59375 
L 19.828125 64.59375 
L 19.828125 46.734375 
Q 21.96875 47.46875 24.109375 47.828125 
Q 26.265625 48.1875 28.421875 48.1875 
Q 40.625 48.1875 47.75 41.5 
Q 54.890625 34.8125 54.890625 23.390625 
Q 54.890625 11.625 47.5625 5.09375 
Q 40.234375 -1.421875 26.90625 -1.421875 
Q 22.3125 -1.421875 17.546875 -0.640625 
Q 12.796875 0.140625 7.71875 1.703125 
L 7.71875 11.625 
Q 12.109375 9.234375 16.796875 8.0625 
Q 21.484375 6.890625 26.703125 6.890625 
Q 35.15625 6.890625 40.078125 11.328125 
Q 45.015625 15.765625 45.015625 23.390625 
Q 45.015625 31 40.078125 35.4375 
Q 35.15625 39.890625 26.703125 39.890625 
Q 22.75 39.890625 18.8125 39.015625 
Q 14.890625 38.140625 10.796875 36.28125 
z
" id="DejaVuSans-53"/>
      </defs>
      <g transform="translate(113.090303 266.598437)scale(0.1 -0.1)">
       <use xlink:href="#DejaVuSans-53"/>
       <use x="63.623047" xlink:href="#DejaVuSans-48"/>
       <use x="127.246094" xlink:href="#DejaVuSans-48"/>
      </g>
     </g>
    </g>
    <g id="xtick_3">
     <g id="line2d_3">
      <g>
       <use style="stroke:#000000;stroke-width:0.8;" x="176.049925" xlink:href="#m8f12c5e3cf" y="252"/>
      </g>
     </g>
     <g id="text_3">
      <!-- 1000 -->
      <defs>
       <path d="M 12.40625 8.296875 
L 28.515625 8.296875 
L 28.515625 63.921875 
L 10.984375 60.40625 
L 10.984375 69.390625 
L 28.421875 72.90625 
L 38.28125 72.90625 
L 38.28125 8.296875 
L 54.390625 8.296875 
L 54.390625 0 
L 12.40625 0 
z
" id="DejaVuSans-49"/>
      </defs>
      <g transform="translate(163.324925 266.598437)scale(0.1 -0.1)">
       <use xlink:href="#DejaVuSans-49"/>
       <use x="63.623047" xlink:href="#DejaVuSans-48"/>
       <use x="127.246094" xlink:href="#DejaVuSans-48"/>
       <use x="190.869141" xlink:href="#DejaVuSans-48"/>
      </g>
     </g>
    </g>
    <g id="xtick_4">
     <g id="line2d_4">
      <g>
       <use style="stroke:#000000;stroke-width:0.8;" x="229.465797" xlink:href="#m8f12c5e3cf" y="252"/>
      </g>
     </g>
     <g id="text_4">
      <!-- 1500 -->
      <g transform="translate(216.740797 266.598437)scale(0.1 -0.1)">
       <use xlink:href="#DejaVuSans-49"/>
       <use x="63.623047" xlink:href="#DejaVuSans-53"/>
       <use x="127.246094" xlink:href="#DejaVuSans-48"/>
       <use x="190.869141" xlink:href="#DejaVuSans-48"/>
      </g>
     </g>
    </g>
    <g id="xtick_5">
     <g id="line2d_5">
      <g>
       <use style="stroke:#000000;stroke-width:0.8;" x="282.881668" xlink:href="#m8f12c5e3cf" y="252"/>
      </g>
     </g>
     <g id="text_5">
      <!-- 2000 -->
      <defs>
       <path d="M 19.1875 8.296875 
L 53.609375 8.296875 
L 53.609375 0 
L 7.328125 0 
L 7.328125 8.296875 
Q 12.9375 14.109375 22.625 23.890625 
Q 32.328125 33.6875 34.8125 36.53125 
Q 39.546875 41.84375 41.421875 45.53125 
Q 43.3125 49.21875 43.3125 52.78125 
Q 43.3125 58.59375 39.234375 62.25 
Q 35.15625 65.921875 28.609375 65.921875 
Q 23.96875 65.921875 18.8125 64.3125 
Q 13.671875 62.703125 7.8125 59.421875 
L 7.8125 69.390625 
Q 13.765625 71.78125 18.9375 73 
Q 24.125 74.21875 28.421875 74.21875 
Q 39.75 74.21875 46.484375 68.546875 
Q 53.21875 62.890625 53.21875 53.421875 
Q 53.21875 48.921875 51.53125 44.890625 
Q 49.859375 40.875 45.40625 35.40625 
Q 44.1875 33.984375 37.640625 27.21875 
Q 31.109375 20.453125 19.1875 8.296875 
z
" id="DejaVuSans-50"/>
      </defs>
      <g transform="translate(270.156668 266.598437)scale(0.1 -0.1)">
       <use xlink:href="#DejaVuSans-50"/>
       <use x="63.623047" xlink:href="#DejaVuSans-48"/>
       <use x="127.246094" xlink:href="#DejaVuSans-48"/>
       <use x="190.869141" xlink:href="#DejaVuSans-48"/>
      </g>
     </g>
    </g>
    <g id="xtick_6">
     <g id="line2d_6">
      <g>
       <use style="stroke:#000000;stroke-width:0.8;" x="336.29754" xlink:href="#m8f12c5e3cf" y="252"/>
      </g>
     </g>
     <g id="text_6">
      <!-- 2500 -->
      <g transform="translate(323.57254 266.598437)scale(0.1 -0.1)">
       <use xlink:href="#DejaVuSans-50"/>
       <use x="63.623047" xlink:href="#DejaVuSans-53"/>
       <use x="127.246094" xlink:href="#DejaVuSans-48"/>
       <use x="190.869141" xlink:href="#DejaVuSans-48"/>
      </g>
     </g>
    </g>
   </g>
   <g id="matplotlib.axis_2">
    <g id="ytick_1">
     <g id="line2d_7">
      <defs>
       <path d="M 0 0 
L -3.5 0 
" id="m3a176e0984" style="stroke:#000000;stroke-width:0.8;"/>
      </defs>
      <g>
       <use style="stroke:#000000;stroke-width:0.8;" x="54" xlink:href="#m3a176e0984" y="226.286636"/>
      </g>
     </g>
     <g id="text_7">
      <!-- 5.4 -->
      <defs>
       <path d="M 10.6875 12.40625 
L 21 12.40625 
L 21 0 
L 10.6875 0 
z
" id="DejaVuSans-46"/>
       <path d="M 37.796875 64.3125 
L 12.890625 25.390625 
L 37.796875 25.390625 
z
M 35.203125 72.90625 
L 47.609375 72.90625 
L 47.609375 25.390625 
L 58.015625 25.390625 
L 58.015625 17.1875 
L 47.609375 17.1875 
L 47.609375 0 
L 37.796875 0 
L 37.796875 17.1875 
L 4.890625 17.1875 
L 4.890625 26.703125 
z
" id="DejaVuSans-52"/>
      </defs>
      <g transform="translate(31.096875 230.085855)scale(0.1 -0.1)">
       <use xlink:href="#DejaVuSans-53"/>
       <use x="63.623047" xlink:href="#DejaVuSans-46"/>
       <use x="95.410156" xlink:href="#DejaVuSans-52"/>
      </g>
     </g>
    </g>
    <g id="ytick_2">
     <g id="line2d_8">
      <g>
       <use style="stroke:#000000;stroke-width:0.8;" x="54" xlink:href="#m3a176e0984" y="188.361793"/>
      </g>
     </g>
     <g id="text_8">
      <!-- 5.6 -->
      <defs>
       <path d="M 33.015625 40.375 
Q 26.375 40.375 22.484375 35.828125 
Q 18.609375 31.296875 18.609375 23.390625 
Q 18.609375 15.53125 22.484375 10.953125 
Q 26.375 6.390625 33.015625 6.390625 
Q 39.65625 6.390625 43.53125 10.953125 
Q 47.40625 15.53125 47.40625 23.390625 
Q 47.40625 31.296875 43.53125 35.828125 
Q 39.65625 40.375 33.015625 40.375 
z
M 52.59375 71.296875 
L 52.59375 62.3125 
Q 48.875 64.0625 45.09375 64.984375 
Q 41.3125 65.921875 37.59375 65.921875 
Q 27.828125 65.921875 22.671875 59.328125 
Q 17.53125 52.734375 16.796875 39.40625 
Q 19.671875 43.65625 24.015625 45.921875 
Q 28.375 48.1875 33.59375 48.1875 
Q 44.578125 48.1875 50.953125 41.515625 
Q 57.328125 34.859375 57.328125 23.390625 
Q 57.328125 12.15625 50.6875 5.359375 
Q 44.046875 -1.421875 33.015625 -1.421875 
Q 20.359375 -1.421875 13.671875 8.265625 
Q 6.984375 17.96875 6.984375 36.375 
Q 6.984375 53.65625 15.1875 63.9375 
Q 23.390625 74.21875 37.203125 74.21875 
Q 40.921875 74.21875 44.703125 73.484375 
Q 48.484375 72.75 52.59375 71.296875 
z
" id="DejaVuSans-54"/>
      </defs>
      <g transform="translate(31.096875 192.161011)scale(0.1 -0.1)">
       <use xlink:href="#DejaVuSans-53"/>
       <use x="63.623047" xlink:href="#DejaVuSans-46"/>
       <use x="95.410156" xlink:href="#DejaVuSans-54"/>
      </g>
     </g>
    </g>
    <g id="ytick_3">
     <g id="line2d_9">
      <g>
       <use style="stroke:#000000;stroke-width:0.8;" x="54" xlink:href="#m3a176e0984" y="150.436949"/>
      </g>
     </g>
     <g id="text_9">
      <!-- 5.8 -->
      <defs>
       <path d="M 31.78125 34.625 
Q 24.75 34.625 20.71875 30.859375 
Q 16.703125 27.09375 16.703125 20.515625 
Q 16.703125 13.921875 20.71875 10.15625 
Q 24.75 6.390625 31.78125 6.390625 
Q 38.8125 6.390625 42.859375 10.171875 
Q 46.921875 13.96875 46.921875 20.515625 
Q 46.921875 27.09375 42.890625 30.859375 
Q 38.875 34.625 31.78125 34.625 
z
M 21.921875 38.8125 
Q 15.578125 40.375 12.03125 44.71875 
Q 8.5 49.078125 8.5 55.328125 
Q 8.5 64.0625 14.71875 69.140625 
Q 20.953125 74.21875 31.78125 74.21875 
Q 42.671875 74.21875 48.875 69.140625 
Q 55.078125 64.0625 55.078125 55.328125 
Q 55.078125 49.078125 51.53125 44.71875 
Q 48 40.375 41.703125 38.8125 
Q 48.828125 37.15625 52.796875 32.3125 
Q 56.78125 27.484375 56.78125 20.515625 
Q 56.78125 9.90625 50.3125 4.234375 
Q 43.84375 -1.421875 31.78125 -1.421875 
Q 19.734375 -1.421875 13.25 4.234375 
Q 6.78125 9.90625 6.78125 20.515625 
Q 6.78125 27.484375 10.78125 32.3125 
Q 14.796875 37.15625 21.921875 38.8125 
z
M 18.3125 54.390625 
Q 18.3125 48.734375 21.84375 45.5625 
Q 25.390625 42.390625 31.78125 42.390625 
Q 38.140625 42.390625 41.71875 45.5625 
Q 45.3125 48.734375 45.3125 54.390625 
Q 45.3125 60.0625 41.71875 63.234375 
Q 38.140625 66.40625 31.78125 66.40625 
Q 25.390625 66.40625 21.84375 63.234375 
Q 18.3125 60.0625 18.3125 54.390625 
z
" id="DejaVuSans-56"/>
      </defs>
      <g transform="translate(31.096875 154.236168)scale(0.1 -0.1)">
       <use xlink:href="#DejaVuSans-53"/>
       <use x="63.623047" xlink:href="#DejaVuSans-46"/>
       <use x="95.410156" xlink:href="#DejaVuSans-56"/>
      </g>
     </g>
    </g>
    <g id="ytick_4">
     <g id="line2d_10">
      <g>
       <use style="stroke:#000000;stroke-width:0.8;" x="54" xlink:href="#m3a176e0984" y="112.512106"/>
      </g>
     </g>
     <g id="text_10">
      <!-- 6.0 -->
      <g transform="translate(31.096875 116.311324)scale(0.1 -0.1)">
       <use xlink:href="#DejaVuSans-54"/>
       <use x="63.623047" xlink:href="#DejaVuSans-46"/>
       <use x="95.410156" xlink:href="#DejaVuSans-48"/>
      </g>
     </g>
    </g>
    <g id="ytick_5">
     <g id="line2d_11">
      <g>
       <use style="stroke:#000000;stroke-width:0.8;" x="54" xlink:href="#m3a176e0984" y="74.587262"/>
      </g>
     </g>
     <g id="text_11">
      <!-- 6.2 -->
      <g transform="translate(31.096875 78.386481)scale(0.1 -0.1)">
       <use xlink:href="#DejaVuSans-54"/>
       <use x="63.623047" xlink:href="#DejaVuSans-46"/>
       <use x="95.410156" xlink:href="#DejaVuSans-50"/>
      </g>
     </g>
    </g>
    <g id="ytick_6">
     <g id="line2d_12">
      <g>
       <use style="stroke:#000000;stroke-width:0.8;" x="54" xlink:href="#m3a176e0984" y="36.662419"/>
      </g>
     </g>
     <g id="text_12">
      <!-- 6.4 -->
      <g transform="translate(31.096875 40.461637)scale(0.1 -0.1)">
       <use xlink:href="#DejaVuSans-54"/>
       <use x="63.623047" xlink:href="#DejaVuSans-46"/>
       <use x="95.410156" xlink:href="#DejaVuSans-52"/>
      </g>
     </g>
    </g>
   </g>
   <g id="line2d_13">
    <path clip-path="url(#pf934dad5ce)" d="M 69.218182 238.990763 
L 69.325014 238.177006 
L 69.538677 238.485489 
L 69.645509 238.706908 
L 70.072836 236.755534 
L 70.286499 236.991367 
L 70.500163 237.410857 
L 70.606994 237.845756 
L 70.713826 237.763166 
L 70.92749 236.217987 
L 71.141153 237.297282 
L 71.247985 237.002385 
L 71.354817 237.276691 
L 71.461648 236.303686 
L 71.675312 237.658075 
L 71.782144 237.353266 
L 72.102639 239.088971 
L 72.209471 239.003368 
L 72.423134 239.951778 
L 72.529966 239.684679 
L 72.636798 239.963402 
L 72.743629 240.907815 
L 72.850461 240.655625 
L 72.957293 240.697991 
L 73.064125 241.274972 
L 73.170956 240.919983 
L 73.277788 241.692616 
L 73.38462 241.519469 
L 73.491452 241.037821 
L 73.705115 242.116364 
L 73.811947 241.043608 
L 73.918779 241.393707 
L 74.02561 240.953326 
L 74.346105 238.089984 
L 74.452937 238.220352 
L 74.666601 238.773192 
L 74.773432 239.026238 
L 74.880264 237.95305 
L 74.987096 238.183805 
L 75.093928 238.093612 
L 75.200759 237.397315 
L 75.307591 237.917642 
L 75.521255 237.121137 
L 75.734918 234.337519 
L 75.84175 234.800877 
L 75.948582 234.457171 
L 76.055413 233.655595 
L 76.162245 234.629275 
L 76.269077 233.580316 
L 76.48274 234.823466 
L 76.589572 234.090971 
L 76.803236 234.755085 
L 76.910067 236.029638 
L 77.123731 235.013392 
L 77.230563 234.5326 
L 77.337394 235.31536 
L 77.551058 233.998445 
L 77.764721 235.319393 
L 77.978385 232.760815 
L 78.192048 232.973381 
L 78.29888 232.774166 
L 78.405712 232.97874 
L 78.512543 232.480123 
L 78.726207 233.264557 
L 78.833039 232.721162 
L 78.93987 233.30423 
L 79.260366 231.797086 
L 79.367197 231.871835 
L 79.474029 230.831137 
L 79.687693 231.373804 
L 79.901356 230.220151 
L 80.328683 227.79131 
L 80.435515 227.878544 
L 80.542347 228.660861 
L 80.649178 227.92751 
L 80.75601 228.363676 
L 80.969674 226.629101 
L 81.076505 226.162477 
L 81.503832 228.428134 
L 81.610664 228.444433 
L 81.824328 228.028465 
L 82.251654 224.854414 
L 82.465318 225.645325 
L 82.57215 226.005395 
L 82.785813 224.18688 
L 82.999477 225.03478 
L 83.106308 224.40992 
L 83.21314 224.726959 
L 83.319972 223.721537 
L 83.533635 224.326882 
L 83.747299 223.207719 
L 83.960962 224.714832 
L 84.067794 224.098588 
L 84.174626 224.393828 
L 84.281458 222.81806 
L 84.388289 223.808898 
L 84.495121 223.153967 
L 84.708785 223.935396 
L 84.922448 223.608838 
L 85.67027 226.727711 
L 85.777102 226.565692 
L 85.990765 225.694559 
L 86.204429 227.043152 
L 86.524924 227.805587 
L 86.845419 226.757725 
L 87.059083 225.718238 
L 87.165915 225.882102 
L 87.272746 225.651618 
L 87.48641 223.215755 
L 87.593242 223.15343 
L 87.700073 223.391764 
L 87.806905 222.490075 
L 87.913737 222.869735 
L 88.1274 222.678055 
L 88.234232 222.878186 
L 88.447896 221.219656 
L 88.661559 221.991837 
L 88.768391 222.381429 
L 88.982054 221.823303 
L 89.088886 222.203044 
L 89.195718 221.891629 
L 89.729877 224.018524 
L 89.836708 225.150409 
L 89.94354 224.323579 
L 90.050372 224.97932 
L 90.157203 224.102083 
L 90.264035 224.160592 
L 90.477699 223.015623 
L 90.58453 223.26639 
L 90.798194 222.162531 
L 91.118689 221.12433 
L 91.225521 221.288153 
L 91.332353 220.915037 
L 91.439184 222.30208 
L 91.652848 221.442408 
L 91.75968 221.632612 
L 91.866511 221.47428 
L 91.973343 221.638208 
L 92.080175 220.662596 
L 92.187007 220.955542 
L 92.614334 223.852529 
L 92.721165 223.992013 
L 92.827997 223.125326 
L 92.934829 223.549004 
L 93.041661 224.613984 
L 93.575819 222.261594 
L 93.789483 223.216346 
L 93.896314 223.644796 
L 94.003146 223.522201 
L 94.109978 223.215876 
L 94.21681 223.862995 
L 94.323641 223.524146 
L 94.430473 224.146149 
L 94.644137 223.953507 
L 94.750968 225.205898 
L 94.964632 224.698085 
L 95.071464 224.382753 
L 95.178295 224.496559 
L 95.391959 226.346714 
L 95.605622 224.776377 
L 95.712454 225.241072 
L 95.926118 224.856757 
L 96.139781 223.418638 
L 96.246613 223.667883 
L 96.460276 223.468318 
L 96.567108 223.54764 
L 96.67394 223.803319 
L 96.780772 223.477563 
L 96.887603 223.79814 
L 97.208099 222.341204 
L 97.31493 222.428691 
L 97.635426 221.757777 
L 97.742257 221.935375 
L 97.955921 221.229595 
L 98.062752 220.513747 
L 98.169584 221.960663 
L 98.703743 219.044498 
L 98.810575 219.114531 
L 99.024238 217.87926 
L 99.237902 218.784371 
L 99.344733 218.429034 
L 99.451565 218.509754 
L 99.665229 217.40764 
L 100.199387 220.330054 
L 100.306219 220.335298 
L 100.413051 220.850642 
L 100.519883 220.228871 
L 100.626714 220.324813 
L 100.840378 221.080456 
L 101.054041 222.577629 
L 101.267705 222.473233 
L 101.374537 223.662225 
L 101.5882 223.140827 
L 101.695032 224.041851 
L 101.908695 221.738592 
L 102.015527 220.834944 
L 102.122359 220.901223 
L 102.336022 220.293394 
L 102.442854 220.844872 
L 102.549686 220.237861 
L 102.656517 220.341618 
L 102.763349 220.88867 
L 102.870181 219.932416 
L 102.977013 220.398738 
L 103.083844 219.892922 
L 103.190676 220.34071 
L 103.297508 219.148825 
L 103.40434 219.425665 
L 103.511171 218.946649 
L 103.618003 219.063544 
L 103.831667 218.804268 
L 103.938498 218.367102 
L 104.04533 219.340939 
L 104.152162 218.321948 
L 104.258994 219.404104 
L 104.579489 219.123267 
L 104.686321 219.42549 
L 105.113648 218.427707 
L 105.327311 218.836668 
L 105.434143 218.821159 
L 105.647806 220.115807 
L 105.86147 219.706792 
L 105.968301 219.798599 
L 106.075133 221.218072 
L 106.288797 220.626341 
L 106.395628 219.749681 
L 106.609292 220.558289 
L 106.716124 220.196079 
L 107.036619 218.534791 
L 107.250282 220.09205 
L 107.357114 219.310138 
L 107.463946 219.374452 
L 107.570778 218.961024 
L 107.784441 217.488792 
L 107.998105 218.65517 
L 108.211768 217.934081 
L 108.3186 218.428101 
L 108.425432 219.522938 
L 108.745927 217.819586 
L 108.95959 218.15861 
L 109.173254 219.540471 
L 109.386917 220.003814 
L 109.493749 220.288419 
L 109.600581 219.785075 
L 109.707412 220.235589 
L 109.814244 220.12701 
L 109.921076 220.416123 
L 110.134739 218.866749 
L 110.348403 220.334644 
L 110.455235 221.008376 
L 110.562066 220.782567 
L 110.668898 221.284048 
L 110.989393 220.49324 
L 111.096225 220.301016 
L 111.309889 221.73728 
L 111.41672 221.857193 
L 111.523552 221.139705 
L 111.630384 222.509909 
L 112.057711 219.767304 
L 112.271374 219.903981 
L 112.378206 220.544402 
L 112.485038 220.515149 
L 112.698701 221.050047 
L 112.912365 219.630027 
L 113.126028 219.042794 
L 113.339692 220.27169 
L 113.446524 220.045287 
L 113.660187 220.304632 
L 113.87385 220.350213 
L 114.087514 221.140745 
L 114.194346 220.987689 
L 114.408009 219.549782 
L 114.514841 218.877137 
L 114.621673 219.333627 
L 114.728504 218.80679 
L 114.942168 220.292088 
L 115.049 220.162453 
L 115.262663 218.604692 
L 115.369495 218.876666 
L 115.476327 220.657146 
L 115.68999 219.719852 
L 115.796822 219.894788 
L 115.903654 219.480581 
L 116.117317 217.862899 
L 116.330981 217.621245 
L 116.437812 216.865222 
L 116.544644 216.938967 
L 116.651476 216.395713 
L 116.865139 214.21388 
L 116.971971 214.514858 
L 117.399298 213.121167 
L 117.719793 211.859804 
L 118.360784 214.951141 
L 118.574447 212.938034 
L 118.681279 213.320972 
L 118.788111 213.16262 
L 118.894942 214.163881 
L 119.001774 212.888174 
L 119.108606 213.337129 
L 119.215438 212.656516 
L 119.429101 214.382653 
L 119.535933 214.274512 
L 119.642765 215.002648 
L 119.856428 214.228381 
L 119.96326 213.691706 
L 120.070092 214.183573 
L 120.176923 212.543327 
L 120.283755 212.800993 
L 120.390587 212.54655 
L 120.497419 212.634627 
L 120.711082 214.100564 
L 120.817914 214.691148 
L 120.924746 213.964831 
L 121.138409 216.062342 
L 121.245241 216.507514 
L 121.352072 215.49059 
L 121.458904 216.310042 
L 121.672568 216.029341 
L 121.779399 216.285082 
L 121.993063 217.306213 
L 122.206726 217.020363 
L 122.42039 217.369297 
L 122.634053 219.049924 
L 122.740885 219.786649 
L 122.847717 219.547773 
L 123.06138 218.513315 
L 123.381876 217.731372 
L 123.595539 217.920619 
L 123.809203 217.549059 
L 123.916034 216.836109 
L 124.022866 217.119589 
L 124.23653 217.93681 
L 124.343361 217.717129 
L 124.557025 215.644829 
L 124.663857 215.855022 
L 124.984352 217.01438 
L 125.091184 217.559944 
L 125.411679 215.562332 
L 125.51851 214.839854 
L 125.625342 215.039267 
L 125.839006 213.620708 
L 125.945837 213.519192 
L 126.052669 212.905385 
L 126.266333 213.987373 
L 126.373164 213.670097 
L 126.586828 212.380206 
L 126.69366 212.855643 
L 126.800491 212.742086 
L 127.655145 208.730768 
L 127.868809 209.452667 
L 127.975641 209.35298 
L 128.189304 208.288029 
L 128.296136 209.397075 
L 128.402968 208.106751 
L 128.509799 208.569873 
L 128.723463 206.70971 
L 128.830295 206.75178 
L 128.937126 207.376683 
L 129.257621 205.622893 
L 129.364453 205.192719 
L 129.471285 205.308971 
L 129.684948 202.973265 
L 129.79178 203.438879 
L 130.646434 199.525551 
L 130.753266 198.230711 
L 130.860098 198.600685 
L 130.966929 197.749719 
L 131.073761 198.470936 
L 131.180593 197.535315 
L 131.501088 198.297846 
L 131.60792 198.230068 
L 131.821583 197.101581 
L 131.928415 197.461872 
L 132.035247 196.913629 
L 132.355742 197.140334 
L 132.462574 196.981172 
L 132.676237 195.572625 
L 132.783069 194.380662 
L 132.996733 196.273824 
L 133.103564 195.620639 
L 133.210396 195.929609 
L 133.317228 195.719593 
L 133.424059 194.9379 
L 133.637723 195.093654 
L 133.958218 194.527367 
L 134.06505 193.655579 
L 134.385545 194.991232 
L 134.492377 194.877409 
L 134.599209 194.269581 
L 134.70604 195.555288 
L 134.812872 195.302841 
L 135.026536 196.101628 
L 135.133367 196.012948 
L 135.560694 193.984102 
L 135.667526 193.58449 
L 135.774358 192.294941 
L 135.88119 192.782432 
L 136.415348 189.668913 
L 136.629012 187.421305 
L 136.949507 185.471246 
L 137.16317 183.733993 
L 137.376834 185.281081 
L 137.483666 184.9843 
L 137.590497 184.252781 
L 137.697329 184.321614 
L 137.804161 183.977167 
L 137.910993 184.84361 
L 138.017824 184.354128 
L 138.124656 185.267829 
L 138.231488 184.129048 
L 138.33832 185.01184 
L 138.97931 182.54911 
L 139.086142 183.05916 
L 139.406637 181.435458 
L 139.620301 182.852165 
L 139.833964 181.174497 
L 139.940796 181.386284 
L 140.047628 181.606792 
L 140.79545 177.717333 
L 141.009113 176.159301 
L 141.115945 175.872867 
L 141.650104 171.816923 
L 142.077431 173.376311 
L 142.184262 173.172067 
L 142.291094 173.900068 
L 142.718421 172.277423 
L 142.825253 172.26028 
L 142.932085 173.332229 
L 143.038916 172.822362 
L 143.25258 170.799476 
L 143.359412 170.811067 
L 143.466243 170.564339 
L 143.573075 171.171906 
L 143.679907 170.675445 
L 144.000402 168.204006 
L 144.107234 167.853265 
L 144.534561 165.007012 
L 144.641393 164.828499 
L 145.175551 160.745301 
L 145.282383 160.597872 
L 145.389215 158.887937 
L 145.496046 158.960655 
L 145.816542 156.768083 
L 145.923373 156.576732 
L 146.030205 156.671716 
L 146.137037 156.221686 
L 146.243869 156.392731 
L 146.457532 156.837864 
L 146.564364 156.845011 
L 146.671196 157.486918 
L 146.778027 156.615253 
L 146.884859 157.302951 
L 146.991691 156.606637 
L 147.098523 156.963367 
L 147.312186 155.445548 
L 147.419018 155.867009 
L 147.739513 153.146755 
L 147.953177 153.414594 
L 148.060008 152.262827 
L 148.16684 153.217732 
L 148.273672 151.349278 
L 148.380504 151.363504 
L 148.487335 151.279944 
L 148.594167 150.62963 
L 148.700999 151.33682 
L 148.80783 151.069564 
L 148.914662 151.116406 
L 149.341989 147.806386 
L 149.662484 147.77144 
L 149.769316 147.830996 
L 150.089811 145.907082 
L 150.196643 146.007925 
L 150.303475 145.518941 
L 150.410307 146.347388 
L 150.517138 146.263696 
L 150.730802 146.635399 
L 150.837634 147.477893 
L 151.905951 140.53168 
L 152.012783 139.708882 
L 152.119615 139.85843 
L 152.333278 138.719962 
L 152.546942 137.206626 
L 152.653773 137.030277 
L 152.760605 137.643837 
L 152.867437 137.519141 
L 152.974268 137.635823 
L 154.149418 129.508194 
L 154.363081 129.143988 
L 154.576745 128.442553 
L 155.004072 126.72877 
L 155.110903 126.90862 
L 155.324567 125.179133 
L 155.53823 125.066226 
L 155.751894 123.329585 
L 156.072389 123.538813 
L 156.820211 122.467937 
L 156.927043 122.16951 
L 157.140706 123.232391 
L 157.35437 122.298224 
L 157.568033 120.267713 
L 157.781697 120.884583 
L 158.102192 119.593366 
L 158.315856 118.522658 
L 158.422687 118.529548 
L 158.636351 117.542776 
L 158.743183 117.937216 
L 158.956846 116.891021 
L 159.063678 116.942543 
L 159.17051 117.731794 
L 159.8115 115.502817 
L 160.025164 115.416111 
L 160.131995 115.583421 
L 160.452491 114.878977 
L 160.666154 113.444209 
L 160.879817 113.998859 
L 161.093481 113.230133 
L 161.200313 113.989014 
L 161.307144 113.291134 
L 161.520808 114.72097 
L 161.62764 114.658775 
L 161.734471 114.172935 
L 161.841303 114.448278 
L 162.054967 113.418375 
L 162.375462 112.518517 
L 162.482294 113.472807 
L 162.909621 111.100275 
L 163.016452 112.132342 
L 163.123284 111.900714 
L 163.230116 112.492912 
L 163.443779 109.713899 
L 163.550611 109.518665 
L 163.657443 109.713008 
L 163.977938 112.351074 
L 164.191602 111.677177 
L 164.298433 112.179352 
L 164.72576 110.523112 
L 164.832592 110.30408 
L 164.939424 110.608747 
L 165.473582 108.901938 
L 165.580414 108.901824 
L 165.900909 106.844865 
L 166.114573 107.603588 
L 166.328236 107.976623 
L 166.435068 107.917106 
L 166.862395 104.747142 
L 167.18289 106.097328 
L 167.289722 105.83138 
L 167.396554 105.008728 
L 167.503386 105.120754 
L 167.717049 103.913497 
L 167.823881 103.771783 
L 168.037544 102.641267 
L 168.144376 102.712952 
L 168.35804 101.646878 
L 168.464871 101.73278 
L 168.571703 102.810576 
L 168.678535 102.407505 
L 168.892198 100.961108 
L 168.99903 101.012445 
L 169.105862 100.843326 
L 169.212693 101.956292 
L 169.426357 100.927532 
L 169.533189 101.013522 
L 169.746852 100.204775 
L 169.960516 100.72446 
L 170.281011 99.011505 
L 170.387843 99.605953 
L 170.494674 99.489242 
L 170.81517 100.270044 
L 170.922001 100.191915 
L 171.135665 102.089944 
L 171.242497 102.045802 
L 171.45616 101.583611 
L 171.883487 99.092205 
L 171.990319 99.016468 
L 172.203982 100.202211 
L 172.310814 99.391843 
L 172.417646 99.718641 
L 172.524477 99.212226 
L 172.738141 99.619705 
L 172.951804 99.088314 
L 173.165468 99.821938 
L 173.2723 99.693496 
L 173.379131 99.184987 
L 173.592795 100.75718 
L 173.699627 101.735854 
L 173.91329 100.341065 
L 174.020122 100.76508 
L 174.126954 100.294447 
L 174.233785 100.482985 
L 174.340617 100.234924 
L 174.447449 99.383465 
L 174.767944 99.719945 
L 174.874776 99.151886 
L 174.981608 99.942941 
L 175.195271 99.208355 
L 175.302103 99.291556 
L 175.515766 100.550589 
L 175.72943 99.577607 
L 175.836262 99.992427 
L 176.263588 96.040403 
L 176.477252 95.644841 
L 176.584084 95.767476 
L 176.797747 96.467374 
L 177.011411 94.790476 
L 177.225074 93.139417 
L 177.438738 94.117968 
L 177.866065 92.640251 
L 178.079728 92.347577 
L 178.18656 91.411475 
L 178.400223 93.085685 
L 178.507055 93.215761 
L 179.148046 88.84889 
L 179.254877 89.052348 
L 179.682204 88.325895 
L 179.789036 88.423662 
L 179.895868 87.772619 
L 180.216363 89.341868 
L 180.323195 89.272649 
L 180.430026 88.764908 
L 180.64369 89.905717 
L 180.750522 90.219586 
L 181.071017 92.467353 
L 181.177849 92.148763 
L 181.498344 90.118235 
L 181.605176 90.407042 
L 181.818839 88.685221 
L 181.925671 88.551666 
L 182.032503 88.840667 
L 182.139334 88.555908 
L 182.246166 89.196928 
L 182.352998 88.224105 
L 182.45983 88.280057 
L 182.673493 86.643656 
L 182.887157 86.940965 
L 183.10082 86.948718 
L 183.314484 87.515634 
L 183.421315 87.962789 
L 183.741811 86.024277 
L 183.848642 85.490673 
L 183.955474 84.18648 
L 184.062306 84.289249 
L 184.275969 85.530155 
L 184.382801 85.488573 
L 184.596464 85.249597 
L 184.703296 85.940718 
L 184.91696 85.825055 
L 185.55795 88.981042 
L 185.664782 89.183582 
L 186.198941 85.500468 
L 186.305772 85.292237 
L 186.412604 84.483056 
L 186.519436 85.459902 
L 186.626268 84.812073 
L 186.733099 85.174991 
L 186.946763 83.654865 
L 187.267258 84.527076 
L 187.587753 83.028938 
L 187.801417 84.387533 
L 187.908249 84.334357 
L 188.01508 84.416808 
L 188.121912 83.667761 
L 188.335575 85.288159 
L 188.656071 84.430001 
L 188.762902 84.135942 
L 188.976566 84.919515 
L 189.083398 84.806924 
L 189.190229 83.67903 
L 189.403893 84.235425 
L 189.510725 83.776716 
L 189.617556 84.367679 
L 189.724388 84.297273 
L 189.938052 85.608071 
L 190.151715 85.786317 
L 190.258547 85.934241 
L 190.365379 85.539471 
L 190.685874 82.347181 
L 191.113201 84.265178 
L 191.433696 83.159985 
L 191.540528 84.37223 
L 191.967855 81.101444 
L 192.181518 82.437735 
L 192.395182 83.527453 
L 192.608845 83.610391 
L 192.822509 82.23756 
L 193.036172 82.759856 
L 193.143004 82.690104 
L 193.356667 83.446082 
L 193.570331 83.886564 
L 193.783994 82.767899 
L 193.890826 82.80026 
L 194.10449 83.586283 
L 194.424985 81.20387 
L 194.531817 81.247312 
L 194.638648 80.913459 
L 194.74548 81.330287 
L 194.852312 81.237889 
L 195.065975 82.753841 
L 195.386471 83.036198 
L 195.493302 82.873586 
L 195.600134 84.087622 
L 195.706966 84.069222 
L 195.920629 84.93519 
L 196.027461 84.483404 
L 196.241124 85.319338 
L 196.56162 84.5834 
L 196.775283 85.101131 
L 196.882115 84.817796 
L 196.988947 84.993446 
L 197.095778 84.911612 
L 197.309442 86.3644 
L 197.416274 87.990484 
L 197.523105 87.815572 
L 197.843601 89.758826 
L 198.270928 87.568375 
L 198.377759 87.458163 
L 198.698255 88.271898 
L 198.805086 88.119241 
L 198.911918 88.378926 
L 199.01875 88.331846 
L 199.125582 87.393727 
L 199.232413 87.53316 
L 199.446077 88.811475 
L 199.65974 89.415495 
L 199.766572 89.169197 
L 199.980235 89.536383 
L 200.087067 89.388571 
L 200.193899 89.408395 
L 200.300731 89.961839 
L 200.407562 89.498653 
L 200.621226 90.559642 
L 200.728058 90.016004 
L 200.941721 91.800809 
L 201.048553 91.077983 
L 201.155385 91.147289 
L 201.262216 90.454394 
L 201.47588 92.585252 
L 201.689543 92.087598 
L 201.796375 91.099349 
L 201.903207 91.367649 
L 202.010039 90.689562 
L 202.11687 90.947835 
L 202.544197 92.99326 
L 202.864693 91.149409 
L 202.971524 90.893281 
L 203.185188 89.355674 
L 203.398851 89.723151 
L 203.505683 89.523483 
L 203.612515 89.859415 
L 203.719347 88.606074 
L 204.039842 89.713555 
L 204.253505 88.288357 
L 204.467169 88.086277 
L 204.680832 89.345686 
L 204.787664 89.873634 
L 204.894496 89.507147 
L 205.108159 90.664095 
L 205.214991 90.488321 
L 205.321823 90.891739 
L 205.535486 89.18755 
L 205.74915 90.110346 
L 205.855981 89.3911 
L 205.962813 89.822353 
L 206.176477 88.734796 
L 206.39014 89.16904 
L 206.496972 88.607412 
L 206.710635 89.001159 
L 206.817467 88.874218 
L 206.924299 89.232857 
L 207.244794 87.402252 
L 207.351626 88.431966 
L 207.458458 88.256524 
L 207.565289 88.446146 
L 207.672121 87.264793 
L 207.778953 87.384275 
L 207.885784 87.290026 
L 207.992616 87.416736 
L 208.20628 88.767509 
L 208.526775 90.148279 
L 209.060934 86.427361 
L 209.167765 86.508278 
L 209.595092 87.457846 
L 209.701924 88.230092 
L 209.808756 87.857495 
L 209.915588 88.222158 
L 210.449746 86.329502 
L 210.556578 86.604292 
L 210.770242 87.43056 
L 210.983905 88.533642 
L 211.090737 88.467208 
L 211.3044 89.187553 
L 211.411232 89.463811 
L 211.624895 90.403865 
L 211.731727 90.282691 
L 212.265886 92.970467 
L 212.372718 92.780157 
L 212.479549 93.567906 
L 212.586381 93.02399 
L 212.800045 93.856192 
L 212.906876 93.691947 
L 213.227372 91.399216 
L 213.868362 94.832983 
L 213.975194 94.518439 
L 214.295689 95.882586 
L 214.402521 95.606203 
L 214.509353 96.060605 
L 214.829848 94.397417 
L 215.043511 94.740333 
L 215.257175 93.700222 
L 215.364007 94.936455 
L 215.470838 94.70743 
L 215.57767 95.455012 
L 215.684502 95.395099 
L 215.898165 96.93628 
L 216.004997 96.938689 
L 216.111829 95.811713 
L 216.21866 95.871583 
L 216.325492 95.606135 
L 216.645987 96.841802 
L 216.752819 96.65907 
L 216.859651 97.144715 
L 217.180146 94.929969 
L 217.286978 95.670156 
L 217.39381 95.429532 
L 217.500641 94.173199 
L 217.607473 94.311962 
L 217.714305 93.849999 
L 217.927968 95.098856 
L 218.0348 95.00832 
L 218.141632 94.67263 
L 218.248464 95.066547 
L 218.568959 97.370088 
L 218.675791 97.561318 
L 218.889454 99.291991 
L 218.996286 98.682171 
L 219.103118 98.897493 
L 219.209949 99.578284 
L 219.530444 97.441638 
L 219.744108 98.624731 
L 219.85094 98.696457 
L 220.171435 100.681931 
L 220.49193 102.778461 
L 220.598762 102.752375 
L 220.705594 103.202126 
L 220.812425 102.619121 
L 221.132921 103.818338 
L 221.239752 104.36188 
L 221.453416 103.777936 
L 221.560248 104.448938 
L 221.773911 103.637909 
L 221.880743 103.922081 
L 222.201238 106.307486 
L 222.414902 104.529532 
L 222.521733 104.578482 
L 222.842229 106.440705 
L 222.94906 106.015353 
L 223.162724 106.552642 
L 223.483219 108.03362 
L 223.590051 107.059078 
L 223.696882 107.578471 
L 223.910546 109.081147 
L 224.017378 109.329121 
L 224.337873 107.879077 
L 224.444705 107.815383 
L 224.7652 104.592075 
L 224.872032 104.561529 
L 224.978863 104.263616 
L 225.192527 104.257616 
L 225.726686 106.025447 
L 225.833517 106.131608 
L 225.940349 105.794367 
L 226.154013 104.755576 
L 226.367676 105.015353 
L 226.474508 104.796884 
L 226.688171 106.081426 
L 226.901835 106.386805 
L 227.115498 105.469393 
L 227.542825 102.761137 
L 227.649657 102.602828 
L 227.86332 104.276137 
L 227.970152 104.479286 
L 228.397479 102.414294 
L 228.504311 102.335555 
L 228.717974 103.36642 
L 228.824806 102.941706 
L 228.931638 103.30199 
L 229.03847 103.234573 
L 229.999955 107.837914 
L 230.106787 107.677496 
L 230.213619 107.767525 
L 230.534114 107.130908 
L 230.640946 107.810468 
L 230.747778 107.744628 
L 230.961441 108.859535 
L 231.281936 107.156583 
L 231.388768 107.217666 
L 231.4956 107.042386 
L 231.602431 107.45052 
L 231.709263 106.886594 
L 232.13659 108.14507 
L 232.350254 106.699715 
L 232.991244 110.055508 
L 233.098076 109.561202 
L 233.204908 111.062102 
L 233.418571 110.432456 
L 233.632235 111.91396 
L 233.845898 110.954199 
L 234.166393 109.647797 
L 234.273225 108.865976 
L 234.700552 111.815323 
L 234.807384 111.265843 
L 235.021047 108.882509 
L 235.234711 109.49248 
L 235.448374 111.780133 
L 235.555206 110.806879 
L 235.768869 112.687827 
L 235.875701 112.101214 
L 236.089365 111.612979 
L 236.196196 110.960704 
L 236.303028 111.011789 
L 236.40986 111.883363 
L 236.516692 111.514744 
L 236.623523 111.7132 
L 236.837187 113.334176 
L 236.944019 113.193771 
L 237.05085 113.888956 
L 237.157682 113.854227 
L 237.264514 114.026473 
L 237.371346 113.562424 
L 237.478177 114.036272 
L 237.585009 113.011594 
L 237.691841 113.051063 
L 237.905504 113.535051 
L 238.012336 113.172424 
L 238.119168 113.244824 
L 238.439663 115.585476 
L 238.653327 114.60323 
L 238.760158 114.620945 
L 238.86699 113.901476 
L 238.973822 114.142888 
L 239.080653 112.759098 
L 239.294317 112.843823 
L 239.401149 112.711635 
L 239.50798 112.78841 
L 239.721644 110.953728 
L 239.828476 111.078268 
L 239.935307 110.489445 
L 240.042139 110.829354 
L 240.255803 110.00601 
L 240.469466 111.501725 
L 240.576298 111.640913 
L 240.68313 112.397623 
L 240.789961 112.116829 
L 240.896793 112.192243 
L 241.003625 112.419753 
L 241.217288 113.666921 
L 241.32412 113.702893 
L 241.537784 112.057346 
L 241.644615 112.840267 
L 241.858279 112.368637 
L 242.071942 114.020799 
L 242.285606 113.607687 
L 242.392438 114.082669 
L 242.606101 112.949171 
L 242.819765 113.698853 
L 242.926596 113.363349 
L 243.247091 114.922365 
L 243.353923 114.691639 
L 243.460755 114.848183 
L 243.567587 114.582719 
L 243.78125 113.862803 
L 243.994914 113.361458 
L 244.101745 114.340851 
L 244.208577 113.817145 
L 244.315409 114.17907 
L 244.422241 113.782057 
L 244.742736 114.961067 
L 244.956399 113.953476 
L 245.170063 113.624771 
L 245.276895 114.815918 
L 245.704222 112.336802 
L 245.811053 113.47041 
L 245.917885 113.268841 
L 246.024717 113.570926 
L 246.131549 112.815732 
L 246.23838 113.216215 
L 246.558876 111.889982 
L 246.772539 112.70549 
L 246.879371 112.96458 
L 246.986202 113.621658 
L 247.093034 113.125799 
L 247.306698 114.134538 
L 247.413529 114.108565 
L 247.520361 113.29387 
L 247.734025 113.828294 
L 248.05452 111.606486 
L 248.268183 112.91758 
L 248.481847 112.50238 
L 248.588679 111.554709 
L 248.69551 111.953837 
L 248.802342 111.681652 
L 248.909174 112.315134 
L 249.122837 111.504333 
L 249.336501 110.619249 
L 249.443333 110.311683 
L 249.550164 111.183163 
L 249.763828 109.599141 
L 249.87066 110.217816 
L 250.084323 109.383999 
L 250.297987 110.098027 
L 250.404818 110.047046 
L 250.51165 110.304951 
L 250.618482 109.933601 
L 250.725314 111.011762 
L 250.832145 110.789738 
L 250.938977 110.261921 
L 251.579967 114.704345 
L 251.686799 114.646542 
L 251.900463 112.309189 
L 252.007294 112.067528 
L 252.220958 110.43524 
L 252.434621 108.610505 
L 252.541453 108.290909 
L 252.648285 108.489499 
L 252.96878 109.749394 
L 253.182444 109.200487 
L 253.396107 107.101586 
L 253.609771 107.466536 
L 253.716602 106.602416 
L 253.930266 107.027716 
L 254.037098 106.951509 
L 254.143929 107.213483 
L 254.250761 107.025509 
L 254.464425 107.049352 
L 254.678088 106.172032 
L 254.78492 106.429352 
L 254.998583 106.065757 
L 255.212247 106.105307 
L 255.42591 107.023764 
L 255.532742 107.206921 
L 255.746405 108.816116 
L 255.853237 109.069361 
L 256.066901 108.912583 
L 256.280564 107.145886 
L 256.387396 107.146658 
L 256.494228 106.971901 
L 256.707891 107.183641 
L 256.814723 108.019867 
L 256.921555 107.643084 
L 257.028386 107.745189 
L 257.135218 108.002044 
L 257.24205 107.73019 
L 257.348882 107.809527 
L 257.562545 106.859234 
L 257.669377 107.499212 
L 257.776209 107.463939 
L 257.88304 106.122804 
L 257.989872 106.759817 
L 258.096704 106.368095 
L 258.203536 106.910709 
L 258.417199 106.578294 
L 258.844526 108.461363 
L 259.058189 108.776693 
L 259.271853 109.832795 
L 259.912843 105.309363 
L 260.019675 105.591765 
L 260.126507 106.702428 
L 260.447002 105.408997 
L 260.553834 105.395688 
L 260.767497 104.574611 
L 260.981161 104.60962 
L 261.408488 102.915176 
L 261.51532 103.935895 
L 261.622151 103.718361 
L 261.835815 104.27472 
L 261.942647 103.785309 
L 262.049478 104.180378 
L 262.15631 105.40567 
L 262.904132 101.173215 
L 263.010964 101.506708 
L 263.117796 101.374775 
L 263.224627 100.60216 
L 263.331459 101.358749 
L 263.438291 100.371832 
L 263.545123 101.676271 
L 263.758786 101.11536 
L 263.865618 100.450393 
L 263.97245 100.610778 
L 264.079281 100.296328 
L 264.399777 98.040126 
L 264.506608 98.432643 
L 264.720272 96.946856 
L 264.933935 98.549474 
L 265.040767 98.20086 
L 265.147599 98.360757 
L 265.468094 96.698248 
L 265.574926 96.693897 
L 265.681758 96.486969 
L 265.895421 97.67831 
L 266.109085 96.517004 
L 266.215916 96.674913 
L 266.42958 96.049957 
L 266.643243 94.454408 
L 266.750075 94.85468 
L 266.856907 94.512432 
L 267.07057 95.980113 
L 267.284234 94.455017 
L 267.497897 94.353064 
L 267.604729 95.176297 
L 267.711561 94.594654 
L 267.925224 92.391641 
L 268.032056 92.155085 
L 268.138888 92.788053 
L 268.352551 94.15768 
L 268.459383 93.730346 
L 268.779878 95.986578 
L 268.88671 96.00148 
L 268.993542 96.13758 
L 269.100373 95.518867 
L 269.207205 96.127999 
L 269.634532 94.514766 
L 269.741364 95.461228 
L 270.168691 93.584224 
L 270.382354 92.3731 
L 270.489186 92.430373 
L 270.596018 92.289943 
L 270.702849 93.398723 
L 270.809681 92.722061 
L 270.916513 93.008344 
L 271.023345 94.153471 
L 271.130176 93.97588 
L 271.34384 95.052565 
L 271.450672 95.002659 
L 271.664335 95.789275 
L 271.771167 94.663321 
L 272.625821 99.401087 
L 272.839484 98.78451 
L 272.946316 98.782672 
L 273.053148 98.208636 
L 273.373643 95.186157 
L 273.80097 93.596199 
L 274.121465 94.137342 
L 274.335129 93.100864 
L 274.548792 93.814214 
L 274.762456 93.360841 
L 274.869287 93.278869 
L 275.082951 93.82474 
L 275.296614 95.884933 
L 275.510278 96.960152 
L 275.61711 96.772721 
L 275.830773 97.375835 
L 276.2581 95.997861 
L 276.364932 95.856273 
L 276.471764 95.076665 
L 276.578595 95.265012 
L 276.685427 94.635032 
L 276.792259 93.19704 
L 276.899091 93.404023 
L 277.326418 91.838758 
L 277.646913 89.772751 
L 277.860576 89.904403 
L 277.967408 90.616561 
L 278.07424 90.247955 
L 278.287903 91.171184 
L 278.394735 91.670811 
L 278.608398 91.331725 
L 278.822062 90.133447 
L 278.928894 91.132979 
L 279.463052 89.877452 
L 279.569884 90.727558 
L 279.783548 90.153448 
L 279.890379 90.292348 
L 279.997211 91.562846 
L 280.317706 90.006899 
L 280.424538 89.497255 
L 280.53137 90.19733 
L 280.638202 89.66397 
L 280.745033 89.971436 
L 280.958697 88.596617 
L 281.065529 88.638313 
L 281.279192 88.978495 
L 281.386024 88.680223 
L 281.492856 88.896657 
L 281.706519 90.241754 
L 282.027014 88.747151 
L 282.133846 89.13213 
L 282.347509 87.862207 
L 282.454341 87.911191 
L 282.561173 88.088264 
L 282.668005 87.90119 
L 282.774836 87.398647 
L 282.881668 87.634104 
L 282.9885 86.767284 
L 283.095332 87.306897 
L 283.415827 85.543015 
L 283.522659 85.413142 
L 283.736322 86.020355 
L 283.949986 85.174341 
L 284.056817 85.493446 
L 284.163649 84.6828 
L 284.270481 85.764228 
L 284.377313 85.230388 
L 284.697808 82.527778 
L 284.80464 82.214517 
L 285.125135 80.129911 
L 285.231967 80.217487 
L 285.44563 79.980641 
L 285.552462 80.026253 
L 285.766125 77.919597 
L 285.872957 78.056858 
L 286.086621 77.959988 
L 286.300284 78.444377 
L 286.513947 77.21533 
L 286.620779 77.117732 
L 286.727611 76.489548 
L 286.834443 76.755204 
L 286.941274 76.666681 
L 287.048106 75.614957 
L 287.154938 76.008014 
L 287.368601 74.070502 
L 287.475433 74.500736 
L 287.582265 74.052888 
L 287.795928 74.913439 
L 287.90276 74.821209 
L 288.009592 74.656171 
L 288.116424 73.436389 
L 288.223255 73.456442 
L 288.650582 70.636228 
L 288.757414 70.141953 
L 288.971078 71.197156 
L 289.184741 70.952311 
L 289.398405 69.252307 
L 289.505236 69.022863 
L 289.7189 69.720004 
L 289.825732 69.744264 
L 289.932563 69.210103 
L 290.146227 69.560747 
L 290.35989 69.500126 
L 290.573554 70.828182 
L 290.680385 70.545039 
L 290.787217 71.202348 
L 291.428208 68.338529 
L 291.535039 68.787092 
L 291.641871 68.435904 
L 291.748703 68.891222 
L 291.962366 70.352811 
L 292.069198 71.22683 
L 292.17603 70.548593 
L 292.282862 70.817445 
L 292.389693 70.780746 
L 292.496525 71.148667 
L 292.603357 72.046336 
L 292.710189 71.742944 
L 292.81702 72.21925 
L 292.923852 72.076069 
L 293.137516 72.905833 
L 293.351179 73.192265 
L 293.458011 73.195437 
L 293.564843 72.484957 
L 293.778506 73.17258 
L 293.885338 72.972502 
L 294.205833 73.700362 
L 294.312665 72.830002 
L 294.419496 73.06209 
L 294.526328 72.715812 
L 294.63316 73.881732 
L 294.846823 72.551937 
L 295.060487 73.443378 
L 295.167319 72.828143 
L 295.27415 73.218874 
L 295.487814 71.52535 
L 295.594646 71.543838 
L 295.701477 71.267317 
L 295.915141 72.942649 
L 296.021973 73.150244 
L 296.342468 75.831406 
L 296.556131 76.124874 
L 296.662963 75.961524 
L 296.876627 77.330547 
L 296.983458 76.924718 
L 297.09029 76.865498 
L 297.197122 76.103089 
L 297.410785 77.569724 
L 297.517617 77.214394 
L 297.624449 76.393321 
L 297.731281 77.10123 
L 297.838112 76.400991 
L 297.944944 76.637912 
L 298.158607 76.13856 
L 298.372271 76.571025 
L 298.585934 75.456189 
L 298.799598 76.385348 
L 298.90643 76.124217 
L 299.120093 75.077821 
L 299.226925 75.365872 
L 299.654252 71.514846 
L 299.867915 70.729119 
L 299.974747 70.94796 
L 300.188411 70.027728 
L 300.402074 71.173555 
L 300.829401 68.194445 
L 301.149896 70.585086 
L 301.256728 70.696387 
L 301.36356 70.50874 
L 301.470392 70.803654 
L 301.684055 68.974683 
L 301.790887 69.162464 
L 301.897718 69.758236 
L 302.111382 69.000995 
L 302.218214 69.085727 
L 302.431877 69.804822 
L 302.538709 69.666228 
L 302.752372 69.054055 
L 302.859204 68.721789 
L 303.179699 66.788436 
L 303.393363 66.494258 
L 303.500195 67.619781 
L 303.607026 67.112217 
L 303.82069 67.895441 
L 303.927522 67.94673 
L 304.141185 66.236233 
L 304.354849 67.734767 
L 304.46168 67.592604 
L 304.782176 68.615506 
L 304.889007 68.34195 
L 304.995839 67.684088 
L 305.209503 69.409604 
L 305.316334 69.34918 
L 305.423166 69.747584 
L 305.529998 69.474214 
L 305.63683 68.889761 
L 305.957325 69.380761 
L 306.170988 67.782625 
L 306.27782 68.320068 
L 306.491483 67.658648 
L 306.811979 69.131608 
L 307.132474 67.382312 
L 307.239306 67.628334 
L 307.346137 66.604069 
L 307.452969 67.357091 
L 307.666633 66.13953 
L 307.987128 67.520535 
L 308.09396 67.316753 
L 308.307623 67.773331 
L 308.414455 67.181425 
L 308.521287 65.946846 
L 308.628118 66.280654 
L 308.73495 67.112686 
L 308.841782 66.656686 
L 308.948614 66.791123 
L 309.055445 65.89992 
L 309.162277 65.975379 
L 309.269109 66.864785 
L 309.375941 66.50101 
L 309.482772 67.294447 
L 309.589604 66.6807 
L 309.696436 67.223625 
L 309.910099 65.660571 
L 310.016931 66.385259 
L 310.123763 66.298243 
L 310.230594 64.735759 
L 310.337426 65.519351 
L 310.444258 65.379649 
L 310.657921 64.718599 
L 310.764753 65.397585 
L 310.871585 65.10377 
L 311.085248 63.723709 
L 311.19208 64.613991 
L 311.512575 63.93437 
L 311.726239 62.841948 
L 311.833071 63.044945 
L 311.939902 64.407199 
L 312.260398 62.861914 
L 312.474061 63.44638 
L 312.687725 61.863609 
L 312.794556 62.852791 
L 312.901388 61.932624 
L 313.00822 62.017388 
L 313.435547 61.124021 
L 313.542379 61.294821 
L 313.64921 61.7028 
L 313.756042 60.59442 
L 313.862874 60.993308 
L 314.076537 60.840618 
L 314.183369 60.733743 
L 314.290201 61.356395 
L 314.503864 60.576297 
L 314.610696 61.048438 
L 315.038023 60.095575 
L 315.144855 60.454938 
L 315.358518 59.59349 
L 315.572182 59.850857 
L 315.785845 61.368387 
L 315.999509 59.999939 
L 316.10634 60.254355 
L 316.213172 60.340934 
L 316.640499 57.316525 
L 316.747331 57.83826 
L 316.854163 57.802807 
L 317.067826 56.354668 
L 317.174658 56.763808 
L 317.388321 55.798045 
L 317.495153 56.043664 
L 317.708816 55.348141 
L 318.029312 53.586598 
L 318.242975 54.64998 
L 318.349807 54.393233 
L 318.456639 54.518338 
L 318.777134 53.348011 
L 318.883966 53.256056 
L 319.204461 50.239094 
L 319.311293 49.802123 
L 319.418124 48.55125 
L 319.524956 48.594312 
L 319.631788 48.338838 
L 319.845451 46.58784 
L 319.952283 46.055837 
L 320.165947 46.531646 
L 320.272778 47.15744 
L 320.37961 47.028522 
L 320.700105 49.099253 
L 320.806937 50.029146 
L 320.913769 49.871859 
L 321.020601 50.164366 
L 321.127432 49.749975 
L 321.447928 52.212732 
L 321.554759 51.837731 
L 321.661591 52.029703 
L 321.768423 51.610863 
L 321.875254 51.844511 
L 321.982086 51.795138 
L 322.088918 52.490698 
L 322.19575 51.250753 
L 322.302581 51.72494 
L 322.409413 51.096022 
L 322.516245 51.171069 
L 322.623077 50.870226 
L 322.83674 51.221821 
L 322.943572 50.911938 
L 323.050404 51.435136 
L 323.157235 50.788918 
L 323.264067 51.864567 
L 323.370899 51.572376 
L 323.477731 51.640167 
L 323.691394 50.099357 
L 323.798226 50.373021 
L 323.905058 50.268053 
L 324.011889 49.702337 
L 324.225553 50.406277 
L 324.439216 49.510478 
L 324.546048 48.18813 
L 324.65288 48.264741 
L 324.866543 47.894449 
L 324.973375 47.636256 
L 325.080207 46.415905 
L 325.187039 47.126135 
L 325.29387 46.455672 
L 325.400702 47.521301 
L 325.507534 47.014053 
L 325.721197 45.857421 
L 325.828029 45.350266 
L 326.041692 46.067298 
L 326.255356 44.443636 
L 326.362188 45.515656 
L 326.575851 45.07448 
L 326.682683 45.239516 
L 327.11001 46.599145 
L 327.216842 46.874856 
L 327.323673 46.433995 
L 327.430505 46.949609 
L 327.537337 48.027611 
L 327.644169 47.665428 
L 327.857832 49.490283 
L 328.178327 51.464452 
L 328.391991 49.643553 
L 328.605654 49.691465 
L 328.712486 50.307579 
L 328.819318 49.704005 
L 328.92615 50.227054 
L 329.353476 47.515778 
L 329.460308 47.185142 
L 329.56714 47.285001 
L 329.780803 48.37817 
L 329.887635 47.3956 
L 329.994467 47.555904 
L 330.20813 47.349895 
L 330.314962 47.320876 
L 330.421794 47.653999 
L 330.528626 48.589077 
L 330.635457 48.428594 
L 330.742289 49.541308 
L 330.955953 48.630788 
L 331.062784 48.467539 
L 331.169616 48.551552 
L 331.38328 50.420899 
L 331.490111 50.530867 
L 331.596943 50.342241 
L 331.703775 51.164066 
L 332.02427 49.348706 
L 332.237934 51.47925 
L 332.451597 50.712669 
L 332.665261 49.697685 
L 332.772092 50.207664 
L 332.878924 49.722072 
L 332.985756 49.752631 
L 333.413083 52.477883 
L 333.519914 52.924669 
L 333.626746 52.648506 
L 333.733578 53.473582 
L 333.84041 52.907496 
L 333.947241 54.328554 
L 334.054073 53.203425 
L 334.160905 53.93508 
L 334.267737 53.223092 
L 334.4814 53.725286 
L 334.801895 52.438107 
L 334.908727 52.76394 
L 335.122391 54.572418 
L 335.442886 56.294605 
L 335.549718 56.196221 
L 335.656549 56.41304 
L 335.763381 56.327402 
L 335.870213 55.410138 
L 335.977045 55.867516 
L 336.083876 54.692923 
L 336.190708 54.926523 
L 336.29754 54.434885 
L 336.404372 54.775078 
L 336.618035 53.757093 
L 336.93853 53.281563 
L 337.045362 53.690021 
L 337.152194 53.388222 
L 337.365857 52.590091 
L 337.472689 53.823443 
L 337.579521 53.733748 
L 337.686352 53.413219 
L 337.900016 54.408277 
L 338.113679 53.568981 
L 338.220511 53.829959 
L 338.434175 54.523457 
L 338.647838 53.432001 
L 338.861502 54.227895 
L 339.075165 52.875027 
L 339.181997 52.977698 
L 339.502492 54.405255 
L 339.609324 54.010587 
L 339.822987 54.160697 
L 340.036651 53.176646 
L 340.463978 54.082944 
L 340.57081 53.33697 
L 340.677641 53.402545 
L 340.998137 52.572145 
L 341.425463 54.005182 
L 341.745959 52.242922 
L 341.85279 52.45615 
L 342.066454 51.680514 
L 342.173286 52.054128 
L 342.386949 51.134573 
L 342.600613 52.500449 
L 342.707444 52.312627 
L 343.02794 50.887899 
L 343.134771 50.880911 
L 343.241603 50.532524 
L 343.455267 50.836941 
L 343.562098 50.741363 
L 343.66893 51.067986 
L 343.775762 50.805274 
L 343.882594 49.88606 
L 344.096257 50.324122 
L 344.309921 51.197668 
L 344.416752 50.672508 
L 344.737248 52.049715 
L 345.057743 51.039038 
L 345.164574 50.689636 
L 345.698733 52.215361 
L 345.805565 51.335885 
L 346.019228 52.383614 
L 346.12606 52.554747 
L 346.446555 50.327328 
L 346.553387 50.70173 
L 346.660219 50.022982 
L 346.767051 50.263781 
L 346.873882 49.840619 
L 346.980714 50.581718 
L 347.194378 49.693954 
L 347.408041 50.896557 
L 347.514873 50.266987 
L 347.621705 51.09081 
L 347.835368 50.524514 
L 348.155863 53.311967 
L 348.262695 52.818085 
L 348.476359 53.467078 
L 348.58319 52.409576 
L 348.690022 53.154773 
L 348.796854 52.055558 
L 349.010517 52.987234 
L 349.117349 52.118338 
L 349.224181 52.785701 
L 349.331012 52.355597 
L 349.437844 53.029471 
L 349.544676 52.208241 
L 349.651508 53.148071 
L 349.865171 52.29144 
L 350.185666 53.421555 
L 350.39933 52.362358 
L 350.506162 53.854793 
L 350.612993 52.816861 
L 350.719825 53.276702 
L 350.826657 53.200463 
L 350.933489 53.632719 
L 351.04032 53.167313 
L 351.147152 53.654243 
L 351.253984 53.471041 
L 351.360816 53.831799 
L 351.467647 53.689238 
L 351.681311 53.966563 
L 352.001806 53.103998 
L 352.21547 54.300563 
L 352.322301 54.136772 
L 352.642797 56.910628 
L 352.85646 56.087251 
L 352.963292 55.304484 
L 353.176955 56.920732 
L 353.283787 55.728106 
L 353.390619 55.847745 
L 353.49745 55.583996 
L 353.711114 55.95534 
L 353.817946 55.554165 
L 353.924777 55.598095 
L 354.245273 56.882082 
L 354.352104 56.470108 
L 354.6726 57.565148 
L 354.779431 57.565712 
L 354.993095 58.537087 
L 355.527254 56.758145 
L 355.847749 59.233847 
L 355.954581 58.729357 
L 356.168244 58.986956 
L 356.488739 60.888384 
L 356.595571 61.004008 
L 356.702403 61.381156 
L 356.809235 60.685776 
L 357.12973 62.224869 
L 357.343393 62.894118 
L 357.450225 63.034494 
L 357.557057 62.839739 
L 357.663888 62.246818 
L 357.77072 63.327455 
L 357.877552 63.014041 
L 357.984384 63.248924 
L 358.091215 62.733013 
L 358.411711 64.974778 
L 358.518542 64.904957 
L 358.839038 62.375174 
L 358.945869 62.500949 
L 359.052701 61.759595 
L 359.266365 62.729539 
L 359.373196 63.615132 
L 359.800523 61.388135 
L 359.907355 61.659185 
L 360.121019 60.403712 
L 360.22785 60.42398 
L 360.334682 60.055085 
L 360.441514 60.627139 
L 360.548346 60.246954 
L 360.655177 61.327319 
L 360.762009 60.286456 
L 360.868841 60.737915 
L 360.975672 60.689187 
L 361.189336 61.962293 
L 361.616663 64.484414 
L 361.937158 67.086548 
L 362.04399 67.182576 
L 362.150822 66.744649 
L 362.257653 66.963513 
L 362.364485 66.61504 
L 362.471317 66.646878 
L 362.68498 65.880408 
L 362.791812 65.948944 
L 362.898644 65.450628 
L 363.432803 67.327719 
L 363.539634 67.487615 
L 363.753298 68.347481 
L 363.86013 68.803609 
L 363.966961 68.771975 
L 364.073793 69.687369 
L 364.180625 69.049511 
L 364.287457 69.416014 
L 364.50112 68.55831 
L 365.035279 66.120573 
L 365.14211 67.340422 
L 365.248942 67.073603 
L 365.355774 67.285246 
L 365.462606 66.278494 
L 365.569437 67.498224 
L 365.676269 67.141182 
L 365.783101 68.134895 
L 365.889933 68.115373 
L 365.996764 67.856558 
L 366.103596 67.118402 
L 366.210428 68.199443 
L 366.31726 68.057579 
L 366.637755 68.845279 
L 367.065082 67.254717 
L 367.171914 66.958298 
L 367.385577 66.157449 
L 367.492409 65.805422 
L 367.599241 66.311443 
L 367.706072 67.575857 
L 367.812904 66.901557 
L 367.919736 67.11845 
L 368.133399 66.624948 
L 368.347063 66.497185 
L 368.453895 66.578697 
L 368.667558 67.667328 
L 368.881221 66.826045 
L 369.094885 67.671086 
L 369.308548 66.590862 
L 369.522212 65.433479 
L 369.735875 66.354183 
L 369.949539 66.757133 
L 370.056371 66.300122 
L 370.163202 66.794216 
L 370.270034 67.87478 
L 370.376866 67.045741 
L 370.483698 67.162828 
L 370.590529 66.642091 
L 370.697361 67.060131 
L 371.017856 64.851352 
L 371.124688 64.628985 
L 371.23152 64.699402 
L 371.445183 64.4044 
L 371.658847 63.146124 
L 371.87251 62.264351 
L 372.086174 61.628374 
L 372.193006 61.836642 
L 372.406669 62.472584 
L 372.513501 62.70028 
L 372.620332 62.650371 
L 372.727164 62.200165 
L 372.833996 62.50159 
L 373.047659 63.518129 
L 373.261323 63.171423 
L 373.368155 63.022634 
L 373.581818 64.059031 
L 373.581818 64.059031 
" style="fill:none;stroke:#1f77b4;stroke-linecap:square;stroke-width:1.5;"/>
   </g>
   <g id="patch_3">
    <path d="M 54 252 
L 54 34.56 
" style="fill:none;stroke:#000000;stroke-linecap:square;stroke-linejoin:miter;stroke-width:0.8;"/>
   </g>
   <g id="patch_4">
    <path d="M 388.8 252 
L 388.8 34.56 
" style="fill:none;stroke:#000000;stroke-linecap:square;stroke-linejoin:miter;stroke-width:0.8;"/>
   </g>
   <g id="patch_5">
    <path d="M 54 252 
L 388.8 252 
" style="fill:none;stroke:#000000;stroke-linecap:square;stroke-linejoin:miter;stroke-width:0.8;"/>
   </g>
   <g id="patch_6">
    <path d="M 54 34.56 
L 388.8 34.56 
" style="fill:none;stroke:#000000;stroke-linecap:square;stroke-linejoin:miter;stroke-width:0.8;"/>
   </g>
  </g>
 </g>
 <defs>
  <clipPath id="pf934dad5ce">
   <rect height="217.44" width="334.8" x="54" y="34.56"/>
  </clipPath>
 </defs>
</svg>
