<?xml version="1.0" encoding="utf-8" standalone="no"?>
<!DOCTYPE svg PUBLIC "-//W3C//DTD SVG 1.1//EN"
  "http://www.w3.org/Graphics/SVG/1.1/DTD/svg11.dtd">
<!-- Created with matplotlib (https://matplotlib.org/) -->
<svg height="288pt" version="1.1" viewBox="0 0 432 288" width="432pt" xmlns="http://www.w3.org/2000/svg" xmlns:xlink="http://www.w3.org/1999/xlink">
 <defs>
  <style type="text/css">
*{stroke-linecap:butt;stroke-linejoin:round;}
  </style>
 </defs>
 <g id="figure_1">
  <g id="patch_1">
   <path d="M 0 288 
L 432 288 
L 432 0 
L 0 0 
z
" style="fill:#ffffff;"/>
  </g>
  <g id="axes_1">
   <g id="patch_2">
    <path d="M 54 252 
L 388.8 252 
L 388.8 34.56 
L 54 34.56 
z
" style="fill:#ffffff;"/>
   </g>
   <g id="matplotlib.axis_1">
    <g id="xtick_1">
     <g id="line2d_1">
      <defs>
       <path d="M 0 0 
L 0 3.5 
" id="mec6296b40c" style="stroke:#000000;stroke-width:0.8;"/>
      </defs>
      <g>
       <use style="stroke:#000000;stroke-width:0.8;" x="69.218182" xlink:href="#mec6296b40c" y="252"/>
      </g>
     </g>
     <g id="text_1">
      <!-- 0 -->
      <defs>
       <path d="M 31.78125 66.40625 
Q 24.171875 66.40625 20.328125 58.90625 
Q 16.5 51.421875 16.5 36.375 
Q 16.5 21.390625 20.328125 13.890625 
Q 24.171875 6.390625 31.78125 6.390625 
Q 39.453125 6.390625 43.28125 13.890625 
Q 47.125 21.390625 47.125 36.375 
Q 47.125 51.421875 43.28125 58.90625 
Q 39.453125 66.40625 31.78125 66.40625 
z
M 31.78125 74.21875 
Q 44.046875 74.21875 50.515625 64.515625 
Q 56.984375 54.828125 56.984375 36.375 
Q 56.984375 17.96875 50.515625 8.265625 
Q 44.046875 -1.421875 31.78125 -1.421875 
Q 19.53125 -1.421875 13.0625 8.265625 
Q 6.59375 17.96875 6.59375 36.375 
Q 6.59375 54.828125 13.0625 64.515625 
Q 19.53125 74.21875 31.78125 74.21875 
z
" id="DejaVuSans-48"/>
      </defs>
      <g transform="translate(66.036932 266.598437)scale(0.1 -0.1)">
       <use xlink:href="#DejaVuSans-48"/>
      </g>
     </g>
    </g>
    <g id="xtick_2">
     <g id="line2d_2">
      <g>
       <use style="stroke:#000000;stroke-width:0.8;" x="115.899721" xlink:href="#mec6296b40c" y="252"/>
      </g>
     </g>
     <g id="text_2">
      <!-- 500 -->
      <defs>
       <path d="M 10.796875 72.90625 
L 49.515625 72.90625 
L 49.515625 64.59375 
L 19.828125 64.59375 
L 19.828125 46.734375 
Q 21.96875 47.46875 24.109375 47.828125 
Q 26.265625 48.1875 28.421875 48.1875 
Q 40.625 48.1875 47.75 41.5 
Q 54.890625 34.8125 54.890625 23.390625 
Q 54.890625 11.625 47.5625 5.09375 
Q 40.234375 -1.421875 26.90625 -1.421875 
Q 22.3125 -1.421875 17.546875 -0.640625 
Q 12.796875 0.140625 7.71875 1.703125 
L 7.71875 11.625 
Q 12.109375 9.234375 16.796875 8.0625 
Q 21.484375 6.890625 26.703125 6.890625 
Q 35.15625 6.890625 40.078125 11.328125 
Q 45.015625 15.765625 45.015625 23.390625 
Q 45.015625 31 40.078125 35.4375 
Q 35.15625 39.890625 26.703125 39.890625 
Q 22.75 39.890625 18.8125 39.015625 
Q 14.890625 38.140625 10.796875 36.28125 
z
" id="DejaVuSans-53"/>
      </defs>
      <g transform="translate(106.355971 266.598437)scale(0.1 -0.1)">
       <use xlink:href="#DejaVuSans-53"/>
       <use x="63.623047" xlink:href="#DejaVuSans-48"/>
       <use x="127.246094" xlink:href="#DejaVuSans-48"/>
      </g>
     </g>
    </g>
    <g id="xtick_3">
     <g id="line2d_3">
      <g>
       <use style="stroke:#000000;stroke-width:0.8;" x="162.58126" xlink:href="#mec6296b40c" y="252"/>
      </g>
     </g>
     <g id="text_3">
      <!-- 1000 -->
      <defs>
       <path d="M 12.40625 8.296875 
L 28.515625 8.296875 
L 28.515625 63.921875 
L 10.984375 60.40625 
L 10.984375 69.390625 
L 28.421875 72.90625 
L 38.28125 72.90625 
L 38.28125 8.296875 
L 54.390625 8.296875 
L 54.390625 0 
L 12.40625 0 
z
" id="DejaVuSans-49"/>
      </defs>
      <g transform="translate(149.85626 266.598437)scale(0.1 -0.1)">
       <use xlink:href="#DejaVuSans-49"/>
       <use x="63.623047" xlink:href="#DejaVuSans-48"/>
       <use x="127.246094" xlink:href="#DejaVuSans-48"/>
       <use x="190.869141" xlink:href="#DejaVuSans-48"/>
      </g>
     </g>
    </g>
    <g id="xtick_4">
     <g id="line2d_4">
      <g>
       <use style="stroke:#000000;stroke-width:0.8;" x="209.2628" xlink:href="#mec6296b40c" y="252"/>
      </g>
     </g>
     <g id="text_4">
      <!-- 1500 -->
      <g transform="translate(196.5378 266.598437)scale(0.1 -0.1)">
       <use xlink:href="#DejaVuSans-49"/>
       <use x="63.623047" xlink:href="#DejaVuSans-53"/>
       <use x="127.246094" xlink:href="#DejaVuSans-48"/>
       <use x="190.869141" xlink:href="#DejaVuSans-48"/>
      </g>
     </g>
    </g>
    <g id="xtick_5">
     <g id="line2d_5">
      <g>
       <use style="stroke:#000000;stroke-width:0.8;" x="255.944339" xlink:href="#mec6296b40c" y="252"/>
      </g>
     </g>
     <g id="text_5">
      <!-- 2000 -->
      <defs>
       <path d="M 19.1875 8.296875 
L 53.609375 8.296875 
L 53.609375 0 
L 7.328125 0 
L 7.328125 8.296875 
Q 12.9375 14.109375 22.625 23.890625 
Q 32.328125 33.6875 34.8125 36.53125 
Q 39.546875 41.84375 41.421875 45.53125 
Q 43.3125 49.21875 43.3125 52.78125 
Q 43.3125 58.59375 39.234375 62.25 
Q 35.15625 65.921875 28.609375 65.921875 
Q 23.96875 65.921875 18.8125 64.3125 
Q 13.671875 62.703125 7.8125 59.421875 
L 7.8125 69.390625 
Q 13.765625 71.78125 18.9375 73 
Q 24.125 74.21875 28.421875 74.21875 
Q 39.75 74.21875 46.484375 68.546875 
Q 53.21875 62.890625 53.21875 53.421875 
Q 53.21875 48.921875 51.53125 44.890625 
Q 49.859375 40.875 45.40625 35.40625 
Q 44.1875 33.984375 37.640625 27.21875 
Q 31.109375 20.453125 19.1875 8.296875 
z
" id="DejaVuSans-50"/>
      </defs>
      <g transform="translate(243.219339 266.598437)scale(0.1 -0.1)">
       <use xlink:href="#DejaVuSans-50"/>
       <use x="63.623047" xlink:href="#DejaVuSans-48"/>
       <use x="127.246094" xlink:href="#DejaVuSans-48"/>
       <use x="190.869141" xlink:href="#DejaVuSans-48"/>
      </g>
     </g>
    </g>
    <g id="xtick_6">
     <g id="line2d_6">
      <g>
       <use style="stroke:#000000;stroke-width:0.8;" x="302.625878" xlink:href="#mec6296b40c" y="252"/>
      </g>
     </g>
     <g id="text_6">
      <!-- 2500 -->
      <g transform="translate(289.900878 266.598437)scale(0.1 -0.1)">
       <use xlink:href="#DejaVuSans-50"/>
       <use x="63.623047" xlink:href="#DejaVuSans-53"/>
       <use x="127.246094" xlink:href="#DejaVuSans-48"/>
       <use x="190.869141" xlink:href="#DejaVuSans-48"/>
      </g>
     </g>
    </g>
    <g id="xtick_7">
     <g id="line2d_7">
      <g>
       <use style="stroke:#000000;stroke-width:0.8;" x="349.307418" xlink:href="#mec6296b40c" y="252"/>
      </g>
     </g>
     <g id="text_7">
      <!-- 3000 -->
      <defs>
       <path d="M 40.578125 39.3125 
Q 47.65625 37.796875 51.625 33 
Q 55.609375 28.21875 55.609375 21.1875 
Q 55.609375 10.40625 48.1875 4.484375 
Q 40.765625 -1.421875 27.09375 -1.421875 
Q 22.515625 -1.421875 17.65625 -0.515625 
Q 12.796875 0.390625 7.625 2.203125 
L 7.625 11.71875 
Q 11.71875 9.328125 16.59375 8.109375 
Q 21.484375 6.890625 26.8125 6.890625 
Q 36.078125 6.890625 40.9375 10.546875 
Q 45.796875 14.203125 45.796875 21.1875 
Q 45.796875 27.640625 41.28125 31.265625 
Q 36.765625 34.90625 28.71875 34.90625 
L 20.21875 34.90625 
L 20.21875 43.015625 
L 29.109375 43.015625 
Q 36.375 43.015625 40.234375 45.921875 
Q 44.09375 48.828125 44.09375 54.296875 
Q 44.09375 59.90625 40.109375 62.90625 
Q 36.140625 65.921875 28.71875 65.921875 
Q 24.65625 65.921875 20.015625 65.03125 
Q 15.375 64.15625 9.8125 62.3125 
L 9.8125 71.09375 
Q 15.4375 72.65625 20.34375 73.4375 
Q 25.25 74.21875 29.59375 74.21875 
Q 40.828125 74.21875 47.359375 69.109375 
Q 53.90625 64.015625 53.90625 55.328125 
Q 53.90625 49.265625 50.4375 45.09375 
Q 46.96875 40.921875 40.578125 39.3125 
z
" id="DejaVuSans-51"/>
      </defs>
      <g transform="translate(336.582418 266.598437)scale(0.1 -0.1)">
       <use xlink:href="#DejaVuSans-51"/>
       <use x="63.623047" xlink:href="#DejaVuSans-48"/>
       <use x="127.246094" xlink:href="#DejaVuSans-48"/>
       <use x="190.869141" xlink:href="#DejaVuSans-48"/>
      </g>
     </g>
    </g>
   </g>
   <g id="matplotlib.axis_2">
    <g id="ytick_1">
     <g id="line2d_8">
      <defs>
       <path d="M 0 0 
L -3.5 0 
" id="me38f2fc42b" style="stroke:#000000;stroke-width:0.8;"/>
      </defs>
      <g>
       <use style="stroke:#000000;stroke-width:0.8;" x="54" xlink:href="#me38f2fc42b" y="238.642563"/>
      </g>
     </g>
     <g id="text_8">
      <!-- 3 -->
      <g transform="translate(40.6375 242.441782)scale(0.1 -0.1)">
       <use xlink:href="#DejaVuSans-51"/>
      </g>
     </g>
    </g>
    <g id="ytick_2">
     <g id="line2d_9">
      <g>
       <use style="stroke:#000000;stroke-width:0.8;" x="54" xlink:href="#me38f2fc42b" y="201.618332"/>
      </g>
     </g>
     <g id="text_9">
      <!-- 4 -->
      <defs>
       <path d="M 37.796875 64.3125 
L 12.890625 25.390625 
L 37.796875 25.390625 
z
M 35.203125 72.90625 
L 47.609375 72.90625 
L 47.609375 25.390625 
L 58.015625 25.390625 
L 58.015625 17.1875 
L 47.609375 17.1875 
L 47.609375 0 
L 37.796875 0 
L 37.796875 17.1875 
L 4.890625 17.1875 
L 4.890625 26.703125 
z
" id="DejaVuSans-52"/>
      </defs>
      <g transform="translate(40.6375 205.41755)scale(0.1 -0.1)">
       <use xlink:href="#DejaVuSans-52"/>
      </g>
     </g>
    </g>
    <g id="ytick_3">
     <g id="line2d_10">
      <g>
       <use style="stroke:#000000;stroke-width:0.8;" x="54" xlink:href="#me38f2fc42b" y="164.5941"/>
      </g>
     </g>
     <g id="text_10">
      <!-- 5 -->
      <g transform="translate(40.6375 168.393319)scale(0.1 -0.1)">
       <use xlink:href="#DejaVuSans-53"/>
      </g>
     </g>
    </g>
    <g id="ytick_4">
     <g id="line2d_11">
      <g>
       <use style="stroke:#000000;stroke-width:0.8;" x="54" xlink:href="#me38f2fc42b" y="127.569869"/>
      </g>
     </g>
     <g id="text_11">
      <!-- 6 -->
      <defs>
       <path d="M 33.015625 40.375 
Q 26.375 40.375 22.484375 35.828125 
Q 18.609375 31.296875 18.609375 23.390625 
Q 18.609375 15.53125 22.484375 10.953125 
Q 26.375 6.390625 33.015625 6.390625 
Q 39.65625 6.390625 43.53125 10.953125 
Q 47.40625 15.53125 47.40625 23.390625 
Q 47.40625 31.296875 43.53125 35.828125 
Q 39.65625 40.375 33.015625 40.375 
z
M 52.59375 71.296875 
L 52.59375 62.3125 
Q 48.875 64.0625 45.09375 64.984375 
Q 41.3125 65.921875 37.59375 65.921875 
Q 27.828125 65.921875 22.671875 59.328125 
Q 17.53125 52.734375 16.796875 39.40625 
Q 19.671875 43.65625 24.015625 45.921875 
Q 28.375 48.1875 33.59375 48.1875 
Q 44.578125 48.1875 50.953125 41.515625 
Q 57.328125 34.859375 57.328125 23.390625 
Q 57.328125 12.15625 50.6875 5.359375 
Q 44.046875 -1.421875 33.015625 -1.421875 
Q 20.359375 -1.421875 13.671875 8.265625 
Q 6.984375 17.96875 6.984375 36.375 
Q 6.984375 53.65625 15.1875 63.9375 
Q 23.390625 74.21875 37.203125 74.21875 
Q 40.921875 74.21875 44.703125 73.484375 
Q 48.484375 72.75 52.59375 71.296875 
z
" id="DejaVuSans-54"/>
      </defs>
      <g transform="translate(40.6375 131.369088)scale(0.1 -0.1)">
       <use xlink:href="#DejaVuSans-54"/>
      </g>
     </g>
    </g>
    <g id="ytick_5">
     <g id="line2d_12">
      <g>
       <use style="stroke:#000000;stroke-width:0.8;" x="54" xlink:href="#me38f2fc42b" y="90.545638"/>
      </g>
     </g>
     <g id="text_12">
      <!-- 7 -->
      <defs>
       <path d="M 8.203125 72.90625 
L 55.078125 72.90625 
L 55.078125 68.703125 
L 28.609375 0 
L 18.3125 0 
L 43.21875 64.59375 
L 8.203125 64.59375 
z
" id="DejaVuSans-55"/>
      </defs>
      <g transform="translate(40.6375 94.344856)scale(0.1 -0.1)">
       <use xlink:href="#DejaVuSans-55"/>
      </g>
     </g>
    </g>
    <g id="ytick_6">
     <g id="line2d_13">
      <g>
       <use style="stroke:#000000;stroke-width:0.8;" x="54" xlink:href="#me38f2fc42b" y="53.521406"/>
      </g>
     </g>
     <g id="text_13">
      <!-- 8 -->
      <defs>
       <path d="M 31.78125 34.625 
Q 24.75 34.625 20.71875 30.859375 
Q 16.703125 27.09375 16.703125 20.515625 
Q 16.703125 13.921875 20.71875 10.15625 
Q 24.75 6.390625 31.78125 6.390625 
Q 38.8125 6.390625 42.859375 10.171875 
Q 46.921875 13.96875 46.921875 20.515625 
Q 46.921875 27.09375 42.890625 30.859375 
Q 38.875 34.625 31.78125 34.625 
z
M 21.921875 38.8125 
Q 15.578125 40.375 12.03125 44.71875 
Q 8.5 49.078125 8.5 55.328125 
Q 8.5 64.0625 14.71875 69.140625 
Q 20.953125 74.21875 31.78125 74.21875 
Q 42.671875 74.21875 48.875 69.140625 
Q 55.078125 64.0625 55.078125 55.328125 
Q 55.078125 49.078125 51.53125 44.71875 
Q 48 40.375 41.703125 38.8125 
Q 48.828125 37.15625 52.796875 32.3125 
Q 56.78125 27.484375 56.78125 20.515625 
Q 56.78125 9.90625 50.3125 4.234375 
Q 43.84375 -1.421875 31.78125 -1.421875 
Q 19.734375 -1.421875 13.25 4.234375 
Q 6.78125 9.90625 6.78125 20.515625 
Q 6.78125 27.484375 10.78125 32.3125 
Q 14.796875 37.15625 21.921875 38.8125 
z
M 18.3125 54.390625 
Q 18.3125 48.734375 21.84375 45.5625 
Q 25.390625 42.390625 31.78125 42.390625 
Q 38.140625 42.390625 41.71875 45.5625 
Q 45.3125 48.734375 45.3125 54.390625 
Q 45.3125 60.0625 41.71875 63.234375 
Q 38.140625 66.40625 31.78125 66.40625 
Q 25.390625 66.40625 21.84375 63.234375 
Q 18.3125 60.0625 18.3125 54.390625 
z
" id="DejaVuSans-56"/>
      </defs>
      <g transform="translate(40.6375 57.320625)scale(0.1 -0.1)">
       <use xlink:href="#DejaVuSans-56"/>
      </g>
     </g>
    </g>
   </g>
   <g id="line2d_14">
    <path clip-path="url(#p7961ac0440)" d="M 69.218182 154.204832 
L 69.311545 182.102865 
L 69.404908 132.880964 
L 69.591634 162.792623 
L 69.77836 175.037991 
L 69.871723 142.471126 
L 69.965086 147.523365 
L 70.05845 183.433003 
L 70.151813 140.73707 
L 70.245176 181.941863 
L 70.338539 89.434463 
L 70.431902 158.961288 
L 70.525265 149.087916 
L 70.618628 160.333953 
L 70.805354 121.901046 
L 70.898717 214.383198 
L 70.99208 132.117954 
L 71.085443 146.690985 
L 71.178806 113.63983 
L 71.365533 174.935869 
L 71.458896 92.905571 
L 71.552259 119.757563 
L 71.645622 180.001201 
L 71.738985 175.176916 
L 71.832348 133.490041 
L 71.925711 163.153158 
L 72.019074 151.434879 
L 72.112437 155.010366 
L 72.2058 108.984147 
L 72.299163 214.026249 
L 72.48589 100.380689 
L 72.579253 171.344913 
L 72.672616 118.989676 
L 72.859342 174.493723 
L 72.952705 118.786128 
L 73.139431 169.974888 
L 73.326157 142.004426 
L 73.41952 203.705739 
L 73.512883 147.74086 
L 73.606247 197.917128 
L 73.69961 153.304696 
L 73.792973 169.320008 
L 73.886336 126.372208 
L 74.073062 161.741442 
L 74.166425 161.722995 
L 74.259788 110.270064 
L 74.353151 197.709768 
L 74.446514 95.88536 
L 74.539877 151.711241 
L 74.63324 138.907976 
L 74.726603 226.753135 
L 74.819967 214.667469 
L 74.91333 109.130701 
L 75.006693 188.182292 
L 75.193419 153.853764 
L 75.286782 168.41431 
L 75.380145 100.753628 
L 75.473508 118.029018 
L 75.566871 172.880534 
L 75.753597 95.871283 
L 75.84696 89.773338 
L 75.940323 160.99002 
L 76.033687 128.286857 
L 76.12705 200.948247 
L 76.313776 154.789038 
L 76.407139 181.664372 
L 76.500502 72.189228 
L 76.687228 205.172717 
L 76.967317 145.47315 
L 77.06068 176.166443 
L 77.247407 124.947466 
L 77.34077 142.781476 
L 77.434133 90.169217 
L 77.527496 204.236673 
L 77.620859 140.129053 
L 77.714222 189.776667 
L 77.807585 122.661011 
L 77.900948 172.668328 
L 77.994311 151.614208 
L 78.087674 175.488878 
L 78.181037 123.111511 
L 78.461127 207.529364 
L 78.55449 164.345558 
L 78.647853 179.83614 
L 78.741216 156.859045 
L 78.834579 207.484145 
L 79.021305 101.208471 
L 79.114668 166.749046 
L 79.208031 134.846996 
L 79.301394 211.215564 
L 79.394757 122.856399 
L 79.48812 159.569621 
L 79.581484 112.754034 
L 79.76821 136.28974 
L 79.861573 124.674035 
L 80.048299 205.056279 
L 80.141662 144.705419 
L 80.235025 155.687446 
L 80.328388 206.000588 
L 80.421751 179.179412 
L 80.515114 192.360011 
L 80.608477 92.844752 
L 80.70184 177.341065 
L 80.795204 126.259394 
L 80.98193 188.105984 
L 81.168656 85.077457 
L 81.262019 209.437303 
L 81.355382 143.808891 
L 81.448745 196.290196 
L 81.542108 150.727689 
L 81.728834 200.543392 
L 81.822197 169.561519 
L 81.915561 94.817032 
L 82.008924 120.808697 
L 82.102287 182.147685 
L 82.19565 121.582973 
L 82.289013 189.427914 
L 82.382376 109.627285 
L 82.475739 167.226227 
L 82.569102 148.880998 
L 82.662465 181.8863 
L 82.755828 121.405934 
L 82.849191 151.040346 
L 82.942554 150.009802 
L 83.035917 141.10885 
L 83.129281 82.456207 
L 83.222644 130.502288 
L 83.316007 119.476374 
L 83.40937 173.200608 
L 83.502733 130.170387 
L 83.689459 192.239663 
L 83.876185 104.795657 
L 83.969548 114.991376 
L 84.062911 171.697759 
L 84.156274 103.342166 
L 84.343001 219.359687 
L 84.436364 203.410937 
L 84.529727 127.891246 
L 84.62309 208.332671 
L 84.716453 137.246605 
L 84.809816 166.560909 
L 84.903179 150.163551 
L 85.089905 188.106274 
L 85.183268 135.519425 
L 85.369994 188.759527 
L 85.463358 103.647752 
L 85.650084 162.586299 
L 85.743447 152.350624 
L 85.930173 193.481109 
L 86.116899 128.725984 
L 86.210262 163.497461 
L 86.396988 111.581588 
L 86.583714 167.505765 
L 86.770441 124.721935 
L 86.863804 110.584424 
L 86.957167 119.349736 
L 87.05053 106.468109 
L 87.143893 75.563656 
L 87.237256 175.962731 
L 87.330619 147.922306 
L 87.423982 188.653159 
L 87.517345 95.423954 
L 87.704071 183.854473 
L 87.797434 171.437078 
L 87.890798 145.71216 
L 88.26425 175.135041 
L 88.357613 143.459456 
L 88.450976 181.984345 
L 88.544339 102.667873 
L 88.731065 201.248027 
L 88.917791 147.350684 
L 89.011154 136.335284 
L 89.104518 204.704825 
L 89.384607 119.268236 
L 89.47797 104.425764 
L 89.758059 225.01821 
L 89.944785 92.743182 
L 90.038148 205.835579 
L 90.131511 154.646021 
L 90.224875 154.677285 
L 90.318238 156.283566 
L 90.411601 186.013944 
L 90.504964 117.125541 
L 90.598327 140.487629 
L 90.69169 72.503309 
L 90.785053 194.51958 
L 90.878416 130.480247 
L 90.971779 140.240275 
L 91.065142 119.554713 
L 91.158505 122.072291 
L 91.251868 178.127784 
L 91.345231 158.145999 
L 91.438595 75.615623 
L 91.625321 150.62654 
L 91.718684 147.887514 
L 91.812047 151.186344 
L 91.998773 88.429432 
L 92.092136 201.474544 
L 92.278862 146.737644 
L 92.372225 217.396569 
L 92.558951 185.460039 
L 92.652315 179.326529 
L 92.745678 152.909971 
L 92.839041 191.041581 
L 92.932404 118.043186 
L 93.025767 119.787984 
L 93.11913 138.568993 
L 93.212493 190.433775 
L 93.305856 183.486309 
L 93.399219 193.607618 
L 93.585945 160.816674 
L 93.679308 216.985121 
L 93.866035 151.121238 
L 93.959398 184.641492 
L 94.052761 101.652644 
L 94.146124 179.332494 
L 94.239487 158.662636 
L 94.33285 190.671359 
L 94.426213 74.694864 
L 94.612939 206.462454 
L 94.706302 197.966255 
L 94.799665 225.82542 
L 94.986392 155.523821 
L 95.079755 158.467022 
L 95.173118 206.673012 
L 95.359844 118.939237 
L 95.453207 173.708955 
L 95.54657 126.290388 
L 95.639933 189.349371 
L 95.826659 117.826502 
L 95.920022 101.528626 
L 96.106748 160.515867 
L 96.200112 96.414201 
L 96.293475 152.937073 
L 96.386838 113.14055 
L 96.480201 182.815681 
L 96.76029 84.205777 
L 97.040379 184.84425 
L 97.227105 146.470031 
L 97.320468 134.395785 
L 97.413832 160.731908 
L 97.507195 124.79549 
L 97.693921 230.342938 
L 97.880647 153.368444 
L 97.97401 155.849432 
L 98.067373 97.40119 
L 98.254099 181.137721 
L 98.347462 106.615939 
L 98.440825 172.392132 
L 98.534189 157.370981 
L 98.627552 117.715348 
L 98.907641 206.910325 
L 99.001004 92.034525 
L 99.18773 210.166604 
L 99.281093 224.169074 
L 99.374456 159.195025 
L 99.467819 179.554499 
L 99.561182 88.361069 
L 99.654545 156.005223 
L 99.841272 104.908404 
L 99.934635 158.73706 
L 100.027998 151.632198 
L 100.121361 82.820304 
L 100.308087 169.726432 
L 100.40145 211.420998 
L 100.494813 149.465993 
L 100.588176 173.432204 
L 100.681539 158.969278 
L 100.868265 92.861807 
L 100.961629 122.107662 
L 101.054992 190.4479 
L 101.335081 90.696731 
L 101.521807 185.032642 
L 101.61517 181.016515 
L 101.708533 92.585115 
L 101.895259 151.975058 
L 101.988622 157.910145 
L 102.081985 146.468604 
L 102.175349 189.344184 
L 102.268712 137.066128 
L 102.362075 144.134246 
L 102.548801 186.52151 
L 102.642164 170.540711 
L 102.735527 174.092965 
L 102.82889 207.987269 
L 103.015616 144.360309 
L 103.108979 174.635813 
L 103.202342 115.974933 
L 103.295706 147.582692 
L 103.389069 121.574126 
L 103.482432 199.683647 
L 103.669158 136.9256 
L 103.762521 148.706014 
L 103.949247 81.688766 
L 104.04261 161.627179 
L 104.135973 152.005398 
L 104.229336 134.283762 
L 104.322699 191.057361 
L 104.416062 132.748919 
L 104.509426 192.713916 
L 104.602789 164.785722 
L 104.789515 212.2418 
L 104.882878 181.498661 
L 104.976241 86.983213 
L 105.25633 150.930462 
L 105.349693 79.323817 
L 105.443056 176.769432 
L 105.536419 175.944856 
L 105.723146 171.027644 
L 105.909872 103.566361 
L 106.003235 114.579338 
L 106.096598 217.80776 
L 106.189961 110.873485 
L 106.283324 196.966881 
L 106.376687 156.272369 
L 106.47005 189.620353 
L 106.563413 172.352918 
L 106.656776 110.693561 
L 106.750139 138.153833 
L 107.030229 94.204195 
L 107.216955 166.710403 
L 107.310318 153.498224 
L 107.403681 163.847728 
L 107.68377 88.743612 
L 107.777133 190.48023 
L 107.870496 149.318924 
L 107.963859 176.147637 
L 108.057223 112.296867 
L 108.150586 120.901217 
L 108.430675 151.990081 
L 108.524038 197.937525 
L 108.617401 155.651424 
L 108.710764 200.772612 
L 108.804127 124.419155 
L 108.89749 152.317471 
L 108.990853 80.652999 
L 109.084216 104.469648 
L 109.177579 194.270453 
L 109.270943 148.914117 
L 109.364306 190.660725 
L 109.457669 154.184074 
L 109.551032 68.419282 
L 109.737758 196.99048 
L 109.831121 150.416053 
L 109.924484 160.653218 
L 110.11121 188.440539 
L 110.297936 165.392133 
L 110.391299 207.544257 
L 110.484663 129.948568 
L 110.671389 184.955844 
L 110.764752 193.739226 
L 110.858115 120.654459 
L 111.138204 181.142777 
L 111.32493 135.74838 
L 111.511656 192.793957 
L 111.60502 83.678943 
L 111.698383 183.698177 
L 111.791746 106.578775 
L 111.978472 126.878272 
L 112.071835 70.461416 
L 112.258561 214.946297 
L 112.351924 125.218121 
L 112.445287 172.621712 
L 112.53865 75.410746 
L 112.632013 180.285666 
L 112.725376 103.014575 
L 112.81874 141.697405 
L 112.912103 137.742191 
L 113.098829 102.247802 
L 113.192192 119.568237 
L 113.285555 97.929208 
L 113.472281 160.533441 
L 113.565644 101.993225 
L 113.659007 232.179738 
L 113.75237 84.032633 
L 113.845733 168.324418 
L 114.03246 113.956325 
L 114.125823 124.76007 
L 114.219186 121.308813 
L 114.312549 192.30248 
L 114.405912 78.712254 
L 114.686001 229.18545 
L 114.779364 102.04339 
L 114.96609 179.07266 
L 115.152817 90.049667 
L 115.24618 95.991388 
L 115.339543 163.56351 
L 115.432906 145.783745 
L 115.526269 160.140999 
L 115.619632 153.456038 
L 115.712995 84.837128 
L 115.806358 171.47 
L 115.899721 124.583124 
L 116.086447 187.032902 
L 116.273173 103.59999 
L 116.366537 120.077775 
L 116.4599 157.627256 
L 116.553263 91.771764 
L 116.739989 171.755414 
L 116.833352 123.587299 
L 116.926715 190.024473 
L 117.113441 91.387457 
L 117.300167 157.519265 
L 117.39353 173.304259 
L 117.486893 164.140605 
L 117.580257 107.755914 
L 117.67362 169.93362 
L 117.766983 87.354001 
L 117.953709 122.032842 
L 118.140435 196.875309 
L 118.233798 185.653474 
L 118.327161 130.608509 
L 118.513887 190.326273 
L 118.700613 78.214209 
L 118.793977 190.729634 
L 118.980703 101.690068 
L 119.167429 191.733267 
L 119.354155 106.784163 
L 119.447518 116.686921 
L 119.540881 146.160287 
L 119.634244 122.694877 
L 119.82097 169.312532 
L 119.914334 115.410783 
L 120.10106 187.11505 
L 120.194423 170.472242 
L 120.287786 109.603622 
L 120.381149 186.973376 
L 120.567875 132.575093 
L 120.661238 145.332986 
L 120.754601 62.668097 
L 120.847964 189.3335 
L 120.941327 114.541399 
L 121.03469 208.420949 
L 121.128054 185.207078 
L 121.221417 112.618523 
L 121.31478 133.558334 
L 121.408143 191.956122 
L 121.501506 185.05999 
L 121.594869 124.012701 
L 121.688232 208.971721 
L 121.781595 132.900433 
L 121.874958 200.894417 
L 121.968321 134.021389 
L 122.061684 145.783217 
L 122.155047 154.260187 
L 122.24841 129.059099 
L 122.341774 197.995399 
L 122.435137 130.276846 
L 122.5285 193.795892 
L 122.621863 124.093988 
L 122.808589 176.64306 
L 122.901952 202.96501 
L 122.995315 86.760346 
L 123.088678 169.685949 
L 123.182041 92.273698 
L 123.275404 179.742659 
L 123.462131 68.369721 
L 123.648857 130.50584 
L 123.74222 204.83605 
L 123.835583 116.224736 
L 124.209035 168.449792 
L 124.395761 104.728141 
L 124.489124 206.615707 
L 124.582487 127.86551 
L 124.675851 194.837548 
L 124.769214 98.223175 
L 124.862577 103.140728 
L 124.95594 177.781873 
L 125.049303 142.454554 
L 125.236029 162.460629 
L 125.329392 119.887644 
L 125.516118 172.845518 
L 125.609481 166.61617 
L 125.702844 109.449877 
L 125.796207 200.672208 
L 125.982934 100.130639 
L 126.076297 68.748388 
L 126.263023 191.609554 
L 126.356386 70.053469 
L 126.449749 141.727827 
L 126.543112 123.24767 
L 126.636475 126.764591 
L 126.729838 163.50455 
L 126.823201 156.637891 
L 126.916564 151.969711 
L 127.009927 214.246102 
L 127.103291 149.593419 
L 127.196654 155.496686 
L 127.290017 176.976881 
L 127.38338 134.61389 
L 127.476743 149.522214 
L 127.570106 126.223416 
L 127.756832 228.738316 
L 127.850195 139.151777 
L 127.943558 202.121297 
L 128.036921 190.854634 
L 128.130284 188.407906 
L 128.317011 139.33696 
L 128.410374 178.41362 
L 128.503737 164.050825 
L 128.690463 101.347712 
L 128.783826 159.881915 
L 128.877189 138.128577 
L 128.970552 181.48411 
L 129.157278 106.969234 
L 129.250641 184.65758 
L 129.344004 105.838546 
L 129.437368 192.296598 
L 129.530731 92.296576 
L 129.624094 172.108252 
L 129.717457 160.09878 
L 129.81082 160.678246 
L 129.904183 176.361966 
L 129.997546 107.515032 
L 130.090909 150.390945 
L 130.184272 122.521184 
L 130.370998 197.136762 
L 130.557724 124.943328 
L 130.651088 102.257358 
L 130.837814 203.507747 
L 130.931177 178.287387 
L 131.02454 90.639024 
L 131.211266 172.960032 
L 131.304629 182.233 
L 131.397992 110.79818 
L 131.678081 164.228938 
L 131.771445 209.274501 
L 131.958171 117.96303 
L 132.051534 140.897094 
L 132.144897 224.022869 
L 132.23826 139.768948 
L 132.331623 150.814158 
L 132.424986 156.383458 
L 132.518349 115.939194 
L 132.611712 158.082411 
L 132.705075 123.137484 
L 132.798438 133.086245 
L 132.891801 191.089501 
L 132.985165 130.900511 
L 133.078528 177.778203 
L 133.171891 142.414936 
L 133.265254 170.528723 
L 133.358617 134.079979 
L 133.45198 161.157456 
L 133.545343 87.683045 
L 133.732069 205.827949 
L 133.918795 145.124519 
L 134.105521 111.429502 
L 134.198885 124.311054 
L 134.292248 176.89505 
L 134.385611 151.70291 
L 134.478974 193.973561 
L 134.759063 153.358879 
L 134.852426 154.596538 
L 134.945789 132.798365 
L 135.132515 174.379796 
L 135.225878 112.522937 
L 135.319241 219.484714 
L 135.505968 176.484042 
L 135.599331 154.040935 
L 135.692694 242.116364 
L 135.786057 96.194586 
L 135.972783 197.276752 
L 136.159509 108.543495 
L 136.252872 106.966212 
L 136.346235 158.700163 
L 136.439598 132.330978 
L 136.532962 72.023947 
L 136.626325 175.091405 
L 136.813051 114.962474 
L 136.906414 216.398737 
L 136.999777 80.446873 
L 137.09314 155.227744 
L 137.186503 98.680909 
L 137.279866 184.494527 
L 137.373229 111.03131 
L 137.466592 114.304365 
L 137.653318 219.570056 
L 137.746682 215.563706 
L 137.933408 144.387423 
L 138.026771 166.699642 
L 138.120134 74.034335 
L 138.213497 211.634998 
L 138.30686 96.985348 
L 138.493586 148.658479 
L 138.586949 107.132108 
L 138.867038 184.671142 
L 138.960402 146.287096 
L 139.053765 199.132099 
L 139.240491 125.772621 
L 139.427217 162.188191 
L 139.52058 178.424613 
L 139.707306 132.882887 
L 139.800669 204.883757 
L 139.894032 143.265467 
L 139.987395 154.697271 
L 140.080759 110.495142 
L 140.174122 155.522725 
L 140.267485 148.205574 
L 140.454211 93.049823 
L 140.827663 213.123026 
L 140.921026 122.264503 
L 141.014389 191.69514 
L 141.201115 85.232203 
L 141.387842 216.002796 
L 141.667931 97.451519 
L 141.854657 209.646307 
L 142.134746 91.25048 
L 142.228109 169.3898 
L 142.321472 133.237556 
L 142.414835 180.668155 
L 142.508199 173.809111 
L 142.694925 159.328832 
L 142.788288 213.951951 
L 142.881651 92.258268 
L 142.975014 228.954709 
L 143.068377 156.051302 
L 143.16174 211.566615 
L 143.255103 121.929172 
L 143.441829 185.246462 
L 143.535192 135.620348 
L 143.628555 188.794281 
L 143.815282 119.66459 
L 144.002008 177.377598 
L 144.095371 139.584524 
L 144.188734 155.564507 
L 144.282097 214.956129 
L 144.37546 123.569309 
L 144.468823 124.225491 
L 144.655549 221.097138 
L 144.748912 140.2714 
L 144.842276 148.737566 
L 145.029002 79.526084 
L 145.309091 166.806374 
L 145.402454 110.658811 
L 145.58918 167.54891 
L 145.682543 77.92492 
L 145.869269 131.625195 
L 145.962632 114.139278 
L 146.055996 160.858345 
L 146.149359 127.127265 
L 146.242722 172.267605 
L 146.336085 171.412956 
L 146.429448 174.916137 
L 146.522811 117.398955 
L 146.616174 119.465846 
L 146.709537 180.793093 
L 146.989626 100.245803 
L 147.176352 146.662896 
L 147.269716 161.14067 
L 147.363079 109.937025 
L 147.456442 186.821303 
L 147.549805 117.783424 
L 147.643168 183.842235 
L 147.736531 82.998659 
L 148.01662 211.646823 
L 148.109983 120.72105 
L 148.203346 168.130288 
L 148.296709 164.488426 
L 148.483436 90.595628 
L 148.670162 153.279724 
L 148.763525 160.96368 
L 149.043614 133.730614 
L 149.136977 74.927558 
L 149.323703 144.866126 
L 149.417066 110.632132 
L 149.510429 115.502343 
L 149.603793 167.86298 
L 149.697156 103.145732 
L 149.790519 108.891577 
L 149.977245 145.082081 
L 150.070608 132.71744 
L 150.257334 193.621175 
L 150.630786 85.112868 
L 150.817513 156.022919 
L 150.910876 159.883389 
L 151.004239 155.955377 
L 151.097602 77.66367 
L 151.190965 139.129988 
L 151.284328 86.946688 
L 151.377691 229.916464 
L 151.564417 93.548621 
L 151.65778 178.141854 
L 151.751143 73.136055 
L 152.031233 141.560589 
L 152.124596 100.233025 
L 152.217959 104.760143 
L 152.498048 199.027745 
L 152.591411 157.613324 
L 152.684774 168.817278 
L 152.778137 133.875213 
L 152.8715 194.724794 
L 152.964863 181.532508 
L 153.058226 198.082862 
L 153.15159 147.380834 
L 153.244953 167.962782 
L 153.338316 113.46212 
L 153.431679 171.503189 
L 153.525042 160.410377 
L 153.618405 166.504165 
L 153.711768 101.679913 
L 153.805131 144.987071 
L 153.898494 141.365547 
L 154.08522 171.05603 
L 154.271946 198.273964 
L 154.36531 183.847671 
L 154.552036 117.793568 
L 154.645399 126.212947 
L 154.738762 73.612378 
L 154.925488 122.84949 
L 155.018851 98.289672 
L 155.205577 153.475097 
L 155.29894 111.978101 
L 155.57903 154.208616 
L 155.672393 154.887531 
L 155.765756 139.847422 
L 155.952482 71.256908 
L 156.139208 193.912552 
L 156.325934 126.864227 
L 156.419297 165.919782 
L 156.51266 93.492253 
L 156.699387 154.630048 
L 156.79275 72.490088 
L 156.886113 168.526755 
L 157.166202 70.047969 
L 157.259565 141.352992 
L 157.352928 137.472573 
L 157.446291 158.518788 
L 157.633017 96.907907 
L 157.72638 146.286923 
L 157.819743 145.029916 
L 158.00647 99.755475 
L 158.099833 78.827189 
L 158.193196 83.913728 
L 158.286559 114.058404 
L 158.379922 94.753832 
L 158.566648 165.934734 
L 158.660011 139.859641 
L 158.753374 153.998615 
L 158.846737 200.65024 
L 159.033463 83.604351 
L 159.22019 151.883308 
L 159.313553 85.535652 
L 159.406916 151.79645 
L 159.593642 117.18021 
L 159.687005 116.002708 
L 159.780368 183.827579 
L 159.873731 122.476914 
L 159.967094 143.808543 
L 160.060457 93.662804 
L 160.15382 174.367181 
L 160.340547 72.835908 
L 160.43391 74.188204 
L 160.527273 183.238657 
L 160.713999 110.764787 
L 160.807362 157.49254 
L 160.994088 95.047761 
L 161.087451 129.285704 
L 161.36754 98.803945 
L 161.460904 116.522244 
L 161.554267 101.231448 
L 161.64763 150.290757 
L 161.740993 104.478305 
L 161.834356 158.932102 
L 161.927719 87.202077 
L 162.114445 125.053603 
L 162.207808 131.362614 
L 162.301171 98.919059 
L 162.394534 163.171725 
L 162.487897 105.880191 
L 162.674624 173.322803 
L 162.86135 91.924573 
L 162.954713 156.479603 
L 163.048076 64.693608 
L 163.141439 98.952174 
L 163.234802 192.816218 
L 163.421528 125.237604 
L 163.514891 167.309068 
L 163.701617 99.578679 
L 163.79498 123.240547 
L 163.981707 159.664747 
L 164.07507 157.753992 
L 164.168433 85.938875 
L 164.355159 164.645506 
L 164.448522 97.734954 
L 164.635248 137.44614 
L 164.728611 142.713902 
L 164.821974 173.479868 
L 164.915337 121.420177 
L 165.008701 180.560482 
L 165.102064 133.708778 
L 165.195427 156.370869 
L 165.382153 99.792211 
L 165.475516 159.564625 
L 165.662242 123.350565 
L 165.755605 73.241465 
L 165.848968 173.829239 
L 165.942331 97.878214 
L 166.035694 118.689142 
L 166.129057 84.922173 
L 166.222421 150.734957 
L 166.315784 130.297157 
L 166.409147 71.419779 
L 166.595873 147.070873 
L 166.689236 75.793399 
L 166.782599 103.310704 
L 166.875962 101.14324 
L 166.969325 101.570928 
L 167.062688 181.292491 
L 167.342777 79.282857 
L 167.436141 187.021249 
L 167.529504 125.223944 
L 167.622867 176.668744 
L 167.71623 145.282068 
L 167.809593 179.339576 
L 167.902956 100.6894 
L 167.996319 163.311204 
L 168.089682 132.734772 
L 168.183045 151.469822 
L 168.276408 119.139989 
L 168.369771 135.321471 
L 168.463134 79.540652 
L 168.649861 163.551235 
L 168.743224 118.205986 
L 168.836587 174.957045 
L 168.92995 76.320026 
L 169.023313 171.109111 
L 169.116676 170.055991 
L 169.303402 123.344457 
L 169.396765 195.324141 
L 169.490128 108.377405 
L 169.583491 113.228147 
L 169.676854 102.79726 
L 169.770218 132.166662 
L 169.863581 122.910887 
L 170.050307 68.036154 
L 170.14367 136.720646 
L 170.237033 111.766542 
L 170.330396 119.482403 
L 170.517122 71.540435 
L 170.610485 110.840019 
L 170.703848 86.906347 
L 170.797211 111.31333 
L 170.890574 105.013239 
L 171.077301 180.865877 
L 171.170664 176.714901 
L 171.264027 141.163157 
L 171.450753 189.463254 
L 171.637479 83.568478 
L 171.730842 150.996777 
L 171.824205 116.278788 
L 172.010931 173.914141 
L 172.291021 87.61906 
L 172.384384 146.056991 
L 172.477747 112.936183 
L 172.57111 160.304131 
L 172.664473 84.374142 
L 172.757836 88.411128 
L 172.851199 140.219963 
L 172.944562 95.129898 
L 173.037925 147.141847 
L 173.224651 88.921509 
L 173.318015 125.533738 
L 173.411378 62.376945 
L 173.504741 150.605663 
L 173.691467 52.480549 
L 173.878193 149.232486 
L 173.971556 144.290584 
L 174.064919 142.181201 
L 174.345008 73.443535 
L 174.438371 149.399204 
L 174.531735 71.546316 
L 174.905187 146.090421 
L 174.99855 105.986751 
L 175.091913 176.9365 
L 175.185276 132.88274 
L 175.278639 166.599605 
L 175.558728 99.213998 
L 175.652091 127.377395 
L 175.745455 108.453538 
L 175.838818 64.974085 
L 175.932181 148.208021 
L 176.025544 53.21157 
L 176.21227 181.731694 
L 176.305633 153.231593 
L 176.398996 159.645073 
L 176.492359 74.047766 
L 176.585722 150.849991 
L 176.679085 61.330556 
L 176.865811 140.320595 
L 176.959175 96.345081 
L 177.052538 164.020771 
L 177.145901 124.450301 
L 177.239264 143.562565 
L 177.332627 95.590598 
L 177.42599 115.199387 
L 177.519353 80.616787 
L 177.612716 138.582412 
L 177.706079 122.554103 
L 177.986168 183.215515 
L 178.079532 85.769083 
L 178.359621 151.377601 
L 178.452984 115.361824 
L 178.546347 177.138065 
L 178.63971 148.790274 
L 178.733073 166.368365 
L 178.826436 134.575891 
L 178.919799 160.822719 
L 179.013162 68.600834 
L 179.106525 134.301978 
L 179.199888 107.886549 
L 179.293252 109.434378 
L 179.386615 145.863937 
L 179.573341 97.763741 
L 179.666704 78.975074 
L 179.760067 80.786948 
L 179.85343 119.287802 
L 179.946793 103.259283 
L 180.040156 147.182622 
L 180.133519 59.788259 
L 180.226882 133.404491 
L 180.320245 132.040104 
L 180.506972 94.332076 
L 180.693698 159.358856 
L 180.880424 115.712607 
L 180.973787 86.870525 
L 181.06715 95.335141 
L 181.160513 60.946318 
L 181.253876 156.89017 
L 181.347239 67.33776 
L 181.533965 124.279849 
L 181.627328 105.128033 
L 181.720692 134.580908 
L 181.814055 127.955411 
L 181.907418 167.90852 
L 182.000781 123.660331 
L 182.094144 140.318071 
L 182.187507 124.816163 
L 182.28087 84.105861 
L 182.654322 170.032195 
L 182.841049 99.423354 
L 182.934412 116.338608 
L 183.027775 158.894969 
L 183.121138 101.038477 
L 183.307864 154.983866 
L 183.49459 91.561786 
L 183.681316 122.26314 
L 183.774679 177.86403 
L 183.868042 78.497745 
L 184.054769 138.211089 
L 184.148132 67.453498 
L 184.428221 166.362642 
L 184.614947 76.495619 
L 184.70831 82.008396 
L 184.801673 98.331351 
L 184.895036 191.447073 
L 185.081762 89.879157 
L 185.175125 148.725429 
L 185.361852 76.686169 
L 185.455215 77.10617 
L 185.548578 138.227599 
L 185.641941 80.430829 
L 185.735304 147.993542 
L 185.828667 141.667115 
L 185.92203 105.794312 
L 186.015393 114.651092 
L 186.108756 187.986841 
L 186.295482 98.637073 
L 186.482209 170.981607 
L 186.575572 94.781978 
L 186.668935 183.30355 
L 186.762298 114.668669 
L 186.855661 119.069881 
L 186.949024 91.883918 
L 187.042387 164.368633 
L 187.13575 137.803549 
L 187.229113 140.189094 
L 187.322476 126.31038 
L 187.415839 73.081794 
L 187.509202 81.112357 
L 187.695929 140.506921 
L 187.882655 88.095388 
L 187.976018 176.549204 
L 188.069381 111.723284 
L 188.256107 169.854736 
L 188.442833 105.999535 
L 188.536196 154.866927 
L 188.629559 127.411579 
L 188.722922 175.41331 
L 188.909649 120.656942 
L 189.003012 102.505992 
L 189.096375 161.879007 
L 189.189738 84.798536 
L 189.283101 84.851932 
L 189.376464 137.165776 
L 189.469827 105.875803 
L 189.56319 160.686477 
L 189.656553 120.497127 
L 189.749916 134.584978 
L 189.843279 77.062377 
L 189.936642 100.280987 
L 190.030006 77.843358 
L 190.123369 193.775488 
L 190.216732 177.02649 
L 190.310095 179.832668 
L 190.403458 154.766319 
L 190.496821 92.773048 
L 190.590184 94.810077 
L 190.683547 145.156748 
L 190.77691 105.081052 
L 190.870273 138.068412 
L 190.963636 137.602716 
L 191.243726 158.383533 
L 191.337089 166.125644 
L 191.430452 161.157694 
L 191.617178 115.604573 
L 191.710541 165.309845 
L 191.897267 109.078126 
L 191.99063 137.425301 
L 192.083993 86.445857 
L 192.177356 163.230836 
L 192.270719 144.470276 
L 192.457446 171.771199 
L 192.550809 166.268276 
L 192.737535 105.864711 
L 192.830898 113.403041 
L 192.924261 111.007278 
L 193.110987 162.62064 
L 193.297713 100.547361 
L 193.391076 56.672729 
L 193.484439 107.301416 
L 193.577803 73.796901 
L 193.671166 133.419955 
L 193.857892 57.042664 
L 194.044618 159.975251 
L 194.231344 89.076485 
L 194.324707 106.395705 
L 194.41807 157.958307 
L 194.511433 92.240198 
L 194.604796 100.941161 
L 194.884886 152.315333 
L 194.978249 183.022798 
L 195.071612 78.593751 
L 195.164975 141.219783 
L 195.258338 79.407434 
L 195.351701 141.589446 
L 195.445064 80.03738 
L 195.538427 98.553946 
L 195.63179 97.327185 
L 195.725153 100.051889 
L 195.818516 73.383966 
L 196.005243 164.372546 
L 196.098606 87.519228 
L 196.285332 168.895188 
L 196.472058 93.470521 
L 196.658784 167.179081 
L 196.84551 81.920706 
L 196.938873 125.236478 
L 197.032236 105.485645 
L 197.1256 134.078369 
L 197.218963 91.330413 
L 197.405689 135.777699 
L 197.499052 152.641531 
L 197.592415 134.983461 
L 197.685778 86.694744 
L 197.965867 158.799132 
L 198.152593 87.066378 
L 198.33932 172.735207 
L 198.432683 152.565378 
L 198.526046 83.330499 
L 198.712772 184.888836 
L 198.992861 79.654524 
L 199.179587 144.873985 
L 199.27295 119.633282 
L 199.366313 125.021235 
L 199.55304 60.791567 
L 199.739766 129.847921 
L 199.926492 70.825781 
L 200.019855 164.866497 
L 200.206581 76.942889 
L 200.299944 165.625065 
L 200.393307 163.715304 
L 200.580033 86.529487 
L 200.673397 91.61692 
L 200.76676 132.288545 
L 200.860123 59.89671 
L 200.953486 60.59489 
L 201.046849 99.562441 
L 201.140212 74.036803 
L 201.233575 122.69915 
L 201.326938 76.231831 
L 201.420301 166.344762 
L 201.513664 95.183532 
L 201.607027 124.764262 
L 201.70039 78.866606 
L 201.793753 139.894247 
L 201.887117 52.03405 
L 202.073843 181.136601 
L 202.260569 87.282633 
L 202.447295 137.01207 
L 202.540658 117.764586 
L 202.634021 63.910411 
L 202.727384 129.027641 
L 202.820747 89.342416 
L 202.91411 190.706106 
L 203.007474 173.735849 
L 203.100837 147.909821 
L 203.287563 68.193457 
L 203.380926 78.10367 
L 203.474289 119.263505 
L 203.567652 76.084505 
L 203.661015 139.719116 
L 203.847741 79.475175 
L 204.034467 143.325683 
L 204.221194 81.106186 
L 204.501283 157.562519 
L 204.594646 126.08626 
L 204.688009 145.166762 
L 204.781372 89.452823 
L 204.968098 157.56526 
L 205.061461 172.319517 
L 205.154824 153.286293 
L 205.248187 154.397706 
L 205.34155 153.381005 
L 205.434914 75.942508 
L 205.528277 107.2553 
L 205.62164 73.820399 
L 205.715003 122.203943 
L 205.901729 73.246918 
L 205.995092 100.489412 
L 206.181818 168.530236 
L 206.368544 152.255178 
L 206.461907 85.054129 
L 206.55527 137.235741 
L 206.741997 67.41746 
L 206.83536 155.72948 
L 206.928723 83.049117 
L 207.302175 175.701208 
L 207.395538 112.290646 
L 207.488901 132.580286 
L 207.582264 112.84049 
L 207.675627 69.129693 
L 207.862354 90.41066 
L 208.142443 159.6693 
L 208.422532 79.346183 
L 208.609258 127.087547 
L 208.702621 112.095322 
L 208.795984 165.188055 
L 209.169437 107.744921 
L 209.2628 160.924307 
L 209.449526 89.997254 
L 209.542889 91.522648 
L 209.636252 85.638986 
L 209.729615 105.721223 
L 209.916341 172.712441 
L 210.009704 78.333947 
L 210.103067 162.149097 
L 210.196431 98.883373 
L 210.289794 145.473026 
L 210.383157 74.423747 
L 210.569883 162.107712 
L 210.756609 115.182823 
L 210.849972 110.867218 
L 210.943335 77.919922 
L 211.036698 109.995063 
L 211.130061 193.343013 
L 211.223424 88.732037 
L 211.316788 135.942289 
L 211.503514 86.886084 
L 211.69024 157.444146 
L 211.876966 58.911773 
L 211.970329 117.954515 
L 212.063692 69.485404 
L 212.157055 80.199143 
L 212.343781 140.1753 
L 212.437144 53.559173 
L 212.530508 166.807038 
L 212.717234 65.144246 
L 212.90396 143.735481 
L 213.277412 121.813435 
L 213.370775 157.98993 
L 213.464138 74.230157 
L 213.557501 75.675432 
L 213.650864 89.293167 
L 213.744228 54.652119 
L 213.837591 187.717712 
L 213.930954 170.011011 
L 214.024317 167.642077 
L 214.11768 137.55718 
L 214.304406 64.823012 
L 214.491132 150.728501 
L 214.677858 65.030521 
L 214.771221 129.336761 
L 214.864584 98.858983 
L 214.957948 173.996029 
L 215.144674 147.548007 
L 215.238037 99.57264 
L 215.3314 139.310246 
L 215.518126 73.566147 
L 215.611489 104.46993 
L 215.704852 187.161457 
L 215.798215 94.006893 
L 215.891578 109.58832 
L 216.078305 142.107233 
L 216.171668 133.673235 
L 216.265031 177.06994 
L 216.358394 111.146155 
L 216.451757 148.847485 
L 216.54512 88.372316 
L 216.638483 166.907641 
L 216.825209 77.08452 
L 216.918572 105.919069 
L 217.011935 69.22492 
L 217.105298 152.284905 
L 217.198661 139.51212 
L 217.292025 168.106872 
L 217.385388 153.389971 
L 217.478751 153.618807 
L 217.572114 171.232047 
L 217.665477 118.911363 
L 217.75884 123.382671 
L 217.852203 143.604555 
L 217.945566 89.641963 
L 218.038929 195.424679 
L 218.132292 77.494903 
L 218.319018 161.797218 
L 218.412381 66.916109 
L 218.505745 172.125579 
L 218.599108 102.090593 
L 218.692471 111.04654 
L 218.785834 97.440196 
L 218.879197 99.358361 
L 218.97256 115.809705 
L 219.065923 160.777617 
L 219.159286 136.566428 
L 219.252649 156.753736 
L 219.346012 109.129557 
L 219.439375 125.424778 
L 219.626102 191.753735 
L 219.812828 114.479772 
L 219.906191 187.810005 
L 219.999554 166.72597 
L 220.092917 53.080069 
L 220.18628 93.492922 
L 220.279643 80.995616 
L 220.373006 131.797297 
L 220.466369 114.794532 
L 220.559732 166.946205 
L 220.653095 161.366956 
L 220.746458 86.386407 
L 220.839822 91.514104 
L 220.933185 137.459663 
L 221.026548 135.386554 
L 221.119911 94.566853 
L 221.213274 111.193062 
L 221.306637 193.973507 
L 221.4 124.620216 
L 221.493363 182.056472 
L 221.680089 100.815969 
L 221.773452 163.981436 
L 221.866815 145.142601 
L 221.960178 79.671331 
L 222.146905 166.783952 
L 222.240268 140.603813 
L 222.333631 143.988229 
L 222.426994 156.134844 
L 222.520357 94.47905 
L 222.61372 169.640518 
L 222.800446 106.756986 
L 222.893809 171.937881 
L 222.987172 80.603854 
L 223.080535 165.218682 
L 223.173898 164.698399 
L 223.267262 80.468769 
L 223.360625 169.276749 
L 223.453988 70.992983 
L 223.547351 111.462118 
L 223.640714 94.177915 
L 223.920803 156.260123 
L 224.014166 116.618642 
L 224.107529 132.922719 
L 224.294255 76.454871 
L 224.854434 131.199359 
L 224.947797 154.919697 
L 225.134523 82.480734 
L 225.321249 165.680269 
L 225.507975 90.573035 
L 225.601339 96.951685 
L 225.881428 159.365276 
L 225.974791 96.139769 
L 226.068154 149.762118 
L 226.161517 111.025554 
L 226.25488 146.448884 
L 226.348243 140.279106 
L 226.441606 162.409405 
L 226.534969 144.175526 
L 226.721695 93.386534 
L 226.815059 189.717555 
L 227.001785 97.008511 
L 227.095148 162.102961 
L 227.281874 91.470229 
L 227.375237 155.472623 
L 227.4686 102.622274 
L 227.561963 116.699803 
L 227.748689 96.916081 
L 227.935416 134.72591 
L 228.215505 62.741599 
L 228.308868 159.895897 
L 228.402231 86.167875 
L 228.495594 93.097125 
L 228.588957 98.743656 
L 228.68232 186.638046 
L 228.775683 172.250919 
L 228.869046 164.959294 
L 228.962409 189.007599 
L 229.055772 107.236094 
L 229.149136 186.6942 
L 229.242499 132.452807 
L 229.335862 180.232751 
L 229.522588 77.050702 
L 229.615951 55.222356 
L 229.709314 136.543481 
L 229.802677 110.891624 
L 229.89604 167.666981 
L 229.989403 165.859497 
L 230.082766 148.537904 
L 230.176129 156.362493 
L 230.269492 144.178633 
L 230.362856 171.200094 
L 230.456219 107.452337 
L 230.549582 115.780555 
L 230.642945 138.247123 
L 230.736308 126.96343 
L 230.829671 142.873372 
L 230.923034 118.503887 
L 231.10976 153.485932 
L 231.203123 135.915887 
L 231.483212 182.390958 
L 231.856665 78.895749 
L 231.950028 167.039128 
L 232.043391 89.680166 
L 232.230117 146.412944 
L 232.32348 110.562652 
L 232.416843 176.93927 
L 232.510206 171.628352 
L 232.603569 167.923252 
L 232.696933 73.767329 
L 232.790296 169.764747 
L 232.883659 114.204001 
L 232.977022 150.588436 
L 233.163748 100.362613 
L 233.257111 78.388094 
L 233.5372 129.371972 
L 233.630563 190.321036 
L 233.817289 125.863239 
L 233.910653 131.102207 
L 234.004016 162.457709 
L 234.097379 72.024229 
L 234.190742 141.953331 
L 234.284105 121.715674 
L 234.377468 145.616157 
L 234.470831 142.139428 
L 234.657557 123.847382 
L 234.844283 93.207078 
L 235.031009 150.004667 
L 235.124373 84.487083 
L 235.217736 109.529662 
L 235.311099 181.36722 
L 235.404462 106.813003 
L 235.497825 165.623571 
L 235.591188 129.258775 
L 235.684551 177.169164 
L 235.777914 167.270865 
L 235.871277 135.971508 
L 235.96464 61.983944 
L 236.058003 139.79962 
L 236.151366 65.341177 
L 236.338093 157.282053 
L 236.431456 167.995774 
L 236.524819 103.27082 
L 236.618182 126.133239 
L 236.804908 113.3544 
L 236.898271 86.983579 
L 236.991634 142.873531 
L 237.17836 83.825363 
L 237.271723 167.833955 
L 237.365086 115.754151 
L 237.551813 156.473895 
L 237.645176 137.590984 
L 237.738539 92.629283 
L 237.925265 159.517092 
L 238.018628 105.940487 
L 238.111991 183.383111 
L 238.205354 145.23106 
L 238.298717 181.408476 
L 238.485443 115.810603 
L 238.578806 136.054891 
L 238.67217 131.707878 
L 238.765533 92.970778 
L 238.858896 144.043721 
L 238.952259 59.559002 
L 239.045622 149.022898 
L 239.138985 124.295286 
L 239.232348 138.058386 
L 239.325711 106.339258 
L 239.6058 153.15922 
L 239.699163 165.073706 
L 239.792526 123.386453 
L 239.88589 164.246313 
L 240.072616 77.865429 
L 240.165979 104.170972 
L 240.259342 187.465067 
L 240.352705 75.627726 
L 240.446068 151.420401 
L 240.539431 147.709656 
L 240.632794 128.877355 
L 240.726157 141.260167 
L 240.912883 102.441947 
L 241.006247 140.624275 
L 241.09961 120.945846 
L 241.192973 186.044002 
L 241.286336 167.180333 
L 241.379699 102.347378 
L 241.566425 151.847497 
L 241.659788 143.485962 
L 241.753151 82.016001 
L 241.846514 146.203133 
L 241.939877 85.046762 
L 242.03324 93.629567 
L 242.219967 174.315794 
L 242.500056 64.930409 
L 242.686782 188.432257 
L 242.780145 135.011239 
L 242.873508 164.024079 
L 243.060234 74.869502 
L 243.153597 128.640769 
L 243.340323 47.645965 
L 243.433687 102.789133 
L 243.52705 66.532604 
L 243.620413 150.829039 
L 243.713776 130.432643 
L 243.807139 156.980971 
L 243.900502 71.859888 
L 243.993865 140.866946 
L 244.087228 90.133714 
L 244.273954 161.413214 
L 244.367317 77.310215 
L 244.554044 138.796459 
L 244.647407 100.363118 
L 244.834133 172.575095 
L 244.927496 85.631584 
L 245.114222 157.530485 
L 245.207585 84.774697 
L 245.300948 182.425016 
L 245.394311 80.919197 
L 245.487674 82.449101 
L 245.581037 118.762806 
L 245.767764 75.103514 
L 245.95449 94.288605 
L 246.047853 100.105547 
L 246.141216 172.724442 
L 246.327942 106.752599 
L 246.421305 70.579131 
L 246.701394 125.819844 
L 246.794757 103.252623 
L 246.981484 149.333934 
L 247.074847 92.922219 
L 247.354936 189.110538 
L 247.448299 182.120059 
L 247.541662 182.15314 
L 247.728388 146.705501 
L 247.915114 159.190446 
L 248.008477 129.898211 
L 248.10184 148.857621 
L 248.195204 92.81665 
L 248.288567 168.427544 
L 248.38193 148.815718 
L 248.475293 77.418998 
L 248.662019 153.549399 
L 248.755382 140.176609 
L 248.848745 159.707848 
L 249.035471 113.361346 
L 249.128834 55.215742 
L 249.315561 115.780891 
L 249.408924 63.81983 
L 249.59565 147.97896 
L 249.689013 111.915654 
L 249.782376 169.584993 
L 249.875739 116.337003 
L 249.969102 116.721172 
L 250.062465 88.670992 
L 250.155828 104.05461 
L 250.249191 138.762034 
L 250.342554 83.429239 
L 250.529281 184.388384 
L 250.622644 89.393943 
L 250.716007 176.549014 
L 250.80937 100.411733 
L 250.902733 174.29641 
L 250.996096 114.780977 
L 251.089459 126.071354 
L 251.276185 160.185929 
L 251.369548 83.842985 
L 251.462911 119.46918 
L 251.743001 80.531147 
L 252.209816 150.637839 
L 252.303179 143.515781 
L 252.396542 63.166321 
L 252.489905 82.763735 
L 252.583268 159.47998 
L 252.676631 98.8009 
L 252.863358 176.206984 
L 252.956721 72.436825 
L 253.143447 166.28697 
L 253.330173 80.378158 
L 253.423536 153.201705 
L 253.516899 105.92621 
L 253.703625 169.684806 
L 253.796988 109.657406 
L 253.890351 119.991656 
L 253.983714 133.697429 
L 254.170441 175.866841 
L 254.357167 106.794626 
L 254.45053 151.761385 
L 254.543893 104.777642 
L 254.637256 171.791088 
L 254.730619 94.641479 
L 254.823982 114.321199 
L 254.917345 165.272066 
L 255.010708 110.881294 
L 255.197434 139.023986 
L 255.290798 127.45268 
L 255.477524 162.859948 
L 255.570887 93.494631 
L 255.757613 169.531877 
L 255.850976 95.513634 
L 255.944339 173.0387 
L 256.037702 59.915559 
L 256.131065 129.247659 
L 256.224428 119.861884 
L 256.317791 132.970973 
L 256.597881 53.025822 
L 256.691244 117.957166 
L 256.784607 114.430425 
L 256.87797 94.259455 
L 256.971333 125.352378 
L 257.064696 82.63141 
L 257.158059 178.723043 
L 257.344785 110.55513 
L 257.438148 176.681825 
L 257.531511 138.189671 
L 257.624875 142.63297 
L 257.718238 175.055397 
L 257.811601 171.62037 
L 257.904964 163.260206 
L 257.998327 176.541576 
L 258.185053 66.579454 
L 258.278416 177.460422 
L 258.371779 164.145121 
L 258.558505 135.824804 
L 258.651868 143.653429 
L 258.745231 52.907518 
L 258.931958 153.003636 
L 259.025321 115.067001 
L 259.118684 122.06397 
L 259.30541 118.203163 
L 259.398773 110.470673 
L 259.492136 172.725118 
L 259.585499 120.544928 
L 259.772225 175.413178 
L 259.865588 137.213121 
L 259.958951 160.701704 
L 260.052315 74.626172 
L 260.145678 94.743758 
L 260.239041 146.090753 
L 260.332404 122.703475 
L 260.425767 158.456928 
L 260.51913 64.854283 
L 260.612493 195.898339 
L 260.705856 108.666815 
L 260.799219 167.413416 
L 260.892582 165.724248 
L 260.985945 156.307789 
L 261.079308 108.443182 
L 261.172672 125.578245 
L 261.266035 88.673139 
L 261.452761 176.42361 
L 261.639487 93.610951 
L 261.826213 84.830452 
L 261.919576 162.184098 
L 262.012939 95.247236 
L 262.106302 118.478576 
L 262.199665 64.263134 
L 262.293028 163.406029 
L 262.479755 93.572268 
L 262.573118 90.843734 
L 262.666481 135.494592 
L 262.759844 92.341599 
L 262.853207 105.737659 
L 262.94657 146.904747 
L 263.039933 67.158761 
L 263.226659 172.420554 
L 263.413385 89.383062 
L 263.506748 135.168179 
L 263.693475 71.029436 
L 263.786838 81.52041 
L 263.880201 83.432538 
L 263.973564 165.216371 
L 264.16029 112.026169 
L 264.253653 104.817257 
L 264.347016 83.131605 
L 264.440379 128.246889 
L 264.533742 127.866721 
L 264.627105 161.984844 
L 264.720468 82.62421 
L 264.813832 138.880355 
L 264.907195 109.658713 
L 265.000558 125.727234 
L 265.093921 71.839227 
L 265.187284 163.491173 
L 265.37401 86.887733 
L 265.467373 146.776756 
L 265.560736 103.037586 
L 265.747462 136.560239 
L 265.840825 167.821352 
L 265.934189 98.521234 
L 266.027552 137.446507 
L 266.120915 74.536114 
L 266.214278 183.646849 
L 266.401004 92.266608 
L 266.58773 167.852777 
L 266.681093 105.895646 
L 266.774456 184.552148 
L 266.867819 166.335749 
L 266.961182 176.499651 
L 267.147909 60.822093 
L 267.334635 145.519293 
L 267.427998 62.660909 
L 267.521361 102.27632 
L 267.614724 76.715906 
L 267.708087 95.643544 
L 267.80145 154.523385 
L 267.894813 98.31225 
L 267.988176 122.981848 
L 268.081539 75.601127 
L 268.174902 171.583589 
L 268.268265 85.116662 
L 268.361629 149.286071 
L 268.548355 61.632082 
L 268.641718 173.923692 
L 268.735081 155.975174 
L 268.828444 101.68751 
L 268.921807 140.777812 
L 269.01517 116.667617 
L 269.201896 148.037512 
L 269.388622 122.383585 
L 269.481985 135.152557 
L 269.668712 96.217027 
L 269.762075 170.519166 
L 269.855438 147.084875 
L 269.948801 184.162313 
L 270.135527 154.768788 
L 270.22889 173.516006 
L 270.322253 87.647059 
L 270.415616 181.772811 
L 270.508979 177.041217 
L 270.602342 165.760189 
L 270.695706 166.784757 
L 270.789069 102.297646 
L 270.882432 172.592618 
L 270.975795 97.79181 
L 271.069158 99.64097 
L 271.162521 73.829439 
L 271.255884 155.706705 
L 271.349247 128.660775 
L 271.535973 176.806664 
L 271.629336 70.052977 
L 271.722699 86.601776 
L 271.816062 119.812688 
L 271.909426 82.490013 
L 272.002789 135.754151 
L 272.096152 116.754752 
L 272.282878 177.345123 
L 272.469604 54.572482 
L 272.562967 123.267619 
L 272.65633 110.441951 
L 272.749693 165.365255 
L 272.936419 125.566153 
L 273.123146 180.477074 
L 273.216509 101.397557 
L 273.309872 151.9155 
L 273.403235 135.681868 
L 273.589961 162.383193 
L 273.87005 63.491125 
L 273.963413 121.525562 
L 274.056776 71.609094 
L 274.150139 115.578188 
L 274.243503 77.870087 
L 274.336866 158.688806 
L 274.430229 151.329296 
L 274.616955 62.258202 
L 274.803681 156.211375 
L 274.897044 101.244388 
L 274.990407 103.972151 
L 275.08377 129.113101 
L 275.177133 116.654731 
L 275.270496 68.080491 
L 275.457223 94.940663 
L 275.550586 75.032446 
L 275.643949 165.935265 
L 275.737312 150.334817 
L 275.830675 144.936244 
L 275.924038 148.77906 
L 276.017401 117.104073 
L 276.204127 191.19569 
L 276.29749 104.691795 
L 276.390853 120.42462 
L 276.484216 62.294695 
L 276.577579 122.522265 
L 276.670943 77.994028 
L 276.951032 142.637853 
L 277.044395 125.441779 
L 277.137758 69.556225 
L 277.231121 153.83323 
L 277.324484 64.652944 
L 277.417847 164.49227 
L 277.697936 84.566258 
L 277.791299 119.241149 
L 278.071389 52.497447 
L 278.258115 154.961769 
L 278.351478 82.388199 
L 278.444841 93.699689 
L 278.631567 157.975973 
L 278.72493 159.421458 
L 278.818293 88.490372 
L 278.911656 90.441178 
L 279.00502 142.855105 
L 279.098383 60.973523 
L 279.191746 140.910179 
L 279.285109 89.664635 
L 279.378472 171.300534 
L 279.471835 167.601004 
L 279.565198 76.851416 
L 279.751924 179.88303 
L 279.845287 84.311933 
L 279.93865 86.832155 
L 280.032013 96.554363 
L 280.125376 70.427977 
L 280.405466 187.710346 
L 280.592192 80.44797 
L 280.685555 136.579504 
L 280.778918 135.574938 
L 280.872281 130.551625 
L 280.965644 131.153937 
L 281.245733 63.553663 
L 281.43246 159.577097 
L 281.525823 182.559066 
L 281.712549 49.952867 
L 281.899275 158.513039 
L 281.992638 101.798378 
L 282.086001 152.027824 
L 282.179364 141.380993 
L 282.272727 107.209709 
L 282.36609 120.860389 
L 282.459453 113.079338 
L 282.552817 77.282807 
L 282.64618 93.734667 
L 282.832906 153.446698 
L 283.019632 75.681355 
L 283.112995 107.875904 
L 283.206358 76.779828 
L 283.299721 83.989646 
L 283.393084 76.790373 
L 283.673173 173.96854 
L 283.8599 103.948753 
L 283.953263 174.566758 
L 284.046626 104.476843 
L 284.139989 154.322862 
L 284.326715 89.267554 
L 284.420078 142.554215 
L 284.606804 82.149012 
L 284.79353 189.187234 
L 284.886893 97.278672 
L 285.07362 169.185649 
L 285.166983 147.523454 
L 285.260346 183.483276 
L 285.540435 86.067516 
L 285.633798 140.929878 
L 285.820524 68.118615 
L 286.00725 130.52375 
L 286.100613 105.954478 
L 286.193977 124.183269 
L 286.28734 114.830785 
L 286.567429 167.269329 
L 286.754155 93.196724 
L 286.847518 140.668859 
L 286.940881 100.205064 
L 287.034244 170.347349 
L 287.127607 127.058724 
L 287.22097 130.196543 
L 287.407697 157.787938 
L 287.50106 140.872546 
L 287.594423 191.509252 
L 287.687786 131.159822 
L 287.781149 186.36579 
L 287.874512 79.72896 
L 288.061238 177.464002 
L 288.341327 65.30844 
L 288.43469 106.569177 
L 288.528054 72.010585 
L 288.621417 92.664807 
L 288.71478 76.047832 
L 288.808143 98.580487 
L 288.901506 94.13906 
L 288.994869 68.711691 
L 289.181595 145.669707 
L 289.368321 90.804191 
L 289.461684 104.586713 
L 289.555047 61.777772 
L 289.741774 111.076358 
L 289.835137 92.892361 
L 290.021863 161.830275 
L 290.115226 64.986715 
L 290.208589 151.126397 
L 290.301952 98.769977 
L 290.395315 166.370559 
L 290.488678 90.708303 
L 290.582041 136.30349 
L 290.675404 77.864222 
L 290.862131 143.571927 
L 290.955494 61.988464 
L 291.048857 160.860127 
L 291.14222 76.253062 
L 291.328946 149.621493 
L 291.422309 140.822043 
L 291.515672 100.496856 
L 291.609035 142.073813 
L 291.702398 93.321331 
L 291.795761 182.581066 
L 291.982487 71.290823 
L 292.169214 128.68742 
L 292.262577 165.973684 
L 292.35594 77.086447 
L 292.449303 158.431038 
L 292.636029 108.315265 
L 292.729392 153.283876 
L 292.822755 119.562978 
L 292.916118 166.358418 
L 293.009481 80.783667 
L 293.102844 189.201707 
L 293.476297 67.693773 
L 293.663023 169.99295 
L 293.849749 86.677438 
L 293.943112 166.800346 
L 294.129838 104.238556 
L 294.223201 129.10573 
L 294.409927 103.308899 
L 294.503291 103.32372 
L 294.596654 74.128503 
L 294.690017 109.781784 
L 294.78338 56.277927 
L 294.970106 120.494 
L 295.063469 53.684031 
L 295.343558 119.929286 
L 295.436921 60.1414 
L 295.530284 169.625005 
L 295.623648 135.779258 
L 295.717011 59.148939 
L 295.810374 87.877281 
L 295.903737 72.887861 
L 295.9971 112.989898 
L 296.090463 60.146418 
L 296.183826 150.940798 
L 296.277189 110.529157 
L 296.370552 170.305095 
L 296.463915 166.760921 
L 296.650641 70.248581 
L 296.744004 91.349899 
L 296.837368 80.789435 
L 296.930731 163.493194 
L 297.024094 125.02005 
L 297.117457 146.665664 
L 297.21082 80.073848 
L 297.304183 138.452795 
L 297.490909 82.198051 
L 297.584272 114.212822 
L 297.677635 69.470976 
L 297.770998 139.573388 
L 297.957724 88.121093 
L 298.051088 152.163668 
L 298.144451 83.281471 
L 298.237814 109.560665 
L 298.331177 171.822533 
L 298.517903 100.026109 
L 298.704629 138.671507 
L 298.891355 60.333759 
L 298.984718 66.467354 
L 299.078081 122.383177 
L 299.171445 65.604046 
L 299.264808 124.151191 
L 299.358171 98.697306 
L 299.451534 116.546748 
L 299.544897 160.311076 
L 299.63826 158.594238 
L 299.731623 82.968261 
L 299.824986 149.588432 
L 300.011712 62.564903 
L 300.105075 75.153748 
L 300.198438 139.295224 
L 300.291801 88.303632 
L 300.385165 164.135663 
L 300.478528 52.277547 
L 300.571891 146.177401 
L 300.665254 64.771248 
L 300.758617 160.292976 
L 300.85198 112.935495 
L 300.945343 163.925938 
L 301.132069 112.717644 
L 301.225432 145.21769 
L 301.318795 64.057156 
L 301.412158 69.490743 
L 301.692248 126.892896 
L 301.785611 82.53396 
L 301.878974 125.466927 
L 301.972337 106.917475 
L 302.159063 177.718341 
L 302.252426 92.40638 
L 302.345789 153.741518 
L 302.439152 110.656778 
L 302.532515 149.404312 
L 302.625878 109.073984 
L 302.812605 155.342998 
L 302.905968 103.841026 
L 302.999331 166.182352 
L 303.186057 139.416429 
L 303.27942 148.837057 
L 303.466146 126.261234 
L 303.559509 72.094336 
L 303.746235 149.30425 
L 303.839598 97.06041 
L 304.026325 130.970164 
L 304.119688 144.210557 
L 304.213051 139.134265 
L 304.306414 97.806839 
L 304.399777 117.191132 
L 304.49314 109.590811 
L 304.586503 168.326454 
L 304.679866 90.25763 
L 304.773229 95.510044 
L 304.959955 179.034483 
L 305.053318 118.361307 
L 305.146682 137.3273 
L 305.240045 82.254597 
L 305.426771 177.9869 
L 305.520134 71.849473 
L 305.613497 153.608954 
L 305.70686 152.024935 
L 305.800223 162.218922 
L 305.893586 147.303732 
L 306.080312 158.197131 
L 306.173675 110.866357 
L 306.267038 162.908073 
L 306.360402 85.171917 
L 306.453765 159.730905 
L 306.547128 148.980689 
L 306.640491 138.937341 
L 306.733854 80.352875 
L 306.827217 87.955357 
L 306.92058 149.209647 
L 307.013943 114.326282 
L 307.107306 145.3398 
L 307.200669 89.925404 
L 307.294032 158.633932 
L 307.387395 84.448364 
L 307.480759 135.726329 
L 307.574122 101.296986 
L 307.760848 149.056901 
L 307.854211 135.867603 
L 307.947574 67.524155 
L 308.227663 180.303964 
L 308.414389 120.301019 
L 308.507752 138.344089 
L 308.601115 177.940539 
L 308.787842 56.483515 
L 308.881205 122.055791 
L 308.974568 52.815327 
L 309.161294 141.101721 
L 309.441383 82.706584 
L 309.534746 142.652474 
L 309.814835 68.361614 
L 309.908199 87.351344 
L 310.094925 161.859677 
L 310.188288 138.958578 
L 310.281651 167.960041 
L 310.375014 91.44339 
L 310.56174 140.478659 
L 310.748466 81.969227 
L 310.841829 143.370516 
L 311.028555 92.846157 
L 311.121919 79.94854 
L 311.215282 172.181362 
L 311.308645 156.170749 
L 311.402008 162.690658 
L 311.495371 158.500694 
L 311.682097 99.736406 
L 311.77546 125.186949 
L 311.868823 72.313608 
L 311.962186 115.067895 
L 312.055549 114.143828 
L 312.148912 100.571841 
L 312.242276 105.902479 
L 312.335639 154.031798 
L 312.429002 80.695509 
L 312.615728 133.92084 
L 312.802454 79.862253 
L 312.895817 92.557937 
L 313.082543 137.223132 
L 313.175906 94.865421 
L 313.269269 177.905268 
L 313.362632 103.992706 
L 313.455996 161.81548 
L 313.642722 63.734214 
L 313.736085 166.07058 
L 313.922811 90.079893 
L 314.109537 143.944477 
L 314.2029 103.319575 
L 314.389626 159.830304 
L 314.576352 97.989613 
L 314.763079 147.925451 
L 314.949805 50.335349 
L 315.043168 179.655753 
L 315.136531 120.673674 
L 315.229894 124.96066 
L 315.323257 75.797045 
L 315.41662 101.320285 
L 315.509983 83.284218 
L 315.603346 89.347013 
L 315.696709 71.438021 
L 315.883436 132.167858 
L 315.976799 68.452087 
L 316.163525 155.461364 
L 316.350251 86.013882 
L 316.443614 89.881494 
L 316.536977 77.618075 
L 316.63034 104.081623 
L 316.723703 55.648248 
L 316.910429 160.631017 
L 317.003793 116.297997 
L 317.097156 168.790531 
L 317.190519 87.73024 
L 317.283882 94.560535 
L 317.377245 161.987869 
L 317.470608 113.591827 
L 317.563971 124.800151 
L 317.657334 91.538415 
L 317.750697 133.339303 
L 317.84406 89.007792 
L 318.030786 135.147642 
L 318.124149 129.719352 
L 318.217513 54.191803 
L 318.310876 147.34656 
L 318.497602 60.917683 
L 318.590965 52.887665 
L 318.684328 168.835048 
L 318.871054 83.268804 
L 318.964417 102.456001 
L 319.05778 152.065118 
L 319.244506 107.088437 
L 319.337869 124.121892 
L 319.524596 72.694452 
L 319.617959 99.002104 
L 319.711322 173.137787 
L 319.804685 83.960604 
L 319.898048 160.221248 
L 319.991411 118.641334 
L 320.084774 145.917755 
L 320.2715 79.503678 
L 320.364863 89.840984 
L 320.458226 181.371364 
L 320.55159 78.006596 
L 320.644953 148.199693 
L 320.738316 90.668023 
L 320.831679 103.690769 
L 320.925042 91.063351 
L 321.018405 61.144815 
L 321.205131 162.890434 
L 321.298494 64.285063 
L 321.391857 109.983324 
L 321.48522 60.948517 
L 321.578583 110.32588 
L 321.671946 68.182418 
L 321.76531 134.077816 
L 321.858673 56.45327 
L 321.952036 81.852022 
L 322.045399 184.214404 
L 322.325488 77.270414 
L 322.418851 142.340444 
L 322.512214 133.385183 
L 322.605577 127.372145 
L 322.69894 68.149224 
L 322.97903 185.566346 
L 323.165756 112.224509 
L 323.259119 125.042598 
L 323.352482 117.744762 
L 323.445845 154.461199 
L 323.539208 91.127231 
L 323.632571 95.296564 
L 323.725934 128.619353 
L 323.819297 83.866529 
L 323.91266 148.559229 
L 324.099387 81.623858 
L 324.19275 56.400645 
L 324.286113 101.031191 
L 324.379476 75.720864 
L 324.472839 88.717161 
L 324.566202 125.712819 
L 324.846291 75.543298 
L 325.033017 132.449934 
L 325.12638 180.777396 
L 325.219743 100.203257 
L 325.313107 120.015341 
L 325.40647 110.268894 
L 325.499833 126.407115 
L 325.686559 100.43478 
L 325.779922 145.716593 
L 325.873285 52.15881 
L 325.966648 63.461227 
L 326.060011 131.855536 
L 326.246737 85.741584 
L 326.3401 83.19298 
L 326.433463 107.198045 
L 326.526827 82.305138 
L 326.62019 85.249889 
L 326.713553 93.781341 
L 326.806916 84.940038 
L 326.900279 125.213176 
L 326.993642 122.351521 
L 327.087005 82.294207 
L 327.273731 165.312945 
L 327.460457 143.515292 
L 327.55382 93.391572 
L 327.647183 169.199924 
L 327.740547 65.72759 
L 327.83391 154.630562 
L 327.927273 136.457254 
L 328.020636 164.192979 
L 328.113999 62.158406 
L 328.207362 126.519175 
L 328.300725 59.199535 
L 328.487451 157.858492 
L 328.674177 51.381167 
L 328.76754 136.915167 
L 328.954267 96.745336 
L 329.04763 112.102677 
L 329.140993 106.805083 
L 329.234356 119.23864 
L 329.327719 118.643929 
L 329.421082 104.076187 
L 329.514445 108.87631 
L 329.607808 162.781745 
L 329.701171 112.918901 
L 329.794534 155.074805 
L 329.98126 48.561417 
L 330.074624 164.088233 
L 330.167987 84.877302 
L 330.26135 137.073056 
L 330.728165 59.599763 
L 331.008254 130.308697 
L 331.19498 55.114972 
L 331.288344 176.696142 
L 331.381707 112.424184 
L 331.47507 166.50629 
L 331.568433 148.397039 
L 331.661796 78.603997 
L 331.755159 145.519436 
L 331.848522 68.341765 
L 332.035248 140.835765 
L 332.221974 44.443636 
L 332.315337 172.914176 
L 332.502064 99.945515 
L 332.595427 117.514584 
L 332.68879 166.170807 
L 332.875516 121.859867 
L 332.968879 133.700871 
L 333.155605 74.317477 
L 333.248968 97.755617 
L 333.342331 172.088493 
L 333.435694 91.358777 
L 333.529057 174.543848 
L 333.622421 96.24613 
L 333.715784 137.638145 
L 333.809147 127.755197 
L 333.90251 167.508652 
L 333.995873 71.487285 
L 334.089236 87.438003 
L 334.182599 64.622245 
L 334.369325 122.450093 
L 334.462688 64.436443 
L 334.556051 102.222126 
L 334.742777 85.785349 
L 334.836141 121.278239 
L 334.929504 87.380438 
L 335.022867 99.75141 
L 335.11623 78.28157 
L 335.302956 136.358641 
L 335.396319 84.452123 
L 335.489682 137.915418 
L 335.583045 130.762451 
L 335.676408 79.404985 
L 335.769771 136.118438 
L 335.863134 113.801531 
L 335.956497 157.418767 
L 336.049861 101.303088 
L 336.143224 158.981208 
L 336.32995 84.734708 
L 336.423313 74.988832 
L 336.610039 169.811888 
L 336.796765 180.668757 
L 336.890128 109.501643 
L 336.983491 166.13639 
L 337.170218 64.424981 
L 337.263581 82.730146 
L 337.356944 162.463667 
L 337.450307 135.725331 
L 337.54367 60.296525 
L 337.637033 66.024454 
L 337.730396 78.528719 
L 337.823759 62.671191 
L 337.917122 157.57104 
L 338.010485 121.24851 
L 338.103848 161.052517 
L 338.197211 154.660355 
L 338.290574 171.734826 
L 338.570664 111.094598 
L 338.664027 117.079812 
L 338.75739 154.675393 
L 338.850753 118.597915 
L 338.944116 166.592018 
L 339.037479 55.668411 
L 339.130842 123.627953 
L 339.224205 103.018313 
L 339.410931 175.667497 
L 339.597658 73.054183 
L 339.691021 118.737137 
L 339.784384 90.268194 
L 339.877747 179.592733 
L 339.97111 126.506807 
L 340.157836 191.678783 
L 340.251199 90.468674 
L 340.531288 141.847049 
L 340.624651 103.930626 
L 340.718015 129.199368 
L 340.811378 59.253462 
L 340.904741 129.448365 
L 340.998104 109.855345 
L 341.091467 136.44021 
L 341.18483 83.616562 
L 341.278193 124.250452 
L 341.371556 91.522126 
L 341.464919 157.623787 
L 341.558282 133.091164 
L 341.651645 172.274108 
L 341.838371 80.819206 
L 342.025098 171.309158 
L 342.118461 99.122508 
L 342.39855 158.09241 
L 342.491913 84.45738 
L 342.678639 160.128163 
L 342.772002 149.500718 
L 342.958728 64.61692 
L 343.052091 125.500136 
L 343.145455 118.857143 
L 343.238818 130.9348 
L 343.332181 103.317771 
L 343.518907 126.620493 
L 343.61227 167.888662 
L 343.705633 133.089683 
L 343.798996 165.841642 
L 343.892359 146.238504 
L 343.985722 78.616925 
L 344.079085 158.916802 
L 344.172448 92.92221 
L 344.359175 161.606109 
L 344.452538 168.939317 
L 344.545901 154.416799 
L 344.639264 156.144062 
L 344.82599 90.446985 
L 345.012716 145.874612 
L 345.106079 95.582085 
L 345.199442 113.077947 
L 345.292805 105.081725 
L 345.386168 173.776301 
L 345.479532 155.186285 
L 345.666258 60.303513 
L 345.852984 101.601099 
L 346.03971 83.245202 
L 346.133073 168.742574 
L 346.319799 103.147302 
L 346.506525 147.61334 
L 346.599888 146.067759 
L 346.693252 135.652984 
L 346.786615 66.635348 
L 347.066704 149.915143 
L 347.25343 54.924508 
L 347.346793 114.367131 
L 347.440156 79.089924 
L 347.533519 107.103436 
L 347.626882 67.157146 
L 347.813608 135.445497 
L 347.906972 139.942997 
L 348.000335 155.686958 
L 348.093698 80.746421 
L 348.187061 135.767322 
L 348.373787 102.156632 
L 348.46715 85.690352 
L 348.653876 131.150995 
L 348.747239 139.852985 
L 348.840602 115.384684 
L 348.933965 164.422939 
L 349.120692 121.009354 
L 349.214055 127.079361 
L 349.307418 72.622639 
L 349.400781 167.045944 
L 349.587507 93.714962 
L 349.68087 105.677964 
L 349.774233 105.084889 
L 349.867596 101.099188 
L 349.960959 188.618798 
L 350.054322 78.292394 
L 350.147685 119.107035 
L 350.241049 91.146509 
L 350.334412 131.929995 
L 350.521138 74.578909 
L 350.707864 164.695073 
L 350.801227 103.387127 
L 350.89459 146.966498 
L 350.987953 89.963214 
L 351.361405 176.259881 
L 351.454769 94.191297 
L 351.548132 160.060945 
L 351.734858 92.836431 
L 351.828221 163.938769 
L 351.921584 73.3911 
L 352.014947 132.176361 
L 352.201673 96.173711 
L 352.295036 177.456688 
L 352.388399 55.480982 
L 352.481762 161.290016 
L 352.575125 77.882057 
L 352.668489 178.922497 
L 352.761852 113.011192 
L 352.948578 164.250807 
L 353.041941 155.662597 
L 353.135304 135.751681 
L 353.32203 55.205471 
L 353.415393 170.391584 
L 353.508756 96.161209 
L 353.602119 157.664709 
L 353.882209 63.881586 
L 353.975572 122.454394 
L 354.068935 74.609664 
L 354.349024 140.588661 
L 354.442387 82.340185 
L 354.629113 147.546832 
L 354.722476 80.187081 
L 354.815839 145.31998 
L 354.909202 126.830989 
L 355.002566 64.442188 
L 355.095929 171.686806 
L 355.189292 170.357481 
L 355.376018 133.745591 
L 355.469381 76.94828 
L 355.74947 172.534848 
L 355.842833 66.049236 
L 355.936196 123.215921 
L 356.029559 103.583324 
L 356.216286 135.425927 
L 356.309649 56.735932 
L 356.496375 171.240952 
L 356.683101 115.772878 
L 356.776464 114.206073 
L 356.869827 117.249795 
L 357.056553 67.862087 
L 357.149916 168.880414 
L 357.243279 159.177968 
L 357.430006 77.318037 
L 357.523369 129.373789 
L 357.710095 75.015438 
L 357.803458 102.163411 
L 357.990184 168.551352 
L 358.083547 118.54169 
L 358.17691 132.554964 
L 358.270273 94.311527 
L 358.456999 184.904107 
L 358.550363 152.835457 
L 358.643726 161.956403 
L 358.737089 88.804868 
L 358.923815 125.432785 
L 359.110541 149.439006 
L 359.203904 150.453592 
L 359.297267 138.104312 
L 359.483993 72.4371 
L 359.764083 151.214992 
L 359.950809 79.843265 
L 360.044172 68.824337 
L 360.230898 175.953775 
L 360.324261 148.340281 
L 360.417624 76.23539 
L 360.510987 83.8648 
L 360.60435 100.864451 
L 360.697713 80.195164 
L 360.791076 87.388168 
L 360.884439 82.70359 
L 361.071166 169.554082 
L 361.164529 139.38921 
L 361.257892 66.074787 
L 361.351255 128.54649 
L 361.444618 92.965402 
L 361.537981 105.133617 
L 361.631344 134.028605 
L 361.724707 64.247637 
L 361.81807 77.545402 
L 361.911433 156.091611 
L 362.004796 61.452165 
L 362.09816 141.314437 
L 362.191523 98.036045 
L 362.284886 170.77453 
L 362.378249 64.828881 
L 362.471612 119.53231 
L 362.564975 77.70409 
L 362.658338 140.864884 
L 362.751701 118.979682 
L 362.845064 119.289474 
L 363.03179 170.670318 
L 363.125153 139.232704 
L 363.218516 171.820817 
L 363.31188 144.688505 
L 363.405243 149.950193 
L 363.498606 140.174726 
L 363.591969 145.549125 
L 363.778695 91.983063 
L 363.872058 112.830057 
L 363.965421 85.377833 
L 364.058784 85.987829 
L 364.152147 105.948005 
L 364.24551 105.630445 
L 364.338873 89.497103 
L 364.432236 138.234855 
L 364.5256 135.825884 
L 364.618963 102.366288 
L 364.712326 114.300719 
L 364.805689 96.055564 
L 364.899052 162.308392 
L 364.992415 96.365156 
L 365.085778 121.942354 
L 365.179141 91.236541 
L 365.272504 158.577347 
L 365.365867 73.901797 
L 365.45923 151.834219 
L 365.552593 56.144786 
L 365.73932 118.232812 
L 365.832683 89.441242 
L 365.926046 103.831572 
L 366.019409 79.945742 
L 366.206135 163.856176 
L 366.299498 133.166776 
L 366.392861 153.482469 
L 366.486224 83.206586 
L 366.579587 160.277457 
L 366.67295 97.797546 
L 366.766313 139.136991 
L 366.859677 138.235373 
L 366.95304 137.038576 
L 367.046403 61.560215 
L 367.139766 138.343578 
L 367.233129 125.503209 
L 367.326492 145.930701 
L 367.419855 106.753758 
L 367.513218 135.306959 
L 367.606581 65.915993 
L 367.699944 102.892611 
L 367.88667 73.45994 
L 368.260123 126.756567 
L 368.353486 109.515734 
L 368.446849 150.274978 
L 368.633575 102.324823 
L 368.820301 113.852158 
L 368.913664 84.68315 
L 369.007027 97.244847 
L 369.10039 89.693747 
L 369.193753 101.05587 
L 369.287117 129.366131 
L 369.38048 88.481318 
L 369.567206 110.135883 
L 369.660569 100.502322 
L 369.753932 145.450405 
L 369.847295 56.77321 
L 369.940658 82.58417 
L 370.034021 139.215496 
L 370.127384 130.515839 
L 370.220747 167.671974 
L 370.31411 95.040627 
L 370.407474 107.080958 
L 370.500837 104.072293 
L 370.687563 131.367652 
L 370.780926 106.223639 
L 370.874289 148.523015 
L 370.967652 58.055753 
L 371.061015 151.143045 
L 371.247741 72.819387 
L 371.434467 115.812953 
L 371.52783 101.972196 
L 371.621194 59.141784 
L 371.714557 89.200365 
L 371.80792 72.787532 
L 371.994646 115.876953 
L 372.088009 83.980291 
L 372.181372 110.528564 
L 372.274735 103.704782 
L 372.368098 184.262405 
L 372.554824 101.767483 
L 372.74155 82.243277 
L 372.928277 88.684054 
L 373.02164 172.836647 
L 373.208366 76.965129 
L 373.301729 102.208293 
L 373.395092 75.411352 
L 373.488455 132.855543 
L 373.581818 128.548612 
" style="fill:none;stroke:#1f77b4;stroke-linecap:square;stroke-width:1.5;"/>
   </g>
   <g id="patch_3">
    <path d="M 54 252 
L 54 34.56 
" style="fill:none;stroke:#000000;stroke-linecap:square;stroke-linejoin:miter;stroke-width:0.8;"/>
   </g>
   <g id="patch_4">
    <path d="M 388.8 252 
L 388.8 34.56 
" style="fill:none;stroke:#000000;stroke-linecap:square;stroke-linejoin:miter;stroke-width:0.8;"/>
   </g>
   <g id="patch_5">
    <path d="M 54 252 
L 388.8 252 
" style="fill:none;stroke:#000000;stroke-linecap:square;stroke-linejoin:miter;stroke-width:0.8;"/>
   </g>
   <g id="patch_6">
    <path d="M 54 34.56 
L 388.8 34.56 
" style="fill:none;stroke:#000000;stroke-linecap:square;stroke-linejoin:miter;stroke-width:0.8;"/>
   </g>
  </g>
 </g>
 <defs>
  <clipPath id="p7961ac0440">
   <rect height="217.44" width="334.8" x="54" y="34.56"/>
  </clipPath>
 </defs>
</svg>
