<?xml version="1.0" encoding="utf-8" standalone="no"?>
<!DOCTYPE svg PUBLIC "-//W3C//DTD SVG 1.1//EN"
  "http://www.w3.org/Graphics/SVG/1.1/DTD/svg11.dtd">
<!-- Created with matplotlib (https://matplotlib.org/) -->
<svg height="288pt" version="1.1" viewBox="0 0 432 288" width="432pt" xmlns="http://www.w3.org/2000/svg" xmlns:xlink="http://www.w3.org/1999/xlink">
 <defs>
  <style type="text/css">
*{stroke-linecap:butt;stroke-linejoin:round;}
  </style>
 </defs>
 <g id="figure_1">
  <g id="patch_1">
   <path d="M 0 288 
L 432 288 
L 432 0 
L 0 0 
z
" style="fill:#ffffff;"/>
  </g>
  <g id="axes_1">
   <g id="patch_2">
    <path d="M 54 252 
L 388.8 252 
L 388.8 34.56 
L 54 34.56 
z
" style="fill:#ffffff;"/>
   </g>
   <g id="matplotlib.axis_1">
    <g id="xtick_1">
     <g id="line2d_1">
      <defs>
       <path d="M 0 0 
L 0 3.5 
" id="me3850a2d83" style="stroke:#000000;stroke-width:0.8;"/>
      </defs>
      <g>
       <use style="stroke:#000000;stroke-width:0.8;" x="69.218182" xlink:href="#me3850a2d83" y="252"/>
      </g>
     </g>
     <g id="text_1">
      <!-- 0 -->
      <defs>
       <path d="M 31.78125 66.40625 
Q 24.171875 66.40625 20.328125 58.90625 
Q 16.5 51.421875 16.5 36.375 
Q 16.5 21.390625 20.328125 13.890625 
Q 24.171875 6.390625 31.78125 6.390625 
Q 39.453125 6.390625 43.28125 13.890625 
Q 47.125 21.390625 47.125 36.375 
Q 47.125 51.421875 43.28125 58.90625 
Q 39.453125 66.40625 31.78125 66.40625 
z
M 31.78125 74.21875 
Q 44.046875 74.21875 50.515625 64.515625 
Q 56.984375 54.828125 56.984375 36.375 
Q 56.984375 17.96875 50.515625 8.265625 
Q 44.046875 -1.421875 31.78125 -1.421875 
Q 19.53125 -1.421875 13.0625 8.265625 
Q 6.59375 17.96875 6.59375 36.375 
Q 6.59375 54.828125 13.0625 64.515625 
Q 19.53125 74.21875 31.78125 74.21875 
z
" id="DejaVuSans-48"/>
      </defs>
      <g transform="translate(66.036932 266.598437)scale(0.1 -0.1)">
       <use xlink:href="#DejaVuSans-48"/>
      </g>
     </g>
    </g>
    <g id="xtick_2">
     <g id="line2d_2">
      <g>
       <use style="stroke:#000000;stroke-width:0.8;" x="118.788807" xlink:href="#me3850a2d83" y="252"/>
      </g>
     </g>
     <g id="text_2">
      <!-- 500 -->
      <defs>
       <path d="M 10.796875 72.90625 
L 49.515625 72.90625 
L 49.515625 64.59375 
L 19.828125 64.59375 
L 19.828125 46.734375 
Q 21.96875 47.46875 24.109375 47.828125 
Q 26.265625 48.1875 28.421875 48.1875 
Q 40.625 48.1875 47.75 41.5 
Q 54.890625 34.8125 54.890625 23.390625 
Q 54.890625 11.625 47.5625 5.09375 
Q 40.234375 -1.421875 26.90625 -1.421875 
Q 22.3125 -1.421875 17.546875 -0.640625 
Q 12.796875 0.140625 7.71875 1.703125 
L 7.71875 11.625 
Q 12.109375 9.234375 16.796875 8.0625 
Q 21.484375 6.890625 26.703125 6.890625 
Q 35.15625 6.890625 40.078125 11.328125 
Q 45.015625 15.765625 45.015625 23.390625 
Q 45.015625 31 40.078125 35.4375 
Q 35.15625 39.890625 26.703125 39.890625 
Q 22.75 39.890625 18.8125 39.015625 
Q 14.890625 38.140625 10.796875 36.28125 
z
" id="DejaVuSans-53"/>
      </defs>
      <g transform="translate(109.245057 266.598437)scale(0.1 -0.1)">
       <use xlink:href="#DejaVuSans-53"/>
       <use x="63.623047" xlink:href="#DejaVuSans-48"/>
       <use x="127.246094" xlink:href="#DejaVuSans-48"/>
      </g>
     </g>
    </g>
    <g id="xtick_3">
     <g id="line2d_3">
      <g>
       <use style="stroke:#000000;stroke-width:0.8;" x="168.359431" xlink:href="#me3850a2d83" y="252"/>
      </g>
     </g>
     <g id="text_3">
      <!-- 1000 -->
      <defs>
       <path d="M 12.40625 8.296875 
L 28.515625 8.296875 
L 28.515625 63.921875 
L 10.984375 60.40625 
L 10.984375 69.390625 
L 28.421875 72.90625 
L 38.28125 72.90625 
L 38.28125 8.296875 
L 54.390625 8.296875 
L 54.390625 0 
L 12.40625 0 
z
" id="DejaVuSans-49"/>
      </defs>
      <g transform="translate(155.634431 266.598437)scale(0.1 -0.1)">
       <use xlink:href="#DejaVuSans-49"/>
       <use x="63.623047" xlink:href="#DejaVuSans-48"/>
       <use x="127.246094" xlink:href="#DejaVuSans-48"/>
       <use x="190.869141" xlink:href="#DejaVuSans-48"/>
      </g>
     </g>
    </g>
    <g id="xtick_4">
     <g id="line2d_4">
      <g>
       <use style="stroke:#000000;stroke-width:0.8;" x="217.930056" xlink:href="#me3850a2d83" y="252"/>
      </g>
     </g>
     <g id="text_4">
      <!-- 1500 -->
      <g transform="translate(205.205056 266.598437)scale(0.1 -0.1)">
       <use xlink:href="#DejaVuSans-49"/>
       <use x="63.623047" xlink:href="#DejaVuSans-53"/>
       <use x="127.246094" xlink:href="#DejaVuSans-48"/>
       <use x="190.869141" xlink:href="#DejaVuSans-48"/>
      </g>
     </g>
    </g>
    <g id="xtick_5">
     <g id="line2d_5">
      <g>
       <use style="stroke:#000000;stroke-width:0.8;" x="267.500681" xlink:href="#me3850a2d83" y="252"/>
      </g>
     </g>
     <g id="text_5">
      <!-- 2000 -->
      <defs>
       <path d="M 19.1875 8.296875 
L 53.609375 8.296875 
L 53.609375 0 
L 7.328125 0 
L 7.328125 8.296875 
Q 12.9375 14.109375 22.625 23.890625 
Q 32.328125 33.6875 34.8125 36.53125 
Q 39.546875 41.84375 41.421875 45.53125 
Q 43.3125 49.21875 43.3125 52.78125 
Q 43.3125 58.59375 39.234375 62.25 
Q 35.15625 65.921875 28.609375 65.921875 
Q 23.96875 65.921875 18.8125 64.3125 
Q 13.671875 62.703125 7.8125 59.421875 
L 7.8125 69.390625 
Q 13.765625 71.78125 18.9375 73 
Q 24.125 74.21875 28.421875 74.21875 
Q 39.75 74.21875 46.484375 68.546875 
Q 53.21875 62.890625 53.21875 53.421875 
Q 53.21875 48.921875 51.53125 44.890625 
Q 49.859375 40.875 45.40625 35.40625 
Q 44.1875 33.984375 37.640625 27.21875 
Q 31.109375 20.453125 19.1875 8.296875 
z
" id="DejaVuSans-50"/>
      </defs>
      <g transform="translate(254.775681 266.598437)scale(0.1 -0.1)">
       <use xlink:href="#DejaVuSans-50"/>
       <use x="63.623047" xlink:href="#DejaVuSans-48"/>
       <use x="127.246094" xlink:href="#DejaVuSans-48"/>
       <use x="190.869141" xlink:href="#DejaVuSans-48"/>
      </g>
     </g>
    </g>
    <g id="xtick_6">
     <g id="line2d_6">
      <g>
       <use style="stroke:#000000;stroke-width:0.8;" x="317.071306" xlink:href="#me3850a2d83" y="252"/>
      </g>
     </g>
     <g id="text_6">
      <!-- 2500 -->
      <g transform="translate(304.346306 266.598437)scale(0.1 -0.1)">
       <use xlink:href="#DejaVuSans-50"/>
       <use x="63.623047" xlink:href="#DejaVuSans-53"/>
       <use x="127.246094" xlink:href="#DejaVuSans-48"/>
       <use x="190.869141" xlink:href="#DejaVuSans-48"/>
      </g>
     </g>
    </g>
    <g id="xtick_7">
     <g id="line2d_7">
      <g>
       <use style="stroke:#000000;stroke-width:0.8;" x="366.641931" xlink:href="#me3850a2d83" y="252"/>
      </g>
     </g>
     <g id="text_7">
      <!-- 3000 -->
      <defs>
       <path d="M 40.578125 39.3125 
Q 47.65625 37.796875 51.625 33 
Q 55.609375 28.21875 55.609375 21.1875 
Q 55.609375 10.40625 48.1875 4.484375 
Q 40.765625 -1.421875 27.09375 -1.421875 
Q 22.515625 -1.421875 17.65625 -0.515625 
Q 12.796875 0.390625 7.625 2.203125 
L 7.625 11.71875 
Q 11.71875 9.328125 16.59375 8.109375 
Q 21.484375 6.890625 26.8125 6.890625 
Q 36.078125 6.890625 40.9375 10.546875 
Q 45.796875 14.203125 45.796875 21.1875 
Q 45.796875 27.640625 41.28125 31.265625 
Q 36.765625 34.90625 28.71875 34.90625 
L 20.21875 34.90625 
L 20.21875 43.015625 
L 29.109375 43.015625 
Q 36.375 43.015625 40.234375 45.921875 
Q 44.09375 48.828125 44.09375 54.296875 
Q 44.09375 59.90625 40.109375 62.90625 
Q 36.140625 65.921875 28.71875 65.921875 
Q 24.65625 65.921875 20.015625 65.03125 
Q 15.375 64.15625 9.8125 62.3125 
L 9.8125 71.09375 
Q 15.4375 72.65625 20.34375 73.4375 
Q 25.25 74.21875 29.59375 74.21875 
Q 40.828125 74.21875 47.359375 69.109375 
Q 53.90625 64.015625 53.90625 55.328125 
Q 53.90625 49.265625 50.4375 45.09375 
Q 46.96875 40.921875 40.578125 39.3125 
z
" id="DejaVuSans-51"/>
      </defs>
      <g transform="translate(353.916931 266.598437)scale(0.1 -0.1)">
       <use xlink:href="#DejaVuSans-51"/>
       <use x="63.623047" xlink:href="#DejaVuSans-48"/>
       <use x="127.246094" xlink:href="#DejaVuSans-48"/>
       <use x="190.869141" xlink:href="#DejaVuSans-48"/>
      </g>
     </g>
    </g>
   </g>
   <g id="matplotlib.axis_2">
    <g id="ytick_1">
     <g id="line2d_8">
      <defs>
       <path d="M 0 0 
L -3.5 0 
" id="m87fae6bcdc" style="stroke:#000000;stroke-width:0.8;"/>
      </defs>
      <g>
       <use style="stroke:#000000;stroke-width:0.8;" x="54" xlink:href="#m87fae6bcdc" y="243.141443"/>
      </g>
     </g>
     <g id="text_8">
      <!-- 0 -->
      <g transform="translate(40.6375 246.940661)scale(0.1 -0.1)">
       <use xlink:href="#DejaVuSans-48"/>
      </g>
     </g>
    </g>
    <g id="ytick_2">
     <g id="line2d_9">
      <g>
       <use style="stroke:#000000;stroke-width:0.8;" x="54" xlink:href="#m87fae6bcdc" y="200.283087"/>
      </g>
     </g>
     <g id="text_9">
      <!-- 5 -->
      <g transform="translate(40.6375 204.082306)scale(0.1 -0.1)">
       <use xlink:href="#DejaVuSans-53"/>
      </g>
     </g>
    </g>
    <g id="ytick_3">
     <g id="line2d_10">
      <g>
       <use style="stroke:#000000;stroke-width:0.8;" x="54" xlink:href="#m87fae6bcdc" y="157.424731"/>
      </g>
     </g>
     <g id="text_10">
      <!-- 10 -->
      <g transform="translate(34.275 161.22395)scale(0.1 -0.1)">
       <use xlink:href="#DejaVuSans-49"/>
       <use x="63.623047" xlink:href="#DejaVuSans-48"/>
      </g>
     </g>
    </g>
    <g id="ytick_4">
     <g id="line2d_11">
      <g>
       <use style="stroke:#000000;stroke-width:0.8;" x="54" xlink:href="#m87fae6bcdc" y="114.566376"/>
      </g>
     </g>
     <g id="text_11">
      <!-- 15 -->
      <g transform="translate(34.275 118.365595)scale(0.1 -0.1)">
       <use xlink:href="#DejaVuSans-49"/>
       <use x="63.623047" xlink:href="#DejaVuSans-53"/>
      </g>
     </g>
    </g>
    <g id="ytick_5">
     <g id="line2d_12">
      <g>
       <use style="stroke:#000000;stroke-width:0.8;" x="54" xlink:href="#m87fae6bcdc" y="71.70802"/>
      </g>
     </g>
     <g id="text_12">
      <!-- 20 -->
      <g transform="translate(34.275 75.507239)scale(0.1 -0.1)">
       <use xlink:href="#DejaVuSans-50"/>
       <use x="63.623047" xlink:href="#DejaVuSans-48"/>
      </g>
     </g>
    </g>
   </g>
   <g id="line2d_13">
    <path clip-path="url(#paa88d297f9)" d="M 69.218182 93.606443 
L 69.614747 104.92144 
L 69.912171 112.793985 
L 70.209594 110.146008 
L 70.308736 109.994616 
L 70.507018 112.743396 
L 70.606159 112.554251 
L 70.705301 112.023041 
L 70.804442 112.142605 
L 70.903583 111.542566 
L 71.002724 112.814972 
L 71.101866 111.005384 
L 71.300148 116.064223 
L 71.498431 118.604685 
L 71.597572 117.282201 
L 71.696713 117.653644 
L 71.795854 116.886488 
L 71.994137 114.867426 
L 72.192419 115.708842 
L 72.390702 118.815136 
L 72.688126 117.385906 
L 72.787267 117.699638 
L 72.886408 119.426574 
L 72.985549 118.437035 
L 73.084691 120.624993 
L 73.183832 116.78293 
L 73.481256 119.327126 
L 74.175244 124.163042 
L 74.472668 118.551555 
L 74.571809 119.559222 
L 74.670951 118.213515 
L 74.968374 122.341425 
L 75.067516 122.27851 
L 75.166657 125.729851 
L 75.265798 124.663893 
L 75.364939 121.476349 
L 75.464081 121.535491 
L 75.563222 122.008467 
L 75.662363 121.642206 
L 76.058928 118.465612 
L 76.158069 118.487499 
L 76.257211 123.184341 
L 76.356352 123.181461 
L 76.455493 124.419494 
L 76.554634 123.148024 
L 76.653776 126.120906 
L 77.248623 117.394618 
L 77.446906 120.348513 
L 77.645188 118.632941 
L 77.843471 120.540544 
L 77.942612 121.868282 
L 78.041753 120.079339 
L 78.140894 122.130718 
L 78.339177 118.734924 
L 78.537459 123.662874 
L 78.834883 118.92326 
L 78.934024 122.058246 
L 79.033166 121.896288 
L 79.132307 122.382579 
L 79.231448 124.247313 
L 79.330589 123.44599 
L 79.429731 124.172267 
L 79.528872 126.394273 
L 79.727154 125.05392 
L 79.826296 125.244634 
L 80.123719 121.498302 
L 80.322002 118.782138 
L 80.520284 115.634321 
L 80.817708 118.452304 
L 81.313414 111.897656 
L 81.412556 112.048309 
L 81.610838 109.549742 
L 81.709979 111.290668 
L 82.106544 106.03885 
L 82.205686 109.118269 
L 82.304827 106.689594 
L 82.403968 107.310164 
L 82.701392 102.334264 
L 82.800533 101.996432 
L 82.899674 100.57085 
L 82.998816 100.883627 
L 83.097957 103.106671 
L 83.197098 101.44167 
L 83.296239 101.857577 
L 83.395381 100.986382 
L 83.494522 101.1242 
L 83.593663 101.479454 
L 83.692804 101.287296 
L 83.891087 106.97277 
L 83.990228 105.961185 
L 84.089369 106.281841 
L 84.188511 106.046838 
L 84.287652 108.483891 
L 84.386793 107.784206 
L 84.684217 114.476366 
L 84.783358 112.08037 
L 84.981641 114.230333 
L 85.179923 111.575565 
L 85.378206 114.587377 
L 85.477347 112.325724 
L 85.576488 114.096981 
L 85.675629 113.703292 
L 85.774771 114.897573 
L 85.873912 113.951242 
L 85.973053 117.14893 
L 86.171336 113.355943 
L 86.270477 115.294377 
L 86.468759 111.922671 
L 86.567901 112.515683 
L 86.667042 110.241168 
L 86.766183 113.450317 
L 87.063607 109.442459 
L 87.261889 108.593829 
L 87.361031 106.818613 
L 87.460172 108.547771 
L 87.559313 107.788725 
L 87.658454 108.938161 
L 87.955878 103.652019 
L 88.055019 105.368153 
L 88.15416 104.83331 
L 88.253302 102.298499 
L 88.451584 103.189489 
L 88.550725 101.886677 
L 88.749008 96.749016 
L 88.848149 96.798606 
L 88.94729 97.705505 
L 89.542138 90.328463 
L 89.839562 83.139125 
L 89.938703 82.333082 
L 90.037844 79.263046 
L 90.136985 82.947447 
L 90.434409 76.455406 
L 90.53355 77.083732 
L 90.632692 76.598478 
L 90.830974 74.28402 
L 91.029257 76.428726 
L 91.128398 74.715966 
L 91.227539 77.209164 
L 91.32668 76.517475 
L 91.425822 77.129989 
L 91.524963 77.011946 
L 91.624104 76.098879 
L 91.822387 77.520989 
L 92.020669 82.31603 
L 92.11981 79.595398 
L 92.218952 83.459123 
L 92.516375 78.251087 
L 92.615517 78.300975 
L 92.714658 80.983809 
L 92.813799 80.706228 
L 93.012082 70.945707 
L 93.111223 71.26682 
L 93.408647 64.965726 
L 93.70607 62.258285 
L 93.805212 62.962869 
L 94.201777 53.314626 
L 94.400059 54.82763 
L 94.697483 55.956494 
L 94.994907 62.73979 
L 95.29233 59.986593 
L 95.391472 64.946919 
L 95.490613 64.542091 
L 95.589754 65.536454 
L 95.688895 68.121204 
L 95.788037 66.469178 
L 95.887178 68.725563 
L 96.283743 60.831795 
L 96.482025 62.931287 
L 96.581167 63.622582 
L 96.779449 56.184151 
L 96.87859 56.46342 
L 97.076873 55.58325 
L 97.275155 58.075883 
L 97.374297 55.094288 
L 97.473438 56.094722 
L 97.770862 51.50576 
L 97.870003 54.079216 
L 98.068285 50.375281 
L 98.266568 58.290644 
L 98.365709 57.314669 
L 98.46485 58.455149 
L 98.563992 57.014303 
L 98.762274 59.396357 
L 98.861415 63.195504 
L 99.059698 60.106622 
L 99.158839 59.430605 
L 99.357122 51.293614 
L 99.456263 48.920442 
L 99.555404 50.993011 
L 99.852828 44.443636 
L 100.05111 57.297759 
L 100.150252 54.075647 
L 100.546817 58.808646 
L 100.645958 58.122192 
L 100.745099 59.568819 
L 100.84424 55.539661 
L 101.240805 70.679065 
L 101.538229 78.435808 
L 101.736512 83.068188 
L 101.835653 82.59193 
L 101.934794 80.575453 
L 102.033935 76.051662 
L 102.133077 77.752624 
L 102.232218 75.485213 
L 102.331359 75.952087 
L 102.4305 71.428326 
L 102.529642 74.127362 
L 102.628783 73.999973 
L 102.727924 73.236587 
L 102.827065 75.576596 
L 103.025348 68.149764 
L 103.124489 68.550865 
L 103.22363 68.750026 
L 103.322772 65.962495 
L 103.421913 68.574849 
L 103.620195 64.96116 
L 103.719337 65.349949 
L 104.01676 73.403272 
L 104.115902 71.244933 
L 104.215043 71.269177 
L 104.413325 75.455155 
L 104.710749 70.344067 
L 104.80989 70.447128 
L 105.008173 71.927052 
L 105.206455 70.759446 
L 105.404738 74.434643 
L 105.801303 66.353645 
L 105.900444 69.1056 
L 105.999585 67.317914 
L 106.197868 70.080661 
L 106.297009 68.378421 
L 106.495292 70.571791 
L 106.594433 71.023613 
L 106.792715 74.875972 
L 106.891857 73.347695 
L 106.990998 73.669323 
L 107.18928 77.110247 
L 107.288422 77.12473 
L 107.387563 76.974853 
L 107.486704 79.553142 
L 107.684987 86.441861 
L 107.784128 86.434764 
L 107.883269 81.681826 
L 107.98241 82.690016 
L 108.081552 81.521088 
L 108.378975 84.944989 
L 108.874682 104.617886 
L 109.072964 100.530717 
L 109.172105 100.723139 
L 109.271247 103.357283 
L 109.370388 101.842352 
L 109.469529 101.894489 
L 109.56867 102.095477 
L 109.866094 107.543422 
L 109.965235 106.320231 
L 110.262659 111.761745 
L 110.3618 111.601686 
L 110.758365 98.51833 
L 110.857507 97.293454 
L 111.055789 104.717795 
L 111.254072 101.108093 
L 111.353213 103.293366 
L 111.650637 98.342929 
L 112.146343 101.970684 
L 112.245484 103.774851 
L 112.344625 100.320945 
L 112.443767 101.864081 
L 112.542908 106.999552 
L 112.642049 105.247984 
L 112.840332 106.667955 
L 112.939473 105.891488 
L 113.038614 107.508669 
L 113.236897 113.918695 
L 113.633462 121.001376 
L 113.732603 120.770437 
L 114.030027 124.019462 
L 114.129168 122.732264 
L 114.228309 119.841184 
L 114.426592 122.702863 
L 114.724015 124.121547 
L 114.922298 127.759054 
L 115.12058 127.977656 
L 115.219722 128.98746 
L 115.318863 126.402551 
L 115.517145 129.524565 
L 115.616287 127.829175 
L 115.715428 128.949587 
L 116.310275 141.879974 
L 116.409417 139.943718 
L 116.508558 140.297576 
L 116.70684 144.326519 
L 116.905123 141.771776 
L 117.103405 144.706004 
L 117.202547 144.877132 
L 117.301688 145.328947 
L 117.400829 143.857532 
L 117.49997 144.904569 
L 117.698253 151.273845 
L 117.797394 150.543851 
L 117.995677 153.029703 
L 118.094818 152.083655 
L 118.193959 152.681452 
L 118.2931 152.06026 
L 118.491383 156.714443 
L 118.590524 157.452678 
L 118.987089 165.726006 
L 119.08623 166.866624 
L 119.185372 165.490431 
L 119.383654 168.950629 
L 119.482795 169.62824 
L 119.581937 171.797283 
L 119.681078 169.380894 
L 119.780219 171.865832 
L 119.87936 170.314884 
L 120.176784 173.227112 
L 120.375067 177.851756 
L 120.474208 176.864274 
L 120.573349 177.039764 
L 121.069055 180.757917 
L 121.366479 188.930961 
L 121.46562 190.582659 
L 121.564762 190.170418 
L 121.862185 196.624252 
L 121.961327 196.634249 
L 122.060468 196.990476 
L 122.556174 203.910224 
L 122.655315 203.30236 
L 122.754457 203.507789 
L 122.853598 202.534551 
L 122.952739 203.661339 
L 123.151022 202.796462 
L 123.349304 203.155876 
L 123.448445 203.62544 
L 123.646728 206.527172 
L 123.745869 206.07495 
L 123.84501 206.386101 
L 124.241575 210.014573 
L 124.439858 210.382845 
L 124.538999 210.916178 
L 124.836423 213.94248 
L 124.935564 214.042357 
L 125.232988 216.871448 
L 125.43127 218.333474 
L 125.629553 217.636183 
L 125.827835 218.716556 
L 125.926977 218.807183 
L 126.026118 218.669633 
L 126.125259 218.790504 
L 126.323542 219.351772 
L 126.422683 219.654564 
L 126.521824 219.043002 
L 126.720107 219.763831 
L 126.918389 219.585551 
L 127.01753 219.30435 
L 127.116672 219.764808 
L 127.414095 218.579741 
L 127.81066 219.454144 
L 128.108084 218.972825 
L 128.207225 218.986397 
L 128.405508 217.963037 
L 128.504649 218.531337 
L 128.60379 217.726012 
L 128.702932 217.822438 
L 128.901214 217.59469 
L 129.000355 217.820641 
L 129.099497 217.420037 
L 129.297779 217.749206 
L 129.39692 217.857476 
L 129.496062 217.224555 
L 129.595203 217.404703 
L 129.694344 217.352699 
L 129.991768 216.645279 
L 130.289192 217.60576 
L 130.388333 217.601268 
L 130.487474 217.287426 
L 130.586615 217.691355 
L 130.685757 217.407283 
L 130.784898 217.707496 
L 130.98318 218.42233 
L 131.082322 218.847157 
L 131.181463 218.777589 
L 131.578028 220.339273 
L 131.677169 220.277568 
L 131.77631 220.043417 
L 131.974593 221.001475 
L 132.172875 220.498783 
L 132.272017 220.191428 
L 132.470299 221.152349 
L 132.56944 221.074676 
L 132.767723 221.431814 
L 132.866864 220.929504 
L 133.461712 221.295774 
L 133.659994 221.073391 
L 133.759135 221.089759 
L 133.858277 220.925608 
L 134.056559 221.207629 
L 134.254842 221.804593 
L 134.353983 221.7515 
L 134.453124 221.578231 
L 134.552265 221.674859 
L 134.651407 221.973801 
L 134.750548 221.88089 
L 134.94883 222.325171 
L 135.047972 222.459046 
L 135.147113 222.339289 
L 135.345395 222.567481 
L 135.444537 222.466176 
L 135.543678 222.524871 
L 136.138525 224.316178 
L 136.336808 224.854613 
L 136.733373 226.260009 
L 137.129938 227.424314 
L 137.32822 227.500619 
L 137.625644 228.053199 
L 137.724785 228.107698 
L 137.923068 228.893299 
L 138.022209 229.011251 
L 138.12135 228.934255 
L 138.319633 229.213915 
L 138.418774 229.085903 
L 138.617057 229.281135 
L 138.716198 229.209119 
L 139.70761 231.081898 
L 139.905893 230.934339 
L 140.005034 230.856323 
L 140.203317 231.132826 
L 140.699023 231.296448 
L 140.798164 231.158891 
L 140.897305 231.398512 
L 141.095588 231.029383 
L 141.29387 230.955161 
L 141.393012 230.864181 
L 141.690435 231.30393 
L 141.888718 231.379928 
L 142.186142 231.833045 
L 142.483565 231.755034 
L 142.780989 232.333563 
L 142.979272 232.281971 
L 143.078413 232.404567 
L 143.276695 232.851975 
L 143.375837 232.85774 
L 143.574119 232.570594 
L 143.871543 232.933652 
L 144.168967 232.767358 
L 144.268108 232.729421 
L 144.367249 232.562152 
L 144.46639 232.670341 
L 144.664673 232.518274 
L 144.763814 232.578596 
L 144.862955 232.444822 
L 145.061238 232.913679 
L 145.160379 232.75948 
L 145.457803 233.402616 
L 145.556944 233.504313 
L 145.755227 233.149487 
L 145.953509 233.493722 
L 146.05265 233.331731 
L 146.151792 233.345077 
L 146.250933 233.497247 
L 146.449215 233.970796 
L 146.548357 234.255327 
L 146.746639 234.158952 
L 146.84578 234.230684 
L 147.044063 233.880921 
L 147.242345 233.800609 
L 147.341487 234.005325 
L 147.539769 233.908476 
L 147.738052 234.151249 
L 147.936334 233.824135 
L 148.035475 233.871934 
L 148.134617 233.743367 
L 148.43204 234.135171 
L 148.531182 234.064211 
L 148.927747 234.46186 
L 149.126029 234.682408 
L 149.324312 234.459357 
L 149.522594 234.67843 
L 149.621735 234.604025 
L 149.720877 234.71502 
L 149.820018 235.014857 
L 149.919159 234.977974 
L 150.117442 235.319086 
L 150.315724 235.080158 
L 150.414865 235.053476 
L 150.514007 234.883847 
L 150.712289 234.94019 
L 150.910572 234.988082 
L 151.009713 234.967255 
L 151.307137 235.2744 
L 151.505419 235.180181 
L 151.703702 235.219474 
L 151.901984 235.140803 
L 152.199408 235.703891 
L 152.298549 235.699802 
L 152.39769 235.503104 
L 152.496832 235.744554 
L 152.695114 235.442039 
L 153.091679 235.602323 
L 153.289962 235.837385 
L 153.587385 235.810777 
L 153.785668 235.704426 
L 153.884809 235.939899 
L 154.182233 235.438858 
L 154.677939 235.96344 
L 155.966775 236.666725 
L 156.165058 237.111144 
L 156.264199 236.983217 
L 156.462481 237.011108 
L 156.759905 233.668464 
L 156.859046 233.841909 
L 157.057329 233.777695 
L 157.15647 233.760711 
L 157.255611 233.916816 
L 157.751318 229.922659 
L 158.048741 230.086086 
L 158.147883 230.023977 
L 158.346165 222.048384 
L 158.544448 218.08224 
L 158.74273 220.150893 
L 159.238436 220.19825 
L 159.635001 223.532822 
L 159.734143 223.74128 
L 159.833284 222.875515 
L 159.932425 222.924215 
L 160.130708 222.801715 
L 160.229849 229.829272 
L 160.32899 229.61012 
L 160.527273 234.019617 
L 160.725555 231.905591 
L 160.923838 231.841394 
L 161.12212 230.523858 
L 161.221261 230.4172 
L 161.320403 229.957061 
L 161.518685 230.885442 
L 161.617826 231.001342 
L 161.716968 230.849762 
L 161.816109 231.719543 
L 161.91525 231.702332 
L 162.113533 231.082211 
L 162.212674 230.937598 
L 162.510098 233.380496 
L 162.609239 233.322477 
L 162.807521 231.226515 
L 162.906663 231.204526 
L 163.005804 232.542465 
L 163.104945 232.412197 
L 163.204086 232.550583 
L 163.402369 232.105732 
L 163.50151 232.146493 
L 163.699793 229.461954 
L 163.898075 229.286941 
L 164.096358 230.08024 
L 164.29464 229.66152 
L 164.393781 227.314607 
L 164.492923 227.390809 
L 164.790346 231.485718 
L 164.988629 229.685505 
L 165.08777 229.765015 
L 165.186911 229.452204 
L 165.286053 230.198129 
L 165.385194 230.17723 
L 165.484335 230.022135 
L 165.583476 232.63996 
L 165.980041 226.097999 
L 166.079183 226.01193 
L 166.277465 226.683205 
L 166.475748 229.115113 
L 166.574889 229.033136 
L 166.67403 229.143127 
L 166.773171 229.013411 
L 166.872313 230.509937 
L 167.070595 228.073874 
L 167.169736 228.320461 
L 167.368019 227.391308 
L 167.566301 227.544643 
L 167.665443 229.612726 
L 167.764584 229.472106 
L 167.863725 228.300835 
L 167.962866 230.489212 
L 168.062008 229.840594 
L 168.26029 228.225545 
L 168.458573 228.111254 
L 168.656855 225.366996 
L 168.755996 225.4327 
L 168.855138 225.718649 
L 169.05342 227.962622 
L 169.152561 227.945629 
L 169.251703 228.693583 
L 169.648268 223.572369 
L 169.84655 226.530484 
L 169.945691 226.545253 
L 170.044833 226.357199 
L 170.143974 227.921341 
L 170.243115 227.75237 
L 170.441398 227.893259 
L 170.63968 230.606395 
L 170.837963 230.468091 
L 171.036245 230.570981 
L 171.135386 229.613888 
L 171.234528 226.82582 
L 171.531951 231.502638 
L 171.730234 226.604381 
L 171.829375 227.275186 
L 171.928516 227.183 
L 172.027658 228.077052 
L 172.126799 228.059283 
L 172.325081 228.169598 
L 172.424223 228.08824 
L 172.622505 227.412684 
L 172.919929 227.543963 
L 173.01907 227.327312 
L 173.118211 228.239789 
L 173.217353 231.168103 
L 173.316494 226.74171 
L 173.415635 226.885245 
L 173.514776 226.942281 
L 173.713059 231.912652 
L 174.010483 232.053256 
L 174.109624 231.285465 
L 174.208765 229.254749 
L 174.407048 223.458292 
L 174.60533 224.244815 
L 174.902754 224.226046 
L 175.001895 224.419191 
L 175.101036 224.33911 
L 175.200178 222.496588 
L 175.299319 226.967702 
L 175.497601 226.151636 
L 175.596743 226.02707 
L 175.894166 225.260524 
L 176.092449 218.662006 
L 176.19159 219.465368 
L 176.389873 225.225244 
L 176.588155 225.098347 
L 176.687296 224.680257 
L 176.786438 222.430457 
L 176.885579 222.569095 
L 177.083861 222.630031 
L 177.183003 224.521891 
L 177.282144 224.506653 
L 177.480426 225.340719 
L 177.579568 225.032374 
L 177.77785 225.488595 
L 177.876991 225.809798 
L 178.075274 233.163134 
L 178.273556 234.495562 
L 178.670121 234.510186 
L 178.769263 236.467246 
L 178.868404 236.012659 
L 178.967545 236.097726 
L 179.066686 235.270822 
L 179.165828 235.32573 
L 179.264969 235.403931 
L 179.36411 235.23669 
L 179.463251 234.696511 
L 179.562393 233.042292 
L 179.661534 233.065877 
L 180.058099 233.00582 
L 180.256381 230.321159 
L 180.553805 230.152952 
L 180.851229 231.405447 
L 180.95037 231.325755 
L 181.049511 232.1548 
L 181.148653 232.097273 
L 181.247794 231.34648 
L 181.346935 231.524607 
L 181.446076 230.408851 
L 181.545218 232.513673 
L 181.644359 232.479968 
L 181.941783 232.526359 
L 182.040924 232.331041 
L 182.239206 235.039779 
L 182.338348 235.057152 
L 182.53663 232.852341 
L 182.635771 232.975432 
L 182.834054 229.932438 
L 183.131478 230.07449 
L 183.230619 230.834437 
L 183.32976 228.850136 
L 183.528043 230.489881 
L 183.825466 230.555797 
L 184.023749 230.885628 
L 184.222031 230.787377 
L 184.321173 230.864503 
L 184.420314 231.541002 
L 184.717738 236.256774 
L 185.015161 236.385372 
L 185.213444 236.31733 
L 185.411726 238.443688 
L 186.403139 239.174211 
L 186.898845 239.026188 
L 187.196269 239.10252 
L 187.29541 239.159556 
L 187.493693 238.827231 
L 187.791116 238.960659 
L 187.989399 238.862749 
L 188.286823 238.835368 
L 188.385964 238.762814 
L 188.683388 238.898419 
L 188.88167 238.95303 
L 189.079953 238.96938 
L 189.377376 239.055621 
L 189.476518 239.193914 
L 189.773941 239.026213 
L 189.873083 239.1522 
L 190.071365 239.048441 
L 190.269648 238.996775 
L 190.46793 239.108137 
L 190.765354 239.24235 
L 191.26106 239.372366 
L 191.756766 239.1939 
L 192.153331 239.348534 
L 192.351614 239.415346 
L 193.442168 239.535608 
L 193.64045 239.791688 
L 194.037015 239.739543 
L 195.22671 239.870382 
L 195.424993 239.867418 
L 197.308676 240.036368 
L 197.506959 240.091975 
L 197.804383 240.207595 
L 198.101806 240.204689 
L 199.886349 240.089146 
L 200.183773 239.993605 
L 200.580338 240.078607 
L 200.77862 240.061444 
L 201.373468 240.004324 
L 201.670891 239.942896 
L 202.265739 240.044838 
L 202.464021 240.058932 
L 203.058869 240.167497 
L 203.455434 240.412105 
L 203.653716 240.356312 
L 204.149423 240.534402 
L 204.347705 240.457357 
L 205.239976 240.558602 
L 205.438259 240.515338 
L 205.5374 240.63391 
L 205.933965 240.39482 
L 206.231389 240.533691 
L 206.727095 240.565166 
L 207.222801 240.456461 
L 207.520225 240.31109 
L 207.718508 240.341708 
L 208.313355 240.398779 
L 208.70992 240.303265 
L 209.106485 240.376913 
L 209.205626 240.351673 
L 209.50305 240.557437 
L 211.287593 240.895414 
L 211.585016 240.953675 
L 211.783299 240.994273 
L 212.179864 240.954502 
L 212.576429 240.921274 
L 212.774711 240.946959 
L 212.972994 240.945404 
L 213.270418 241.056781 
L 214.360971 241.08316 
L 216.938644 241.25027 
L 218.22748 241.156737 
L 219.81374 241.071275 
L 221.102576 241.194734 
L 221.300859 241.183933 
L 223.085401 241.236512 
L 223.283684 241.272913 
L 223.878531 241.241596 
L 224.275096 241.273455 
L 224.671661 241.262779 
L 225.960497 241.30792 
L 226.357062 241.371056 
L 226.852769 241.383484 
L 227.447616 241.441699 
L 227.74504 241.440705 
L 228.042464 241.412256 
L 230.520995 241.235666 
L 231.016701 241.349491 
L 232.305537 241.306999 
L 233.098667 241.190984 
L 233.792656 241.303339 
L 235.279775 241.330853 
L 235.577199 241.27645 
L 235.874622 241.323067 
L 237.758306 241.319305 
L 238.254012 241.266025 
L 238.749719 241.356624 
L 241.823097 241.464531 
L 242.120521 241.508086 
L 242.517086 241.502802 
L 244.40077 241.571196 
L 244.797335 241.539987 
L 246.581877 241.496221 
L 247.375007 241.542341 
L 250.051821 241.344651 
L 250.844951 241.389595 
L 253.720047 241.48828 
L 254.215754 241.455646 
L 254.513177 241.46908 
L 256.694285 241.475269 
L 257.09085 241.476303 
L 260.461652 241.443468 
L 260.759076 241.442169 
L 262.940184 241.58436 
L 263.237607 241.513525 
L 266.707551 241.434442 
L 267.004975 241.450463 
L 268.095529 241.452258 
L 286.040095 241.750257 
L 287.527214 241.779862 
L 289.014332 241.804124 
L 290.798875 241.80211 
L 291.19544 241.768439 
L 291.98857 241.731368 
L 292.7817 241.691469 
L 293.277406 241.76617 
L 293.673971 241.733297 
L 294.36796 241.721747 
L 294.962807 241.69068 
L 295.458513 241.688805 
L 295.95422 241.732162 
L 296.251643 241.692174 
L 296.549067 241.710459 
L 298.234468 241.815002 
L 298.631033 241.824769 
L 302.695825 241.777866 
L 303.389813 241.828368 
L 304.777791 241.940898 
L 305.372638 241.872799 
L 306.066627 241.826831 
L 306.760616 241.778733 
L 307.157181 241.776304 
L 307.85117 241.721877 
L 308.545158 241.830609 
L 308.842582 241.806281 
L 309.43743 241.876961 
L 310.032277 241.88784 
L 310.726266 241.876408 
L 311.221972 241.810448 
L 312.114243 241.824884 
L 312.60995 241.735534 
L 315.088481 242.030182 
L 315.385905 241.966353 
L 315.980752 241.920712 
L 317.666153 241.735137 
L 318.459283 241.911705 
L 318.756707 241.897661 
L 319.252413 241.914662 
L 319.847261 241.87082 
L 320.342967 241.789625 
L 330.05881 241.831606 
L 330.554516 241.814779 
L 335.412437 242.014715 
L 335.809002 241.925821 
L 339.477228 241.968369 
L 340.270358 241.895392 
L 341.856618 241.924427 
L 342.451466 241.984112 
L 343.641161 241.941107 
L 343.938585 241.954557 
L 344.929997 241.808531 
L 345.623986 241.916897 
L 346.813681 242.039722 
L 347.309387 242.054808 
L 349.391353 241.8581 
L 349.986201 241.946239 
L 351.770743 242.080326 
L 354.844122 242.014939 
L 355.538111 241.932823 
L 356.132958 241.966116 
L 357.322653 242.004407 
L 358.115783 242.005415 
L 358.611489 242.002768 
L 361.486586 242.064448 
L 365.749659 241.987892 
L 366.641931 241.942238 
L 367.930767 241.977935 
L 368.823038 241.994726 
L 369.517027 242.020307 
L 369.913592 241.997602 
L 370.805863 241.968089 
L 371.202428 241.906299 
L 372.788688 242.006044 
L 373.185253 242.035424 
L 373.581818 242.001791 
L 373.581818 242.001791 
" style="fill:none;stroke:#1f77b4;stroke-linecap:square;stroke-width:1.5;"/>
   </g>
   <g id="patch_3">
    <path d="M 54 252 
L 54 34.56 
" style="fill:none;stroke:#000000;stroke-linecap:square;stroke-linejoin:miter;stroke-width:0.8;"/>
   </g>
   <g id="patch_4">
    <path d="M 388.8 252 
L 388.8 34.56 
" style="fill:none;stroke:#000000;stroke-linecap:square;stroke-linejoin:miter;stroke-width:0.8;"/>
   </g>
   <g id="patch_5">
    <path d="M 54 252 
L 388.8 252 
" style="fill:none;stroke:#000000;stroke-linecap:square;stroke-linejoin:miter;stroke-width:0.8;"/>
   </g>
   <g id="patch_6">
    <path d="M 54 34.56 
L 388.8 34.56 
" style="fill:none;stroke:#000000;stroke-linecap:square;stroke-linejoin:miter;stroke-width:0.8;"/>
   </g>
  </g>
 </g>
 <defs>
  <clipPath id="paa88d297f9">
   <rect height="217.44" width="334.8" x="54" y="34.56"/>
  </clipPath>
 </defs>
</svg>
