<?xml version="1.0" encoding="utf-8" standalone="no"?>
<!DOCTYPE svg PUBLIC "-//W3C//DTD SVG 1.1//EN"
  "http://www.w3.org/Graphics/SVG/1.1/DTD/svg11.dtd">
<!-- Created with matplotlib (https://matplotlib.org/) -->
<svg height="288pt" version="1.1" viewBox="0 0 432 288" width="432pt" xmlns="http://www.w3.org/2000/svg" xmlns:xlink="http://www.w3.org/1999/xlink">
 <defs>
  <style type="text/css">
*{stroke-linecap:butt;stroke-linejoin:round;}
  </style>
 </defs>
 <g id="figure_1">
  <g id="patch_1">
   <path d="M 0 288 
L 432 288 
L 432 0 
L 0 0 
z
" style="fill:#ffffff;"/>
  </g>
  <g id="axes_1">
   <g id="patch_2">
    <path d="M 54 252 
L 388.8 252 
L 388.8 34.56 
L 54 34.56 
z
" style="fill:#ffffff;"/>
   </g>
   <g id="matplotlib.axis_1">
    <g id="xtick_1">
     <g id="line2d_1">
      <defs>
       <path d="M 0 0 
L 0 3.5 
" id="m340280f27b" style="stroke:#000000;stroke-width:0.8;"/>
      </defs>
      <g>
       <use style="stroke:#000000;stroke-width:0.8;" x="69.218182" xlink:href="#m340280f27b" y="252"/>
      </g>
     </g>
     <g id="text_1">
      <!-- 0 -->
      <defs>
       <path d="M 31.78125 66.40625 
Q 24.171875 66.40625 20.328125 58.90625 
Q 16.5 51.421875 16.5 36.375 
Q 16.5 21.390625 20.328125 13.890625 
Q 24.171875 6.390625 31.78125 6.390625 
Q 39.453125 6.390625 43.28125 13.890625 
Q 47.125 21.390625 47.125 36.375 
Q 47.125 51.421875 43.28125 58.90625 
Q 39.453125 66.40625 31.78125 66.40625 
z
M 31.78125 74.21875 
Q 44.046875 74.21875 50.515625 64.515625 
Q 56.984375 54.828125 56.984375 36.375 
Q 56.984375 17.96875 50.515625 8.265625 
Q 44.046875 -1.421875 31.78125 -1.421875 
Q 19.53125 -1.421875 13.0625 8.265625 
Q 6.59375 17.96875 6.59375 36.375 
Q 6.59375 54.828125 13.0625 64.515625 
Q 19.53125 74.21875 31.78125 74.21875 
z
" id="DejaVuSans-48"/>
      </defs>
      <g transform="translate(66.036932 266.598437)scale(0.1 -0.1)">
       <use xlink:href="#DejaVuSans-48"/>
      </g>
     </g>
    </g>
    <g id="xtick_2">
     <g id="line2d_2">
      <g>
       <use style="stroke:#000000;stroke-width:0.8;" x="118.483905" xlink:href="#m340280f27b" y="252"/>
      </g>
     </g>
     <g id="text_2">
      <!-- 500 -->
      <defs>
       <path d="M 10.796875 72.90625 
L 49.515625 72.90625 
L 49.515625 64.59375 
L 19.828125 64.59375 
L 19.828125 46.734375 
Q 21.96875 47.46875 24.109375 47.828125 
Q 26.265625 48.1875 28.421875 48.1875 
Q 40.625 48.1875 47.75 41.5 
Q 54.890625 34.8125 54.890625 23.390625 
Q 54.890625 11.625 47.5625 5.09375 
Q 40.234375 -1.421875 26.90625 -1.421875 
Q 22.3125 -1.421875 17.546875 -0.640625 
Q 12.796875 0.140625 7.71875 1.703125 
L 7.71875 11.625 
Q 12.109375 9.234375 16.796875 8.0625 
Q 21.484375 6.890625 26.703125 6.890625 
Q 35.15625 6.890625 40.078125 11.328125 
Q 45.015625 15.765625 45.015625 23.390625 
Q 45.015625 31 40.078125 35.4375 
Q 35.15625 39.890625 26.703125 39.890625 
Q 22.75 39.890625 18.8125 39.015625 
Q 14.890625 38.140625 10.796875 36.28125 
z
" id="DejaVuSans-53"/>
      </defs>
      <g transform="translate(108.940155 266.598437)scale(0.1 -0.1)">
       <use xlink:href="#DejaVuSans-53"/>
       <use x="63.623047" xlink:href="#DejaVuSans-48"/>
       <use x="127.246094" xlink:href="#DejaVuSans-48"/>
      </g>
     </g>
    </g>
    <g id="xtick_3">
     <g id="line2d_3">
      <g>
       <use style="stroke:#000000;stroke-width:0.8;" x="167.749628" xlink:href="#m340280f27b" y="252"/>
      </g>
     </g>
     <g id="text_3">
      <!-- 1000 -->
      <defs>
       <path d="M 12.40625 8.296875 
L 28.515625 8.296875 
L 28.515625 63.921875 
L 10.984375 60.40625 
L 10.984375 69.390625 
L 28.421875 72.90625 
L 38.28125 72.90625 
L 38.28125 8.296875 
L 54.390625 8.296875 
L 54.390625 0 
L 12.40625 0 
z
" id="DejaVuSans-49"/>
      </defs>
      <g transform="translate(155.024628 266.598437)scale(0.1 -0.1)">
       <use xlink:href="#DejaVuSans-49"/>
       <use x="63.623047" xlink:href="#DejaVuSans-48"/>
       <use x="127.246094" xlink:href="#DejaVuSans-48"/>
       <use x="190.869141" xlink:href="#DejaVuSans-48"/>
      </g>
     </g>
    </g>
    <g id="xtick_4">
     <g id="line2d_4">
      <g>
       <use style="stroke:#000000;stroke-width:0.8;" x="217.015351" xlink:href="#m340280f27b" y="252"/>
      </g>
     </g>
     <g id="text_4">
      <!-- 1500 -->
      <g transform="translate(204.290351 266.598437)scale(0.1 -0.1)">
       <use xlink:href="#DejaVuSans-49"/>
       <use x="63.623047" xlink:href="#DejaVuSans-53"/>
       <use x="127.246094" xlink:href="#DejaVuSans-48"/>
       <use x="190.869141" xlink:href="#DejaVuSans-48"/>
      </g>
     </g>
    </g>
    <g id="xtick_5">
     <g id="line2d_5">
      <g>
       <use style="stroke:#000000;stroke-width:0.8;" x="266.281074" xlink:href="#m340280f27b" y="252"/>
      </g>
     </g>
     <g id="text_5">
      <!-- 2000 -->
      <defs>
       <path d="M 19.1875 8.296875 
L 53.609375 8.296875 
L 53.609375 0 
L 7.328125 0 
L 7.328125 8.296875 
Q 12.9375 14.109375 22.625 23.890625 
Q 32.328125 33.6875 34.8125 36.53125 
Q 39.546875 41.84375 41.421875 45.53125 
Q 43.3125 49.21875 43.3125 52.78125 
Q 43.3125 58.59375 39.234375 62.25 
Q 35.15625 65.921875 28.609375 65.921875 
Q 23.96875 65.921875 18.8125 64.3125 
Q 13.671875 62.703125 7.8125 59.421875 
L 7.8125 69.390625 
Q 13.765625 71.78125 18.9375 73 
Q 24.125 74.21875 28.421875 74.21875 
Q 39.75 74.21875 46.484375 68.546875 
Q 53.21875 62.890625 53.21875 53.421875 
Q 53.21875 48.921875 51.53125 44.890625 
Q 49.859375 40.875 45.40625 35.40625 
Q 44.1875 33.984375 37.640625 27.21875 
Q 31.109375 20.453125 19.1875 8.296875 
z
" id="DejaVuSans-50"/>
      </defs>
      <g transform="translate(253.556074 266.598437)scale(0.1 -0.1)">
       <use xlink:href="#DejaVuSans-50"/>
       <use x="63.623047" xlink:href="#DejaVuSans-48"/>
       <use x="127.246094" xlink:href="#DejaVuSans-48"/>
       <use x="190.869141" xlink:href="#DejaVuSans-48"/>
      </g>
     </g>
    </g>
    <g id="xtick_6">
     <g id="line2d_6">
      <g>
       <use style="stroke:#000000;stroke-width:0.8;" x="315.546797" xlink:href="#m340280f27b" y="252"/>
      </g>
     </g>
     <g id="text_6">
      <!-- 2500 -->
      <g transform="translate(302.821797 266.598437)scale(0.1 -0.1)">
       <use xlink:href="#DejaVuSans-50"/>
       <use x="63.623047" xlink:href="#DejaVuSans-53"/>
       <use x="127.246094" xlink:href="#DejaVuSans-48"/>
       <use x="190.869141" xlink:href="#DejaVuSans-48"/>
      </g>
     </g>
    </g>
    <g id="xtick_7">
     <g id="line2d_7">
      <g>
       <use style="stroke:#000000;stroke-width:0.8;" x="364.812519" xlink:href="#m340280f27b" y="252"/>
      </g>
     </g>
     <g id="text_7">
      <!-- 3000 -->
      <defs>
       <path d="M 40.578125 39.3125 
Q 47.65625 37.796875 51.625 33 
Q 55.609375 28.21875 55.609375 21.1875 
Q 55.609375 10.40625 48.1875 4.484375 
Q 40.765625 -1.421875 27.09375 -1.421875 
Q 22.515625 -1.421875 17.65625 -0.515625 
Q 12.796875 0.390625 7.625 2.203125 
L 7.625 11.71875 
Q 11.71875 9.328125 16.59375 8.109375 
Q 21.484375 6.890625 26.8125 6.890625 
Q 36.078125 6.890625 40.9375 10.546875 
Q 45.796875 14.203125 45.796875 21.1875 
Q 45.796875 27.640625 41.28125 31.265625 
Q 36.765625 34.90625 28.71875 34.90625 
L 20.21875 34.90625 
L 20.21875 43.015625 
L 29.109375 43.015625 
Q 36.375 43.015625 40.234375 45.921875 
Q 44.09375 48.828125 44.09375 54.296875 
Q 44.09375 59.90625 40.109375 62.90625 
Q 36.140625 65.921875 28.71875 65.921875 
Q 24.65625 65.921875 20.015625 65.03125 
Q 15.375 64.15625 9.8125 62.3125 
L 9.8125 71.09375 
Q 15.4375 72.65625 20.34375 73.4375 
Q 25.25 74.21875 29.59375 74.21875 
Q 40.828125 74.21875 47.359375 69.109375 
Q 53.90625 64.015625 53.90625 55.328125 
Q 53.90625 49.265625 50.4375 45.09375 
Q 46.96875 40.921875 40.578125 39.3125 
z
" id="DejaVuSans-51"/>
      </defs>
      <g transform="translate(352.087519 266.598437)scale(0.1 -0.1)">
       <use xlink:href="#DejaVuSans-51"/>
       <use x="63.623047" xlink:href="#DejaVuSans-48"/>
       <use x="127.246094" xlink:href="#DejaVuSans-48"/>
       <use x="190.869141" xlink:href="#DejaVuSans-48"/>
      </g>
     </g>
    </g>
   </g>
   <g id="matplotlib.axis_2">
    <g id="ytick_1">
     <g id="line2d_8">
      <defs>
       <path d="M 0 0 
L -3.5 0 
" id="mbea817b231" style="stroke:#000000;stroke-width:0.8;"/>
      </defs>
      <g>
       <use style="stroke:#000000;stroke-width:0.8;" x="54" xlink:href="#mbea817b231" y="242.579196"/>
      </g>
     </g>
     <g id="text_8">
      <!-- 0 -->
      <g transform="translate(40.6375 246.378415)scale(0.1 -0.1)">
       <use xlink:href="#DejaVuSans-48"/>
      </g>
     </g>
    </g>
    <g id="ytick_2">
     <g id="line2d_9">
      <g>
       <use style="stroke:#000000;stroke-width:0.8;" x="54" xlink:href="#mbea817b231" y="211.591739"/>
      </g>
     </g>
     <g id="text_9">
      <!-- 5 -->
      <g transform="translate(40.6375 215.390958)scale(0.1 -0.1)">
       <use xlink:href="#DejaVuSans-53"/>
      </g>
     </g>
    </g>
    <g id="ytick_3">
     <g id="line2d_10">
      <g>
       <use style="stroke:#000000;stroke-width:0.8;" x="54" xlink:href="#mbea817b231" y="180.604281"/>
      </g>
     </g>
     <g id="text_10">
      <!-- 10 -->
      <g transform="translate(34.275 184.4035)scale(0.1 -0.1)">
       <use xlink:href="#DejaVuSans-49"/>
       <use x="63.623047" xlink:href="#DejaVuSans-48"/>
      </g>
     </g>
    </g>
    <g id="ytick_4">
     <g id="line2d_11">
      <g>
       <use style="stroke:#000000;stroke-width:0.8;" x="54" xlink:href="#mbea817b231" y="149.616824"/>
      </g>
     </g>
     <g id="text_11">
      <!-- 15 -->
      <g transform="translate(34.275 153.416043)scale(0.1 -0.1)">
       <use xlink:href="#DejaVuSans-49"/>
       <use x="63.623047" xlink:href="#DejaVuSans-53"/>
      </g>
     </g>
    </g>
    <g id="ytick_5">
     <g id="line2d_12">
      <g>
       <use style="stroke:#000000;stroke-width:0.8;" x="54" xlink:href="#mbea817b231" y="118.629367"/>
      </g>
     </g>
     <g id="text_12">
      <!-- 20 -->
      <g transform="translate(34.275 122.428585)scale(0.1 -0.1)">
       <use xlink:href="#DejaVuSans-50"/>
       <use x="63.623047" xlink:href="#DejaVuSans-48"/>
      </g>
     </g>
    </g>
    <g id="ytick_6">
     <g id="line2d_13">
      <g>
       <use style="stroke:#000000;stroke-width:0.8;" x="54" xlink:href="#mbea817b231" y="87.641909"/>
      </g>
     </g>
     <g id="text_13">
      <!-- 25 -->
      <g transform="translate(34.275 91.441128)scale(0.1 -0.1)">
       <use xlink:href="#DejaVuSans-50"/>
       <use x="63.623047" xlink:href="#DejaVuSans-53"/>
      </g>
     </g>
    </g>
    <g id="ytick_7">
     <g id="line2d_14">
      <g>
       <use style="stroke:#000000;stroke-width:0.8;" x="54" xlink:href="#mbea817b231" y="56.654452"/>
      </g>
     </g>
     <g id="text_14">
      <!-- 30 -->
      <g transform="translate(34.275 60.45367)scale(0.1 -0.1)">
       <use xlink:href="#DejaVuSans-51"/>
       <use x="63.623047" xlink:href="#DejaVuSans-48"/>
      </g>
     </g>
    </g>
   </g>
   <g id="line2d_15">
    <path clip-path="url(#p017ae79371)" d="M 69.218182 94.297184 
L 69.316713 82.142712 
L 69.513776 132.602193 
L 69.612308 93.99232 
L 69.907902 169.877065 
L 70.006433 173.920131 
L 70.203496 121.826479 
L 70.302028 142.512194 
L 70.400559 132.003329 
L 70.597622 155.710074 
L 70.696154 142.219713 
L 70.794685 143.857866 
L 70.893216 148.17601 
L 70.991748 165.440151 
L 71.090279 114.38618 
L 71.188811 149.412112 
L 71.385874 133.978243 
L 71.484405 161.995125 
L 71.582937 142.161569 
L 71.779999 170.389862 
L 71.878531 153.623698 
L 71.977062 159.243765 
L 72.174125 119.637289 
L 72.371188 157.923627 
L 72.46972 141.121533 
L 72.568251 148.028573 
L 72.666782 143.948658 
L 72.765314 135.181049 
L 72.863845 166.575513 
L 72.962377 139.272787 
L 73.060908 175.968882 
L 73.15944 160.982259 
L 73.257971 164.14682 
L 73.455034 142.871469 
L 73.652097 151.367756 
L 73.750628 143.600521 
L 73.947691 166.839194 
L 74.046223 145.864472 
L 74.144754 147.623865 
L 74.243286 173.272066 
L 74.440348 136.976004 
L 74.53888 139.589673 
L 74.735943 160.15325 
L 74.834474 152.266374 
L 74.933006 170.911549 
L 75.031537 120.411089 
L 75.2286 180.800373 
L 75.425663 151.863008 
L 75.524194 163.866469 
L 75.622726 145.093734 
L 75.721257 166.260723 
L 75.819789 154.925145 
L 75.91832 182.326184 
L 76.115383 106.215104 
L 76.213914 161.847761 
L 76.312446 121.529517 
L 76.410977 151.547266 
L 76.509509 120.130209 
L 76.60804 171.161475 
L 76.706572 167.085748 
L 76.805103 182.34899 
L 76.903635 170.001774 
L 77.002166 170.318873 
L 77.100697 162.569913 
L 77.199229 134.707207 
L 77.396292 158.702442 
L 77.494823 158.570188 
L 77.593355 131.010507 
L 77.790418 157.402115 
L 77.888949 174.451056 
L 77.987481 155.203299 
L 78.086012 174.133337 
L 78.381606 133.161298 
L 78.480138 163.119287 
L 78.578669 146.745016 
L 78.677201 160.141544 
L 78.775732 129.561936 
L 78.972795 160.367617 
L 79.071326 141.563494 
L 79.169858 177.184206 
L 79.366921 135.563144 
L 79.465452 156.901614 
L 79.563984 142.296022 
L 79.761047 176.601746 
L 79.859578 148.582216 
L 79.958109 184.867063 
L 80.155172 136.741391 
L 80.253704 181.596813 
L 80.450767 131.478873 
L 80.549298 142.845777 
L 80.64783 127.14446 
L 80.746361 174.895106 
L 80.844892 156.579528 
L 81.041955 168.528315 
L 81.239018 165.166577 
L 81.33755 167.694238 
L 81.534613 136.469933 
L 81.731675 161.366085 
L 81.830207 117.776687 
L 81.928738 176.734771 
L 82.02727 110.998393 
L 82.224333 151.410828 
L 82.421396 143.355104 
L 82.519927 158.608103 
L 82.618458 140.255076 
L 82.71699 154.060869 
L 82.914053 131.469331 
L 83.012584 172.454482 
L 83.111116 143.00239 
L 83.209647 167.345078 
L 83.40671 129.457683 
L 83.505241 161.644435 
L 83.702304 117.894965 
L 83.997899 155.528034 
L 84.09643 101.440077 
L 84.194962 160.384512 
L 84.293493 111.542184 
L 84.392024 133.344006 
L 84.490556 132.047379 
L 84.589087 135.369886 
L 84.687619 133.446385 
L 84.78615 141.752219 
L 84.884682 163.615443 
L 84.983213 148.377894 
L 85.081745 149.01658 
L 85.180276 154.747245 
L 85.377339 134.594803 
L 85.574402 163.697024 
L 85.672933 169.278349 
L 85.771465 119.612784 
L 85.869996 158.433371 
L 85.968528 152.129803 
L 86.067059 136.680842 
L 86.264122 152.339102 
L 86.362653 145.939014 
L 86.461185 175.42679 
L 86.559716 100.722804 
L 86.658248 158.845742 
L 86.855311 133.98137 
L 86.953842 139.622942 
L 87.150905 177.529417 
L 87.249436 114.74042 
L 87.347968 160.207891 
L 87.446499 153.172854 
L 87.545031 180.966804 
L 87.643562 155.594023 
L 87.742094 165.852646 
L 87.840625 127.817863 
L 87.939157 127.897181 
L 88.037688 164.711383 
L 88.136219 118.176211 
L 88.333282 154.514207 
L 88.431814 142.536385 
L 88.530345 147.128391 
L 88.727408 114.703379 
L 89.023002 165.884926 
L 89.220065 139.744741 
L 89.318597 149.231786 
L 89.417128 169.794157 
L 89.51566 147.814614 
L 89.614191 150.868792 
L 89.712723 127.290323 
L 89.811254 152.633847 
L 89.909785 120.163136 
L 90.20538 138.397574 
L 90.303911 135.675021 
L 90.402443 97.764088 
L 90.599506 135.796574 
L 90.796568 117.341528 
L 91.092163 155.757916 
L 91.190694 101.041156 
L 91.289226 128.99427 
L 91.387757 122.762306 
L 91.486289 108.479663 
L 91.58482 133.274854 
L 91.781883 108.239897 
L 91.880414 173.441053 
L 91.978946 81.179638 
L 92.077477 123.482652 
L 92.176009 96.250898 
L 92.27454 144.760872 
L 92.373072 90.747121 
L 92.471603 97.303402 
L 92.668666 149.760795 
L 92.865729 106.373668 
L 92.96426 165.606564 
L 93.161323 109.898357 
L 93.259855 127.287317 
L 93.358386 109.558989 
L 93.456918 119.146939 
L 93.65398 147.674109 
L 93.752512 145.538635 
L 93.851043 134.099613 
L 93.949575 137.050658 
L 94.146638 86.239025 
L 94.245169 99.993191 
L 94.343701 91.468525 
L 94.442232 136.098261 
L 94.540763 118.619266 
L 94.737826 58.303775 
L 94.934889 120.807995 
L 95.033421 138.901372 
L 95.131952 70.435007 
L 95.230484 112.201399 
L 95.329015 93.671936 
L 95.427546 110.969219 
L 95.526078 153.360437 
L 95.624609 106.670233 
L 95.723141 137.940018 
L 95.821672 84.910423 
L 95.920204 95.324853 
L 96.018735 118.63932 
L 96.117267 92.430246 
L 96.215798 105.914401 
L 96.314329 95.592138 
L 96.511392 152.335097 
L 96.609924 80.787171 
L 96.708455 118.617475 
L 96.806987 100.843577 
L 96.905518 118.768875 
L 97.00405 111.301649 
L 97.102581 142.163334 
L 97.201112 106.34742 
L 97.299644 108.050823 
L 97.398175 148.345759 
L 97.496707 129.47146 
L 97.595238 139.29848 
L 97.792301 55.160849 
L 97.890833 92.253106 
L 97.989364 66.484598 
L 98.087895 115.750074 
L 98.186427 112.954076 
L 98.580553 84.825514 
L 98.679084 107.863925 
L 98.777616 98.869508 
L 98.876147 133.266987 
L 98.974678 132.848026 
L 99.07321 99.048261 
L 99.171741 120.814094 
L 99.270273 85.584054 
L 99.368804 124.151951 
L 99.467336 109.773796 
L 99.565867 176.511692 
L 99.76293 44.443636 
L 99.861461 145.990461 
L 100.058524 101.637085 
L 100.157056 129.445874 
L 100.255587 84.753316 
L 100.354119 116.735631 
L 100.45265 104.859488 
L 100.551182 139.762723 
L 100.649713 70.446911 
L 100.846776 123.491512 
L 100.945307 45.974711 
L 101.240902 115.554239 
L 101.339433 82.496153 
L 101.635028 141.381906 
L 101.733559 154.863358 
L 101.83209 99.397412 
L 101.930622 144.050878 
L 102.029153 108.376698 
L 102.127685 139.978706 
L 102.324748 106.809234 
L 102.423279 125.778301 
L 102.521811 81.499467 
L 102.718873 169.677474 
L 102.817405 116.811036 
L 102.915936 118.540451 
L 103.014468 122.880697 
L 103.112999 106.968064 
L 103.211531 152.62559 
L 103.310062 125.066276 
L 103.408594 134.772626 
L 103.704188 89.447515 
L 103.802719 123.994002 
L 103.901251 111.263208 
L 103.999782 115.127875 
L 104.098314 74.563295 
L 104.196845 158.106813 
L 104.295377 104.967131 
L 104.492439 115.336931 
L 104.689502 98.472856 
L 104.788034 122.611118 
L 104.886565 121.420406 
L 104.985097 82.571866 
L 105.083628 144.743759 
L 105.280691 103.392471 
L 105.477754 158.443173 
L 105.576285 114.864018 
L 105.674817 160.808597 
L 105.773348 92.783545 
L 105.970411 139.749501 
L 106.068943 110.472605 
L 106.167474 129.441595 
L 106.364537 84.550983 
L 106.5616 124.927766 
L 106.660131 104.181109 
L 106.758663 115.779903 
L 106.857194 111.367574 
L 107.054257 149.496837 
L 107.25132 59.884248 
L 107.448383 129.323801 
L 107.546914 154.658397 
L 107.743977 115.091473 
L 107.842509 129.256307 
L 107.94104 115.134412 
L 108.039572 139.367785 
L 108.138103 132.263442 
L 108.236634 96.445941 
L 108.335166 128.878187 
L 108.433697 128.206705 
L 108.532229 102.82825 
L 108.63076 108.831987 
L 108.729292 146.482784 
L 108.827823 130.421839 
L 108.926355 131.173055 
L 109.024886 147.329557 
L 109.123417 134.934686 
L 109.221949 153.181421 
L 109.517543 85.928996 
L 109.616075 149.536774 
L 109.714606 98.1883 
L 109.813138 141.823569 
L 109.911669 140.466171 
L 110.0102 150.979757 
L 110.108732 196.230536 
L 110.207263 153.34533 
L 110.305795 191.039507 
L 110.404326 165.821156 
L 110.502858 166.66403 
L 110.601389 66.684535 
L 110.798452 133.204337 
L 110.896983 169.263842 
L 110.995515 125.423045 
L 111.192578 156.087783 
L 111.291109 150.935361 
L 111.389641 147.991325 
L 111.488172 121.879631 
L 111.586704 131.848937 
L 111.685235 129.103302 
L 111.882298 169.758695 
L 112.177892 97.428395 
L 112.276424 150.164185 
L 112.374955 130.442614 
L 112.572018 164.967161 
L 112.769081 100.515722 
L 112.966144 157.022984 
L 113.064675 110.989066 
L 113.36027 157.046324 
L 113.557332 137.910206 
L 113.655864 138.722899 
L 113.852927 195.847677 
L 113.951458 98.720365 
L 114.148521 171.689388 
L 114.247053 124.8358 
L 114.444115 155.946451 
L 114.542647 153.739131 
L 114.641178 161.989563 
L 114.73971 183.814462 
L 114.838241 159.147532 
L 114.936773 185.198072 
L 115.133836 146.316729 
L 115.232367 141.930042 
L 115.42943 157.347795 
L 115.527961 137.845266 
L 115.626493 167.773588 
L 115.725024 151.94039 
L 115.823556 154.04148 
L 115.922087 138.051228 
L 116.11915 178.575322 
L 116.217682 135.668502 
L 116.316213 146.777462 
L 116.414744 193.391954 
L 116.611807 164.05866 
L 116.710339 184.906438 
L 116.80887 173.749717 
L 116.907402 147.819244 
L 117.005933 187.627927 
L 117.202996 117.414007 
L 117.400059 191.917374 
L 117.49859 159.864439 
L 117.695653 196.553045 
L 117.991248 135.576212 
L 118.089779 183.692255 
L 118.385373 159.437661 
L 118.483905 165.905116 
L 118.582436 199.641375 
L 118.779499 176.224293 
L 118.878031 154.35267 
L 119.075093 176.097956 
L 119.173625 172.082837 
L 119.272156 207.341941 
L 119.370688 181.361361 
L 119.567751 191.627599 
L 119.666282 182.872813 
L 119.764814 190.393811 
L 119.863345 168.837924 
L 120.060408 200.929459 
L 120.158939 186.925581 
L 120.257471 202.99762 
L 120.356002 196.804953 
L 120.454534 207.995412 
L 120.553065 201.27755 
L 120.651597 208.247635 
L 120.750128 156.323992 
L 120.848659 189.443873 
L 120.947191 181.295336 
L 121.045722 185.896491 
L 121.144254 203.448078 
L 121.242785 172.399978 
L 121.341317 217.294562 
L 121.439848 167.829408 
L 121.53838 207.203162 
L 121.636911 196.584674 
L 121.833974 215.636917 
L 122.031037 186.650071 
L 122.129568 189.463244 
L 122.2281 213.790445 
L 122.326631 212.58496 
L 122.425163 222.475337 
L 122.523694 206.338642 
L 122.622225 215.899777 
L 122.720757 211.601432 
L 122.819288 217.596914 
L 122.91782 216.050381 
L 123.114883 197.48691 
L 123.311946 217.687439 
L 123.410477 218.677557 
L 123.60754 201.735856 
L 123.706071 219.673414 
L 123.804603 215.475672 
L 123.903134 223.717638 
L 124.100197 220.140721 
L 124.198729 205.000494 
L 124.29726 215.555543 
L 124.395792 208.401916 
L 124.494323 222.632466 
L 124.592854 205.348069 
L 124.691386 209.646657 
L 124.789917 219.846335 
L 124.888449 218.998244 
L 124.98698 216.570791 
L 125.085512 228.907688 
L 125.184043 225.023424 
L 125.282575 211.148129 
L 125.479637 225.438089 
L 125.578169 226.398866 
L 125.6767 225.604592 
L 125.775232 219.260296 
L 125.873763 225.892225 
L 125.972295 224.889892 
L 126.070826 227.852932 
L 126.169358 223.761353 
L 126.267889 224.030201 
L 126.36642 224.927948 
L 126.464952 224.076719 
L 126.563483 225.979328 
L 126.662015 218.489798 
L 126.760546 231.281746 
L 126.859078 231.201967 
L 127.154672 220.114331 
L 127.253203 225.101247 
L 127.351735 224.846445 
L 127.450266 226.74858 
L 127.548798 224.409847 
L 127.647329 227.352427 
L 127.745861 227.340238 
L 127.844392 225.928454 
L 127.942924 229.268388 
L 128.041455 219.009492 
L 128.139986 232.583937 
L 128.337049 224.383778 
L 128.534112 221.913051 
L 128.731175 225.664836 
L 128.829707 221.295344 
L 129.026769 228.088061 
L 129.125301 222.43521 
L 129.223832 228.08701 
L 129.322364 227.829631 
L 129.420895 223.616895 
L 129.519427 224.734153 
L 129.617958 223.199736 
L 129.71649 227.536504 
L 129.815021 219.950277 
L 129.913552 220.448358 
L 130.012084 227.227344 
L 130.110615 220.938616 
L 130.209147 227.025451 
L 130.40621 220.718931 
L 130.504741 225.180399 
L 130.603273 219.3553 
L 130.701804 229.372539 
L 130.800336 222.347571 
L 130.898867 225.461152 
L 130.997398 218.935764 
L 131.194461 227.335013 
L 131.490056 219.893949 
L 131.588587 228.815976 
L 131.687119 228.567132 
L 131.78565 227.19235 
L 131.884181 220.383408 
L 132.081244 226.779603 
L 132.179776 222.917652 
L 132.376839 230.204362 
L 132.573902 225.498463 
L 132.672433 228.366565 
L 132.770964 227.060627 
L 132.869496 227.468705 
L 132.968027 230.919217 
L 133.16509 226.442743 
L 133.263622 220.622665 
L 133.362153 229.267955 
L 133.657747 223.837839 
L 133.756279 222.747873 
L 133.953342 228.516715 
L 134.051873 225.656424 
L 134.248936 228.161095 
L 134.347468 222.94075 
L 134.445999 227.228065 
L 134.54453 226.62348 
L 134.643062 229.202215 
L 134.741593 227.147988 
L 134.938656 230.348496 
L 135.234251 220.859352 
L 135.431313 227.579105 
L 135.529845 229.303632 
L 135.628376 226.539045 
L 135.726908 228.679015 
L 135.923971 226.011173 
L 136.022502 227.05371 
L 136.121034 230.999336 
L 136.219565 226.817576 
L 136.416628 228.661568 
L 136.515159 228.559368 
L 136.613691 227.47048 
L 136.712222 228.503815 
L 136.810754 232.035431 
L 137.007817 227.035574 
L 137.106348 231.182381 
L 137.204879 230.19213 
L 137.303411 228.010728 
L 137.500474 231.910129 
L 137.599005 231.857924 
L 137.697537 231.835755 
L 137.993131 233.096211 
L 138.091662 231.108655 
L 138.190194 234.183001 
L 138.288725 232.423839 
L 138.485788 233.409522 
L 138.682851 228.549844 
L 138.781383 233.092797 
L 138.978446 231.077331 
L 139.076977 231.894287 
L 139.175508 230.98021 
L 139.27404 235.278585 
L 139.569634 230.744541 
L 139.668166 234.364801 
L 139.766697 233.827503 
L 139.865229 230.965409 
L 139.96376 235.406187 
L 140.062291 231.621813 
L 140.259354 235.382157 
L 140.357886 233.898483 
L 140.456417 237.651387 
L 140.65348 231.987457 
L 140.752012 234.603434 
L 140.850543 233.304694 
L 140.949074 234.559029 
L 141.047606 234.472696 
L 141.146137 233.920324 
L 141.244669 232.662205 
L 141.3432 234.458916 
L 141.441732 232.48761 
L 141.540263 234.760788 
L 141.638795 234.346898 
L 141.737326 234.46775 
L 141.835857 232.134208 
L 141.934389 235.044541 
L 142.03292 232.790309 
L 142.131452 232.891743 
L 142.229983 233.393033 
L 142.328515 237.363498 
L 142.427046 232.070208 
L 142.525578 234.719306 
L 142.624109 232.145733 
L 142.72264 233.371872 
L 142.821172 231.98909 
L 142.919703 237.176764 
L 143.018235 235.755066 
L 143.116766 236.379173 
L 143.215298 233.202856 
L 143.412361 235.526472 
L 143.510892 236.494626 
L 143.609423 236.126453 
L 143.806486 232.110394 
L 144.003549 235.973647 
L 144.102081 236.473282 
L 144.200612 234.993915 
L 144.299144 236.917479 
L 144.397675 231.770186 
L 144.594738 237.591771 
L 144.791801 232.072458 
L 144.988864 235.167818 
L 145.087395 238.50068 
L 145.284458 235.171009 
L 145.382989 234.221028 
L 145.481521 236.431618 
L 145.678584 233.194028 
L 145.777115 229.691618 
L 145.875647 236.229871 
L 145.974178 233.426263 
L 146.07271 236.821719 
L 146.269773 234.983048 
L 146.368304 238.76603 
L 146.565367 235.361996 
L 146.663898 238.29513 
L 146.76243 233.792191 
L 146.860961 237.29244 
L 146.959493 236.638399 
L 147.156556 234.390514 
L 147.353618 237.642302 
L 147.45215 234.089159 
L 147.649213 235.394471 
L 147.944807 237.540694 
L 148.14187 235.558924 
L 148.240401 236.020321 
L 148.338933 234.78911 
L 148.437464 235.195314 
L 148.535996 235.117573 
L 148.634527 237.378213 
L 148.83159 236.03255 
L 149.028653 237.268023 
L 149.225716 233.961981 
L 149.324247 235.677636 
L 149.52131 233.424078 
L 149.619842 238.119155 
L 149.718373 237.379056 
L 149.816905 238.331112 
L 149.915436 236.514584 
L 150.112499 238.222347 
L 150.309562 236.248677 
L 150.408093 238.575371 
L 150.506625 234.926733 
L 150.605156 235.136112 
L 150.703688 235.769154 
L 150.802219 238.049942 
L 150.90075 237.648302 
L 150.999282 236.1921 
L 151.196345 238.297747 
L 151.294876 235.144301 
L 151.491939 236.74651 
L 151.590471 235.089349 
L 151.787533 237.945278 
L 151.886065 234.061671 
L 151.984596 238.543522 
L 152.280191 235.873076 
L 152.378722 238.274212 
L 152.575785 236.706479 
L 152.674316 236.653685 
L 152.772848 236.747892 
L 152.871379 237.587906 
L 153.068442 236.818331 
L 153.166974 238.047866 
L 153.265505 234.256565 
L 153.364037 239.453768 
L 153.462568 239.259831 
L 153.758162 235.100945 
L 153.856694 237.553136 
L 153.955225 235.740876 
L 154.053757 236.004358 
L 154.152288 237.652572 
L 154.25082 237.423513 
L 154.447883 237.870984 
L 154.546414 239.417206 
L 154.743477 236.858183 
L 154.842008 236.204323 
L 154.94054 238.225354 
L 155.039071 235.867399 
L 155.236134 237.661603 
L 155.433197 236.713456 
L 155.531728 235.156744 
L 155.63026 238.747894 
L 155.728791 238.272277 
L 155.827323 238.592392 
L 155.925854 235.480332 
L 156.122917 238.315271 
L 156.221449 237.294992 
L 156.31998 239.95342 
L 156.615574 237.314361 
L 156.714106 237.929223 
L 156.911169 237.745357 
L 157.0097 237.810187 
L 157.206763 238.583744 
L 157.305294 238.554147 
L 157.502357 239.278277 
L 157.600889 236.898026 
L 157.69942 239.072529 
L 157.797952 238.195448 
L 157.995015 211.368136 
L 158.192077 239.803076 
L 158.290609 238.613074 
L 158.38914 239.519016 
L 158.487672 238.056061 
L 158.586203 239.571694 
L 158.783266 217.537368 
L 158.881798 215.468173 
L 158.980329 237.822276 
L 159.07886 236.902204 
L 159.177392 239.631069 
L 159.275923 239.058064 
L 159.374455 239.830376 
L 159.472986 238.380146 
L 159.571518 136.893365 
L 159.670049 223.74689 
L 159.867112 186.118408 
L 159.965643 240.024691 
L 160.064175 239.463518 
L 160.162706 239.986368 
L 160.359769 238.042876 
L 160.458301 239.795112 
L 160.556832 239.342507 
L 160.655364 239.614322 
L 160.753895 230.192625 
L 160.950958 237.973737 
L 161.049489 239.916594 
L 161.148021 227.111762 
L 161.246552 239.762281 
L 161.345084 237.732256 
L 161.443615 238.706872 
L 161.542147 238.514676 
L 161.640678 220.577859 
L 161.73921 231.473507 
L 161.837741 226.804829 
L 161.936272 209.750282 
L 162.133335 239.494341 
L 162.231867 238.644563 
L 162.330398 219.090572 
L 162.42893 239.695316 
L 162.527461 237.800189 
L 162.625993 232.960518 
L 162.724524 240.031283 
L 162.823055 239.147508 
L 162.921587 239.649686 
L 163.020118 237.724686 
L 163.11865 239.689152 
L 163.217181 239.513396 
L 163.315713 228.982684 
L 163.414244 238.489252 
L 163.512776 236.423509 
L 163.709838 238.27046 
L 163.80837 237.949032 
L 163.906901 208.911298 
L 164.005433 209.633816 
L 164.103964 238.720339 
L 164.202496 238.3266 
L 164.301027 238.437702 
L 164.399559 237.811594 
L 164.49809 239.801309 
L 164.596621 227.00897 
L 164.793684 239.736916 
L 164.892216 201.715526 
L 165.089279 238.524964 
L 165.18781 238.146813 
L 165.286342 239.73003 
L 165.384873 239.213332 
L 165.483404 231.345099 
L 165.581936 236.985556 
L 165.680467 204.333146 
L 165.87753 239.250615 
L 165.976062 237.469166 
L 166.074593 239.759711 
L 166.173125 212.586821 
L 166.370187 238.961344 
L 166.468719 235.277945 
L 166.665782 239.247892 
L 166.764313 237.494189 
L 166.862845 239.57033 
L 167.059908 204.318313 
L 167.158439 238.257389 
L 167.25697 206.515237 
L 167.454033 238.704292 
L 167.552565 239.33327 
L 167.651096 238.839227 
L 167.749628 239.711234 
L 167.848159 238.065199 
L 167.946691 239.05968 
L 168.045222 237.883961 
L 168.143753 234.22719 
L 168.242285 209.426861 
L 168.439348 238.843695 
L 168.537879 225.449216 
L 168.734942 240.023979 
L 168.833474 239.25782 
L 168.932005 239.456131 
L 169.030537 202.284895 
L 169.227599 238.160064 
L 169.424662 215.723501 
L 169.523194 238.959796 
L 169.621725 238.141565 
L 169.720257 238.756199 
L 169.818788 207.833054 
L 170.015851 238.834071 
L 170.114382 238.36213 
L 170.212914 235.875775 
L 170.409977 238.597978 
L 170.508508 236.264932 
L 170.60704 216.477554 
L 170.705571 238.977454 
L 170.804103 189.354675 
L 171.001165 238.372481 
L 171.099697 228.008279 
L 171.198228 238.373626 
L 171.29676 225.87012 
L 171.395291 238.341637 
L 171.493823 236.516396 
L 171.690886 239.585805 
L 171.789417 237.988601 
L 171.887948 238.686239 
L 171.98648 237.436401 
L 172.085011 237.759876 
L 172.183543 237.571176 
L 172.282074 238.245942 
L 172.380606 224.758033 
L 172.479137 195.948339 
L 172.577669 237.63736 
L 172.6762 237.075531 
L 172.774731 237.725476 
L 172.873263 183.228369 
L 173.070326 237.708391 
L 173.168857 237.040571 
L 173.267389 238.798484 
L 173.36592 238.084686 
L 173.464452 238.740345 
L 173.562983 238.720528 
L 173.661514 238.409329 
L 173.760046 228.440202 
L 173.858577 238.465833 
L 173.957109 238.31366 
L 174.05564 238.76344 
L 174.252703 235.113079 
L 174.449766 238.292944 
L 174.548297 173.629927 
L 174.646829 239.151112 
L 174.74536 238.550235 
L 174.843892 239.045484 
L 175.139486 237.832829 
L 175.238018 239.669267 
L 175.43508 209.375366 
L 175.533612 175.575221 
L 175.730675 239.767604 
L 175.927738 238.474721 
L 176.026269 238.631824 
L 176.124801 237.287855 
L 176.223332 237.906033 
L 176.321864 236.794805 
L 176.420395 211.649335 
L 176.518926 238.28404 
L 176.617458 228.177994 
L 176.715989 237.722711 
L 176.814521 237.244205 
L 176.913052 232.61565 
L 177.011584 238.213083 
L 177.110115 232.399381 
L 177.208647 144.287214 
L 177.307178 226.946947 
L 177.405709 220.992297 
L 177.602772 238.868069 
L 177.799835 238.037427 
L 177.898367 232.428968 
L 177.996898 206.098813 
L 178.09543 239.292617 
L 178.193961 237.865659 
L 178.292492 237.716339 
L 178.391024 239.006396 
L 178.489555 238.063685 
L 178.686618 239.243944 
L 178.78515 232.785415 
L 178.883681 239.082403 
L 178.982213 238.343465 
L 179.080744 237.044102 
L 179.179275 239.071 
L 179.277807 238.495383 
L 179.573401 239.290409 
L 179.671933 239.023472 
L 179.770464 238.062602 
L 179.868996 231.576509 
L 179.967527 234.39869 
L 180.066058 232.719106 
L 180.16459 239.09576 
L 180.263121 225.758979 
L 180.361653 239.800387 
L 180.460184 239.194507 
L 180.657247 231.432737 
L 180.755779 208.864737 
L 180.85431 239.423453 
L 180.952841 238.237127 
L 181.149904 237.425084 
L 181.248436 238.908554 
L 181.346967 200.389996 
L 181.445499 238.781277 
L 181.54403 238.55759 
L 181.741093 237.391217 
L 182.036687 239.909761 
L 182.23375 237.747302 
L 182.332282 238.968528 
L 182.430813 228.337743 
L 182.529345 238.875106 
L 182.627876 215.298453 
L 182.726407 239.30131 
L 182.824939 238.936058 
L 182.92347 238.116624 
L 183.022002 238.584685 
L 183.219065 236.084183 
L 183.317596 239.512675 
L 183.514659 238.808805 
L 183.711722 215.763394 
L 183.810253 239.843268 
L 183.908785 195.76646 
L 184.105848 239.30257 
L 184.204379 237.919109 
L 184.302911 239.491658 
L 184.401442 239.326874 
L 184.499974 210.18132 
L 184.697036 239.270582 
L 184.795568 239.328005 
L 184.894099 239.133253 
L 184.992631 238.129285 
L 185.091162 239.612019 
L 185.288225 238.202665 
L 185.386757 238.717308 
L 185.485288 239.924078 
L 185.583819 237.523154 
L 185.780882 240.71554 
L 185.879414 239.059185 
L 185.977945 239.56503 
L 186.27354 238.186604 
L 186.470602 239.860169 
L 186.667665 240.363132 
L 186.766197 239.141794 
L 186.864728 240.136168 
L 186.96326 239.670093 
L 187.160323 240.289995 
L 187.258854 239.778727 
L 187.357385 239.949713 
L 187.751511 238.497764 
L 187.948574 240.19337 
L 188.047106 238.873442 
L 188.3427 239.644844 
L 188.441231 240.684931 
L 188.539763 237.458346 
L 188.638294 238.20894 
L 188.835357 240.480553 
L 188.933889 240.171009 
L 189.03242 238.543941 
L 189.130951 240.580882 
L 189.229483 240.120145 
L 189.328014 240.336873 
L 189.525077 238.502625 
L 189.623609 240.403395 
L 189.820672 239.073322 
L 190.017734 239.990653 
L 190.116266 239.826014 
L 190.214797 238.976141 
L 190.313329 239.649001 
L 190.41186 239.583652 
L 190.608923 240.208711 
L 190.707455 239.229642 
L 190.805986 240.098051 
L 190.904517 239.124755 
L 191.003049 240.365761 
L 191.10158 238.693635 
L 191.200112 240.506994 
L 191.397175 238.641621 
L 191.495706 240.339352 
L 191.594238 240.177004 
L 191.692769 239.739097 
L 191.889832 240.598955 
L 191.988363 240.546628 
L 192.086895 239.787375 
L 192.185426 240.469941 
L 192.283958 239.395451 
L 192.382489 239.706142 
L 192.481021 238.986134 
L 192.579552 239.81382 
L 192.678084 237.908188 
L 192.973678 240.599901 
L 193.072209 240.213991 
L 193.170741 240.243879 
L 193.269272 240.22839 
L 193.466335 239.954914 
L 193.663398 240.260337 
L 193.860461 239.436561 
L 193.958992 240.490807 
L 194.156055 240.014242 
L 194.353118 240.28399 
L 194.550181 239.953884 
L 194.648712 240.478613 
L 194.747244 239.985758 
L 194.845775 240.529906 
L 194.944307 239.784662 
L 195.042838 239.883035 
L 195.14137 240.427842 
L 195.338433 240.057587 
L 195.436964 239.798051 
L 195.535495 240.260458 
L 195.634027 239.782913 
L 195.83109 240.614075 
L 195.929621 240.824845 
L 196.126684 240.02003 
L 196.225216 240.823437 
L 196.323747 240.228791 
L 196.422278 240.695959 
L 196.52081 239.261621 
L 196.619341 240.575377 
L 196.717873 239.655283 
L 196.816404 239.720852 
L 197.013467 240.94167 
L 197.21053 240.415181 
L 197.407593 240.413048 
L 197.506124 239.829882 
L 197.801719 240.610446 
L 197.90025 240.595672 
L 197.998782 240.788629 
L 198.195844 240.301808 
L 198.294376 240.348683 
L 198.392907 240.871576 
L 198.58997 240.09869 
L 198.787033 240.631762 
L 198.984096 240.40459 
L 199.082628 240.850378 
L 199.476753 239.963027 
L 199.575285 240.785812 
L 199.673816 239.468657 
L 199.870879 240.828531 
L 199.969411 240.163046 
L 200.166473 240.951363 
L 200.363536 240.120971 
L 200.560599 240.291295 
L 200.659131 240.1315 
L 200.757662 240.897357 
L 200.856194 239.998789 
L 200.954725 240.509229 
L 201.053256 239.769941 
L 201.151788 240.358121 
L 201.250319 240.310023 
L 201.348851 240.18422 
L 201.447382 240.539816 
L 201.545914 240.01923 
L 201.644445 240.959326 
L 201.742977 240.821787 
L 201.841508 240.016185 
L 202.137102 240.540277 
L 202.235634 239.560904 
L 202.334165 240.950312 
L 202.531228 239.591782 
L 202.728291 240.61581 
L 202.826822 240.455324 
L 202.925354 240.657613 
L 203.220948 240.194738 
L 203.31948 240.526349 
L 203.418011 239.986664 
L 203.615074 240.995988 
L 203.713605 240.069937 
L 204.0092 241.088021 
L 204.107731 240.796337 
L 204.206263 240.897668 
L 204.304794 240.624134 
L 204.403326 241.03521 
L 204.501857 240.952019 
L 204.600388 239.215922 
L 204.797451 241.022714 
L 204.994514 241.140749 
L 205.191577 240.479083 
L 205.290109 239.167489 
L 205.487171 241.084876 
L 205.585703 240.403888 
L 205.684234 241.389967 
L 205.782766 240.659673 
L 205.881297 240.87883 
L 205.979829 241.475358 
L 206.07836 240.851664 
L 206.176892 240.967363 
L 206.373955 240.448125 
L 206.571017 240.930529 
L 206.669549 239.629479 
L 206.76808 240.881887 
L 206.965143 239.701704 
L 207.063675 241.054965 
L 207.162206 240.568476 
L 207.260738 240.902634 
L 207.359269 240.625413 
L 207.4578 240.763706 
L 207.556332 241.225764 
L 207.753395 240.714694 
L 207.851926 240.789321 
L 207.950458 241.046166 
L 208.048989 240.290865 
L 208.147521 240.547503 
L 208.246052 240.378038 
L 208.344583 239.454899 
L 208.443115 240.507765 
L 208.541646 240.227343 
L 208.640178 240.629032 
L 208.738709 240.325074 
L 208.935772 240.780554 
L 209.132835 240.516281 
L 209.231366 240.950844 
L 209.428429 240.163826 
L 209.526961 240.72777 
L 209.625492 240.619954 
L 209.724024 240.706834 
L 209.822555 241.336402 
L 209.921087 240.503186 
L 210.118149 241.112361 
L 210.216681 240.013046 
L 210.413744 241.220349 
L 210.512275 240.847568 
L 210.610807 240.969583 
L 210.709338 240.249345 
L 210.906401 241.174115 
L 211.399058 240.985332 
L 211.596121 241.026702 
L 211.694653 240.80738 
L 211.793184 241.383926 
L 212.088778 240.655558 
L 212.384373 241.063948 
L 212.482904 241.470677 
L 212.679967 241.074236 
L 212.87703 240.614223 
L 212.975561 241.11981 
L 213.074093 241.084875 
L 213.271156 240.682059 
L 213.369687 240.839785 
L 213.468219 241.256104 
L 213.56675 240.780432 
L 213.665281 241.401185 
L 213.862344 240.724008 
L 214.059407 241.522809 
L 214.552065 240.787287 
L 214.650596 240.847415 
L 214.847659 241.417482 
L 215.143253 240.305953 
L 215.241785 241.456625 
L 215.340316 241.245073 
L 215.438848 241.402663 
L 215.537379 241.025384 
L 215.63591 241.281725 
L 215.832973 240.993999 
L 215.931505 241.188331 
L 216.030036 241.102088 
L 216.128568 241.398096 
L 216.227099 241.127557 
L 216.325631 241.227312 
L 216.424162 241.009089 
L 216.522693 241.499034 
L 216.818288 240.883178 
L 216.916819 241.026061 
L 217.015351 241.438492 
L 217.113882 240.845871 
L 217.212414 241.350541 
L 217.310945 241.17614 
L 217.409476 241.565714 
L 217.508008 241.160057 
L 217.606539 241.467536 
L 217.803602 240.869234 
L 217.902134 241.550819 
L 218.000665 240.876259 
L 218.296259 241.624738 
L 218.394791 241.100618 
L 218.493322 241.187157 
L 218.591854 240.859745 
L 218.690385 241.047361 
L 218.887448 240.629394 
L 219.084511 241.183828 
L 219.183042 241.293625 
L 219.281574 241.003784 
L 219.478637 241.042807 
L 219.577168 240.883376 
L 219.6757 241.394377 
L 219.774231 241.345758 
L 219.872763 241.291676 
L 220.069825 240.953361 
L 220.168357 241.243218 
L 220.266888 240.884876 
L 220.463951 241.249985 
L 220.661014 240.964792 
L 220.759546 241.052316 
L 220.858077 240.832759 
L 221.153671 241.45281 
L 221.449266 241.066144 
L 221.547797 241.338241 
L 221.74486 241.118025 
L 221.843392 241.295903 
L 221.941923 241.400986 
L 222.040454 241.210807 
L 222.138986 240.594595 
L 222.237517 241.377311 
L 222.336049 241.172183 
L 222.43458 241.317579 
L 222.631643 241.093121 
L 222.730175 241.442174 
L 222.828706 240.933539 
L 222.927237 241.191837 
L 223.025769 241.069201 
L 223.1243 241.151892 
L 223.222832 241.534408 
L 223.321363 241.292672 
L 223.518426 241.459424 
L 223.616958 240.960408 
L 223.81402 241.194939 
L 223.912552 241.163402 
L 224.011083 241.486274 
L 224.109615 241.400912 
L 224.405209 240.752614 
L 224.503741 241.168505 
L 224.602272 241.096544 
L 224.700803 241.575976 
L 224.799335 241.199794 
L 224.897866 241.668865 
L 225.094929 241.258653 
L 225.193461 241.222771 
L 225.291992 240.941216 
L 225.587586 241.458806 
L 225.784649 241.213715 
L 225.883181 241.343621 
L 225.981712 241.1129 
L 226.080244 241.295956 
L 226.178775 241.212082 
L 226.277307 241.595466 
L 226.474369 240.881809 
L 226.671432 241.529724 
L 226.868495 241.181284 
L 226.967027 241.146909 
L 227.16409 241.619531 
L 227.262621 241.336591 
L 227.361152 241.50097 
L 227.459684 240.978098 
L 227.558215 241.138326 
L 227.656747 241.627247 
L 227.85381 241.263996 
L 227.952341 241.515223 
L 228.247935 241.370777 
L 228.346467 241.533234 
L 228.54353 241.151953 
L 228.642061 241.430527 
L 228.740593 240.661976 
L 228.937656 241.505138 
L 229.036187 241.342466 
L 229.23325 241.050419 
L 229.331781 241.512412 
L 229.528844 240.948673 
L 229.627376 241.141335 
L 229.725907 241.079922 
L 229.824439 241.451862 
L 229.92297 241.147586 
L 230.120033 241.426388 
L 230.317096 241.071318 
L 230.514159 241.229192 
L 230.711222 240.926457 
L 230.908285 241.441276 
L 231.105347 240.86648 
L 231.203879 241.406287 
L 231.400942 241.210319 
L 231.598005 241.706543 
L 231.795068 241.235141 
L 231.893599 241.58102 
L 232.189193 240.800304 
L 232.287725 241.088908 
L 232.386256 240.994935 
L 232.484788 241.235259 
L 232.583319 241.056405 
L 232.681851 241.411386 
L 232.878913 241.179185 
L 233.075976 241.338271 
L 233.174508 241.231739 
L 233.273039 240.934844 
L 233.371571 241.156811 
L 233.568634 241.722185 
L 233.667165 240.81639 
L 233.864228 241.148967 
L 233.962759 241.041918 
L 234.061291 241.466482 
L 234.159822 241.310428 
L 234.258354 241.424245 
L 234.455417 241.346351 
L 234.553948 240.97859 
L 234.652479 241.35265 
L 234.849542 241.279939 
L 234.948074 240.570316 
L 235.046605 241.626201 
L 235.145137 241.123781 
L 235.3422 241.419619 
L 235.440731 241.325236 
L 235.539262 241.469456 
L 235.637794 241.253311 
L 235.736325 241.388998 
L 235.834857 240.851986 
L 235.933388 241.417473 
L 236.130451 241.185244 
L 236.327514 240.978986 
L 236.524577 241.607139 
L 236.623108 241.103603 
L 236.72164 241.568693 
L 236.820171 241.345283 
L 236.918703 241.501582 
L 237.017234 241.102404 
L 237.115766 241.238976 
L 237.214297 240.926816 
L 237.312829 241.099033 
L 237.509891 241.091789 
L 237.706954 241.351188 
L 237.805486 241.707546 
L 238.002549 241.277709 
L 238.199612 240.921005 
L 238.396674 241.729585 
L 238.495206 241.534498 
L 238.593737 240.993978 
L 238.692269 241.228415 
L 238.889332 241.157684 
L 238.987863 241.335314 
L 239.086395 241.160034 
L 239.184926 241.530526 
L 239.381989 240.954801 
L 239.579052 241.502676 
L 239.776115 241.174281 
L 239.874646 241.24648 
L 239.973178 241.450598 
L 240.071709 241.307337 
L 240.17024 241.432101 
L 240.268772 241.268004 
L 240.367303 241.489689 
L 240.465835 241.087041 
L 240.662898 241.465061 
L 240.859961 241.051717 
L 240.958492 241.501343 
L 241.057023 241.441827 
L 241.155555 241.138149 
L 241.352618 241.399519 
L 241.549681 241.521 
L 241.648212 241.084025 
L 241.845275 241.609569 
L 241.943806 241.175681 
L 242.042338 241.352976 
L 242.140869 241.126153 
L 242.239401 241.501989 
L 242.337932 241.464443 
L 242.436464 241.285733 
L 242.534995 241.674798 
L 242.633527 241.582539 
L 242.732058 241.745937 
L 242.830589 241.323927 
L 242.929121 241.361232 
L 243.027652 241.00294 
L 243.323247 241.72975 
L 243.618841 241.281804 
L 243.717372 241.533169 
L 244.012967 241.285469 
L 244.111498 241.696983 
L 244.308561 241.437378 
L 244.407093 241.468511 
L 244.505624 241.70697 
L 244.702687 241.214688 
L 244.801218 241.632104 
L 244.89975 241.238362 
L 245.096813 241.543377 
L 245.195344 241.07669 
L 245.392407 241.478568 
L 245.490939 241.22236 
L 245.58947 241.530562 
L 245.688001 241.426284 
L 245.786533 241.00591 
L 245.885064 241.846659 
L 245.983596 241.667002 
L 246.082127 241.063558 
L 246.27919 241.734368 
L 246.377722 241.112733 
L 246.476253 241.226024 
L 246.574784 241.163295 
L 246.673316 241.480758 
L 246.771847 241.258551 
L 246.96891 241.56073 
L 247.067442 241.331948 
L 247.264505 241.400374 
L 247.461567 241.500745 
L 247.560099 241.817769 
L 247.855693 241.061797 
L 248.151288 241.573487 
L 248.249819 241.569498 
L 248.545413 241.113983 
L 248.841008 241.553094 
L 249.038071 240.912918 
L 249.136602 241.568391 
L 249.235133 241.163175 
L 249.333665 241.565009 
L 249.530728 240.859086 
L 249.727791 241.514545 
L 249.826322 241.030508 
L 249.924854 241.426475 
L 250.023385 241.3725 
L 250.121916 241.043413 
L 250.318979 241.635879 
L 250.614574 240.795188 
L 250.811637 241.620064 
L 250.910168 240.972867 
L 251.008699 241.237308 
L 251.107231 241.010454 
L 251.205762 241.622524 
L 251.402825 241.443568 
L 251.501357 241.478596 
L 251.599888 241.362497 
L 251.69842 241.609953 
L 251.796951 241.28177 
L 251.994014 241.562915 
L 252.191077 241.028121 
L 252.289608 241.525693 
L 252.38814 241.323881 
L 252.585203 241.6028 
L 252.683734 241.326076 
L 252.782266 241.55499 
L 252.880797 241.185547 
L 252.979328 241.380012 
L 253.07786 241.1578 
L 253.274923 241.587347 
L 253.373454 241.328605 
L 253.471986 241.467417 
L 253.669049 241.388121 
L 253.76758 241.534533 
L 254.063174 241.349584 
L 254.161706 241.63131 
L 254.358769 241.152614 
L 254.555832 241.279891 
L 254.654363 241.018414 
L 254.752894 241.530656 
L 254.851426 241.206536 
L 255.048489 241.62568 
L 255.245552 241.328447 
L 255.344083 241.26007 
L 255.442615 240.866947 
L 255.83674 241.549651 
L 256.033803 241.285872 
L 256.230866 241.70498 
L 256.329398 240.493262 
L 256.52646 241.721431 
L 256.624992 240.840148 
L 256.723523 241.839045 
L 256.822055 241.180251 
L 257.019118 241.596207 
L 257.117649 241.718587 
L 257.216181 241.110977 
L 257.511775 241.470025 
L 257.610306 241.311471 
L 257.708838 241.674095 
L 257.807369 241.128016 
L 258.004432 241.448742 
L 258.102964 241.326775 
L 258.201495 241.560386 
L 258.398558 241.270173 
L 258.694152 241.575617 
L 258.792684 241.046993 
L 258.989747 241.545525 
L 259.088278 240.939158 
L 259.285341 241.558707 
L 259.482404 241.257699 
L 259.679467 241.493924 
L 259.777998 241.155547 
L 259.975061 241.234931 
L 260.073593 241.133153 
L 260.172124 241.620463 
L 260.270655 241.590655 
L 260.369187 241.107706 
L 260.664781 241.713079 
L 260.861844 241.231452 
L 260.960376 241.447807 
L 261.157438 241.108436 
L 261.25597 241.096892 
L 261.354501 241.753559 
L 261.453033 241.344763 
L 261.748627 241.683481 
L 262.044221 241.494401 
L 262.142753 241.519288 
L 262.241284 241.071592 
L 262.339816 241.445777 
L 262.536879 241.134741 
L 262.63541 241.437529 
L 262.733942 241.058808 
L 263.029536 241.910874 
L 263.226599 241.622766 
L 263.522193 241.155361 
L 263.620725 241.673787 
L 263.719256 240.89199 
L 263.817787 241.553904 
L 263.916319 241.319985 
L 264.01485 241.433191 
L 264.211913 241.353593 
L 264.310445 241.687009 
L 264.408976 241.648552 
L 264.507508 241.133557 
L 264.606039 241.412082 
L 264.803102 241.147224 
L 264.901633 241.642766 
L 265.000165 241.31573 
L 265.098696 241.915205 
L 265.197228 241.401411 
L 265.295759 241.765192 
L 265.394291 241.529701 
L 265.492822 240.910036 
L 265.591353 241.217337 
L 265.689885 240.923559 
L 265.886948 241.604454 
L 265.985479 241.325364 
L 266.084011 241.404731 
L 266.182542 241.297164 
L 266.281074 241.43031 
L 266.379605 241.107041 
L 266.478136 241.746676 
L 266.675199 241.190154 
L 266.773731 241.077232 
L 266.970794 241.662885 
L 267.069325 241.764658 
L 267.167857 241.254803 
L 267.266388 241.506126 
L 267.36492 241.396608 
L 267.463451 241.49191 
L 267.561982 240.606489 
L 267.660514 241.184203 
L 267.759045 241.120925 
L 267.857577 241.214239 
L 267.956108 241.491297 
L 268.251703 241.129148 
L 268.350234 241.421171 
L 268.448765 241.239743 
L 268.547297 241.524313 
L 268.645828 241.489581 
L 268.74436 241.411103 
L 268.941423 241.590329 
L 269.039954 241.524249 
L 269.237017 241.24163 
L 269.43408 241.550359 
L 269.532611 241.364836 
L 269.631143 241.731366 
L 269.828206 241.190519 
L 270.025269 241.319526 
L 270.222331 241.262148 
L 270.320863 241.645776 
L 270.419394 241.338649 
L 270.517926 241.593926 
L 270.616457 241.438993 
L 270.714989 241.041501 
L 270.912052 241.640403 
L 271.010583 240.981072 
L 271.109114 241.516697 
L 271.306177 241.176431 
L 271.50324 241.658627 
L 271.601772 241.670882 
L 271.700303 241.205225 
L 271.798835 241.249663 
L 271.995897 241.420301 
L 272.094429 241.100903 
L 272.19296 241.36211 
L 272.390023 241.107412 
L 272.488555 241.739577 
L 272.587086 241.462065 
L 272.685618 241.660055 
L 272.784149 241.428211 
L 272.88268 241.510692 
L 272.981212 241.225507 
L 273.079743 241.653434 
L 273.178275 241.132016 
L 273.473869 241.569213 
L 273.572401 241.642492 
L 273.670932 241.3945 
L 273.769463 241.835877 
L 273.867995 241.294894 
L 274.065058 241.616752 
L 274.262121 241.530299 
L 274.459184 241.624309 
L 274.656247 241.080757 
L 274.754778 241.425395 
L 274.853309 241.26356 
L 274.951841 241.562033 
L 275.148904 241.280194 
L 275.247435 241.610036 
L 275.345967 241.576369 
L 275.444498 241.399627 
L 275.641561 241.46666 
L 275.740092 241.283634 
L 275.838624 241.351712 
L 275.937155 241.719294 
L 276.134218 241.554746 
L 276.23275 241.58306 
L 276.331281 241.341033 
L 276.429813 241.576357 
L 276.528344 241.489883 
L 276.626875 241.728405 
L 276.823938 241.299002 
L 276.92247 241.586467 
L 277.119533 241.372407 
L 277.218064 241.605866 
L 277.316596 241.535221 
L 277.415127 241.273604 
L 277.513658 241.399148 
L 277.61219 241.83374 
L 277.907784 241.321038 
L 278.104847 241.618421 
L 278.203379 241.693887 
L 278.498973 241.395344 
L 278.597504 241.873298 
L 278.696036 240.753061 
L 278.794567 241.711025 
L 278.893099 241.503605 
L 278.99163 241.611965 
L 279.090162 241.376236 
L 279.188693 241.57887 
L 279.287224 241.468959 
L 279.385756 241.70365 
L 279.484287 241.494451 
L 279.582819 241.734408 
L 279.779882 241.542052 
L 279.976945 241.774686 
L 280.075476 241.434712 
L 280.272539 241.802757 
L 280.37107 241.210856 
L 280.469602 241.642321 
L 280.568133 241.327656 
L 280.765196 241.788977 
L 280.962259 241.278943 
L 281.06079 241.301346 
L 281.159322 241.713536 
L 281.257853 241.252994 
L 281.356385 241.720042 
L 281.454916 241.552527 
L 281.553448 241.686332 
L 282.046105 241.371891 
L 282.341699 241.782237 
L 282.440231 241.600653 
L 282.538762 241.8515 
L 282.637294 241.634247 
L 282.735825 241.143434 
L 282.932888 241.472468 
L 283.228482 241.668793 
L 283.327014 241.812376 
L 283.425545 241.649151 
L 283.524077 241.814626 
L 283.72114 241.719138 
L 284.016734 241.473149 
L 284.115265 241.314305 
L 284.312328 241.865239 
L 284.41086 241.579071 
L 284.509391 241.796273 
L 284.607923 241.569945 
L 284.706454 241.746012 
L 284.903517 241.636829 
L 285.199111 241.932325 
L 285.297643 241.306852 
L 285.396174 241.460004 
L 285.494706 241.269921 
L 285.593237 241.804648 
L 285.691768 241.39482 
L 285.987363 241.860926 
L 286.184426 241.402836 
L 286.381489 241.473141 
L 286.578551 241.417684 
L 286.677083 241.670892 
L 286.775614 241.538755 
L 286.874146 241.80292 
L 286.972677 241.616841 
L 287.071209 241.731374 
L 287.16974 241.20619 
L 287.268272 241.755593 
L 287.465334 241.643881 
L 287.760929 241.620733 
L 287.85946 241.784999 
L 287.957992 241.590769 
L 288.056523 241.744974 
L 288.253586 241.432176 
L 288.450649 241.681824 
L 288.54918 241.740957 
L 288.647712 241.509826 
L 288.844775 241.816655 
L 288.943306 241.538262 
L 289.140369 241.670255 
L 289.2389 241.38649 
L 289.337432 241.690114 
L 289.534495 241.452396 
L 289.633026 241.738757 
L 289.830089 241.416846 
L 290.027152 241.803493 
L 290.224215 241.622799 
L 290.322746 241.747402 
L 290.421278 241.34072 
L 290.618341 241.970091 
L 290.913935 241.481447 
L 291.012467 241.843376 
L 291.209529 241.468576 
L 291.308061 241.508883 
L 291.406592 241.033294 
L 291.603655 241.75279 
L 291.702187 241.364577 
L 291.997781 241.686397 
L 292.194844 241.452313 
L 292.293375 241.672043 
L 292.391907 241.410546 
L 292.490438 241.490369 
L 292.58897 241.731738 
L 292.687501 241.669279 
L 292.786033 241.392466 
L 292.884564 241.434969 
L 293.081627 241.754234 
L 293.180158 241.644101 
L 293.27869 241.39706 
L 293.475753 241.685002 
L 293.574284 241.572558 
L 293.771347 241.867866 
L 293.869878 241.715911 
L 293.96841 241.090939 
L 294.066941 241.254504 
L 294.165473 241.681863 
L 294.362536 241.208788 
L 294.559599 241.749572 
L 294.65813 241.695765 
L 294.756661 241.762982 
L 294.855193 241.361243 
L 294.953724 241.720887 
L 295.052256 241.359042 
L 295.249319 241.811087 
L 295.446382 241.356749 
L 295.544913 241.329414 
L 295.741976 241.67092 
L 295.840507 241.410917 
L 295.939039 241.805239 
L 296.136102 241.542532 
L 296.234633 241.688411 
L 296.333165 241.614811 
L 296.431696 241.118339 
L 296.530227 241.22526 
L 296.72729 241.749962 
L 296.825822 241.948342 
L 296.924353 241.261753 
L 297.121416 241.69028 
L 297.219948 241.385415 
L 297.318479 241.693679 
L 297.417011 241.658497 
L 297.614073 241.62711 
L 297.712605 241.702851 
L 297.909668 241.429594 
L 298.008199 241.670917 
L 298.106731 241.499162 
L 298.205262 241.869333 
L 298.599388 241.546435 
L 298.894982 241.605223 
L 298.993514 241.541508 
L 299.092045 241.808291 
L 299.190577 241.329709 
L 299.387639 241.660382 
L 299.683234 241.569726 
L 299.880297 241.816352 
L 300.175891 241.376232 
L 300.274422 241.527628 
L 300.471485 241.479608 
L 300.668548 241.721886 
L 300.865611 241.599704 
L 300.964143 241.836758 
L 301.161205 240.945774 
L 301.358268 241.83313 
L 301.653863 241.467656 
L 301.752394 242.045034 
L 302.047988 241.189437 
L 302.245051 241.797895 
L 302.442114 241.440725 
L 302.540646 241.856311 
L 302.639177 241.562714 
L 302.737709 240.845149 
L 302.934771 241.593229 
L 303.033303 241.932279 
L 303.131834 241.640943 
L 303.328897 241.964079 
L 303.427429 241.917698 
L 303.624492 241.586873 
L 303.723023 241.93934 
L 303.920086 241.580173 
L 304.21568 241.957247 
L 304.314212 241.71179 
L 304.412743 241.818001 
L 304.609806 241.533801 
L 304.708338 241.897769 
L 304.9054 241.593242 
L 305.102463 241.818407 
L 305.200995 241.081108 
L 305.299526 241.56771 
L 305.398058 241.470573 
L 305.496589 241.647007 
L 305.595121 241.507196 
L 305.792183 241.794569 
L 305.890715 241.667349 
L 305.989246 241.878736 
L 306.087778 241.402126 
L 306.284841 241.903003 
L 306.383372 241.203179 
L 306.481904 241.848711 
L 306.580435 241.234706 
L 306.678966 241.590678 
L 306.777498 241.399436 
L 306.876029 241.614191 
L 306.974561 241.495307 
L 307.270155 241.872277 
L 307.368687 241.357114 
L 307.467218 241.405355 
L 307.565749 241.522618 
L 307.664281 241.324141 
L 307.861344 241.860884 
L 307.959875 241.804999 
L 308.058407 241.713114 
L 308.156938 241.187464 
L 308.25547 241.715012 
L 308.354001 241.665546 
L 308.452532 241.73066 
L 308.649595 241.430656 
L 308.846658 242.107355 
L 309.043721 241.230508 
L 309.240784 241.921063 
L 309.339315 241.736668 
L 309.63491 241.84463 
L 309.733441 241.348686 
L 310.029036 241.91255 
L 310.32463 241.558546 
L 310.620224 241.723416 
L 310.718756 241.466311 
L 310.817287 241.721861 
L 310.915819 241.670381 
L 311.211413 241.504714 
L 311.309944 241.666645 
L 311.408476 241.222883 
L 311.507007 241.946511 
L 311.70407 241.485254 
L 311.901133 241.768532 
L 311.999664 241.527012 
L 312.098196 241.80554 
L 312.196727 241.454356 
L 312.39379 241.811047 
L 312.590853 241.24229 
L 312.689385 241.335231 
L 312.787916 241.448437 
L 312.886448 241.262603 
L 313.182042 241.891159 
L 313.280573 241.663655 
L 313.379105 241.861718 
L 313.576168 241.751524 
L 313.674699 241.857395 
L 313.773231 241.733841 
L 313.970293 241.870401 
L 314.167356 241.699196 
L 314.265888 241.906372 
L 314.364419 241.655683 
L 314.561482 241.79504 
L 314.857076 241.657659 
L 314.955608 241.801201 
L 315.152671 241.745696 
L 315.448265 241.872747 
L 315.546797 241.003283 
L 315.743859 241.841281 
L 315.842391 241.911344 
L 316.039454 241.664617 
L 316.137985 241.424013 
L 316.236517 241.655709 
L 316.43358 241.529158 
L 316.532111 241.176141 
L 316.630642 241.790379 
L 316.729174 240.816711 
L 316.926237 241.632049 
L 317.024768 241.767897 
L 317.1233 241.239304 
L 317.320363 241.673298 
L 317.418894 241.645432 
L 317.517425 241.779311 
L 317.615957 241.559245 
L 317.81302 241.89565 
L 317.911551 241.551198 
L 318.108614 241.889399 
L 318.207146 241.770047 
L 318.305677 241.912659 
L 318.50274 241.555827 
L 318.601271 241.808451 
L 318.798334 241.683553 
L 318.896866 241.230466 
L 318.995397 241.823923 
L 319.093929 241.381775 
L 319.19246 241.913955 
L 319.389523 241.407667 
L 319.586586 241.839866 
L 319.685117 241.772387 
L 319.783649 241.356716 
L 319.88218 241.765312 
L 319.980712 241.581335 
L 320.177775 241.705023 
L 320.276306 241.390685 
L 320.473369 241.649634 
L 320.5719 241.301799 
L 320.768963 241.706 
L 320.966026 241.489728 
L 321.360152 241.854439 
L 321.557215 241.634893 
L 321.655746 241.704305 
L 321.852809 241.5944 
L 321.951341 241.887047 
L 322.049872 241.022864 
L 322.148403 241.841815 
L 322.345466 241.596017 
L 322.443998 241.752105 
L 322.542529 241.553564 
L 322.641061 241.921118 
L 322.739592 241.614565 
L 322.838124 241.793042 
L 323.133718 241.344712 
L 323.232249 241.643273 
L 323.330781 241.543222 
L 323.429312 241.84841 
L 323.527844 241.628967 
L 323.626375 241.886684 
L 323.823438 241.474878 
L 323.921969 242.041102 
L 324.020501 241.745621 
L 324.119032 241.803202 
L 324.217564 241.540073 
L 324.316095 241.678082 
L 324.414627 241.500001 
L 324.710221 241.807008 
L 324.808752 241.865707 
L 324.907284 241.60223 
L 325.005815 241.948886 
L 325.104347 241.438488 
L 325.399941 241.995538 
L 325.498473 241.626282 
L 325.597004 241.673565 
L 325.695535 241.535106 
L 325.794067 241.891952 
L 325.892598 241.575488 
L 325.99113 241.67546 
L 326.089661 241.443255 
L 326.286724 241.861659 
L 326.385256 241.77589 
L 326.483787 241.538518 
L 326.68085 241.811309 
L 326.779381 241.922329 
L 326.976444 241.613373 
L 327.173507 241.392016 
L 327.272039 241.848471 
L 327.37057 241.757669 
L 327.469102 241.961614 
L 327.567633 241.698125 
L 327.666164 241.788604 
L 327.764696 241.586129 
L 327.863227 241.883365 
L 327.961759 241.610711 
L 328.158822 241.840429 
L 328.257353 241.809596 
L 328.355885 241.567389 
L 328.454416 241.917066 
L 328.552947 241.32064 
L 328.947073 241.740691 
L 329.144136 241.601496 
L 329.636793 241.803937 
L 329.735325 241.576275 
L 329.833856 241.626348 
L 329.932388 242.006498 
L 330.129451 241.358343 
L 330.227982 241.793035 
L 330.326513 241.540136 
L 330.523576 241.625954 
L 330.622108 241.361612 
L 331.016234 241.919186 
L 331.114765 241.324176 
L 331.508891 241.876555 
L 331.607422 241.249849 
L 331.705954 241.297801 
L 331.903017 241.84984 
L 332.001548 241.725643 
L 332.100079 241.202892 
L 332.198611 241.978884 
L 332.297142 241.661247 
L 332.395674 242.03458 
L 332.494205 241.599764 
L 332.691268 242.002774 
L 332.888331 241.780264 
L 332.986862 241.967201 
L 333.085394 241.293727 
L 333.183925 241.976409 
L 333.282457 241.430017 
L 333.380988 241.801476 
L 333.47952 241.016533 
L 333.578051 241.918451 
L 333.676583 241.890129 
L 333.775114 241.974395 
L 334.070708 241.684305 
L 334.16924 241.858611 
L 334.267771 241.778154 
L 334.366303 241.539906 
L 334.464834 241.895976 
L 334.563366 241.782137 
L 334.760428 241.923115 
L 334.85896 241.694833 
L 334.957491 241.948036 
L 335.056023 241.586341 
L 335.253086 242.038417 
L 335.351617 241.39086 
L 335.450149 241.714909 
L 335.745743 241.358926 
L 335.844274 241.665303 
L 336.041337 241.41462 
L 336.2384 241.988638 
L 336.435463 241.633439 
L 336.533995 241.725512 
L 336.632526 241.97351 
L 336.829589 241.597763 
L 337.026652 241.826954 
L 337.125183 241.806255 
L 337.223715 241.62388 
L 337.322246 241.75262 
L 337.519309 241.390802 
L 337.61784 241.838228 
L 337.716372 241.779137 
L 337.814903 242.01225 
L 337.913435 241.629618 
L 338.011966 241.929735 
L 338.209029 241.534228 
L 338.307561 241.786841 
L 338.406092 241.696232 
L 338.504623 241.954683 
L 338.701686 241.598704 
L 338.800218 241.998362 
L 338.898749 241.695872 
L 338.997281 242.034991 
L 339.194344 241.686694 
L 339.391406 241.402292 
L 339.489938 241.85332 
L 339.588469 241.741987 
L 339.687001 241.214905 
L 339.785532 241.696172 
L 339.884064 241.447942 
L 339.982595 241.756036 
L 340.081127 241.494788 
L 340.278189 241.723347 
L 340.376721 241.595421 
L 340.475252 241.887855 
L 340.672315 241.488685 
L 340.770847 241.895853 
L 340.869378 241.814577 
L 340.96791 242.010983 
L 341.164972 241.618702 
L 341.263504 241.957228 
L 341.460567 241.59023 
L 341.559098 241.772645 
L 341.65763 241.479605 
L 341.854693 241.769433 
L 341.953224 241.33177 
L 342.150287 242.051744 
L 342.248818 241.762889 
L 342.34735 241.801856 
L 342.544413 241.964603 
L 342.642944 241.387146 
L 342.840007 241.859609 
L 342.938539 241.950385 
L 343.03707 241.49789 
L 343.135601 241.88901 
L 343.332664 241.338044 
L 343.431196 241.953756 
L 343.628259 241.492918 
L 343.72679 241.819036 
L 343.825322 241.552971 
L 344.022384 241.835434 
L 344.120916 241.816673 
L 344.317979 241.475177 
L 344.41651 241.993091 
L 344.613573 241.497354 
L 344.712105 241.404348 
L 344.909167 241.622727 
L 345.007699 241.597873 
L 345.10623 241.446574 
L 345.204762 241.88468 
L 345.401825 241.734148 
L 345.500356 242.116364 
L 345.697419 241.676754 
L 345.79595 241.83239 
L 345.894482 241.771649 
L 345.993013 241.526412 
L 346.190076 241.930541 
L 346.288608 241.647407 
L 346.387139 241.948585 
L 346.485671 241.762558 
L 346.584202 241.895498 
L 346.879796 241.742619 
L 347.076859 241.797975 
L 347.273922 241.742567 
L 347.372454 241.972252 
L 347.470985 241.90182 
L 347.668048 241.06612 
L 347.766579 241.861983 
L 347.865111 241.772494 
L 347.963642 241.806893 
L 348.062174 241.295282 
L 348.160705 241.81835 
L 348.357768 241.549864 
L 348.554831 241.843813 
L 348.751894 241.544106 
L 348.850425 241.824869 
L 349.14602 241.439891 
L 349.441614 241.842785 
L 349.540145 241.90411 
L 349.638677 241.529448 
L 350.032803 241.974074 
L 350.328397 241.811364 
L 350.52546 241.917532 
L 350.623991 241.911314 
L 350.722523 241.346365 
L 350.821054 241.920464 
L 350.919586 241.779189 
L 351.116649 241.966311 
L 351.412243 241.652237 
L 351.510774 241.275216 
L 351.609306 241.979542 
L 351.806369 241.644204 
L 352.003432 241.987082 
L 352.101963 241.823462 
L 352.200494 241.963647 
L 352.299026 241.712355 
L 352.397557 242.06358 
L 352.496089 241.634436 
L 352.59462 241.921008 
L 352.988746 241.762354 
L 353.087277 241.884739 
L 353.382872 241.644808 
L 353.481403 241.925155 
L 353.579935 241.882264 
L 353.678466 241.516712 
L 353.875529 241.767738 
L 353.97406 241.605705 
L 354.171123 241.809719 
L 354.269655 241.806671 
L 354.368186 241.938469 
L 354.466718 241.702539 
L 354.565249 241.992086 
L 354.762312 241.57872 
L 354.959375 241.865082 
L 355.057906 241.479135 
L 355.156438 241.830972 
L 355.254969 241.402045 
L 355.353501 241.76794 
L 355.452032 241.468893 
L 355.649095 241.718852 
L 355.846158 241.992576 
L 356.043221 241.752975 
L 356.240284 241.60948 
L 356.338815 241.859294 
L 356.634409 241.618769 
L 356.831472 241.9466 
L 357.127067 241.656276 
L 357.32413 241.731418 
L 357.521193 241.713178 
L 357.619724 241.96272 
L 357.718255 241.738764 
L 357.816787 241.897436 
L 358.01385 241.781582 
L 358.112381 241.357533 
L 358.210913 241.848438 
L 358.309444 241.55083 
L 358.407976 241.619712 
L 358.605038 241.873133 
L 358.70357 241.742302 
L 358.802101 242.030865 
L 358.900633 241.535223 
L 359.097696 241.864935 
L 359.294759 241.421009 
L 359.491821 241.867384 
L 359.590353 241.731674 
L 359.787416 241.999604 
L 359.984479 241.881863 
L 360.08301 242.101787 
L 360.181542 241.794959 
L 360.280073 241.885104 
L 360.477136 241.700236 
L 360.575667 241.66763 
L 360.674199 241.787549 
L 360.77273 241.723278 
L 360.871262 242.030586 
L 360.969793 241.744226 
L 361.068325 241.822491 
L 361.166856 241.416798 
L 361.363919 241.996591 
L 361.46245 241.909231 
L 361.560982 241.547683 
L 361.659513 241.84775 
L 361.955108 241.705522 
L 362.15217 241.806012 
L 362.250702 241.667388 
L 362.349233 241.77334 
L 362.447765 241.712748 
L 362.644828 241.78885 
L 362.841891 241.857684 
L 362.940422 241.610494 
L 363.137485 241.990884 
L 363.236016 241.528964 
L 363.334548 242.017725 
L 363.433079 241.969086 
L 363.630142 241.820997 
L 363.728674 241.941566 
L 363.827205 241.723662 
L 364.024268 241.963019 
L 364.122799 241.947905 
L 364.221331 241.747893 
L 364.319862 241.269677 
L 364.418394 241.988259 
L 364.713988 241.663302 
L 364.812519 241.747262 
L 364.911051 241.643287 
L 365.108114 241.997983 
L 365.403708 241.585404 
L 365.50224 241.585936 
L 365.600771 241.864298 
L 365.797834 241.538771 
L 366.093428 241.735254 
L 366.19196 241.584712 
L 366.290491 241.75356 
L 366.487554 241.613218 
L 366.783148 241.896514 
L 366.88168 241.663612 
L 367.177274 241.785001 
L 367.275806 241.491686 
L 367.374337 241.793169 
L 367.472869 241.759101 
L 367.5714 241.776274 
L 367.669931 242.023123 
L 367.768463 241.338651 
L 367.866994 242.037389 
L 368.064057 241.617444 
L 368.162589 241.663051 
L 368.26112 241.931104 
L 368.359652 241.406054 
L 368.458183 241.836099 
L 368.556714 241.77154 
L 368.655246 241.843466 
L 368.753777 241.689334 
L 368.852309 241.984066 
L 368.95084 241.9505 
L 369.147903 241.810985 
L 369.246435 241.655816 
L 369.542029 241.75284 
L 369.64056 241.566695 
L 369.739092 241.76053 
L 369.837623 241.343592 
L 369.936155 242.081517 
L 370.133218 241.379893 
L 370.231749 241.953424 
L 370.33028 241.606948 
L 370.527343 241.87275 
L 370.625875 241.74187 
L 370.724406 241.40025 
L 370.822938 241.785346 
L 370.921469 241.328895 
L 371.020001 241.787834 
L 371.118532 241.583895 
L 371.315595 241.720777 
L 371.512658 241.831268 
L 371.611189 241.889531 
L 371.709721 241.645723 
L 371.808252 241.821376 
L 371.906784 241.658899 
L 372.005315 241.858736 
L 372.103846 241.756645 
L 372.202378 242.073148 
L 372.300909 241.569484 
L 372.399441 242.106007 
L 372.497972 241.546434 
L 372.793567 241.96817 
L 372.892098 241.858718 
L 373.089161 241.608375 
L 373.286224 241.876525 
L 373.483287 241.618826 
L 373.581818 241.674833 
L 373.581818 241.674833 
" style="fill:none;stroke:#1f77b4;stroke-linecap:square;stroke-width:1.5;"/>
   </g>
   <g id="patch_3">
    <path d="M 54 252 
L 54 34.56 
" style="fill:none;stroke:#000000;stroke-linecap:square;stroke-linejoin:miter;stroke-width:0.8;"/>
   </g>
   <g id="patch_4">
    <path d="M 388.8 252 
L 388.8 34.56 
" style="fill:none;stroke:#000000;stroke-linecap:square;stroke-linejoin:miter;stroke-width:0.8;"/>
   </g>
   <g id="patch_5">
    <path d="M 54 252 
L 388.8 252 
" style="fill:none;stroke:#000000;stroke-linecap:square;stroke-linejoin:miter;stroke-width:0.8;"/>
   </g>
   <g id="patch_6">
    <path d="M 54 34.56 
L 388.8 34.56 
" style="fill:none;stroke:#000000;stroke-linecap:square;stroke-linejoin:miter;stroke-width:0.8;"/>
   </g>
  </g>
 </g>
 <defs>
  <clipPath id="p017ae79371">
   <rect height="217.44" width="334.8" x="54" y="34.56"/>
  </clipPath>
 </defs>
</svg>
