<?xml version="1.0" encoding="utf-8" standalone="no"?>
<!DOCTYPE svg PUBLIC "-//W3C//DTD SVG 1.1//EN"
  "http://www.w3.org/Graphics/SVG/1.1/DTD/svg11.dtd">
<!-- Created with matplotlib (https://matplotlib.org/) -->
<svg height="288pt" version="1.1" viewBox="0 0 432 288" width="432pt" xmlns="http://www.w3.org/2000/svg" xmlns:xlink="http://www.w3.org/1999/xlink">
 <defs>
  <style type="text/css">
*{stroke-linecap:butt;stroke-linejoin:round;}
  </style>
 </defs>
 <g id="figure_1">
  <g id="patch_1">
   <path d="M 0 288 
L 432 288 
L 432 0 
L 0 0 
z
" style="fill:#ffffff;"/>
  </g>
  <g id="axes_1">
   <g id="patch_2">
    <path d="M 54 252 
L 388.8 252 
L 388.8 34.56 
L 54 34.56 
z
" style="fill:#ffffff;"/>
   </g>
   <g id="matplotlib.axis_1">
    <g id="xtick_1">
     <g id="line2d_1">
      <defs>
       <path d="M 0 0 
L 0 3.5 
" id="mc8c9410112" style="stroke:#000000;stroke-width:0.8;"/>
      </defs>
      <g>
       <use style="stroke:#000000;stroke-width:0.8;" x="69.218182" xlink:href="#mc8c9410112" y="252"/>
      </g>
     </g>
     <g id="text_1">
      <!-- 0 -->
      <defs>
       <path d="M 31.78125 66.40625 
Q 24.171875 66.40625 20.328125 58.90625 
Q 16.5 51.421875 16.5 36.375 
Q 16.5 21.390625 20.328125 13.890625 
Q 24.171875 6.390625 31.78125 6.390625 
Q 39.453125 6.390625 43.28125 13.890625 
Q 47.125 21.390625 47.125 36.375 
Q 47.125 51.421875 43.28125 58.90625 
Q 39.453125 66.40625 31.78125 66.40625 
z
M 31.78125 74.21875 
Q 44.046875 74.21875 50.515625 64.515625 
Q 56.984375 54.828125 56.984375 36.375 
Q 56.984375 17.96875 50.515625 8.265625 
Q 44.046875 -1.421875 31.78125 -1.421875 
Q 19.53125 -1.421875 13.0625 8.265625 
Q 6.59375 17.96875 6.59375 36.375 
Q 6.59375 54.828125 13.0625 64.515625 
Q 19.53125 74.21875 31.78125 74.21875 
z
" id="DejaVuSans-48"/>
      </defs>
      <g transform="translate(66.036932 266.598437)scale(0.1 -0.1)">
       <use xlink:href="#DejaVuSans-48"/>
      </g>
     </g>
    </g>
    <g id="xtick_2">
     <g id="line2d_2">
      <g>
       <use style="stroke:#000000;stroke-width:0.8;" x="111.37381" xlink:href="#mc8c9410112" y="252"/>
      </g>
     </g>
     <g id="text_2">
      <!-- 250 -->
      <defs>
       <path d="M 19.1875 8.296875 
L 53.609375 8.296875 
L 53.609375 0 
L 7.328125 0 
L 7.328125 8.296875 
Q 12.9375 14.109375 22.625 23.890625 
Q 32.328125 33.6875 34.8125 36.53125 
Q 39.546875 41.84375 41.421875 45.53125 
Q 43.3125 49.21875 43.3125 52.78125 
Q 43.3125 58.59375 39.234375 62.25 
Q 35.15625 65.921875 28.609375 65.921875 
Q 23.96875 65.921875 18.8125 64.3125 
Q 13.671875 62.703125 7.8125 59.421875 
L 7.8125 69.390625 
Q 13.765625 71.78125 18.9375 73 
Q 24.125 74.21875 28.421875 74.21875 
Q 39.75 74.21875 46.484375 68.546875 
Q 53.21875 62.890625 53.21875 53.421875 
Q 53.21875 48.921875 51.53125 44.890625 
Q 49.859375 40.875 45.40625 35.40625 
Q 44.1875 33.984375 37.640625 27.21875 
Q 31.109375 20.453125 19.1875 8.296875 
z
" id="DejaVuSans-50"/>
       <path d="M 10.796875 72.90625 
L 49.515625 72.90625 
L 49.515625 64.59375 
L 19.828125 64.59375 
L 19.828125 46.734375 
Q 21.96875 47.46875 24.109375 47.828125 
Q 26.265625 48.1875 28.421875 48.1875 
Q 40.625 48.1875 47.75 41.5 
Q 54.890625 34.8125 54.890625 23.390625 
Q 54.890625 11.625 47.5625 5.09375 
Q 40.234375 -1.421875 26.90625 -1.421875 
Q 22.3125 -1.421875 17.546875 -0.640625 
Q 12.796875 0.140625 7.71875 1.703125 
L 7.71875 11.625 
Q 12.109375 9.234375 16.796875 8.0625 
Q 21.484375 6.890625 26.703125 6.890625 
Q 35.15625 6.890625 40.078125 11.328125 
Q 45.015625 15.765625 45.015625 23.390625 
Q 45.015625 31 40.078125 35.4375 
Q 35.15625 39.890625 26.703125 39.890625 
Q 22.75 39.890625 18.8125 39.015625 
Q 14.890625 38.140625 10.796875 36.28125 
z
" id="DejaVuSans-53"/>
      </defs>
      <g transform="translate(101.83006 266.598437)scale(0.1 -0.1)">
       <use xlink:href="#DejaVuSans-50"/>
       <use x="63.623047" xlink:href="#DejaVuSans-53"/>
       <use x="127.246094" xlink:href="#DejaVuSans-48"/>
      </g>
     </g>
    </g>
    <g id="xtick_3">
     <g id="line2d_3">
      <g>
       <use style="stroke:#000000;stroke-width:0.8;" x="153.529438" xlink:href="#mc8c9410112" y="252"/>
      </g>
     </g>
     <g id="text_3">
      <!-- 500 -->
      <g transform="translate(143.985688 266.598437)scale(0.1 -0.1)">
       <use xlink:href="#DejaVuSans-53"/>
       <use x="63.623047" xlink:href="#DejaVuSans-48"/>
       <use x="127.246094" xlink:href="#DejaVuSans-48"/>
      </g>
     </g>
    </g>
    <g id="xtick_4">
     <g id="line2d_4">
      <g>
       <use style="stroke:#000000;stroke-width:0.8;" x="195.685067" xlink:href="#mc8c9410112" y="252"/>
      </g>
     </g>
     <g id="text_4">
      <!-- 750 -->
      <defs>
       <path d="M 8.203125 72.90625 
L 55.078125 72.90625 
L 55.078125 68.703125 
L 28.609375 0 
L 18.3125 0 
L 43.21875 64.59375 
L 8.203125 64.59375 
z
" id="DejaVuSans-55"/>
      </defs>
      <g transform="translate(186.141317 266.598437)scale(0.1 -0.1)">
       <use xlink:href="#DejaVuSans-55"/>
       <use x="63.623047" xlink:href="#DejaVuSans-53"/>
       <use x="127.246094" xlink:href="#DejaVuSans-48"/>
      </g>
     </g>
    </g>
    <g id="xtick_5">
     <g id="line2d_5">
      <g>
       <use style="stroke:#000000;stroke-width:0.8;" x="237.840695" xlink:href="#mc8c9410112" y="252"/>
      </g>
     </g>
     <g id="text_5">
      <!-- 1000 -->
      <defs>
       <path d="M 12.40625 8.296875 
L 28.515625 8.296875 
L 28.515625 63.921875 
L 10.984375 60.40625 
L 10.984375 69.390625 
L 28.421875 72.90625 
L 38.28125 72.90625 
L 38.28125 8.296875 
L 54.390625 8.296875 
L 54.390625 0 
L 12.40625 0 
z
" id="DejaVuSans-49"/>
      </defs>
      <g transform="translate(225.115695 266.598437)scale(0.1 -0.1)">
       <use xlink:href="#DejaVuSans-49"/>
       <use x="63.623047" xlink:href="#DejaVuSans-48"/>
       <use x="127.246094" xlink:href="#DejaVuSans-48"/>
       <use x="190.869141" xlink:href="#DejaVuSans-48"/>
      </g>
     </g>
    </g>
    <g id="xtick_6">
     <g id="line2d_6">
      <g>
       <use style="stroke:#000000;stroke-width:0.8;" x="279.996323" xlink:href="#mc8c9410112" y="252"/>
      </g>
     </g>
     <g id="text_6">
      <!-- 1250 -->
      <g transform="translate(267.271323 266.598437)scale(0.1 -0.1)">
       <use xlink:href="#DejaVuSans-49"/>
       <use x="63.623047" xlink:href="#DejaVuSans-50"/>
       <use x="127.246094" xlink:href="#DejaVuSans-53"/>
       <use x="190.869141" xlink:href="#DejaVuSans-48"/>
      </g>
     </g>
    </g>
    <g id="xtick_7">
     <g id="line2d_7">
      <g>
       <use style="stroke:#000000;stroke-width:0.8;" x="322.151952" xlink:href="#mc8c9410112" y="252"/>
      </g>
     </g>
     <g id="text_7">
      <!-- 1500 -->
      <g transform="translate(309.426952 266.598437)scale(0.1 -0.1)">
       <use xlink:href="#DejaVuSans-49"/>
       <use x="63.623047" xlink:href="#DejaVuSans-53"/>
       <use x="127.246094" xlink:href="#DejaVuSans-48"/>
       <use x="190.869141" xlink:href="#DejaVuSans-48"/>
      </g>
     </g>
    </g>
    <g id="xtick_8">
     <g id="line2d_8">
      <g>
       <use style="stroke:#000000;stroke-width:0.8;" x="364.30758" xlink:href="#mc8c9410112" y="252"/>
      </g>
     </g>
     <g id="text_8">
      <!-- 1750 -->
      <g transform="translate(351.58258 266.598437)scale(0.1 -0.1)">
       <use xlink:href="#DejaVuSans-49"/>
       <use x="63.623047" xlink:href="#DejaVuSans-55"/>
       <use x="127.246094" xlink:href="#DejaVuSans-53"/>
       <use x="190.869141" xlink:href="#DejaVuSans-48"/>
      </g>
     </g>
    </g>
   </g>
   <g id="matplotlib.axis_2">
    <g id="ytick_1">
     <g id="line2d_9">
      <defs>
       <path d="M 0 0 
L -3.5 0 
" id="m14b06ff822" style="stroke:#000000;stroke-width:0.8;"/>
      </defs>
      <g>
       <use style="stroke:#000000;stroke-width:0.8;" x="54" xlink:href="#m14b06ff822" y="247.905353"/>
      </g>
     </g>
     <g id="text_9">
      <!-- 0 -->
      <g transform="translate(40.6375 251.704571)scale(0.1 -0.1)">
       <use xlink:href="#DejaVuSans-48"/>
      </g>
     </g>
    </g>
    <g id="ytick_2">
     <g id="line2d_10">
      <g>
       <use style="stroke:#000000;stroke-width:0.8;" x="54" xlink:href="#m14b06ff822" y="209.137326"/>
      </g>
     </g>
     <g id="text_10">
      <!-- 1 -->
      <g transform="translate(40.6375 212.936544)scale(0.1 -0.1)">
       <use xlink:href="#DejaVuSans-49"/>
      </g>
     </g>
    </g>
    <g id="ytick_3">
     <g id="line2d_11">
      <g>
       <use style="stroke:#000000;stroke-width:0.8;" x="54" xlink:href="#m14b06ff822" y="170.369299"/>
      </g>
     </g>
     <g id="text_11">
      <!-- 2 -->
      <g transform="translate(40.6375 174.168518)scale(0.1 -0.1)">
       <use xlink:href="#DejaVuSans-50"/>
      </g>
     </g>
    </g>
    <g id="ytick_4">
     <g id="line2d_12">
      <g>
       <use style="stroke:#000000;stroke-width:0.8;" x="54" xlink:href="#m14b06ff822" y="131.601272"/>
      </g>
     </g>
     <g id="text_12">
      <!-- 3 -->
      <defs>
       <path d="M 40.578125 39.3125 
Q 47.65625 37.796875 51.625 33 
Q 55.609375 28.21875 55.609375 21.1875 
Q 55.609375 10.40625 48.1875 4.484375 
Q 40.765625 -1.421875 27.09375 -1.421875 
Q 22.515625 -1.421875 17.65625 -0.515625 
Q 12.796875 0.390625 7.625 2.203125 
L 7.625 11.71875 
Q 11.71875 9.328125 16.59375 8.109375 
Q 21.484375 6.890625 26.8125 6.890625 
Q 36.078125 6.890625 40.9375 10.546875 
Q 45.796875 14.203125 45.796875 21.1875 
Q 45.796875 27.640625 41.28125 31.265625 
Q 36.765625 34.90625 28.71875 34.90625 
L 20.21875 34.90625 
L 20.21875 43.015625 
L 29.109375 43.015625 
Q 36.375 43.015625 40.234375 45.921875 
Q 44.09375 48.828125 44.09375 54.296875 
Q 44.09375 59.90625 40.109375 62.90625 
Q 36.140625 65.921875 28.71875 65.921875 
Q 24.65625 65.921875 20.015625 65.03125 
Q 15.375 64.15625 9.8125 62.3125 
L 9.8125 71.09375 
Q 15.4375 72.65625 20.34375 73.4375 
Q 25.25 74.21875 29.59375 74.21875 
Q 40.828125 74.21875 47.359375 69.109375 
Q 53.90625 64.015625 53.90625 55.328125 
Q 53.90625 49.265625 50.4375 45.09375 
Q 46.96875 40.921875 40.578125 39.3125 
z
" id="DejaVuSans-51"/>
      </defs>
      <g transform="translate(40.6375 135.400491)scale(0.1 -0.1)">
       <use xlink:href="#DejaVuSans-51"/>
      </g>
     </g>
    </g>
    <g id="ytick_5">
     <g id="line2d_13">
      <g>
       <use style="stroke:#000000;stroke-width:0.8;" x="54" xlink:href="#m14b06ff822" y="92.833245"/>
      </g>
     </g>
     <g id="text_13">
      <!-- 4 -->
      <defs>
       <path d="M 37.796875 64.3125 
L 12.890625 25.390625 
L 37.796875 25.390625 
z
M 35.203125 72.90625 
L 47.609375 72.90625 
L 47.609375 25.390625 
L 58.015625 25.390625 
L 58.015625 17.1875 
L 47.609375 17.1875 
L 47.609375 0 
L 37.796875 0 
L 37.796875 17.1875 
L 4.890625 17.1875 
L 4.890625 26.703125 
z
" id="DejaVuSans-52"/>
      </defs>
      <g transform="translate(40.6375 96.632464)scale(0.1 -0.1)">
       <use xlink:href="#DejaVuSans-52"/>
      </g>
     </g>
    </g>
    <g id="ytick_6">
     <g id="line2d_14">
      <g>
       <use style="stroke:#000000;stroke-width:0.8;" x="54" xlink:href="#m14b06ff822" y="54.065218"/>
      </g>
     </g>
     <g id="text_14">
      <!-- 5 -->
      <g transform="translate(40.6375 57.864437)scale(0.1 -0.1)">
       <use xlink:href="#DejaVuSans-53"/>
      </g>
     </g>
    </g>
   </g>
   <g id="line2d_15">
    <path clip-path="url(#p90f520dc08)" d="M 69.218182 47.162008 
L 69.555427 44.443636 
L 69.724049 45.06462 
L 70.567162 58.345643 
L 70.904407 64.625762 
L 71.073029 65.848567 
L 71.241652 68.217694 
L 71.410274 69.010664 
L 71.578897 71.961274 
L 71.74752 72.940357 
L 71.916142 72.535843 
L 72.084765 74.493731 
L 72.253387 71.677346 
L 72.42201 71.135912 
L 72.590632 68.388568 
L 72.927877 66.470503 
L 73.0965 66.935576 
L 73.77099 57.421578 
L 73.939612 57.739036 
L 74.276857 52.580435 
L 74.44548 51.736173 
L 74.614102 54.999746 
L 74.782725 52.381884 
L 74.951347 52.50297 
L 75.625837 60.497569 
L 75.79446 62.621683 
L 75.963082 68.520508 
L 76.131705 68.782427 
L 76.300327 70.524891 
L 76.46895 70.018192 
L 76.974817 64.526357 
L 77.14344 64.48651 
L 77.312062 63.755011 
L 77.649307 67.455338 
L 77.81793 66.024377 
L 77.986553 66.324028 
L 78.323798 69.717903 
L 78.829665 62.97361 
L 78.998288 63.147984 
L 79.16691 62.343118 
L 79.335533 58.859585 
L 79.504155 58.03076 
L 79.8414 59.628525 
L 80.347268 66.816236 
L 80.684513 69.72267 
L 80.853135 70.038758 
L 81.021758 66.795379 
L 81.19038 67.340086 
L 81.359003 62.304125 
L 81.527625 64.188022 
L 81.696248 63.661328 
L 81.86487 62.160602 
L 82.033493 64.125557 
L 82.370738 58.963519 
L 82.53936 59.628649 
L 82.707983 58.452154 
L 82.876605 60.990369 
L 83.045228 59.436603 
L 83.21385 60.447851 
L 83.382473 59.319756 
L 83.551095 59.844495 
L 83.719718 61.453436 
L 83.88834 61.369369 
L 84.056963 60.022147 
L 84.731453 66.905139 
L 84.900076 64.348113 
L 85.068698 65.023419 
L 85.237321 64.424887 
L 85.405943 61.639056 
L 85.743188 70.813783 
L 85.911811 70.181781 
L 86.080433 72.498904 
L 86.249056 70.919502 
L 86.586301 75.740357 
L 86.754923 77.371293 
L 86.923546 77.085244 
L 87.092168 77.20992 
L 87.260791 80.362107 
L 87.598036 76.563887 
L 87.935281 77.661449 
L 88.103903 80.591708 
L 88.441148 78.892121 
L 88.609771 81.763115 
L 88.778393 81.711419 
L 88.947016 80.878226 
L 89.115638 78.890957 
L 89.452883 80.226323 
L 89.621506 79.245236 
L 89.790128 79.453454 
L 89.958751 78.164573 
L 90.127373 75.712072 
L 90.295996 76.385985 
L 90.464618 74.353543 
L 90.633241 70.933207 
L 90.970486 76.123771 
L 91.139109 76.297189 
L 91.307731 77.911471 
L 91.476354 76.087417 
L 91.644976 77.087339 
L 91.982221 75.489607 
L 92.150844 76.862561 
L 92.319466 76.077347 
L 92.656711 79.678373 
L 92.825334 79.351494 
L 92.993956 81.410323 
L 93.331201 76.103076 
L 93.499824 79.646829 
L 93.668446 79.701066 
L 93.837069 78.753303 
L 94.005691 76.687811 
L 94.174314 79.006025 
L 94.342936 76.560051 
L 94.511559 79.719147 
L 94.848804 81.428347 
L 95.017426 79.979128 
L 95.354671 79.770941 
L 95.523294 79.851294 
L 95.691916 78.396691 
L 95.860539 74.808773 
L 96.029161 75.274312 
L 96.197784 77.703753 
L 96.535029 79.205994 
L 96.872274 80.986376 
L 97.040896 80.37906 
L 97.378142 86.692552 
L 97.546764 84.058738 
L 97.715387 86.689645 
L 98.052632 84.281106 
L 98.221254 85.077386 
L 98.389877 86.86309 
L 98.727122 91.651112 
L 98.895744 91.104465 
L 99.401612 99.371341 
L 99.570234 96.542988 
L 99.738857 96.813084 
L 99.907479 98.352175 
L 100.244724 94.35729 
L 100.581969 96.498617 
L 100.919214 102.85767 
L 101.087837 101.996534 
L 101.256459 102.383313 
L 101.425082 101.980038 
L 101.593704 101.22891 
L 101.930949 101.960666 
L 102.099572 103.363038 
L 102.268194 106.204375 
L 102.436817 106.351627 
L 102.605439 105.902447 
L 102.774062 103.990815 
L 102.942684 103.887895 
L 103.111307 101.935791 
L 103.279929 102.750967 
L 103.617175 107.726893 
L 103.785797 109.20544 
L 103.95442 108.783209 
L 104.291665 105.537086 
L 104.460287 108.546735 
L 104.62891 107.697856 
L 104.797532 110.227141 
L 104.966155 109.541064 
L 105.134777 112.610998 
L 105.3034 111.641105 
L 105.472022 112.422115 
L 105.640645 115.276806 
L 105.809267 114.159367 
L 106.146512 115.598497 
L 106.315135 118.108462 
L 106.483757 117.353786 
L 106.65238 117.574711 
L 106.821002 117.120699 
L 106.989625 116.29593 
L 107.158247 114.321079 
L 107.32687 115.798766 
L 107.495492 116.152449 
L 107.664115 117.32231 
L 107.832737 117.30083 
L 108.00136 117.612371 
L 108.169982 115.490423 
L 108.338605 117.630769 
L 108.507227 117.789457 
L 108.844472 119.876345 
L 109.013095 117.708063 
L 109.181717 118.756151 
L 109.35034 119.005874 
L 110.02483 128.836694 
L 110.193453 127.809056 
L 110.530698 131.699911 
L 110.69932 131.131197 
L 110.867943 131.42426 
L 111.036565 129.045309 
L 111.205188 128.671932 
L 111.37381 129.739897 
L 111.711055 133.434784 
L 111.879678 131.222496 
L 112.0483 131.634803 
L 112.216923 130.427216 
L 112.554168 133.075432 
L 112.72279 133.759526 
L 112.891413 132.488747 
L 113.228658 133.2092 
L 113.39728 132.114427 
L 113.565903 133.563441 
L 113.903148 134.240345 
L 114.07177 133.554728 
L 114.240393 134.917824 
L 114.409015 138.98581 
L 114.577638 137.694831 
L 114.74626 138.737771 
L 115.083505 136.117482 
L 115.252128 137.98107 
L 115.42075 137.921584 
L 115.589373 139.788786 
L 115.757995 137.337464 
L 115.926618 137.007236 
L 116.09524 137.702991 
L 116.263863 137.173476 
L 116.432486 135.667915 
L 116.601108 136.193109 
L 116.769731 138.252012 
L 116.938353 138.034001 
L 117.275598 136.756825 
L 117.612843 140.087047 
L 117.781466 139.583128 
L 117.950088 141.91333 
L 118.118711 141.655406 
L 118.287333 141.181808 
L 118.455956 142.610853 
L 118.624578 142.691645 
L 118.961823 145.185883 
L 119.130446 148.952059 
L 119.299068 148.973035 
L 119.467691 148.874551 
L 119.636313 149.676635 
L 119.804936 151.39349 
L 119.973558 151.301729 
L 120.142181 151.583871 
L 120.310803 152.458606 
L 120.479426 152.3542 
L 120.648048 155.378631 
L 120.816671 154.814028 
L 121.153916 155.339637 
L 121.322538 155.408078 
L 121.491161 155.847799 
L 121.659783 158.866653 
L 121.828406 159.581703 
L 121.997028 160.867925 
L 122.502896 156.472087 
L 122.671519 158.826813 
L 122.840141 159.346349 
L 123.008764 160.536473 
L 123.177386 159.745884 
L 123.346009 160.459411 
L 123.514631 160.416922 
L 123.851876 163.935168 
L 124.020499 163.354453 
L 124.189121 165.140625 
L 124.357744 164.666437 
L 124.863611 166.86157 
L 125.369479 164.171609 
L 125.706724 167.814683 
L 126.043969 167.90958 
L 126.212591 167.62285 
L 126.381214 168.820606 
L 126.549836 170.907191 
L 126.718459 170.137247 
L 126.887081 171.550135 
L 127.055704 170.902086 
L 127.224326 171.204645 
L 127.561571 168.58231 
L 127.730194 169.10665 
L 127.898816 168.064927 
L 128.067439 168.159187 
L 128.573306 171.279128 
L 128.910551 173.397669 
L 129.416419 175.563781 
L 129.585042 175.228761 
L 129.753664 175.79489 
L 129.922287 173.560043 
L 130.090909 174.319562 
L 130.259532 174.398007 
L 130.428154 174.957609 
L 130.596777 174.569185 
L 130.934022 177.649817 
L 131.102644 177.97341 
L 131.271267 179.420127 
L 131.439889 179.550447 
L 131.777134 179.157962 
L 132.114379 180.159864 
L 132.283002 180.082076 
L 132.451624 179.947893 
L 132.620247 178.776751 
L 132.788869 179.563135 
L 132.957492 181.104721 
L 133.126114 180.546543 
L 133.463359 183.067036 
L 133.631982 182.861945 
L 133.969227 183.690255 
L 134.137849 185.191234 
L 134.475094 185.891656 
L 134.643717 184.615806 
L 134.812339 184.770262 
L 135.149584 186.363922 
L 135.318207 186.167363 
L 135.655452 184.936945 
L 135.824075 184.675845 
L 135.992697 185.665851 
L 136.16132 185.719167 
L 136.498565 186.663632 
L 136.667187 186.787987 
L 136.83581 187.451999 
L 137.004432 187.454796 
L 137.173055 187.988178 
L 137.341677 189.484064 
L 137.5103 188.475387 
L 137.678922 188.350517 
L 137.847545 188.561729 
L 138.18479 191.249535 
L 138.522035 191.68366 
L 138.85928 194.150312 
L 139.027902 194.96999 
L 139.365147 197.77874 
L 139.53377 197.761514 
L 139.871015 198.536839 
L 140.039637 199.905745 
L 140.20826 199.443216 
L 140.545505 200.817359 
L 140.714127 200.037964 
L 140.88275 200.650847 
L 141.051372 200.671097 
L 141.388617 201.840766 
L 141.55724 202.13117 
L 141.725863 202.131031 
L 141.894485 202.394658 
L 142.063108 202.061469 
L 142.23173 202.665943 
L 142.400353 203.826958 
L 142.568975 203.250907 
L 143.412088 206.221169 
L 143.749333 207.832569 
L 144.086578 208.08085 
L 144.761068 211.46953 
L 144.92969 211.663946 
L 145.266935 212.944928 
L 145.435558 213.388044 
L 145.60418 214.320592 
L 145.941425 214.84695 
L 146.110048 215.179373 
L 146.27867 215.060422 
L 146.447293 214.213457 
L 146.784538 214.116419 
L 146.95316 214.039447 
L 147.62765 215.787766 
L 147.796273 216.043076 
L 147.964895 215.31503 
L 148.302141 215.942486 
L 148.470763 216.756781 
L 148.639386 216.74091 
L 148.808008 217.312562 
L 148.976631 217.394356 
L 149.482498 219.104497 
L 149.651121 219.393017 
L 149.819743 220.916456 
L 149.988366 220.945069 
L 150.156988 221.434626 
L 150.325611 221.531034 
L 150.494233 221.34197 
L 150.662856 220.76935 
L 150.831478 220.833163 
L 151.505968 223.070228 
L 151.674591 223.296312 
L 151.843213 223.244039 
L 152.011836 222.609041 
L 152.180458 222.848745 
L 153.023571 222.36717 
L 153.360816 222.816626 
L 153.698061 223.164211 
L 153.866683 223.367601 
L 154.203928 225.082838 
L 154.541174 224.644254 
L 154.709796 224.726774 
L 154.878419 224.637246 
L 155.047041 224.74339 
L 155.215664 224.602477 
L 155.384286 225.792937 
L 155.552909 225.374397 
L 155.721531 225.97101 
L 155.890154 225.791254 
L 156.058776 226.32828 
L 156.227399 226.139703 
L 156.396021 226.755778 
L 156.564644 226.843448 
L 156.733266 227.439089 
L 156.901889 227.201233 
L 157.239134 228.019774 
L 157.576379 227.709692 
L 157.745001 227.835843 
L 158.250869 228.875243 
L 158.419491 228.855583 
L 158.588114 229.147806 
L 158.756736 229.198505 
L 158.925359 229.444753 
L 159.093981 229.184946 
L 159.262604 229.516601 
L 159.431226 229.575594 
L 159.599849 229.830357 
L 159.937094 229.768165 
L 160.105716 229.493004 
L 160.442961 230.05426 
L 160.611584 230.157802 
L 160.780206 229.786643 
L 160.948829 229.797509 
L 161.117452 229.667698 
L 161.286074 228.934485 
L 161.623319 228.993293 
L 161.791942 229.23989 
L 161.960564 228.844008 
L 162.129187 228.923613 
L 162.297809 229.341163 
L 162.466432 229.293257 
L 162.635054 229.536557 
L 162.803677 229.477256 
L 163.140922 229.86271 
L 163.309544 229.762797 
L 163.646789 229.017056 
L 163.984034 228.872357 
L 164.152657 229.491066 
L 164.321279 229.215735 
L 164.489902 229.380292 
L 164.658524 229.379626 
L 164.827147 229.529783 
L 164.995769 229.028188 
L 165.164392 228.970708 
L 165.333014 229.153855 
L 165.670259 228.926522 
L 165.838882 229.280341 
L 166.007504 228.860436 
L 166.176127 228.942118 
L 166.344749 228.718605 
L 167.019239 229.713393 
L 167.187862 229.318992 
L 167.356485 229.392773 
L 167.525107 229.099649 
L 167.69373 229.485225 
L 167.862352 229.38753 
L 168.030975 229.990914 
L 168.199597 230.149164 
L 168.536842 230.932125 
L 168.705465 230.814871 
L 168.874087 231.02864 
L 169.04271 230.42323 
L 169.211332 230.391679 
L 169.379955 230.519066 
L 169.7172 230.17779 
L 170.054445 230.050897 
L 170.39169 230.634615 
L 170.560312 231.005779 
L 170.897557 231.072944 
L 171.06618 230.734384 
L 171.234802 230.652667 
L 171.572047 230.887797 
L 171.74067 230.76583 
L 171.909292 230.386475 
L 172.077915 230.608733 
L 172.246537 230.547756 
L 172.41516 231.160795 
L 172.752405 231.518104 
L 173.08965 232.252678 
L 173.258272 232.305854 
L 173.426895 232.186499 
L 173.932763 232.617285 
L 174.101385 232.426579 
L 174.270008 232.576787 
L 174.775875 233.360145 
L 174.944498 233.042079 
L 175.450365 233.77757 
L 175.78761 233.814652 
L 175.956233 233.616198 
L 176.124855 233.623268 
L 176.4621 233.196435 
L 176.630723 233.245603 
L 176.967968 232.932209 
L 177.13659 232.835017 
L 177.305213 232.512353 
L 177.473835 232.71483 
L 177.81108 232.446393 
L 178.148325 231.621732 
L 178.316948 231.751955 
L 178.48557 231.540232 
L 178.654193 231.610543 
L 178.991438 231.216862 
L 179.497305 231.738749 
L 179.665928 231.628725 
L 179.83455 232.120015 
L 180.003173 231.975794 
L 180.171796 232.15298 
L 180.846286 231.768594 
L 181.858021 233.128855 
L 182.026643 233.11127 
L 182.195266 233.408602 
L 182.869756 233.465935 
L 183.375623 233.196707 
L 183.544246 233.6289 
L 183.712868 233.733312 
L 184.218736 234.378697 
L 184.387358 234.324517 
L 184.555981 234.151362 
L 184.724603 234.139559 
L 184.893226 233.889606 
L 185.061848 234.101155 
L 185.230471 233.924209 
L 185.399093 234.122461 
L 185.567716 234.084536 
L 186.073583 234.291305 
L 186.242206 234.215076 
L 186.748074 234.759959 
L 186.916696 234.344079 
L 187.253941 234.453246 
L 187.422564 234.219652 
L 187.928431 235.026419 
L 188.265676 235.594642 
L 188.434299 235.490498 
L 188.602921 235.588077 
L 188.771544 235.552664 
L 189.108789 235.88458 
L 189.951901 234.682842 
L 190.120524 234.663963 
L 190.289146 234.854303 
L 190.457769 234.732225 
L 190.963636 235.050718 
L 191.132259 234.539856 
L 191.300881 234.590796 
L 191.469504 234.37328 
L 191.806749 234.554201 
L 192.143994 234.175808 
L 192.312616 234.044075 
L 192.649861 234.29471 
L 192.987107 235.149165 
L 193.492974 235.413671 
L 194.336087 235.014003 
L 194.504709 235.389718 
L 194.673332 235.435994 
L 194.841954 235.751185 
L 195.010577 235.685457 
L 195.347822 235.93462 
L 195.516444 236.253476 
L 195.685067 236.172128 
L 195.853689 235.903535 
L 196.022312 236.021007 
L 196.190934 235.925295 
L 196.865424 236.115954 
L 197.202669 236.506557 
L 197.371292 236.337512 
L 197.708537 236.647651 
L 198.551649 235.890766 
L 198.720272 235.932117 
L 198.888894 235.808111 
L 199.22614 235.852801 
L 199.394762 235.697143 
L 199.563385 235.795696 
L 199.732007 235.719778 
L 200.069252 236.016549 
L 200.237875 235.926673 
L 201.080987 236.325881 
L 201.586855 236.943659 
L 201.755477 236.711536 
L 201.9241 237.056446 
L 202.429967 236.706482 
L 202.767212 237.151181 
L 202.935835 237.094379 
L 203.104457 237.213358 
L 203.27308 237.068983 
L 203.610325 237.062333 
L 203.94757 236.905871 
L 204.116192 237.118974 
L 204.62206 236.638086 
L 204.790682 236.67126 
L 204.959305 236.530508 
L 205.127927 236.820308 
L 205.29655 236.613765 
L 205.465173 236.798273 
L 205.802418 236.907656 
L 206.814153 235.743376 
L 206.982775 235.739771 
L 207.151398 235.525324 
L 207.488643 235.578342 
L 207.825888 235.679802 
L 207.99451 235.886312 
L 208.331755 235.885526 
L 208.669 236.154927 
L 208.837623 236.073056 
L 209.006245 236.256739 
L 209.34349 236.326926 
L 209.680735 236.846886 
L 209.849358 236.734799 
L 210.523848 237.307933 
L 211.872828 236.624868 
L 212.041451 236.464359 
L 212.378696 236.664791 
L 212.547318 236.494821 
L 212.884563 236.602386 
L 213.053186 236.475273 
L 213.221808 236.744917 
L 213.727676 236.60393 
L 213.896298 236.696535 
L 214.233543 237.209873 
L 214.570788 236.768436 
L 215.076656 236.513557 
L 215.245278 236.531837 
L 215.582523 236.719584 
L 215.751146 236.789015 
L 215.919768 236.986165 
L 216.425636 236.862073 
L 216.594258 236.57588 
L 216.762881 236.663515 
L 217.605993 235.857793 
L 217.774616 236.310159 
L 218.111861 236.269535 
L 218.280484 236.521339 
L 218.617729 236.436143 
L 218.786351 236.48898 
L 219.123596 236.112726 
L 219.460841 236.199775 
L 220.809821 236.424973 
L 221.147066 236.378546 
L 221.484311 236.665055 
L 221.990179 236.89999 
L 222.158801 236.553061 
L 222.327424 236.700761 
L 223.001914 236.488065 
L 223.507781 236.848394 
L 223.676404 236.870365 
L 223.845026 237.133765 
L 224.013649 236.948791 
L 224.350894 237.097966 
L 225.194007 236.8658 
L 225.362629 236.682233 
L 225.699874 236.854313 
L 226.037119 237.046558 
L 226.205742 236.863348 
L 226.374364 236.921858 
L 226.880232 236.186412 
L 227.048854 236.230934 
L 227.217477 236.151095 
L 227.723344 236.259217 
L 228.060589 236.073959 
L 228.229212 236.155902 
L 228.397834 235.985294 
L 228.566457 235.974533 
L 228.903702 236.286386 
L 229.746814 235.437596 
L 230.252682 235.932138 
L 230.589927 235.787372 
L 230.758549 236.017033 
L 230.927172 236.013483 
L 231.095795 235.630958 
L 231.43304 235.973856 
L 231.601662 235.78174 
L 231.938907 235.948623 
L 232.10753 235.822354 
L 232.613397 235.929411 
L 232.78202 236.000725 
L 232.950642 236.463447 
L 233.119265 236.57852 
L 233.45651 236.331699 
L 233.625132 236.365346 
L 233.962377 236.681569 
L 234.131 236.623913 
L 234.299622 236.334389 
L 234.468245 236.547199 
L 234.636867 236.463998 
L 234.974112 236.002883 
L 235.142735 236.134268 
L 235.311357 235.93885 
L 235.47998 236.117119 
L 235.985847 236.228973 
L 236.15447 236.343812 
L 236.491715 236.160622 
L 236.660337 236.284397 
L 236.82896 236.55664 
L 237.50345 236.100602 
L 237.840695 236.702762 
L 238.346563 237.201366 
L 238.515185 237.006871 
L 238.85243 237.104203 
L 239.189675 237.088596 
L 239.358298 237.033824 
L 239.52692 236.853737 
L 239.695543 236.987738 
L 240.032788 237.386546 
L 240.370033 237.403024 
L 240.8759 237.59675 
L 241.55039 237.178043 
L 242.056258 237.388248 
L 242.562125 236.992687 
L 242.89937 237.267418 
L 243.236615 236.8473 
L 244.248351 236.235256 
L 244.416973 236.169121 
L 245.091463 236.644719 
L 245.428708 236.640124 
L 245.765953 236.851804 
L 245.934576 237.047367 
L 246.103198 236.77911 
L 246.271821 236.761099 
L 246.440443 236.999325 
L 246.609066 236.889992 
L 247.114933 237.135539 
L 247.283556 237.048493 
L 247.789423 237.4402 
L 248.126668 237.203516 
L 248.295291 237.289569 
L 248.463913 237.223675 
L 248.632536 237.425467 
L 249.307026 237.386837 
L 249.475648 237.591734 
L 249.644271 237.610077 
L 249.812893 237.442416 
L 250.824629 237.798996 
L 251.161874 237.691844 
L 251.499119 237.813296 
L 251.667741 237.728213 
L 251.836364 237.787297 
L 252.004986 237.703658 
L 252.342231 238.069046 
L 252.510854 238.059252 
L 252.848099 238.191024 
L 253.353966 238.564771 
L 253.522589 238.442392 
L 253.859834 238.676261 
L 254.028456 238.574109 
L 254.702946 238.957551 
L 255.040191 238.847811 
L 255.208814 239.03256 
L 256.726417 238.423718 
L 256.895039 238.548385 
L 257.063662 238.519643 
L 257.232284 238.004431 
L 257.400907 238.336114 
L 258.075397 238.028167 
L 258.244019 238.163959 
L 259.087132 238.009878 
L 259.592999 238.185512 
L 259.930244 238.062709 
L 260.436112 238.013192 
L 260.604734 238.26686 
L 260.941979 238.067174 
L 261.279224 238.026541 
L 261.447847 237.871267 
L 261.953714 238.106447 
L 262.628204 237.844193 
L 263.302695 238.080181 
L 263.471317 238.243091 
L 263.808562 238.082935 
L 263.977185 238.330437 
L 264.31443 238.310625 
L 264.483052 238.289495 
L 264.651675 238.105726 
L 264.820297 238.340554 
L 264.98892 238.272519 
L 265.157542 238.364678 
L 265.326165 238.108722 
L 265.494787 238.121858 
L 265.832032 238.497386 
L 266.000655 238.400951 
L 266.675145 238.789235 
L 267.01239 238.478154 
L 267.181012 238.582345 
L 267.518257 238.311289 
L 267.68688 238.202908 
L 267.855502 238.257457 
L 268.024125 238.521541 
L 268.192747 238.551237 
L 268.529992 238.21847 
L 268.867237 238.428826 
L 269.03586 238.329152 
L 269.373105 237.618378 
L 269.541728 237.623287 
L 269.878973 237.343819 
L 270.047595 237.247848 
L 270.722085 237.609637 
L 271.396575 237.970081 
L 271.565198 237.88123 
L 271.73382 238.06228 
L 271.902443 237.974565 
L 272.914178 238.353432 
L 273.0828 238.183594 
L 273.75729 238.364179 
L 273.925913 238.514099 
L 274.43178 238.405176 
L 274.937648 238.426636 
L 275.443515 238.791239 
L 276.118006 239.051798 
L 276.623873 239.307123 
L 276.961118 239.189265 
L 277.466986 239.128871 
L 277.804231 239.218007 
L 277.972853 239.2038 
L 278.310098 239.397818 
L 278.815966 239.219261 
L 279.153211 239.228112 
L 279.659078 239.089328 
L 279.827701 239.141405 
L 279.996323 239.060201 
L 280.164946 239.229854 
L 280.502191 239.147955 
L 281.345303 239.517115 
L 281.682548 239.512238 
L 281.851171 239.515202 
L 282.019794 239.699112 
L 282.188416 239.656312 
L 282.357039 239.458134 
L 282.694284 239.673089 
L 283.031529 239.5958 
L 283.200151 239.745969 
L 283.368774 239.72181 
L 283.537396 239.833711 
L 283.874641 239.777693 
L 284.211886 239.821349 
L 284.549131 239.664282 
L 284.717754 239.340907 
L 285.392244 239.486006 
L 286.066734 240.09519 
L 286.235356 240.09109 
L 286.403979 240.23987 
L 286.909846 240.200038 
L 287.247091 240.351174 
L 287.921581 240.163377 
L 288.090204 240.345522 
L 288.427449 240.192093 
L 288.764694 240.347814 
L 289.270562 240.062174 
L 289.945052 240.269683 
L 290.113674 240.395613 
L 290.282297 240.228951 
L 290.450919 240.290433 
L 290.788164 240.206717 
L 291.462654 240.437503 
L 291.631277 240.604805 
L 292.137144 240.336971 
L 292.474389 240.053239 
L 292.643012 240.073764 
L 292.811634 239.934186 
L 292.980257 240.005493 
L 293.486124 239.612651 
L 294.329237 239.730343 
L 295.509595 239.751967 
L 295.84684 239.749876 
L 296.352707 239.580701 
L 296.689952 239.95974 
L 296.858575 239.967407 
L 297.19582 240.191459 
L 297.364442 240.098466 
L 298.207555 240.351944 
L 298.5448 240.242953 
L 298.882045 240.389097 
L 299.21929 240.593539 
L 299.725157 240.575743 
L 299.89378 240.174294 
L 300.062402 240.081895 
L 300.231025 240.208246 
L 300.736892 239.814598 
L 301.24276 239.815649 
L 301.580005 239.65393 
L 301.91725 239.647438 
L 302.423118 239.27514 
L 302.760363 239.547808 
L 303.097608 239.644099 
L 303.434853 239.9153 
L 303.603475 239.834842 
L 303.772098 239.969366 
L 304.277965 239.892366 
L 304.61521 239.699296 
L 304.952455 240.006794 
L 305.121078 240.059563 
L 305.2897 239.965951 
L 305.626945 240.36657 
L 305.96419 240.404359 
L 307.650416 240.75261 
L 307.987661 240.943462 
L 308.493528 240.502331 
L 308.662151 240.563338 
L 309.505263 240.317081 
L 310.685621 240.421719 
L 310.854243 240.503701 
L 311.022866 240.375269 
L 311.191488 240.438836 
L 311.360111 240.353026 
L 311.865978 240.631703 
L 312.540468 240.925467 
L 313.214958 241.070034 
L 313.552203 241.180904 
L 313.720826 241.203381 
L 314.058071 241.126412 
L 314.226694 241.114959 
L 314.563939 241.341409 
L 314.732561 241.485567 
L 315.069806 241.461594 
L 315.238429 241.51599 
L 315.575674 241.406253 
L 315.912919 241.50774 
L 316.250164 241.435625 
L 316.924654 241.615758 
L 317.093276 241.528411 
L 317.261899 241.682648 
L 317.767766 241.265148 
L 317.936389 241.277052 
L 318.442256 240.991667 
L 319.622614 240.971797 
L 320.297104 240.63187 
L 320.465727 240.738848 
L 320.634349 240.632861 
L 320.971594 240.885148 
L 321.140217 241.000839 
L 321.477462 240.955297 
L 323.669554 241.241698 
L 323.838177 241.14012 
L 324.006799 241.196241 
L 324.512667 240.988726 
L 324.849912 241.154486 
L 325.018534 241.280381 
L 325.861647 240.986967 
L 326.198892 240.999166 
L 326.536137 240.931945 
L 326.70476 241.121685 
L 326.873382 241.0872 
L 327.210627 241.297863 
L 327.716495 241.141052 
L 328.05374 241.109703 
L 328.72823 240.925418 
L 329.234097 241.179176 
L 329.908587 241.030707 
L 330.07721 240.807547 
L 331.257567 240.932708 
L 331.42619 240.990954 
L 331.763435 240.853973 
L 331.932057 240.846198 
L 332.10068 240.991621 
L 333.281038 241.072133 
L 333.786905 241.226504 
L 334.12415 241.311859 
L 334.461395 241.48841 
L 334.79864 241.391517 
L 335.135885 241.627165 
L 336.653488 241.175789 
L 336.82211 241.327569 
L 336.990733 241.101987 
L 337.4966 241.021178 
L 337.665223 240.980678 
L 337.833845 240.794953 
L 339.014203 240.993146 
L 339.351448 240.899284 
L 339.857316 241.201568 
L 340.194561 240.97065 
L 340.531806 241.216222 
L 340.700428 241.188901 
L 341.206296 241.406879 
L 342.049408 241.395252 
L 342.723898 241.263912 
L 343.398388 241.47923 
L 343.735633 241.675221 
L 345.253236 241.87775 
L 346.096349 242.067921 
L 346.602216 241.648318 
L 347.108084 241.310068 
L 347.445329 241.221589 
L 347.782574 241.183584 
L 348.457064 240.858275 
L 348.962931 240.718427 
L 349.300176 240.822513 
L 349.468799 240.683547 
L 349.806044 240.879093 
L 349.974666 241.129112 
L 350.311911 241.109286 
L 350.649156 241.291782 
L 350.986401 241.173038 
L 351.829514 241.318069 
L 352.166759 241.413296 
L 352.335382 241.299916 
L 353.178494 241.474445 
L 353.515739 241.334701 
L 354.021607 241.469742 
L 354.358852 241.586656 
L 354.696097 241.628571 
L 355.033342 241.432658 
L 355.201964 241.536442 
L 355.539209 241.337636 
L 355.876454 241.341156 
L 357.056812 241.606894 
L 357.225434 241.568486 
L 357.562679 241.235002 
L 358.237169 241.573919 
L 358.574415 241.438941 
L 359.754772 241.39303 
L 360.429262 241.471897 
L 360.93513 241.612133 
L 361.440997 241.27213 
L 362.115487 241.497575 
L 362.28411 241.350106 
L 362.621355 241.421915 
L 362.9586 241.32932 
L 363.464467 241.451107 
L 363.801712 241.390073 
L 364.476202 241.565042 
L 364.813447 241.758382 
L 365.150693 241.728388 
L 365.319315 241.830881 
L 365.487938 241.781372 
L 365.65656 241.940703 
L 366.162428 241.731784 
L 366.499673 241.992122 
L 367.342785 241.749893 
L 367.511408 241.892132 
L 368.017275 241.798333 
L 368.691765 241.771609 
L 369.02901 241.774765 
L 369.534878 241.926935 
L 369.872123 241.72073 
L 370.715235 241.942646 
L 370.883858 241.848575 
L 371.05248 241.989647 
L 371.558348 242.056451 
L 371.895593 242.090495 
L 372.232838 241.985751 
L 372.401461 241.88598 
L 373.244573 242.013429 
L 373.413196 241.866737 
L 373.581818 241.904657 
L 373.581818 241.904657 
" style="fill:none;stroke:#1f77b4;stroke-linecap:square;stroke-width:1.5;"/>
   </g>
   <g id="patch_3">
    <path d="M 54 252 
L 54 34.56 
" style="fill:none;stroke:#000000;stroke-linecap:square;stroke-linejoin:miter;stroke-width:0.8;"/>
   </g>
   <g id="patch_4">
    <path d="M 388.8 252 
L 388.8 34.56 
" style="fill:none;stroke:#000000;stroke-linecap:square;stroke-linejoin:miter;stroke-width:0.8;"/>
   </g>
   <g id="patch_5">
    <path d="M 54 252 
L 388.8 252 
" style="fill:none;stroke:#000000;stroke-linecap:square;stroke-linejoin:miter;stroke-width:0.8;"/>
   </g>
   <g id="patch_6">
    <path d="M 54 34.56 
L 388.8 34.56 
" style="fill:none;stroke:#000000;stroke-linecap:square;stroke-linejoin:miter;stroke-width:0.8;"/>
   </g>
  </g>
 </g>
 <defs>
  <clipPath id="p90f520dc08">
   <rect height="217.44" width="334.8" x="54" y="34.56"/>
  </clipPath>
 </defs>
</svg>
