<?xml version="1.0" encoding="utf-8" standalone="no"?>
<!DOCTYPE svg PUBLIC "-//W3C//DTD SVG 1.1//EN"
  "http://www.w3.org/Graphics/SVG/1.1/DTD/svg11.dtd">
<!-- Created with matplotlib (https://matplotlib.org/) -->
<svg height="288pt" version="1.1" viewBox="0 0 432 288" width="432pt" xmlns="http://www.w3.org/2000/svg" xmlns:xlink="http://www.w3.org/1999/xlink">
 <defs>
  <style type="text/css">
*{stroke-linecap:butt;stroke-linejoin:round;}
  </style>
 </defs>
 <g id="figure_1">
  <g id="patch_1">
   <path d="M 0 288 
L 432 288 
L 432 0 
L 0 0 
z
" style="fill:#ffffff;"/>
  </g>
  <g id="axes_1">
   <g id="patch_2">
    <path d="M 54 252 
L 388.8 252 
L 388.8 34.56 
L 54 34.56 
z
" style="fill:#ffffff;"/>
   </g>
   <g id="matplotlib.axis_1">
    <g id="xtick_1">
     <g id="line2d_1">
      <defs>
       <path d="M 0 0 
L 0 3.5 
" id="md3d9b05631" style="stroke:#000000;stroke-width:0.8;"/>
      </defs>
      <g>
       <use style="stroke:#000000;stroke-width:0.8;" x="69.218182" xlink:href="#md3d9b05631" y="252"/>
      </g>
     </g>
     <g id="text_1">
      <!-- 0 -->
      <defs>
       <path d="M 31.78125 66.40625 
Q 24.171875 66.40625 20.328125 58.90625 
Q 16.5 51.421875 16.5 36.375 
Q 16.5 21.390625 20.328125 13.890625 
Q 24.171875 6.390625 31.78125 6.390625 
Q 39.453125 6.390625 43.28125 13.890625 
Q 47.125 21.390625 47.125 36.375 
Q 47.125 51.421875 43.28125 58.90625 
Q 39.453125 66.40625 31.78125 66.40625 
z
M 31.78125 74.21875 
Q 44.046875 74.21875 50.515625 64.515625 
Q 56.984375 54.828125 56.984375 36.375 
Q 56.984375 17.96875 50.515625 8.265625 
Q 44.046875 -1.421875 31.78125 -1.421875 
Q 19.53125 -1.421875 13.0625 8.265625 
Q 6.59375 17.96875 6.59375 36.375 
Q 6.59375 54.828125 13.0625 64.515625 
Q 19.53125 74.21875 31.78125 74.21875 
z
" id="DejaVuSans-48"/>
      </defs>
      <g transform="translate(66.036932 266.598437)scale(0.1 -0.1)">
       <use xlink:href="#DejaVuSans-48"/>
      </g>
     </g>
    </g>
    <g id="xtick_2">
     <g id="line2d_2">
      <g>
       <use style="stroke:#000000;stroke-width:0.8;" x="113.011511" xlink:href="#md3d9b05631" y="252"/>
      </g>
     </g>
     <g id="text_2">
      <!-- 100 -->
      <defs>
       <path d="M 12.40625 8.296875 
L 28.515625 8.296875 
L 28.515625 63.921875 
L 10.984375 60.40625 
L 10.984375 69.390625 
L 28.421875 72.90625 
L 38.28125 72.90625 
L 38.28125 8.296875 
L 54.390625 8.296875 
L 54.390625 0 
L 12.40625 0 
z
" id="DejaVuSans-49"/>
      </defs>
      <g transform="translate(103.467761 266.598437)scale(0.1 -0.1)">
       <use xlink:href="#DejaVuSans-49"/>
       <use x="63.623047" xlink:href="#DejaVuSans-48"/>
       <use x="127.246094" xlink:href="#DejaVuSans-48"/>
      </g>
     </g>
    </g>
    <g id="xtick_3">
     <g id="line2d_3">
      <g>
       <use style="stroke:#000000;stroke-width:0.8;" x="156.80484" xlink:href="#md3d9b05631" y="252"/>
      </g>
     </g>
     <g id="text_3">
      <!-- 200 -->
      <defs>
       <path d="M 19.1875 8.296875 
L 53.609375 8.296875 
L 53.609375 0 
L 7.328125 0 
L 7.328125 8.296875 
Q 12.9375 14.109375 22.625 23.890625 
Q 32.328125 33.6875 34.8125 36.53125 
Q 39.546875 41.84375 41.421875 45.53125 
Q 43.3125 49.21875 43.3125 52.78125 
Q 43.3125 58.59375 39.234375 62.25 
Q 35.15625 65.921875 28.609375 65.921875 
Q 23.96875 65.921875 18.8125 64.3125 
Q 13.671875 62.703125 7.8125 59.421875 
L 7.8125 69.390625 
Q 13.765625 71.78125 18.9375 73 
Q 24.125 74.21875 28.421875 74.21875 
Q 39.75 74.21875 46.484375 68.546875 
Q 53.21875 62.890625 53.21875 53.421875 
Q 53.21875 48.921875 51.53125 44.890625 
Q 49.859375 40.875 45.40625 35.40625 
Q 44.1875 33.984375 37.640625 27.21875 
Q 31.109375 20.453125 19.1875 8.296875 
z
" id="DejaVuSans-50"/>
      </defs>
      <g transform="translate(147.26109 266.598437)scale(0.1 -0.1)">
       <use xlink:href="#DejaVuSans-50"/>
       <use x="63.623047" xlink:href="#DejaVuSans-48"/>
       <use x="127.246094" xlink:href="#DejaVuSans-48"/>
      </g>
     </g>
    </g>
    <g id="xtick_4">
     <g id="line2d_4">
      <g>
       <use style="stroke:#000000;stroke-width:0.8;" x="200.598169" xlink:href="#md3d9b05631" y="252"/>
      </g>
     </g>
     <g id="text_4">
      <!-- 300 -->
      <defs>
       <path d="M 40.578125 39.3125 
Q 47.65625 37.796875 51.625 33 
Q 55.609375 28.21875 55.609375 21.1875 
Q 55.609375 10.40625 48.1875 4.484375 
Q 40.765625 -1.421875 27.09375 -1.421875 
Q 22.515625 -1.421875 17.65625 -0.515625 
Q 12.796875 0.390625 7.625 2.203125 
L 7.625 11.71875 
Q 11.71875 9.328125 16.59375 8.109375 
Q 21.484375 6.890625 26.8125 6.890625 
Q 36.078125 6.890625 40.9375 10.546875 
Q 45.796875 14.203125 45.796875 21.1875 
Q 45.796875 27.640625 41.28125 31.265625 
Q 36.765625 34.90625 28.71875 34.90625 
L 20.21875 34.90625 
L 20.21875 43.015625 
L 29.109375 43.015625 
Q 36.375 43.015625 40.234375 45.921875 
Q 44.09375 48.828125 44.09375 54.296875 
Q 44.09375 59.90625 40.109375 62.90625 
Q 36.140625 65.921875 28.71875 65.921875 
Q 24.65625 65.921875 20.015625 65.03125 
Q 15.375 64.15625 9.8125 62.3125 
L 9.8125 71.09375 
Q 15.4375 72.65625 20.34375 73.4375 
Q 25.25 74.21875 29.59375 74.21875 
Q 40.828125 74.21875 47.359375 69.109375 
Q 53.90625 64.015625 53.90625 55.328125 
Q 53.90625 49.265625 50.4375 45.09375 
Q 46.96875 40.921875 40.578125 39.3125 
z
" id="DejaVuSans-51"/>
      </defs>
      <g transform="translate(191.054419 266.598437)scale(0.1 -0.1)">
       <use xlink:href="#DejaVuSans-51"/>
       <use x="63.623047" xlink:href="#DejaVuSans-48"/>
       <use x="127.246094" xlink:href="#DejaVuSans-48"/>
      </g>
     </g>
    </g>
    <g id="xtick_5">
     <g id="line2d_5">
      <g>
       <use style="stroke:#000000;stroke-width:0.8;" x="244.391498" xlink:href="#md3d9b05631" y="252"/>
      </g>
     </g>
     <g id="text_5">
      <!-- 400 -->
      <defs>
       <path d="M 37.796875 64.3125 
L 12.890625 25.390625 
L 37.796875 25.390625 
z
M 35.203125 72.90625 
L 47.609375 72.90625 
L 47.609375 25.390625 
L 58.015625 25.390625 
L 58.015625 17.1875 
L 47.609375 17.1875 
L 47.609375 0 
L 37.796875 0 
L 37.796875 17.1875 
L 4.890625 17.1875 
L 4.890625 26.703125 
z
" id="DejaVuSans-52"/>
      </defs>
      <g transform="translate(234.847748 266.598437)scale(0.1 -0.1)">
       <use xlink:href="#DejaVuSans-52"/>
       <use x="63.623047" xlink:href="#DejaVuSans-48"/>
       <use x="127.246094" xlink:href="#DejaVuSans-48"/>
      </g>
     </g>
    </g>
    <g id="xtick_6">
     <g id="line2d_6">
      <g>
       <use style="stroke:#000000;stroke-width:0.8;" x="288.184827" xlink:href="#md3d9b05631" y="252"/>
      </g>
     </g>
     <g id="text_6">
      <!-- 500 -->
      <defs>
       <path d="M 10.796875 72.90625 
L 49.515625 72.90625 
L 49.515625 64.59375 
L 19.828125 64.59375 
L 19.828125 46.734375 
Q 21.96875 47.46875 24.109375 47.828125 
Q 26.265625 48.1875 28.421875 48.1875 
Q 40.625 48.1875 47.75 41.5 
Q 54.890625 34.8125 54.890625 23.390625 
Q 54.890625 11.625 47.5625 5.09375 
Q 40.234375 -1.421875 26.90625 -1.421875 
Q 22.3125 -1.421875 17.546875 -0.640625 
Q 12.796875 0.140625 7.71875 1.703125 
L 7.71875 11.625 
Q 12.109375 9.234375 16.796875 8.0625 
Q 21.484375 6.890625 26.703125 6.890625 
Q 35.15625 6.890625 40.078125 11.328125 
Q 45.015625 15.765625 45.015625 23.390625 
Q 45.015625 31 40.078125 35.4375 
Q 35.15625 39.890625 26.703125 39.890625 
Q 22.75 39.890625 18.8125 39.015625 
Q 14.890625 38.140625 10.796875 36.28125 
z
" id="DejaVuSans-53"/>
      </defs>
      <g transform="translate(278.641077 266.598437)scale(0.1 -0.1)">
       <use xlink:href="#DejaVuSans-53"/>
       <use x="63.623047" xlink:href="#DejaVuSans-48"/>
       <use x="127.246094" xlink:href="#DejaVuSans-48"/>
      </g>
     </g>
    </g>
    <g id="xtick_7">
     <g id="line2d_7">
      <g>
       <use style="stroke:#000000;stroke-width:0.8;" x="331.978156" xlink:href="#md3d9b05631" y="252"/>
      </g>
     </g>
     <g id="text_7">
      <!-- 600 -->
      <defs>
       <path d="M 33.015625 40.375 
Q 26.375 40.375 22.484375 35.828125 
Q 18.609375 31.296875 18.609375 23.390625 
Q 18.609375 15.53125 22.484375 10.953125 
Q 26.375 6.390625 33.015625 6.390625 
Q 39.65625 6.390625 43.53125 10.953125 
Q 47.40625 15.53125 47.40625 23.390625 
Q 47.40625 31.296875 43.53125 35.828125 
Q 39.65625 40.375 33.015625 40.375 
z
M 52.59375 71.296875 
L 52.59375 62.3125 
Q 48.875 64.0625 45.09375 64.984375 
Q 41.3125 65.921875 37.59375 65.921875 
Q 27.828125 65.921875 22.671875 59.328125 
Q 17.53125 52.734375 16.796875 39.40625 
Q 19.671875 43.65625 24.015625 45.921875 
Q 28.375 48.1875 33.59375 48.1875 
Q 44.578125 48.1875 50.953125 41.515625 
Q 57.328125 34.859375 57.328125 23.390625 
Q 57.328125 12.15625 50.6875 5.359375 
Q 44.046875 -1.421875 33.015625 -1.421875 
Q 20.359375 -1.421875 13.671875 8.265625 
Q 6.984375 17.96875 6.984375 36.375 
Q 6.984375 53.65625 15.1875 63.9375 
Q 23.390625 74.21875 37.203125 74.21875 
Q 40.921875 74.21875 44.703125 73.484375 
Q 48.484375 72.75 52.59375 71.296875 
z
" id="DejaVuSans-54"/>
      </defs>
      <g transform="translate(322.434406 266.598437)scale(0.1 -0.1)">
       <use xlink:href="#DejaVuSans-54"/>
       <use x="63.623047" xlink:href="#DejaVuSans-48"/>
       <use x="127.246094" xlink:href="#DejaVuSans-48"/>
      </g>
     </g>
    </g>
    <g id="xtick_8">
     <g id="line2d_8">
      <g>
       <use style="stroke:#000000;stroke-width:0.8;" x="375.771485" xlink:href="#md3d9b05631" y="252"/>
      </g>
     </g>
     <g id="text_8">
      <!-- 700 -->
      <defs>
       <path d="M 8.203125 72.90625 
L 55.078125 72.90625 
L 55.078125 68.703125 
L 28.609375 0 
L 18.3125 0 
L 43.21875 64.59375 
L 8.203125 64.59375 
z
" id="DejaVuSans-55"/>
      </defs>
      <g transform="translate(366.227735 266.598437)scale(0.1 -0.1)">
       <use xlink:href="#DejaVuSans-55"/>
       <use x="63.623047" xlink:href="#DejaVuSans-48"/>
       <use x="127.246094" xlink:href="#DejaVuSans-48"/>
      </g>
     </g>
    </g>
   </g>
   <g id="matplotlib.axis_2">
    <g id="ytick_1">
     <g id="line2d_9">
      <defs>
       <path d="M 0 0 
L -3.5 0 
" id="mcfd2106f67" style="stroke:#000000;stroke-width:0.8;"/>
      </defs>
      <g>
       <use style="stroke:#000000;stroke-width:0.8;" x="54" xlink:href="#mcfd2106f67" y="246.616231"/>
      </g>
     </g>
     <g id="text_9">
      <!-- 2.0 -->
      <defs>
       <path d="M 10.6875 12.40625 
L 21 12.40625 
L 21 0 
L 10.6875 0 
z
" id="DejaVuSans-46"/>
      </defs>
      <g transform="translate(31.096875 250.415449)scale(0.1 -0.1)">
       <use xlink:href="#DejaVuSans-50"/>
       <use x="63.623047" xlink:href="#DejaVuSans-46"/>
       <use x="95.410156" xlink:href="#DejaVuSans-48"/>
      </g>
     </g>
    </g>
    <g id="ytick_2">
     <g id="line2d_10">
      <g>
       <use style="stroke:#000000;stroke-width:0.8;" x="54" xlink:href="#mcfd2106f67" y="216.081419"/>
      </g>
     </g>
     <g id="text_10">
      <!-- 2.5 -->
      <g transform="translate(31.096875 219.880638)scale(0.1 -0.1)">
       <use xlink:href="#DejaVuSans-50"/>
       <use x="63.623047" xlink:href="#DejaVuSans-46"/>
       <use x="95.410156" xlink:href="#DejaVuSans-53"/>
      </g>
     </g>
    </g>
    <g id="ytick_3">
     <g id="line2d_11">
      <g>
       <use style="stroke:#000000;stroke-width:0.8;" x="54" xlink:href="#mcfd2106f67" y="185.546608"/>
      </g>
     </g>
     <g id="text_11">
      <!-- 3.0 -->
      <g transform="translate(31.096875 189.345826)scale(0.1 -0.1)">
       <use xlink:href="#DejaVuSans-51"/>
       <use x="63.623047" xlink:href="#DejaVuSans-46"/>
       <use x="95.410156" xlink:href="#DejaVuSans-48"/>
      </g>
     </g>
    </g>
    <g id="ytick_4">
     <g id="line2d_12">
      <g>
       <use style="stroke:#000000;stroke-width:0.8;" x="54" xlink:href="#mcfd2106f67" y="155.011796"/>
      </g>
     </g>
     <g id="text_12">
      <!-- 3.5 -->
      <g transform="translate(31.096875 158.811015)scale(0.1 -0.1)">
       <use xlink:href="#DejaVuSans-51"/>
       <use x="63.623047" xlink:href="#DejaVuSans-46"/>
       <use x="95.410156" xlink:href="#DejaVuSans-53"/>
      </g>
     </g>
    </g>
    <g id="ytick_5">
     <g id="line2d_13">
      <g>
       <use style="stroke:#000000;stroke-width:0.8;" x="54" xlink:href="#mcfd2106f67" y="124.476984"/>
      </g>
     </g>
     <g id="text_13">
      <!-- 4.0 -->
      <g transform="translate(31.096875 128.276203)scale(0.1 -0.1)">
       <use xlink:href="#DejaVuSans-52"/>
       <use x="63.623047" xlink:href="#DejaVuSans-46"/>
       <use x="95.410156" xlink:href="#DejaVuSans-48"/>
      </g>
     </g>
    </g>
    <g id="ytick_6">
     <g id="line2d_14">
      <g>
       <use style="stroke:#000000;stroke-width:0.8;" x="54" xlink:href="#mcfd2106f67" y="93.942173"/>
      </g>
     </g>
     <g id="text_14">
      <!-- 4.5 -->
      <g transform="translate(31.096875 97.741392)scale(0.1 -0.1)">
       <use xlink:href="#DejaVuSans-52"/>
       <use x="63.623047" xlink:href="#DejaVuSans-46"/>
       <use x="95.410156" xlink:href="#DejaVuSans-53"/>
      </g>
     </g>
    </g>
    <g id="ytick_7">
     <g id="line2d_15">
      <g>
       <use style="stroke:#000000;stroke-width:0.8;" x="54" xlink:href="#mcfd2106f67" y="63.407361"/>
      </g>
     </g>
     <g id="text_15">
      <!-- 5.0 -->
      <g transform="translate(31.096875 67.20658)scale(0.1 -0.1)">
       <use xlink:href="#DejaVuSans-53"/>
       <use x="63.623047" xlink:href="#DejaVuSans-46"/>
       <use x="95.410156" xlink:href="#DejaVuSans-48"/>
      </g>
     </g>
    </g>
   </g>
   <g id="line2d_16">
    <path clip-path="url(#p9a730ac25f)" d="M 69.218182 130.744656 
L 69.656115 131.548204 
L 70.094048 130.905366 
L 70.531982 132.83388 
L 70.969915 133.155299 
L 71.407848 134.119557 
L 71.845782 134.762395 
L 72.283715 130.744656 
L 72.721648 129.137561 
L 73.159581 128.173304 
L 73.597515 126.726918 
L 74.035448 127.691175 
L 74.473381 124.637694 
L 74.911315 124.959113 
L 75.349248 124.798404 
L 76.225114 127.209047 
L 76.663048 128.655432 
L 77.100981 126.244789 
L 77.538914 128.334013 
L 77.976848 129.298271 
L 78.414781 131.869623 
L 78.852714 130.583947 
L 79.290647 132.191042 
L 79.728581 132.030333 
L 80.166514 132.351752 
L 80.604447 129.298271 
L 81.042381 130.583947 
L 81.918247 124.637694 
L 82.356181 124.316275 
L 82.794114 126.726918 
L 83.232047 124.316275 
L 83.66998 125.441242 
L 84.107914 124.476984 
L 84.98378 126.887627 
L 85.421714 129.137561 
L 85.859647 127.530466 
L 86.29758 127.691175 
L 87.173447 128.494723 
L 87.61138 130.262528 
L 88.049313 126.244789 
L 88.487247 124.316275 
L 88.92518 125.441242 
L 89.363113 127.530466 
L 90.23898 133.958847 
L 90.676913 133.476718 
L 91.114846 134.119557 
L 91.55278 129.941109 
L 91.990713 130.262528 
L 92.428646 127.530466 
L 92.866579 125.762661 
L 93.304513 121.905632 
L 93.742446 125.119823 
L 94.180379 120.619956 
L 94.618313 119.816408 
L 95.056246 115.79867 
L 95.494179 118.048603 
L 95.932112 111.298803 
L 96.370046 111.620222 
L 97.245912 113.388027 
L 97.683846 113.227317 
L 98.121779 112.10235 
L 98.559712 113.709446 
L 99.873512 107.281064 
L 100.311445 107.923902 
L 100.749379 107.120355 
L 101.187312 104.709712 
L 101.625245 104.066874 
L 102.063179 99.406297 
L 102.501112 99.727716 
L 102.939045 96.352816 
L 103.376978 96.834945 
L 103.814912 93.299335 
L 104.252845 92.977916 
L 104.690778 94.745721 
L 105.128712 95.06714 
L 105.566645 94.585011 
L 106.004578 91.210111 
L 106.442511 88.799468 
L 106.880445 87.353082 
L 107.318378 87.835211 
L 108.194245 83.174634 
L 108.632178 81.728248 
L 109.070111 82.692506 
L 109.508044 81.728248 
L 109.945978 86.228115 
L 110.383911 84.138891 
L 110.821844 87.192373 
L 111.259778 85.745987 
L 111.697711 85.745987 
L 112.135644 84.62102 
L 112.573578 86.067406 
L 113.011511 85.263858 
L 113.449444 83.335344 
L 113.887377 83.174634 
L 114.325311 82.853215 
L 114.763244 84.46031 
L 115.201177 86.549534 
L 115.639111 89.442306 
L 116.077044 88.478049 
L 116.95291 83.174634 
L 117.390844 82.371086 
L 117.828777 84.781729 
L 118.26671 83.978182 
L 118.704644 87.99592 
L 119.142577 87.513792 
L 119.58051 87.835211 
L 120.018443 86.549534 
L 120.456377 89.120887 
L 121.332243 84.942439 
L 121.770177 84.46031 
L 122.20811 82.531796 
L 122.646043 82.531796 
L 123.083976 80.924701 
L 123.52191 80.281863 
L 123.959843 77.5498 
L 124.397776 77.389091 
L 124.83571 81.406829 
L 125.273643 82.210377 
L 125.711576 80.924701 
L 126.149509 82.371086 
L 126.587443 79.960443 
L 127.025376 78.514058 
L 127.463309 74.1749 
L 127.901243 72.085676 
L 128.339176 73.853481 
L 128.777109 74.1749 
L 129.215043 75.621286 
L 129.652976 75.299867 
L 130.090909 77.5498 
L 130.528842 77.87122 
L 130.966776 79.799734 
L 131.404709 80.442572 
L 131.842642 79.799734 
L 132.280576 77.389091 
L 132.718509 78.996186 
L 133.594375 87.192373 
L 134.032309 88.478049 
L 134.470242 87.031663 
L 135.346109 86.710244 
L 135.784042 87.031663 
L 136.659908 90.406563 
L 137.097842 90.085144 
L 137.535775 89.281596 
L 137.973708 89.603016 
L 138.411642 86.228115 
L 138.849575 86.388825 
L 139.287508 83.978182 
L 139.725441 84.781729 
L 140.163375 83.496053 
L 140.601308 86.388825 
L 141.039241 88.478049 
L 141.477175 84.942439 
L 141.915108 83.656763 
L 142.353041 86.870953 
L 142.790974 86.067406 
L 143.228908 88.317339 
L 143.666841 87.674501 
L 144.104774 92.013659 
L 144.542708 93.299335 
L 144.980641 92.013659 
L 145.418574 88.638758 
L 145.856508 86.388825 
L 146.294441 88.638758 
L 146.732374 88.638758 
L 147.170307 87.353082 
L 147.608241 86.710244 
L 148.046174 87.835211 
L 148.484107 83.013925 
L 148.922041 83.496053 
L 149.359974 85.906696 
L 149.797907 85.585277 
L 150.23584 84.781729 
L 150.673774 84.299601 
L 151.111707 82.371086 
L 151.54964 81.728248 
L 151.987574 80.121153 
L 152.425507 81.406829 
L 152.86344 80.924701 
L 153.301373 79.156896 
L 154.17724 76.746253 
L 154.615173 79.156896 
L 155.053107 83.978182 
L 155.49104 85.424568 
L 155.928973 85.585277 
L 156.366906 85.103149 
L 156.80484 87.674501 
L 157.680706 87.674501 
L 158.11864 92.174368 
L 158.556573 91.852949 
L 158.994506 89.603016 
L 159.43244 89.763725 
L 159.870373 88.478049 
L 161.184173 87.513792 
L 161.622106 89.603016 
L 162.060039 90.406563 
L 162.497973 91.692239 
L 162.935906 87.192373 
L 163.373839 85.745987 
L 164.249706 84.781729 
L 164.687639 81.728248 
L 165.125572 84.942439 
L 165.563506 82.692506 
L 166.001439 78.514058 
L 166.439372 77.389091 
L 166.877305 75.299867 
L 167.315239 72.567805 
L 167.753172 75.942705 
L 168.191105 76.906962 
L 169.066972 78.031929 
L 169.504905 76.906962 
L 169.942838 73.371353 
L 170.380772 74.978448 
L 170.818705 74.014191 
L 171.256638 68.710776 
L 171.694572 67.26439 
L 172.132505 67.4251 
L 172.570438 70.478581 
L 173.008371 72.407095 
L 173.446305 71.924967 
L 174.760105 60.51459 
L 175.198038 62.282395 
L 175.635971 63.085942 
L 176.073905 62.764523 
L 176.511838 61.639557 
L 176.949771 62.443104 
L 177.387704 61.960976 
L 177.825638 60.35388 
L 178.263571 59.389623 
L 178.701504 60.032461 
L 179.139438 58.907494 
L 179.577371 60.996718 
L 180.015304 61.800266 
L 180.453237 65.014457 
L 180.891171 62.282395 
L 181.329104 60.675299 
L 181.767037 62.121685 
L 182.642904 66.460843 
L 183.080837 64.853747 
L 183.51877 68.067938 
L 183.956704 69.835743 
L 184.394637 70.317871 
L 184.83257 69.353614 
L 185.270504 70.63929 
L 185.708437 69.032195 
L 186.14637 69.514324 
L 186.584303 70.317871 
L 187.022237 69.514324 
L 187.46017 70.8 
L 187.898103 73.532062 
L 188.336037 71.603548 
L 188.77397 73.049933 
L 189.211903 67.746519 
L 189.649836 66.460843 
L 190.08777 68.228647 
L 190.525703 71.603548 
L 190.963636 73.532062 
L 191.40157 76.103415 
L 191.839503 76.746253 
L 192.277436 73.532062 
L 192.71537 74.496319 
L 193.153303 76.906962 
L 193.591236 77.389091 
L 194.029169 75.942705 
L 194.467103 77.389091 
L 194.905036 76.424834 
L 195.780903 82.853215 
L 196.218836 81.406829 
L 196.656769 79.156896 
L 197.094702 74.014191 
L 197.532636 74.817738 
L 197.970569 78.996186 
L 198.408502 77.228381 
L 198.846436 76.906962 
L 199.284369 75.942705 
L 199.722302 79.317605 
L 200.160235 77.71051 
L 200.598169 80.603282 
L 201.036102 81.567539 
L 201.474035 82.853215 
L 202.349902 80.121153 
L 202.787835 83.496053 
L 203.225768 87.835211 
L 204.101635 90.085144 
L 204.539568 90.888692 
L 204.977502 94.745721 
L 205.415435 92.977916 
L 205.853368 95.709978 
L 206.291302 95.870687 
L 206.729235 95.549268 
L 207.167168 94.102882 
L 207.605101 97.156364 
L 208.043035 97.959911 
L 208.480968 98.28133 
L 208.918901 101.174102 
L 209.356835 99.888426 
L 209.794768 97.317073 
L 210.232701 98.602749 
L 210.670634 98.44204 
L 211.108568 98.44204 
L 211.984434 95.227849 
L 212.422368 91.53153 
L 212.860301 90.727982 
L 213.298234 93.299335 
L 213.736167 94.745721 
L 214.174101 94.263592 
L 214.612034 90.085144 
L 215.049967 91.37082 
L 215.487901 91.852949 
L 215.925834 88.317339 
L 216.363767 86.228115 
L 218.1155 72.728514 
L 218.553434 75.139157 
L 218.991367 76.906962 
L 219.4293 74.817738 
L 219.867233 72.085676 
L 220.305167 70.63929 
L 220.7431 70.8 
L 221.181033 70.8 
L 221.618967 66.782262 
L 222.0569 66.942971 
L 222.494833 65.818004 
L 223.3707 60.35388 
L 223.808633 58.907494 
L 224.246566 54.889756 
L 224.6845 53.121951 
L 225.122433 48.782794 
L 225.9983 44.443636 
L 226.436233 45.247184 
L 226.874166 44.443636 
L 227.312099 47.014989 
L 227.750033 47.979246 
L 228.187966 50.06847 
L 228.625899 48.782794 
L 229.501766 53.60408 
L 229.939699 51.354146 
L 230.377632 50.06847 
L 231.253499 55.693304 
L 231.691432 54.889756 
L 232.129366 53.764789 
L 232.567299 57.943237 
L 233.005232 56.97898 
L 233.443165 56.496851 
L 233.881099 60.836009 
L 234.319032 62.282395 
L 234.756965 62.925233 
L 235.194899 61.478847 
L 235.632832 62.443104 
L 236.070765 60.996718 
L 237.384565 62.925233 
L 237.822498 62.764523 
L 238.260432 68.228647 
L 238.698365 68.067938 
L 239.136298 70.478581 
L 239.574232 73.532062 
L 240.012165 73.210643 
L 240.450098 74.817738 
L 240.888031 74.817738 
L 242.201831 80.603282 
L 242.639765 82.049667 
L 243.077698 79.317605 
L 243.515631 77.87122 
L 243.953564 75.621286 
L 244.391498 76.103415 
L 244.829431 77.067672 
L 245.267364 76.585543 
L 245.705298 76.746253 
L 246.143231 75.781996 
L 246.581164 76.906962 
L 247.019097 78.514058 
L 247.457031 75.781996 
L 248.332897 74.657029 
L 248.770831 73.853481 
L 249.208764 73.371353 
L 249.646697 74.817738 
L 250.08463 76.746253 
L 250.522564 75.781996 
L 251.39843 79.799734 
L 251.836364 77.71051 
L 252.274297 77.389091 
L 252.71223 78.996186 
L 253.150164 76.906962 
L 253.588097 76.585543 
L 254.02603 78.031929 
L 254.901897 73.692772 
L 255.33983 74.33561 
L 255.777763 72.728514 
L 256.215697 70.317871 
L 256.65363 73.049933 
L 257.091563 74.33561 
L 257.529496 74.33561 
L 257.96743 72.567805 
L 258.405363 74.014191 
L 258.843296 74.817738 
L 259.28123 76.264124 
L 259.719163 80.121153 
L 260.157096 81.888958 
L 260.595029 85.424568 
L 261.032963 83.174634 
L 261.470896 83.174634 
L 261.908829 84.299601 
L 262.346763 83.335344 
L 262.784696 85.424568 
L 263.222629 86.388825 
L 264.098496 90.085144 
L 264.536429 89.924435 
L 264.974362 92.817206 
L 265.412296 96.834945 
L 265.850229 98.602749 
L 266.288162 98.924169 
L 266.726095 101.495521 
L 267.164029 98.120621 
L 267.601962 97.799202 
L 268.477829 100.049135 
L 269.353695 96.513525 
L 269.791629 97.799202 
L 270.229562 97.959911 
L 270.667495 96.513525 
L 271.105428 100.852683 
L 271.543362 101.656231 
L 271.981295 101.334812 
L 272.419228 104.549002 
L 272.857162 105.995388 
L 273.733028 101.97765 
L 274.170961 102.299069 
L 274.608895 104.066874 
L 275.046828 101.174102 
L 275.484761 99.727716 
L 275.922695 99.727716 
L 276.360628 97.638492 
L 276.798561 97.638492 
L 277.236494 95.227849 
L 277.674428 94.90643 
L 278.112361 91.692239 
L 278.550294 91.37082 
L 278.988228 91.692239 
L 279.426161 87.513792 
L 279.864094 85.906696 
L 280.302027 82.210377 
L 280.739961 82.210377 
L 281.615827 82.531796 
L 282.053761 80.924701 
L 282.491694 75.460576 
L 282.929627 74.014191 
L 283.36756 74.978448 
L 283.805494 77.87122 
L 284.243427 76.264124 
L 284.68136 75.299867 
L 285.119294 76.264124 
L 285.557227 74.817738 
L 285.99516 76.585543 
L 286.433094 79.317605 
L 286.871027 80.603282 
L 287.30896 80.763991 
L 287.746893 79.156896 
L 288.184827 79.317605 
L 288.62276 79.639024 
L 289.498627 77.067672 
L 289.93656 75.299867 
L 290.812426 74.978448 
L 291.25036 73.532062 
L 291.688293 72.728514 
L 292.126226 74.496319 
L 292.56416 75.139157 
L 293.002093 76.746253 
L 293.440026 75.621286 
L 293.877959 75.299867 
L 294.315893 78.835477 
L 294.753826 80.281863 
L 295.191759 80.121153 
L 295.629693 81.567539 
L 296.067626 85.103149 
L 296.505559 85.263858 
L 296.943492 88.317339 
L 297.381426 88.15663 
L 297.819359 86.388825 
L 298.257292 83.174634 
L 298.695226 83.496053 
L 299.133159 88.15663 
L 299.571092 90.245854 
L 301.322825 78.996186 
L 301.760759 78.353348 
L 302.198692 81.24612 
L 302.636625 83.013925 
L 303.512492 79.156896 
L 303.950425 76.103415 
L 304.388358 76.103415 
L 304.826292 73.853481 
L 305.264225 73.371353 
L 305.702158 71.924967 
L 306.140092 73.371353 
L 306.578025 76.585543 
L 307.453891 79.156896 
L 307.891825 79.799734 
L 308.329758 83.174634 
L 308.767691 81.24612 
L 309.205625 78.192639 
L 309.643558 77.228381 
L 310.081491 78.353348 
L 310.519424 78.674767 
L 310.957358 74.33561 
L 311.395291 76.585543 
L 311.833224 76.103415 
L 312.271158 74.978448 
L 312.709091 76.264124 
L 313.584957 74.014191 
L 314.022891 74.33561 
L 314.460824 76.103415 
L 314.898757 78.996186 
L 315.336691 79.317605 
L 315.774624 78.996186 
L 316.212557 79.960443 
L 316.650491 78.835477 
L 317.088424 79.639024 
L 317.96429 84.138891 
L 318.840157 86.710244 
L 319.27809 85.906696 
L 319.716024 86.228115 
L 320.153957 85.263858 
L 320.59189 87.353082 
L 321.029823 88.638758 
L 321.467757 91.692239 
L 321.90569 92.013659 
L 322.343623 92.495787 
L 323.21949 87.835211 
L 324.53329 92.817206 
L 324.971223 93.620754 
L 325.409156 90.888692 
L 326.285023 91.53153 
L 326.722956 92.335078 
L 327.160889 92.174368 
L 327.598823 95.227849 
L 328.036756 91.852949 
L 328.474689 92.174368 
L 328.912623 92.013659 
L 329.350556 89.763725 
L 330.664356 93.781463 
L 331.102289 93.620754 
L 331.540222 89.603016 
L 331.978156 88.960177 
L 332.416089 90.245854 
L 332.854022 90.085144 
L 333.291956 90.245854 
L 333.729889 92.174368 
L 334.167822 88.317339 
L 334.605755 89.763725 
L 335.043689 87.835211 
L 335.481622 83.978182 
L 335.919555 81.728248 
L 336.357489 80.442572 
L 336.795422 82.049667 
L 337.233355 84.138891 
L 337.671288 83.174634 
L 338.109222 80.121153 
L 338.547155 80.281863 
L 338.985088 79.639024 
L 339.423022 81.24612 
L 339.860955 81.406829 
L 340.298888 80.924701 
L 341.174755 72.728514 
L 341.612688 73.371353 
L 342.050621 78.031929 
L 342.488555 79.156896 
L 342.926488 79.317605 
L 343.364421 79.960443 
L 343.802354 79.799734 
L 344.240288 78.514058 
L 344.678221 78.353348 
L 345.116154 80.121153 
L 345.554088 79.639024 
L 345.992021 78.353348 
L 346.429954 80.121153 
L 346.867888 78.192639 
L 347.305821 78.192639 
L 347.743754 79.156896 
L 348.181687 82.371086 
L 348.619621 83.817472 
L 349.057554 82.049667 
L 349.495487 80.924701 
L 350.371354 86.067406 
L 350.809287 91.692239 
L 351.685154 97.317073 
L 352.56102 108.88816 
L 353.436887 115.79867 
L 353.87482 115.63796 
L 354.750687 122.227051 
L 355.18862 125.441242 
L 355.626553 131.066075 
L 356.064487 133.958847 
L 356.50242 139.262262 
L 356.940353 141.833614 
L 357.81622 155.333215 
L 358.254153 157.10102 
L 358.692086 156.779601 
L 361.319686 182.493126 
L 361.757619 181.689579 
L 362.633486 190.689313 
L 363.071419 194.224922 
L 363.509353 199.046208 
L 363.947286 200.814013 
L 364.385219 204.028204 
L 364.823152 205.635299 
L 365.261086 208.367361 
L 366.136952 218.652772 
L 366.574886 220.741996 
L 367.012819 222.188381 
L 367.450752 224.599024 
L 367.888685 225.081153 
L 368.764552 229.902439 
L 369.202485 229.58102 
L 369.640419 232.313082 
L 370.078352 232.634501 
L 370.954218 234.723725 
L 371.392152 237.134368 
L 371.830085 238.259335 
L 372.268018 238.741463 
L 372.705952 240.991397 
L 373.143885 241.955654 
L 373.581818 242.116364 
L 373.581818 242.116364 
" style="fill:none;stroke:#1f77b4;stroke-linecap:square;stroke-width:1.5;"/>
   </g>
   <g id="patch_3">
    <path d="M 54 252 
L 54 34.56 
" style="fill:none;stroke:#000000;stroke-linecap:square;stroke-linejoin:miter;stroke-width:0.8;"/>
   </g>
   <g id="patch_4">
    <path d="M 388.8 252 
L 388.8 34.56 
" style="fill:none;stroke:#000000;stroke-linecap:square;stroke-linejoin:miter;stroke-width:0.8;"/>
   </g>
   <g id="patch_5">
    <path d="M 54 252 
L 388.8 252 
" style="fill:none;stroke:#000000;stroke-linecap:square;stroke-linejoin:miter;stroke-width:0.8;"/>
   </g>
   <g id="patch_6">
    <path d="M 54 34.56 
L 388.8 34.56 
" style="fill:none;stroke:#000000;stroke-linecap:square;stroke-linejoin:miter;stroke-width:0.8;"/>
   </g>
  </g>
 </g>
 <defs>
  <clipPath id="p9a730ac25f">
   <rect height="217.44" width="334.8" x="54" y="34.56"/>
  </clipPath>
 </defs>
</svg>
