<?xml version="1.0" encoding="utf-8" standalone="no"?>
<!DOCTYPE svg PUBLIC "-//W3C//DTD SVG 1.1//EN"
  "http://www.w3.org/Graphics/SVG/1.1/DTD/svg11.dtd">
<!-- Created with matplotlib (https://matplotlib.org/) -->
<svg height="288pt" version="1.1" viewBox="0 0 432 288" width="432pt" xmlns="http://www.w3.org/2000/svg" xmlns:xlink="http://www.w3.org/1999/xlink">
 <defs>
  <style type="text/css">
*{stroke-linecap:butt;stroke-linejoin:round;}
  </style>
 </defs>
 <g id="figure_1">
  <g id="patch_1">
   <path d="M 0 288 
L 432 288 
L 432 0 
L 0 0 
z
" style="fill:#ffffff;"/>
  </g>
  <g id="axes_1">
   <g id="patch_2">
    <path d="M 54 252 
L 388.8 252 
L 388.8 34.56 
L 54 34.56 
z
" style="fill:#ffffff;"/>
   </g>
   <g id="matplotlib.axis_1">
    <g id="xtick_1">
     <g id="line2d_1">
      <defs>
       <path d="M 0 0 
L 0 3.5 
" id="m2ee6f96ea6" style="stroke:#000000;stroke-width:0.8;"/>
      </defs>
      <g>
       <use style="stroke:#000000;stroke-width:0.8;" x="69.218182" xlink:href="#m2ee6f96ea6" y="252"/>
      </g>
     </g>
     <g id="text_1">
      <!-- 0 -->
      <defs>
       <path d="M 31.78125 66.40625 
Q 24.171875 66.40625 20.328125 58.90625 
Q 16.5 51.421875 16.5 36.375 
Q 16.5 21.390625 20.328125 13.890625 
Q 24.171875 6.390625 31.78125 6.390625 
Q 39.453125 6.390625 43.28125 13.890625 
Q 47.125 21.390625 47.125 36.375 
Q 47.125 51.421875 43.28125 58.90625 
Q 39.453125 66.40625 31.78125 66.40625 
z
M 31.78125 74.21875 
Q 44.046875 74.21875 50.515625 64.515625 
Q 56.984375 54.828125 56.984375 36.375 
Q 56.984375 17.96875 50.515625 8.265625 
Q 44.046875 -1.421875 31.78125 -1.421875 
Q 19.53125 -1.421875 13.0625 8.265625 
Q 6.59375 17.96875 6.59375 36.375 
Q 6.59375 54.828125 13.0625 64.515625 
Q 19.53125 74.21875 31.78125 74.21875 
z
" id="DejaVuSans-48"/>
      </defs>
      <g transform="translate(66.036932 266.598437)scale(0.1 -0.1)">
       <use xlink:href="#DejaVuSans-48"/>
      </g>
     </g>
    </g>
    <g id="xtick_2">
     <g id="line2d_2">
      <g>
       <use style="stroke:#000000;stroke-width:0.8;" x="110.797914" xlink:href="#m2ee6f96ea6" y="252"/>
      </g>
     </g>
     <g id="text_2">
      <!-- 100 -->
      <defs>
       <path d="M 12.40625 8.296875 
L 28.515625 8.296875 
L 28.515625 63.921875 
L 10.984375 60.40625 
L 10.984375 69.390625 
L 28.421875 72.90625 
L 38.28125 72.90625 
L 38.28125 8.296875 
L 54.390625 8.296875 
L 54.390625 0 
L 12.40625 0 
z
" id="DejaVuSans-49"/>
      </defs>
      <g transform="translate(101.254164 266.598437)scale(0.1 -0.1)">
       <use xlink:href="#DejaVuSans-49"/>
       <use x="63.623047" xlink:href="#DejaVuSans-48"/>
       <use x="127.246094" xlink:href="#DejaVuSans-48"/>
      </g>
     </g>
    </g>
    <g id="xtick_3">
     <g id="line2d_3">
      <g>
       <use style="stroke:#000000;stroke-width:0.8;" x="152.377645" xlink:href="#m2ee6f96ea6" y="252"/>
      </g>
     </g>
     <g id="text_3">
      <!-- 200 -->
      <defs>
       <path d="M 19.1875 8.296875 
L 53.609375 8.296875 
L 53.609375 0 
L 7.328125 0 
L 7.328125 8.296875 
Q 12.9375 14.109375 22.625 23.890625 
Q 32.328125 33.6875 34.8125 36.53125 
Q 39.546875 41.84375 41.421875 45.53125 
Q 43.3125 49.21875 43.3125 52.78125 
Q 43.3125 58.59375 39.234375 62.25 
Q 35.15625 65.921875 28.609375 65.921875 
Q 23.96875 65.921875 18.8125 64.3125 
Q 13.671875 62.703125 7.8125 59.421875 
L 7.8125 69.390625 
Q 13.765625 71.78125 18.9375 73 
Q 24.125 74.21875 28.421875 74.21875 
Q 39.75 74.21875 46.484375 68.546875 
Q 53.21875 62.890625 53.21875 53.421875 
Q 53.21875 48.921875 51.53125 44.890625 
Q 49.859375 40.875 45.40625 35.40625 
Q 44.1875 33.984375 37.640625 27.21875 
Q 31.109375 20.453125 19.1875 8.296875 
z
" id="DejaVuSans-50"/>
      </defs>
      <g transform="translate(142.833895 266.598437)scale(0.1 -0.1)">
       <use xlink:href="#DejaVuSans-50"/>
       <use x="63.623047" xlink:href="#DejaVuSans-48"/>
       <use x="127.246094" xlink:href="#DejaVuSans-48"/>
      </g>
     </g>
    </g>
    <g id="xtick_4">
     <g id="line2d_4">
      <g>
       <use style="stroke:#000000;stroke-width:0.8;" x="193.957377" xlink:href="#m2ee6f96ea6" y="252"/>
      </g>
     </g>
     <g id="text_4">
      <!-- 300 -->
      <defs>
       <path d="M 40.578125 39.3125 
Q 47.65625 37.796875 51.625 33 
Q 55.609375 28.21875 55.609375 21.1875 
Q 55.609375 10.40625 48.1875 4.484375 
Q 40.765625 -1.421875 27.09375 -1.421875 
Q 22.515625 -1.421875 17.65625 -0.515625 
Q 12.796875 0.390625 7.625 2.203125 
L 7.625 11.71875 
Q 11.71875 9.328125 16.59375 8.109375 
Q 21.484375 6.890625 26.8125 6.890625 
Q 36.078125 6.890625 40.9375 10.546875 
Q 45.796875 14.203125 45.796875 21.1875 
Q 45.796875 27.640625 41.28125 31.265625 
Q 36.765625 34.90625 28.71875 34.90625 
L 20.21875 34.90625 
L 20.21875 43.015625 
L 29.109375 43.015625 
Q 36.375 43.015625 40.234375 45.921875 
Q 44.09375 48.828125 44.09375 54.296875 
Q 44.09375 59.90625 40.109375 62.90625 
Q 36.140625 65.921875 28.71875 65.921875 
Q 24.65625 65.921875 20.015625 65.03125 
Q 15.375 64.15625 9.8125 62.3125 
L 9.8125 71.09375 
Q 15.4375 72.65625 20.34375 73.4375 
Q 25.25 74.21875 29.59375 74.21875 
Q 40.828125 74.21875 47.359375 69.109375 
Q 53.90625 64.015625 53.90625 55.328125 
Q 53.90625 49.265625 50.4375 45.09375 
Q 46.96875 40.921875 40.578125 39.3125 
z
" id="DejaVuSans-51"/>
      </defs>
      <g transform="translate(184.413627 266.598437)scale(0.1 -0.1)">
       <use xlink:href="#DejaVuSans-51"/>
       <use x="63.623047" xlink:href="#DejaVuSans-48"/>
       <use x="127.246094" xlink:href="#DejaVuSans-48"/>
      </g>
     </g>
    </g>
    <g id="xtick_5">
     <g id="line2d_5">
      <g>
       <use style="stroke:#000000;stroke-width:0.8;" x="235.537109" xlink:href="#m2ee6f96ea6" y="252"/>
      </g>
     </g>
     <g id="text_5">
      <!-- 400 -->
      <defs>
       <path d="M 37.796875 64.3125 
L 12.890625 25.390625 
L 37.796875 25.390625 
z
M 35.203125 72.90625 
L 47.609375 72.90625 
L 47.609375 25.390625 
L 58.015625 25.390625 
L 58.015625 17.1875 
L 47.609375 17.1875 
L 47.609375 0 
L 37.796875 0 
L 37.796875 17.1875 
L 4.890625 17.1875 
L 4.890625 26.703125 
z
" id="DejaVuSans-52"/>
      </defs>
      <g transform="translate(225.993359 266.598437)scale(0.1 -0.1)">
       <use xlink:href="#DejaVuSans-52"/>
       <use x="63.623047" xlink:href="#DejaVuSans-48"/>
       <use x="127.246094" xlink:href="#DejaVuSans-48"/>
      </g>
     </g>
    </g>
    <g id="xtick_6">
     <g id="line2d_6">
      <g>
       <use style="stroke:#000000;stroke-width:0.8;" x="277.116841" xlink:href="#m2ee6f96ea6" y="252"/>
      </g>
     </g>
     <g id="text_6">
      <!-- 500 -->
      <defs>
       <path d="M 10.796875 72.90625 
L 49.515625 72.90625 
L 49.515625 64.59375 
L 19.828125 64.59375 
L 19.828125 46.734375 
Q 21.96875 47.46875 24.109375 47.828125 
Q 26.265625 48.1875 28.421875 48.1875 
Q 40.625 48.1875 47.75 41.5 
Q 54.890625 34.8125 54.890625 23.390625 
Q 54.890625 11.625 47.5625 5.09375 
Q 40.234375 -1.421875 26.90625 -1.421875 
Q 22.3125 -1.421875 17.546875 -0.640625 
Q 12.796875 0.140625 7.71875 1.703125 
L 7.71875 11.625 
Q 12.109375 9.234375 16.796875 8.0625 
Q 21.484375 6.890625 26.703125 6.890625 
Q 35.15625 6.890625 40.078125 11.328125 
Q 45.015625 15.765625 45.015625 23.390625 
Q 45.015625 31 40.078125 35.4375 
Q 35.15625 39.890625 26.703125 39.890625 
Q 22.75 39.890625 18.8125 39.015625 
Q 14.890625 38.140625 10.796875 36.28125 
z
" id="DejaVuSans-53"/>
      </defs>
      <g transform="translate(267.573091 266.598437)scale(0.1 -0.1)">
       <use xlink:href="#DejaVuSans-53"/>
       <use x="63.623047" xlink:href="#DejaVuSans-48"/>
       <use x="127.246094" xlink:href="#DejaVuSans-48"/>
      </g>
     </g>
    </g>
    <g id="xtick_7">
     <g id="line2d_7">
      <g>
       <use style="stroke:#000000;stroke-width:0.8;" x="318.696572" xlink:href="#m2ee6f96ea6" y="252"/>
      </g>
     </g>
     <g id="text_7">
      <!-- 600 -->
      <defs>
       <path d="M 33.015625 40.375 
Q 26.375 40.375 22.484375 35.828125 
Q 18.609375 31.296875 18.609375 23.390625 
Q 18.609375 15.53125 22.484375 10.953125 
Q 26.375 6.390625 33.015625 6.390625 
Q 39.65625 6.390625 43.53125 10.953125 
Q 47.40625 15.53125 47.40625 23.390625 
Q 47.40625 31.296875 43.53125 35.828125 
Q 39.65625 40.375 33.015625 40.375 
z
M 52.59375 71.296875 
L 52.59375 62.3125 
Q 48.875 64.0625 45.09375 64.984375 
Q 41.3125 65.921875 37.59375 65.921875 
Q 27.828125 65.921875 22.671875 59.328125 
Q 17.53125 52.734375 16.796875 39.40625 
Q 19.671875 43.65625 24.015625 45.921875 
Q 28.375 48.1875 33.59375 48.1875 
Q 44.578125 48.1875 50.953125 41.515625 
Q 57.328125 34.859375 57.328125 23.390625 
Q 57.328125 12.15625 50.6875 5.359375 
Q 44.046875 -1.421875 33.015625 -1.421875 
Q 20.359375 -1.421875 13.671875 8.265625 
Q 6.984375 17.96875 6.984375 36.375 
Q 6.984375 53.65625 15.1875 63.9375 
Q 23.390625 74.21875 37.203125 74.21875 
Q 40.921875 74.21875 44.703125 73.484375 
Q 48.484375 72.75 52.59375 71.296875 
z
" id="DejaVuSans-54"/>
      </defs>
      <g transform="translate(309.152822 266.598437)scale(0.1 -0.1)">
       <use xlink:href="#DejaVuSans-54"/>
       <use x="63.623047" xlink:href="#DejaVuSans-48"/>
       <use x="127.246094" xlink:href="#DejaVuSans-48"/>
      </g>
     </g>
    </g>
    <g id="xtick_8">
     <g id="line2d_8">
      <g>
       <use style="stroke:#000000;stroke-width:0.8;" x="360.276304" xlink:href="#m2ee6f96ea6" y="252"/>
      </g>
     </g>
     <g id="text_8">
      <!-- 700 -->
      <defs>
       <path d="M 8.203125 72.90625 
L 55.078125 72.90625 
L 55.078125 68.703125 
L 28.609375 0 
L 18.3125 0 
L 43.21875 64.59375 
L 8.203125 64.59375 
z
" id="DejaVuSans-55"/>
      </defs>
      <g transform="translate(350.732554 266.598437)scale(0.1 -0.1)">
       <use xlink:href="#DejaVuSans-55"/>
       <use x="63.623047" xlink:href="#DejaVuSans-48"/>
       <use x="127.246094" xlink:href="#DejaVuSans-48"/>
      </g>
     </g>
    </g>
   </g>
   <g id="matplotlib.axis_2">
    <g id="ytick_1">
     <g id="line2d_9">
      <defs>
       <path d="M 0 0 
L -3.5 0 
" id="m203e8863b5" style="stroke:#000000;stroke-width:0.8;"/>
      </defs>
      <g>
       <use style="stroke:#000000;stroke-width:0.8;" x="54" xlink:href="#m203e8863b5" y="248.705455"/>
      </g>
     </g>
     <g id="text_9">
      <!-- 1 -->
      <g transform="translate(40.6375 252.504673)scale(0.1 -0.1)">
       <use xlink:href="#DejaVuSans-49"/>
      </g>
     </g>
    </g>
    <g id="ytick_2">
     <g id="line2d_10">
      <g>
       <use style="stroke:#000000;stroke-width:0.8;" x="54" xlink:href="#m203e8863b5" y="215.76"/>
      </g>
     </g>
     <g id="text_10">
      <!-- 2 -->
      <g transform="translate(40.6375 219.559219)scale(0.1 -0.1)">
       <use xlink:href="#DejaVuSans-50"/>
      </g>
     </g>
    </g>
    <g id="ytick_3">
     <g id="line2d_11">
      <g>
       <use style="stroke:#000000;stroke-width:0.8;" x="54" xlink:href="#m203e8863b5" y="182.814545"/>
      </g>
     </g>
     <g id="text_11">
      <!-- 3 -->
      <g transform="translate(40.6375 186.613764)scale(0.1 -0.1)">
       <use xlink:href="#DejaVuSans-51"/>
      </g>
     </g>
    </g>
    <g id="ytick_4">
     <g id="line2d_12">
      <g>
       <use style="stroke:#000000;stroke-width:0.8;" x="54" xlink:href="#m203e8863b5" y="149.869091"/>
      </g>
     </g>
     <g id="text_12">
      <!-- 4 -->
      <g transform="translate(40.6375 153.66831)scale(0.1 -0.1)">
       <use xlink:href="#DejaVuSans-52"/>
      </g>
     </g>
    </g>
    <g id="ytick_5">
     <g id="line2d_13">
      <g>
       <use style="stroke:#000000;stroke-width:0.8;" x="54" xlink:href="#m203e8863b5" y="116.923636"/>
      </g>
     </g>
     <g id="text_13">
      <!-- 5 -->
      <g transform="translate(40.6375 120.722855)scale(0.1 -0.1)">
       <use xlink:href="#DejaVuSans-53"/>
      </g>
     </g>
    </g>
    <g id="ytick_6">
     <g id="line2d_14">
      <g>
       <use style="stroke:#000000;stroke-width:0.8;" x="54" xlink:href="#m203e8863b5" y="83.978182"/>
      </g>
     </g>
     <g id="text_14">
      <!-- 6 -->
      <g transform="translate(40.6375 87.777401)scale(0.1 -0.1)">
       <use xlink:href="#DejaVuSans-54"/>
      </g>
     </g>
    </g>
    <g id="ytick_7">
     <g id="line2d_15">
      <g>
       <use style="stroke:#000000;stroke-width:0.8;" x="54" xlink:href="#m203e8863b5" y="51.032727"/>
      </g>
     </g>
     <g id="text_15">
      <!-- 7 -->
      <g transform="translate(40.6375 54.831946)scale(0.1 -0.1)">
       <use xlink:href="#DejaVuSans-55"/>
      </g>
     </g>
    </g>
   </g>
   <g id="line2d_16">
    <path clip-path="url(#p9b2126626f)" d="M 69.218182 136.690909 
L 69.633979 159.752727 
L 70.049776 113.629091 
L 70.881371 179.52 
L 71.297168 149.869091 
L 71.712966 205.876364 
L 72.128763 205.876364 
L 72.960358 120.218182 
L 73.376155 133.396364 
L 73.791952 205.876364 
L 74.20775 192.698182 
L 74.623547 136.690909 
L 75.039344 169.636364 
L 75.455142 156.458182 
L 75.870939 126.807273 
L 76.286736 169.636364 
L 76.702534 146.574545 
L 77.118331 172.930909 
L 77.534128 130.101818 
L 77.949925 143.28 
L 78.365723 179.52 
L 79.197317 130.101818 
L 79.613115 195.992727 
L 80.028912 110.334545 
L 80.444709 195.992727 
L 80.860507 139.985455 
L 81.276304 163.047273 
L 81.692101 110.334545 
L 82.107899 205.876364 
L 82.523696 93.861818 
L 82.939493 166.341818 
L 83.355291 110.334545 
L 83.771088 143.28 
L 84.186885 126.807273 
L 85.01848 153.163636 
L 85.434277 146.574545 
L 85.850075 153.163636 
L 86.265872 153.163636 
L 86.681669 199.287273 
L 87.513264 123.512727 
L 87.929061 172.930909 
L 88.344858 136.690909 
L 88.760656 90.567273 
L 89.176453 153.163636 
L 89.59225 143.28 
L 90.008048 199.287273 
L 90.423845 133.396364 
L 90.839642 192.698182 
L 91.25544 182.814545 
L 91.671237 156.458182 
L 92.087034 120.218182 
L 92.502832 189.403636 
L 92.918629 192.698182 
L 93.334426 182.814545 
L 93.750224 116.923636 
L 94.166021 212.465455 
L 94.581818 149.869091 
L 94.997615 136.690909 
L 95.413413 133.396364 
L 95.82921 136.690909 
L 96.245007 130.101818 
L 96.660805 83.978182 
L 97.076602 156.458182 
L 97.492399 159.752727 
L 97.908197 156.458182 
L 98.323994 116.923636 
L 98.739791 146.574545 
L 99.155589 133.396364 
L 99.571386 169.636364 
L 99.987183 172.930909 
L 100.402981 107.04 
L 100.818778 156.458182 
L 101.234575 156.458182 
L 101.650373 159.752727 
L 102.06617 189.403636 
L 102.481967 116.923636 
L 102.897765 123.512727 
L 103.313562 146.574545 
L 103.729359 215.76 
L 104.145156 202.581818 
L 104.560954 156.458182 
L 104.976751 143.28 
L 105.392548 156.458182 
L 105.808346 113.629091 
L 106.224143 139.985455 
L 106.63994 136.690909 
L 107.055738 146.574545 
L 107.471535 77.389091 
L 107.887332 186.109091 
L 108.30313 97.156364 
L 108.718927 176.225455 
L 109.134724 100.450909 
L 109.550522 163.047273 
L 109.966319 74.094545 
L 110.382116 156.458182 
L 110.797914 156.458182 
L 111.213711 149.869091 
L 111.629508 133.396364 
L 112.045306 107.04 
L 112.461103 116.923636 
L 112.8769 110.334545 
L 113.292697 110.334545 
L 114.124292 130.101818 
L 114.540089 130.101818 
L 114.955887 83.978182 
L 115.371684 156.458182 
L 115.787481 77.389091 
L 116.203279 113.629091 
L 116.619076 87.272727 
L 117.034873 166.341818 
L 117.450671 87.272727 
L 117.866468 182.814545 
L 118.698063 130.101818 
L 119.11386 136.690909 
L 119.529657 146.574545 
L 119.945455 153.163636 
L 120.361252 126.807273 
L 120.777049 153.163636 
L 121.608644 67.505455 
L 122.440238 156.458182 
L 122.856036 126.807273 
L 123.271833 169.636364 
L 123.68763 143.28 
L 124.103428 159.752727 
L 124.519225 146.574545 
L 124.935022 100.450909 
L 125.35082 139.985455 
L 125.766617 103.745455 
L 126.182414 139.985455 
L 126.598212 116.923636 
L 127.014009 146.574545 
L 127.429806 126.807273 
L 127.845604 139.985455 
L 128.261401 159.752727 
L 128.677198 169.636364 
L 129.092996 90.567273 
L 129.508793 70.8 
L 129.92459 70.8 
L 130.340387 113.629091 
L 130.756185 133.396364 
L 131.171982 139.985455 
L 131.587779 159.752727 
L 132.003577 103.745455 
L 132.419374 93.861818 
L 132.835171 139.985455 
L 133.250969 139.985455 
L 133.666766 136.690909 
L 134.082563 113.629091 
L 134.498361 120.218182 
L 134.914158 97.156364 
L 135.329955 146.574545 
L 135.745753 120.218182 
L 136.16155 113.629091 
L 136.577347 97.156364 
L 136.993145 103.745455 
L 137.408942 149.869091 
L 137.824739 126.807273 
L 138.240537 130.101818 
L 138.656334 156.458182 
L 139.072131 120.218182 
L 139.487928 113.629091 
L 139.903726 70.8 
L 140.73532 136.690909 
L 141.151118 146.574545 
L 141.566915 133.396364 
L 141.982712 133.396364 
L 142.39851 163.047273 
L 142.814307 153.163636 
L 143.230104 166.341818 
L 143.645902 153.163636 
L 144.061699 146.574545 
L 144.477496 120.218182 
L 144.893294 123.512727 
L 145.309091 149.869091 
L 145.724888 159.752727 
L 146.140686 139.985455 
L 146.556483 103.745455 
L 146.97228 136.690909 
L 147.388077 156.458182 
L 147.803875 110.334545 
L 148.219672 130.101818 
L 148.635469 172.930909 
L 149.051267 133.396364 
L 149.467064 120.218182 
L 149.882861 120.218182 
L 150.298659 51.032727 
L 150.714456 100.450909 
L 151.130253 97.156364 
L 151.546051 136.690909 
L 151.961848 87.272727 
L 152.377645 156.458182 
L 152.793443 146.574545 
L 153.20924 77.389091 
L 153.625037 100.450909 
L 154.040835 195.992727 
L 154.456632 139.985455 
L 154.872429 166.341818 
L 155.288227 100.450909 
L 155.704024 159.752727 
L 156.119821 130.101818 
L 156.535618 110.334545 
L 156.951416 77.389091 
L 157.367213 87.272727 
L 157.78301 179.52 
L 158.198808 163.047273 
L 158.614605 126.807273 
L 159.4462 176.225455 
L 159.861997 47.738182 
L 160.277794 130.101818 
L 160.693592 172.930909 
L 161.109389 143.28 
L 161.525186 143.28 
L 161.940984 130.101818 
L 162.356781 64.210909 
L 162.772578 123.512727 
L 163.188376 123.512727 
L 163.604173 136.690909 
L 164.01997 120.218182 
L 164.435768 136.690909 
L 164.851565 110.334545 
L 165.267362 93.861818 
L 165.683159 169.636364 
L 166.514754 130.101818 
L 166.930551 100.450909 
L 167.346349 126.807273 
L 168.177943 156.458182 
L 168.593741 146.574545 
L 169.009538 169.636364 
L 169.425335 93.861818 
L 169.841133 149.869091 
L 170.25693 143.28 
L 170.672727 139.985455 
L 171.088525 93.861818 
L 171.504322 153.163636 
L 171.920119 123.512727 
L 172.335917 153.163636 
L 172.751714 93.861818 
L 173.167511 113.629091 
L 173.583308 87.272727 
L 173.999106 133.396364 
L 174.414903 116.923636 
L 174.8307 143.28 
L 175.246498 113.629091 
L 175.662295 113.629091 
L 176.078092 83.978182 
L 176.49389 87.272727 
L 176.909687 120.218182 
L 177.325484 100.450909 
L 177.741282 74.094545 
L 178.157079 133.396364 
L 178.572876 143.28 
L 178.988674 133.396364 
L 179.404471 149.869091 
L 179.820268 97.156364 
L 180.236066 64.210909 
L 180.651863 143.28 
L 181.06766 74.094545 
L 181.483458 60.916364 
L 181.899255 120.218182 
L 182.315052 133.396364 
L 182.730849 163.047273 
L 183.146647 166.341818 
L 183.562444 130.101818 
L 183.978241 80.683636 
L 184.394039 80.683636 
L 184.809836 77.389091 
L 185.225633 130.101818 
L 185.641431 166.341818 
L 186.057228 136.690909 
L 186.473025 116.923636 
L 186.888823 110.334545 
L 187.30462 143.28 
L 187.720417 90.567273 
L 188.136215 133.396364 
L 188.552012 107.04 
L 188.967809 90.567273 
L 189.383607 130.101818 
L 189.799404 149.869091 
L 190.215201 182.814545 
L 190.630999 87.272727 
L 191.046796 80.683636 
L 191.462593 143.28 
L 191.87839 123.512727 
L 192.294188 136.690909 
L 192.709985 87.272727 
L 193.125782 166.341818 
L 193.54158 110.334545 
L 193.957377 143.28 
L 194.373174 123.512727 
L 194.788972 159.752727 
L 195.204769 116.923636 
L 195.620566 107.04 
L 196.036364 80.683636 
L 196.452161 126.807273 
L 196.867958 100.450909 
L 197.283756 116.923636 
L 197.699553 80.683636 
L 198.11535 163.047273 
L 198.531148 54.327273 
L 198.946945 139.985455 
L 199.362742 166.341818 
L 199.778539 149.869091 
L 200.194337 120.218182 
L 200.610134 130.101818 
L 201.025931 143.28 
L 201.441729 100.450909 
L 201.857526 156.458182 
L 202.273323 166.341818 
L 202.689121 120.218182 
L 203.104918 113.629091 
L 203.520715 120.218182 
L 203.936513 113.629091 
L 204.35231 169.636364 
L 204.768107 159.752727 
L 205.183905 100.450909 
L 205.599702 103.745455 
L 206.015499 77.389091 
L 206.431297 103.745455 
L 206.847094 166.341818 
L 207.262891 107.04 
L 207.678689 116.923636 
L 208.094486 116.923636 
L 208.510283 156.458182 
L 208.92608 133.396364 
L 209.341878 169.636364 
L 209.757675 163.047273 
L 210.173472 149.869091 
L 210.58927 130.101818 
L 211.005067 90.567273 
L 211.420864 176.225455 
L 211.836662 169.636364 
L 212.252459 149.869091 
L 212.668256 123.512727 
L 213.084054 133.396364 
L 213.499851 159.752727 
L 213.915648 126.807273 
L 214.331446 110.334545 
L 214.747243 143.28 
L 215.16304 159.752727 
L 215.578838 120.218182 
L 215.994635 182.814545 
L 216.410432 146.574545 
L 216.82623 149.869091 
L 217.242027 159.752727 
L 217.657824 130.101818 
L 218.073621 113.629091 
L 218.489419 146.574545 
L 218.905216 110.334545 
L 219.321013 120.218182 
L 219.736811 77.389091 
L 220.152608 139.985455 
L 220.568405 83.978182 
L 220.984203 83.978182 
L 221.4 156.458182 
L 221.815797 107.04 
L 222.647392 80.683636 
L 223.063189 133.396364 
L 223.478987 126.807273 
L 223.894784 44.443636 
L 224.310581 113.629091 
L 224.726379 67.505455 
L 225.142176 87.272727 
L 225.557973 100.450909 
L 225.97377 83.978182 
L 226.389568 179.52 
L 226.805365 126.807273 
L 227.221162 133.396364 
L 227.63696 113.629091 
L 228.884352 133.396364 
L 229.300149 77.389091 
L 229.715946 130.101818 
L 230.131744 87.272727 
L 230.547541 83.978182 
L 230.963338 107.04 
L 231.379136 90.567273 
L 232.21073 110.334545 
L 232.626528 60.916364 
L 233.042325 110.334545 
L 233.458122 90.567273 
L 233.87392 130.101818 
L 234.289717 130.101818 
L 234.705514 163.047273 
L 235.537109 120.218182 
L 235.952906 113.629091 
L 236.368703 133.396364 
L 236.784501 133.396364 
L 237.200298 110.334545 
L 237.616095 80.683636 
L 238.031893 149.869091 
L 238.44769 139.985455 
L 238.863487 116.923636 
L 239.279285 103.745455 
L 239.695082 130.101818 
L 240.526677 57.621818 
L 240.942474 176.225455 
L 241.358271 130.101818 
L 241.774069 97.156364 
L 242.189866 149.869091 
L 242.605663 146.574545 
L 243.021461 103.745455 
L 243.437258 126.807273 
L 244.268852 139.985455 
L 244.68465 130.101818 
L 245.100447 189.403636 
L 245.516244 126.807273 
L 246.347839 146.574545 
L 246.763636 100.450909 
L 247.179434 123.512727 
L 247.595231 100.450909 
L 248.011028 153.163636 
L 248.426826 110.334545 
L 248.842623 136.690909 
L 249.25842 120.218182 
L 249.674218 74.094545 
L 250.090015 100.450909 
L 250.505812 116.923636 
L 250.92161 149.869091 
L 251.337407 139.985455 
L 251.753204 103.745455 
L 252.169001 136.690909 
L 252.584799 113.629091 
L 253.000596 133.396364 
L 253.832191 93.861818 
L 254.247988 130.101818 
L 254.663785 103.745455 
L 255.079583 87.272727 
L 255.49538 120.218182 
L 255.911177 123.512727 
L 256.326975 97.156364 
L 256.742772 156.458182 
L 257.158569 169.636364 
L 257.990164 107.04 
L 258.405961 139.985455 
L 258.821759 136.690909 
L 259.237556 83.978182 
L 260.069151 169.636364 
L 260.484948 80.683636 
L 260.900745 149.869091 
L 261.316542 139.985455 
L 261.73234 103.745455 
L 262.148137 97.156364 
L 262.563934 156.458182 
L 262.979732 149.869091 
L 263.395529 100.450909 
L 263.811326 116.923636 
L 264.227124 139.985455 
L 264.642921 153.163636 
L 265.058718 149.869091 
L 265.474516 153.163636 
L 265.890313 136.690909 
L 266.30611 189.403636 
L 266.721908 103.745455 
L 267.137705 139.985455 
L 267.9693 116.923636 
L 268.385097 156.458182 
L 268.800894 153.163636 
L 269.216692 153.163636 
L 269.632489 130.101818 
L 270.048286 126.807273 
L 270.464083 163.047273 
L 270.879881 169.636364 
L 271.295678 156.458182 
L 271.711475 130.101818 
L 272.127273 149.869091 
L 272.54307 87.272727 
L 272.958867 163.047273 
L 273.374665 166.341818 
L 273.790462 126.807273 
L 274.206259 103.745455 
L 274.622057 100.450909 
L 275.037854 110.334545 
L 275.453651 130.101818 
L 275.869449 139.985455 
L 276.285246 169.636364 
L 276.701043 166.341818 
L 277.116841 133.396364 
L 277.532638 169.636364 
L 277.948435 126.807273 
L 278.78003 107.04 
L 279.195827 107.04 
L 279.611624 153.163636 
L 280.027422 80.683636 
L 280.443219 123.512727 
L 280.859016 149.869091 
L 281.274814 110.334545 
L 281.690611 136.690909 
L 282.106408 139.985455 
L 282.522206 97.156364 
L 282.938003 74.094545 
L 283.3538 120.218182 
L 283.769598 123.512727 
L 284.185395 70.8 
L 284.601192 120.218182 
L 285.01699 77.389091 
L 285.432787 130.101818 
L 285.848584 130.101818 
L 286.264382 166.341818 
L 286.680179 136.690909 
L 287.095976 44.443636 
L 287.927571 169.636364 
L 288.343368 146.574545 
L 288.759165 130.101818 
L 289.174963 146.574545 
L 289.59076 146.574545 
L 290.006557 74.094545 
L 290.422355 136.690909 
L 290.838152 166.341818 
L 291.253949 156.458182 
L 291.669747 143.28 
L 292.085544 136.690909 
L 292.501341 169.636364 
L 292.917139 139.985455 
L 293.332936 143.28 
L 293.748733 100.450909 
L 294.164531 80.683636 
L 294.580328 103.745455 
L 294.996125 103.745455 
L 295.411923 123.512727 
L 295.82772 64.210909 
L 296.243517 159.752727 
L 296.659314 163.047273 
L 297.075112 143.28 
L 297.490909 113.629091 
L 297.906706 133.396364 
L 298.322504 169.636364 
L 298.738301 103.745455 
L 299.154098 116.923636 
L 299.569896 153.163636 
L 299.985693 143.28 
L 300.40149 123.512727 
L 300.817288 139.985455 
L 301.233085 126.807273 
L 301.648882 93.861818 
L 302.06468 100.450909 
L 302.480477 143.28 
L 302.896274 139.985455 
L 303.312072 143.28 
L 304.143666 80.683636 
L 304.559463 97.156364 
L 304.975261 70.8 
L 305.391058 133.396364 
L 305.806855 133.396364 
L 306.222653 172.930909 
L 306.63845 130.101818 
L 307.054247 113.629091 
L 307.470045 80.683636 
L 307.885842 136.690909 
L 308.301639 123.512727 
L 308.717437 130.101818 
L 309.133234 113.629091 
L 309.964829 146.574545 
L 310.380626 130.101818 
L 310.796423 130.101818 
L 311.212221 136.690909 
L 311.628018 133.396364 
L 312.043815 120.218182 
L 312.459613 100.450909 
L 312.87541 123.512727 
L 313.291207 136.690909 
L 313.707004 139.985455 
L 314.122802 80.683636 
L 314.538599 149.869091 
L 314.954396 107.04 
L 315.370194 130.101818 
L 315.785991 169.636364 
L 316.201788 100.450909 
L 317.033383 133.396364 
L 317.44918 130.101818 
L 317.864978 159.752727 
L 318.280775 149.869091 
L 318.696572 133.396364 
L 319.11237 163.047273 
L 319.528167 90.567273 
L 319.943964 97.156364 
L 320.359762 143.28 
L 320.775559 116.923636 
L 321.191356 159.752727 
L 321.607154 159.752727 
L 322.022951 156.458182 
L 322.438748 136.690909 
L 322.854545 93.861818 
L 323.270343 123.512727 
L 323.68614 163.047273 
L 324.101937 186.109091 
L 324.517735 136.690909 
L 324.933532 123.512727 
L 325.349329 83.978182 
L 325.765127 97.156364 
L 326.180924 163.047273 
L 326.596721 163.047273 
L 327.012519 172.930909 
L 327.428316 149.869091 
L 327.844113 64.210909 
L 328.259911 107.04 
L 329.091505 153.163636 
L 329.507303 136.690909 
L 329.9231 143.28 
L 330.338897 80.683636 
L 330.754694 113.629091 
L 331.170492 126.807273 
L 331.586289 123.512727 
L 332.002086 130.101818 
L 332.417884 153.163636 
L 332.833681 149.869091 
L 333.249478 126.807273 
L 333.665276 77.389091 
L 334.081073 136.690909 
L 334.49687 159.752727 
L 334.912668 159.752727 
L 335.328465 93.861818 
L 335.744262 136.690909 
L 336.16006 64.210909 
L 336.575857 146.574545 
L 336.991654 120.218182 
L 337.407452 80.683636 
L 337.823249 110.334545 
L 338.239046 110.334545 
L 338.654844 126.807273 
L 339.070641 166.341818 
L 339.902235 123.512727 
L 340.318033 139.985455 
L 340.73383 110.334545 
L 341.149627 116.923636 
L 341.565425 100.450909 
L 341.981222 153.163636 
L 342.397019 80.683636 
L 342.812817 87.272727 
L 343.228614 163.047273 
L 343.644411 159.752727 
L 344.060209 130.101818 
L 344.476006 133.396364 
L 344.891803 166.341818 
L 345.307601 133.396364 
L 345.723398 116.923636 
L 346.139195 77.389091 
L 346.554993 149.869091 
L 346.97079 116.923636 
L 347.386587 97.156364 
L 347.802385 166.341818 
L 348.218182 113.629091 
L 348.633979 149.869091 
L 349.465574 143.28 
L 349.881371 166.341818 
L 350.297168 123.512727 
L 350.712966 136.690909 
L 351.128763 143.28 
L 351.54456 192.698182 
L 351.960358 179.52 
L 352.376155 202.581818 
L 352.791952 179.52 
L 353.20775 195.992727 
L 353.623547 232.232727 
L 354.039344 179.52 
L 354.455142 199.287273 
L 354.870939 163.047273 
L 355.286736 219.054545 
L 355.702534 182.814545 
L 356.534128 225.643636 
L 356.949925 176.225455 
L 357.365723 209.170909 
L 357.78152 205.876364 
L 358.197317 212.465455 
L 358.613115 232.232727 
L 359.028912 199.287273 
L 359.444709 153.163636 
L 359.860507 215.76 
L 360.276304 228.938182 
L 360.692101 228.938182 
L 361.107899 238.821818 
L 362.355291 133.396364 
L 362.771088 215.76 
L 363.186885 182.814545 
L 363.602683 238.821818 
L 364.434277 186.109091 
L 364.850075 212.465455 
L 365.265872 176.225455 
L 365.681669 222.349091 
L 366.097466 242.116364 
L 366.513264 228.938182 
L 366.929061 186.109091 
L 367.344858 222.349091 
L 367.760656 228.938182 
L 368.176453 212.465455 
L 368.59225 235.527273 
L 369.008048 238.821818 
L 369.423845 225.643636 
L 369.839642 235.527273 
L 370.671237 182.814545 
L 371.087034 242.116364 
L 371.502832 232.232727 
L 371.918629 228.938182 
L 372.334426 235.527273 
L 372.750224 222.349091 
L 373.166021 228.938182 
L 373.581818 209.170909 
L 373.581818 209.170909 
" style="fill:none;stroke:#1f77b4;stroke-linecap:square;stroke-width:1.5;"/>
   </g>
   <g id="patch_3">
    <path d="M 54 252 
L 54 34.56 
" style="fill:none;stroke:#000000;stroke-linecap:square;stroke-linejoin:miter;stroke-width:0.8;"/>
   </g>
   <g id="patch_4">
    <path d="M 388.8 252 
L 388.8 34.56 
" style="fill:none;stroke:#000000;stroke-linecap:square;stroke-linejoin:miter;stroke-width:0.8;"/>
   </g>
   <g id="patch_5">
    <path d="M 54 252 
L 388.8 252 
" style="fill:none;stroke:#000000;stroke-linecap:square;stroke-linejoin:miter;stroke-width:0.8;"/>
   </g>
   <g id="patch_6">
    <path d="M 54 34.56 
L 388.8 34.56 
" style="fill:none;stroke:#000000;stroke-linecap:square;stroke-linejoin:miter;stroke-width:0.8;"/>
   </g>
  </g>
 </g>
 <defs>
  <clipPath id="p9b2126626f">
   <rect height="217.44" width="334.8" x="54" y="34.56"/>
  </clipPath>
 </defs>
</svg>
