<?xml version="1.0" encoding="utf-8" standalone="no"?>
<!DOCTYPE svg PUBLIC "-//W3C//DTD SVG 1.1//EN"
  "http://www.w3.org/Graphics/SVG/1.1/DTD/svg11.dtd">
<!-- Created with matplotlib (https://matplotlib.org/) -->
<svg height="288pt" version="1.1" viewBox="0 0 432 288" width="432pt" xmlns="http://www.w3.org/2000/svg" xmlns:xlink="http://www.w3.org/1999/xlink">
 <defs>
  <style type="text/css">
*{stroke-linecap:butt;stroke-linejoin:round;}
  </style>
 </defs>
 <g id="figure_1">
  <g id="patch_1">
   <path d="M 0 288 
L 432 288 
L 432 0 
L 0 0 
z
" style="fill:#ffffff;"/>
  </g>
  <g id="axes_1">
   <g id="patch_2">
    <path d="M 54 252 
L 388.8 252 
L 388.8 34.56 
L 54 34.56 
z
" style="fill:#ffffff;"/>
   </g>
   <g id="matplotlib.axis_1">
    <g id="xtick_1">
     <g id="line2d_1">
      <defs>
       <path d="M 0 0 
L 0 3.5 
" id="ma61c978211" style="stroke:#000000;stroke-width:0.8;"/>
      </defs>
      <g>
       <use style="stroke:#000000;stroke-width:0.8;" x="69.218182" xlink:href="#ma61c978211" y="252"/>
      </g>
     </g>
     <g id="text_1">
      <!-- 0 -->
      <defs>
       <path d="M 31.78125 66.40625 
Q 24.171875 66.40625 20.328125 58.90625 
Q 16.5 51.421875 16.5 36.375 
Q 16.5 21.390625 20.328125 13.890625 
Q 24.171875 6.390625 31.78125 6.390625 
Q 39.453125 6.390625 43.28125 13.890625 
Q 47.125 21.390625 47.125 36.375 
Q 47.125 51.421875 43.28125 58.90625 
Q 39.453125 66.40625 31.78125 66.40625 
z
M 31.78125 74.21875 
Q 44.046875 74.21875 50.515625 64.515625 
Q 56.984375 54.828125 56.984375 36.375 
Q 56.984375 17.96875 50.515625 8.265625 
Q 44.046875 -1.421875 31.78125 -1.421875 
Q 19.53125 -1.421875 13.0625 8.265625 
Q 6.59375 17.96875 6.59375 36.375 
Q 6.59375 54.828125 13.0625 64.515625 
Q 19.53125 74.21875 31.78125 74.21875 
z
" id="DejaVuSans-48"/>
      </defs>
      <g transform="translate(66.036932 266.598437)scale(0.1 -0.1)">
       <use xlink:href="#DejaVuSans-48"/>
      </g>
     </g>
    </g>
    <g id="xtick_2">
     <g id="line2d_2">
      <g>
       <use style="stroke:#000000;stroke-width:0.8;" x="109.973891" xlink:href="#ma61c978211" y="252"/>
      </g>
     </g>
     <g id="text_2">
      <!-- 250 -->
      <defs>
       <path d="M 19.1875 8.296875 
L 53.609375 8.296875 
L 53.609375 0 
L 7.328125 0 
L 7.328125 8.296875 
Q 12.9375 14.109375 22.625 23.890625 
Q 32.328125 33.6875 34.8125 36.53125 
Q 39.546875 41.84375 41.421875 45.53125 
Q 43.3125 49.21875 43.3125 52.78125 
Q 43.3125 58.59375 39.234375 62.25 
Q 35.15625 65.921875 28.609375 65.921875 
Q 23.96875 65.921875 18.8125 64.3125 
Q 13.671875 62.703125 7.8125 59.421875 
L 7.8125 69.390625 
Q 13.765625 71.78125 18.9375 73 
Q 24.125 74.21875 28.421875 74.21875 
Q 39.75 74.21875 46.484375 68.546875 
Q 53.21875 62.890625 53.21875 53.421875 
Q 53.21875 48.921875 51.53125 44.890625 
Q 49.859375 40.875 45.40625 35.40625 
Q 44.1875 33.984375 37.640625 27.21875 
Q 31.109375 20.453125 19.1875 8.296875 
z
" id="DejaVuSans-50"/>
       <path d="M 10.796875 72.90625 
L 49.515625 72.90625 
L 49.515625 64.59375 
L 19.828125 64.59375 
L 19.828125 46.734375 
Q 21.96875 47.46875 24.109375 47.828125 
Q 26.265625 48.1875 28.421875 48.1875 
Q 40.625 48.1875 47.75 41.5 
Q 54.890625 34.8125 54.890625 23.390625 
Q 54.890625 11.625 47.5625 5.09375 
Q 40.234375 -1.421875 26.90625 -1.421875 
Q 22.3125 -1.421875 17.546875 -0.640625 
Q 12.796875 0.140625 7.71875 1.703125 
L 7.71875 11.625 
Q 12.109375 9.234375 16.796875 8.0625 
Q 21.484375 6.890625 26.703125 6.890625 
Q 35.15625 6.890625 40.078125 11.328125 
Q 45.015625 15.765625 45.015625 23.390625 
Q 45.015625 31 40.078125 35.4375 
Q 35.15625 39.890625 26.703125 39.890625 
Q 22.75 39.890625 18.8125 39.015625 
Q 14.890625 38.140625 10.796875 36.28125 
z
" id="DejaVuSans-53"/>
      </defs>
      <g transform="translate(100.430141 266.598437)scale(0.1 -0.1)">
       <use xlink:href="#DejaVuSans-50"/>
       <use x="63.623047" xlink:href="#DejaVuSans-53"/>
       <use x="127.246094" xlink:href="#DejaVuSans-48"/>
      </g>
     </g>
    </g>
    <g id="xtick_3">
     <g id="line2d_3">
      <g>
       <use style="stroke:#000000;stroke-width:0.8;" x="150.7296" xlink:href="#ma61c978211" y="252"/>
      </g>
     </g>
     <g id="text_3">
      <!-- 500 -->
      <g transform="translate(141.18585 266.598437)scale(0.1 -0.1)">
       <use xlink:href="#DejaVuSans-53"/>
       <use x="63.623047" xlink:href="#DejaVuSans-48"/>
       <use x="127.246094" xlink:href="#DejaVuSans-48"/>
      </g>
     </g>
    </g>
    <g id="xtick_4">
     <g id="line2d_4">
      <g>
       <use style="stroke:#000000;stroke-width:0.8;" x="191.485309" xlink:href="#ma61c978211" y="252"/>
      </g>
     </g>
     <g id="text_4">
      <!-- 750 -->
      <defs>
       <path d="M 8.203125 72.90625 
L 55.078125 72.90625 
L 55.078125 68.703125 
L 28.609375 0 
L 18.3125 0 
L 43.21875 64.59375 
L 8.203125 64.59375 
z
" id="DejaVuSans-55"/>
      </defs>
      <g transform="translate(181.941559 266.598437)scale(0.1 -0.1)">
       <use xlink:href="#DejaVuSans-55"/>
       <use x="63.623047" xlink:href="#DejaVuSans-53"/>
       <use x="127.246094" xlink:href="#DejaVuSans-48"/>
      </g>
     </g>
    </g>
    <g id="xtick_5">
     <g id="line2d_5">
      <g>
       <use style="stroke:#000000;stroke-width:0.8;" x="232.241019" xlink:href="#ma61c978211" y="252"/>
      </g>
     </g>
     <g id="text_5">
      <!-- 1000 -->
      <defs>
       <path d="M 12.40625 8.296875 
L 28.515625 8.296875 
L 28.515625 63.921875 
L 10.984375 60.40625 
L 10.984375 69.390625 
L 28.421875 72.90625 
L 38.28125 72.90625 
L 38.28125 8.296875 
L 54.390625 8.296875 
L 54.390625 0 
L 12.40625 0 
z
" id="DejaVuSans-49"/>
      </defs>
      <g transform="translate(219.516019 266.598437)scale(0.1 -0.1)">
       <use xlink:href="#DejaVuSans-49"/>
       <use x="63.623047" xlink:href="#DejaVuSans-48"/>
       <use x="127.246094" xlink:href="#DejaVuSans-48"/>
       <use x="190.869141" xlink:href="#DejaVuSans-48"/>
      </g>
     </g>
    </g>
    <g id="xtick_6">
     <g id="line2d_6">
      <g>
       <use style="stroke:#000000;stroke-width:0.8;" x="272.996728" xlink:href="#ma61c978211" y="252"/>
      </g>
     </g>
     <g id="text_6">
      <!-- 1250 -->
      <g transform="translate(260.271728 266.598437)scale(0.1 -0.1)">
       <use xlink:href="#DejaVuSans-49"/>
       <use x="63.623047" xlink:href="#DejaVuSans-50"/>
       <use x="127.246094" xlink:href="#DejaVuSans-53"/>
       <use x="190.869141" xlink:href="#DejaVuSans-48"/>
      </g>
     </g>
    </g>
    <g id="xtick_7">
     <g id="line2d_7">
      <g>
       <use style="stroke:#000000;stroke-width:0.8;" x="313.752437" xlink:href="#ma61c978211" y="252"/>
      </g>
     </g>
     <g id="text_7">
      <!-- 1500 -->
      <g transform="translate(301.027437 266.598437)scale(0.1 -0.1)">
       <use xlink:href="#DejaVuSans-49"/>
       <use x="63.623047" xlink:href="#DejaVuSans-53"/>
       <use x="127.246094" xlink:href="#DejaVuSans-48"/>
       <use x="190.869141" xlink:href="#DejaVuSans-48"/>
      </g>
     </g>
    </g>
    <g id="xtick_8">
     <g id="line2d_8">
      <g>
       <use style="stroke:#000000;stroke-width:0.8;" x="354.508146" xlink:href="#ma61c978211" y="252"/>
      </g>
     </g>
     <g id="text_8">
      <!-- 1750 -->
      <g transform="translate(341.783146 266.598437)scale(0.1 -0.1)">
       <use xlink:href="#DejaVuSans-49"/>
       <use x="63.623047" xlink:href="#DejaVuSans-55"/>
       <use x="127.246094" xlink:href="#DejaVuSans-53"/>
       <use x="190.869141" xlink:href="#DejaVuSans-48"/>
      </g>
     </g>
    </g>
   </g>
   <g id="matplotlib.axis_2">
    <g id="ytick_1">
     <g id="line2d_9">
      <defs>
       <path d="M 0 0 
L -3.5 0 
" id="m0c55534559" style="stroke:#000000;stroke-width:0.8;"/>
      </defs>
      <g>
       <use style="stroke:#000000;stroke-width:0.8;" x="54" xlink:href="#m0c55534559" y="248.161135"/>
      </g>
     </g>
     <g id="text_9">
      <!-- 0 -->
      <g transform="translate(40.6375 251.960353)scale(0.1 -0.1)">
       <use xlink:href="#DejaVuSans-48"/>
      </g>
     </g>
    </g>
    <g id="ytick_2">
     <g id="line2d_10">
      <g>
       <use style="stroke:#000000;stroke-width:0.8;" x="54" xlink:href="#m0c55534559" y="209.288999"/>
      </g>
     </g>
     <g id="text_10">
      <!-- 2 -->
      <g transform="translate(40.6375 213.088218)scale(0.1 -0.1)">
       <use xlink:href="#DejaVuSans-50"/>
      </g>
     </g>
    </g>
    <g id="ytick_3">
     <g id="line2d_11">
      <g>
       <use style="stroke:#000000;stroke-width:0.8;" x="54" xlink:href="#m0c55534559" y="170.416863"/>
      </g>
     </g>
     <g id="text_11">
      <!-- 4 -->
      <defs>
       <path d="M 37.796875 64.3125 
L 12.890625 25.390625 
L 37.796875 25.390625 
z
M 35.203125 72.90625 
L 47.609375 72.90625 
L 47.609375 25.390625 
L 58.015625 25.390625 
L 58.015625 17.1875 
L 47.609375 17.1875 
L 47.609375 0 
L 37.796875 0 
L 37.796875 17.1875 
L 4.890625 17.1875 
L 4.890625 26.703125 
z
" id="DejaVuSans-52"/>
      </defs>
      <g transform="translate(40.6375 174.216082)scale(0.1 -0.1)">
       <use xlink:href="#DejaVuSans-52"/>
      </g>
     </g>
    </g>
    <g id="ytick_4">
     <g id="line2d_12">
      <g>
       <use style="stroke:#000000;stroke-width:0.8;" x="54" xlink:href="#m0c55534559" y="131.544728"/>
      </g>
     </g>
     <g id="text_12">
      <!-- 6 -->
      <defs>
       <path d="M 33.015625 40.375 
Q 26.375 40.375 22.484375 35.828125 
Q 18.609375 31.296875 18.609375 23.390625 
Q 18.609375 15.53125 22.484375 10.953125 
Q 26.375 6.390625 33.015625 6.390625 
Q 39.65625 6.390625 43.53125 10.953125 
Q 47.40625 15.53125 47.40625 23.390625 
Q 47.40625 31.296875 43.53125 35.828125 
Q 39.65625 40.375 33.015625 40.375 
z
M 52.59375 71.296875 
L 52.59375 62.3125 
Q 48.875 64.0625 45.09375 64.984375 
Q 41.3125 65.921875 37.59375 65.921875 
Q 27.828125 65.921875 22.671875 59.328125 
Q 17.53125 52.734375 16.796875 39.40625 
Q 19.671875 43.65625 24.015625 45.921875 
Q 28.375 48.1875 33.59375 48.1875 
Q 44.578125 48.1875 50.953125 41.515625 
Q 57.328125 34.859375 57.328125 23.390625 
Q 57.328125 12.15625 50.6875 5.359375 
Q 44.046875 -1.421875 33.015625 -1.421875 
Q 20.359375 -1.421875 13.671875 8.265625 
Q 6.984375 17.96875 6.984375 36.375 
Q 6.984375 53.65625 15.1875 63.9375 
Q 23.390625 74.21875 37.203125 74.21875 
Q 40.921875 74.21875 44.703125 73.484375 
Q 48.484375 72.75 52.59375 71.296875 
z
" id="DejaVuSans-54"/>
      </defs>
      <g transform="translate(40.6375 135.343946)scale(0.1 -0.1)">
       <use xlink:href="#DejaVuSans-54"/>
      </g>
     </g>
    </g>
    <g id="ytick_5">
     <g id="line2d_13">
      <g>
       <use style="stroke:#000000;stroke-width:0.8;" x="54" xlink:href="#m0c55534559" y="92.672592"/>
      </g>
     </g>
     <g id="text_13">
      <!-- 8 -->
      <defs>
       <path d="M 31.78125 34.625 
Q 24.75 34.625 20.71875 30.859375 
Q 16.703125 27.09375 16.703125 20.515625 
Q 16.703125 13.921875 20.71875 10.15625 
Q 24.75 6.390625 31.78125 6.390625 
Q 38.8125 6.390625 42.859375 10.171875 
Q 46.921875 13.96875 46.921875 20.515625 
Q 46.921875 27.09375 42.890625 30.859375 
Q 38.875 34.625 31.78125 34.625 
z
M 21.921875 38.8125 
Q 15.578125 40.375 12.03125 44.71875 
Q 8.5 49.078125 8.5 55.328125 
Q 8.5 64.0625 14.71875 69.140625 
Q 20.953125 74.21875 31.78125 74.21875 
Q 42.671875 74.21875 48.875 69.140625 
Q 55.078125 64.0625 55.078125 55.328125 
Q 55.078125 49.078125 51.53125 44.71875 
Q 48 40.375 41.703125 38.8125 
Q 48.828125 37.15625 52.796875 32.3125 
Q 56.78125 27.484375 56.78125 20.515625 
Q 56.78125 9.90625 50.3125 4.234375 
Q 43.84375 -1.421875 31.78125 -1.421875 
Q 19.734375 -1.421875 13.25 4.234375 
Q 6.78125 9.90625 6.78125 20.515625 
Q 6.78125 27.484375 10.78125 32.3125 
Q 14.796875 37.15625 21.921875 38.8125 
z
M 18.3125 54.390625 
Q 18.3125 48.734375 21.84375 45.5625 
Q 25.390625 42.390625 31.78125 42.390625 
Q 38.140625 42.390625 41.71875 45.5625 
Q 45.3125 48.734375 45.3125 54.390625 
Q 45.3125 60.0625 41.71875 63.234375 
Q 38.140625 66.40625 31.78125 66.40625 
Q 25.390625 66.40625 21.84375 63.234375 
Q 18.3125 60.0625 18.3125 54.390625 
z
" id="DejaVuSans-56"/>
      </defs>
      <g transform="translate(40.6375 96.471811)scale(0.1 -0.1)">
       <use xlink:href="#DejaVuSans-56"/>
      </g>
     </g>
    </g>
    <g id="ytick_6">
     <g id="line2d_14">
      <g>
       <use style="stroke:#000000;stroke-width:0.8;" x="54" xlink:href="#m0c55534559" y="53.800456"/>
      </g>
     </g>
     <g id="text_14">
      <!-- 10 -->
      <g transform="translate(34.275 57.599675)scale(0.1 -0.1)">
       <use xlink:href="#DejaVuSans-49"/>
       <use x="63.623047" xlink:href="#DejaVuSans-48"/>
      </g>
     </g>
    </g>
   </g>
   <g id="line2d_15">
    <path clip-path="url(#p6c96911990)" d="M 69.218182 44.443636 
L 70.033296 136.575553 
L 70.84841 194.286657 
L 71.174456 209.796194 
L 71.663524 221.65563 
L 71.98957 224.779407 
L 72.152593 225.916875 
L 72.478639 225.80967 
L 72.804684 226.818855 
L 73.13073 227.688585 
L 73.456776 227.752922 
L 73.619798 228.23547 
L 73.782821 227.80103 
L 73.945844 227.793983 
L 74.108867 228.048936 
L 74.434913 227.536502 
L 74.597935 227.714493 
L 74.760958 227.634979 
L 74.923981 227.98426 
L 75.087004 227.846477 
L 75.250027 228.161996 
L 75.41305 228.135133 
L 75.576072 228.290871 
L 75.902118 228.118977 
L 76.065141 228.184637 
L 76.391187 228.105324 
L 76.717232 228.829351 
L 76.880255 228.90261 
L 77.206301 229.309904 
L 77.369324 229.191561 
L 77.532346 229.350088 
L 77.695369 229.711182 
L 78.021415 229.605048 
L 78.347461 230.08049 
L 78.510484 229.946165 
L 78.836529 230.326862 
L 78.999552 230.873306 
L 79.162575 230.834985 
L 79.651643 231.165919 
L 79.977689 230.941975 
L 80.140712 230.83847 
L 80.792803 231.51273 
L 81.118849 231.238685 
L 81.281872 231.521427 
L 81.444895 231.344706 
L 81.607917 231.395135 
L 81.77094 231.686474 
L 82.096986 231.421084 
L 82.423032 231.225645 
L 82.586054 231.149796 
L 82.749077 231.450954 
L 82.9121 231.422228 
L 83.075123 231.26289 
L 83.401169 230.788208 
L 83.727214 230.895361 
L 83.890237 230.64577 
L 84.379306 230.720401 
L 84.542328 230.379694 
L 84.705351 230.465275 
L 85.031397 230.196718 
L 85.357443 230.484182 
L 85.846511 230.231281 
L 86.009534 230.029288 
L 86.172557 230.018419 
L 86.498603 230.536983 
L 86.824648 230.39282 
L 86.987671 230.177141 
L 87.313717 230.336832 
L 87.47674 230.28379 
L 87.802785 230.550055 
L 88.128831 230.668128 
L 88.617899 230.78978 
L 88.943945 230.953333 
L 89.106968 230.764963 
L 89.269991 230.904509 
L 89.433014 230.768513 
L 89.596036 230.818951 
L 89.922082 231.22235 
L 90.248128 230.957674 
L 90.411151 230.99058 
L 90.574173 230.776295 
L 90.737196 230.878902 
L 90.900219 230.446919 
L 91.715333 230.674341 
L 91.878356 230.67859 
L 92.041379 230.943098 
L 92.204402 230.904977 
L 92.69347 231.09484 
L 92.856493 231.078443 
L 93.019516 230.450922 
L 93.182539 230.561913 
L 93.345562 230.919422 
L 93.508585 230.895862 
L 93.671607 230.680496 
L 93.83463 230.799281 
L 93.997653 230.702053 
L 94.160676 230.867993 
L 94.323699 230.840727 
L 94.486722 230.559816 
L 95.138813 230.894783 
L 95.301836 230.42784 
L 95.627881 230.427049 
L 95.790904 230.288393 
L 95.953927 230.631934 
L 96.11695 230.367333 
L 96.279973 230.795918 
L 96.606018 230.577701 
L 96.769041 230.68056 
L 96.932064 230.97495 
L 97.25811 231.041986 
L 97.747178 231.742839 
L 97.910201 231.696453 
L 98.236247 231.169181 
L 98.39927 231.05262 
L 98.562292 231.469563 
L 98.888338 231.28887 
L 99.051361 231.39708 
L 99.866475 230.842378 
L 100.029498 231.159668 
L 100.192521 230.941411 
L 100.518566 231.09703 
L 100.681589 230.842509 
L 100.844612 230.848105 
L 101.170658 230.193447 
L 101.659726 230.54102 
L 101.822749 230.426752 
L 102.148795 230.963894 
L 102.474841 230.814966 
L 102.637863 231.278103 
L 102.800886 231.235635 
L 102.963909 231.776876 
L 103.616 231.376583 
L 103.942046 231.630683 
L 104.105069 231.472866 
L 104.431115 231.864877 
L 104.594137 232.024203 
L 104.920183 231.721084 
L 105.083206 231.541979 
L 105.409252 230.80197 
L 105.89832 230.54723 
L 106.061343 230.653483 
L 106.387389 230.312261 
L 107.202503 229.995028 
L 107.528548 230.17707 
L 107.854594 230.035582 
L 108.343663 230.412818 
L 108.506685 230.860706 
L 108.669708 230.801447 
L 108.995754 230.950996 
L 109.3218 230.585705 
L 109.484823 230.721228 
L 109.647845 230.58181 
L 110.136914 231.1056 
L 110.299937 230.945103 
L 110.46296 231.104479 
L 110.952028 230.682435 
L 111.441097 231.172965 
L 111.604119 231.063463 
L 111.930165 231.16019 
L 112.256211 231.054799 
L 112.419234 231.300001 
L 112.745279 231.198312 
L 112.908302 231.406727 
L 113.071325 231.311771 
L 113.397371 230.989235 
L 113.560393 230.782446 
L 113.723416 230.981657 
L 113.886439 230.924012 
L 114.049462 230.681387 
L 114.212485 230.930204 
L 114.53853 230.497805 
L 114.701553 230.285926 
L 114.864576 230.311669 
L 115.027599 230.071703 
L 115.190622 230.258341 
L 115.353645 230.122417 
L 115.516667 230.253069 
L 115.67969 229.957245 
L 115.842713 229.928302 
L 116.005736 229.354448 
L 116.168759 229.372515 
L 116.331782 229.24462 
L 116.494804 229.285932 
L 116.82085 229.693194 
L 116.983873 229.471122 
L 117.472942 229.71898 
L 117.635964 230.034906 
L 117.798987 230.038531 
L 118.451079 229.553074 
L 118.614101 229.91439 
L 118.940147 229.617434 
L 119.10317 229.728354 
L 119.266193 230.404504 
L 119.429216 230.506767 
L 119.755261 230.89988 
L 120.081307 230.986378 
L 120.24433 230.845777 
L 120.570375 231.065107 
L 120.896421 230.698929 
L 121.711535 231.269873 
L 121.874558 230.76514 
L 122.037581 230.782189 
L 122.200604 231.172763 
L 122.363627 231.123305 
L 122.526649 230.555389 
L 122.852695 230.280127 
L 123.015718 230.33991 
L 123.178741 230.159521 
L 123.504786 229.494543 
L 123.993855 229.065506 
L 124.156878 228.572944 
L 124.319901 228.537401 
L 124.645946 228.877537 
L 124.971992 229.053093 
L 125.135015 229.134471 
L 125.298038 229.087909 
L 125.624083 228.271259 
L 125.787106 228.755843 
L 126.439198 227.876461 
L 127.091289 228.897599 
L 127.254312 229.043909 
L 127.417335 229.483006 
L 127.580357 229.161012 
L 127.906403 229.001992 
L 128.232449 228.174752 
L 128.395472 228.709217 
L 128.558494 228.774157 
L 128.88454 229.304226 
L 129.047563 229.171925 
L 129.210586 229.610719 
L 129.373609 229.456551 
L 129.699654 229.846221 
L 129.862677 230.044906 
L 130.0257 229.986602 
L 130.188723 229.701428 
L 130.351746 228.846271 
L 130.514768 228.789491 
L 130.840814 228.911979 
L 131.329883 228.568797 
L 131.492905 228.928158 
L 131.655928 228.642729 
L 132.30802 229.086667 
L 133.286157 228.839908 
L 133.612202 229.495192 
L 133.938248 229.906344 
L 134.590339 230.205994 
L 134.753362 230.161831 
L 134.916385 230.287937 
L 135.405454 229.832981 
L 136.057545 229.936293 
L 136.220568 230.108417 
L 136.546613 229.973111 
L 136.709636 229.921605 
L 136.872659 230.237191 
L 137.52475 229.415729 
L 138.176842 229.390371 
L 138.502887 229.62719 
L 138.66591 229.385692 
L 138.828933 229.426151 
L 138.991956 229.221973 
L 139.481024 229.596119 
L 139.644047 229.379138 
L 140.133116 229.600401 
L 140.459162 229.905333 
L 140.622184 229.933324 
L 140.94823 230.385352 
L 141.111253 230.382511 
L 141.274276 230.520253 
L 141.437299 230.187279 
L 141.600321 230.109989 
L 141.926367 230.469746 
L 142.08939 230.351679 
L 142.252413 230.48643 
L 142.415436 230.414183 
L 142.741481 229.528557 
L 142.904504 229.49325 
L 143.067527 229.183487 
L 143.23055 229.217354 
L 143.556595 228.863244 
L 143.719618 228.99959 
L 144.045664 228.887745 
L 144.208687 228.70145 
L 144.37171 228.816721 
L 144.534732 228.684871 
L 144.697755 228.915603 
L 144.860778 228.87236 
L 145.023801 228.567114 
L 145.186824 228.520939 
L 145.512869 228.833285 
L 145.675892 228.623438 
L 146.001938 229.051685 
L 146.164961 229.188863 
L 146.327984 229.526324 
L 146.491006 229.549245 
L 146.817052 229.374607 
L 146.980075 229.615308 
L 147.306121 229.543249 
L 147.632166 229.378444 
L 147.795189 229.409028 
L 148.121235 230.007051 
L 148.447281 230.363715 
L 148.773326 229.989304 
L 148.936349 230.216628 
L 149.099372 230.043505 
L 149.262395 230.173367 
L 149.425418 229.702453 
L 149.751463 229.446118 
L 150.077509 229.973891 
L 150.240532 229.770592 
L 150.403555 229.999184 
L 150.566577 229.724463 
L 150.7296 230.10024 
L 150.892623 229.701907 
L 151.055646 230.050035 
L 151.218669 229.573029 
L 151.544714 229.550825 
L 151.87076 229.685006 
L 152.522851 230.119695 
L 152.848897 230.831732 
L 153.01192 231.179545 
L 153.664011 230.627438 
L 153.827034 230.880881 
L 153.990057 230.61039 
L 154.15308 231.060398 
L 154.316103 230.651416 
L 154.805171 230.984936 
L 155.131217 230.87256 
L 155.29424 230.551422 
L 155.783308 230.591627 
L 155.946331 230.935966 
L 156.272377 230.495551 
L 156.4354 230.645381 
L 156.761445 230.606832 
L 157.250514 230.8906 
L 157.413537 230.705217 
L 157.576559 230.821071 
L 157.739582 231.196936 
L 158.065628 231.154509 
L 159.043765 231.456351 
L 159.206788 231.174743 
L 159.532833 231.588949 
L 159.858879 231.696027 
L 160.021902 231.942333 
L 160.184925 231.747513 
L 160.347948 231.772843 
L 160.51097 231.669132 
L 160.837016 231.853815 
L 161.000039 231.58675 
L 161.163062 231.561968 
L 161.326085 231.330125 
L 161.489107 231.339467 
L 161.815153 231.058547 
L 162.467244 230.932126 
L 162.79329 230.901504 
L 162.956313 230.673651 
L 163.119336 230.688404 
L 163.282359 230.377036 
L 163.608404 230.268517 
L 163.93445 230.677067 
L 164.260496 230.710637 
L 164.423519 230.498563 
L 165.07561 231.207446 
L 165.238633 231.197395 
L 165.401656 231.316116 
L 165.727701 231.695956 
L 165.890724 231.851491 
L 166.053747 231.780743 
L 166.21677 232.116688 
L 166.379793 231.841512 
L 166.542815 232.300174 
L 166.705838 232.413556 
L 167.194907 232.228326 
L 167.520952 232.428793 
L 167.683975 232.769249 
L 168.010021 232.376719 
L 168.173044 232.284584 
L 168.336067 232.384563 
L 169.151181 231.437854 
L 169.314204 231.718947 
L 169.477226 231.375294 
L 169.640249 231.752275 
L 169.966295 231.359163 
L 170.618386 231.655883 
L 170.944432 231.406661 
L 171.433501 232.031408 
L 171.759546 231.96182 
L 171.922569 231.927858 
L 172.248615 232.226705 
L 172.57466 231.615193 
L 172.737683 231.989241 
L 172.900706 231.89516 
L 173.552797 232.02732 
L 173.71582 231.743544 
L 174.041866 231.707507 
L 174.367912 231.728548 
L 174.693957 231.586958 
L 175.020003 231.554816 
L 175.183026 231.807497 
L 175.346049 231.651958 
L 175.509071 231.827949 
L 175.672094 232.33468 
L 176.161163 232.095942 
L 176.324186 231.872663 
L 176.487208 232.137437 
L 176.650231 232.037921 
L 177.1393 232.509744 
L 177.791391 232.544431 
L 178.28046 232.874791 
L 178.443482 232.4969 
L 178.769528 232.682016 
L 178.932551 232.538693 
L 179.095574 232.874826 
L 179.42162 232.757391 
L 179.584642 233.000339 
L 180.399757 232.437179 
L 180.562779 232.609726 
L 180.725802 232.183198 
L 181.051848 232.373723 
L 181.377894 232.08278 
L 181.703939 232.269067 
L 181.866962 232.228358 
L 182.193008 232.388716 
L 182.356031 232.21534 
L 183.008122 232.368447 
L 183.171145 232.529672 
L 183.334168 232.48375 
L 183.660213 232.653329 
L 183.823236 232.745758 
L 183.986259 232.978736 
L 184.312305 232.594469 
L 184.475327 232.776394 
L 184.964396 232.735468 
L 185.127419 232.994015 
L 185.616487 232.632926 
L 185.942533 232.812404 
L 186.105556 232.822953 
L 186.268579 232.950616 
L 186.431601 232.7223 
L 186.594624 232.954238 
L 186.757647 232.937095 
L 186.92067 233.040234 
L 187.083693 232.829575 
L 187.572761 233.114234 
L 187.735784 232.919086 
L 188.224853 233.423835 
L 188.713921 233.295966 
L 188.876944 233.475837 
L 189.366013 233.365828 
L 189.855081 233.133759 
L 190.018104 233.269423 
L 190.34415 233.189526 
L 191.159264 233.254254 
L 191.322287 233.473108 
L 191.648332 233.178111 
L 191.974378 233.345931 
L 192.789492 232.825959 
L 193.604606 233.046868 
L 193.767629 233.357138 
L 194.419721 233.426777 
L 194.582743 233.171128 
L 194.908789 233.246895 
L 195.071812 233.218867 
L 195.723903 233.656818 
L 195.886926 233.986279 
L 196.212972 233.951024 
L 196.865063 233.836605 
L 197.028086 233.549423 
L 197.191109 233.825092 
L 197.354132 233.752041 
L 197.517154 233.455736 
L 198.006223 233.372018 
L 198.332269 233.17468 
L 198.98436 233.216929 
L 199.147383 233.014297 
L 199.310406 233.00549 
L 199.473428 233.158213 
L 199.636451 233.099215 
L 200.12552 233.40256 
L 200.288543 233.146718 
L 201.429702 233.075196 
L 201.592725 233.244994 
L 202.081794 232.884633 
L 202.244817 232.965896 
L 202.570862 233.394028 
L 202.896908 233.378353 
L 203.059931 233.036675 
L 203.222954 233.198676 
L 203.385977 233.156316 
L 203.548999 233.469046 
L 203.712022 233.33613 
L 204.038068 233.679916 
L 204.201091 233.529978 
L 204.527136 233.874572 
L 205.016205 233.525602 
L 205.342251 233.997859 
L 205.668296 233.734134 
L 205.994342 233.763327 
L 206.320388 234.05838 
L 207.298525 234.001486 
L 207.62457 234.620781 
L 207.950616 234.687801 
L 208.276662 234.80699 
L 209.091776 234.360955 
L 209.254799 234.339964 
L 209.580844 234.098655 
L 209.90689 234.197999 
L 210.069913 234.058639 
L 210.232936 234.179265 
L 210.395959 234.081994 
L 210.558981 234.146849 
L 211.04805 233.784778 
L 211.211073 233.967264 
L 212.678278 233.992378 
L 212.841301 234.279618 
L 213.167347 233.90101 
L 213.493392 233.699429 
L 213.656415 233.902316 
L 214.797575 233.79978 
L 215.123621 233.833545 
L 215.286644 233.683073 
L 215.449666 233.711146 
L 215.612689 233.581242 
L 215.775712 233.791893 
L 216.264781 233.376748 
L 216.753849 233.526825 
L 217.079895 233.339429 
L 217.242918 233.293267 
L 217.40594 232.941666 
L 217.568963 232.856665 
L 218.873146 233.798449 
L 219.036169 233.681685 
L 219.362215 234.232529 
L 220.014306 234.379215 
L 220.177329 234.502219 
L 220.503374 234.486271 
L 220.992443 234.642264 
L 221.318489 234.525091 
L 221.481511 234.621045 
L 221.807557 234.517931 
L 221.97058 234.527336 
L 222.133603 234.420908 
L 222.296626 234.574813 
L 222.785694 234.322823 
L 222.948717 234.461828 
L 223.11174 234.166879 
L 223.274763 234.298498 
L 223.600808 234.174432 
L 223.763831 234.327742 
L 224.2529 234.155695 
L 224.415922 234.011942 
L 224.741968 234.117473 
L 224.904991 233.85588 
L 225.231037 234.251357 
L 225.557082 234.201291 
L 225.720105 233.805146 
L 226.046151 234.059447 
L 226.209174 233.983379 
L 226.372197 234.261424 
L 226.535219 234.074254 
L 226.698242 234.113474 
L 226.861265 234.291002 
L 227.024288 234.209939 
L 227.187311 234.413659 
L 227.513356 234.25635 
L 227.676379 234.503739 
L 228.002425 234.170702 
L 228.165448 234.461723 
L 228.328471 234.188366 
L 228.654516 234.229367 
L 228.817539 234.04044 
L 228.980562 234.478113 
L 229.46963 234.413569 
L 229.632653 234.554085 
L 230.121722 234.345407 
L 230.61079 235.167298 
L 231.099859 235.207784 
L 231.425904 234.615657 
L 231.588927 234.769217 
L 231.75195 234.550354 
L 231.914973 234.53271 
L 232.077996 234.751189 
L 232.241019 234.686649 
L 232.404041 234.131012 
L 232.567064 234.216533 
L 232.730087 234.486415 
L 233.382179 234.421143 
L 233.871247 233.852781 
L 234.03427 234.157415 
L 234.197293 233.772835 
L 234.360316 233.886135 
L 234.523338 234.233411 
L 235.501475 234.17521 
L 235.664498 234.636179 
L 235.990544 234.455818 
L 236.153567 234.434389 
L 236.31659 234.853247 
L 236.479612 234.807604 
L 236.642635 235.020305 
L 236.968681 234.961885 
L 237.131704 235.042061 
L 237.294727 234.840289 
L 237.620772 235.185683 
L 237.946818 235.005212 
L 238.272864 235.156234 
L 238.598909 235.22294 
L 239.087978 235.412139 
L 239.577046 235.100408 
L 239.903092 235.212876 
L 240.229138 234.743437 
L 240.555183 234.920161 
L 240.718206 234.855345 
L 240.881229 234.657417 
L 241.207275 235.033521 
L 241.53332 234.983394 
L 241.696343 235.037883 
L 242.022389 234.714321 
L 242.185412 234.623736 
L 242.348435 234.402251 
L 242.511457 234.425126 
L 242.837503 233.732927 
L 243.000526 233.397987 
L 243.163549 233.446246 
L 243.489594 233.948912 
L 243.81564 233.589052 
L 243.978663 233.749873 
L 244.304709 233.521648 
L 244.467731 233.461014 
L 245.119823 232.789558 
L 245.608891 232.936425 
L 245.771914 232.863493 
L 246.09796 233.640066 
L 246.260983 233.537821 
L 246.587028 233.552539 
L 246.750051 233.456903 
L 246.913074 233.099607 
L 247.23912 233.192413 
L 247.565165 233.09795 
L 247.728188 233.007016 
L 247.891211 233.065186 
L 248.217257 233.585289 
L 248.380279 233.748378 
L 248.706325 233.737873 
L 248.869348 234.084133 
L 249.358417 234.173149 
L 249.521439 234.553303 
L 249.847485 234.61041 
L 250.010508 234.629191 
L 250.173531 235.072269 
L 250.499576 234.995264 
L 250.825622 234.988976 
L 251.314691 235.798929 
L 251.477713 235.837811 
L 251.640736 235.548019 
L 251.803759 235.562302 
L 251.966782 235.798986 
L 252.129805 235.515045 
L 252.292828 235.579216 
L 252.618873 235.166443 
L 252.781896 234.890952 
L 253.760033 235.040323 
L 253.923056 235.164815 
L 254.086079 235.100828 
L 254.412124 234.722408 
L 254.73817 234.936655 
L 254.901193 235.272549 
L 255.064216 234.835043 
L 255.553284 234.798381 
L 255.87933 235.478106 
L 256.042353 235.901132 
L 256.368399 235.716222 
L 256.531421 235.771476 
L 256.694444 235.622955 
L 256.857467 235.890029 
L 257.02049 235.824074 
L 257.183513 235.933239 
L 257.509558 236.705893 
L 257.835604 236.279772 
L 257.998627 236.260911 
L 258.16165 236.112891 
L 258.324673 236.433962 
L 258.650718 236.267387 
L 258.813741 236.301664 
L 259.30281 235.374237 
L 259.791878 235.878356 
L 260.117924 235.842242 
L 260.443969 235.654152 
L 260.770015 235.164757 
L 260.933038 235.607145 
L 261.096061 235.519133 
L 261.422106 235.191665 
L 261.911175 235.901864 
L 262.074198 235.840874 
L 262.237221 236.158569 
L 262.726289 236.056967 
L 262.889312 235.583612 
L 263.052335 235.547757 
L 263.215358 235.668748 
L 263.37838 235.648287 
L 263.541403 235.804345 
L 263.704426 235.751986 
L 263.867449 235.831419 
L 264.030472 235.421593 
L 264.356518 235.524574 
L 264.682563 236.006521 
L 264.845586 235.942076 
L 265.008609 236.000586 
L 265.171632 235.845359 
L 265.823723 235.850669 
L 265.986746 235.499182 
L 266.312792 236.027225 
L 266.80186 236.217492 
L 267.290929 237.391776 
L 267.453951 237.475567 
L 267.94302 237.145978 
L 268.269066 237.179789 
L 268.595111 237.050761 
L 268.758134 237.075234 
L 268.921157 236.966819 
L 269.08418 237.036064 
L 269.410225 237.438057 
L 269.573248 237.13499 
L 269.736271 237.127637 
L 270.062317 236.986852 
L 270.22534 236.938106 
L 270.551385 236.571463 
L 271.040454 236.238937 
L 271.203477 236.309704 
L 271.366499 236.144336 
L 271.529522 236.138226 
L 272.018591 236.7397 
L 272.181614 236.801601 
L 272.344637 237.041085 
L 272.670682 237.026207 
L 272.833705 237.266276 
L 272.996728 237.232247 
L 273.159751 237.39699 
L 273.322774 237.326134 
L 273.485796 237.078549 
L 273.974865 237.438052 
L 274.300911 237.922126 
L 274.789979 238.295655 
L 274.953002 238.254144 
L 275.116025 237.957095 
L 275.279048 237.923772 
L 275.44207 238.159602 
L 275.768116 237.925167 
L 276.094162 237.680455 
L 276.909276 238.33752 
L 277.235322 238.003031 
L 277.398344 238.130297 
L 277.72439 237.704545 
L 277.887413 237.413421 
L 278.213459 237.395459 
L 278.376481 237.719009 
L 278.539504 237.699577 
L 278.702527 237.519952 
L 279.191596 237.664154 
L 279.680664 237.136255 
L 280.00671 237.329712 
L 280.332756 237.09019 
L 280.495778 237.25915 
L 280.658801 237.181512 
L 280.984847 237.645185 
L 281.14787 237.67738 
L 281.473915 237.384307 
L 281.799961 236.973274 
L 281.962984 237.025186 
L 282.126007 237.247039 
L 282.28903 237.085367 
L 282.452052 237.090064 
L 282.615075 237.284527 
L 282.778098 237.127372 
L 283.267167 237.405669 
L 283.430189 237.367372 
L 283.593212 237.661194 
L 283.756235 237.439791 
L 283.919258 237.518979 
L 284.082281 237.175463 
L 284.408326 237.057021 
L 284.571349 237.312942 
L 284.734372 237.35185 
L 284.897395 237.229801 
L 285.060418 237.50921 
L 285.549486 236.987271 
L 286.038555 237.646319 
L 286.201578 237.473751 
L 286.690646 237.676882 
L 287.179715 237.107931 
L 287.831806 237.105998 
L 288.157852 237.336713 
L 288.320875 236.932879 
L 288.483897 236.932579 
L 288.972966 237.365119 
L 289.299012 237.306964 
L 289.462034 237.493854 
L 289.78808 236.662952 
L 290.114126 236.503711 
L 290.440171 236.764545 
L 290.603194 236.855428 
L 290.766217 236.736456 
L 290.92924 236.984892 
L 291.092263 236.935441 
L 291.418308 236.513356 
L 291.581331 236.957837 
L 291.907377 237.059993 
L 292.0704 236.916645 
L 292.233423 237.005102 
L 292.396445 237.278182 
L 292.722491 237.248586 
L 293.048537 237.546549 
L 293.21156 237.590325 
L 293.374582 237.802767 
L 293.863651 237.69148 
L 294.189697 237.887288 
L 294.352719 237.656933 
L 294.678765 238.173452 
L 295.004811 238.22815 
L 295.330857 238.52861 
L 295.982948 237.16131 
L 296.308994 237.206249 
L 296.635039 236.78899 
L 296.961085 236.643432 
L 297.450153 236.794051 
L 297.613176 236.675484 
L 297.776199 236.322526 
L 297.939222 236.481489 
L 298.102245 236.225156 
L 298.265268 236.175881 
L 298.42829 235.826319 
L 298.754336 235.91961 
L 298.917359 236.099588 
L 299.56945 236.136644 
L 300.221542 236.898737 
L 300.71061 236.494417 
L 300.873633 236.730653 
L 301.036656 236.7626 
L 301.199679 236.541171 
L 301.362701 236.68532 
L 301.525724 236.656045 
L 301.688747 237.016525 
L 301.85177 236.862409 
L 302.014793 236.953224 
L 302.503861 236.666246 
L 302.829907 236.726398 
L 303.155953 236.73126 
L 303.481998 236.333689 
L 303.645021 236.499685 
L 303.808044 236.473128 
L 304.297113 237.203455 
L 304.460135 237.244466 
L 304.623158 237.453789 
L 304.786181 237.471339 
L 304.949204 237.361558 
L 305.112227 237.104153 
L 305.27525 237.120046 
L 306.090364 238.331115 
L 306.253387 238.097421 
L 306.742455 238.809556 
L 306.905478 238.744091 
L 307.068501 238.83543 
L 307.557569 238.003316 
L 307.720592 238.021356 
L 307.883615 237.927085 
L 308.698729 238.327325 
L 308.861752 237.967453 
L 309.024775 238.078932 
L 309.187798 237.833264 
L 309.513843 238.26322 
L 309.676866 237.743308 
L 310.002912 237.851853 
L 310.328957 237.308285 
L 310.655003 237.424947 
L 310.818026 237.638364 
L 310.981049 237.613346 
L 311.144072 237.358488 
L 311.63314 237.345882 
L 312.611277 237.228802 
L 312.7743 236.836065 
L 312.937323 237.185462 
L 313.100346 237.176221 
L 313.263369 237.018034 
L 313.752437 237.861781 
L 313.91546 237.894455 
L 314.241506 237.595522 
L 314.567551 237.938038 
L 314.893597 238.113892 
L 315.05662 237.945002 
L 315.871734 238.022142 
L 316.034757 238.451344 
L 316.360802 238.559751 
L 316.849871 238.719886 
L 317.175917 238.647327 
L 317.338939 238.770999 
L 317.501962 239.068494 
L 317.828008 239.06797 
L 318.154054 238.707938 
L 318.317076 238.855527 
L 318.480099 238.549358 
L 318.643122 238.739271 
L 318.969168 238.810915 
L 319.295214 238.432292 
L 319.458236 238.355079 
L 319.621259 238.434117 
L 319.947305 238.210761 
L 320.436373 238.050812 
L 320.599396 238.272304 
L 320.925442 238.270871 
L 321.088465 237.958208 
L 321.251488 238.225018 
L 321.41451 238.049304 
L 321.577533 238.116213 
L 321.740556 238.392537 
L 321.903579 238.359388 
L 322.066602 238.580833 
L 322.229625 238.333488 
L 322.392647 238.462004 
L 322.881716 238.249971 
L 323.207762 238.539787 
L 323.370784 238.589166 
L 323.533807 238.499693 
L 323.69683 238.636966 
L 324.022876 238.579992 
L 324.83799 239.199242 
L 325.001013 239.023969 
L 325.327058 239.158038 
L 325.490081 239.379449 
L 325.653104 239.407856 
L 325.816127 239.587557 
L 325.97915 239.541086 
L 326.305196 239.730508 
L 326.794264 239.801642 
L 327.12031 239.501039 
L 327.283333 239.546328 
L 327.446355 239.425803 
L 328.424492 239.983969 
L 328.587515 239.808532 
L 329.076584 240.22679 
L 329.891698 239.999389 
L 330.380766 240.638228 
L 330.706812 240.654113 
L 330.869835 240.714737 
L 331.684949 240.196926 
L 331.847972 240.291522 
L 332.010995 239.961867 
L 332.174018 240.014825 
L 332.33704 239.737175 
L 332.663086 240.095399 
L 332.989132 239.844931 
L 333.152155 239.961825 
L 333.641223 239.735646 
L 334.130292 239.896086 
L 334.61936 240.51489 
L 334.945406 240.615232 
L 335.108429 240.611326 
L 335.271452 240.859769 
L 335.597497 240.892105 
L 335.76052 240.852961 
L 335.923543 240.623511 
L 336.249589 240.950628 
L 336.575634 241.013758 
L 336.90168 241.134878 
L 337.390748 240.75927 
L 337.716794 240.566949 
L 338.205863 240.199681 
L 338.694931 240.020258 
L 338.857954 240.199513 
L 339.020977 240.177649 
L 339.347022 240.460204 
L 339.510045 240.470631 
L 339.836091 240.305925 
L 340.162137 240.520811 
L 340.651205 241.038828 
L 340.977251 241.167101 
L 341.303296 240.800022 
L 341.792365 241.080915 
L 342.444456 241.145782 
L 342.607479 240.790163 
L 342.770502 240.825262 
L 343.096548 241.045145 
L 343.259571 241.144194 
L 343.585616 240.960976 
L 343.911662 240.535207 
L 344.074685 240.688246 
L 344.237708 240.646158 
L 344.563753 241.153113 
L 344.726776 241.329446 
L 344.889799 240.747996 
L 345.215845 240.71809 
L 345.378867 240.86998 
L 345.704913 240.814735 
L 346.030959 241.269461 
L 346.357004 241.419335 
L 346.68305 241.387435 
L 346.846073 241.438077 
L 347.172119 241.783517 
L 347.335141 241.550253 
L 347.987233 241.493799 
L 348.150256 242.116364 
L 348.313278 242.025999 
L 348.476301 242.067467 
L 348.639324 241.935816 
L 348.802347 241.989412 
L 349.128393 241.885599 
L 349.291415 241.854865 
L 349.943507 241.304771 
L 350.269553 241.41908 
L 350.595598 241.275212 
L 351.084667 241.320546 
L 351.24769 241.092097 
L 351.573735 241.297809 
L 351.736758 241.118045 
L 351.899781 241.118081 
L 352.062804 240.92583 
L 352.225827 240.937197 
L 352.551872 240.673478 
L 353.856055 240.65331 
L 354.019078 240.779824 
L 354.345123 240.758263 
L 354.508146 240.882867 
L 354.834192 240.728808 
L 355.160238 240.988591 
L 355.32326 240.902487 
L 355.649306 241.009437 
L 355.812329 240.952279 
L 355.975352 241.046967 
L 356.301397 241.404406 
L 356.627443 241.27873 
L 356.790466 241.029688 
L 356.953489 241.153037 
L 357.279534 240.863003 
L 357.442557 240.963049 
L 357.931626 240.231142 
L 358.094649 240.163673 
L 358.420694 239.876554 
L 358.583717 240.117022 
L 358.74674 239.871991 
L 358.909763 239.972472 
L 359.398831 239.557009 
L 359.8879 239.64239 
L 360.050923 239.987999 
L 360.213946 239.871987 
L 360.376968 240.140284 
L 360.703014 240.009937 
L 361.355105 240.679897 
L 361.681151 240.903069 
L 361.844174 240.871788 
L 362.333242 241.528849 
L 362.659288 241.747895 
L 362.822311 241.54806 
L 363.148357 241.630417 
L 363.637425 241.173185 
L 363.963471 241.011199 
L 364.452539 241.262381 
L 364.615562 241.195685 
L 364.778585 241.280425 
L 365.919745 240.737886 
L 366.082768 241.027003 
L 366.408813 241.12274 
L 366.571836 240.967177 
L 366.734859 241.04407 
L 367.223928 241.508068 
L 367.38695 241.432695 
L 367.549973 241.02222 
L 367.712996 241.007254 
L 368.365087 240.306147 
L 368.52811 240.434836 
L 368.691133 240.11115 
L 368.854156 240.181046 
L 369.343224 239.917795 
L 369.506247 239.945712 
L 369.66927 239.549222 
L 369.995316 239.794904 
L 370.647407 239.507779 
L 370.81043 239.802435 
L 370.973453 239.789675 
L 371.299498 240.232951 
L 371.462521 240.168675 
L 372.440658 240.807592 
L 372.603681 240.733791 
L 372.766704 240.527815 
L 373.09275 240.894173 
L 373.255773 240.77211 
L 373.418795 240.964849 
L 373.581818 240.79019 
L 373.581818 240.79019 
" style="fill:none;stroke:#1f77b4;stroke-linecap:square;stroke-width:1.5;"/>
   </g>
   <g id="patch_3">
    <path d="M 54 252 
L 54 34.56 
" style="fill:none;stroke:#000000;stroke-linecap:square;stroke-linejoin:miter;stroke-width:0.8;"/>
   </g>
   <g id="patch_4">
    <path d="M 388.8 252 
L 388.8 34.56 
" style="fill:none;stroke:#000000;stroke-linecap:square;stroke-linejoin:miter;stroke-width:0.8;"/>
   </g>
   <g id="patch_5">
    <path d="M 54 252 
L 388.8 252 
" style="fill:none;stroke:#000000;stroke-linecap:square;stroke-linejoin:miter;stroke-width:0.8;"/>
   </g>
   <g id="patch_6">
    <path d="M 54 34.56 
L 388.8 34.56 
" style="fill:none;stroke:#000000;stroke-linecap:square;stroke-linejoin:miter;stroke-width:0.8;"/>
   </g>
  </g>
 </g>
 <defs>
  <clipPath id="p6c96911990">
   <rect height="217.44" width="334.8" x="54" y="34.56"/>
  </clipPath>
 </defs>
</svg>
