<?xml version="1.0" encoding="utf-8" standalone="no"?>
<!DOCTYPE svg PUBLIC "-//W3C//DTD SVG 1.1//EN"
  "http://www.w3.org/Graphics/SVG/1.1/DTD/svg11.dtd">
<!-- Created with matplotlib (https://matplotlib.org/) -->
<svg height="288pt" version="1.1" viewBox="0 0 432 288" width="432pt" xmlns="http://www.w3.org/2000/svg" xmlns:xlink="http://www.w3.org/1999/xlink">
 <defs>
  <style type="text/css">
*{stroke-linecap:butt;stroke-linejoin:round;}
  </style>
 </defs>
 <g id="figure_1">
  <g id="patch_1">
   <path d="M 0 288 
L 432 288 
L 432 0 
L 0 0 
z
" style="fill:#ffffff;"/>
  </g>
  <g id="axes_1">
   <g id="patch_2">
    <path d="M 54 252 
L 388.8 252 
L 388.8 34.56 
L 54 34.56 
z
" style="fill:#ffffff;"/>
   </g>
   <g id="matplotlib.axis_1">
    <g id="xtick_1">
     <g id="line2d_1">
      <defs>
       <path d="M 0 0 
L 0 3.5 
" id="m50e6ac5092" style="stroke:#000000;stroke-width:0.8;"/>
      </defs>
      <g>
       <use style="stroke:#000000;stroke-width:0.8;" x="69.218182" xlink:href="#m50e6ac5092" y="252"/>
      </g>
     </g>
     <g id="text_1">
      <!-- 0 -->
      <defs>
       <path d="M 31.78125 66.40625 
Q 24.171875 66.40625 20.328125 58.90625 
Q 16.5 51.421875 16.5 36.375 
Q 16.5 21.390625 20.328125 13.890625 
Q 24.171875 6.390625 31.78125 6.390625 
Q 39.453125 6.390625 43.28125 13.890625 
Q 47.125 21.390625 47.125 36.375 
Q 47.125 51.421875 43.28125 58.90625 
Q 39.453125 66.40625 31.78125 66.40625 
z
M 31.78125 74.21875 
Q 44.046875 74.21875 50.515625 64.515625 
Q 56.984375 54.828125 56.984375 36.375 
Q 56.984375 17.96875 50.515625 8.265625 
Q 44.046875 -1.421875 31.78125 -1.421875 
Q 19.53125 -1.421875 13.0625 8.265625 
Q 6.59375 17.96875 6.59375 36.375 
Q 6.59375 54.828125 13.0625 64.515625 
Q 19.53125 74.21875 31.78125 74.21875 
z
" id="DejaVuSans-48"/>
      </defs>
      <g transform="translate(66.036932 266.598437)scale(0.1 -0.1)">
       <use xlink:href="#DejaVuSans-48"/>
      </g>
     </g>
    </g>
    <g id="xtick_2">
     <g id="line2d_2">
      <g>
       <use style="stroke:#000000;stroke-width:0.8;" x="109.563309" xlink:href="#m50e6ac5092" y="252"/>
      </g>
     </g>
     <g id="text_2">
      <!-- 250 -->
      <defs>
       <path d="M 19.1875 8.296875 
L 53.609375 8.296875 
L 53.609375 0 
L 7.328125 0 
L 7.328125 8.296875 
Q 12.9375 14.109375 22.625 23.890625 
Q 32.328125 33.6875 34.8125 36.53125 
Q 39.546875 41.84375 41.421875 45.53125 
Q 43.3125 49.21875 43.3125 52.78125 
Q 43.3125 58.59375 39.234375 62.25 
Q 35.15625 65.921875 28.609375 65.921875 
Q 23.96875 65.921875 18.8125 64.3125 
Q 13.671875 62.703125 7.8125 59.421875 
L 7.8125 69.390625 
Q 13.765625 71.78125 18.9375 73 
Q 24.125 74.21875 28.421875 74.21875 
Q 39.75 74.21875 46.484375 68.546875 
Q 53.21875 62.890625 53.21875 53.421875 
Q 53.21875 48.921875 51.53125 44.890625 
Q 49.859375 40.875 45.40625 35.40625 
Q 44.1875 33.984375 37.640625 27.21875 
Q 31.109375 20.453125 19.1875 8.296875 
z
" id="DejaVuSans-50"/>
       <path d="M 10.796875 72.90625 
L 49.515625 72.90625 
L 49.515625 64.59375 
L 19.828125 64.59375 
L 19.828125 46.734375 
Q 21.96875 47.46875 24.109375 47.828125 
Q 26.265625 48.1875 28.421875 48.1875 
Q 40.625 48.1875 47.75 41.5 
Q 54.890625 34.8125 54.890625 23.390625 
Q 54.890625 11.625 47.5625 5.09375 
Q 40.234375 -1.421875 26.90625 -1.421875 
Q 22.3125 -1.421875 17.546875 -0.640625 
Q 12.796875 0.140625 7.71875 1.703125 
L 7.71875 11.625 
Q 12.109375 9.234375 16.796875 8.0625 
Q 21.484375 6.890625 26.703125 6.890625 
Q 35.15625 6.890625 40.078125 11.328125 
Q 45.015625 15.765625 45.015625 23.390625 
Q 45.015625 31 40.078125 35.4375 
Q 35.15625 39.890625 26.703125 39.890625 
Q 22.75 39.890625 18.8125 39.015625 
Q 14.890625 38.140625 10.796875 36.28125 
z
" id="DejaVuSans-53"/>
      </defs>
      <g transform="translate(100.019559 266.598437)scale(0.1 -0.1)">
       <use xlink:href="#DejaVuSans-50"/>
       <use x="63.623047" xlink:href="#DejaVuSans-53"/>
       <use x="127.246094" xlink:href="#DejaVuSans-48"/>
      </g>
     </g>
    </g>
    <g id="xtick_3">
     <g id="line2d_3">
      <g>
       <use style="stroke:#000000;stroke-width:0.8;" x="149.908435" xlink:href="#m50e6ac5092" y="252"/>
      </g>
     </g>
     <g id="text_3">
      <!-- 500 -->
      <g transform="translate(140.364685 266.598437)scale(0.1 -0.1)">
       <use xlink:href="#DejaVuSans-53"/>
       <use x="63.623047" xlink:href="#DejaVuSans-48"/>
       <use x="127.246094" xlink:href="#DejaVuSans-48"/>
      </g>
     </g>
    </g>
    <g id="xtick_4">
     <g id="line2d_4">
      <g>
       <use style="stroke:#000000;stroke-width:0.8;" x="190.253562" xlink:href="#m50e6ac5092" y="252"/>
      </g>
     </g>
     <g id="text_4">
      <!-- 750 -->
      <defs>
       <path d="M 8.203125 72.90625 
L 55.078125 72.90625 
L 55.078125 68.703125 
L 28.609375 0 
L 18.3125 0 
L 43.21875 64.59375 
L 8.203125 64.59375 
z
" id="DejaVuSans-55"/>
      </defs>
      <g transform="translate(180.709812 266.598437)scale(0.1 -0.1)">
       <use xlink:href="#DejaVuSans-55"/>
       <use x="63.623047" xlink:href="#DejaVuSans-53"/>
       <use x="127.246094" xlink:href="#DejaVuSans-48"/>
      </g>
     </g>
    </g>
    <g id="xtick_5">
     <g id="line2d_5">
      <g>
       <use style="stroke:#000000;stroke-width:0.8;" x="230.598689" xlink:href="#m50e6ac5092" y="252"/>
      </g>
     </g>
     <g id="text_5">
      <!-- 1000 -->
      <defs>
       <path d="M 12.40625 8.296875 
L 28.515625 8.296875 
L 28.515625 63.921875 
L 10.984375 60.40625 
L 10.984375 69.390625 
L 28.421875 72.90625 
L 38.28125 72.90625 
L 38.28125 8.296875 
L 54.390625 8.296875 
L 54.390625 0 
L 12.40625 0 
z
" id="DejaVuSans-49"/>
      </defs>
      <g transform="translate(217.873689 266.598437)scale(0.1 -0.1)">
       <use xlink:href="#DejaVuSans-49"/>
       <use x="63.623047" xlink:href="#DejaVuSans-48"/>
       <use x="127.246094" xlink:href="#DejaVuSans-48"/>
       <use x="190.869141" xlink:href="#DejaVuSans-48"/>
      </g>
     </g>
    </g>
    <g id="xtick_6">
     <g id="line2d_6">
      <g>
       <use style="stroke:#000000;stroke-width:0.8;" x="270.943816" xlink:href="#m50e6ac5092" y="252"/>
      </g>
     </g>
     <g id="text_6">
      <!-- 1250 -->
      <g transform="translate(258.218816 266.598437)scale(0.1 -0.1)">
       <use xlink:href="#DejaVuSans-49"/>
       <use x="63.623047" xlink:href="#DejaVuSans-50"/>
       <use x="127.246094" xlink:href="#DejaVuSans-53"/>
       <use x="190.869141" xlink:href="#DejaVuSans-48"/>
      </g>
     </g>
    </g>
    <g id="xtick_7">
     <g id="line2d_7">
      <g>
       <use style="stroke:#000000;stroke-width:0.8;" x="311.288942" xlink:href="#m50e6ac5092" y="252"/>
      </g>
     </g>
     <g id="text_7">
      <!-- 1500 -->
      <g transform="translate(298.563942 266.598437)scale(0.1 -0.1)">
       <use xlink:href="#DejaVuSans-49"/>
       <use x="63.623047" xlink:href="#DejaVuSans-53"/>
       <use x="127.246094" xlink:href="#DejaVuSans-48"/>
       <use x="190.869141" xlink:href="#DejaVuSans-48"/>
      </g>
     </g>
    </g>
    <g id="xtick_8">
     <g id="line2d_8">
      <g>
       <use style="stroke:#000000;stroke-width:0.8;" x="351.634069" xlink:href="#m50e6ac5092" y="252"/>
      </g>
     </g>
     <g id="text_8">
      <!-- 1750 -->
      <g transform="translate(338.909069 266.598437)scale(0.1 -0.1)">
       <use xlink:href="#DejaVuSans-49"/>
       <use x="63.623047" xlink:href="#DejaVuSans-55"/>
       <use x="127.246094" xlink:href="#DejaVuSans-53"/>
       <use x="190.869141" xlink:href="#DejaVuSans-48"/>
      </g>
     </g>
    </g>
   </g>
   <g id="matplotlib.axis_2">
    <g id="ytick_1">
     <g id="line2d_9">
      <defs>
       <path d="M 0 0 
L -3.5 0 
" id="m2ff846475d" style="stroke:#000000;stroke-width:0.8;"/>
      </defs>
      <g>
       <use style="stroke:#000000;stroke-width:0.8;" x="54" xlink:href="#m2ff846475d" y="243.754862"/>
      </g>
     </g>
     <g id="text_9">
      <!-- 0 -->
      <g transform="translate(40.6375 247.554081)scale(0.1 -0.1)">
       <use xlink:href="#DejaVuSans-48"/>
      </g>
     </g>
    </g>
    <g id="ytick_2">
     <g id="line2d_10">
      <g>
       <use style="stroke:#000000;stroke-width:0.8;" x="54" xlink:href="#m2ff846475d" y="198.315684"/>
      </g>
     </g>
     <g id="text_10">
      <!-- 5 -->
      <g transform="translate(40.6375 202.114902)scale(0.1 -0.1)">
       <use xlink:href="#DejaVuSans-53"/>
      </g>
     </g>
    </g>
    <g id="ytick_3">
     <g id="line2d_11">
      <g>
       <use style="stroke:#000000;stroke-width:0.8;" x="54" xlink:href="#m2ff846475d" y="152.876505"/>
      </g>
     </g>
     <g id="text_11">
      <!-- 10 -->
      <g transform="translate(34.275 156.675724)scale(0.1 -0.1)">
       <use xlink:href="#DejaVuSans-49"/>
       <use x="63.623047" xlink:href="#DejaVuSans-48"/>
      </g>
     </g>
    </g>
    <g id="ytick_4">
     <g id="line2d_12">
      <g>
       <use style="stroke:#000000;stroke-width:0.8;" x="54" xlink:href="#m2ff846475d" y="107.437326"/>
      </g>
     </g>
     <g id="text_12">
      <!-- 15 -->
      <g transform="translate(34.275 111.236545)scale(0.1 -0.1)">
       <use xlink:href="#DejaVuSans-49"/>
       <use x="63.623047" xlink:href="#DejaVuSans-53"/>
      </g>
     </g>
    </g>
    <g id="ytick_5">
     <g id="line2d_13">
      <g>
       <use style="stroke:#000000;stroke-width:0.8;" x="54" xlink:href="#m2ff846475d" y="61.998147"/>
      </g>
     </g>
     <g id="text_13">
      <!-- 20 -->
      <g transform="translate(34.275 65.797366)scale(0.1 -0.1)">
       <use xlink:href="#DejaVuSans-50"/>
       <use x="63.623047" xlink:href="#DejaVuSans-48"/>
      </g>
     </g>
    </g>
   </g>
   <g id="line2d_14">
    <path clip-path="url(#p226c775489)" d="M 69.218182 44.443636 
L 69.379562 50.894908 
L 69.540943 49.225572 
L 70.186465 114.777902 
L 70.670606 146.170315 
L 70.831987 149.413094 
L 71.154748 189.427525 
L 71.80027 222.712071 
L 71.96165 223.881361 
L 72.123031 232.254575 
L 72.284411 233.493793 
L 72.445792 230.470558 
L 72.607172 232.137398 
L 72.768553 230.483702 
L 72.929933 230.561068 
L 73.091314 233.334055 
L 73.252694 233.840817 
L 73.414075 231.024424 
L 73.575456 235.056355 
L 73.736836 234.584235 
L 73.898217 233.480068 
L 74.059597 235.591452 
L 74.220978 235.843012 
L 74.382358 235.332806 
L 74.543739 235.766556 
L 74.705119 230.326127 
L 74.8665 235.608347 
L 75.02788 233.371917 
L 75.189261 234.518412 
L 75.350641 231.991471 
L 75.512022 232.754369 
L 75.673402 236.319519 
L 75.834783 235.72585 
L 75.996163 234.146074 
L 76.157544 235.031989 
L 76.318924 233.329748 
L 76.641685 235.536982 
L 76.803066 230.993678 
L 77.125827 235.864262 
L 77.287207 232.973517 
L 77.448588 233.668919 
L 77.609968 236.997288 
L 77.932729 233.592433 
L 78.09411 234.319868 
L 78.25549 236.322495 
L 78.578251 233.447853 
L 78.739632 231.605154 
L 78.901012 235.861264 
L 79.062393 236.339871 
L 79.223773 233.262974 
L 79.546534 237.539218 
L 79.869295 236.222064 
L 80.030676 233.89279 
L 80.192056 235.428038 
L 80.514817 234.455985 
L 80.676198 237.045691 
L 80.998959 234.835957 
L 81.160339 237.052348 
L 81.32172 235.30606 
L 81.4831 235.066351 
L 81.644481 235.730703 
L 81.805861 235.544449 
L 81.967242 236.715238 
L 82.128622 235.502896 
L 82.290003 237.657202 
L 82.451383 234.501058 
L 82.612764 235.712722 
L 82.774144 235.759134 
L 82.935525 236.693921 
L 83.096905 235.254138 
L 83.258286 235.18842 
L 83.581047 237.213193 
L 83.903808 235.299547 
L 84.065188 235.375209 
L 84.226569 237.480021 
L 84.387949 235.399742 
L 84.54933 235.777646 
L 84.71071 237.790818 
L 85.033472 233.838549 
L 85.194852 235.290988 
L 85.356233 235.099498 
L 85.517613 236.947899 
L 85.678994 237.317341 
L 86.001755 234.269074 
L 86.163135 233.392683 
L 86.324516 234.116383 
L 86.485896 235.981266 
L 86.647277 236.4866 
L 86.808657 234.879145 
L 86.970038 236.338412 
L 87.131418 236.242702 
L 87.454179 234.293893 
L 87.61556 236.200051 
L 87.77694 234.778725 
L 87.938321 236.278321 
L 88.099701 236.202089 
L 88.422462 234.666384 
L 88.583843 234.28415 
L 88.745223 236.02284 
L 88.906604 235.428402 
L 89.067984 235.342456 
L 89.229365 236.454961 
L 89.390745 236.056155 
L 89.552126 233.510016 
L 89.713506 235.239489 
L 89.874887 234.469675 
L 90.036267 236.173507 
L 90.197648 236.537401 
L 90.359028 235.746681 
L 90.520409 236.546894 
L 90.681789 235.189256 
L 90.84317 236.235104 
L 91.00455 235.84784 
L 91.165931 236.39775 
L 91.327311 235.935107 
L 91.488692 236.564666 
L 91.811453 234.957806 
L 91.972833 234.261297 
L 92.134214 236.733365 
L 92.295594 234.070685 
L 92.456975 236.926633 
L 92.618355 237.756665 
L 92.941116 233.739914 
L 93.102497 233.494131 
L 93.263877 236.481226 
L 93.425258 234.533509 
L 93.586638 236.706216 
L 93.748019 232.507197 
L 94.07078 237.494089 
L 94.393541 236.196336 
L 94.554921 235.723969 
L 94.877682 237.99575 
L 95.039063 234.601315 
L 95.200443 235.235184 
L 95.361824 236.75259 
L 95.523204 234.853075 
L 95.684585 236.773304 
L 95.845965 231.888386 
L 96.007346 236.619829 
L 96.168727 237.083174 
L 96.330107 233.273806 
L 96.652868 235.644329 
L 96.814249 235.796982 
L 96.975629 234.058991 
L 97.13701 235.539359 
L 97.29839 234.867145 
L 97.459771 237.387049 
L 97.621151 236.737443 
L 97.782532 237.015973 
L 97.943912 237.039759 
L 98.105293 233.629132 
L 98.266673 235.052211 
L 98.428054 234.776892 
L 98.589434 235.455937 
L 98.750815 238.065708 
L 98.912195 234.298885 
L 99.073576 235.896308 
L 99.234956 235.546817 
L 99.396337 236.115521 
L 99.557717 234.235699 
L 99.719098 237.220219 
L 100.041859 235.855244 
L 100.203239 236.696998 
L 100.36462 236.727182 
L 100.526 237.595352 
L 100.687381 236.953272 
L 100.848761 233.721833 
L 101.332903 237.528177 
L 101.494283 233.540237 
L 101.655664 234.599114 
L 101.817044 236.467859 
L 101.978425 236.837291 
L 102.139805 232.046635 
L 102.301186 236.120085 
L 102.462566 232.723607 
L 102.623947 237.008322 
L 102.785327 237.202841 
L 102.946708 235.179181 
L 103.108088 237.054409 
L 103.269469 236.469067 
L 103.430849 234.316839 
L 103.59223 236.779511 
L 103.75361 234.07867 
L 104.076371 234.59981 
L 104.399132 237.116095 
L 104.721893 235.794785 
L 104.883274 237.367656 
L 105.044654 235.438907 
L 105.206035 236.473535 
L 105.367415 236.377673 
L 105.528796 235.722948 
L 105.690176 237.785029 
L 106.012937 235.572512 
L 106.335698 235.497503 
L 106.497079 237.713794 
L 106.658459 235.448329 
L 106.81984 235.303686 
L 106.98122 236.771166 
L 107.142601 235.321314 
L 107.303981 236.08975 
L 107.465362 233.966564 
L 107.626743 236.621694 
L 107.788123 234.784695 
L 107.949504 230.599532 
L 108.110884 235.642706 
L 108.272265 234.5662 
L 108.433645 235.07109 
L 108.756406 236.716578 
L 109.079167 234.842917 
L 109.240548 234.874556 
L 109.401928 234.17116 
L 109.563309 235.267495 
L 109.724689 237.719931 
L 109.88607 234.728428 
L 110.208831 237.180954 
L 110.370211 234.387275 
L 110.531592 235.700658 
L 110.692972 234.984575 
L 111.015733 237.431077 
L 111.177114 234.787968 
L 111.661255 235.719367 
L 111.822636 234.473973 
L 111.984016 235.097195 
L 112.145397 237.153858 
L 112.306777 233.539151 
L 112.468158 236.961997 
L 112.629538 236.71169 
L 112.790919 235.537755 
L 112.952299 236.219046 
L 113.11368 236.218834 
L 113.27506 235.550108 
L 113.436441 236.311599 
L 113.597821 232.356038 
L 113.759202 237.19042 
L 113.920582 236.913188 
L 114.081963 237.653853 
L 114.404724 235.758656 
L 114.727485 234.750184 
L 114.888865 235.300054 
L 115.050246 236.766981 
L 115.211626 234.921946 
L 115.373007 236.378154 
L 115.534387 235.488149 
L 115.695768 236.074019 
L 115.857148 234.30396 
L 116.018529 234.929284 
L 116.179909 234.285251 
L 116.34129 238.081765 
L 116.664051 234.042687 
L 116.825431 234.682852 
L 116.986812 234.409045 
L 117.148192 235.650972 
L 117.309573 235.672466 
L 117.470953 236.647802 
L 117.632334 233.51461 
L 117.793714 236.767758 
L 117.955095 233.479085 
L 118.116475 236.52185 
L 118.277856 234.000578 
L 118.439236 234.651286 
L 118.600617 231.011744 
L 118.761997 235.657103 
L 118.923378 234.878005 
L 119.084759 234.690292 
L 119.246139 236.447831 
L 119.40752 236.575228 
L 119.730281 235.788073 
L 119.891661 233.894549 
L 120.214422 237.363425 
L 120.537183 234.651124 
L 120.698564 235.266154 
L 120.859944 232.657398 
L 121.182705 236.857939 
L 121.505466 233.176183 
L 121.828227 237.334767 
L 121.989608 236.613418 
L 122.150988 237.401335 
L 122.312369 235.843161 
L 122.63513 237.102828 
L 122.79651 234.690216 
L 122.957891 236.769284 
L 123.119271 234.964412 
L 123.280652 234.474913 
L 123.603413 236.92297 
L 123.764793 235.506551 
L 123.926174 235.977526 
L 124.087554 235.846416 
L 124.248935 234.833485 
L 124.410315 232.137921 
L 124.733076 236.828643 
L 124.894457 235.226051 
L 125.055837 232.023893 
L 125.217218 235.325105 
L 125.539979 236.402225 
L 126.02412 232.514444 
L 126.185501 235.739864 
L 126.346881 233.50874 
L 126.508262 232.947858 
L 126.669642 231.229793 
L 126.831023 236.590588 
L 127.153784 237.465058 
L 127.315164 236.191556 
L 127.476545 236.130061 
L 127.637925 232.898922 
L 127.799306 234.293257 
L 127.960686 231.529137 
L 128.122067 232.888641 
L 128.283447 236.555487 
L 128.444828 232.766992 
L 128.606208 235.286875 
L 128.767589 233.166466 
L 128.928969 233.441181 
L 129.25173 236.904696 
L 129.413111 235.690114 
L 129.574491 236.028879 
L 129.735872 234.316084 
L 129.897252 235.336016 
L 130.058633 233.579448 
L 130.220013 236.701038 
L 130.381394 236.476761 
L 130.704155 231.410479 
L 130.865536 237.896979 
L 131.026916 234.900545 
L 131.188297 235.236249 
L 131.349677 234.138476 
L 131.672438 236.870378 
L 131.833819 233.845172 
L 131.995199 236.089467 
L 132.15658 234.162185 
L 132.31796 237.606603 
L 132.479341 236.359471 
L 132.802102 228.031866 
L 133.124863 236.177842 
L 133.286243 233.883075 
L 133.447624 235.200874 
L 133.770385 233.72017 
L 134.093146 235.227786 
L 134.254526 236.039253 
L 134.415907 235.948377 
L 134.577287 236.023121 
L 134.738668 235.734288 
L 134.900048 236.594401 
L 135.061429 234.56711 
L 135.222809 234.422398 
L 135.38419 234.937471 
L 135.54557 237.270584 
L 135.706951 234.833737 
L 135.868331 235.264369 
L 136.029712 231.918696 
L 136.191092 236.37783 
L 136.352473 237.430007 
L 136.513853 234.622026 
L 136.675234 235.767337 
L 136.836614 234.338692 
L 136.997995 235.100917 
L 137.159375 234.358058 
L 137.320756 236.407073 
L 137.482136 234.139331 
L 137.643517 233.947946 
L 137.804897 235.668937 
L 137.966278 235.814349 
L 138.127658 236.134048 
L 138.289039 234.833473 
L 138.6118 236.547093 
L 138.77318 236.173351 
L 138.934561 234.665651 
L 139.257322 234.869905 
L 139.418702 234.185532 
L 139.580083 234.049544 
L 139.741463 234.209845 
L 139.902844 234.070368 
L 140.064224 234.234631 
L 140.225605 235.629181 
L 140.386985 234.27469 
L 140.548366 235.829101 
L 140.871127 234.895048 
L 141.032507 233.410561 
L 141.193888 236.192706 
L 141.355268 234.224671 
L 141.678029 237.516964 
L 141.83941 237.191613 
L 142.000791 234.144248 
L 142.162171 235.103386 
L 142.323552 234.340462 
L 142.484932 236.943563 
L 142.646313 236.487227 
L 142.807693 234.599422 
L 142.969074 234.471601 
L 143.130454 236.44024 
L 143.614596 235.562785 
L 143.775976 232.715292 
L 144.098737 236.905343 
L 144.260118 234.764539 
L 144.582879 235.484798 
L 144.744259 234.997668 
L 144.90564 233.285989 
L 145.06702 233.140641 
L 145.228401 233.814072 
L 145.389781 232.20663 
L 145.551162 234.65717 
L 145.712542 234.508918 
L 145.873923 235.61041 
L 146.035303 235.874457 
L 146.196684 234.34245 
L 146.358064 235.523469 
L 146.519445 234.349781 
L 146.680825 236.68056 
L 146.842206 234.32979 
L 147.003586 234.87299 
L 147.326347 234.050823 
L 147.487728 234.332732 
L 147.810489 237.073596 
L 147.971869 233.035279 
L 148.13325 235.883063 
L 148.29463 234.548326 
L 148.617391 235.362404 
L 148.778772 234.871512 
L 148.940152 233.581542 
L 149.101533 234.904655 
L 149.262913 238.125378 
L 149.424294 234.349693 
L 149.585674 234.842365 
L 149.747055 233.518057 
L 149.908435 235.971106 
L 150.069816 234.615801 
L 150.231196 238.465307 
L 150.392577 236.279786 
L 150.553957 236.071261 
L 151.038099 234.848257 
L 151.199479 235.161103 
L 151.36086 234.264103 
L 151.52224 235.762729 
L 151.683621 230.693135 
L 151.845001 234.281484 
L 152.006382 233.555309 
L 152.329143 237.236733 
L 152.490523 236.224224 
L 152.651904 236.487372 
L 152.813284 232.273308 
L 152.974665 237.032141 
L 153.136046 232.246091 
L 153.297426 237.871323 
L 153.458807 234.004577 
L 153.620187 235.910511 
L 153.781568 236.232893 
L 153.942948 235.917003 
L 154.104329 236.130178 
L 154.265709 236.017153 
L 154.42709 237.027288 
L 154.58847 234.908523 
L 154.749851 236.148224 
L 154.911231 235.073543 
L 155.072612 236.559708 
L 155.233992 236.807889 
L 155.395373 234.62183 
L 155.556753 235.849698 
L 155.718134 234.734224 
L 155.879514 235.764481 
L 156.040895 234.643385 
L 156.202275 234.502644 
L 156.363656 236.454348 
L 156.525036 234.046719 
L 156.686417 234.912692 
L 156.847797 237.359226 
L 157.009178 236.994988 
L 157.170558 235.081662 
L 157.331939 235.914632 
L 157.493319 233.014025 
L 157.6547 236.992342 
L 157.81608 235.382296 
L 157.977461 236.085373 
L 158.138841 238.293638 
L 158.300222 233.450257 
L 158.461602 235.798788 
L 158.622983 236.022963 
L 158.784363 235.609964 
L 158.945744 234.613467 
L 159.107124 236.978189 
L 159.429885 234.875771 
L 159.591266 234.720741 
L 159.752646 235.130123 
L 159.914027 238.427603 
L 160.075407 236.760114 
L 160.236788 237.197343 
L 160.398168 235.569542 
L 160.559549 236.162129 
L 160.720929 234.764938 
L 160.88231 236.828897 
L 161.04369 236.444903 
L 161.205071 235.522605 
L 161.366451 235.66017 
L 161.689212 236.976009 
L 162.011973 236.15674 
L 162.173354 236.916803 
L 162.334734 235.156326 
L 162.496115 235.947089 
L 162.657495 233.905911 
L 162.818876 236.010814 
L 162.980256 235.567115 
L 163.303017 236.52836 
L 163.464398 235.02926 
L 163.625778 235.656901 
L 163.787159 234.072867 
L 163.948539 234.227176 
L 164.10992 236.406901 
L 164.2713 236.011261 
L 164.432681 235.307804 
L 164.594062 235.548383 
L 164.755442 236.411125 
L 164.916823 236.425005 
L 165.078203 234.346761 
L 165.239584 236.294706 
L 165.400964 234.005039 
L 165.562345 234.955283 
L 165.723725 235.133318 
L 165.885106 235.798229 
L 166.046486 237.939053 
L 166.207867 235.557777 
L 166.369247 236.253418 
L 166.530628 234.54515 
L 166.692008 236.936149 
L 166.853389 237.261732 
L 167.014769 235.609663 
L 167.17615 235.807786 
L 167.498911 237.12148 
L 167.660291 238.171723 
L 167.821672 236.236548 
L 167.983052 237.86561 
L 168.144433 235.76341 
L 168.305813 237.488356 
L 168.467194 233.72139 
L 168.628574 238.294222 
L 168.951335 234.595884 
L 169.112716 236.300628 
L 169.274096 236.241906 
L 169.435477 236.484681 
L 169.758238 237.728934 
L 169.919618 234.164058 
L 170.080999 236.363067 
L 170.242379 234.748063 
L 170.40376 236.742745 
L 170.56514 234.800059 
L 170.726521 236.124076 
L 170.887901 236.163524 
L 171.049282 233.263351 
L 171.372043 238.392055 
L 171.533423 234.274686 
L 171.694804 237.246731 
L 172.017565 234.451554 
L 172.501706 237.528431 
L 172.824467 235.528615 
L 172.985848 237.070899 
L 173.147228 236.400679 
L 173.308609 237.682854 
L 173.63137 235.965639 
L 173.79275 234.926406 
L 174.115511 237.260537 
L 174.438272 233.486031 
L 174.761033 237.772607 
L 174.922414 236.366926 
L 175.083794 236.573522 
L 175.245175 234.632852 
L 175.406555 237.116764 
L 175.729316 234.874693 
L 175.890697 235.970132 
L 176.052078 235.656501 
L 176.213458 237.20663 
L 176.374839 236.46171 
L 176.536219 236.413016 
L 176.6976 236.979748 
L 177.020361 234.92176 
L 177.181741 238.169428 
L 177.343122 235.806012 
L 177.504502 236.606799 
L 177.665883 238.22473 
L 177.827263 235.078243 
L 177.988644 236.196021 
L 178.150024 236.324253 
L 178.311405 234.485528 
L 178.472785 237.108894 
L 178.634166 236.186138 
L 178.795546 237.60634 
L 178.956927 236.475123 
L 179.118307 237.156424 
L 179.279688 235.570575 
L 179.441068 237.632877 
L 179.602449 235.965152 
L 179.92521 238.324082 
L 180.409351 234.635576 
L 180.732112 237.752939 
L 180.893493 236.884448 
L 181.054873 238.221599 
L 181.216254 235.960535 
L 181.377634 235.461536 
L 181.539015 236.757464 
L 181.700395 236.08061 
L 181.861776 236.231174 
L 182.184537 235.089915 
L 182.507298 237.184149 
L 182.668678 233.644195 
L 182.830059 237.038024 
L 182.991439 237.602449 
L 183.15282 236.398334 
L 183.3142 236.156575 
L 183.475581 236.3142 
L 183.636961 235.448353 
L 183.798342 236.010301 
L 183.959722 238.770453 
L 184.282483 236.600271 
L 184.443864 236.168962 
L 184.605244 235.18675 
L 184.766625 237.648668 
L 184.928005 236.687545 
L 185.089386 237.738872 
L 185.250766 235.123027 
L 185.412147 236.571367 
L 185.573527 236.416722 
L 185.734908 238.0485 
L 186.057669 234.539258 
L 186.38043 238.099611 
L 186.703191 235.071687 
L 187.025952 238.42811 
L 187.510094 235.371517 
L 187.671474 237.284886 
L 187.832855 235.749213 
L 187.994235 237.747326 
L 188.155616 237.881384 
L 188.316996 235.603769 
L 188.478377 237.292002 
L 188.639757 236.411057 
L 188.801138 237.381221 
L 188.962518 236.078525 
L 189.123899 237.121408 
L 189.285279 235.666565 
L 189.44666 236.743902 
L 189.60804 236.274685 
L 189.769421 237.984246 
L 189.930801 236.813605 
L 190.253562 238.270654 
L 190.576323 235.769372 
L 190.737704 237.053583 
L 190.899084 237.207732 
L 191.221845 235.955896 
L 191.383226 237.18325 
L 191.544606 235.347766 
L 191.705987 236.075936 
L 191.867367 237.679719 
L 192.028748 236.447479 
L 192.190128 236.265112 
L 192.351509 237.158262 
L 192.512889 235.758615 
L 192.83565 237.128013 
L 193.158411 238.860225 
L 193.319792 235.660987 
L 193.642553 237.925422 
L 193.965314 235.920639 
L 194.288075 235.961036 
L 194.449455 234.841282 
L 194.610836 236.471326 
L 194.772216 235.80228 
L 194.933597 237.397682 
L 195.256358 236.734018 
L 195.417738 236.934653 
L 195.579119 240.059753 
L 195.740499 235.95148 
L 195.90188 236.14386 
L 196.06326 238.650151 
L 196.386021 236.469519 
L 196.547402 236.248726 
L 196.708782 237.430519 
L 196.870163 237.663323 
L 197.031543 237.577058 
L 197.192924 237.623048 
L 197.354304 235.953114 
L 197.677065 237.92224 
L 197.999826 235.216582 
L 198.161207 237.30397 
L 198.322587 237.318923 
L 198.483968 235.695478 
L 198.96811 238.529402 
L 199.12949 235.460728 
L 199.290871 235.879253 
L 199.452251 236.991403 
L 199.613632 236.067503 
L 199.775012 236.020029 
L 199.936393 236.187868 
L 200.259154 237.830305 
L 200.420534 237.754685 
L 200.581915 236.571009 
L 200.743295 236.74361 
L 200.904676 236.027324 
L 201.066056 236.644989 
L 201.388817 236.752246 
L 201.550198 238.507413 
L 201.711578 236.018127 
L 201.872959 238.016795 
L 202.034339 234.981648 
L 202.19572 238.4201 
L 202.3571 235.029427 
L 202.518481 236.26347 
L 203.002622 235.944274 
L 203.164003 236.76798 
L 203.325383 238.648429 
L 203.648144 236.10152 
L 203.809525 235.916232 
L 204.132286 238.840899 
L 204.455047 236.504711 
L 204.616427 236.745727 
L 204.777808 235.312203 
L 204.939188 237.533078 
L 205.100569 237.62067 
L 205.261949 237.906141 
L 205.42333 237.177138 
L 205.58471 237.500945 
L 205.746091 237.006872 
L 205.907471 234.704044 
L 206.230232 237.973261 
L 206.391613 235.332727 
L 206.714374 237.047793 
L 206.875754 237.607356 
L 207.037135 238.826711 
L 207.198515 235.977072 
L 207.359896 237.901154 
L 207.521276 238.011887 
L 207.682657 236.600919 
L 207.844037 238.234623 
L 208.005418 236.582502 
L 208.166798 237.382088 
L 208.328179 236.659287 
L 208.65094 237.887202 
L 208.81232 237.365833 
L 208.973701 237.338542 
L 209.135081 238.120484 
L 209.296462 239.504308 
L 209.619223 236.083427 
L 209.941984 237.538922 
L 210.103365 236.653839 
L 210.426126 237.104027 
L 210.587506 236.535172 
L 210.748887 236.943615 
L 210.910267 236.40462 
L 211.071648 236.669006 
L 211.233028 235.891517 
L 211.394409 238.265927 
L 211.555789 236.704462 
L 211.71717 236.276617 
L 211.87855 239.015231 
L 212.039931 236.456203 
L 212.201311 237.945038 
L 212.362692 236.774577 
L 212.524072 239.214718 
L 212.685453 236.098879 
L 212.846833 237.789956 
L 213.169594 236.590873 
L 213.330975 236.731678 
L 213.492355 237.296287 
L 213.653736 237.234946 
L 213.815116 236.839333 
L 213.976497 237.467054 
L 214.137877 236.087423 
L 214.299258 236.836652 
L 214.460638 238.577649 
L 214.783399 235.14191 
L 214.94478 235.818023 
L 215.267541 238.3535 
L 215.428921 237.746117 
L 215.590302 236.652985 
L 215.751682 238.574706 
L 216.074443 236.856622 
L 216.235824 236.402698 
L 216.558585 237.244083 
L 216.719965 237.099634 
L 216.881346 235.827802 
L 217.042726 237.101858 
L 217.204107 236.252257 
L 217.365487 238.057326 
L 217.526868 235.459971 
L 217.688248 236.111685 
L 217.849629 236.248331 
L 218.011009 235.739929 
L 218.33377 237.715602 
L 218.495151 236.894584 
L 218.656531 237.452601 
L 218.979292 235.286703 
L 219.463434 238.317642 
L 219.624814 237.527765 
L 219.786195 237.470592 
L 219.947575 238.89032 
L 220.108956 236.922606 
L 220.431717 237.973664 
L 220.593097 236.965403 
L 220.754478 238.491964 
L 220.915858 238.230916 
L 221.077239 236.454945 
L 221.238619 236.199788 
L 221.561381 237.639425 
L 221.722761 238.044861 
L 222.045522 236.44268 
L 222.206903 235.833842 
L 222.368283 236.76569 
L 222.529664 238.636523 
L 222.852425 236.88717 
L 223.013805 238.367904 
L 223.175186 238.214975 
L 223.336566 236.633675 
L 223.497947 237.594525 
L 223.659327 236.978402 
L 223.820708 238.404645 
L 224.143469 236.229065 
L 224.304849 237.261027 
L 224.46623 237.499691 
L 224.62761 234.519804 
L 224.788991 238.870264 
L 225.111752 236.476038 
L 225.273132 237.876364 
L 225.434513 235.449197 
L 225.757274 237.426737 
L 225.918654 236.518194 
L 226.241415 238.65067 
L 226.402796 235.768686 
L 226.564176 239.202034 
L 226.725557 238.724475 
L 226.886937 237.014161 
L 227.048318 237.90069 
L 227.209698 233.626695 
L 227.371079 238.126711 
L 227.532459 237.741479 
L 227.69384 236.788341 
L 227.85522 237.119949 
L 228.016601 237.119945 
L 228.339362 238.1362 
L 228.500742 237.118303 
L 228.662123 237.354284 
L 228.823503 236.17965 
L 228.984884 236.527229 
L 229.146264 238.831656 
L 229.307645 235.842197 
L 229.630406 238.490173 
L 229.791786 236.645732 
L 229.953167 238.738034 
L 230.275928 236.133937 
L 230.437308 237.719597 
L 230.598689 238.002541 
L 230.92145 236.652766 
L 231.08283 238.433987 
L 231.244211 236.628968 
L 231.405591 238.000707 
L 231.566972 236.532461 
L 231.728352 240.029768 
L 231.889733 239.242788 
L 232.051113 239.065613 
L 232.212494 236.340523 
L 232.373874 238.386611 
L 232.535255 236.852555 
L 232.696635 233.881348 
L 233.019397 238.081746 
L 233.180777 236.691332 
L 233.342158 237.219032 
L 233.503538 238.177043 
L 233.664919 237.116057 
L 233.826299 232.806486 
L 233.98768 238.197397 
L 234.14906 239.176572 
L 234.310441 238.282969 
L 234.471821 236.349655 
L 234.633202 238.73621 
L 234.794582 235.616898 
L 234.955963 238.298409 
L 235.117343 237.846649 
L 235.278724 236.878064 
L 235.440104 239.189313 
L 235.601485 234.790206 
L 235.762865 237.912078 
L 236.085626 236.210946 
L 236.247007 237.043647 
L 236.569768 237.29642 
L 236.731148 237.095058 
L 236.892529 238.206847 
L 237.053909 237.117239 
L 237.21529 236.92006 
L 237.37667 238.767259 
L 237.538051 238.082582 
L 237.699431 240.266606 
L 238.022192 237.605974 
L 238.183573 237.504505 
L 238.344953 238.094238 
L 238.829095 236.8017 
L 238.990475 239.130542 
L 239.313236 235.275926 
L 239.474617 237.905596 
L 239.635997 237.795243 
L 239.797378 237.138643 
L 240.120139 238.731684 
L 240.281519 236.681101 
L 240.4429 238.600658 
L 240.60428 237.821971 
L 240.765661 238.217562 
L 240.927041 238.161755 
L 241.088422 239.245702 
L 241.411183 235.435006 
L 241.572563 235.773775 
L 241.733944 238.459053 
L 241.895324 238.12386 
L 242.056705 236.195574 
L 242.379466 237.929722 
L 242.540846 237.239595 
L 242.702227 237.101348 
L 242.863607 238.13072 
L 243.024988 237.648201 
L 243.186368 235.87328 
L 243.347749 237.709243 
L 243.509129 235.833995 
L 243.67051 236.529437 
L 243.83189 238.035893 
L 243.993271 233.683705 
L 244.154651 236.222502 
L 244.316032 236.113504 
L 244.477413 238.172692 
L 244.638793 237.253259 
L 244.800174 238.656211 
L 244.961554 236.76022 
L 245.122935 236.457458 
L 245.284315 237.699488 
L 245.445696 235.571485 
L 245.607076 237.503609 
L 245.768457 236.672577 
L 245.929837 235.138486 
L 246.091218 234.866773 
L 246.413979 236.852063 
L 246.575359 238.218559 
L 246.73674 236.621388 
L 246.89812 236.606149 
L 247.382262 238.764386 
L 247.543642 235.157353 
L 247.705023 238.561346 
L 247.866403 237.00224 
L 248.027784 237.761873 
L 248.189164 233.418958 
L 248.350545 237.446595 
L 248.511925 237.578231 
L 248.673306 235.355329 
L 248.834686 236.836389 
L 248.996067 235.822204 
L 249.157447 235.682471 
L 249.318828 237.806214 
L 249.480208 237.541407 
L 249.641589 238.37719 
L 249.802969 238.114798 
L 249.96435 236.626915 
L 250.12573 239.844197 
L 250.287111 237.68034 
L 250.609872 239.280042 
L 251.094013 237.720423 
L 251.255394 237.937505 
L 251.416774 237.562405 
L 251.578155 236.81993 
L 251.739535 237.484786 
L 251.900916 235.604348 
L 252.062296 236.52856 
L 252.223677 238.911162 
L 252.385057 239.514234 
L 252.869199 235.667197 
L 253.030579 238.248363 
L 253.19196 238.840273 
L 253.35334 237.18892 
L 253.514721 238.280436 
L 253.676101 236.974938 
L 253.837482 236.839316 
L 253.998862 236.136114 
L 254.160243 238.453395 
L 254.483004 237.707228 
L 254.644384 238.506378 
L 254.805765 236.344044 
L 254.967145 238.314944 
L 255.289906 235.930189 
L 255.774048 239.579058 
L 255.935429 238.789269 
L 256.096809 238.808317 
L 256.25819 234.157021 
L 256.41957 238.370177 
L 256.580951 237.160967 
L 257.065092 240.677621 
L 257.226473 240.092048 
L 257.387853 236.952786 
L 257.710614 238.223931 
L 257.871995 237.117486 
L 258.033375 238.841592 
L 258.194756 237.698163 
L 258.356136 237.789388 
L 258.678897 241.033389 
L 258.840278 234.857886 
L 259.001658 238.497758 
L 259.163039 238.61289 
L 259.324419 237.424115 
L 259.64718 236.911123 
L 259.808561 237.062292 
L 259.969941 238.756178 
L 260.131322 235.808637 
L 260.292702 237.651344 
L 260.454083 238.129933 
L 260.776844 239.491391 
L 260.938224 239.076216 
L 261.099605 237.165023 
L 261.260985 238.45634 
L 261.422366 236.8138 
L 261.583746 236.914824 
L 261.745127 236.197699 
L 261.906507 239.506517 
L 262.067888 238.994882 
L 262.390649 236.422617 
L 262.552029 236.552058 
L 262.71341 239.911813 
L 262.87479 237.847053 
L 263.036171 240.015505 
L 263.197551 238.185836 
L 263.358932 238.779561 
L 263.520312 237.281624 
L 263.681693 237.625689 
L 263.843073 238.991755 
L 264.004454 235.06481 
L 264.165834 238.740912 
L 264.327215 238.296472 
L 264.649976 238.273179 
L 264.811356 236.425192 
L 264.972737 236.940521 
L 265.134117 235.674015 
L 265.295498 238.990957 
L 265.456878 238.641676 
L 265.618259 239.573351 
L 265.779639 237.90826 
L 265.94102 239.30915 
L 266.1024 238.394213 
L 266.263781 238.563899 
L 266.586542 237.958001 
L 266.747922 239.093889 
L 267.070684 235.704823 
L 267.393445 239.948957 
L 267.554825 238.733711 
L 267.716206 238.950459 
L 267.877586 238.929761 
L 268.200347 240.628051 
L 268.361728 239.35107 
L 268.523108 239.774526 
L 268.684489 237.351227 
L 268.845869 237.930082 
L 269.00725 237.759823 
L 269.16863 239.869134 
L 269.491391 237.57891 
L 269.814152 238.186858 
L 269.975533 238.080047 
L 270.136913 237.310708 
L 270.459674 239.70248 
L 270.621055 237.114821 
L 270.782435 238.664949 
L 270.943816 237.69245 
L 271.266577 239.586104 
L 271.427957 237.914125 
L 271.589338 238.636323 
L 271.750718 238.401838 
L 271.912099 235.289828 
L 272.073479 238.254549 
L 272.23486 238.421608 
L 272.39624 238.322692 
L 272.557621 238.093269 
L 272.719001 240.038537 
L 272.880382 240.149957 
L 273.203143 238.658913 
L 273.364523 239.550245 
L 273.525904 238.859425 
L 273.687284 239.260276 
L 273.848665 239.359826 
L 274.010045 238.346732 
L 274.171426 239.233047 
L 274.494187 237.270807 
L 274.816948 240.177377 
L 275.139709 238.779186 
L 275.62385 240.186068 
L 275.785231 238.605976 
L 275.946611 239.650343 
L 276.107992 237.3721 
L 276.430753 240.864289 
L 276.592133 237.66651 
L 276.753514 238.550836 
L 276.914894 237.750464 
L 277.399036 240.280912 
L 277.560416 238.841297 
L 277.721797 238.428462 
L 277.883177 240.598196 
L 278.044558 237.734878 
L 278.367319 239.969311 
L 278.69008 236.99509 
L 279.012841 238.059274 
L 279.174222 240.029074 
L 279.335602 240.397779 
L 279.496983 238.694324 
L 279.658363 239.184522 
L 279.819744 238.326696 
L 279.981124 238.924808 
L 280.142505 238.064818 
L 280.303885 236.342449 
L 280.788027 240.17846 
L 280.949407 238.900417 
L 281.110788 238.903278 
L 281.272168 237.189896 
L 281.433549 240.375489 
L 281.594929 239.24328 
L 281.75631 240.406551 
L 282.079071 237.764697 
L 282.240451 237.129636 
L 282.401832 238.218032 
L 282.563212 238.171586 
L 282.724593 237.07673 
L 282.885973 239.669982 
L 283.047354 240.401357 
L 283.208734 237.412936 
L 283.370115 238.108742 
L 283.531495 238.160968 
L 283.692876 236.429315 
L 283.854256 240.694802 
L 284.015637 240.459747 
L 284.177017 239.921636 
L 284.338398 238.545148 
L 284.499778 239.937581 
L 284.661159 238.30503 
L 284.822539 239.983805 
L 284.98392 237.194157 
L 285.1453 238.144262 
L 285.306681 237.291495 
L 285.468061 239.522884 
L 285.790822 237.030244 
L 285.952203 239.689623 
L 286.274964 236.933003 
L 286.597725 239.702309 
L 286.759105 239.482945 
L 286.920486 239.676869 
L 287.081866 239.081034 
L 287.243247 241.225403 
L 287.404627 239.639356 
L 287.566008 239.961357 
L 287.888769 236.645828 
L 288.050149 238.479433 
L 288.21153 237.122098 
L 288.534291 237.660009 
L 288.695671 239.993711 
L 288.857052 240.269385 
L 289.179813 235.913166 
L 289.663954 239.991007 
L 289.825335 239.974458 
L 289.986716 238.790183 
L 290.309477 240.82874 
L 290.470857 236.078255 
L 290.632238 237.016307 
L 290.793618 239.125415 
L 290.954999 237.127403 
L 291.116379 238.577306 
L 291.27776 238.987144 
L 291.43914 237.97199 
L 291.600521 236.246329 
L 291.761901 239.983266 
L 291.923282 239.531263 
L 292.084662 237.132353 
L 292.246043 236.690179 
L 292.407423 240.069735 
L 292.568804 238.580737 
L 292.730184 238.756878 
L 292.891565 238.650482 
L 293.052945 240.801669 
L 293.214326 241.343896 
L 293.375706 239.560885 
L 293.537087 240.816874 
L 293.698467 237.856602 
L 293.859848 238.024367 
L 294.021228 239.53479 
L 294.182609 239.114061 
L 294.50537 237.545728 
L 294.66675 238.833783 
L 294.828131 237.828117 
L 294.989511 240.232585 
L 295.150892 237.377088 
L 295.312272 239.99181 
L 295.473653 238.660963 
L 295.635033 240.040497 
L 295.796414 239.121485 
L 295.957794 240.175741 
L 296.119175 240.041373 
L 296.280555 237.125895 
L 296.441936 237.515986 
L 296.603316 237.478704 
L 296.764697 237.616406 
L 297.087458 238.34021 
L 297.248838 237.094323 
L 297.410219 237.652523 
L 297.571599 237.470426 
L 297.73298 236.830338 
L 297.89436 239.59061 
L 298.055741 239.074287 
L 298.217121 239.63811 
L 298.378502 236.2683 
L 298.539882 236.691122 
L 298.701263 240.147501 
L 298.862643 237.643399 
L 299.024024 238.660684 
L 299.185404 236.906809 
L 299.346785 240.336447 
L 299.508165 237.703234 
L 299.669546 239.199052 
L 299.830926 237.509877 
L 299.992307 238.208455 
L 300.153687 237.478573 
L 300.476448 239.190753 
L 300.637829 238.602257 
L 300.799209 239.733382 
L 300.96059 238.647944 
L 301.121971 238.483536 
L 301.283351 238.599008 
L 301.444732 237.439459 
L 301.606112 238.477462 
L 301.767493 236.989878 
L 302.090254 238.99141 
L 302.251634 238.386916 
L 302.413015 240.277846 
L 302.574395 238.895223 
L 302.897156 238.289621 
L 303.058537 236.253406 
L 303.381298 238.142258 
L 303.542678 238.444774 
L 303.704059 239.411159 
L 304.02682 237.401776 
L 304.1882 237.26165 
L 304.349581 240.035854 
L 304.510961 238.350658 
L 304.672342 240.052854 
L 304.995103 239.729316 
L 305.156483 238.460323 
L 305.317864 240.948898 
L 305.479244 238.551033 
L 305.640625 239.25123 
L 305.802005 236.488093 
L 306.124766 240.555827 
L 306.447527 239.020605 
L 306.608908 241.325494 
L 306.931669 237.225764 
L 307.093049 240.729197 
L 307.25443 238.94627 
L 307.41581 240.074824 
L 307.738571 239.204819 
L 307.899952 236.828047 
L 308.061332 238.492382 
L 308.222713 236.634511 
L 308.545474 240.067323 
L 308.706854 239.187388 
L 308.868235 239.150221 
L 309.029615 238.90026 
L 309.190996 239.175541 
L 309.352376 240.87674 
L 309.513757 236.357833 
L 309.675137 240.063104 
L 309.836518 239.028129 
L 309.997898 241.29012 
L 310.159279 239.477357 
L 310.320659 235.86723 
L 310.64342 240.680596 
L 310.804801 236.281268 
L 310.966181 237.264019 
L 311.127562 237.432928 
L 311.288942 238.978465 
L 311.773084 237.684007 
L 311.934464 238.8216 
L 312.095845 238.707465 
L 312.257225 239.590921 
L 312.418606 239.041212 
L 312.579987 240.343207 
L 312.741367 237.313594 
L 312.902748 239.592041 
L 313.064128 239.210138 
L 313.225509 240.196404 
L 313.386889 235.80467 
L 313.54827 239.134618 
L 313.70965 239.26914 
L 313.871031 239.201308 
L 314.032411 239.507684 
L 314.193792 239.318488 
L 314.355172 240.042359 
L 314.516553 239.284013 
L 314.677933 237.074316 
L 314.839314 237.155563 
L 315.000694 239.752145 
L 315.162075 239.9565 
L 315.323455 239.532783 
L 315.484836 240.410107 
L 315.646216 237.461834 
L 315.807597 240.420858 
L 315.968977 238.407552 
L 316.130358 238.277786 
L 316.291738 239.189437 
L 316.453119 241.081129 
L 316.614499 239.818358 
L 316.77588 240.184813 
L 316.93726 239.232713 
L 317.098641 239.849052 
L 317.260021 239.434479 
L 317.421402 240.241459 
L 317.582782 239.280006 
L 317.744163 239.367829 
L 317.905543 238.230836 
L 318.066924 239.937589 
L 318.228304 239.43344 
L 318.389685 240.270309 
L 318.551065 236.932313 
L 318.712446 239.643728 
L 319.035207 237.55771 
L 319.196587 240.183528 
L 319.357968 238.23551 
L 319.519348 239.901697 
L 319.680729 238.29001 
L 320.00349 239.462757 
L 320.16487 239.971838 
L 320.326251 238.066166 
L 320.649012 239.573401 
L 320.810392 238.490909 
L 321.133153 240.302117 
L 321.455914 239.499435 
L 321.617295 237.346442 
L 321.778675 239.427388 
L 321.940056 238.000539 
L 322.262817 240.141757 
L 322.424197 239.873531 
L 322.585578 240.306359 
L 322.746958 237.588649 
L 322.908339 239.491824 
L 323.069719 238.486847 
L 323.2311 239.69551 
L 323.39248 238.338191 
L 323.553861 239.9463 
L 323.876622 240.035166 
L 324.038003 237.654209 
L 324.199383 240.612929 
L 324.360764 239.626645 
L 324.522144 240.00087 
L 324.683525 240.942728 
L 324.844905 238.904568 
L 325.006286 239.338848 
L 325.167666 240.45472 
L 325.329047 239.891589 
L 325.490427 238.502687 
L 325.813188 241.310296 
L 325.974569 239.659184 
L 326.135949 239.757468 
L 326.29733 240.167329 
L 326.45871 239.260932 
L 326.620091 239.665137 
L 326.781471 240.390736 
L 327.104232 240.295106 
L 327.265613 237.723563 
L 327.426993 238.611157 
L 327.588374 238.817324 
L 327.749754 240.424386 
L 327.911135 239.815643 
L 328.072515 239.822415 
L 328.233896 239.424161 
L 328.395276 241.925824 
L 328.556657 240.186287 
L 328.718037 241.370288 
L 328.879418 239.706474 
L 329.040798 239.66969 
L 329.202179 241.367688 
L 329.363559 240.304365 
L 329.52494 241.823277 
L 329.68632 238.908036 
L 330.009081 239.913111 
L 330.331842 239.56796 
L 330.493223 240.371947 
L 330.654603 239.918535 
L 330.815984 240.835674 
L 330.977364 240.128638 
L 331.300125 240.389345 
L 331.461506 238.288262 
L 331.622886 239.886378 
L 331.784267 239.099714 
L 332.107028 240.604527 
L 332.268408 240.554305 
L 332.429789 238.284908 
L 332.591169 240.799608 
L 332.75255 239.226826 
L 332.91393 240.913036 
L 333.075311 241.005563 
L 333.236691 238.949238 
L 333.398072 238.351896 
L 333.559452 240.661092 
L 333.882213 239.096297 
L 334.043594 240.446658 
L 334.204974 240.619077 
L 334.366355 240.423874 
L 334.527735 241.235323 
L 334.850496 240.799995 
L 335.011877 241.3666 
L 335.173257 240.733144 
L 335.334638 240.701564 
L 335.496019 240.517783 
L 335.657399 240.608221 
L 335.81878 241.156928 
L 335.98016 239.171903 
L 336.141541 240.546977 
L 336.302921 238.85986 
L 336.464302 241.308333 
L 336.625682 239.051841 
L 336.787063 240.503319 
L 336.948443 240.216218 
L 337.271204 240.350211 
L 337.432585 239.245012 
L 337.593965 239.411172 
L 337.916726 240.322912 
L 338.078107 239.573117 
L 338.400868 240.571564 
L 338.562248 238.744011 
L 338.723629 240.106275 
L 338.885009 240.006402 
L 339.20777 240.848213 
L 339.369151 240.342515 
L 339.691912 241.738808 
L 339.853292 239.14935 
L 340.014673 239.193524 
L 340.498814 241.495023 
L 340.821575 240.92623 
L 340.982956 241.439786 
L 341.144336 240.48494 
L 341.305717 240.61064 
L 341.467097 237.676152 
L 341.628478 239.513875 
L 341.789858 239.816936 
L 342.112619 240.985659 
L 342.274 240.75622 
L 342.43538 240.143745 
L 342.596761 241.374681 
L 342.758141 241.08676 
L 342.919522 238.413238 
L 343.242283 240.95577 
L 343.403663 240.279755 
L 343.565044 242.116364 
L 344.049185 238.058035 
L 344.371946 241.916091 
L 344.533327 240.217052 
L 344.694707 241.29526 
L 344.856088 240.63556 
L 345.017468 241.465921 
L 345.178849 235.243425 
L 345.340229 240.681573 
L 345.50161 240.780647 
L 345.66299 241.564143 
L 345.824371 240.928759 
L 345.985751 241.016058 
L 346.147132 240.927061 
L 346.308512 241.216133 
L 346.469893 241.921153 
L 346.631273 240.715918 
L 346.792654 241.43974 
L 347.115415 240.710437 
L 347.276796 240.373114 
L 347.438176 241.241697 
L 347.599557 239.734715 
L 347.922318 240.702198 
L 348.083698 240.654618 
L 348.245079 241.583903 
L 348.406459 241.065349 
L 348.56784 239.836529 
L 348.72922 241.16843 
L 348.890601 240.333008 
L 349.051981 241.429968 
L 349.213362 240.009332 
L 349.374742 240.96297 
L 349.536123 240.928731 
L 349.858884 239.573651 
L 350.020264 239.635272 
L 350.343025 241.198479 
L 350.504406 240.954033 
L 350.665786 239.896072 
L 350.827167 239.734957 
L 351.311308 240.996733 
L 351.472689 239.447556 
L 351.634069 241.928013 
L 351.95683 239.487363 
L 352.118211 240.333345 
L 352.279591 239.632131 
L 352.440972 240.115624 
L 352.602352 239.341458 
L 352.925113 240.311225 
L 353.086494 239.149682 
L 353.247874 239.449331 
L 353.409255 240.239755 
L 353.570635 241.715421 
L 353.893396 239.620595 
L 354.216157 241.330044 
L 354.377538 240.392372 
L 354.538918 241.184961 
L 354.700299 240.612788 
L 354.861679 241.458979 
L 355.02306 239.925934 
L 355.18444 241.094697 
L 355.345821 241.15538 
L 355.507201 238.826926 
L 355.668582 241.036629 
L 355.829962 239.420599 
L 355.991343 239.549561 
L 356.152723 241.196701 
L 356.314104 241.479418 
L 356.636865 239.841453 
L 356.798245 240.938467 
L 356.959626 238.504328 
L 357.121006 240.774094 
L 357.282387 238.10605 
L 357.443767 240.887118 
L 357.605148 241.327955 
L 357.766528 238.526912 
L 357.927909 238.348113 
L 358.08929 239.537261 
L 358.412051 239.025852 
L 358.734812 241.075668 
L 358.896192 238.745215 
L 359.057573 240.360252 
L 359.218953 238.244083 
L 359.380334 239.874032 
L 359.541714 240.222358 
L 359.703095 241.078547 
L 359.864475 240.083008 
L 360.187236 241.736302 
L 360.348617 239.6892 
L 360.509997 240.615038 
L 361.3169 240.332134 
L 361.47828 240.730331 
L 361.639661 240.154671 
L 361.801041 241.497409 
L 361.962422 240.783143 
L 362.285183 241.260664 
L 362.446563 241.136624 
L 362.607944 240.616649 
L 362.769324 241.528155 
L 362.930705 239.209779 
L 363.092085 241.042187 
L 363.253466 240.68998 
L 363.737607 238.732314 
L 363.898988 239.70163 
L 364.060368 239.779685 
L 364.221749 241.30346 
L 364.383129 241.521782 
L 364.70589 240.10662 
L 364.867271 240.947127 
L 365.028651 240.902565 
L 365.190032 241.292374 
L 365.351412 239.265639 
L 365.512793 240.855469 
L 365.674173 240.61073 
L 365.835554 240.60887 
L 365.996934 239.310207 
L 366.158315 241.913465 
L 366.319695 241.266252 
L 366.481076 241.361202 
L 366.642456 238.442803 
L 366.965217 240.666977 
L 367.126598 241.208474 
L 367.287978 240.677265 
L 367.449359 240.598605 
L 367.610739 237.683216 
L 367.77212 240.625827 
L 367.9335 238.619928 
L 368.094881 239.079396 
L 368.256261 240.595853 
L 368.417642 238.397096 
L 368.579022 240.469078 
L 368.740403 237.828513 
L 368.901783 241.264363 
L 369.063164 239.448683 
L 369.224544 239.115965 
L 369.547306 241.52732 
L 369.708686 237.653422 
L 369.870067 240.067463 
L 370.031447 240.526763 
L 370.192828 240.083505 
L 370.515589 240.948104 
L 370.676969 238.823455 
L 370.83835 240.438692 
L 371.161111 240.529598 
L 371.322491 241.315027 
L 371.645252 239.44841 
L 371.806633 240.505723 
L 371.968013 239.571242 
L 372.129394 241.609351 
L 372.290774 241.263818 
L 372.452155 240.099995 
L 372.613535 240.115954 
L 372.774916 239.601124 
L 373.097677 240.965781 
L 373.259057 239.385286 
L 373.420438 241.885907 
L 373.581818 238.97788 
L 373.581818 238.97788 
" style="fill:none;stroke:#1f77b4;stroke-linecap:square;stroke-width:1.5;"/>
   </g>
   <g id="patch_3">
    <path d="M 54 252 
L 54 34.56 
" style="fill:none;stroke:#000000;stroke-linecap:square;stroke-linejoin:miter;stroke-width:0.8;"/>
   </g>
   <g id="patch_4">
    <path d="M 388.8 252 
L 388.8 34.56 
" style="fill:none;stroke:#000000;stroke-linecap:square;stroke-linejoin:miter;stroke-width:0.8;"/>
   </g>
   <g id="patch_5">
    <path d="M 54 252 
L 388.8 252 
" style="fill:none;stroke:#000000;stroke-linecap:square;stroke-linejoin:miter;stroke-width:0.8;"/>
   </g>
   <g id="patch_6">
    <path d="M 54 34.56 
L 388.8 34.56 
" style="fill:none;stroke:#000000;stroke-linecap:square;stroke-linejoin:miter;stroke-width:0.8;"/>
   </g>
  </g>
 </g>
 <defs>
  <clipPath id="p226c775489">
   <rect height="217.44" width="334.8" x="54" y="34.56"/>
  </clipPath>
 </defs>
</svg>
