<?xml version="1.0" encoding="utf-8" standalone="no"?>
<!DOCTYPE svg PUBLIC "-//W3C//DTD SVG 1.1//EN"
  "http://www.w3.org/Graphics/SVG/1.1/DTD/svg11.dtd">
<!-- Created with matplotlib (https://matplotlib.org/) -->
<svg height="288pt" version="1.1" viewBox="0 0 432 288" width="432pt" xmlns="http://www.w3.org/2000/svg" xmlns:xlink="http://www.w3.org/1999/xlink">
 <defs>
  <style type="text/css">
*{stroke-linecap:butt;stroke-linejoin:round;}
  </style>
 </defs>
 <g id="figure_1">
  <g id="patch_1">
   <path d="M 0 288 
L 432 288 
L 432 0 
L 0 0 
z
" style="fill:#ffffff;"/>
  </g>
  <g id="axes_1">
   <g id="patch_2">
    <path d="M 54 252 
L 388.8 252 
L 388.8 34.56 
L 54 34.56 
z
" style="fill:#ffffff;"/>
   </g>
   <g id="matplotlib.axis_1">
    <g id="xtick_1">
     <g id="line2d_1">
      <defs>
       <path d="M 0 0 
L 0 3.5 
" id="m8135d1e355" style="stroke:#000000;stroke-width:0.8;"/>
      </defs>
      <g>
       <use style="stroke:#000000;stroke-width:0.8;" x="69.218182" xlink:href="#m8135d1e355" y="252"/>
      </g>
     </g>
     <g id="text_1">
      <!-- 0 -->
      <defs>
       <path d="M 31.78125 66.40625 
Q 24.171875 66.40625 20.328125 58.90625 
Q 16.5 51.421875 16.5 36.375 
Q 16.5 21.390625 20.328125 13.890625 
Q 24.171875 6.390625 31.78125 6.390625 
Q 39.453125 6.390625 43.28125 13.890625 
Q 47.125 21.390625 47.125 36.375 
Q 47.125 51.421875 43.28125 58.90625 
Q 39.453125 66.40625 31.78125 66.40625 
z
M 31.78125 74.21875 
Q 44.046875 74.21875 50.515625 64.515625 
Q 56.984375 54.828125 56.984375 36.375 
Q 56.984375 17.96875 50.515625 8.265625 
Q 44.046875 -1.421875 31.78125 -1.421875 
Q 19.53125 -1.421875 13.0625 8.265625 
Q 6.59375 17.96875 6.59375 36.375 
Q 6.59375 54.828125 13.0625 64.515625 
Q 19.53125 74.21875 31.78125 74.21875 
z
" id="DejaVuSans-48"/>
      </defs>
      <g transform="translate(66.036932 266.598437)scale(0.1 -0.1)">
       <use xlink:href="#DejaVuSans-48"/>
      </g>
     </g>
    </g>
    <g id="xtick_2">
     <g id="line2d_2">
      <g>
       <use style="stroke:#000000;stroke-width:0.8;" x="142.41771" xlink:href="#m8135d1e355" y="252"/>
      </g>
     </g>
     <g id="text_2">
      <!-- 1000 -->
      <defs>
       <path d="M 12.40625 8.296875 
L 28.515625 8.296875 
L 28.515625 63.921875 
L 10.984375 60.40625 
L 10.984375 69.390625 
L 28.421875 72.90625 
L 38.28125 72.90625 
L 38.28125 8.296875 
L 54.390625 8.296875 
L 54.390625 0 
L 12.40625 0 
z
" id="DejaVuSans-49"/>
      </defs>
      <g transform="translate(129.69271 266.598437)scale(0.1 -0.1)">
       <use xlink:href="#DejaVuSans-49"/>
       <use x="63.623047" xlink:href="#DejaVuSans-48"/>
       <use x="127.246094" xlink:href="#DejaVuSans-48"/>
       <use x="190.869141" xlink:href="#DejaVuSans-48"/>
      </g>
     </g>
    </g>
    <g id="xtick_3">
     <g id="line2d_3">
      <g>
       <use style="stroke:#000000;stroke-width:0.8;" x="215.617237" xlink:href="#m8135d1e355" y="252"/>
      </g>
     </g>
     <g id="text_3">
      <!-- 2000 -->
      <defs>
       <path d="M 19.1875 8.296875 
L 53.609375 8.296875 
L 53.609375 0 
L 7.328125 0 
L 7.328125 8.296875 
Q 12.9375 14.109375 22.625 23.890625 
Q 32.328125 33.6875 34.8125 36.53125 
Q 39.546875 41.84375 41.421875 45.53125 
Q 43.3125 49.21875 43.3125 52.78125 
Q 43.3125 58.59375 39.234375 62.25 
Q 35.15625 65.921875 28.609375 65.921875 
Q 23.96875 65.921875 18.8125 64.3125 
Q 13.671875 62.703125 7.8125 59.421875 
L 7.8125 69.390625 
Q 13.765625 71.78125 18.9375 73 
Q 24.125 74.21875 28.421875 74.21875 
Q 39.75 74.21875 46.484375 68.546875 
Q 53.21875 62.890625 53.21875 53.421875 
Q 53.21875 48.921875 51.53125 44.890625 
Q 49.859375 40.875 45.40625 35.40625 
Q 44.1875 33.984375 37.640625 27.21875 
Q 31.109375 20.453125 19.1875 8.296875 
z
" id="DejaVuSans-50"/>
      </defs>
      <g transform="translate(202.892237 266.598437)scale(0.1 -0.1)">
       <use xlink:href="#DejaVuSans-50"/>
       <use x="63.623047" xlink:href="#DejaVuSans-48"/>
       <use x="127.246094" xlink:href="#DejaVuSans-48"/>
       <use x="190.869141" xlink:href="#DejaVuSans-48"/>
      </g>
     </g>
    </g>
    <g id="xtick_4">
     <g id="line2d_4">
      <g>
       <use style="stroke:#000000;stroke-width:0.8;" x="288.816765" xlink:href="#m8135d1e355" y="252"/>
      </g>
     </g>
     <g id="text_4">
      <!-- 3000 -->
      <defs>
       <path d="M 40.578125 39.3125 
Q 47.65625 37.796875 51.625 33 
Q 55.609375 28.21875 55.609375 21.1875 
Q 55.609375 10.40625 48.1875 4.484375 
Q 40.765625 -1.421875 27.09375 -1.421875 
Q 22.515625 -1.421875 17.65625 -0.515625 
Q 12.796875 0.390625 7.625 2.203125 
L 7.625 11.71875 
Q 11.71875 9.328125 16.59375 8.109375 
Q 21.484375 6.890625 26.8125 6.890625 
Q 36.078125 6.890625 40.9375 10.546875 
Q 45.796875 14.203125 45.796875 21.1875 
Q 45.796875 27.640625 41.28125 31.265625 
Q 36.765625 34.90625 28.71875 34.90625 
L 20.21875 34.90625 
L 20.21875 43.015625 
L 29.109375 43.015625 
Q 36.375 43.015625 40.234375 45.921875 
Q 44.09375 48.828125 44.09375 54.296875 
Q 44.09375 59.90625 40.109375 62.90625 
Q 36.140625 65.921875 28.71875 65.921875 
Q 24.65625 65.921875 20.015625 65.03125 
Q 15.375 64.15625 9.8125 62.3125 
L 9.8125 71.09375 
Q 15.4375 72.65625 20.34375 73.4375 
Q 25.25 74.21875 29.59375 74.21875 
Q 40.828125 74.21875 47.359375 69.109375 
Q 53.90625 64.015625 53.90625 55.328125 
Q 53.90625 49.265625 50.4375 45.09375 
Q 46.96875 40.921875 40.578125 39.3125 
z
" id="DejaVuSans-51"/>
      </defs>
      <g transform="translate(276.091765 266.598437)scale(0.1 -0.1)">
       <use xlink:href="#DejaVuSans-51"/>
       <use x="63.623047" xlink:href="#DejaVuSans-48"/>
       <use x="127.246094" xlink:href="#DejaVuSans-48"/>
       <use x="190.869141" xlink:href="#DejaVuSans-48"/>
      </g>
     </g>
    </g>
    <g id="xtick_5">
     <g id="line2d_5">
      <g>
       <use style="stroke:#000000;stroke-width:0.8;" x="362.016293" xlink:href="#m8135d1e355" y="252"/>
      </g>
     </g>
     <g id="text_5">
      <!-- 4000 -->
      <defs>
       <path d="M 37.796875 64.3125 
L 12.890625 25.390625 
L 37.796875 25.390625 
z
M 35.203125 72.90625 
L 47.609375 72.90625 
L 47.609375 25.390625 
L 58.015625 25.390625 
L 58.015625 17.1875 
L 47.609375 17.1875 
L 47.609375 0 
L 37.796875 0 
L 37.796875 17.1875 
L 4.890625 17.1875 
L 4.890625 26.703125 
z
" id="DejaVuSans-52"/>
      </defs>
      <g transform="translate(349.291293 266.598437)scale(0.1 -0.1)">
       <use xlink:href="#DejaVuSans-52"/>
       <use x="63.623047" xlink:href="#DejaVuSans-48"/>
       <use x="127.246094" xlink:href="#DejaVuSans-48"/>
       <use x="190.869141" xlink:href="#DejaVuSans-48"/>
      </g>
     </g>
    </g>
   </g>
   <g id="matplotlib.axis_2">
    <g id="ytick_1">
     <g id="line2d_6">
      <defs>
       <path d="M 0 0 
L -3.5 0 
" id="m2800ca1744" style="stroke:#000000;stroke-width:0.8;"/>
      </defs>
      <g>
       <use style="stroke:#000000;stroke-width:0.8;" x="54" xlink:href="#m2800ca1744" y="221.696946"/>
      </g>
     </g>
     <g id="text_6">
      <!-- 3 -->
      <g transform="translate(40.6375 225.496165)scale(0.1 -0.1)">
       <use xlink:href="#DejaVuSans-51"/>
      </g>
     </g>
    </g>
    <g id="ytick_2">
     <g id="line2d_7">
      <g>
       <use style="stroke:#000000;stroke-width:0.8;" x="54" xlink:href="#m2800ca1744" y="182.369719"/>
      </g>
     </g>
     <g id="text_7">
      <!-- 4 -->
      <g transform="translate(40.6375 186.168938)scale(0.1 -0.1)">
       <use xlink:href="#DejaVuSans-52"/>
      </g>
     </g>
    </g>
    <g id="ytick_3">
     <g id="line2d_8">
      <g>
       <use style="stroke:#000000;stroke-width:0.8;" x="54" xlink:href="#m2800ca1744" y="143.042491"/>
      </g>
     </g>
     <g id="text_8">
      <!-- 5 -->
      <defs>
       <path d="M 10.796875 72.90625 
L 49.515625 72.90625 
L 49.515625 64.59375 
L 19.828125 64.59375 
L 19.828125 46.734375 
Q 21.96875 47.46875 24.109375 47.828125 
Q 26.265625 48.1875 28.421875 48.1875 
Q 40.625 48.1875 47.75 41.5 
Q 54.890625 34.8125 54.890625 23.390625 
Q 54.890625 11.625 47.5625 5.09375 
Q 40.234375 -1.421875 26.90625 -1.421875 
Q 22.3125 -1.421875 17.546875 -0.640625 
Q 12.796875 0.140625 7.71875 1.703125 
L 7.71875 11.625 
Q 12.109375 9.234375 16.796875 8.0625 
Q 21.484375 6.890625 26.703125 6.890625 
Q 35.15625 6.890625 40.078125 11.328125 
Q 45.015625 15.765625 45.015625 23.390625 
Q 45.015625 31 40.078125 35.4375 
Q 35.15625 39.890625 26.703125 39.890625 
Q 22.75 39.890625 18.8125 39.015625 
Q 14.890625 38.140625 10.796875 36.28125 
z
" id="DejaVuSans-53"/>
      </defs>
      <g transform="translate(40.6375 146.84171)scale(0.1 -0.1)">
       <use xlink:href="#DejaVuSans-53"/>
      </g>
     </g>
    </g>
    <g id="ytick_4">
     <g id="line2d_9">
      <g>
       <use style="stroke:#000000;stroke-width:0.8;" x="54" xlink:href="#m2800ca1744" y="103.715264"/>
      </g>
     </g>
     <g id="text_9">
      <!-- 6 -->
      <defs>
       <path d="M 33.015625 40.375 
Q 26.375 40.375 22.484375 35.828125 
Q 18.609375 31.296875 18.609375 23.390625 
Q 18.609375 15.53125 22.484375 10.953125 
Q 26.375 6.390625 33.015625 6.390625 
Q 39.65625 6.390625 43.53125 10.953125 
Q 47.40625 15.53125 47.40625 23.390625 
Q 47.40625 31.296875 43.53125 35.828125 
Q 39.65625 40.375 33.015625 40.375 
z
M 52.59375 71.296875 
L 52.59375 62.3125 
Q 48.875 64.0625 45.09375 64.984375 
Q 41.3125 65.921875 37.59375 65.921875 
Q 27.828125 65.921875 22.671875 59.328125 
Q 17.53125 52.734375 16.796875 39.40625 
Q 19.671875 43.65625 24.015625 45.921875 
Q 28.375 48.1875 33.59375 48.1875 
Q 44.578125 48.1875 50.953125 41.515625 
Q 57.328125 34.859375 57.328125 23.390625 
Q 57.328125 12.15625 50.6875 5.359375 
Q 44.046875 -1.421875 33.015625 -1.421875 
Q 20.359375 -1.421875 13.671875 8.265625 
Q 6.984375 17.96875 6.984375 36.375 
Q 6.984375 53.65625 15.1875 63.9375 
Q 23.390625 74.21875 37.203125 74.21875 
Q 40.921875 74.21875 44.703125 73.484375 
Q 48.484375 72.75 52.59375 71.296875 
z
" id="DejaVuSans-54"/>
      </defs>
      <g transform="translate(40.6375 107.514482)scale(0.1 -0.1)">
       <use xlink:href="#DejaVuSans-54"/>
      </g>
     </g>
    </g>
    <g id="ytick_5">
     <g id="line2d_10">
      <g>
       <use style="stroke:#000000;stroke-width:0.8;" x="54" xlink:href="#m2800ca1744" y="64.388036"/>
      </g>
     </g>
     <g id="text_10">
      <!-- 7 -->
      <defs>
       <path d="M 8.203125 72.90625 
L 55.078125 72.90625 
L 55.078125 68.703125 
L 28.609375 0 
L 18.3125 0 
L 43.21875 64.59375 
L 8.203125 64.59375 
z
" id="DejaVuSans-55"/>
      </defs>
      <g transform="translate(40.6375 68.187255)scale(0.1 -0.1)">
       <use xlink:href="#DejaVuSans-55"/>
      </g>
     </g>
    </g>
   </g>
   <g id="line2d_11">
    <path clip-path="url(#p1406512bd8)" d="M 69.218182 177.468742 
L 69.291381 123.66026 
L 69.364581 132.038508 
L 69.43778 156.497591 
L 69.51098 156.141805 
L 69.584179 138.280378 
L 69.657379 212.960247 
L 69.730579 125.167612 
L 69.803778 205.990375 
L 69.876978 179.971035 
L 69.950177 191.070222 
L 70.023377 134.395633 
L 70.096576 234.718428 
L 70.169776 167.83544 
L 70.242975 180.106322 
L 70.316175 228.341591 
L 70.389374 208.429393 
L 70.535773 101.075794 
L 70.755372 176.853439 
L 70.828571 114.752931 
L 70.901771 128.18961 
L 71.12137 203.808995 
L 71.194569 184.238287 
L 71.267769 235.709806 
L 71.414168 149.648103 
L 71.487367 186.005783 
L 71.560567 224.905526 
L 71.633766 177.625416 
L 71.706966 203.017936 
L 71.780165 86.490903 
L 71.926564 215.660476 
L 71.999764 223.458642 
L 72.146163 175.170621 
L 72.292562 231.01421 
L 72.365762 137.282209 
L 72.438961 172.687719 
L 72.512161 184.977401 
L 72.58536 100.621238 
L 72.65856 107.199176 
L 72.878158 226.753181 
L 72.951358 90.252539 
L 73.024557 228.288443 
L 73.097757 189.47319 
L 73.170956 208.411205 
L 73.390555 100.210357 
L 73.463754 242.116364 
L 73.536954 87.462851 
L 73.610153 158.756451 
L 73.683353 166.119521 
L 73.756553 211.548591 
L 73.829752 82.43489 
L 73.902952 105.031157 
L 74.049351 188.607024 
L 74.12255 108.096907 
L 74.19575 134.81855 
L 74.268949 193.475147 
L 74.342149 115.323886 
L 74.415348 232.093509 
L 74.488548 149.763045 
L 74.561747 171.483211 
L 74.634947 171.099811 
L 74.708146 155.18194 
L 74.781346 205.008074 
L 74.854545 147.696512 
L 75.000945 238.027498 
L 75.147344 156.501947 
L 75.220543 192.979435 
L 75.293743 187.157895 
L 75.366942 132.995293 
L 75.440142 179.996718 
L 75.513341 114.580508 
L 75.586541 142.463966 
L 75.65974 140.605899 
L 75.73294 143.236121 
L 75.806139 203.201797 
L 75.879339 197.837681 
L 76.025738 60.681786 
L 76.098937 123.275982 
L 76.172137 83.464429 
L 76.318536 148.380147 
L 76.391736 93.626866 
L 76.464935 210.910609 
L 76.611334 127.900078 
L 76.684534 152.003108 
L 76.757733 106.654125 
L 76.830933 156.179148 
L 76.904132 120.707108 
L 76.977332 137.823211 
L 77.050531 212.078049 
L 77.19693 66.390089 
L 77.343329 114.807907 
L 77.416529 170.3084 
L 77.489728 100.452585 
L 77.562928 161.90192 
L 77.636128 72.84518 
L 77.782527 179.534383 
L 77.855726 106.505319 
L 77.928926 169.960888 
L 78.002125 146.802271 
L 78.075325 101.131514 
L 78.148524 114.833638 
L 78.221724 86.757577 
L 78.294923 98.027695 
L 78.441322 141.287775 
L 78.514522 208.476486 
L 78.587721 153.548257 
L 78.660921 175.169466 
L 78.80732 110.169485 
L 78.953719 174.888662 
L 79.026919 138.775141 
L 79.173318 188.799884 
L 79.246517 124.67083 
L 79.466116 183.079828 
L 79.612515 142.174696 
L 79.758914 183.439971 
L 79.832113 172.204274 
L 79.905313 113.412248 
L 79.978512 133.149149 
L 80.051712 136.24109 
L 80.124911 151.88295 
L 80.198111 140.9328 
L 80.271311 162.399232 
L 80.564109 115.798898 
L 80.637308 86.69863 
L 80.710508 120.812844 
L 80.783707 117.758916 
L 80.856907 66.755995 
L 81.076505 183.451561 
L 81.149705 163.035218 
L 81.222904 159.180609 
L 81.296104 143.247202 
L 81.369303 154.764879 
L 81.442503 137.781955 
L 81.515702 141.706734 
L 81.588902 169.689388 
L 82.028099 65.784567 
L 82.174498 154.804995 
L 82.247698 152.078867 
L 82.320897 116.649365 
L 82.394097 123.454456 
L 82.467296 142.641599 
L 82.540496 122.174522 
L 82.613695 131.444171 
L 82.686895 139.445794 
L 82.760094 127.789887 
L 82.833294 175.140938 
L 82.906494 171.554255 
L 82.979693 172.649167 
L 83.052893 159.593699 
L 83.126092 55.33209 
L 83.199292 106.263359 
L 83.345691 171.225169 
L 83.41889 135.331128 
L 83.49209 146.283405 
L 83.565289 128.302396 
L 83.711688 172.689288 
L 83.784888 133.804442 
L 83.858087 135.538117 
L 83.931287 184.111695 
L 84.004486 169.706522 
L 84.224085 115.675131 
L 84.297285 129.212145 
L 84.370484 87.63816 
L 84.443684 168.106509 
L 84.516883 114.197083 
L 84.590083 132.903306 
L 84.663282 124.486835 
L 84.736482 125.665705 
L 84.809681 84.501861 
L 84.882881 129.243599 
L 84.95608 64.706686 
L 85.102479 179.769808 
L 85.175679 172.19268 
L 85.248878 87.939357 
L 85.395277 162.199775 
L 85.468477 161.168557 
L 85.541677 118.318685 
L 85.688076 171.466026 
L 85.761275 121.047642 
L 85.834475 157.31218 
L 85.980874 95.703263 
L 86.054073 168.464022 
L 86.127273 138.632907 
L 86.200472 165.65065 
L 86.273672 143.609847 
L 86.346871 169.223111 
L 86.56647 99.375755 
L 86.639669 114.130071 
L 86.712869 80.180157 
L 86.786068 138.693581 
L 86.859268 105.937223 
L 87.078867 144.647479 
L 87.152066 141.617555 
L 87.225266 142.463076 
L 87.298465 68.866864 
L 87.371665 198.872185 
L 87.444864 155.265501 
L 87.518064 98.750264 
L 87.591263 119.157887 
L 87.664463 165.348444 
L 87.737662 106.71981 
L 87.810862 170.69973 
L 87.957261 102.28588 
L 88.03046 157.825714 
L 88.10366 146.416543 
L 88.17686 104.173786 
L 88.250059 123.675461 
L 88.396458 187.813108 
L 88.542857 75.852932 
L 88.616057 98.891393 
L 88.689256 147.598573 
L 88.762456 105.721547 
L 88.908855 172.493214 
L 88.982054 120.552709 
L 89.055254 126.255868 
L 89.128453 119.301029 
L 89.201653 187.016712 
L 89.274852 128.346249 
L 89.348052 161.154288 
L 89.421251 123.025734 
L 89.567651 174.703568 
L 89.71405 129.339528 
L 89.860449 180.806641 
L 90.006848 183.889267 
L 90.080047 147.3532 
L 90.153247 167.630949 
L 90.226446 158.543823 
L 90.299646 142.27001 
L 90.372845 144.803902 
L 90.446045 148.08943 
L 90.519244 133.206064 
L 90.592444 171.860792 
L 90.665643 171.383279 
L 90.738843 105.777906 
L 90.812043 169.859821 
L 90.885242 153.717889 
L 90.958442 157.18272 
L 91.031641 116.81978 
L 91.17804 180.519304 
L 91.25124 144.216771 
L 91.324439 152.20697 
L 91.397639 186.630119 
L 91.470838 124.887838 
L 91.617237 190.386506 
L 91.763636 109.454634 
L 91.836836 115.808487 
L 91.910035 189.355767 
L 91.983235 114.463467 
L 92.056434 149.286467 
L 92.129634 145.982671 
L 92.202834 125.021095 
L 92.349233 195.733717 
L 92.422432 135.132205 
L 92.495632 165.762858 
L 92.642031 116.591353 
L 92.861629 182.480728 
L 92.934829 107.102095 
L 93.008028 175.020899 
L 93.081228 151.458559 
L 93.154427 145.423216 
L 93.227627 127.780807 
L 93.300826 135.299445 
L 93.374026 134.92568 
L 93.447226 135.916804 
L 93.520425 201.360996 
L 93.740024 114.419964 
L 93.886423 190.44298 
L 94.032822 116.24371 
L 94.106021 198.84058 
L 94.179221 176.151033 
L 94.398819 101.34396 
L 94.545218 161.192564 
L 94.691617 107.563745 
L 94.764817 127.615519 
L 94.838017 82.53913 
L 94.911216 87.535472 
L 94.984416 179.857437 
L 95.057615 143.569455 
L 95.130815 150.339101 
L 95.204014 147.986557 
L 95.277214 79.102475 
L 95.350413 91.192118 
L 95.496812 138.711078 
L 95.570012 83.872305 
L 95.716411 166.905649 
L 95.78961 103.614318 
L 95.86281 155.301287 
L 95.936009 129.614214 
L 96.082409 181.245679 
L 96.228808 74.885866 
L 96.302007 155.041306 
L 96.375207 137.275068 
L 96.521606 163.482403 
L 96.594805 87.526876 
L 96.668005 89.463216 
L 96.814404 180.758563 
L 96.887603 106.336876 
L 96.960803 159.798456 
L 97.034002 156.160498 
L 97.107202 97.476137 
L 97.180401 119.402917 
L 97.253601 83.043545 
L 97.4 191.835944 
L 97.619599 161.469885 
L 97.692798 181.663179 
L 97.765998 145.091356 
L 97.839197 171.791632 
L 97.912397 114.020517 
L 97.985596 136.026086 
L 98.058796 103.874565 
L 98.131995 170.462207 
L 98.205195 147.805562 
L 98.351594 173.83779 
L 98.497993 88.812959 
L 98.644392 165.862699 
L 98.717591 151.815494 
L 98.790791 84.861995 
L 98.863991 92.676603 
L 98.93719 124.832694 
L 99.01039 92.047252 
L 99.083589 163.383012 
L 99.156789 155.133353 
L 99.229988 105.894344 
L 99.303188 190.379613 
L 99.376387 130.988358 
L 99.449587 184.244308 
L 99.522786 124.42326 
L 99.595986 181.112123 
L 99.742385 104.176344 
L 99.815584 124.829767 
L 99.888784 99.652049 
L 100.035183 169.772415 
L 100.108383 98.17194 
L 100.181582 117.140867 
L 100.254782 99.78551 
L 100.327981 160.730406 
L 100.401181 141.031234 
L 100.47438 97.891181 
L 100.693979 192.725617 
L 100.767178 163.980482 
L 100.840378 187.872339 
L 100.986777 112.534086 
L 101.133176 156.864978 
L 101.206375 152.524125 
L 101.279575 200.411714 
L 101.352774 171.993873 
L 101.425974 197.831051 
L 101.499174 89.318721 
L 101.572373 130.426393 
L 101.645573 91.72341 
L 101.791972 127.621719 
L 101.865171 116.727245 
L 101.938371 177.90539 
L 102.01157 163.05363 
L 102.08477 92.435278 
L 102.231169 178.799665 
L 102.304368 91.596314 
L 102.377568 120.25467 
L 102.523967 185.387855 
L 102.670366 110.661482 
L 102.743566 96.665832 
L 102.889965 162.601357 
L 103.109563 102.281743 
L 103.329162 188.233147 
L 103.402361 129.242779 
L 103.475561 151.29857 
L 103.54876 108.905402 
L 103.62196 121.633669 
L 103.695159 118.210649 
L 103.768359 180.850219 
L 103.914758 141.219404 
L 103.987957 188.467892 
L 104.061157 123.043499 
L 104.134357 144.404857 
L 104.207556 176.755323 
L 104.280756 101.258766 
L 104.500354 187.273518 
L 104.573554 103.256118 
L 104.646753 157.693874 
L 104.719953 143.904321 
L 104.793152 86.635712 
L 104.866352 158.225941 
L 104.939551 151.136478 
L 105.012751 143.467239 
L 105.08595 187.020097 
L 105.15915 100.399019 
L 105.232349 160.356881 
L 105.305549 145.577339 
L 105.378749 181.247143 
L 105.598347 80.549493 
L 105.671547 132.192164 
L 105.744746 97.069608 
L 105.817946 100.206887 
L 105.891145 147.78013 
L 105.964345 115.369225 
L 106.110744 172.012776 
L 106.183943 104.529016 
L 106.403542 190.242392 
L 106.549941 124.473545 
L 106.69634 130.413218 
L 106.76954 190.117613 
L 106.915939 112.401751 
L 106.989138 136.500498 
L 107.062338 106.973015 
L 107.135537 116.532938 
L 107.208737 180.99871 
L 107.281936 132.752812 
L 107.355136 178.757201 
L 107.501535 149.771004 
L 107.574734 158.634752 
L 107.647934 152.635464 
L 107.721133 121.77058 
L 107.794333 140.232707 
L 107.867532 87.053612 
L 108.013932 169.311911 
L 108.087131 80.063076 
L 108.160331 85.988649 
L 108.23353 164.118541 
L 108.30673 144.903007 
L 108.379929 144.010403 
L 108.453129 134.010712 
L 108.526328 147.894646 
L 108.599528 141.050264 
L 108.672727 135.384215 
L 108.745927 159.361161 
L 108.819126 121.381346 
L 108.965525 186.86101 
L 109.038725 130.075397 
L 109.111924 135.888761 
L 109.258323 177.109685 
L 109.477922 130.797616 
L 109.551122 154.737049 
L 109.624321 140.09567 
L 109.697521 146.804961 
L 109.77072 173.88616 
L 109.84392 151.871333 
L 109.917119 174.87661 
L 109.990319 149.511236 
L 110.063518 160.358097 
L 110.136718 172.744983 
L 110.283117 104.547062 
L 110.356316 174.835752 
L 110.429516 159.354354 
L 110.502715 138.746979 
L 110.575915 151.978799 
L 110.649115 149.490893 
L 110.722314 101.461509 
L 110.941913 189.980185 
L 111.015112 172.104936 
L 111.088312 195.683676 
L 111.161511 183.258604 
L 111.30791 90.80986 
L 111.38111 136.225175 
L 111.454309 124.134443 
L 111.527509 131.321653 
L 111.673908 165.061528 
L 111.747107 119.264665 
L 111.820307 171.219381 
L 111.893506 115.422305 
L 111.966706 173.049217 
L 112.039906 171.878052 
L 112.186305 96.753777 
L 112.259504 185.4643 
L 112.332704 181.05075 
L 112.405903 104.12596 
L 112.479103 165.409728 
L 112.552302 111.975214 
L 112.625502 160.783993 
L 112.698701 112.183326 
L 112.8451 176.704567 
L 112.9183 126.212182 
L 112.991499 136.781818 
L 113.064699 167.274064 
L 113.137898 126.517508 
L 113.284298 164.16233 
L 113.357497 89.310414 
L 113.430697 124.067074 
L 113.503896 134.134694 
L 113.577096 182.57035 
L 113.650295 160.884324 
L 113.723495 158.108399 
L 113.869894 119.943679 
L 113.943093 172.141732 
L 114.016293 114.57901 
L 114.162692 161.21094 
L 114.235891 112.975336 
L 114.38229 179.626292 
L 114.45549 101.618576 
L 114.528689 103.090426 
L 114.601889 199.300753 
L 114.675089 118.029372 
L 114.748288 163.285739 
L 114.821488 149.446777 
L 114.894687 145.999934 
L 114.967887 63.738082 
L 115.041086 148.612651 
L 115.114286 143.256772 
L 115.187485 125.23111 
L 115.260685 173.602405 
L 115.333884 104.581547 
L 115.407084 119.00928 
L 115.553483 157.789356 
L 115.773081 98.598649 
L 115.846281 198.710144 
L 115.919481 154.731831 
L 115.99268 142.591026 
L 116.06588 144.96009 
L 116.139079 153.891758 
L 116.212279 191.580909 
L 116.285478 153.292054 
L 116.358678 164.542052 
L 116.431877 162.658404 
L 116.505077 142.630311 
L 116.578276 76.4967 
L 116.651476 173.048923 
L 116.724675 106.908988 
L 116.797875 202.600821 
L 116.871074 121.352377 
L 116.944274 122.091166 
L 117.017473 162.484513 
L 117.090673 117.677235 
L 117.163872 120.686162 
L 117.237072 105.492835 
L 117.310272 111.597599 
L 117.456671 182.700076 
L 117.52987 162.322335 
L 117.60307 164.502473 
L 117.676269 84.711665 
L 117.749469 163.193132 
L 117.822668 144.047968 
L 117.895868 144.605487 
L 117.969067 116.517214 
L 118.042267 161.438041 
L 118.115466 133.930896 
L 118.261865 177.303015 
L 118.335065 125.701234 
L 118.408264 158.467592 
L 118.481464 158.155393 
L 118.554664 163.548517 
L 118.701063 106.273052 
L 118.774262 176.287302 
L 118.847462 167.352061 
L 118.920661 89.548771 
L 118.993861 205.002806 
L 119.06706 148.554578 
L 119.14026 191.319141 
L 119.359858 94.586024 
L 119.433058 177.987821 
L 119.506257 137.252085 
L 119.579457 98.396137 
L 119.652656 103.46606 
L 119.725856 190.324667 
L 119.799055 122.717376 
L 119.872255 149.51523 
L 120.018654 110.560288 
L 120.165053 145.447935 
L 120.238253 127.375796 
L 120.384652 194.835086 
L 120.457851 125.341644 
L 120.531051 157.621629 
L 120.60425 154.883884 
L 120.67745 116.940572 
L 120.823849 171.861188 
L 121.043447 138.014492 
L 121.116647 105.112173 
L 121.263046 163.674548 
L 121.336246 133.481226 
L 121.409445 158.642955 
L 121.482645 133.784592 
L 121.629044 188.526068 
L 121.702243 76.516065 
L 121.848642 196.998586 
L 121.921842 147.602515 
L 121.995041 164.349947 
L 122.068241 142.907456 
L 122.14144 79.773355 
L 122.287839 149.692424 
L 122.361039 110.278145 
L 122.434238 121.421863 
L 122.507438 115.611323 
L 122.580638 165.096371 
L 122.653837 60.91662 
L 122.727037 172.110875 
L 122.800236 133.87098 
L 122.873436 144.146613 
L 123.019835 184.505925 
L 123.093034 113.231937 
L 123.166234 143.169325 
L 123.312633 98.45089 
L 123.532231 158.942041 
L 123.605431 155.268631 
L 123.67863 166.439998 
L 123.75183 134.030488 
L 123.898229 190.368274 
L 123.971429 120.583563 
L 124.117828 171.798309 
L 124.191027 91.069879 
L 124.337426 201.664753 
L 124.483825 100.314975 
L 124.557025 111.357133 
L 124.630224 143.357297 
L 124.849823 65.866323 
L 124.923022 72.108341 
L 125.069421 145.920256 
L 125.142621 63.79621 
L 125.215821 117.642805 
L 125.28902 75.70063 
L 125.435419 145.924524 
L 125.581818 125.969827 
L 125.655018 179.919641 
L 125.728217 105.638631 
L 125.801417 134.118761 
L 125.874616 158.243587 
L 125.947816 149.994183 
L 126.021015 158.715325 
L 126.167414 118.070645 
L 126.240614 167.954276 
L 126.387013 75.689515 
L 126.460213 113.832386 
L 126.533412 163.486203 
L 126.606612 148.681667 
L 126.679811 156.395337 
L 126.753011 136.827537 
L 126.82621 153.94037 
L 126.89941 115.853662 
L 127.045809 187.992956 
L 127.192208 117.512416 
L 127.265407 112.808757 
L 127.338607 148.45437 
L 127.411806 57.20301 
L 127.558205 184.974158 
L 127.631405 84.232595 
L 127.704604 174.548846 
L 127.777804 157.651089 
L 127.997403 68.937641 
L 128.217001 153.038882 
L 128.3634 119.638019 
L 128.582999 169.667614 
L 128.656198 163.788642 
L 128.729398 201.732628 
L 128.948996 143.340506 
L 129.022196 188.491828 
L 129.095396 169.643558 
L 129.168595 70.499059 
L 129.241795 74.808976 
L 129.388194 194.895301 
L 129.461393 104.661722 
L 129.534593 168.272361 
L 129.607792 79.982623 
L 129.680992 119.956449 
L 129.754191 161.065674 
L 129.827391 145.811749 
L 129.90059 132.636821 
L 129.97379 98.294565 
L 130.046989 141.79643 
L 130.120189 131.971778 
L 130.193388 94.67712 
L 130.266588 166.548596 
L 130.339787 152.123608 
L 130.412987 80.547506 
L 130.486187 163.051482 
L 130.559386 142.76766 
L 130.632586 120.93793 
L 130.705785 171.224402 
L 130.778985 161.315944 
L 130.852184 155.919279 
L 130.998583 119.701334 
L 131.071783 186.62352 
L 131.144982 161.254835 
L 131.218182 98.844419 
L 131.291381 126.835826 
L 131.43778 169.602483 
L 131.584179 86.013202 
L 131.657379 151.25057 
L 131.730579 105.804635 
L 131.950177 175.274398 
L 132.023377 97.33294 
L 132.242975 182.893648 
L 132.316175 159.926904 
L 132.389374 195.924866 
L 132.462574 62.1885 
L 132.535773 163.772172 
L 132.608973 109.136289 
L 132.682172 175.786782 
L 132.755372 99.287942 
L 132.828571 106.342057 
L 132.901771 78.15491 
L 132.97497 130.772281 
L 133.04817 125.929873 
L 133.12137 101.939338 
L 133.194569 172.972492 
L 133.267769 147.172187 
L 133.340968 152.573187 
L 133.414168 104.634403 
L 133.487367 138.61062 
L 133.560567 87.607217 
L 133.633766 179.077682 
L 133.706966 91.517025 
L 133.780165 114.70735 
L 133.926564 176.541089 
L 133.999764 114.192028 
L 134.146163 184.297516 
L 134.219362 192.249094 
L 134.292562 133.564047 
L 134.365762 149.290392 
L 134.512161 181.038238 
L 134.65856 86.11504 
L 134.731759 104.271467 
L 134.804959 88.146093 
L 134.951358 164.645434 
L 135.024557 155.123398 
L 135.097757 88.375795 
L 135.170956 112.239238 
L 135.317355 168.046511 
L 135.390555 113.461571 
L 135.463754 120.050355 
L 135.610153 163.883199 
L 135.756553 111.86747 
L 135.976151 179.472004 
L 136.049351 58.093245 
L 136.12255 127.873178 
L 136.19575 121.578523 
L 136.342149 196.101548 
L 136.488548 57.977494 
L 136.561747 164.504665 
L 136.634947 138.398111 
L 136.708146 116.424507 
L 136.781346 139.033501 
L 136.854545 126.707805 
L 136.927745 93.2682 
L 137.000945 180.8911 
L 137.220543 104.702403 
L 137.293743 107.891988 
L 137.513341 185.438801 
L 137.65974 116.515864 
L 137.73294 169.056732 
L 137.879339 75.274834 
L 137.952538 128.014012 
L 138.025738 105.267009 
L 138.098937 90.150907 
L 138.172137 126.967504 
L 138.245336 94.92026 
L 138.318536 169.927052 
L 138.391736 100.326606 
L 138.464935 117.2271 
L 138.538135 138.822546 
L 138.611334 91.824596 
L 138.684534 158.756956 
L 138.757733 137.31429 
L 138.830933 130.277772 
L 138.977332 175.248715 
L 139.050531 164.929741 
L 139.123731 78.918179 
L 139.19693 109.933514 
L 139.27013 74.713227 
L 139.489728 178.718052 
L 139.562928 89.186405 
L 139.636128 129.168608 
L 139.709327 160.286365 
L 139.928926 66.069773 
L 140.002125 177.426627 
L 140.075325 139.075979 
L 140.148524 75.005864 
L 140.221724 121.431753 
L 140.294923 87.715042 
L 140.441322 180.863728 
L 140.514522 165.820524 
L 140.587721 130.474746 
L 140.660921 183.303775 
L 140.73412 179.600912 
L 140.80732 80.351313 
L 140.880519 125.308825 
L 140.953719 125.681498 
L 141.026919 99.521988 
L 141.100118 133.177715 
L 141.173318 91.098515 
L 141.246517 137.248599 
L 141.319717 121.457671 
L 141.392916 135.201774 
L 141.466116 104.13077 
L 141.539315 143.395468 
L 141.612515 134.317588 
L 141.685714 153.837945 
L 141.832113 77.153704 
L 141.905313 150.506822 
L 141.978512 126.336987 
L 142.051712 110.908649 
L 142.198111 175.777467 
L 142.271311 78.448035 
L 142.34451 140.219874 
L 142.41771 136.905211 
L 142.490909 119.533355 
L 142.564109 133.141874 
L 142.637308 74.733525 
L 142.783707 159.613296 
L 142.856907 119.245725 
L 142.930106 187.504808 
L 143.003306 130.554429 
L 143.076505 191.550684 
L 143.149705 139.254387 
L 143.222904 169.538802 
L 143.442503 118.140541 
L 143.515702 188.033466 
L 143.588902 66.798402 
L 143.662102 110.671607 
L 143.735301 155.441545 
L 143.8817 98.356319 
L 144.028099 155.587239 
L 144.101299 83.579673 
L 144.247698 157.274227 
L 144.320897 158.157587 
L 144.467296 105.817619 
L 144.540496 110.188278 
L 144.613695 169.338471 
L 144.686895 148.935518 
L 144.760094 161.767289 
L 144.833294 51.405605 
L 144.979693 148.216759 
L 145.052893 110.890644 
L 145.199292 156.976404 
L 145.272491 158.634632 
L 145.345691 144.75395 
L 145.49209 184.85962 
L 145.565289 161.562144 
L 145.638489 84.789526 
L 145.711688 113.660615 
L 145.784888 160.17172 
L 145.858087 147.71291 
L 145.931287 130.19876 
L 146.077686 159.602383 
L 146.224085 95.038659 
L 146.370484 159.12418 
L 146.443684 157.547327 
L 146.516883 155.375045 
L 146.663282 117.189296 
L 146.736482 149.995796 
L 146.809681 149.101235 
L 147.02928 174.269016 
L 147.175679 150.600365 
L 147.248878 169.923046 
L 147.468477 90.627081 
L 147.614876 199.995196 
L 147.688076 171.685194 
L 147.761275 71.053924 
L 147.834475 107.429848 
L 147.980874 150.012855 
L 148.127273 123.180262 
L 148.200472 170.774561 
L 148.273672 87.018877 
L 148.346871 173.579078 
L 148.420071 152.980656 
L 148.49327 135.697777 
L 148.56647 185.518059 
L 148.639669 135.077754 
L 148.712869 209.199691 
L 149.005667 83.372995 
L 149.152066 138.815171 
L 149.225266 108.225142 
L 149.298465 114.716929 
L 149.444864 77.373109 
L 149.591263 152.328099 
L 149.664463 93.642752 
L 149.810862 157.057735 
L 149.957261 72.936613 
L 150.03046 110.418153 
L 150.10366 146.417481 
L 150.17686 121.464658 
L 150.250059 180.029098 
L 150.323259 108.902305 
L 150.396458 129.298079 
L 150.469658 97.7234 
L 150.542857 107.539257 
L 150.689256 136.146122 
L 150.762456 166.767882 
L 150.908855 129.786604 
L 150.982054 198.378754 
L 151.128453 97.97525 
L 151.421251 159.403068 
L 151.494451 133.888188 
L 151.567651 172.760605 
L 151.64085 171.728612 
L 151.71405 65.920122 
L 151.787249 168.160819 
L 151.860449 110.798006 
L 151.933648 176.423222 
L 152.006848 161.806014 
L 152.080047 143.357406 
L 152.153247 179.076395 
L 152.226446 117.466932 
L 152.299646 158.137247 
L 152.519244 94.429922 
L 152.812043 169.378415 
L 153.031641 134.060207 
L 153.17804 93.42387 
L 153.397639 171.430222 
L 153.544038 128.174884 
L 153.617237 148.310315 
L 153.690437 126.11384 
L 153.836836 198.857739 
L 153.910035 149.489511 
L 153.983235 157.116572 
L 154.056434 154.818924 
L 154.129634 117.520999 
L 154.276033 173.156874 
L 154.349233 184.631839 
L 154.495632 139.671812 
L 154.568831 166.902624 
L 154.642031 109.610983 
L 154.71523 128.05394 
L 154.861629 116.864261 
L 154.934829 162.681252 
L 155.008028 126.189223 
L 155.081228 154.028454 
L 155.154427 147.932841 
L 155.227627 157.782721 
L 155.374026 89.897262 
L 155.447226 179.905195 
L 155.520425 134.555643 
L 155.593625 175.784757 
L 155.740024 136.37308 
L 155.813223 158.295266 
L 155.886423 109.91177 
L 155.959622 170.018209 
L 156.032822 94.489007 
L 156.106021 190.071668 
L 156.179221 168.323052 
L 156.25242 130.407977 
L 156.32562 167.994701 
L 156.472019 120.893796 
L 156.545218 179.377724 
L 156.618418 93.970553 
L 156.691617 131.636576 
L 156.764817 108.625203 
L 156.984416 193.257742 
L 157.057615 140.060845 
L 157.130815 168.004847 
L 157.204014 142.491778 
L 157.277214 68.959568 
L 157.423613 177.782293 
L 157.496812 105.154917 
L 157.570012 154.203337 
L 157.643211 71.561754 
L 157.716411 133.618003 
L 157.78961 129.295764 
L 157.86281 117.382192 
L 157.936009 191.890971 
L 158.009209 103.836917 
L 158.155608 183.550884 
L 158.302007 85.792424 
L 158.375207 92.846232 
L 158.448406 122.856081 
L 158.521606 83.898378 
L 158.594805 97.259826 
L 158.741204 179.078328 
L 158.814404 125.096522 
L 158.887603 151.10518 
L 159.034002 174.204401 
L 159.253601 109.038507 
L 159.4 156.763819 
L 159.4732 106.175908 
L 159.546399 149.493419 
L 159.619599 144.960508 
L 159.692798 127.610141 
L 159.765998 144.662937 
L 159.839197 134.87112 
L 159.912397 174.802384 
L 159.985596 117.758297 
L 160.058796 149.928373 
L 160.131995 134.961768 
L 160.278394 174.823423 
L 160.351594 127.511791 
L 160.424793 129.765137 
L 160.644392 196.66559 
L 160.717591 185.580039 
L 160.863991 86.668901 
L 160.93719 168.147613 
L 161.01039 152.853954 
L 161.083589 134.562039 
L 161.156789 159.307675 
L 161.229988 125.250063 
L 161.303188 192.092493 
L 161.376387 68.483446 
L 161.595986 176.958766 
L 161.742385 64.736879 
L 161.815584 158.600191 
L 161.961983 82.478005 
L 162.108383 195.648377 
L 162.254782 113.97888 
L 162.327981 97.86344 
L 162.401181 165.673314 
L 162.47438 157.160279 
L 162.54758 93.708889 
L 162.620779 180.777387 
L 162.767178 82.868882 
L 162.840378 155.745085 
L 162.913577 148.002771 
L 162.986777 139.598607 
L 163.059976 85.139052 
L 163.206375 171.292747 
L 163.279575 116.170666 
L 163.352774 145.129902 
L 163.425974 126.887955 
L 163.499174 78.297885 
L 163.645573 157.453948 
L 163.791972 93.018837 
L 163.865171 130.659495 
L 163.938371 88.09426 
L 164.08477 186.369791 
L 164.304368 72.845372 
L 164.377568 157.518545 
L 164.450767 144.526844 
L 164.523967 122.262717 
L 164.597166 138.5953 
L 164.670366 133.733265 
L 164.743566 107.351079 
L 164.816765 172.953075 
L 164.963164 103.006378 
L 165.036364 179.513811 
L 165.109563 147.887142 
L 165.182763 91.277402 
L 165.255962 181.114101 
L 165.329162 149.661432 
L 165.402361 100.275064 
L 165.475561 154.751708 
L 165.54876 151.05782 
L 165.62196 129.30531 
L 165.695159 56.553253 
L 165.768359 148.290992 
L 165.841558 129.020749 
L 166.207556 202.293726 
L 166.280756 152.02491 
L 166.353955 164.373175 
L 166.500354 185.824821 
L 166.719953 75.620755 
L 166.793152 90.378243 
L 166.939551 183.005683 
L 167.15915 120.086545 
L 167.378749 202.582566 
L 167.451948 109.984648 
L 167.525148 154.430685 
L 167.598347 162.339975 
L 167.671547 153.270527 
L 167.744746 109.144742 
L 167.817946 116.348125 
L 167.891145 176.968556 
L 168.037544 116.226346 
L 168.110744 153.422314 
L 168.183943 73.806741 
L 168.330342 173.901659 
L 168.403542 106.071493 
L 168.476741 118.348231 
L 168.549941 106.065406 
L 168.62314 148.163229 
L 168.69634 145.015019 
L 168.76954 113.398338 
L 168.842739 154.460162 
L 168.915939 137.351255 
L 168.989138 130.623445 
L 169.062338 158.805227 
L 169.135537 123.488741 
L 169.281936 163.755852 
L 169.355136 138.568445 
L 169.428335 168.45525 
L 169.501535 165.731016 
L 169.574734 127.135336 
L 169.647934 146.012301 
L 169.721133 159.298789 
L 169.794333 145.318983 
L 169.867532 184.054494 
L 169.940732 98.248543 
L 170.013932 107.928886 
L 170.087131 173.10926 
L 170.160331 97.253924 
L 170.23353 104.542183 
L 170.30673 104.322353 
L 170.379929 127.838016 
L 170.453129 89.406021 
L 170.599528 175.737058 
L 170.745927 45.88213 
L 170.819126 170.671166 
L 170.892326 143.6248 
L 170.965525 135.226798 
L 171.038725 90.297353 
L 171.111924 91.88035 
L 171.185124 151.345217 
L 171.258323 61.698817 
L 171.331523 134.171423 
L 171.404723 97.864381 
L 171.477922 151.576362 
L 171.551122 85.319082 
L 171.624321 149.45302 
L 171.697521 91.937204 
L 171.84392 168.873863 
L 171.917119 97.775935 
L 171.990319 125.120145 
L 172.136718 100.300366 
L 172.209917 133.956236 
L 172.283117 110.088463 
L 172.356316 113.38699 
L 172.429516 113.9714 
L 172.502715 178.509741 
L 172.575915 87.109658 
L 172.649115 164.510322 
L 172.722314 111.215782 
L 172.868713 160.84656 
L 172.941913 154.693411 
L 173.015112 123.525394 
L 173.088312 181.274351 
L 173.234711 85.504006 
L 173.30791 96.75224 
L 173.38111 154.465028 
L 173.527509 97.104244 
L 173.600708 173.729888 
L 173.673908 91.059131 
L 173.820307 185.295621 
L 173.966706 117.773993 
L 174.113105 162.791335 
L 174.259504 114.831267 
L 174.332704 141.235753 
L 174.479103 72.340408 
L 174.625502 173.2122 
L 174.698701 160.19106 
L 174.771901 144.136467 
L 174.8451 72.121015 
L 174.991499 159.978541 
L 175.064699 173.105891 
L 175.211098 76.833815 
L 175.284298 152.961311 
L 175.357497 123.865213 
L 175.503896 130.678756 
L 175.650295 81.839875 
L 175.723495 95.292983 
L 175.869894 165.020331 
L 175.943093 120.164985 
L 176.016293 150.686144 
L 176.235891 104.02701 
L 176.45549 184.328738 
L 176.601889 78.668522 
L 176.748288 130.180469 
L 176.821488 123.826182 
L 176.967887 174.196268 
L 177.041086 145.219146 
L 177.114286 175.734148 
L 177.187485 65.097492 
L 177.260685 92.604415 
L 177.333884 158.019374 
L 177.407084 115.221774 
L 177.480283 179.125803 
L 177.553483 154.956416 
L 177.626682 191.418652 
L 177.699882 127.41168 
L 177.773081 161.731266 
L 177.846281 138.202406 
L 177.99268 175.15681 
L 178.212279 119.507552 
L 178.285478 179.703744 
L 178.358678 149.761789 
L 178.431877 94.729304 
L 178.505077 178.264275 
L 178.578276 155.724891 
L 178.724675 187.005937 
L 178.944274 101.468253 
L 179.017473 173.021159 
L 179.090673 139.613704 
L 179.163872 169.248062 
L 179.310272 139.735342 
L 179.383471 146.458096 
L 179.456671 55.699284 
L 179.60307 194.256665 
L 179.676269 72.630408 
L 179.749469 145.395357 
L 179.822668 144.39432 
L 179.895868 179.630419 
L 179.969067 179.364694 
L 180.042267 172.930155 
L 180.115466 84.829805 
L 180.188666 176.293264 
L 180.261865 146.099891 
L 180.408264 123.133736 
L 180.554664 164.139111 
L 180.701063 102.945086 
L 180.774262 137.375763 
L 180.847462 110.300164 
L 181.14026 202.585686 
L 181.213459 145.512262 
L 181.286659 146.580486 
L 181.359858 130.39683 
L 181.433058 82.874724 
L 181.506257 166.220515 
L 181.579457 155.793099 
L 181.725856 85.206415 
L 181.799055 91.302207 
L 181.872255 153.131881 
L 181.945455 135.686403 
L 182.018654 135.264994 
L 182.091854 173.304683 
L 182.165053 167.307954 
L 182.238253 83.443814 
L 182.384652 173.412641 
L 182.457851 101.753359 
L 182.60425 180.72967 
L 182.67745 78.067766 
L 182.750649 84.453918 
L 182.897048 166.58149 
L 182.970248 159.514211 
L 183.116647 130.11555 
L 183.189847 85.546403 
L 183.263046 110.180302 
L 183.336246 205.235869 
L 183.409445 107.832839 
L 183.482645 169.902839 
L 183.555844 87.231087 
L 183.702243 166.800984 
L 183.775443 133.931787 
L 183.848642 189.272144 
L 183.995041 113.899006 
L 184.068241 156.672628 
L 184.14144 140.420608 
L 184.21464 110.54172 
L 184.287839 168.660861 
L 184.361039 146.27321 
L 184.434238 121.737948 
L 184.507438 147.135401 
L 184.580638 82.439998 
L 184.653837 152.687193 
L 184.727037 87.588343 
L 184.800236 134.085126 
L 184.873436 108.437793 
L 185.019835 165.284957 
L 185.093034 138.818083 
L 185.166234 93.07549 
L 185.239433 188.935146 
L 185.312633 164.883422 
L 185.459032 119.133719 
L 185.532231 150.961611 
L 185.605431 147.449122 
L 185.75183 93.699274 
L 185.82503 130.444382 
L 185.898229 100.124536 
L 185.971429 115.358454 
L 186.044628 114.080875 
L 186.117828 179.791917 
L 186.191027 161.643444 
L 186.337426 111.79641 
L 186.410626 125.251859 
L 186.557025 84.652846 
L 186.630224 162.4324 
L 186.703424 145.613382 
L 186.776623 119.651232 
L 186.849823 159.983189 
L 186.996222 121.132194 
L 187.142621 146.543512 
L 187.215821 148.000162 
L 187.28902 134.072135 
L 187.36222 176.517012 
L 187.508619 118.8025 
L 187.728217 144.976784 
L 187.801417 143.966516 
L 187.874616 90.654318 
L 187.947816 176.731406 
L 188.021015 149.138471 
L 188.094215 133.740055 
L 188.167414 155.997047 
L 188.240614 107.1339 
L 188.313813 190.755626 
L 188.387013 150.501224 
L 188.460213 117.173638 
L 188.679811 178.829847 
L 188.753011 165.386305 
L 188.82621 188.671725 
L 188.972609 126.855031 
L 189.045809 172.165029 
L 189.192208 83.887254 
L 189.265407 143.188797 
L 189.338607 86.691849 
L 189.411806 160.812519 
L 189.485006 157.133743 
L 189.558205 92.414637 
L 189.631405 128.576745 
L 189.777804 86.23444 
L 189.997403 158.932856 
L 190.070602 133.707494 
L 190.143802 136.148729 
L 190.217001 155.119369 
L 190.3634 92.936147 
L 190.656198 166.367057 
L 190.729398 128.721733 
L 190.802597 154.884305 
L 190.875797 65.739023 
L 190.948996 109.043745 
L 191.022196 155.046448 
L 191.095396 145.246221 
L 191.168595 135.570113 
L 191.241795 176.10544 
L 191.461393 96.213329 
L 191.754191 181.518407 
L 191.827391 97.007503 
L 191.90059 171.39436 
L 191.97379 159.514958 
L 192.120189 96.023249 
L 192.193388 172.699572 
L 192.266588 149.707453 
L 192.339787 142.148101 
L 192.412987 122.918224 
L 192.486187 167.20234 
L 192.559386 102.908131 
L 192.705785 178.253208 
L 192.778985 126.911648 
L 192.852184 160.096298 
L 192.925384 156.936623 
L 192.998583 101.488442 
L 193.071783 145.381992 
L 193.144982 101.367062 
L 193.218182 198.350124 
L 193.291381 158.990817 
L 193.364581 158.936773 
L 193.43778 185.007509 
L 193.584179 97.820926 
L 193.730579 168.84998 
L 193.876978 55.311008 
L 193.950177 84.094453 
L 194.096576 122.344637 
L 194.169776 87.103184 
L 194.316175 153.370215 
L 194.389374 154.243551 
L 194.462574 160.274798 
L 194.608973 93.41272 
L 194.755372 143.749594 
L 194.828571 133.365035 
L 194.901771 191.155293 
L 194.97497 105.770127 
L 195.04817 173.651437 
L 195.12137 99.350462 
L 195.194569 144.607469 
L 195.267769 89.963637 
L 195.340968 93.659127 
L 195.414168 166.295796 
L 195.487367 159.303679 
L 195.560567 66.587467 
L 195.633766 168.281843 
L 195.706966 127.765115 
L 195.780165 142.784029 
L 195.926564 77.280157 
L 195.999764 178.617557 
L 196.072963 169.684815 
L 196.146163 163.701598 
L 196.219362 136.161813 
L 196.292562 141.881157 
L 196.365762 172.390926 
L 196.512161 130.139677 
L 196.58536 165.751673 
L 196.65856 113.189667 
L 196.731759 132.597927 
L 196.804959 136.811198 
L 196.878158 162.321728 
L 196.951358 95.59954 
L 197.024557 190.098254 
L 197.097757 179.157509 
L 197.170956 107.943118 
L 197.317355 182.316798 
L 197.463754 132.216128 
L 197.536954 174.43493 
L 197.610153 159.366167 
L 197.683353 154.920868 
L 197.756553 72.58463 
L 197.902952 180.032254 
L 198.049351 89.296183 
L 198.12255 115.49621 
L 198.19575 156.187841 
L 198.268949 58.64041 
L 198.342149 70.637033 
L 198.415348 189.057034 
L 198.488548 125.236257 
L 198.561747 194.906846 
L 198.634947 179.538582 
L 198.708146 92.974099 
L 198.781346 157.226576 
L 198.854545 104.167381 
L 198.927745 179.89737 
L 199.000945 88.213767 
L 199.074144 130.909471 
L 199.147344 163.66829 
L 199.293743 117.587616 
L 199.366942 135.229783 
L 199.440142 134.851559 
L 199.513341 166.990883 
L 199.586541 68.994947 
L 199.73294 168.782542 
L 199.879339 152.256646 
L 200.025738 179.01252 
L 200.098937 149.582105 
L 200.172137 175.158983 
L 200.318536 106.097101 
L 200.391736 158.569886 
L 200.538135 92.240313 
L 200.611334 120.590935 
L 200.684534 119.349599 
L 200.830933 88.157387 
L 200.904132 127.892046 
L 200.977332 108.876701 
L 201.050531 65.967326 
L 201.123731 179.439687 
L 201.19693 152.198185 
L 201.27013 152.751165 
L 201.343329 163.638236 
L 201.489728 95.877516 
L 201.562928 107.593288 
L 201.636128 133.104837 
L 201.709327 70.928267 
L 201.782527 99.571239 
L 201.855726 165.008189 
L 201.928926 130.822086 
L 202.002125 174.92846 
L 202.148524 80.986273 
L 202.221724 159.960238 
L 202.294923 145.135618 
L 202.441322 89.749732 
L 202.587721 147.601867 
L 202.660921 126.038202 
L 202.80732 155.412576 
L 202.880519 100.045289 
L 203.026919 135.244486 
L 203.173318 113.131396 
L 203.246517 150.351979 
L 203.319717 73.748424 
L 203.466116 144.262746 
L 203.539315 140.407642 
L 203.758914 163.373687 
L 203.832113 59.083509 
L 203.905313 164.239958 
L 203.978512 114.400014 
L 204.051712 141.794017 
L 204.124911 126.089965 
L 204.198111 173.68984 
L 204.271311 165.718996 
L 204.564109 87.311996 
L 204.637308 155.508889 
L 204.783707 46.594991 
L 204.930106 162.993336 
L 205.003306 166.602137 
L 205.076505 115.137185 
L 205.149705 185.934464 
L 205.222904 184.694768 
L 205.296104 136.379151 
L 205.369303 139.928782 
L 205.442503 153.002933 
L 205.515702 87.595259 
L 205.588902 156.805358 
L 205.662102 100.379702 
L 205.735301 155.925173 
L 205.808501 66.637247 
L 205.8817 107.230879 
L 205.9549 151.342964 
L 206.028099 149.508119 
L 206.101299 117.279288 
L 206.320897 168.203576 
L 206.540496 99.65887 
L 206.686895 182.669324 
L 206.833294 67.26438 
L 206.906494 158.343401 
L 206.979693 102.072354 
L 207.052893 167.431246 
L 207.126092 125.71293 
L 207.199292 155.100714 
L 207.272491 152.479662 
L 207.345691 55.696238 
L 207.41889 157.405634 
L 207.49209 126.100161 
L 207.638489 190.624371 
L 207.711688 125.379601 
L 207.784888 128.464051 
L 207.858087 150.183266 
L 207.931287 137.99114 
L 208.004486 99.039643 
L 208.077686 131.27796 
L 208.150885 97.611304 
L 208.224085 174.204518 
L 208.297285 112.152496 
L 208.370484 122.866798 
L 208.443684 159.574941 
L 208.516883 66.774902 
L 208.590083 119.728986 
L 208.663282 101.012459 
L 208.736482 92.432241 
L 208.809681 177.930384 
L 208.882881 118.571677 
L 209.02928 172.510816 
L 209.248878 89.97609 
L 209.322078 188.007488 
L 209.468477 51.845645 
L 209.614876 127.405761 
L 209.688076 110.89496 
L 209.761275 116.534145 
L 209.834475 135.668285 
L 209.907674 70.584528 
L 209.980874 83.062862 
L 210.127273 170.574949 
L 210.200472 101.702688 
L 210.273672 156.060846 
L 210.346871 151.968396 
L 210.420071 88.455926 
L 210.56647 164.33584 
L 210.859268 89.154514 
L 210.932468 172.879123 
L 211.005667 108.553168 
L 211.078867 138.496173 
L 211.152066 144.310299 
L 211.298465 97.724238 
L 211.444864 168.343469 
L 211.518064 107.343728 
L 211.591263 165.693667 
L 211.664463 160.161312 
L 211.737662 104.881648 
L 211.810862 125.483026 
L 211.884061 187.647748 
L 212.10366 122.558106 
L 212.250059 172.465378 
L 212.323259 163.866241 
L 212.542857 87.629888 
L 212.616057 132.37449 
L 212.689256 85.747469 
L 212.762456 103.207903 
L 212.835655 183.754492 
L 212.908855 103.173489 
L 212.982054 139.41692 
L 213.201653 117.121797 
L 213.274852 120.98122 
L 213.348052 121.610373 
L 213.494451 173.927724 
L 213.567651 159.929909 
L 213.64085 167.992129 
L 213.787249 110.560644 
L 213.860449 169.780528 
L 213.933648 94.27967 
L 214.006848 198.019539 
L 214.153247 81.205808 
L 214.226446 159.797582 
L 214.299646 141.718573 
L 214.519244 115.077512 
L 214.812043 185.33006 
L 214.885242 122.817693 
L 214.958442 158.210206 
L 215.031641 156.553714 
L 215.104841 98.375098 
L 215.17804 161.730624 
L 215.25124 59.74828 
L 215.324439 111.767098 
L 215.397639 140.355778 
L 215.470838 61.359511 
L 215.544038 98.383582 
L 215.617237 158.077746 
L 215.690437 114.125062 
L 215.836836 154.112811 
L 215.983235 116.651001 
L 216.349233 191.141078 
L 216.422432 104.411329 
L 216.495632 164.728044 
L 216.642031 111.76668 
L 216.71523 183.06315 
L 216.78843 110.717219 
L 216.861629 122.476001 
L 216.934829 183.287949 
L 217.008028 139.166463 
L 217.081228 152.272602 
L 217.154427 137.625125 
L 217.227627 140.933919 
L 217.300826 150.984051 
L 217.374026 145.787397 
L 217.447226 154.626089 
L 217.520425 144.856837 
L 217.593625 92.15764 
L 217.666824 112.926124 
L 217.813223 123.086218 
L 217.886423 108.71496 
L 217.959622 180.885168 
L 218.106021 90.803742 
L 218.179221 88.088388 
L 218.25242 68.242539 
L 218.32562 152.848182 
L 218.398819 134.205596 
L 218.545218 175.960318 
L 218.618418 124.580417 
L 218.691617 180.280013 
L 218.764817 120.206751 
L 218.838017 151.910846 
L 218.911216 132.677864 
L 218.984416 60.327864 
L 219.057615 88.591135 
L 219.277214 148.985982 
L 219.350413 99.377787 
L 219.423613 172.079048 
L 219.496812 169.270373 
L 219.643211 69.487494 
L 219.716411 150.374605 
L 219.78961 60.228764 
L 219.86281 79.007335 
L 219.936009 78.795878 
L 220.009209 171.60342 
L 220.082409 90.613301 
L 220.155608 103.962911 
L 220.228808 143.72542 
L 220.302007 97.877809 
L 220.375207 109.108979 
L 220.448406 193.719472 
L 220.521606 106.714612 
L 220.668005 188.563528 
L 220.814404 80.423441 
L 220.887603 88.716649 
L 221.107202 141.309835 
L 221.180401 135.734032 
L 221.253601 123.501262 
L 221.4 180.00804 
L 221.4732 161.741492 
L 221.546399 173.620546 
L 221.692798 90.961093 
L 221.765998 179.72701 
L 221.912397 96.351388 
L 221.985596 141.562686 
L 222.131995 108.614906 
L 222.205195 107.071245 
L 222.351594 140.403779 
L 222.424793 105.855326 
L 222.644392 144.278064 
L 222.790791 185.545864 
L 222.863991 135.791694 
L 222.93719 149.584961 
L 223.01039 144.358089 
L 223.156789 100.418775 
L 223.229988 112.259429 
L 223.303188 138.263723 
L 223.376387 73.180757 
L 223.522786 186.804382 
L 223.595986 82.605052 
L 223.669185 134.177289 
L 223.742385 135.910974 
L 223.888784 165.762899 
L 223.961983 147.940908 
L 224.035183 152.125213 
L 224.108383 155.853785 
L 224.254782 109.68802 
L 224.327981 114.990097 
L 224.401181 163.547261 
L 224.47438 117.335236 
L 224.620779 171.048484 
L 224.693979 156.492149 
L 224.767178 156.537847 
L 224.840378 181.362301 
L 224.986777 124.88416 
L 225.059976 162.254421 
L 225.133176 151.172816 
L 225.206375 169.527115 
L 225.279575 120.740976 
L 225.352774 171.395484 
L 225.425974 88.514659 
L 225.499174 156.209257 
L 225.572373 153.535591 
L 225.645573 185.312675 
L 225.791972 86.760671 
L 225.865171 173.442035 
L 225.938371 166.478782 
L 226.08477 150.238304 
L 226.157969 159.826676 
L 226.377568 118.305354 
L 226.450767 149.661153 
L 226.523967 86.296592 
L 226.670366 167.901481 
L 226.816765 69.980386 
L 226.889965 159.344073 
L 226.963164 114.606165 
L 227.036364 157.671895 
L 227.109563 151.153642 
L 227.182763 98.180425 
L 227.329162 156.869499 
L 227.402361 76.288613 
L 227.475561 182.373432 
L 227.54876 104.504144 
L 227.62196 129.490837 
L 227.695159 176.580267 
L 227.768359 114.152297 
L 227.841558 142.406682 
L 227.914758 177.967371 
L 227.987957 92.828787 
L 228.134357 183.096259 
L 228.207556 114.431313 
L 228.280756 157.002191 
L 228.353955 86.200417 
L 228.573554 167.094876 
L 228.646753 67.808879 
L 228.719953 95.040737 
L 228.793152 123.151597 
L 228.866352 108.092945 
L 229.08595 166.577293 
L 229.15915 106.121162 
L 229.232349 199.289316 
L 229.305549 156.910333 
L 229.451948 173.791559 
L 229.525148 102.863101 
L 229.598347 128.619845 
L 229.671547 85.486689 
L 229.817946 142.308133 
L 229.891145 70.425055 
L 229.964345 172.988326 
L 230.037544 134.253757 
L 230.110744 93.286067 
L 230.257143 156.646628 
L 230.330342 56.711851 
L 230.476741 152.659233 
L 230.62314 173.041009 
L 230.69634 87.388413 
L 230.76954 91.017976 
L 230.842739 145.857439 
L 230.915939 144.603921 
L 230.989138 158.757923 
L 231.062338 116.063624 
L 231.135537 122.173276 
L 231.208737 116.993258 
L 231.355136 156.085739 
L 231.428335 154.87339 
L 231.501535 114.582005 
L 231.721133 167.81558 
L 231.794333 75.893511 
L 231.867532 173.506881 
L 231.940732 149.484195 
L 232.013932 107.284315 
L 232.087131 143.295202 
L 232.160331 120.476953 
L 232.23353 135.160937 
L 232.30673 123.491981 
L 232.379929 149.866464 
L 232.526328 114.241955 
L 232.599528 182.715906 
L 232.672727 101.919343 
L 232.745927 194.410175 
L 232.819126 99.280912 
L 232.892326 129.370265 
L 232.965525 155.898648 
L 233.038725 95.52792 
L 233.111924 102.39246 
L 233.185124 93.817128 
L 233.258323 188.043416 
L 233.331523 165.570607 
L 233.404723 174.086253 
L 233.477922 94.30299 
L 233.624321 147.651543 
L 233.697521 98.303337 
L 233.77072 167.302773 
L 233.917119 101.691296 
L 234.063518 179.582327 
L 234.136718 107.188664 
L 234.209917 109.874118 
L 234.283117 141.237117 
L 234.356316 121.289383 
L 234.429516 170.847328 
L 234.502715 149.852835 
L 234.575915 151.762108 
L 234.649115 103.034199 
L 234.722314 149.287505 
L 234.795514 108.350126 
L 234.868713 123.246586 
L 234.941913 157.081497 
L 235.015112 85.192834 
L 235.088312 99.08997 
L 235.161511 178.644288 
L 235.30791 82.628642 
L 235.38111 173.101984 
L 235.454309 145.536155 
L 235.527509 138.348124 
L 235.600708 192.26553 
L 235.747107 108.525108 
L 235.820307 167.847852 
L 235.893506 146.179698 
L 235.966706 84.651821 
L 236.186305 177.861171 
L 236.259504 129.787429 
L 236.332704 180.366643 
L 236.625502 93.683469 
L 236.771901 179.880293 
L 236.8451 167.469345 
L 236.9183 106.696948 
L 236.991499 150.202028 
L 237.064699 111.950079 
L 237.137898 148.749003 
L 237.211098 132.320178 
L 237.357497 105.130248 
L 237.430697 130.355449 
L 237.503896 97.181322 
L 237.650295 166.935836 
L 237.723495 78.666967 
L 237.796694 159.199038 
L 237.869894 155.20497 
L 237.943093 98.040559 
L 238.016293 130.255859 
L 238.089492 67.541544 
L 238.235891 138.60187 
L 238.309091 120.367583 
L 238.38229 134.724135 
L 238.528689 85.792521 
L 238.601889 97.362764 
L 238.675089 70.472397 
L 238.748288 160.77766 
L 238.821488 140.583772 
L 238.894687 133.555214 
L 239.041086 160.492452 
L 239.114286 103.98598 
L 239.187485 200.363896 
L 239.260685 141.696509 
L 239.333884 151.624234 
L 239.407084 164.150877 
L 239.480283 135.99691 
L 239.553483 144.224321 
L 239.626682 165.442214 
L 239.699882 52.419311 
L 239.773081 142.091004 
L 239.846281 97.712953 
L 239.919481 154.751328 
L 239.99268 153.317517 
L 240.06588 151.073403 
L 240.212279 102.754016 
L 240.285478 177.307482 
L 240.431877 82.198722 
L 240.505077 141.735057 
L 240.578276 128.408376 
L 240.651476 119.77051 
L 240.724675 87.918761 
L 240.797875 104.888993 
L 240.871074 184.485128 
L 241.017473 73.788122 
L 241.163872 177.720222 
L 241.237072 149.565615 
L 241.310272 163.723592 
L 241.383471 158.02123 
L 241.456671 120.078407 
L 241.52987 120.544494 
L 241.676269 184.562957 
L 241.895868 113.796415 
L 241.969067 146.573056 
L 242.042267 139.128634 
L 242.115466 131.268682 
L 242.335065 177.886737 
L 242.408264 140.865001 
L 242.481464 162.943265 
L 242.554664 130.623873 
L 242.701063 154.90302 
L 242.774262 117.262736 
L 242.993861 181.435252 
L 243.14026 102.999234 
L 243.286659 149.889707 
L 243.359858 169.039014 
L 243.433058 164.261501 
L 243.506257 115.269487 
L 243.579457 121.013372 
L 243.652656 169.671938 
L 243.725856 155.071743 
L 243.799055 166.420822 
L 243.872255 60.651657 
L 243.945455 153.069464 
L 244.018654 121.464287 
L 244.091854 159.416528 
L 244.165053 122.109097 
L 244.238253 173.379134 
L 244.311452 85.180533 
L 244.457851 164.4073 
L 244.531051 162.146726 
L 244.67745 112.328014 
L 244.823849 133.031155 
L 244.897048 172.570656 
L 244.970248 155.934719 
L 245.116647 95.902896 
L 245.189847 172.004493 
L 245.263046 155.071751 
L 245.482645 87.063768 
L 245.629044 121.868976 
L 245.702243 117.106944 
L 245.775443 78.517987 
L 245.848642 119.060927 
L 245.921842 108.71195 
L 245.995041 124.419983 
L 246.14144 87.26135 
L 246.21464 162.130006 
L 246.287839 129.22706 
L 246.361039 51.977898 
L 246.434238 150.338836 
L 246.507438 143.917728 
L 246.580638 112.268343 
L 246.653837 180.434803 
L 246.727037 168.371487 
L 246.800236 136.014994 
L 246.873436 153.598919 
L 246.946635 130.908027 
L 247.019835 66.71602 
L 247.093034 98.824018 
L 247.166234 151.00772 
L 247.239433 92.01155 
L 247.312633 110.46669 
L 247.459032 157.309104 
L 247.532231 70.788741 
L 247.605431 94.19798 
L 247.67863 117.664196 
L 247.75183 199.791373 
L 247.82503 133.417328 
L 247.898229 170.113632 
L 247.971429 158.064143 
L 248.044628 98.010335 
L 248.117828 98.494308 
L 248.191027 137.615039 
L 248.337426 63.99073 
L 248.410626 126.69913 
L 248.483825 114.244006 
L 248.557025 117.744645 
L 248.630224 87.171247 
L 248.703424 144.214861 
L 248.776623 84.524569 
L 248.849823 104.778552 
L 248.923022 97.93141 
L 248.996222 159.366558 
L 249.069421 153.802035 
L 249.142621 48.456891 
L 249.28902 180.005866 
L 249.435419 80.811416 
L 249.728217 163.497794 
L 249.874616 98.862611 
L 249.947816 131.297876 
L 250.021015 112.710116 
L 250.094215 169.628671 
L 250.167414 122.874926 
L 250.313813 162.618533 
L 250.533412 121.664868 
L 250.679811 170.238543 
L 250.753011 67.397223 
L 250.82621 161.24535 
L 250.89941 131.099858 
L 250.972609 150.260228 
L 251.045809 86.385947 
L 251.192208 180.598528 
L 251.265407 84.619897 
L 251.485006 200.797197 
L 251.558205 163.811981 
L 251.631405 167.494449 
L 251.924203 88.153402 
L 251.997403 133.508613 
L 252.217001 59.397442 
L 252.290201 141.464837 
L 252.3634 116.335676 
L 252.4366 101.527831 
L 252.509799 134.758918 
L 252.582999 115.695997 
L 252.656198 194.93632 
L 252.729398 92.300429 
L 252.802597 111.899606 
L 252.875797 118.907578 
L 252.948996 66.326212 
L 253.095396 182.266942 
L 253.168595 161.367865 
L 253.241795 98.818631 
L 253.388194 170.881174 
L 253.461393 128.222056 
L 253.534593 175.832349 
L 253.607792 156.904887 
L 253.680992 120.340038 
L 253.754191 151.524515 
L 253.827391 88.135503 
L 253.90059 145.269372 
L 253.97379 106.079442 
L 254.046989 110.110179 
L 254.120189 157.276628 
L 254.266588 96.003638 
L 254.339787 77.371978 
L 254.412987 147.116169 
L 254.486187 115.075674 
L 254.632586 185.978256 
L 254.705785 90.140577 
L 254.778985 112.417795 
L 254.852184 139.384534 
L 254.925384 135.453236 
L 255.071783 52.984969 
L 255.144982 173.283994 
L 255.218182 140.443406 
L 255.291381 131.97699 
L 255.364581 186.775848 
L 255.51098 86.928684 
L 255.584179 194.719458 
L 255.730579 76.74174 
L 255.803778 174.654764 
L 255.876978 139.6482 
L 255.950177 182.449404 
L 256.169776 56.254436 
L 256.242975 159.346617 
L 256.316175 140.770548 
L 256.389374 137.835318 
L 256.462574 130.02965 
L 256.535773 74.586425 
L 256.608973 89.036566 
L 256.682172 92.955032 
L 256.755372 135.656103 
L 256.828571 122.269427 
L 256.901771 85.78512 
L 256.97497 152.759211 
L 257.04817 96.674452 
L 257.12137 137.877574 
L 257.194569 122.156389 
L 257.267769 48.035582 
L 257.340968 75.659956 
L 257.414168 100.955039 
L 257.487367 82.677926 
L 257.560567 114.311612 
L 257.633766 106.781494 
L 257.706966 110.98543 
L 257.780165 164.769086 
L 257.926564 96.900254 
L 257.999764 152.076915 
L 258.072963 147.783673 
L 258.146163 177.202445 
L 258.219362 88.738433 
L 258.292562 135.306287 
L 258.438961 69.290756 
L 258.65856 136.220923 
L 258.731759 69.263877 
L 258.804959 95.686285 
L 258.951358 111.740226 
L 259.024557 99.532945 
L 259.170956 197.701284 
L 259.244156 83.138505 
L 259.317355 123.284515 
L 259.463754 45.325652 
L 259.610153 147.990364 
L 259.683353 84.685777 
L 259.756553 182.045274 
L 259.829752 72.677045 
L 259.902952 142.393453 
L 259.976151 124.310872 
L 260.049351 112.797444 
L 260.19575 154.691597 
L 260.342149 79.98027 
L 260.561747 132.498868 
L 260.634947 103.870737 
L 260.708146 163.595094 
L 260.927745 93.134267 
L 261.000945 102.185633 
L 261.220543 168.436763 
L 261.293743 144.577183 
L 261.366942 194.578349 
L 261.440142 168.084429 
L 261.513341 190.031245 
L 261.586541 68.704766 
L 261.65974 101.906045 
L 261.952538 93.321361 
L 262.025738 103.099566 
L 262.098937 93.279462 
L 262.245336 148.112752 
L 262.318536 117.390186 
L 262.391736 130.42241 
L 262.464935 115.316281 
L 262.538135 122.469093 
L 262.611334 117.814601 
L 262.757733 72.259614 
L 262.830933 103.65298 
L 262.904132 79.539168 
L 263.050531 186.11088 
L 263.123731 94.455832 
L 263.19693 108.714733 
L 263.27013 184.223659 
L 263.343329 153.399031 
L 263.416529 119.384842 
L 263.489728 168.323916 
L 263.636128 103.38264 
L 263.782527 174.733829 
L 263.855726 108.905425 
L 263.928926 126.648801 
L 264.002125 124.541305 
L 264.075325 102.538539 
L 264.148524 140.475167 
L 264.221724 98.280241 
L 264.294923 151.621365 
L 264.441322 98.780767 
L 264.587721 164.476135 
L 264.660921 139.195488 
L 264.73412 183.611397 
L 264.80732 106.676819 
L 264.953719 152.650586 
L 265.026919 111.234628 
L 265.100118 160.126407 
L 265.173318 149.503123 
L 265.246517 126.283408 
L 265.319717 187.541639 
L 265.466116 127.551645 
L 265.539315 169.240058 
L 265.685714 90.374175 
L 265.758914 98.267503 
L 265.832113 148.658179 
L 265.905313 142.44161 
L 265.978512 163.536333 
L 266.051712 104.022032 
L 266.124911 177.960005 
L 266.271311 115.355864 
L 266.34451 115.98137 
L 266.41771 121.472174 
L 266.564109 63.869893 
L 266.710508 131.809327 
L 266.783707 138.863857 
L 266.856907 156.968038 
L 266.930106 98.757073 
L 267.003306 127.581503 
L 267.076505 148.982284 
L 267.149705 79.048476 
L 267.296104 143.461955 
L 267.369303 94.464386 
L 267.442503 151.315199 
L 267.515702 102.837698 
L 267.588902 109.005209 
L 267.662102 119.012087 
L 267.735301 106.268519 
L 267.808501 163.004489 
L 267.8817 125.456919 
L 268.028099 159.585472 
L 268.101299 122.182943 
L 268.174498 167.12121 
L 268.247698 160.52738 
L 268.320897 164.349348 
L 268.394097 81.569385 
L 268.467296 94.735599 
L 268.613695 164.800206 
L 268.833294 86.949165 
L 268.906494 180.217612 
L 268.979693 159.843212 
L 269.052893 162.076279 
L 269.126092 139.55728 
L 269.199292 173.486458 
L 269.272491 91.906223 
L 269.345691 118.858851 
L 269.41889 151.529782 
L 269.49209 148.526127 
L 269.711688 71.820592 
L 269.858087 129.778998 
L 269.931287 139.247933 
L 270.004486 109.619453 
L 270.077686 178.033334 
L 270.150885 125.011663 
L 270.224085 137.464281 
L 270.297285 131.154831 
L 270.370484 192.621833 
L 270.590083 85.184462 
L 270.663282 150.409048 
L 270.736482 143.886479 
L 270.809681 87.763264 
L 270.882881 141.404939 
L 270.95608 91.959287 
L 271.02928 158.218263 
L 271.175679 77.470642 
L 271.248878 171.608887 
L 271.322078 103.467246 
L 271.541677 188.528653 
L 271.907674 82.993847 
L 271.980874 96.986015 
L 272.054073 138.761625 
L 272.127273 47.438574 
L 272.200472 140.297408 
L 272.273672 124.931739 
L 272.346871 129.038453 
L 272.420071 175.703484 
L 272.49327 166.589184 
L 272.56647 93.227588 
L 272.639669 179.360493 
L 272.712869 90.247702 
L 272.786068 111.45275 
L 272.859268 87.096539 
L 273.078867 171.745575 
L 273.152066 78.852788 
L 273.225266 133.854822 
L 273.298465 130.607251 
L 273.371665 106.497507 
L 273.444864 172.05568 
L 273.518064 67.115119 
L 273.591263 108.664322 
L 273.737662 153.058705 
L 273.810862 70.042588 
L 273.884061 78.604514 
L 273.957261 103.199508 
L 274.03046 84.849907 
L 274.10366 165.452397 
L 274.17686 125.892978 
L 274.250059 114.44852 
L 274.323259 171.707356 
L 274.469658 78.132956 
L 274.542857 141.300329 
L 274.616057 115.068457 
L 274.689256 156.708617 
L 274.762456 107.395366 
L 274.835655 134.025668 
L 274.908855 118.773762 
L 275.055254 169.977599 
L 275.128453 86.805345 
L 275.201653 90.874569 
L 275.348052 174.823874 
L 275.421251 97.347677 
L 275.494451 111.273197 
L 275.567651 115.054746 
L 275.64085 164.779061 
L 275.71405 152.21087 
L 275.787249 97.180323 
L 275.860449 112.018229 
L 276.006848 168.602712 
L 276.080047 73.568396 
L 276.226446 169.256858 
L 276.299646 71.423447 
L 276.372845 166.43453 
L 276.446045 122.402588 
L 276.519244 167.148313 
L 276.665643 103.696795 
L 276.738843 159.293396 
L 276.885242 93.91083 
L 276.958442 151.203169 
L 277.031641 108.990462 
L 277.104841 188.085336 
L 277.17804 108.209782 
L 277.25124 116.897846 
L 277.397639 66.35209 
L 277.470838 134.27712 
L 277.544038 67.47549 
L 277.690437 146.714533 
L 277.836836 132.006496 
L 277.983235 69.036622 
L 278.129634 108.924593 
L 278.202834 118.408626 
L 278.276033 74.708399 
L 278.422432 152.982862 
L 278.495632 100.793847 
L 278.568831 115.557414 
L 278.642031 141.078885 
L 278.861629 75.343037 
L 278.934829 177.786964 
L 279.008028 155.930502 
L 279.081228 136.837005 
L 279.154427 161.775561 
L 279.227627 51.319519 
L 279.300826 63.315751 
L 279.374026 48.949653 
L 279.593625 157.479089 
L 279.666824 70.889156 
L 279.740024 72.721945 
L 279.886423 145.270783 
L 279.959622 133.172961 
L 280.032822 197.225042 
L 280.106021 104.272851 
L 280.179221 119.9739 
L 280.25242 99.425726 
L 280.545218 196.925141 
L 280.764817 76.793859 
L 280.911216 176.877837 
L 280.984416 151.236788 
L 281.057615 175.888454 
L 281.130815 143.79496 
L 281.204014 175.055728 
L 281.277214 103.101746 
L 281.350413 154.684736 
L 281.423613 84.545443 
L 281.570012 162.495609 
L 281.78961 93.73954 
L 281.86281 139.767451 
L 281.936009 118.718326 
L 282.009209 111.884375 
L 282.082409 72.391218 
L 282.228808 131.242952 
L 282.302007 116.495257 
L 282.448406 175.010953 
L 282.521606 105.773813 
L 282.594805 138.425498 
L 282.668005 152.282047 
L 282.741204 72.717964 
L 282.814404 106.294836 
L 282.887603 107.192917 
L 282.960803 90.314254 
L 283.034002 139.919029 
L 283.253601 55.034647 
L 283.4 151.88573 
L 283.4732 101.828558 
L 283.692798 165.746002 
L 283.765998 124.625327 
L 283.839197 166.983526 
L 283.912397 111.415649 
L 283.985596 167.569519 
L 284.058796 118.810687 
L 284.131995 137.414559 
L 284.205195 148.581436 
L 284.351594 100.972807 
L 284.424793 102.056772 
L 284.571192 169.718197 
L 284.644392 129.50201 
L 284.717591 141.350842 
L 284.790791 141.803152 
L 284.863991 117.256252 
L 285.01039 150.602245 
L 285.083589 87.370401 
L 285.229988 176.385887 
L 285.303188 102.810703 
L 285.449587 178.917965 
L 285.522786 97.516418 
L 285.595986 170.961193 
L 285.669185 68.359947 
L 285.742385 148.056657 
L 285.815584 141.043125 
L 285.961983 97.87981 
L 286.035183 152.25784 
L 286.108383 123.21125 
L 286.181582 149.146156 
L 286.254782 81.699326 
L 286.327981 105.619676 
L 286.401181 124.563407 
L 286.47438 82.286124 
L 286.54758 85.696384 
L 286.620779 159.886211 
L 286.693979 158.943176 
L 286.767178 134.568241 
L 286.913577 163.701406 
L 286.986777 114.065042 
L 287.059976 178.195424 
L 287.133176 176.15892 
L 287.206375 197.168928 
L 287.279575 109.573315 
L 287.352774 153.086407 
L 287.425974 136.91179 
L 287.499174 59.037594 
L 287.572373 147.033457 
L 287.645573 102.369548 
L 287.718772 109.248497 
L 287.791972 127.421408 
L 287.865171 74.438067 
L 287.938371 119.819759 
L 288.01157 107.019042 
L 288.08477 56.99866 
L 288.231169 173.51985 
L 288.450767 105.944381 
L 288.597166 115.884145 
L 288.670366 120.302736 
L 288.743566 179.55412 
L 288.816765 102.429838 
L 288.889965 114.113651 
L 288.963164 158.046844 
L 289.109563 80.542446 
L 289.182763 135.726365 
L 289.255962 77.059813 
L 289.329162 103.40544 
L 289.475561 68.411993 
L 289.54876 155.589146 
L 289.62196 127.927189 
L 289.695159 104.450328 
L 289.768359 166.835373 
L 289.841558 158.387225 
L 289.914758 110.963492 
L 289.987957 140.3429 
L 290.061157 93.597648 
L 290.134357 157.354305 
L 290.207556 122.262823 
L 290.280756 127.570396 
L 290.353955 126.357288 
L 290.427155 118.023942 
L 290.500354 173.901526 
L 290.573554 132.074937 
L 290.719953 180.068511 
L 290.793152 158.220612 
L 290.939551 54.713379 
L 291.012751 143.960381 
L 291.08595 97.913225 
L 291.15915 168.880443 
L 291.232349 152.493637 
L 291.305549 135.233121 
L 291.378749 178.825146 
L 291.451948 64.735797 
L 291.598347 155.240213 
L 291.671547 150.879111 
L 291.744746 177.014315 
L 291.964345 69.910707 
L 292.037544 158.925351 
L 292.110744 100.980542 
L 292.183943 149.003266 
L 292.257143 93.892889 
L 292.403542 141.899999 
L 292.476741 82.351829 
L 292.69634 186.353953 
L 292.76954 68.45204 
L 292.842739 162.859443 
L 292.915939 92.903136 
L 292.989138 152.964202 
L 293.135537 74.477731 
L 293.208737 94.011259 
L 293.281936 74.177139 
L 293.501535 147.580655 
L 293.574734 72.719095 
L 293.721133 159.283571 
L 293.794333 104.451805 
L 294.013932 159.498466 
L 294.087131 156.258803 
L 294.23353 57.586138 
L 294.30673 191.802052 
L 294.379929 177.319621 
L 294.599528 82.046735 
L 294.745927 154.694583 
L 294.819126 120.923536 
L 294.892326 126.707086 
L 294.965525 165.395979 
L 295.111924 87.157988 
L 295.258323 128.842104 
L 295.551122 84.36849 
L 295.624321 93.483318 
L 295.77072 129.105432 
L 295.84392 128.006873 
L 295.917119 65.889689 
L 295.990319 127.366317 
L 296.063518 67.264782 
L 296.209917 151.798982 
L 296.283117 57.954465 
L 296.356316 75.371803 
L 296.502715 154.428566 
L 296.575915 105.091224 
L 296.722314 139.051711 
L 296.795514 137.036073 
L 296.868713 126.532292 
L 296.941913 136.783165 
L 297.015112 127.800786 
L 297.088312 138.4139 
L 297.30791 103.968583 
L 297.454309 144.05537 
L 297.527509 55.52384 
L 297.600708 68.202412 
L 297.820307 151.230163 
L 297.893506 131.72046 
L 297.966706 137.731765 
L 298.039906 120.467428 
L 298.113105 62.051576 
L 298.259504 122.396925 
L 298.332704 110.573959 
L 298.405903 136.623844 
L 298.552302 110.749761 
L 298.625502 62.734472 
L 298.698701 145.556057 
L 298.771901 142.309571 
L 298.9183 86.731328 
L 299.137898 154.05476 
L 299.211098 106.03704 
L 299.284298 151.585208 
L 299.357497 109.832195 
L 299.430697 118.654084 
L 299.503896 110.567025 
L 299.577096 58.91563 
L 299.723495 143.062098 
L 299.796694 82.849836 
L 299.869894 131.611577 
L 299.943093 113.536348 
L 300.089492 62.181594 
L 300.162692 165.508522 
L 300.235891 104.769659 
L 300.309091 118.469669 
L 300.38229 134.601482 
L 300.45549 121.471353 
L 300.528689 58.112846 
L 300.601889 86.488944 
L 300.675089 94.805702 
L 300.748288 76.834514 
L 300.894687 162.675221 
L 300.967887 69.228315 
L 301.041086 111.220924 
L 301.114286 115.074103 
L 301.187485 171.512981 
L 301.260685 153.307455 
L 301.407084 122.317546 
L 301.480283 76.347583 
L 301.553483 101.283965 
L 301.626682 66.799991 
L 301.773081 187.026082 
L 301.919481 123.246536 
L 302.139079 154.163536 
L 302.285478 102.867017 
L 302.358678 163.730558 
L 302.431877 107.00837 
L 302.505077 138.316283 
L 302.578276 129.577456 
L 302.651476 150.892673 
L 302.724675 80.400461 
L 302.797875 132.936443 
L 302.871074 113.210207 
L 302.944274 110.622935 
L 303.017473 127.199778 
L 303.090673 61.25359 
L 303.163872 128.840915 
L 303.237072 98.859484 
L 303.310272 131.592205 
L 303.383471 80.615283 
L 303.456671 117.166709 
L 303.52987 101.514445 
L 303.676269 53.263489 
L 303.895868 157.335483 
L 303.969067 87.20216 
L 304.042267 139.796857 
L 304.115466 86.410411 
L 304.188666 141.387629 
L 304.335065 62.883316 
L 304.408264 131.418867 
L 304.481464 105.892131 
L 304.627863 140.197093 
L 304.701063 173.427892 
L 304.774262 159.813355 
L 304.920661 92.995354 
L 304.993861 98.016711 
L 305.06706 136.916727 
L 305.213459 67.706099 
L 305.286659 121.137059 
L 305.359858 56.98462 
L 305.433058 127.998712 
L 305.506257 105.538263 
L 305.579457 59.745533 
L 305.652656 146.222071 
L 305.725856 88.600081 
L 305.799055 162.694587 
L 305.872255 117.086547 
L 306.018654 180.34211 
L 306.091854 154.884412 
L 306.165053 173.14549 
L 306.238253 170.118441 
L 306.311452 119.017871 
L 306.457851 155.77643 
L 306.531051 154.882246 
L 306.60425 129.793581 
L 306.67745 132.892541 
L 306.750649 163.56718 
L 306.897048 97.128229 
L 306.970248 93.509063 
L 307.043447 155.41264 
L 307.189847 56.570842 
L 307.263046 59.459591 
L 307.409445 137.419676 
L 307.482645 68.887546 
L 307.555844 83.139387 
L 307.702243 185.101537 
L 307.921842 82.592195 
L 307.995041 201.216387 
L 308.14144 104.388223 
L 308.21464 186.210825 
L 308.361039 94.514225 
L 308.507438 150.445143 
L 308.580638 79.363703 
L 308.653837 112.227077 
L 308.727037 76.934633 
L 308.800236 93.644014 
L 308.873436 159.765861 
L 308.946635 110.809178 
L 309.019835 111.956687 
L 309.093034 136.058773 
L 309.166234 131.556309 
L 309.239433 95.154092 
L 309.312633 144.833454 
L 309.385832 120.306983 
L 309.459032 93.622977 
L 309.532231 100.844825 
L 309.605431 158.505978 
L 309.67863 128.028949 
L 309.75183 163.501357 
L 309.971429 102.63009 
L 310.191027 164.648461 
L 310.337426 77.404971 
L 310.483825 151.295154 
L 310.630224 95.822322 
L 310.703424 202.499316 
L 310.849823 81.513456 
L 310.996222 166.369764 
L 311.142621 63.970746 
L 311.215821 73.218693 
L 311.36222 110.539704 
L 311.435419 44.443636 
L 311.508619 71.495077 
L 311.581818 53.049292 
L 311.655018 173.422959 
L 311.801417 81.194226 
L 312.021015 120.229096 
L 312.094215 148.969703 
L 312.167414 94.937516 
L 312.240614 139.592119 
L 312.387013 106.48135 
L 312.460213 141.465186 
L 312.606612 75.334338 
L 312.679811 160.467145 
L 312.82621 72.27204 
L 312.972609 115.842812 
L 313.045809 108.979552 
L 313.192208 81.461177 
L 313.265407 126.082013 
L 313.338607 66.837914 
L 313.411806 155.076672 
L 313.485006 142.962261 
L 313.558205 168.443896 
L 313.631405 87.555547 
L 313.704604 103.775796 
L 313.777804 101.408366 
L 313.851004 71.698981 
L 313.924203 139.990038 
L 313.997403 134.721509 
L 314.143802 109.530427 
L 314.290201 163.939816 
L 314.3634 145.922211 
L 314.509799 159.917858 
L 314.656198 87.807951 
L 314.729398 121.944562 
L 314.802597 48.533932 
L 314.875797 69.728397 
L 314.948996 74.667041 
L 315.022196 105.453897 
L 315.095396 82.173557 
L 315.314994 183.251433 
L 315.388194 161.806347 
L 315.534593 104.380748 
L 315.680992 144.379525 
L 315.754191 92.8928 
L 315.827391 138.412877 
L 315.90059 77.136144 
L 315.97379 152.803421 
L 316.046989 118.669388 
L 316.193388 82.47767 
L 316.266588 110.885187 
L 316.339787 103.262519 
L 316.632586 179.038452 
L 316.705785 165.73649 
L 316.778985 179.777919 
L 316.852184 161.119569 
L 316.925384 176.549724 
L 316.998583 94.369928 
L 317.071783 103.250332 
L 317.144982 171.312451 
L 317.291381 87.99061 
L 317.51098 124.571306 
L 317.584179 164.627038 
L 317.730579 119.662909 
L 317.803778 129.058513 
L 317.876978 71.232503 
L 318.023377 178.431016 
L 318.096576 100.129277 
L 318.242975 188.2207 
L 318.316175 137.677014 
L 318.389374 180.205785 
L 318.462574 161.096762 
L 318.608973 109.605044 
L 318.682172 140.203096 
L 318.828571 105.611245 
L 318.97497 168.035602 
L 319.04817 111.596836 
L 319.12137 125.383434 
L 319.194569 111.629087 
L 319.267769 181.666937 
L 319.340968 82.954426 
L 319.414168 171.124414 
L 319.487367 104.612755 
L 319.560567 174.644842 
L 319.633766 137.103684 
L 319.706966 179.102715 
L 319.780165 97.402286 
L 319.926564 164.182135 
L 319.999764 155.377539 
L 320.072963 75.733806 
L 320.146163 140.968661 
L 320.219362 112.71732 
L 320.292562 158.85966 
L 320.365762 80.567053 
L 320.512161 133.110041 
L 320.58536 100.259123 
L 320.65856 156.705682 
L 320.731759 138.719964 
L 320.804959 82.214252 
L 320.878158 161.184113 
L 321.024557 109.656863 
L 321.097757 115.829225 
L 321.244156 166.882972 
L 321.317355 115.099197 
L 321.390555 132.829324 
L 321.536954 89.793995 
L 321.610153 158.537159 
L 321.683353 99.480097 
L 321.756553 147.827527 
L 321.829752 123.575987 
L 321.902952 170.151429 
L 322.12255 69.286201 
L 322.19575 164.987612 
L 322.268949 97.417163 
L 322.342149 114.399937 
L 322.415348 148.625589 
L 322.488548 133.053258 
L 322.561747 136.620941 
L 322.708146 91.451316 
L 322.781346 101.128516 
L 322.854545 160.286646 
L 322.927745 88.735011 
L 323.000945 123.253375 
L 323.074144 83.303869 
L 323.147344 90.486567 
L 323.366942 121.221637 
L 323.440142 108.997157 
L 323.65974 182.335243 
L 323.73294 96.086866 
L 323.806139 138.375691 
L 323.879339 91.826243 
L 323.952538 145.02693 
L 324.025738 141.893008 
L 324.098937 160.498523 
L 324.172137 138.691934 
L 324.245336 59.348672 
L 324.318536 149.356606 
L 324.391736 116.201033 
L 324.464935 164.05562 
L 324.611334 87.566668 
L 324.684534 129.389215 
L 324.757733 62.227873 
L 324.830933 146.689014 
L 324.904132 125.645502 
L 324.977332 129.575608 
L 325.050531 143.269634 
L 325.123731 134.968027 
L 325.19693 180.995155 
L 325.27013 99.028728 
L 325.343329 137.723373 
L 325.416529 77.373245 
L 325.562928 193.041329 
L 325.636128 74.057553 
L 325.709327 109.609006 
L 325.782527 115.880219 
L 325.855726 156.875064 
L 325.928926 120.590709 
L 326.002125 159.652299 
L 326.148524 79.055888 
L 326.294923 170.136623 
L 326.368123 162.453937 
L 326.514522 85.592043 
L 326.587721 168.137247 
L 326.660921 143.55794 
L 326.73412 74.578949 
L 326.80732 94.829696 
L 326.880519 57.356252 
L 326.953719 61.635435 
L 327.026919 140.706081 
L 327.100118 124.762467 
L 327.173318 150.783719 
L 327.246517 140.356711 
L 327.319717 88.10452 
L 327.392916 98.954947 
L 327.466116 166.928941 
L 327.612515 88.973069 
L 327.758914 163.909108 
L 327.832113 89.87194 
L 327.905313 123.811811 
L 327.978512 97.937731 
L 328.051712 152.082113 
L 328.124911 83.894812 
L 328.198111 97.462562 
L 328.271311 147.055827 
L 328.34451 82.098441 
L 328.41771 108.209634 
L 328.490909 180.135579 
L 328.564109 106.988683 
L 328.710508 171.139603 
L 328.783707 136.519344 
L 328.856907 144.966779 
L 328.930106 145.743568 
L 329.003306 122.858566 
L 329.076505 134.454492 
L 329.149705 138.131998 
L 329.222904 84.24331 
L 329.296104 87.320826 
L 329.442503 151.796565 
L 329.515702 144.938868 
L 329.588902 117.768475 
L 329.662102 172.639876 
L 329.735301 70.332785 
L 329.808501 173.699272 
L 330.028099 80.907937 
L 330.174498 189.397551 
L 330.394097 102.949037 
L 330.540496 179.122573 
L 330.833294 83.379054 
L 330.906494 140.995547 
L 330.979693 82.220054 
L 331.052893 118.928235 
L 331.126092 105.766871 
L 331.199292 97.643976 
L 331.345691 130.08368 
L 331.41889 149.513807 
L 331.565289 106.437738 
L 331.711688 168.524444 
L 331.858087 121.15493 
L 332.004486 155.831551 
L 332.077686 155.947222 
L 332.150885 146.257282 
L 332.224085 108.534377 
L 332.297285 111.980179 
L 332.370484 111.146203 
L 332.443684 82.350538 
L 332.516883 87.515938 
L 332.663282 166.821995 
L 332.736482 159.009924 
L 332.809681 176.63661 
L 332.882881 163.001176 
L 332.95608 68.225196 
L 333.102479 154.669775 
L 333.175679 59.07255 
L 333.248878 80.348804 
L 333.468477 165.814181 
L 333.541677 47.516308 
L 333.688076 138.948954 
L 333.761275 72.564448 
L 333.980874 166.913527 
L 334.054073 134.133427 
L 334.127273 135.344039 
L 334.200472 168.331714 
L 334.420071 71.516982 
L 334.49327 197.320742 
L 334.56647 182.867376 
L 334.639669 89.875684 
L 334.712869 144.21821 
L 334.786068 76.384188 
L 334.859268 164.14914 
L 334.932468 119.849295 
L 335.005667 160.193419 
L 335.078867 77.474782 
L 335.225266 153.576158 
L 335.298465 140.461449 
L 335.371665 177.50894 
L 335.444864 126.915749 
L 335.518064 159.835269 
L 335.591263 93.240058 
L 335.664463 172.035705 
L 335.737662 170.591392 
L 335.810862 155.866928 
L 335.884061 195.851577 
L 335.957261 101.934175 
L 336.03046 167.557375 
L 336.10366 147.548782 
L 336.17686 113.497643 
L 336.250059 155.450018 
L 336.396458 114.400746 
L 336.469658 120.222756 
L 336.542857 159.084007 
L 336.616057 65.983805 
L 336.689256 109.947985 
L 336.762456 136.516129 
L 336.835655 110.344752 
L 336.908855 173.200924 
L 336.982054 166.041029 
L 337.128453 102.204036 
L 337.274852 112.492687 
L 337.421251 156.143651 
L 337.494451 157.533223 
L 337.64085 83.028318 
L 337.71405 82.138144 
L 337.860449 135.592213 
L 338.006848 105.109409 
L 338.080047 117.71751 
L 338.153247 189.311024 
L 338.226446 130.636778 
L 338.299646 142.615834 
L 338.372845 120.694143 
L 338.446045 137.075441 
L 338.519244 124.351646 
L 338.592444 127.010076 
L 338.665643 129.031195 
L 338.738843 183.941298 
L 338.812043 174.772629 
L 338.885242 72.710167 
L 338.958442 169.642793 
L 339.031641 131.861024 
L 339.104841 157.139624 
L 339.17804 134.236928 
L 339.25124 154.935221 
L 339.324439 81.18275 
L 339.397639 180.052929 
L 339.470838 78.74636 
L 339.544038 148.918191 
L 339.617237 78.680382 
L 339.690437 98.523334 
L 339.836836 154.134784 
L 339.910035 127.012909 
L 339.983235 161.357991 
L 340.129634 80.861587 
L 340.202834 96.953541 
L 340.349233 168.528936 
L 340.495632 101.505059 
L 340.568831 146.554549 
L 340.642031 105.19436 
L 340.71523 164.247504 
L 340.78843 87.629578 
L 340.861629 113.101866 
L 340.934829 140.652241 
L 341.008028 131.812465 
L 341.081228 105.544047 
L 341.154427 109.855842 
L 341.227627 180.62131 
L 341.300826 111.900789 
L 341.374026 151.800516 
L 341.447226 100.833997 
L 341.593625 172.617809 
L 341.886423 49.838014 
L 341.959622 160.869895 
L 342.032822 147.795049 
L 342.179221 92.989551 
L 342.25242 156.466876 
L 342.32562 70.005884 
L 342.545218 172.875843 
L 342.618418 84.32256 
L 342.691617 147.517057 
L 342.838017 69.850635 
L 342.911216 75.714441 
L 342.984416 172.03974 
L 343.057615 102.871402 
L 343.130815 110.761317 
L 343.277214 139.256818 
L 343.350413 109.578871 
L 343.423613 118.156519 
L 343.496812 161.371851 
L 343.643211 103.526576 
L 343.78961 179.927731 
L 343.936009 96.750165 
L 344.155608 174.297012 
L 344.228808 173.255816 
L 344.302007 88.154291 
L 344.375207 179.456201 
L 344.448406 150.53234 
L 344.594805 119.235657 
L 344.668005 171.318296 
L 344.741204 93.900018 
L 344.814404 175.110618 
L 344.887603 84.367383 
L 344.960803 182.143955 
L 345.034002 115.555967 
L 345.107202 166.002477 
L 345.180401 151.211266 
L 345.4 104.699644 
L 345.4732 152.160022 
L 345.546399 51.229611 
L 345.619599 157.506735 
L 345.692798 113.91725 
L 345.839197 172.037938 
L 346.058796 75.317444 
L 346.278394 180.431526 
L 346.351594 142.624859 
L 346.424793 145.76411 
L 346.497993 152.835755 
L 346.571192 105.697268 
L 346.644392 157.863801 
L 346.717591 145.921137 
L 346.790791 87.030006 
L 346.863991 163.2581 
L 346.93719 144.818882 
L 347.01039 89.218847 
L 347.083589 137.627005 
L 347.156789 75.295139 
L 347.229988 184.763515 
L 347.303188 182.222633 
L 347.376387 128.587694 
L 347.449587 154.816737 
L 347.595986 109.008258 
L 347.669185 109.811432 
L 347.742385 154.473443 
L 347.815584 142.92419 
L 347.961983 133.505724 
L 348.108383 106.071176 
L 348.327981 194.775446 
L 348.47438 86.627552 
L 348.54758 147.445072 
L 348.620779 118.599261 
L 348.693979 131.880166 
L 348.767178 95.997295 
L 348.840378 187.28966 
L 348.986777 92.999194 
L 349.059976 169.530949 
L 349.133176 110.450101 
L 349.206375 136.712225 
L 349.279575 114.693648 
L 349.352774 118.865315 
L 349.425974 170.285591 
L 349.499174 55.303461 
L 349.572373 143.599386 
L 349.645573 129.31378 
L 349.718772 95.35839 
L 349.791972 128.197031 
L 349.865171 72.644602 
L 349.938371 123.959063 
L 350.01157 88.733356 
L 350.08477 139.208264 
L 350.157969 88.545714 
L 350.450767 169.059084 
L 350.597166 130.820018 
L 350.670366 76.785531 
L 350.889965 165.225189 
L 350.963164 134.749542 
L 351.109563 169.638441 
L 351.182763 107.154842 
L 351.255962 119.698773 
L 351.329162 108.244923 
L 351.402361 114.888187 
L 351.54876 85.071649 
L 351.62196 169.622286 
L 351.695159 132.122882 
L 351.841558 165.4534 
L 351.914758 156.727677 
L 351.987957 98.251319 
L 352.061157 147.691567 
L 352.134357 124.221427 
L 352.280756 84.660713 
L 352.427155 153.859689 
L 352.500354 122.174217 
L 352.573554 157.149089 
L 352.719953 119.290054 
L 352.793152 71.299014 
L 352.939551 149.970707 
L 353.08595 76.230732 
L 353.15915 96.107531 
L 353.232349 176.634839 
L 353.305549 167.924116 
L 353.451948 79.451911 
L 353.598347 166.400491 
L 353.744746 56.034846 
L 353.964345 179.430805 
L 354.110744 77.665344 
L 354.330342 115.474607 
L 354.403542 104.27631 
L 354.476741 143.174819 
L 354.549941 123.307173 
L 354.62314 137.493216 
L 354.69634 83.567526 
L 354.842739 190.721327 
L 354.989138 122.115446 
L 355.135537 178.642279 
L 355.208737 164.61702 
L 355.355136 155.871238 
L 355.428335 164.359494 
L 355.647934 69.770192 
L 355.794333 153.22719 
L 355.867532 93.115107 
L 355.940732 114.60446 
L 356.013932 164.775115 
L 356.087131 54.8714 
L 356.23353 149.172157 
L 356.379929 106.65404 
L 356.453129 153.706607 
L 356.599528 78.803682 
L 356.672727 83.426889 
L 356.819126 153.772473 
L 356.965525 111.959778 
L 357.185124 169.269334 
L 357.331523 91.842065 
L 357.477922 151.581284 
L 357.551122 57.903938 
L 357.624321 148.674772 
L 357.697521 108.62372 
L 357.84392 118.902525 
L 357.917119 70.038656 
L 357.990319 117.861385 
L 358.209917 51.531387 
L 358.283117 139.372808 
L 358.356316 116.617398 
L 358.502715 182.82344 
L 358.575915 98.105668 
L 358.649115 151.031131 
L 358.722314 138.23087 
L 358.795514 56.695319 
L 358.941913 122.158822 
L 359.088312 93.644265 
L 359.161511 98.369613 
L 359.234711 182.858195 
L 359.30791 170.738691 
L 359.527509 77.869401 
L 359.673908 134.050931 
L 359.747107 74.763476 
L 359.820307 115.97591 
L 359.893506 97.331816 
L 360.039906 137.059264 
L 360.113105 104.808557 
L 360.259504 138.405743 
L 360.405903 60.252736 
L 360.479103 126.600976 
L 360.552302 69.045348 
L 360.771901 160.65781 
L 360.8451 47.999896 
L 360.9183 161.029079 
L 360.991499 91.431377 
L 361.064699 117.452549 
L 361.137898 121.516494 
L 361.211098 74.225871 
L 361.284298 98.412668 
L 361.430697 142.08692 
L 361.503896 136.430811 
L 361.577096 186.892153 
L 361.650295 175.168637 
L 361.723495 70.668236 
L 361.796694 107.308238 
L 361.869894 160.152829 
L 361.943093 134.662921 
L 362.016293 108.657737 
L 362.162692 140.495086 
L 362.235891 82.432732 
L 362.309091 98.803798 
L 362.38229 138.503598 
L 362.45549 117.710588 
L 362.528689 144.897083 
L 362.748288 67.587149 
L 362.821488 169.929823 
L 362.894687 135.557991 
L 362.967887 90.75867 
L 363.187485 167.875319 
L 363.333884 101.160433 
L 363.407084 119.386064 
L 363.480283 191.327081 
L 363.626682 78.32003 
L 363.699882 159.748273 
L 363.773081 112.163473 
L 363.846281 122.51617 
L 363.99268 82.475936 
L 364.06588 140.59471 
L 364.139079 115.252708 
L 364.212279 82.440254 
L 364.285478 106.83217 
L 364.505077 52.602107 
L 364.578276 104.006366 
L 364.651476 91.550216 
L 364.724675 48.921409 
L 364.797875 51.490509 
L 364.944274 156.04348 
L 365.090673 90.904925 
L 365.163872 136.465224 
L 365.237072 124.943228 
L 365.383471 99.969869 
L 365.456671 103.048839 
L 365.676269 183.626716 
L 365.749469 85.543933 
L 365.822668 123.101865 
L 365.969067 87.841046 
L 366.042267 115.028781 
L 366.115466 109.544489 
L 366.188666 86.095084 
L 366.261865 137.746707 
L 366.335065 121.756375 
L 366.481464 58.150771 
L 366.701063 152.540133 
L 366.774262 105.92146 
L 366.993861 150.682898 
L 367.06706 102.332536 
L 367.14026 151.881242 
L 367.213459 98.008261 
L 367.286659 151.908464 
L 367.359858 141.960742 
L 367.433058 100.264999 
L 367.506257 117.804422 
L 367.579457 102.666176 
L 367.725856 163.011787 
L 367.799055 173.209512 
L 367.872255 169.970405 
L 367.945455 172.413687 
L 368.091854 132.285467 
L 368.165053 132.651699 
L 368.238253 118.106902 
L 368.311452 164.837039 
L 368.457851 65.10693 
L 368.531051 139.793545 
L 368.60425 117.220932 
L 368.750649 133.657278 
L 368.823849 125.251233 
L 368.897048 170.06304 
L 368.970248 120.215345 
L 369.043447 158.63738 
L 369.116647 107.59227 
L 369.189847 143.145617 
L 369.263046 106.694083 
L 369.409445 160.401236 
L 369.482645 129.415329 
L 369.555844 176.138347 
L 369.629044 160.503954 
L 369.775443 141.527857 
L 369.848642 151.344621 
L 369.921842 140.478541 
L 369.995041 146.01614 
L 370.14144 160.983053 
L 370.21464 109.816194 
L 370.287839 135.626187 
L 370.361039 114.14475 
L 370.434238 121.462074 
L 370.580638 173.167944 
L 370.727037 114.070475 
L 370.800236 128.249739 
L 370.873436 168.056345 
L 371.093034 127.196016 
L 371.166234 172.967813 
L 371.239433 104.222586 
L 371.312633 143.182588 
L 371.459032 87.292766 
L 371.532231 167.974622 
L 371.75183 92.895931 
L 371.898229 141.363557 
L 371.971429 66.330164 
L 372.117828 181.617474 
L 372.264227 58.61698 
L 372.337426 63.940557 
L 372.410626 78.36492 
L 372.483825 123.700314 
L 372.703424 77.465687 
L 372.776623 103.718909 
L 372.849823 75.491446 
L 372.923022 140.745952 
L 372.996222 135.350671 
L 373.069421 81.914228 
L 373.215821 152.444463 
L 373.36222 100.445106 
L 373.508619 180.180489 
L 373.581818 117.934813 
L 373.581818 117.934813 
" style="fill:none;stroke:#1f77b4;stroke-linecap:square;stroke-width:1.5;"/>
   </g>
   <g id="patch_3">
    <path d="M 54 252 
L 54 34.56 
" style="fill:none;stroke:#000000;stroke-linecap:square;stroke-linejoin:miter;stroke-width:0.8;"/>
   </g>
   <g id="patch_4">
    <path d="M 388.8 252 
L 388.8 34.56 
" style="fill:none;stroke:#000000;stroke-linecap:square;stroke-linejoin:miter;stroke-width:0.8;"/>
   </g>
   <g id="patch_5">
    <path d="M 54 252 
L 388.8 252 
" style="fill:none;stroke:#000000;stroke-linecap:square;stroke-linejoin:miter;stroke-width:0.8;"/>
   </g>
   <g id="patch_6">
    <path d="M 54 34.56 
L 388.8 34.56 
" style="fill:none;stroke:#000000;stroke-linecap:square;stroke-linejoin:miter;stroke-width:0.8;"/>
   </g>
  </g>
 </g>
 <defs>
  <clipPath id="p1406512bd8">
   <rect height="217.44" width="334.8" x="54" y="34.56"/>
  </clipPath>
 </defs>
</svg>
