<?xml version="1.0" encoding="utf-8" standalone="no"?>
<!DOCTYPE svg PUBLIC "-//W3C//DTD SVG 1.1//EN"
  "http://www.w3.org/Graphics/SVG/1.1/DTD/svg11.dtd">
<!-- Created with matplotlib (https://matplotlib.org/) -->
<svg height="288pt" version="1.1" viewBox="0 0 432 288" width="432pt" xmlns="http://www.w3.org/2000/svg" xmlns:xlink="http://www.w3.org/1999/xlink">
 <defs>
  <style type="text/css">
*{stroke-linecap:butt;stroke-linejoin:round;}
  </style>
 </defs>
 <g id="figure_1">
  <g id="patch_1">
   <path d="M 0 288 
L 432 288 
L 432 0 
L 0 0 
z
" style="fill:#ffffff;"/>
  </g>
  <g id="axes_1">
   <g id="patch_2">
    <path d="M 54 252 
L 388.8 252 
L 388.8 34.56 
L 54 34.56 
z
" style="fill:#ffffff;"/>
   </g>
   <g id="matplotlib.axis_1">
    <g id="xtick_1">
     <g id="line2d_1">
      <defs>
       <path d="M 0 0 
L 0 3.5 
" id="m56fdb4c387" style="stroke:#000000;stroke-width:0.8;"/>
      </defs>
      <g>
       <use style="stroke:#000000;stroke-width:0.8;" x="69.218182" xlink:href="#m56fdb4c387" y="252"/>
      </g>
     </g>
     <g id="text_1">
      <!-- 0 -->
      <defs>
       <path d="M 31.78125 66.40625 
Q 24.171875 66.40625 20.328125 58.90625 
Q 16.5 51.421875 16.5 36.375 
Q 16.5 21.390625 20.328125 13.890625 
Q 24.171875 6.390625 31.78125 6.390625 
Q 39.453125 6.390625 43.28125 13.890625 
Q 47.125 21.390625 47.125 36.375 
Q 47.125 51.421875 43.28125 58.90625 
Q 39.453125 66.40625 31.78125 66.40625 
z
M 31.78125 74.21875 
Q 44.046875 74.21875 50.515625 64.515625 
Q 56.984375 54.828125 56.984375 36.375 
Q 56.984375 17.96875 50.515625 8.265625 
Q 44.046875 -1.421875 31.78125 -1.421875 
Q 19.53125 -1.421875 13.0625 8.265625 
Q 6.59375 17.96875 6.59375 36.375 
Q 6.59375 54.828125 13.0625 64.515625 
Q 19.53125 74.21875 31.78125 74.21875 
z
" id="DejaVuSans-48"/>
      </defs>
      <g transform="translate(66.036932 266.598437)scale(0.1 -0.1)">
       <use xlink:href="#DejaVuSans-48"/>
      </g>
     </g>
    </g>
    <g id="xtick_2">
     <g id="line2d_2">
      <g>
       <use style="stroke:#000000;stroke-width:0.8;" x="143.021197" xlink:href="#m56fdb4c387" y="252"/>
      </g>
     </g>
     <g id="text_2">
      <!-- 1000 -->
      <defs>
       <path d="M 12.40625 8.296875 
L 28.515625 8.296875 
L 28.515625 63.921875 
L 10.984375 60.40625 
L 10.984375 69.390625 
L 28.421875 72.90625 
L 38.28125 72.90625 
L 38.28125 8.296875 
L 54.390625 8.296875 
L 54.390625 0 
L 12.40625 0 
z
" id="DejaVuSans-49"/>
      </defs>
      <g transform="translate(130.296197 266.598437)scale(0.1 -0.1)">
       <use xlink:href="#DejaVuSans-49"/>
       <use x="63.623047" xlink:href="#DejaVuSans-48"/>
       <use x="127.246094" xlink:href="#DejaVuSans-48"/>
       <use x="190.869141" xlink:href="#DejaVuSans-48"/>
      </g>
     </g>
    </g>
    <g id="xtick_3">
     <g id="line2d_3">
      <g>
       <use style="stroke:#000000;stroke-width:0.8;" x="216.824213" xlink:href="#m56fdb4c387" y="252"/>
      </g>
     </g>
     <g id="text_3">
      <!-- 2000 -->
      <defs>
       <path d="M 19.1875 8.296875 
L 53.609375 8.296875 
L 53.609375 0 
L 7.328125 0 
L 7.328125 8.296875 
Q 12.9375 14.109375 22.625 23.890625 
Q 32.328125 33.6875 34.8125 36.53125 
Q 39.546875 41.84375 41.421875 45.53125 
Q 43.3125 49.21875 43.3125 52.78125 
Q 43.3125 58.59375 39.234375 62.25 
Q 35.15625 65.921875 28.609375 65.921875 
Q 23.96875 65.921875 18.8125 64.3125 
Q 13.671875 62.703125 7.8125 59.421875 
L 7.8125 69.390625 
Q 13.765625 71.78125 18.9375 73 
Q 24.125 74.21875 28.421875 74.21875 
Q 39.75 74.21875 46.484375 68.546875 
Q 53.21875 62.890625 53.21875 53.421875 
Q 53.21875 48.921875 51.53125 44.890625 
Q 49.859375 40.875 45.40625 35.40625 
Q 44.1875 33.984375 37.640625 27.21875 
Q 31.109375 20.453125 19.1875 8.296875 
z
" id="DejaVuSans-50"/>
      </defs>
      <g transform="translate(204.099213 266.598437)scale(0.1 -0.1)">
       <use xlink:href="#DejaVuSans-50"/>
       <use x="63.623047" xlink:href="#DejaVuSans-48"/>
       <use x="127.246094" xlink:href="#DejaVuSans-48"/>
       <use x="190.869141" xlink:href="#DejaVuSans-48"/>
      </g>
     </g>
    </g>
    <g id="xtick_4">
     <g id="line2d_4">
      <g>
       <use style="stroke:#000000;stroke-width:0.8;" x="290.627229" xlink:href="#m56fdb4c387" y="252"/>
      </g>
     </g>
     <g id="text_4">
      <!-- 3000 -->
      <defs>
       <path d="M 40.578125 39.3125 
Q 47.65625 37.796875 51.625 33 
Q 55.609375 28.21875 55.609375 21.1875 
Q 55.609375 10.40625 48.1875 4.484375 
Q 40.765625 -1.421875 27.09375 -1.421875 
Q 22.515625 -1.421875 17.65625 -0.515625 
Q 12.796875 0.390625 7.625 2.203125 
L 7.625 11.71875 
Q 11.71875 9.328125 16.59375 8.109375 
Q 21.484375 6.890625 26.8125 6.890625 
Q 36.078125 6.890625 40.9375 10.546875 
Q 45.796875 14.203125 45.796875 21.1875 
Q 45.796875 27.640625 41.28125 31.265625 
Q 36.765625 34.90625 28.71875 34.90625 
L 20.21875 34.90625 
L 20.21875 43.015625 
L 29.109375 43.015625 
Q 36.375 43.015625 40.234375 45.921875 
Q 44.09375 48.828125 44.09375 54.296875 
Q 44.09375 59.90625 40.109375 62.90625 
Q 36.140625 65.921875 28.71875 65.921875 
Q 24.65625 65.921875 20.015625 65.03125 
Q 15.375 64.15625 9.8125 62.3125 
L 9.8125 71.09375 
Q 15.4375 72.65625 20.34375 73.4375 
Q 25.25 74.21875 29.59375 74.21875 
Q 40.828125 74.21875 47.359375 69.109375 
Q 53.90625 64.015625 53.90625 55.328125 
Q 53.90625 49.265625 50.4375 45.09375 
Q 46.96875 40.921875 40.578125 39.3125 
z
" id="DejaVuSans-51"/>
      </defs>
      <g transform="translate(277.902229 266.598437)scale(0.1 -0.1)">
       <use xlink:href="#DejaVuSans-51"/>
       <use x="63.623047" xlink:href="#DejaVuSans-48"/>
       <use x="127.246094" xlink:href="#DejaVuSans-48"/>
       <use x="190.869141" xlink:href="#DejaVuSans-48"/>
      </g>
     </g>
    </g>
    <g id="xtick_5">
     <g id="line2d_5">
      <g>
       <use style="stroke:#000000;stroke-width:0.8;" x="364.430244" xlink:href="#m56fdb4c387" y="252"/>
      </g>
     </g>
     <g id="text_5">
      <!-- 4000 -->
      <defs>
       <path d="M 37.796875 64.3125 
L 12.890625 25.390625 
L 37.796875 25.390625 
z
M 35.203125 72.90625 
L 47.609375 72.90625 
L 47.609375 25.390625 
L 58.015625 25.390625 
L 58.015625 17.1875 
L 47.609375 17.1875 
L 47.609375 0 
L 37.796875 0 
L 37.796875 17.1875 
L 4.890625 17.1875 
L 4.890625 26.703125 
z
" id="DejaVuSans-52"/>
      </defs>
      <g transform="translate(351.705244 266.598437)scale(0.1 -0.1)">
       <use xlink:href="#DejaVuSans-52"/>
       <use x="63.623047" xlink:href="#DejaVuSans-48"/>
       <use x="127.246094" xlink:href="#DejaVuSans-48"/>
       <use x="190.869141" xlink:href="#DejaVuSans-48"/>
      </g>
     </g>
    </g>
   </g>
   <g id="matplotlib.axis_2">
    <g id="ytick_1">
     <g id="line2d_6">
      <defs>
       <path d="M 0 0 
L -3.5 0 
" id="m279a583b79" style="stroke:#000000;stroke-width:0.8;"/>
      </defs>
      <g>
       <use style="stroke:#000000;stroke-width:0.8;" x="54" xlink:href="#m279a583b79" y="246.733563"/>
      </g>
     </g>
     <g id="text_6">
      <!-- 4.00 -->
      <defs>
       <path d="M 10.6875 12.40625 
L 21 12.40625 
L 21 0 
L 10.6875 0 
z
" id="DejaVuSans-46"/>
      </defs>
      <g transform="translate(24.734375 250.532781)scale(0.1 -0.1)">
       <use xlink:href="#DejaVuSans-52"/>
       <use x="63.623047" xlink:href="#DejaVuSans-46"/>
       <use x="95.410156" xlink:href="#DejaVuSans-48"/>
       <use x="159.033203" xlink:href="#DejaVuSans-48"/>
      </g>
     </g>
    </g>
    <g id="ytick_2">
     <g id="line2d_7">
      <g>
       <use style="stroke:#000000;stroke-width:0.8;" x="54" xlink:href="#m279a583b79" y="221.510397"/>
      </g>
     </g>
     <g id="text_7">
      <!-- 4.25 -->
      <defs>
       <path d="M 10.796875 72.90625 
L 49.515625 72.90625 
L 49.515625 64.59375 
L 19.828125 64.59375 
L 19.828125 46.734375 
Q 21.96875 47.46875 24.109375 47.828125 
Q 26.265625 48.1875 28.421875 48.1875 
Q 40.625 48.1875 47.75 41.5 
Q 54.890625 34.8125 54.890625 23.390625 
Q 54.890625 11.625 47.5625 5.09375 
Q 40.234375 -1.421875 26.90625 -1.421875 
Q 22.3125 -1.421875 17.546875 -0.640625 
Q 12.796875 0.140625 7.71875 1.703125 
L 7.71875 11.625 
Q 12.109375 9.234375 16.796875 8.0625 
Q 21.484375 6.890625 26.703125 6.890625 
Q 35.15625 6.890625 40.078125 11.328125 
Q 45.015625 15.765625 45.015625 23.390625 
Q 45.015625 31 40.078125 35.4375 
Q 35.15625 39.890625 26.703125 39.890625 
Q 22.75 39.890625 18.8125 39.015625 
Q 14.890625 38.140625 10.796875 36.28125 
z
" id="DejaVuSans-53"/>
      </defs>
      <g transform="translate(24.734375 225.309616)scale(0.1 -0.1)">
       <use xlink:href="#DejaVuSans-52"/>
       <use x="63.623047" xlink:href="#DejaVuSans-46"/>
       <use x="95.410156" xlink:href="#DejaVuSans-50"/>
       <use x="159.033203" xlink:href="#DejaVuSans-53"/>
      </g>
     </g>
    </g>
    <g id="ytick_3">
     <g id="line2d_8">
      <g>
       <use style="stroke:#000000;stroke-width:0.8;" x="54" xlink:href="#m279a583b79" y="196.287232"/>
      </g>
     </g>
     <g id="text_8">
      <!-- 4.50 -->
      <g transform="translate(24.734375 200.086451)scale(0.1 -0.1)">
       <use xlink:href="#DejaVuSans-52"/>
       <use x="63.623047" xlink:href="#DejaVuSans-46"/>
       <use x="95.410156" xlink:href="#DejaVuSans-53"/>
       <use x="159.033203" xlink:href="#DejaVuSans-48"/>
      </g>
     </g>
    </g>
    <g id="ytick_4">
     <g id="line2d_9">
      <g>
       <use style="stroke:#000000;stroke-width:0.8;" x="54" xlink:href="#m279a583b79" y="171.064067"/>
      </g>
     </g>
     <g id="text_9">
      <!-- 4.75 -->
      <defs>
       <path d="M 8.203125 72.90625 
L 55.078125 72.90625 
L 55.078125 68.703125 
L 28.609375 0 
L 18.3125 0 
L 43.21875 64.59375 
L 8.203125 64.59375 
z
" id="DejaVuSans-55"/>
      </defs>
      <g transform="translate(24.734375 174.863286)scale(0.1 -0.1)">
       <use xlink:href="#DejaVuSans-52"/>
       <use x="63.623047" xlink:href="#DejaVuSans-46"/>
       <use x="95.410156" xlink:href="#DejaVuSans-55"/>
       <use x="159.033203" xlink:href="#DejaVuSans-53"/>
      </g>
     </g>
    </g>
    <g id="ytick_5">
     <g id="line2d_10">
      <g>
       <use style="stroke:#000000;stroke-width:0.8;" x="54" xlink:href="#m279a583b79" y="145.840902"/>
      </g>
     </g>
     <g id="text_10">
      <!-- 5.00 -->
      <g transform="translate(24.734375 149.640121)scale(0.1 -0.1)">
       <use xlink:href="#DejaVuSans-53"/>
       <use x="63.623047" xlink:href="#DejaVuSans-46"/>
       <use x="95.410156" xlink:href="#DejaVuSans-48"/>
       <use x="159.033203" xlink:href="#DejaVuSans-48"/>
      </g>
     </g>
    </g>
    <g id="ytick_6">
     <g id="line2d_11">
      <g>
       <use style="stroke:#000000;stroke-width:0.8;" x="54" xlink:href="#m279a583b79" y="120.617737"/>
      </g>
     </g>
     <g id="text_11">
      <!-- 5.25 -->
      <g transform="translate(24.734375 124.416955)scale(0.1 -0.1)">
       <use xlink:href="#DejaVuSans-53"/>
       <use x="63.623047" xlink:href="#DejaVuSans-46"/>
       <use x="95.410156" xlink:href="#DejaVuSans-50"/>
       <use x="159.033203" xlink:href="#DejaVuSans-53"/>
      </g>
     </g>
    </g>
    <g id="ytick_7">
     <g id="line2d_12">
      <g>
       <use style="stroke:#000000;stroke-width:0.8;" x="54" xlink:href="#m279a583b79" y="95.394571"/>
      </g>
     </g>
     <g id="text_12">
      <!-- 5.50 -->
      <g transform="translate(24.734375 99.19379)scale(0.1 -0.1)">
       <use xlink:href="#DejaVuSans-53"/>
       <use x="63.623047" xlink:href="#DejaVuSans-46"/>
       <use x="95.410156" xlink:href="#DejaVuSans-53"/>
       <use x="159.033203" xlink:href="#DejaVuSans-48"/>
      </g>
     </g>
    </g>
    <g id="ytick_8">
     <g id="line2d_13">
      <g>
       <use style="stroke:#000000;stroke-width:0.8;" x="54" xlink:href="#m279a583b79" y="70.171406"/>
      </g>
     </g>
     <g id="text_13">
      <!-- 5.75 -->
      <g transform="translate(24.734375 73.970625)scale(0.1 -0.1)">
       <use xlink:href="#DejaVuSans-53"/>
       <use x="63.623047" xlink:href="#DejaVuSans-46"/>
       <use x="95.410156" xlink:href="#DejaVuSans-55"/>
       <use x="159.033203" xlink:href="#DejaVuSans-53"/>
      </g>
     </g>
    </g>
    <g id="ytick_9">
     <g id="line2d_14">
      <g>
       <use style="stroke:#000000;stroke-width:0.8;" x="54" xlink:href="#m279a583b79" y="44.948241"/>
      </g>
     </g>
     <g id="text_14">
      <!-- 6.00 -->
      <defs>
       <path d="M 33.015625 40.375 
Q 26.375 40.375 22.484375 35.828125 
Q 18.609375 31.296875 18.609375 23.390625 
Q 18.609375 15.53125 22.484375 10.953125 
Q 26.375 6.390625 33.015625 6.390625 
Q 39.65625 6.390625 43.53125 10.953125 
Q 47.40625 15.53125 47.40625 23.390625 
Q 47.40625 31.296875 43.53125 35.828125 
Q 39.65625 40.375 33.015625 40.375 
z
M 52.59375 71.296875 
L 52.59375 62.3125 
Q 48.875 64.0625 45.09375 64.984375 
Q 41.3125 65.921875 37.59375 65.921875 
Q 27.828125 65.921875 22.671875 59.328125 
Q 17.53125 52.734375 16.796875 39.40625 
Q 19.671875 43.65625 24.015625 45.921875 
Q 28.375 48.1875 33.59375 48.1875 
Q 44.578125 48.1875 50.953125 41.515625 
Q 57.328125 34.859375 57.328125 23.390625 
Q 57.328125 12.15625 50.6875 5.359375 
Q 44.046875 -1.421875 33.015625 -1.421875 
Q 20.359375 -1.421875 13.671875 8.265625 
Q 6.984375 17.96875 6.984375 36.375 
Q 6.984375 53.65625 15.1875 63.9375 
Q 23.390625 74.21875 37.203125 74.21875 
Q 40.921875 74.21875 44.703125 73.484375 
Q 48.484375 72.75 52.59375 71.296875 
z
" id="DejaVuSans-54"/>
      </defs>
      <g transform="translate(24.734375 48.74746)scale(0.1 -0.1)">
       <use xlink:href="#DejaVuSans-54"/>
       <use x="63.623047" xlink:href="#DejaVuSans-46"/>
       <use x="95.410156" xlink:href="#DejaVuSans-48"/>
       <use x="159.033203" xlink:href="#DejaVuSans-48"/>
      </g>
     </g>
    </g>
   </g>
   <g id="line2d_15">
    <path clip-path="url(#pd2c27bb556)" d="M 69.218182 221.195893 
L 69.291985 214.527306 
L 69.661 235.827677 
L 69.734803 234.357911 
L 69.808606 242.116364 
L 69.956212 236.546262 
L 70.030015 236.099664 
L 70.103818 233.624034 
L 70.251424 222.834628 
L 70.325227 224.963437 
L 70.39903 224.847008 
L 70.472833 216.18476 
L 70.841848 234.308983 
L 70.915651 233.243027 
L 70.989454 241.593747 
L 71.13706 234.75071 
L 71.210863 231.988108 
L 71.284666 233.989927 
L 71.432272 215.320901 
L 71.506075 216.643379 
L 71.579878 216.834048 
L 71.727484 205.134388 
L 71.801287 204.434911 
L 71.948893 209.986791 
L 72.244105 197.928919 
L 72.317908 198.815798 
L 72.391711 192.708692 
L 72.539318 203.971916 
L 72.613121 202.176129 
L 72.83453 215.418426 
L 72.982136 206.409222 
L 73.055939 208.192438 
L 73.277348 193.542393 
L 73.498757 199.451798 
L 73.57256 186.15282 
L 73.646363 188.777888 
L 73.867772 175.865565 
L 73.941575 176.685926 
L 74.015378 184.446787 
L 74.089181 182.597358 
L 74.162984 178.147598 
L 74.236787 181.36588 
L 74.531999 170.052358 
L 74.605802 174.619987 
L 74.827211 157.489894 
L 75.196226 131.358955 
L 75.270029 131.525579 
L 75.343832 130.54007 
L 75.417635 124.628314 
L 75.491438 127.337857 
L 75.860453 114.632899 
L 76.008059 104.239192 
L 76.303271 124.00489 
L 76.377074 122.667113 
L 76.450877 123.604664 
L 76.52468 129.561075 
L 76.598483 124.273615 
L 77.115104 142.482411 
L 77.188908 137.358563 
L 77.410317 157.39563 
L 77.557923 154.569593 
L 77.853135 161.714872 
L 77.926938 159.608272 
L 78.000741 162.090099 
L 78.22215 156.513255 
L 78.295953 156.951524 
L 78.369756 159.223892 
L 78.517362 155.978642 
L 78.591165 157.537491 
L 78.664968 155.703188 
L 78.738771 156.398573 
L 78.812574 155.226605 
L 78.886377 156.322278 
L 78.96018 159.591077 
L 79.107786 155.444485 
L 79.181589 157.710469 
L 79.255392 155.736943 
L 79.69821 131.195246 
L 79.772013 132.121034 
L 79.919619 125.048298 
L 79.993422 121.474984 
L 80.067225 123.617466 
L 80.141028 122.813037 
L 80.214831 122.461428 
L 80.362437 120.586433 
L 80.510043 123.042052 
L 80.657649 126.895012 
L 80.731452 122.462854 
L 80.805255 123.896929 
L 80.879058 124.872277 
L 81.100467 136.847448 
L 81.248073 133.390947 
L 81.321876 134.098581 
L 81.469482 131.673464 
L 81.617088 136.164597 
L 81.690891 135.811731 
L 81.838497 130.326704 
L 81.912301 131.398467 
L 81.986104 129.174327 
L 82.207513 138.173196 
L 82.576528 125.588852 
L 82.650331 127.417561 
L 82.797937 134.626065 
L 82.87174 130.850694 
L 82.945543 133.289192 
L 83.019346 132.340618 
L 83.093149 131.579356 
L 83.240755 126.7303 
L 83.388361 136.326478 
L 83.462164 138.026496 
L 83.60977 131.503457 
L 83.757376 133.886491 
L 83.831179 133.527537 
L 83.904982 131.396043 
L 84.052588 134.546726 
L 84.495406 120.986988 
L 84.569209 123.796405 
L 84.643012 120.549629 
L 84.864421 124.738 
L 84.938224 120.5747 
L 85.159633 133.360675 
L 85.381042 123.954463 
L 85.454845 130.020718 
L 85.676254 121.421753 
L 85.750057 123.481299 
L 85.897663 116.782756 
L 86.119072 123.88989 
L 86.192875 122.43488 
L 86.414284 113.599704 
L 86.56189 115.365467 
L 86.709497 112.443811 
L 86.7833 113.904314 
L 87.004709 124.423709 
L 87.152315 127.387073 
L 87.226118 131.117407 
L 87.299921 130.308267 
L 87.373724 129.4083 
L 87.447527 131.287435 
L 87.52133 139.492512 
L 87.595133 138.269475 
L 87.964148 149.590168 
L 88.037951 147.692029 
L 88.333163 155.828989 
L 88.406966 155.94657 
L 88.480769 159.331838 
L 88.554572 158.908641 
L 88.702178 154.240405 
L 88.849784 166.411773 
L 88.923587 166.16389 
L 89.071193 171.198503 
L 89.144996 167.709075 
L 89.366405 177.98448 
L 89.514011 171.38025 
L 89.587814 173.447391 
L 89.661617 172.819785 
L 89.73542 172.818336 
L 89.883026 170.083668 
L 90.030632 176.797302 
L 90.399647 163.218461 
L 90.47345 162.645466 
L 90.547253 165.592872 
L 90.621056 162.829366 
L 90.768662 166.141307 
L 91.137677 159.305899 
L 91.285283 164.449508 
L 91.359087 163.672109 
L 91.43289 158.827092 
L 91.506693 160.115584 
L 91.580496 162.918246 
L 91.728102 157.822974 
L 91.801905 160.636149 
L 91.875708 159.592703 
L 91.949511 158.410368 
L 92.023314 159.265571 
L 92.097117 158.205335 
L 92.17092 153.349938 
L 92.244723 156.775135 
L 92.318526 155.601389 
L 92.539935 144.85698 
L 92.613738 136.926154 
L 92.687541 140.20447 
L 92.761344 138.577716 
L 92.90895 143.069913 
L 93.130359 130.48218 
L 93.204162 132.799088 
L 93.277965 126.117985 
L 93.351768 126.538614 
L 93.425571 128.113255 
L 93.499374 126.341875 
L 93.720783 129.204335 
L 93.868389 127.678563 
L 93.942192 122.196955 
L 94.015995 125.17446 
L 94.163601 121.007706 
L 94.237404 123.772667 
L 94.311207 121.667751 
L 94.38501 113.650497 
L 94.458813 113.761644 
L 94.754025 122.422457 
L 94.975434 114.938109 
L 95.049237 117.568584 
L 95.196843 132.063142 
L 95.270646 132.006575 
L 95.418252 135.614683 
L 95.492055 135.402468 
L 95.639661 143.869792 
L 95.713464 144.321713 
L 95.787267 141.768231 
L 95.86107 148.115186 
L 95.934873 147.426796 
L 96.008676 147.831739 
L 96.082479 152.979051 
L 96.156283 151.627437 
L 96.377692 146.001368 
L 96.525298 147.443714 
L 96.746707 137.11756 
L 96.82051 137.110274 
L 96.968116 143.270149 
L 97.041919 144.201943 
L 97.115722 140.553835 
L 97.189525 146.264374 
L 97.263328 143.671407 
L 97.410934 146.158297 
L 97.484737 145.042204 
L 97.55854 148.105094 
L 98.001358 123.605316 
L 98.075161 124.751643 
L 98.29657 120.813944 
L 98.517979 127.759248 
L 98.591782 128.891143 
L 98.739388 122.956352 
L 98.886994 128.051537 
L 98.960797 127.073832 
L 99.108403 137.02257 
L 99.182206 144.730288 
L 99.256009 142.127148 
L 99.329812 144.940302 
L 99.477418 137.489207 
L 99.551221 139.081803 
L 99.625024 133.683156 
L 99.698827 137.122129 
L 99.77263 135.568873 
L 99.920236 131.795553 
L 99.994039 137.098528 
L 100.067842 136.176424 
L 100.141645 135.841074 
L 100.289251 143.405772 
L 100.363054 139.921692 
L 100.436857 140.837164 
L 100.51066 139.336364 
L 100.658266 143.870523 
L 100.732069 143.130941 
L 100.805872 146.672183 
L 101.027282 141.364267 
L 101.101085 143.141963 
L 101.174888 138.844474 
L 101.248691 141.343982 
L 101.322494 141.078003 
L 101.765312 131.632595 
L 102.281933 146.266886 
L 102.355736 141.883787 
L 102.429539 146.667178 
L 102.503342 145.368514 
L 102.577145 138.612986 
L 102.724751 145.760479 
L 102.94616 143.636032 
L 103.167569 152.43786 
L 103.315175 150.397199 
L 103.388978 145.584828 
L 103.462781 147.777232 
L 103.757993 135.722222 
L 103.831796 136.540421 
L 103.905599 141.16613 
L 103.979402 139.912376 
L 104.053205 142.313078 
L 104.127008 138.398235 
L 104.274614 144.039909 
L 104.348417 139.349185 
L 104.42222 139.809281 
L 104.496023 138.783707 
L 104.643629 140.855269 
L 104.865038 129.334373 
L 104.938841 130.307551 
L 105.381659 138.578126 
L 105.455462 136.057766 
L 105.529265 137.624281 
L 105.603069 136.149199 
L 105.750675 127.481679 
L 105.824478 129.111865 
L 105.898281 126.284893 
L 105.972084 126.683578 
L 106.341099 137.115443 
L 106.488705 132.861216 
L 106.562508 136.880359 
L 106.636311 134.712065 
L 106.710114 137.106783 
L 106.783917 136.858931 
L 106.85772 133.969493 
L 106.931523 134.806217 
L 107.079129 141.064325 
L 107.152932 138.982909 
L 107.521947 148.334539 
L 107.59575 147.813196 
L 107.669553 149.214565 
L 107.743356 148.930121 
L 107.817159 148.675685 
L 107.964765 150.485975 
L 108.038568 150.382083 
L 108.112371 149.119616 
L 108.555189 163.170763 
L 108.702795 161.141777 
L 108.998007 173.900306 
L 109.07181 172.292366 
L 109.145613 167.267623 
L 109.219416 168.355661 
L 109.367022 161.647594 
L 109.440825 163.143711 
L 109.514628 165.282046 
L 109.736037 157.884233 
L 109.883643 163.045699 
L 110.031249 156.312405 
L 110.178855 159.671254 
L 110.400265 152.726298 
L 110.474068 152.757515 
L 110.621674 147.682706 
L 110.695477 152.971781 
L 110.843083 147.753176 
L 110.916886 149.844183 
L 110.990689 147.977895 
L 111.064492 148.869713 
L 111.138295 153.465622 
L 111.359704 144.390572 
L 111.433507 145.157676 
L 111.581113 140.763432 
L 111.728719 143.953121 
L 111.802522 146.58577 
L 111.876325 145.885366 
L 112.023931 148.035738 
L 112.097734 144.217871 
L 112.24534 148.603638 
L 112.319143 147.591838 
L 112.392946 142.463927 
L 112.466749 144.473984 
L 112.540552 145.339723 
L 112.614355 150.216451 
L 112.909567 140.81561 
L 112.98337 143.108517 
L 113.057173 140.502526 
L 113.130976 145.004484 
L 113.278582 137.992761 
L 113.352385 138.498708 
L 113.426188 140.03854 
L 113.647597 130.890233 
L 113.942809 140.369159 
L 114.016612 138.267046 
L 114.311824 145.985962 
L 114.607036 138.745412 
L 114.680839 145.314873 
L 114.828445 137.481083 
L 114.976051 143.011695 
L 115.197461 132.541716 
L 115.345067 137.532972 
L 115.492673 145.92381 
L 115.566476 141.632511 
L 115.640279 144.41509 
L 115.714082 142.248779 
L 115.935491 147.075903 
L 116.009294 145.327102 
L 116.230703 155.127765 
L 116.304506 152.178025 
L 116.378309 152.428969 
L 116.452112 153.965133 
L 116.673521 146.839758 
L 116.747324 147.870343 
L 116.821127 142.373408 
L 117.042536 154.327828 
L 117.116339 153.177712 
L 117.190142 152.827253 
L 117.263945 144.909874 
L 117.411551 150.172478 
L 117.559157 144.433197 
L 117.780566 153.579499 
L 118.075778 140.194893 
L 118.297187 148.915983 
L 118.37099 147.503962 
L 118.444793 150.516876 
L 118.518596 150.036462 
L 118.740005 147.865817 
L 118.813808 150.662106 
L 118.887611 149.650296 
L 118.961414 148.173987 
L 119.035217 143.89066 
L 119.182823 151.209904 
L 119.330429 147.433891 
L 119.404232 150.676334 
L 119.478035 148.567718 
L 119.551838 151.497589 
L 119.699444 142.751681 
L 119.847051 153.591677 
L 120.06846 151.641535 
L 120.142263 152.332881 
L 120.363672 146.383577 
L 120.437475 145.340967 
L 120.511278 149.338408 
L 120.585081 144.866953 
L 120.658884 146.82132 
L 120.732687 147.297411 
L 120.880293 142.347883 
L 120.954096 146.684567 
L 121.101702 142.57218 
L 121.175505 141.858 
L 121.396914 132.846097 
L 121.54452 135.157395 
L 121.618323 139.652665 
L 121.692126 138.253729 
L 121.765929 137.791086 
L 121.839732 141.960851 
L 121.913535 139.171134 
L 121.987338 140.98905 
L 122.061141 140.663809 
L 122.134944 133.520365 
L 122.28255 146.222426 
L 122.503959 132.045009 
L 122.577762 132.077982 
L 122.651565 135.307668 
L 122.725368 134.652774 
L 122.946777 124.956298 
L 123.02058 127.177913 
L 123.094383 119.75271 
L 123.168186 123.910684 
L 123.241989 116.843907 
L 123.315792 117.116064 
L 123.389595 117.246383 
L 123.537201 110.371068 
L 123.611004 115.259212 
L 123.684807 112.508249 
L 123.980019 121.813319 
L 124.053822 120.21038 
L 124.127625 117.483804 
L 124.201428 117.594799 
L 124.275231 117.84544 
L 124.422837 106.24886 
L 124.496641 109.393582 
L 124.570444 108.667607 
L 124.644247 107.538584 
L 124.71805 110.892576 
L 124.865656 101.154354 
L 124.939459 103.647102 
L 125.087065 111.596641 
L 125.234671 108.894013 
L 125.529883 122.322977 
L 125.603686 117.801331 
L 125.825095 131.545437 
L 125.898898 130.757036 
L 126.120307 121.440461 
L 126.19411 119.470128 
L 126.267913 120.856534 
L 126.415519 118.368037 
L 126.636928 122.43446 
L 126.710731 128.566801 
L 126.784534 128.433384 
L 126.858337 130.040982 
L 127.079746 140.923526 
L 127.227352 129.212617 
L 127.301155 130.255585 
L 127.374958 133.257541 
L 127.448761 132.437183 
L 127.522564 134.665796 
L 127.67017 125.856237 
L 127.817776 131.467736 
L 127.891579 130.308325 
L 127.965382 133.320296 
L 128.039185 133.038153 
L 128.112988 129.15313 
L 128.186791 129.918704 
L 128.334397 128.927134 
L 128.4082 126.588929 
L 128.924821 143.999012 
L 128.998624 142.600976 
L 129.072427 143.980429 
L 129.14623 143.363781 
L 129.36764 132.937954 
L 129.515246 133.79756 
L 129.662852 124.937788 
L 129.810458 131.86354 
L 129.884261 131.539674 
L 130.10567 128.586652 
L 130.400882 140.721978 
L 130.474685 135.558185 
L 130.548488 140.35763 
L 130.622291 137.963673 
L 130.769897 141.513239 
L 130.917503 131.678325 
L 130.991306 135.359752 
L 131.138912 129.646098 
L 131.212715 133.46018 
L 131.286518 131.697177 
L 131.360321 131.056341 
L 131.434124 127.29721 
L 131.507927 128.091376 
L 131.729336 120.074092 
L 131.803139 121.236829 
L 131.950745 123.753109 
L 132.024548 119.691576 
L 132.098351 121.473699 
L 132.31976 133.717733 
L 132.614972 136.847256 
L 132.910184 121.881906 
L 132.983987 119.589154 
L 133.05779 126.401191 
L 133.131593 120.87471 
L 133.205396 121.102154 
L 133.279199 120.100346 
L 133.500608 128.733031 
L 133.722017 135.39008 
L 133.869623 130.269637 
L 133.943427 131.063773 
L 134.01723 136.549296 
L 134.091033 130.647451 
L 134.164836 133.598907 
L 134.238639 129.384275 
L 134.460048 140.379413 
L 134.533851 131.688817 
L 134.607654 135.376684 
L 134.75526 128.14681 
L 134.976669 119.637231 
L 135.050472 120.979936 
L 135.124275 117.379758 
L 135.198078 118.271122 
L 135.419487 122.624179 
L 135.49329 121.513685 
L 135.567093 123.037818 
L 135.640896 121.124753 
L 135.788502 127.352059 
L 135.862305 124.665815 
L 135.936108 117.865741 
L 136.009911 118.932421 
L 136.083714 117.848816 
L 136.305123 107.775826 
L 136.378926 112.031536 
L 136.600335 102.87477 
L 136.821744 108.764412 
L 136.96935 105.45412 
L 137.043153 106.835118 
L 137.116956 114.674613 
L 137.338365 103.257384 
L 137.412168 101.449005 
L 137.485971 102.201268 
L 137.559774 108.464658 
L 137.70738 101.540978 
L 137.854986 105.046079 
L 138.371607 88.862207 
L 138.44541 89.119268 
L 138.66682 101.477714 
L 138.814426 112.163706 
L 138.888229 111.095817 
L 138.962032 107.825344 
L 139.035835 109.683833 
L 139.183441 107.972305 
L 139.257244 107.919084 
L 139.626259 98.177186 
L 139.700062 95.933345 
L 139.847668 101.72816 
L 139.921471 101.907044 
L 139.995274 104.556406 
L 140.069077 103.776963 
L 140.14288 98.8066 
L 140.290486 106.154722 
L 140.364289 100.156052 
L 140.438092 102.559906 
L 140.585698 110.703345 
L 140.733304 102.741076 
L 141.028516 117.49772 
L 141.102319 113.810097 
L 141.249925 116.339632 
L 141.397531 113.227128 
L 141.61894 122.948198 
L 141.766546 118.899916 
L 141.840349 123.616197 
L 141.914152 123.247505 
L 141.987955 121.554199 
L 142.061758 122.648591 
L 142.135561 126.4203 
L 142.209364 122.03586 
L 142.283167 123.139639 
L 142.35697 123.391515 
L 142.504576 131.166587 
L 142.652182 126.707227 
L 142.799788 131.43789 
L 143.021197 127.199375 
L 143.168803 127.394998 
L 143.242606 128.726605 
L 143.390213 135.527939 
L 143.464016 134.438764 
L 143.537819 138.687024 
L 143.611622 138.493134 
L 143.685425 140.765969 
L 143.833031 131.064482 
L 144.05444 128.121678 
L 144.128243 130.884597 
L 144.202046 128.800627 
L 144.275849 133.678161 
L 144.349652 132.532281 
L 144.423455 130.858113 
L 144.79247 138.280275 
L 144.866273 138.325693 
L 145.013879 137.678912 
L 145.087682 138.83254 
L 145.235288 147.912926 
L 145.309091 146.539441 
L 145.382894 148.077806 
L 145.456697 146.421697 
L 145.5305 151.360143 
L 145.604303 148.954439 
L 145.678106 150.779712 
L 145.825712 158.80457 
L 146.047121 148.032217 
L 146.26853 139.112489 
L 146.342333 145.415108 
L 146.416136 143.462294 
L 146.711348 147.410021 
L 146.785151 145.61239 
L 147.00656 156.431314 
L 147.818393 122.035948 
L 147.892196 122.448597 
L 148.039802 120.738044 
L 148.113606 117.3778 
L 148.187409 118.828466 
L 148.261212 116.871308 
L 148.335015 111.115096 
L 148.408818 111.726696 
L 148.556424 116.103866 
L 148.777833 109.63157 
L 148.851636 110.581955 
L 148.925439 110.288269 
L 148.999242 114.596594 
L 149.073045 111.386649 
L 149.146848 114.714285 
L 149.220651 113.253865 
L 149.44206 100.951811 
L 149.515863 98.854782 
L 149.663469 101.677827 
L 149.811075 113.118245 
L 149.884878 107.775109 
L 150.327696 127.797792 
L 150.475302 129.683879 
L 150.549105 127.65939 
L 150.844317 132.156053 
L 151.139529 140.325599 
L 151.287135 143.340603 
L 151.360938 141.384553 
L 151.434741 141.826703 
L 151.508544 140.490326 
L 151.65615 143.990662 
L 151.729953 138.844786 
L 151.803756 141.229693 
L 151.951362 146.796385 
L 152.098968 152.081461 
L 152.172771 151.913863 
L 152.246574 153.448066 
L 152.39418 148.776243 
L 152.615589 160.683652 
L 152.910802 152.14991 
L 152.984605 152.684568 
L 153.058408 149.659298 
L 153.132211 152.095985 
L 153.206014 150.859517 
L 153.35362 156.947042 
L 153.427423 156.941936 
L 153.575029 146.295832 
L 153.648832 147.741196 
L 153.722635 146.096734 
L 154.017847 156.548253 
L 154.239256 149.404963 
L 154.386862 155.408851 
L 154.534468 155.761823 
L 154.682074 149.549615 
L 154.755877 151.181335 
L 154.977286 143.753262 
L 155.124892 138.686447 
L 155.272498 141.919431 
L 155.346301 142.000223 
L 155.420104 144.410353 
L 155.493907 140.078794 
L 155.641513 146.916241 
L 155.862922 138.708295 
L 156.010528 135.570965 
L 156.084331 136.930622 
L 156.158134 144.406661 
L 156.231937 138.830931 
L 156.30574 140.553942 
L 156.379543 141.123192 
L 156.748558 122.344735 
L 156.822361 122.547834 
L 156.896164 119.79236 
L 156.969967 120.580711 
L 157.04377 120.191387 
L 157.117573 118.953401 
L 157.191376 120.248902 
L 157.265179 124.156517 
L 157.338982 122.283898 
L 157.412785 123.911854 
L 157.486588 122.255438 
L 157.634195 126.271632 
L 157.929407 117.473553 
L 158.00321 117.632697 
L 158.150816 123.759709 
L 158.224619 119.360008 
L 158.519831 130.411457 
L 158.593634 130.280693 
L 158.667437 131.188351 
L 158.74124 129.119987 
L 159.036452 140.511489 
L 159.110255 140.575734 
L 159.405467 156.55571 
L 159.700679 150.163905 
L 159.774482 149.740279 
L 159.848285 149.942171 
L 159.995891 141.449618 
L 160.069694 145.082441 
L 160.2173 136.020698 
L 160.291103 138.345593 
L 160.364906 141.728706 
L 160.586315 135.388837 
L 160.660118 137.646608 
L 160.807724 134.590661 
L 160.881527 136.851863 
L 161.102936 126.765302 
L 161.176739 128.26727 
L 161.250542 128.988054 
L 161.545754 113.496959 
L 161.619557 112.910899 
L 161.69336 115.858917 
L 161.840966 108.901603 
L 161.914769 110.579557 
L 162.136178 100.992558 
L 162.209981 102.430012 
L 162.283784 102.59754 
L 162.357588 104.926481 
L 162.431391 100.737759 
L 162.578997 104.395861 
L 162.6528 104.316577 
L 162.874209 110.619121 
L 163.021815 105.234422 
L 163.169421 109.991406 
L 163.243224 105.39798 
L 163.317027 107.036472 
L 163.39083 111.007685 
L 163.464633 104.447424 
L 163.612239 116.083445 
L 163.686042 112.017546 
L 163.759845 112.512237 
L 163.833648 113.352186 
L 163.907451 116.58953 
L 164.055057 110.647812 
L 164.276466 112.92949 
L 164.497875 124.295169 
L 164.645481 131.713055 
L 164.86689 142.511776 
L 164.940693 140.087833 
L 165.088299 133.855662 
L 165.235905 142.996804 
L 165.309708 142.875082 
L 165.383511 145.579216 
L 165.457314 144.222543 
L 165.531117 144.573284 
L 165.826329 155.080653 
L 165.900132 153.821828 
L 165.973935 154.216424 
L 166.047738 155.526083 
L 166.121541 150.7788 
L 166.195344 152.780386 
L 166.269147 154.614794 
L 166.490556 147.896247 
L 166.638162 155.739241 
L 167.007177 146.066885 
L 167.080981 139.55094 
L 167.154784 139.729442 
L 167.523799 130.542181 
L 167.671405 140.534692 
L 167.745208 140.269844 
L 167.966617 136.887256 
L 168.188026 141.770277 
L 168.335632 133.972009 
L 168.409435 135.341131 
L 168.630844 126.64517 
L 168.704647 127.487368 
L 168.77845 121.069119 
L 168.852253 122.459018 
L 168.926056 126.821096 
L 168.999859 124.790991 
L 169.073662 122.744144 
L 169.147465 125.143118 
L 169.221268 122.923854 
L 169.295071 125.060909 
L 169.442677 121.965057 
L 169.51648 122.198293 
L 169.590283 116.091297 
L 169.664086 117.613944 
L 169.885495 111.187449 
L 169.959298 110.501941 
L 170.033101 108.189244 
L 170.180707 110.103738 
L 170.771131 85.242759 
L 170.844934 91.125826 
L 170.918737 89.599797 
L 170.99254 88.969503 
L 171.066343 89.992894 
L 171.435358 104.610377 
L 171.582964 99.383993 
L 171.656767 103.112722 
L 171.73057 101.924828 
L 171.878177 96.116652 
L 171.95198 102.232175 
L 172.025783 102.171981 
L 172.099586 101.346776 
L 172.247192 111.257714 
L 172.320995 112.717069 
L 172.394798 111.643155 
L 172.468601 117.321795 
L 172.542404 115.32998 
L 172.616207 117.008092 
L 172.69001 115.181042 
L 172.837616 107.360136 
L 172.911419 106.57432 
L 173.132828 117.017971 
L 173.206631 114.234994 
L 173.501843 123.514031 
L 173.575646 117.087428 
L 173.649449 120.147335 
L 173.944661 112.81474 
L 174.092267 101.907962 
L 174.239873 111.477821 
L 174.313676 108.963662 
L 174.461282 114.88894 
L 174.535085 111.511612 
L 174.608888 112.462144 
L 174.682691 112.606176 
L 174.756494 110.050144 
L 174.9041 112.98506 
L 175.051706 105.792594 
L 175.125509 106.371751 
L 175.273115 107.37151 
L 175.494524 123.555857 
L 175.64213 110.677119 
L 175.715933 111.694722 
L 175.863539 116.474293 
L 175.937342 116.106177 
L 176.011145 117.448484 
L 176.084948 117.297992 
L 176.158751 123.520892 
L 176.232554 122.439079 
L 176.749176 142.217096 
L 176.822979 137.064833 
L 177.191994 152.246027 
L 177.265797 151.096027 
L 177.413403 146.67876 
L 177.487206 148.169743 
L 177.634812 156.825778 
L 177.782418 159.185038 
L 177.930024 152.487862 
L 178.003827 156.082264 
L 178.07763 148.524861 
L 178.372842 164.492448 
L 178.446645 164.038313 
L 178.594251 157.789424 
L 178.668054 159.159252 
L 178.963266 154.775128 
L 179.110872 149.370418 
L 179.184675 150.68014 
L 179.332281 144.176308 
L 179.55369 149.561804 
L 179.848902 140.295507 
L 179.922705 145.041785 
L 179.996508 143.778985 
L 180.070311 142.339422 
L 180.217917 131.84483 
L 180.29172 132.826784 
L 180.365523 132.037229 
L 180.513129 137.890962 
L 180.586932 135.915648 
L 180.660735 136.70826 
L 180.734538 136.973902 
L 180.808341 139.100917 
L 180.955947 131.621463 
L 181.02975 132.193159 
L 181.103553 131.697509 
L 181.25116 123.401921 
L 181.398766 128.173511 
L 181.472569 127.667683 
L 181.620175 122.766016 
L 181.693978 123.29635 
L 181.915387 130.982514 
L 182.210599 121.614101 
L 182.432008 128.592472 
L 182.653417 126.074448 
L 182.801023 136.220898 
L 183.170038 123.532321 
L 183.243841 127.24428 
L 183.391447 120.998659 
L 183.46525 125.655463 
L 183.539053 124.454578 
L 183.612856 118.029612 
L 183.834265 133.375132 
L 183.981871 129.27036 
L 184.055674 129.283213 
L 184.129477 127.85478 
L 184.20328 128.452377 
L 184.277083 129.937714 
L 184.350886 122.233156 
L 184.424689 122.784776 
L 184.498492 118.693081 
L 184.646098 127.655743 
L 184.867507 119.326504 
L 185.015113 114.35648 
L 185.088916 114.778666 
L 185.236522 115.82701 
L 185.531734 113.867194 
L 185.753143 121.629581 
L 185.900749 126.029086 
L 185.974553 125.297241 
L 186.122159 121.949041 
L 186.195962 125.753355 
L 186.343568 117.016277 
L 186.417371 119.501746 
L 186.491174 121.701065 
L 186.564977 120.438742 
L 186.63878 121.065296 
L 186.712583 120.809197 
L 186.860189 129.39348 
L 187.007795 132.998081 
L 187.081598 136.088071 
L 187.155401 136.017552 
L 187.229204 136.2919 
L 187.524416 146.788157 
L 187.598219 148.383695 
L 187.745825 142.448693 
L 187.819628 140.032802 
L 187.893431 140.093591 
L 187.967234 141.957029 
L 188.410052 126.716647 
L 188.483855 129.128596 
L 188.705264 132.628529 
L 189.000476 123.977392 
L 189.074279 124.452494 
L 189.148082 126.844022 
L 189.221885 124.844768 
L 189.295688 128.344826 
L 189.443294 116.142438 
L 189.517097 118.918478 
L 189.5909 118.754303 
L 189.812309 115.922249 
L 190.033718 106.567933 
L 190.107521 103.922603 
L 190.402733 117.112075 
L 190.476536 117.016965 
L 190.550339 114.513825 
L 190.624142 114.778333 
L 190.993158 128.30219 
L 191.066961 124.195632 
L 191.140764 124.775132 
L 191.214567 127.86135 
L 191.28837 125.793751 
L 191.583582 135.000079 
L 191.657385 131.023379 
L 191.878794 135.883443 
L 192.0264 147.330031 
L 192.174006 142.46117 
L 192.247809 144.900552 
L 192.469218 132.519416 
L 192.543021 134.083561 
L 192.616824 133.998164 
L 192.838233 127.344537 
L 192.912036 131.539883 
L 192.985839 130.72483 
L 193.133445 126.149981 
L 193.207248 128.180572 
L 193.354854 124.860683 
L 193.428657 128.452863 
L 193.50246 127.195924 
L 193.576263 127.668636 
L 193.650066 127.407863 
L 193.723869 127.62732 
L 193.871475 118.718403 
L 194.019081 119.346323 
L 194.092884 116.788115 
L 194.24049 120.401604 
L 194.535702 106.910999 
L 194.609505 108.651606 
L 194.757111 113.489002 
L 194.830914 111.512214 
L 195.052323 124.873116 
L 195.273732 131.069734 
L 195.347535 131.088487 
L 195.421339 131.744625 
L 195.495142 127.446076 
L 195.93796 141.843605 
L 196.011763 137.523422 
L 196.233172 145.582645 
L 196.306975 140.303441 
L 196.454581 151.402815 
L 196.528384 150.509663 
L 196.602187 145.378182 
L 196.67599 148.963145 
L 196.749793 148.076667 
L 196.897399 137.721589 
L 197.118808 147.598474 
L 197.192611 148.320746 
L 197.266414 143.136489 
L 197.340217 144.680516 
L 197.561626 137.902971 
L 197.635429 137.959396 
L 197.709232 137.806686 
L 197.783035 140.216467 
L 197.856838 139.116226 
L 197.930641 139.00031 
L 198.004444 136.986773 
L 198.078247 142.219689 
L 198.225853 130.951286 
L 198.299656 135.410756 
L 198.373459 134.444743 
L 198.447262 132.241363 
L 198.521065 133.183353 
L 198.594868 136.613482 
L 198.668671 134.791795 
L 198.742474 135.949393 
L 198.816277 134.16226 
L 198.963883 136.879155 
L 199.111489 127.418249 
L 199.259095 129.994573 
L 199.332898 125.781314 
L 199.480504 132.141617 
L 199.701913 120.786394 
L 199.775716 118.78237 
L 199.997125 126.53344 
L 200.070928 120.374866 
L 200.144732 121.795366 
L 200.218535 121.956284 
L 200.366141 111.750532 
L 200.58755 117.840932 
L 200.661353 114.173203 
L 200.735156 115.052155 
L 200.808959 116.036663 
L 200.956565 110.63448 
L 201.177974 101.705642 
L 201.32558 97.789226 
L 201.399383 99.612401 
L 201.473186 99.168809 
L 201.546989 97.041609 
L 201.842201 102.257612 
L 201.916004 100.428141 
L 202.211216 112.123641 
L 202.358822 111.081927 
L 202.432625 104.216179 
L 202.506428 104.260284 
L 202.580231 102.110825 
L 202.949246 120.489107 
L 203.023049 118.096595 
L 203.096852 118.793396 
L 203.170655 112.371194 
L 203.244458 115.197305 
L 203.318261 116.842358 
L 203.392064 108.532796 
L 203.465867 109.733167 
L 203.834882 125.283018 
L 203.982488 123.496218 
L 204.056291 127.377962 
L 204.130094 124.302791 
L 204.203897 125.883182 
L 204.2777 124.632419 
L 204.351503 127.769161 
L 204.425306 121.632953 
L 204.499109 124.087184 
L 204.646715 126.838634 
L 204.794321 124.751894 
L 204.868125 124.533849 
L 204.941928 124.887875 
L 205.015731 130.554473 
L 205.089534 128.15051 
L 205.163337 127.069998 
L 205.23714 127.885734 
L 205.310943 132.032946 
L 205.606155 117.956099 
L 205.97517 126.990002 
L 206.048973 126.689011 
L 206.196579 123.387471 
L 206.270382 128.920608 
L 206.417988 120.360339 
L 206.491791 121.372167 
L 206.565594 121.23014 
L 206.639397 117.274684 
L 206.7132 120.476583 
L 206.787003 116.137716 
L 206.860806 121.549003 
L 206.934609 118.340509 
L 207.082215 126.298849 
L 207.303624 116.724968 
L 207.377427 113.136391 
L 207.45123 115.104674 
L 207.525033 111.466704 
L 207.746442 120.425918 
L 207.894048 110.180262 
L 208.041654 117.958485 
L 208.115457 110.152303 
L 208.18926 110.75076 
L 208.484472 102.671639 
L 208.558275 103.762936 
L 208.705881 97.338479 
L 208.779684 98.226988 
L 208.853487 91.709115 
L 208.92729 93.95802 
L 209.001093 95.680866 
L 209.074896 91.156312 
L 209.148699 91.583849 
L 209.370108 101.801692 
L 209.517714 94.971612 
L 209.591518 98.637467 
L 209.665321 94.897621 
L 209.812927 101.956506 
L 209.88673 102.000087 
L 209.960533 102.387985 
L 210.034336 98.140467 
L 210.108139 101.78869 
L 210.255745 96.59562 
L 210.477154 100.178173 
L 210.550957 100.151804 
L 210.993775 122.993751 
L 211.067578 121.340275 
L 211.288987 126.274838 
L 211.36279 120.057066 
L 211.436593 120.167397 
L 211.510396 122.197314 
L 211.584199 118.620695 
L 211.658002 122.356086 
L 211.731805 121.51171 
L 211.953214 114.315589 
L 212.027017 115.604839 
L 212.248426 124.379844 
L 212.322229 126.541869 
L 212.396032 124.732096 
L 212.469835 125.388388 
L 212.543638 130.670044 
L 212.617441 128.786047 
L 212.765047 132.820495 
L 212.912653 126.600956 
L 213.060259 129.758395 
L 213.281668 119.659184 
L 213.503077 124.131967 
L 213.57688 121.123148 
L 213.872092 130.505075 
L 214.241107 119.973029 
L 214.314911 121.862197 
L 214.388714 120.621581 
L 214.610123 126.017735 
L 214.831532 119.527191 
L 214.905335 119.436956 
L 215.052941 129.746899 
L 215.126744 124.9554 
L 215.200547 130.119198 
L 215.348153 123.386379 
L 215.421956 130.852423 
L 215.495759 127.25488 
L 215.569562 125.844418 
L 215.790971 133.907809 
L 215.938577 134.56869 
L 216.086183 129.863695 
L 216.159986 132.195219 
L 216.233789 131.216431 
L 216.307592 126.496261 
L 216.381395 127.562837 
L 216.455198 124.433243 
L 216.676607 131.822898 
L 216.75041 135.758588 
L 216.824213 135.202993 
L 216.971819 126.709697 
L 217.045622 127.618603 
L 217.119425 126.159424 
L 217.414637 134.616362 
L 217.783652 116.070052 
L 217.857455 116.153364 
L 217.931258 117.019559 
L 218.078864 113.690566 
L 218.152667 117.326421 
L 218.22647 116.298947 
L 218.300273 115.654325 
L 218.669288 94.418936 
L 218.743091 95.663358 
L 218.816894 91.68736 
L 218.890697 92.552675 
L 218.9645 94.810233 
L 219.112107 92.234961 
L 219.18591 98.465708 
L 219.259713 93.029079 
L 219.554925 108.523461 
L 219.850137 95.59184 
L 219.92394 96.409389 
L 219.997743 92.247562 
L 220.514364 112.669789 
L 220.735773 108.816158 
L 220.883379 103.364464 
L 221.252394 116.886904 
L 221.326197 113.985935 
L 221.695212 130.727797 
L 221.990424 117.668322 
L 222.064227 117.872044 
L 222.13803 117.341163 
L 222.285636 126.903897 
L 222.359439 123.481306 
L 222.433242 122.958497 
L 222.507045 122.971467 
L 222.580848 125.895482 
L 222.654651 125.851781 
L 222.87606 121.494141 
L 222.949863 120.744229 
L 223.023666 122.116894 
L 223.097469 117.371742 
L 223.983106 145.28554 
L 224.204515 138.015798 
L 224.352121 139.174054 
L 224.425924 143.749094 
L 224.499727 143.347643 
L 224.57353 141.478609 
L 224.647333 144.057145 
L 224.794939 152.09955 
L 224.868742 149.419292 
L 225.016348 156.066656 
L 225.090151 156.195396 
L 225.31156 147.191815 
L 225.385363 147.696994 
L 225.459166 148.580079 
L 225.606772 142.736649 
L 225.680575 145.987753 
L 225.754378 142.400418 
L 225.828181 145.357056 
L 225.901984 144.787844 
L 226.04959 137.987399 
L 226.123393 138.011709 
L 226.197196 130.30991 
L 226.270999 131.982371 
L 226.418605 128.086996 
L 226.492408 129.949338 
L 226.566211 125.890418 
L 226.640014 127.478493 
L 226.78762 128.276427 
L 226.861423 128.134689 
L 226.935226 130.301457 
L 227.009029 125.105922 
L 227.082832 129.654882 
L 227.156635 129.613816 
L 227.304241 123.168746 
L 227.378044 124.338087 
L 227.599453 111.752078 
L 227.673256 109.584303 
L 227.747059 110.658696 
L 227.820862 109.642295 
L 227.894665 115.526792 
L 227.968468 111.64956 
L 228.116074 119.478006 
L 228.26368 128.053001 
L 228.411286 125.062759 
L 228.485089 120.249435 
L 228.558893 121.559141 
L 228.632696 121.978754 
L 228.706499 115.64246 
L 228.780302 122.730455 
L 228.854105 119.203329 
L 228.927908 118.381055 
L 229.001711 119.70723 
L 229.075514 118.246113 
L 229.149317 114.035785 
L 229.22312 114.744712 
L 229.296923 112.88965 
L 229.444529 119.351213 
L 229.592135 110.619747 
L 229.665938 109.802847 
L 229.813544 116.613021 
L 229.887347 115.757124 
L 229.96115 112.464414 
L 230.256362 125.83897 
L 230.330165 124.491659 
L 230.403968 124.94458 
L 230.477771 123.932633 
L 230.551574 128.454773 
L 230.625377 119.409981 
L 230.69918 120.626492 
L 230.772983 118.938035 
L 230.846786 114.063119 
L 231.068195 120.070961 
L 231.215801 121.170585 
L 231.289604 125.684953 
L 231.363407 121.378901 
L 231.584816 128.99629 
L 231.658619 124.791439 
L 231.806225 130.397251 
L 232.027634 116.017482 
L 232.249043 130.929176 
L 232.396649 126.140785 
L 232.470452 128.456149 
L 232.544255 126.706505 
L 232.618058 130.394144 
L 232.691861 129.05076 
L 232.839467 124.107579 
L 232.91327 128.872039 
L 233.134679 121.229812 
L 233.208482 124.557285 
L 233.282286 124.362342 
L 233.356089 124.389363 
L 233.429892 127.649542 
L 233.503695 124.69845 
L 233.577498 126.810235 
L 233.725104 124.827042 
L 233.798907 125.355897 
L 233.946513 120.813367 
L 234.020316 120.514922 
L 234.094119 122.287036 
L 234.167922 114.093558 
L 234.315528 120.689515 
L 234.389331 119.403079 
L 234.536937 128.879287 
L 234.61074 129.957367 
L 234.758346 127.055717 
L 234.832149 120.500261 
L 234.905952 123.167459 
L 234.979755 123.970959 
L 235.274967 130.85563 
L 235.34877 131.16175 
L 235.496376 122.01346 
L 235.717785 134.227478 
L 235.865391 131.644586 
L 236.012997 128.645494 
L 236.0868 130.792127 
L 236.234406 128.047363 
L 236.308209 128.568436 
L 236.382012 124.177811 
L 236.529618 133.25703 
L 236.603421 125.92879 
L 236.677224 128.355221 
L 236.751027 133.674995 
L 237.046239 116.369511 
L 237.120042 116.63819 
L 237.193845 117.506232 
L 237.858072 98.153538 
L 238.079482 110.055168 
L 238.300891 105.11034 
L 238.5223 110.74076 
L 238.596103 103.679888 
L 238.669906 104.39608 
L 238.743709 103.124466 
L 238.965118 112.394977 
L 239.112724 105.598159 
L 239.186527 112.828412 
L 239.334133 103.287491 
L 239.407936 106.490255 
L 239.481739 106.354836 
L 239.555542 110.183168 
L 239.703148 105.557002 
L 239.776951 110.256755 
L 239.850754 109.682097 
L 239.924557 108.799243 
L 240.293572 126.26092 
L 240.514981 122.709695 
L 240.588784 128.615909 
L 240.662587 124.748389 
L 240.73639 126.492187 
L 240.883996 122.431008 
L 240.957799 122.66056 
L 241.105405 120.942135 
L 241.326814 135.325225 
L 241.400617 135.925686 
L 241.47442 134.262263 
L 241.548223 134.510956 
L 241.695829 138.670291 
L 241.769632 136.69895 
L 241.991041 149.892031 
L 242.064844 148.029566 
L 242.21245 154.655449 
L 242.286253 159.357583 
L 242.360056 157.875211 
L 242.433859 157.023862 
L 242.581465 162.353691 
L 242.655268 160.693579 
L 242.729072 161.929049 
L 242.876678 154.011017 
L 242.950481 154.112601 
L 243.024284 156.961883 
L 243.319496 147.461161 
L 243.467102 152.312424 
L 243.614708 150.346468 
L 243.836117 144.66725 
L 243.90992 145.771845 
L 244.057526 141.453078 
L 244.131329 142.738614 
L 244.205132 142.750981 
L 244.278935 143.815596 
L 244.352738 141.759978 
L 244.574147 128.783943 
L 244.64795 129.818024 
L 244.943162 115.108802 
L 245.238374 108.292084 
L 245.312177 99.903529 
L 245.38598 106.477512 
L 245.459783 105.806698 
L 245.533586 105.132644 
L 245.681192 110.064252 
L 245.754995 107.325497 
L 245.828798 112.340498 
L 245.902601 111.619511 
L 246.050207 99.817343 
L 246.12401 101.265692 
L 246.271616 99.117682 
L 246.345419 99.741652 
L 246.419222 98.622996 
L 246.566828 89.11667 
L 246.714434 92.748503 
L 246.788237 91.161255 
L 247.009646 97.389373 
L 247.083449 95.812803 
L 247.157252 96.966974 
L 247.304858 92.251556 
L 247.452465 93.216924 
L 247.600071 92.563577 
L 247.673874 96.738213 
L 247.82148 89.257759 
L 247.969086 93.287829 
L 248.042889 94.012339 
L 248.190495 85.213787 
L 248.264298 86.066576 
L 248.485707 75.662774 
L 248.780919 86.024048 
L 248.854722 85.17348 
L 248.928525 84.422462 
L 249.002328 81.153399 
L 249.223737 92.740514 
L 249.29754 90.015781 
L 249.371343 91.457746 
L 249.518949 86.821275 
L 249.666555 97.115659 
L 249.740358 91.968761 
L 249.961767 105.500687 
L 250.03557 103.458718 
L 250.109373 103.832492 
L 250.183176 110.680621 
L 250.256979 106.312368 
L 250.552191 119.405993 
L 250.625994 120.409634 
L 250.7736 128.149338 
L 250.921206 123.368017 
L 250.995009 127.23067 
L 251.068812 126.570118 
L 251.142615 126.824474 
L 251.290221 118.835054 
L 251.364024 117.35522 
L 251.437827 117.550578 
L 251.585433 118.023132 
L 251.659236 119.878158 
L 251.880645 111.770316 
L 251.954448 105.410637 
L 252.028251 105.610161 
L 252.102054 110.052234 
L 252.175858 109.660678 
L 252.249661 104.425668 
L 252.397267 110.795137 
L 252.47107 110.584197 
L 252.544873 112.458608 
L 252.618676 117.627578 
L 252.692479 117.444044 
L 252.766282 115.312947 
L 252.840085 115.570637 
L 252.913888 115.57788 
L 252.987691 114.890708 
L 253.2091 102.617632 
L 253.356706 94.929889 
L 253.430509 96.920112 
L 253.578115 100.02183 
L 253.651918 106.659631 
L 253.725721 105.423774 
L 253.799524 109.310114 
L 253.873327 109.15763 
L 253.94713 110.558929 
L 254.020933 109.183626 
L 254.094736 103.189676 
L 254.168539 107.41082 
L 254.242342 103.416542 
L 254.611357 116.502105 
L 254.758963 104.222058 
L 254.832766 109.780772 
L 254.906569 109.413526 
L 255.054175 111.414601 
L 255.201781 95.757058 
L 255.275584 98.616202 
L 255.349387 97.827947 
L 255.42319 101.470895 
L 255.496993 100.353838 
L 255.718402 91.786045 
L 255.939811 97.141028 
L 256.013614 97.554657 
L 256.16122 95.397765 
L 256.530235 78.253892 
L 256.677841 84.509465 
L 256.751644 79.943041 
L 256.825447 81.72609 
L 256.899251 81.052602 
L 256.973054 74.464809 
L 257.046857 77.289775 
L 257.12066 81.750387 
L 257.194463 80.466407 
L 257.268266 79.687893 
L 257.342069 83.980617 
L 257.637281 63.014991 
L 257.784887 69.345055 
L 258.006296 60.521177 
L 258.080099 58.285798 
L 258.227705 71.630276 
L 258.301508 70.910734 
L 258.375311 70.003909 
L 258.59672 61.3865 
L 258.670523 65.147906 
L 258.744326 61.248999 
L 259.039538 74.048452 
L 259.33475 81.501761 
L 259.482356 73.491713 
L 259.556159 75.027459 
L 259.777568 69.376227 
L 259.851371 72.287322 
L 259.925174 70.093962 
L 259.998977 70.164746 
L 260.294189 80.940423 
L 260.589401 103.695136 
L 260.663204 101.435461 
L 260.958416 89.761177 
L 261.032219 90.304519 
L 261.106022 94.53929 
L 261.179825 93.166045 
L 261.253628 90.51 
L 261.327431 95.159135 
L 261.401234 90.419981 
L 261.475037 94.65266 
L 261.54884 92.667929 
L 261.622644 92.532929 
L 261.696447 92.900681 
L 261.991659 83.153439 
L 262.139265 93.781171 
L 262.213068 90.992654 
L 262.286871 91.347714 
L 262.50828 95.714565 
L 262.655886 101.636465 
L 262.729689 99.818834 
L 262.877295 101.727991 
L 263.098704 90.942448 
L 263.172507 84.529318 
L 263.393916 93.376348 
L 263.541522 94.679638 
L 263.836734 112.085086 
L 263.910537 109.047872 
L 264.574764 134.141147 
L 264.648567 133.716665 
L 264.796173 128.093251 
L 264.869976 127.327479 
L 265.017582 123.917396 
L 265.091385 127.153657 
L 265.165188 122.440392 
L 265.312794 130.211059 
L 265.681809 115.722547 
L 265.903218 119.908336 
L 265.977021 120.300242 
L 266.050824 119.413291 
L 266.124627 121.524357 
L 266.19843 121.330276 
L 266.41984 111.212322 
L 266.493643 110.317162 
L 266.567446 110.37627 
L 266.862658 100.378926 
L 266.936461 103.070545 
L 267.010264 98.519796 
L 267.084067 100.044306 
L 267.15787 102.392354 
L 267.231673 98.943114 
L 267.453082 112.861319 
L 267.674491 102.67855 
L 267.748294 107.133531 
L 267.822097 102.91351 
L 267.8959 102.997276 
L 267.969703 100.915093 
L 268.338718 122.828397 
L 268.560127 118.038572 
L 268.63393 121.686595 
L 268.707733 120.358247 
L 268.855339 117.06409 
L 268.929142 116.744245 
L 269.002945 115.741298 
L 269.076748 119.023888 
L 269.150551 115.96763 
L 269.298157 122.652655 
L 269.593369 129.507617 
L 269.740975 120.008146 
L 269.814778 122.077092 
L 269.888581 120.374009 
L 270.036187 113.358667 
L 270.10999 114.120237 
L 270.183793 118.773454 
L 270.257596 116.495938 
L 270.331399 110.094766 
L 270.405202 113.849256 
L 270.479005 111.144639 
L 270.552808 115.550056 
L 270.626611 112.9276 
L 270.700414 115.030215 
L 270.774217 114.948876 
L 270.84802 115.641896 
L 270.921823 109.251506 
L 270.995626 110.203625 
L 271.290839 98.314971 
L 271.364642 100.442738 
L 271.659854 110.19466 
L 271.955066 104.635647 
L 272.176475 92.890432 
L 272.250278 98.398683 
L 272.324081 97.934578 
L 272.471687 95.747815 
L 272.619293 99.367686 
L 272.766899 93.914377 
L 272.914505 102.463194 
L 273.135914 89.981787 
L 273.431126 78.818087 
L 273.578732 87.005408 
L 273.652535 86.649109 
L 273.726338 89.897306 
L 273.800141 88.160619 
L 273.873944 96.170007 
L 273.947747 93.758319 
L 274.02155 94.424896 
L 274.169156 93.158918 
L 274.242959 93.407286 
L 274.316762 92.936542 
L 274.390565 86.45061 
L 274.685777 95.371222 
L 274.75958 95.549435 
L 274.833383 95.038796 
L 274.907186 100.415872 
L 274.980989 97.727667 
L 275.054792 96.36511 
L 275.128595 98.836968 
L 275.202398 98.583869 
L 275.276201 99.056888 
L 275.423807 104.95162 
L 275.49761 98.967835 
L 275.792823 117.487135 
L 275.866626 112.96051 
L 276.014232 116.532745 
L 276.088035 110.830335 
L 276.161838 112.297287 
L 276.309444 117.988407 
L 276.383247 117.485673 
L 276.826065 99.185868 
L 276.973671 107.035933 
L 277.047474 106.677598 
L 277.19508 98.641187 
L 277.342686 97.964343 
L 277.490292 88.88458 
L 277.564095 89.357055 
L 277.637898 92.359723 
L 277.785504 85.581623 
L 277.859307 90.530076 
L 278.006913 82.343063 
L 278.080716 82.630365 
L 278.154519 83.462488 
L 278.228322 85.920051 
L 278.302125 83.698262 
L 278.375928 85.780714 
L 278.744943 67.397821 
L 278.818746 70.95199 
L 278.966352 59.7604 
L 279.040155 60.404394 
L 279.335367 77.616887 
L 279.556776 71.199659 
L 279.704382 78.008089 
L 279.851988 90.236546 
L 279.925791 89.513656 
L 279.999594 86.463334 
L 280.294806 103.79999 
L 280.663822 111.308159 
L 280.737625 107.824927 
L 280.811428 108.306143 
L 280.959034 106.502589 
L 281.254246 120.870993 
L 281.328049 117.453953 
L 281.401852 113.957724 
L 281.623261 122.326606 
L 281.697064 124.506532 
L 281.84467 118.188252 
L 281.918473 121.707279 
L 281.992276 118.243465 
L 282.066079 118.746964 
L 282.139882 117.681227 
L 282.435094 101.988468 
L 282.508897 98.761278 
L 282.5827 102.011015 
L 282.656503 101.077033 
L 282.804109 93.891444 
L 282.877912 93.131333 
L 282.951715 94.740323 
L 283.025518 91.043824 
L 283.099321 95.726296 
L 283.173124 92.554714 
L 283.246927 98.640298 
L 283.32073 97.800626 
L 283.394533 95.962209 
L 283.468336 97.389751 
L 283.689745 93.473545 
L 284.206366 108.440887 
L 284.353972 105.3028 
L 284.649184 114.254552 
L 284.870593 122.3152 
L 284.944396 119.909133 
L 285.018199 122.19192 
L 285.092002 128.496258 
L 285.165805 128.426129 
L 285.239609 124.467548 
L 285.313412 128.163965 
L 285.387215 127.79427 
L 285.461018 126.594197 
L 285.682427 115.931208 
L 285.75623 113.796043 
L 285.830033 107.794822 
L 285.903836 110.805618 
L 285.977639 112.383644 
L 286.051442 111.356491 
L 286.49426 126.261539 
L 286.568063 123.932277 
L 286.715669 126.200061 
L 286.863275 119.361991 
L 286.937078 120.461414 
L 287.453699 97.95516 
L 287.601305 106.421452 
L 287.748911 104.364695 
L 287.822714 105.798014 
L 287.97032 102.918666 
L 288.265532 109.74397 
L 288.339335 110.529672 
L 288.413138 110.151893 
L 288.486941 108.381 
L 288.782153 87.993107 
L 288.855956 91.036783 
L 289.077365 79.872581 
L 289.151168 83.450593 
L 289.224971 80.363024 
L 289.298774 80.614521 
L 289.520183 85.362405 
L 289.741592 89.822186 
L 290.036805 106.323892 
L 290.110608 105.202472 
L 290.258214 93.547754 
L 290.332017 96.334289 
L 290.40582 94.903419 
L 290.553426 101.147558 
L 290.627229 97.898872 
L 290.701032 103.498573 
L 290.848638 97.912457 
L 291.217653 117.484785 
L 291.291456 116.708894 
L 291.365259 123.343435 
L 291.439062 119.340678 
L 291.512865 120.885534 
L 291.586668 120.111684 
L 291.808077 114.680251 
L 291.88188 115.021429 
L 292.029486 122.367575 
L 292.103289 118.423297 
L 292.177092 121.00995 
L 292.250895 118.557793 
L 292.324698 121.11888 
L 292.693713 95.472589 
L 292.841319 105.452677 
L 292.988925 104.394005 
L 293.062728 103.690564 
L 293.284137 96.774893 
L 293.431743 105.556611 
L 293.579349 92.910753 
L 293.653152 93.99468 
L 293.726955 97.479974 
L 293.800758 96.58994 
L 293.874561 97.579595 
L 293.948364 91.944468 
L 294.022167 93.485846 
L 294.09597 93.903014 
L 294.169773 95.884334 
L 294.243576 95.068698 
L 294.391182 98.639567 
L 294.612591 86.420466 
L 294.686394 90.127026 
L 294.907804 81.63047 
L 294.981607 81.987865 
L 295.203016 91.864668 
L 295.424425 82.664076 
L 295.498228 85.852411 
L 295.572031 85.638939 
L 295.79344 74.037154 
L 295.867243 75.973527 
L 296.014849 70.215561 
L 296.162455 80.660136 
L 296.383864 72.617894 
L 296.53147 79.186021 
L 296.605273 78.67432 
L 296.752879 74.663514 
L 296.826682 75.935126 
L 296.974288 64.995831 
L 297.121894 65.911896 
L 297.417106 72.131031 
L 297.490909 70.495223 
L 297.638515 71.480632 
L 297.712318 70.122293 
L 297.786121 70.753909 
L 297.859924 74.83256 
L 297.933727 73.614583 
L 298.00753 73.282515 
L 298.376545 81.054856 
L 298.450348 77.794914 
L 298.524151 81.383893 
L 298.74556 78.39733 
L 298.819363 77.819865 
L 298.893166 75.898248 
L 299.040772 67.612394 
L 299.114575 69.548195 
L 299.188378 67.189555 
L 299.262181 69.21576 
L 299.335984 68.966926 
L 299.409787 65.577226 
L 299.483591 66.065233 
L 299.631197 74.089857 
L 299.705 73.939082 
L 299.852606 71.968967 
L 300.000212 63.642388 
L 300.074015 66.043234 
L 300.147818 63.991146 
L 300.221621 64.547179 
L 300.295424 68.366151 
L 300.44303 62.670208 
L 300.516833 62.987178 
L 300.664439 71.528707 
L 300.738242 71.377395 
L 300.812045 71.635896 
L 300.959651 69.073426 
L 301.107257 65.537625 
L 301.18106 71.474043 
L 301.254863 70.357591 
L 301.402469 72.553921 
L 301.771484 88.111126 
L 301.845287 86.307735 
L 301.992893 90.452562 
L 302.066696 96.954998 
L 302.140499 90.71666 
L 302.214302 92.781257 
L 302.288105 92.395744 
L 302.361908 90.63814 
L 302.435711 91.058028 
L 302.509514 91.288241 
L 302.730923 98.703423 
L 302.878529 91.749107 
L 302.952332 94.115649 
L 303.39515 75.055457 
L 303.616559 84.083211 
L 303.985574 67.975671 
L 304.059377 67.182583 
L 304.280787 73.120284 
L 304.428393 67.276382 
L 304.502196 67.173796 
L 304.575999 66.176727 
L 304.649802 60.079232 
L 304.723605 63.065185 
L 304.797408 57.497991 
L 304.871211 58.581974 
L 304.945014 58.209272 
L 305.018817 53.264942 
L 305.09262 59.493049 
L 305.166423 56.543435 
L 305.978256 101.647293 
L 306.052059 100.914062 
L 306.273468 106.237499 
L 306.347271 108.747618 
L 306.421074 105.968866 
L 306.494877 109.598671 
L 306.56868 108.678423 
L 306.937695 87.05399 
L 307.085301 84.683412 
L 307.232907 94.321452 
L 307.30671 93.174161 
L 307.380513 95.051171 
L 307.601922 105.491575 
L 307.749528 111.76963 
L 307.823331 106.772076 
L 307.897134 109.116312 
L 307.970937 108.212703 
L 308.266149 85.02668 
L 308.339952 88.013468 
L 308.708967 78.057827 
L 308.78277 76.684663 
L 308.856573 78.323745 
L 308.930377 78.066814 
L 309.077983 78.831256 
L 309.151786 80.569105 
L 309.373195 97.033383 
L 309.446998 94.483341 
L 309.668407 105.926302 
L 309.816013 96.015856 
L 309.889816 97.773249 
L 309.963619 102.809109 
L 310.111225 93.840072 
L 310.185028 101.03152 
L 310.332634 90.557379 
L 310.48024 96.077101 
L 310.701649 88.501248 
L 310.849255 92.187277 
L 311.070664 76.534731 
L 311.144467 79.273489 
L 311.439679 71.975162 
L 311.587285 77.452871 
L 311.808694 69.623597 
L 311.882497 68.055249 
L 311.9563 68.6566 
L 312.030103 69.892098 
L 312.325315 59.777772 
L 312.399118 61.065981 
L 312.472921 60.067815 
L 312.841936 46.697766 
L 312.915739 52.089878 
L 312.989542 51.389526 
L 313.063345 51.541558 
L 313.137148 50.520099 
L 313.284754 55.504046 
L 313.358557 52.672686 
L 313.43236 54.831367 
L 313.65377 68.705864 
L 313.727573 65.50406 
L 314.096588 83.289604 
L 314.3918 71.255491 
L 314.613209 63.548999 
L 314.687012 66.401379 
L 314.760815 62.857566 
L 314.982224 79.39884 
L 315.056027 78.558682 
L 315.12983 79.372707 
L 315.277436 83.972307 
L 315.425042 85.630998 
L 315.498845 85.46437 
L 315.572648 83.683726 
L 315.720254 78.094695 
L 315.86786 78.751714 
L 316.310678 99.25327 
L 316.384481 99.046549 
L 316.458284 101.291516 
L 316.60589 92.79588 
L 316.753496 97.240225 
L 316.827299 94.751433 
L 317.34392 115.036728 
L 317.491526 104.422836 
L 318.008147 126.916281 
L 318.155753 125.722327 
L 318.303359 131.854856 
L 318.377163 131.468281 
L 318.524769 136.60873 
L 319.04139 114.286531 
L 319.262799 123.223041 
L 319.336602 122.380501 
L 319.558011 135.379442 
L 319.77942 128.331764 
L 319.853223 131.204847 
L 319.927026 127.650471 
L 320.074632 132.191209 
L 320.148435 126.461286 
L 320.222238 130.608281 
L 320.296041 128.28959 
L 320.369844 120.519421 
L 320.443647 122.242469 
L 320.665056 111.351073 
L 320.812662 115.557025 
L 320.886465 114.962427 
L 320.960268 116.957486 
L 321.034071 115.021786 
L 321.107874 109.286753 
L 321.181677 112.727432 
L 321.25548 110.828743 
L 321.329283 113.482053 
L 321.403086 109.224043 
L 321.476889 115.615499 
L 321.550692 113.030862 
L 321.624495 114.688332 
L 321.845904 103.02204 
L 321.919707 104.267951 
L 321.99351 103.789449 
L 322.141116 100.132892 
L 322.214919 102.854752 
L 322.362525 98.375731 
L 322.436328 98.480327 
L 322.510131 99.079031 
L 322.583934 98.650973 
L 322.879146 88.057943 
L 322.952949 90.917146 
L 323.026752 87.091893 
L 323.100556 88.394216 
L 323.248162 97.618176 
L 323.469571 90.581523 
L 323.543374 91.475596 
L 323.69098 99.544452 
L 323.764783 98.089817 
L 323.838586 95.148222 
L 323.912389 95.260302 
L 324.059995 94.272909 
L 324.207601 88.474155 
L 324.281404 92.879647 
L 324.355207 85.347459 
L 324.42901 88.959037 
L 324.502813 89.783326 
L 324.576616 88.386981 
L 324.650419 89.135832 
L 324.724222 89.014675 
L 324.945631 97.246154 
L 325.019434 91.168682 
L 325.093237 92.969258 
L 325.16704 98.084647 
L 325.240843 97.406902 
L 325.462252 103.37281 
L 325.536055 103.326563 
L 325.609858 107.039536 
L 325.683661 106.912755 
L 325.831267 99.172298 
L 326.052676 107.297969 
L 326.126479 102.94145 
L 326.200282 104.865127 
L 326.274085 103.623399 
L 326.347888 98.923979 
L 326.421691 101.524704 
L 326.6431 89.070064 
L 326.938312 98.482625 
L 327.012115 94.983764 
L 327.085918 98.0098 
L 327.159721 97.615531 
L 327.233524 93.635646 
L 327.307327 94.681122 
L 327.528736 91.737844 
L 327.676342 96.087905 
L 327.750145 88.087572 
L 327.823949 89.803136 
L 327.897752 92.547951 
L 328.045358 86.504652 
L 328.119161 90.869232 
L 328.192964 87.009041 
L 328.34057 96.548109 
L 328.414373 94.338149 
L 328.561979 91.26837 
L 328.635782 92.610025 
L 328.709585 96.191595 
L 328.857191 89.644535 
L 328.930994 90.578502 
L 329.004797 92.545954 
L 329.152403 105.574397 
L 329.226206 103.893093 
L 329.300009 107.40246 
L 329.373812 101.505485 
L 329.447615 103.949463 
L 329.595221 107.978288 
L 329.669024 101.673032 
L 329.742827 102.09763 
L 329.81663 109.458646 
L 329.890433 108.157137 
L 329.964236 107.697452 
L 330.038039 108.65599 
L 330.407054 122.049173 
L 330.480857 117.381728 
L 330.55466 121.698828 
L 330.628463 119.793817 
L 330.923675 105.475547 
L 330.997478 105.003819 
L 331.071281 105.337112 
L 331.218887 101.943482 
L 331.29269 102.29146 
L 331.809311 115.913392 
L 331.883114 111.214521 
L 331.956917 114.267234 
L 332.178326 104.393101 
L 332.325932 111.725079 
L 332.399735 109.497696 
L 332.547342 113.20113 
L 332.842554 99.83471 
L 332.916357 95.722557 
L 332.99016 96.25166 
L 333.137766 99.773491 
L 333.285372 96.791679 
L 333.359175 99.223893 
L 333.432978 97.385588 
L 333.506781 97.85801 
L 333.580584 97.031455 
L 333.875796 103.899817 
L 334.097205 91.326257 
L 334.244811 96.994101 
L 334.46622 89.645082 
L 334.687629 99.812751 
L 334.982841 96.32713 
L 335.056644 96.391071 
L 335.130447 93.746045 
L 335.20425 100.460974 
L 335.278053 97.762127 
L 335.351856 99.035033 
L 335.573265 118.506485 
L 335.647068 118.163907 
L 335.720871 118.291682 
L 335.868477 125.663969 
L 335.94228 126.873481 
L 336.089886 131.1821 
L 336.163689 131.285859 
L 336.237492 130.711962 
L 336.458901 121.523104 
L 336.532704 121.779001 
L 336.68031 135.778338 
L 336.975522 125.815923 
L 337.049325 131.334241 
L 337.123128 130.747446 
L 337.196931 133.509641 
L 337.418341 124.445374 
L 337.787356 113.262969 
L 337.861159 120.304877 
L 337.934962 117.270376 
L 338.37778 105.647211 
L 338.525386 112.22699 
L 338.599189 107.963614 
L 338.746795 112.865876 
L 338.820598 112.723355 
L 338.968204 121.023763 
L 339.042007 116.96788 
L 339.11581 122.077421 
L 339.337219 108.953796 
L 339.411022 108.684004 
L 339.484825 108.943094 
L 339.558628 111.995419 
L 339.85384 104.972061 
L 339.927643 105.992766 
L 340.149052 114.545281 
L 340.222855 113.383106 
L 340.296658 116.420995 
L 340.370461 115.50306 
L 340.59187 108.350198 
L 340.665673 109.813107 
L 340.739476 109.427336 
L 340.887082 106.791369 
L 340.960885 110.572874 
L 341.108491 103.608541 
L 341.182294 105.66999 
L 341.256097 103.358861 
L 341.3299 106.346294 
L 341.477506 102.163696 
L 341.698915 93.398345 
L 341.772718 98.459546 
L 341.846521 96.58298 
L 341.920324 97.631829 
L 341.994128 101.879034 
L 342.141734 95.960886 
L 342.28934 98.522169 
L 342.363143 98.287683 
L 342.510749 103.420975 
L 342.658355 90.762763 
L 342.732158 92.663262 
L 342.805961 92.763414 
L 342.879764 90.139805 
L 342.953567 91.516756 
L 343.02737 89.684963 
L 343.248779 93.183054 
L 343.322582 93.376736 
L 343.396385 93.228857 
L 343.470188 98.014462 
L 343.543991 97.963624 
L 343.617794 99.855395 
L 343.691597 95.820258 
L 343.7654 97.568349 
L 343.839203 95.75631 
L 343.913006 95.879394 
L 344.208218 112.105355 
L 344.282021 109.505287 
L 344.355824 107.411911 
L 344.50343 110.997119 
L 344.651036 113.416371 
L 344.724839 117.645345 
L 344.872445 114.584716 
L 344.946248 119.487593 
L 345.020051 118.275972 
L 345.24146 129.206977 
L 345.315263 120.351712 
L 345.389066 124.356429 
L 345.462869 124.587756 
L 345.684278 130.742375 
L 345.758081 129.21027 
L 345.905687 121.80788 
L 346.053293 126.13758 
L 346.127096 123.403315 
L 346.200899 123.993693 
L 346.274702 128.104712 
L 346.348505 126.713093 
L 346.422308 129.972873 
L 346.496111 127.892949 
L 346.569914 121.572681 
L 346.643717 127.077717 
L 346.717521 124.538836 
L 346.93893 117.720207 
L 347.012733 118.705728 
L 347.086536 125.17969 
L 347.160339 121.769605 
L 347.234142 126.933474 
L 347.455551 118.796865 
L 347.529354 119.035979 
L 347.750763 122.112872 
L 347.824566 118.810179 
L 348.119778 129.442635 
L 348.267384 124.869778 
L 348.488793 132.627186 
L 348.562596 128.133121 
L 348.636399 128.635815 
L 348.710202 128.301434 
L 348.784005 124.433817 
L 348.857808 125.657559 
L 348.931611 126.005937 
L 349.079217 122.166602 
L 349.226823 125.015208 
L 349.300626 118.453815 
L 349.374429 122.439855 
L 349.448232 121.830504 
L 349.522035 123.301121 
L 349.817247 105.939768 
L 349.89105 106.330543 
L 349.964853 104.830659 
L 350.038656 105.281474 
L 350.112459 106.339406 
L 350.186262 105.41127 
L 350.407671 110.502652 
L 350.702883 103.722909 
L 350.776686 103.087048 
L 350.924292 109.927133 
L 351.071898 108.195384 
L 351.145701 109.093123 
L 351.36711 99.718511 
L 351.440913 99.725206 
L 351.58852 103.269143 
L 351.736126 109.765058 
L 351.809929 104.485016 
L 351.883732 111.256974 
L 351.957535 109.836588 
L 352.105141 106.412402 
L 352.178944 106.300377 
L 352.400353 117.137343 
L 352.474156 117.119156 
L 352.547959 119.372686 
L 352.695565 113.635717 
L 352.769368 115.080355 
L 352.990777 103.741594 
L 353.138383 113.381844 
L 353.581201 94.937371 
L 353.655004 94.27858 
L 353.728807 92.461414 
L 353.876413 98.526926 
L 353.950216 97.984051 
L 354.245428 82.788855 
L 354.319231 81.795444 
L 354.393034 83.632013 
L 354.466837 82.884484 
L 354.54064 79.904593 
L 354.762049 91.742876 
L 354.835852 89.416054 
L 355.057261 94.062625 
L 355.27867 105.323879 
L 355.426276 104.726309 
L 355.500079 104.252758 
L 355.573882 107.264828 
L 355.647685 105.54907 
L 355.721488 100.065643 
L 355.795291 100.719632 
L 355.869094 106.973739 
L 356.0167 98.912239 
L 356.164306 106.101247 
L 356.23811 105.803871 
L 356.311913 110.953334 
L 356.459519 103.487829 
L 356.533322 103.910144 
L 357.123746 116.849192 
L 357.271352 109.883337 
L 357.345155 111.425882 
L 357.640367 98.676569 
L 357.861776 86.016198 
L 358.083185 78.166966 
L 358.156988 78.326198 
L 358.230791 75.642736 
L 358.378397 84.640254 
L 358.4522 79.753449 
L 358.599806 88.338578 
L 358.747412 79.875065 
L 358.821215 81.01155 
L 358.968821 75.976802 
L 359.042624 77.410965 
L 359.19023 89.034406 
L 359.411639 84.050221 
L 359.559245 79.65481 
L 359.706851 72.498096 
L 359.780654 72.90049 
L 359.92826 68.906311 
L 360.002063 72.344374 
L 360.075866 70.482231 
L 360.149669 72.665225 
L 360.297275 66.057979 
L 360.371078 70.203942 
L 360.444881 66.625774 
L 360.66629 78.907684 
L 360.740093 72.210138 
L 360.813896 75.465471 
L 361.182912 59.720904 
L 361.551927 82.04957 
L 361.62573 80.019086 
L 361.773336 73.705415 
L 361.847139 75.270991 
L 361.920942 73.907854 
L 362.068548 80.053054 
L 362.142351 76.26949 
L 362.216154 78.031622 
L 362.585169 84.173222 
L 362.658972 80.091721 
L 362.954184 89.642247 
L 363.175593 102.04964 
L 363.249396 97.68854 
L 363.470805 108.970926 
L 363.544608 106.102551 
L 363.766017 113.452455 
L 364.725456 70.996183 
L 364.873062 73.772244 
L 364.946865 72.867814 
L 365.020668 68.910241 
L 365.094471 69.721183 
L 365.168274 69.995459 
L 365.242077 73.357216 
L 365.389683 65.846331 
L 365.463486 68.108458 
L 365.537289 66.354919 
L 365.611092 67.77402 
L 365.758699 60.499402 
L 365.832502 60.293085 
L 366.422926 44.443636 
L 366.496729 47.176683 
L 366.570532 44.966029 
L 367.160956 67.311536 
L 367.308562 81.491767 
L 367.382365 80.108467 
L 367.529971 77.10727 
L 367.972789 100.040742 
L 368.120395 101.856355 
L 368.194198 97.053817 
L 368.268001 102.865924 
L 368.341804 102.117223 
L 368.415607 99.680853 
L 368.563213 103.649604 
L 368.637016 104.814187 
L 368.858425 110.925375 
L 368.932228 113.429707 
L 369.006031 120.795278 
L 369.079834 119.903234 
L 369.153637 122.300867 
L 369.22744 118.940396 
L 369.744061 132.192128 
L 369.817864 132.150799 
L 369.891667 132.042155 
L 370.113076 142.637282 
L 370.482092 127.296264 
L 370.629698 129.503704 
L 370.703501 128.141719 
L 370.92491 131.457753 
L 371.146319 139.35686 
L 371.441531 130.823379 
L 371.515334 134.324088 
L 371.589137 131.439764 
L 371.66294 133.738388 
L 371.736743 130.055135 
L 371.810546 130.773962 
L 371.884349 131.350537 
L 372.031955 123.875663 
L 372.105758 124.277278 
L 372.696182 83.827633 
L 372.769985 83.380707 
L 372.843788 78.97289 
L 372.917591 80.922732 
L 372.991394 81.940752 
L 373.139 74.587305 
L 373.286606 77.006507 
L 373.434212 72.444747 
L 373.508015 75.040653 
L 373.581818 74.176585 
" style="fill:none;stroke:#1f77b4;stroke-linecap:square;stroke-width:1.5;"/>
   </g>
   <g id="patch_3">
    <path d="M 54 252 
L 54 34.56 
" style="fill:none;stroke:#000000;stroke-linecap:square;stroke-linejoin:miter;stroke-width:0.8;"/>
   </g>
   <g id="patch_4">
    <path d="M 388.8 252 
L 388.8 34.56 
" style="fill:none;stroke:#000000;stroke-linecap:square;stroke-linejoin:miter;stroke-width:0.8;"/>
   </g>
   <g id="patch_5">
    <path d="M 54 252 
L 388.8 252 
" style="fill:none;stroke:#000000;stroke-linecap:square;stroke-linejoin:miter;stroke-width:0.8;"/>
   </g>
   <g id="patch_6">
    <path d="M 54 34.56 
L 388.8 34.56 
" style="fill:none;stroke:#000000;stroke-linecap:square;stroke-linejoin:miter;stroke-width:0.8;"/>
   </g>
  </g>
 </g>
 <defs>
  <clipPath id="pd2c27bb556">
   <rect height="217.44" width="334.8" x="54" y="34.56"/>
  </clipPath>
 </defs>
</svg>
