<?xml version="1.0" encoding="utf-8" standalone="no"?>
<!DOCTYPE svg PUBLIC "-//W3C//DTD SVG 1.1//EN"
  "http://www.w3.org/Graphics/SVG/1.1/DTD/svg11.dtd">
<!-- Created with matplotlib (https://matplotlib.org/) -->
<svg height="288pt" version="1.1" viewBox="0 0 432 288" width="432pt" xmlns="http://www.w3.org/2000/svg" xmlns:xlink="http://www.w3.org/1999/xlink">
 <defs>
  <style type="text/css">
*{stroke-linecap:butt;stroke-linejoin:round;}
  </style>
 </defs>
 <g id="figure_1">
  <g id="patch_1">
   <path d="M 0 288 
L 432 288 
L 432 0 
L 0 0 
z
" style="fill:#ffffff;"/>
  </g>
  <g id="axes_1">
   <g id="patch_2">
    <path d="M 54 252 
L 388.8 252 
L 388.8 34.56 
L 54 34.56 
z
" style="fill:#ffffff;"/>
   </g>
   <g id="matplotlib.axis_1">
    <g id="xtick_1">
     <g id="line2d_1">
      <defs>
       <path d="M 0 0 
L 0 3.5 
" id="mb053b648bd" style="stroke:#000000;stroke-width:0.8;"/>
      </defs>
      <g>
       <use style="stroke:#000000;stroke-width:0.8;" x="69.218182" xlink:href="#mb053b648bd" y="252"/>
      </g>
     </g>
     <g id="text_1">
      <!-- 0 -->
      <defs>
       <path d="M 31.78125 66.40625 
Q 24.171875 66.40625 20.328125 58.90625 
Q 16.5 51.421875 16.5 36.375 
Q 16.5 21.390625 20.328125 13.890625 
Q 24.171875 6.390625 31.78125 6.390625 
Q 39.453125 6.390625 43.28125 13.890625 
Q 47.125 21.390625 47.125 36.375 
Q 47.125 51.421875 43.28125 58.90625 
Q 39.453125 66.40625 31.78125 66.40625 
z
M 31.78125 74.21875 
Q 44.046875 74.21875 50.515625 64.515625 
Q 56.984375 54.828125 56.984375 36.375 
Q 56.984375 17.96875 50.515625 8.265625 
Q 44.046875 -1.421875 31.78125 -1.421875 
Q 19.53125 -1.421875 13.0625 8.265625 
Q 6.59375 17.96875 6.59375 36.375 
Q 6.59375 54.828125 13.0625 64.515625 
Q 19.53125 74.21875 31.78125 74.21875 
z
" id="DejaVuSans-48"/>
      </defs>
      <g transform="translate(66.036932 266.598437)scale(0.1 -0.1)">
       <use xlink:href="#DejaVuSans-48"/>
      </g>
     </g>
    </g>
    <g id="xtick_2">
     <g id="line2d_2">
      <g>
       <use style="stroke:#000000;stroke-width:0.8;" x="112.427102" xlink:href="#mb053b648bd" y="252"/>
      </g>
     </g>
     <g id="text_2">
      <!-- 250 -->
      <defs>
       <path d="M 19.1875 8.296875 
L 53.609375 8.296875 
L 53.609375 0 
L 7.328125 0 
L 7.328125 8.296875 
Q 12.9375 14.109375 22.625 23.890625 
Q 32.328125 33.6875 34.8125 36.53125 
Q 39.546875 41.84375 41.421875 45.53125 
Q 43.3125 49.21875 43.3125 52.78125 
Q 43.3125 58.59375 39.234375 62.25 
Q 35.15625 65.921875 28.609375 65.921875 
Q 23.96875 65.921875 18.8125 64.3125 
Q 13.671875 62.703125 7.8125 59.421875 
L 7.8125 69.390625 
Q 13.765625 71.78125 18.9375 73 
Q 24.125 74.21875 28.421875 74.21875 
Q 39.75 74.21875 46.484375 68.546875 
Q 53.21875 62.890625 53.21875 53.421875 
Q 53.21875 48.921875 51.53125 44.890625 
Q 49.859375 40.875 45.40625 35.40625 
Q 44.1875 33.984375 37.640625 27.21875 
Q 31.109375 20.453125 19.1875 8.296875 
z
" id="DejaVuSans-50"/>
       <path d="M 10.796875 72.90625 
L 49.515625 72.90625 
L 49.515625 64.59375 
L 19.828125 64.59375 
L 19.828125 46.734375 
Q 21.96875 47.46875 24.109375 47.828125 
Q 26.265625 48.1875 28.421875 48.1875 
Q 40.625 48.1875 47.75 41.5 
Q 54.890625 34.8125 54.890625 23.390625 
Q 54.890625 11.625 47.5625 5.09375 
Q 40.234375 -1.421875 26.90625 -1.421875 
Q 22.3125 -1.421875 17.546875 -0.640625 
Q 12.796875 0.140625 7.71875 1.703125 
L 7.71875 11.625 
Q 12.109375 9.234375 16.796875 8.0625 
Q 21.484375 6.890625 26.703125 6.890625 
Q 35.15625 6.890625 40.078125 11.328125 
Q 45.015625 15.765625 45.015625 23.390625 
Q 45.015625 31 40.078125 35.4375 
Q 35.15625 39.890625 26.703125 39.890625 
Q 22.75 39.890625 18.8125 39.015625 
Q 14.890625 38.140625 10.796875 36.28125 
z
" id="DejaVuSans-53"/>
      </defs>
      <g transform="translate(102.883352 266.598437)scale(0.1 -0.1)">
       <use xlink:href="#DejaVuSans-50"/>
       <use x="63.623047" xlink:href="#DejaVuSans-53"/>
       <use x="127.246094" xlink:href="#DejaVuSans-48"/>
      </g>
     </g>
    </g>
    <g id="xtick_3">
     <g id="line2d_3">
      <g>
       <use style="stroke:#000000;stroke-width:0.8;" x="155.636023" xlink:href="#mb053b648bd" y="252"/>
      </g>
     </g>
     <g id="text_3">
      <!-- 500 -->
      <g transform="translate(146.092273 266.598437)scale(0.1 -0.1)">
       <use xlink:href="#DejaVuSans-53"/>
       <use x="63.623047" xlink:href="#DejaVuSans-48"/>
       <use x="127.246094" xlink:href="#DejaVuSans-48"/>
      </g>
     </g>
    </g>
    <g id="xtick_4">
     <g id="line2d_4">
      <g>
       <use style="stroke:#000000;stroke-width:0.8;" x="198.844943" xlink:href="#mb053b648bd" y="252"/>
      </g>
     </g>
     <g id="text_4">
      <!-- 750 -->
      <defs>
       <path d="M 8.203125 72.90625 
L 55.078125 72.90625 
L 55.078125 68.703125 
L 28.609375 0 
L 18.3125 0 
L 43.21875 64.59375 
L 8.203125 64.59375 
z
" id="DejaVuSans-55"/>
      </defs>
      <g transform="translate(189.301193 266.598437)scale(0.1 -0.1)">
       <use xlink:href="#DejaVuSans-55"/>
       <use x="63.623047" xlink:href="#DejaVuSans-53"/>
       <use x="127.246094" xlink:href="#DejaVuSans-48"/>
      </g>
     </g>
    </g>
    <g id="xtick_5">
     <g id="line2d_5">
      <g>
       <use style="stroke:#000000;stroke-width:0.8;" x="242.053864" xlink:href="#mb053b648bd" y="252"/>
      </g>
     </g>
     <g id="text_5">
      <!-- 1000 -->
      <defs>
       <path d="M 12.40625 8.296875 
L 28.515625 8.296875 
L 28.515625 63.921875 
L 10.984375 60.40625 
L 10.984375 69.390625 
L 28.421875 72.90625 
L 38.28125 72.90625 
L 38.28125 8.296875 
L 54.390625 8.296875 
L 54.390625 0 
L 12.40625 0 
z
" id="DejaVuSans-49"/>
      </defs>
      <g transform="translate(229.328864 266.598437)scale(0.1 -0.1)">
       <use xlink:href="#DejaVuSans-49"/>
       <use x="63.623047" xlink:href="#DejaVuSans-48"/>
       <use x="127.246094" xlink:href="#DejaVuSans-48"/>
       <use x="190.869141" xlink:href="#DejaVuSans-48"/>
      </g>
     </g>
    </g>
    <g id="xtick_6">
     <g id="line2d_6">
      <g>
       <use style="stroke:#000000;stroke-width:0.8;" x="285.262785" xlink:href="#mb053b648bd" y="252"/>
      </g>
     </g>
     <g id="text_6">
      <!-- 1250 -->
      <g transform="translate(272.537785 266.598437)scale(0.1 -0.1)">
       <use xlink:href="#DejaVuSans-49"/>
       <use x="63.623047" xlink:href="#DejaVuSans-50"/>
       <use x="127.246094" xlink:href="#DejaVuSans-53"/>
       <use x="190.869141" xlink:href="#DejaVuSans-48"/>
      </g>
     </g>
    </g>
    <g id="xtick_7">
     <g id="line2d_7">
      <g>
       <use style="stroke:#000000;stroke-width:0.8;" x="328.471705" xlink:href="#mb053b648bd" y="252"/>
      </g>
     </g>
     <g id="text_7">
      <!-- 1500 -->
      <g transform="translate(315.746705 266.598437)scale(0.1 -0.1)">
       <use xlink:href="#DejaVuSans-49"/>
       <use x="63.623047" xlink:href="#DejaVuSans-53"/>
       <use x="127.246094" xlink:href="#DejaVuSans-48"/>
       <use x="190.869141" xlink:href="#DejaVuSans-48"/>
      </g>
     </g>
    </g>
    <g id="xtick_8">
     <g id="line2d_8">
      <g>
       <use style="stroke:#000000;stroke-width:0.8;" x="371.680626" xlink:href="#mb053b648bd" y="252"/>
      </g>
     </g>
     <g id="text_8">
      <!-- 1750 -->
      <g transform="translate(358.955626 266.598437)scale(0.1 -0.1)">
       <use xlink:href="#DejaVuSans-49"/>
       <use x="63.623047" xlink:href="#DejaVuSans-55"/>
       <use x="127.246094" xlink:href="#DejaVuSans-53"/>
       <use x="190.869141" xlink:href="#DejaVuSans-48"/>
      </g>
     </g>
    </g>
   </g>
   <g id="matplotlib.axis_2">
    <g id="ytick_1">
     <g id="line2d_9">
      <defs>
       <path d="M 0 0 
L -3.5 0 
" id="m9dfb790882" style="stroke:#000000;stroke-width:0.8;"/>
      </defs>
      <g>
       <use style="stroke:#000000;stroke-width:0.8;" x="54" xlink:href="#m9dfb790882" y="244.530771"/>
      </g>
     </g>
     <g id="text_9">
      <!-- 0 -->
      <g transform="translate(40.6375 248.32999)scale(0.1 -0.1)">
       <use xlink:href="#DejaVuSans-48"/>
      </g>
     </g>
    </g>
    <g id="ytick_2">
     <g id="line2d_10">
      <g>
       <use style="stroke:#000000;stroke-width:0.8;" x="54" xlink:href="#m9dfb790882" y="196.564511"/>
      </g>
     </g>
     <g id="text_10">
      <!-- 2 -->
      <g transform="translate(40.6375 200.36373)scale(0.1 -0.1)">
       <use xlink:href="#DejaVuSans-50"/>
      </g>
     </g>
    </g>
    <g id="ytick_3">
     <g id="line2d_11">
      <g>
       <use style="stroke:#000000;stroke-width:0.8;" x="54" xlink:href="#m9dfb790882" y="148.598251"/>
      </g>
     </g>
     <g id="text_11">
      <!-- 4 -->
      <defs>
       <path d="M 37.796875 64.3125 
L 12.890625 25.390625 
L 37.796875 25.390625 
z
M 35.203125 72.90625 
L 47.609375 72.90625 
L 47.609375 25.390625 
L 58.015625 25.390625 
L 58.015625 17.1875 
L 47.609375 17.1875 
L 47.609375 0 
L 37.796875 0 
L 37.796875 17.1875 
L 4.890625 17.1875 
L 4.890625 26.703125 
z
" id="DejaVuSans-52"/>
      </defs>
      <g transform="translate(40.6375 152.39747)scale(0.1 -0.1)">
       <use xlink:href="#DejaVuSans-52"/>
      </g>
     </g>
    </g>
    <g id="ytick_4">
     <g id="line2d_12">
      <g>
       <use style="stroke:#000000;stroke-width:0.8;" x="54" xlink:href="#m9dfb790882" y="100.631991"/>
      </g>
     </g>
     <g id="text_12">
      <!-- 6 -->
      <defs>
       <path d="M 33.015625 40.375 
Q 26.375 40.375 22.484375 35.828125 
Q 18.609375 31.296875 18.609375 23.390625 
Q 18.609375 15.53125 22.484375 10.953125 
Q 26.375 6.390625 33.015625 6.390625 
Q 39.65625 6.390625 43.53125 10.953125 
Q 47.40625 15.53125 47.40625 23.390625 
Q 47.40625 31.296875 43.53125 35.828125 
Q 39.65625 40.375 33.015625 40.375 
z
M 52.59375 71.296875 
L 52.59375 62.3125 
Q 48.875 64.0625 45.09375 64.984375 
Q 41.3125 65.921875 37.59375 65.921875 
Q 27.828125 65.921875 22.671875 59.328125 
Q 17.53125 52.734375 16.796875 39.40625 
Q 19.671875 43.65625 24.015625 45.921875 
Q 28.375 48.1875 33.59375 48.1875 
Q 44.578125 48.1875 50.953125 41.515625 
Q 57.328125 34.859375 57.328125 23.390625 
Q 57.328125 12.15625 50.6875 5.359375 
Q 44.046875 -1.421875 33.015625 -1.421875 
Q 20.359375 -1.421875 13.671875 8.265625 
Q 6.984375 17.96875 6.984375 36.375 
Q 6.984375 53.65625 15.1875 63.9375 
Q 23.390625 74.21875 37.203125 74.21875 
Q 40.921875 74.21875 44.703125 73.484375 
Q 48.484375 72.75 52.59375 71.296875 
z
" id="DejaVuSans-54"/>
      </defs>
      <g transform="translate(40.6375 104.43121)scale(0.1 -0.1)">
       <use xlink:href="#DejaVuSans-54"/>
      </g>
     </g>
    </g>
    <g id="ytick_5">
     <g id="line2d_13">
      <g>
       <use style="stroke:#000000;stroke-width:0.8;" x="54" xlink:href="#m9dfb790882" y="52.665731"/>
      </g>
     </g>
     <g id="text_13">
      <!-- 8 -->
      <defs>
       <path d="M 31.78125 34.625 
Q 24.75 34.625 20.71875 30.859375 
Q 16.703125 27.09375 16.703125 20.515625 
Q 16.703125 13.921875 20.71875 10.15625 
Q 24.75 6.390625 31.78125 6.390625 
Q 38.8125 6.390625 42.859375 10.171875 
Q 46.921875 13.96875 46.921875 20.515625 
Q 46.921875 27.09375 42.890625 30.859375 
Q 38.875 34.625 31.78125 34.625 
z
M 21.921875 38.8125 
Q 15.578125 40.375 12.03125 44.71875 
Q 8.5 49.078125 8.5 55.328125 
Q 8.5 64.0625 14.71875 69.140625 
Q 20.953125 74.21875 31.78125 74.21875 
Q 42.671875 74.21875 48.875 69.140625 
Q 55.078125 64.0625 55.078125 55.328125 
Q 55.078125 49.078125 51.53125 44.71875 
Q 48 40.375 41.703125 38.8125 
Q 48.828125 37.15625 52.796875 32.3125 
Q 56.78125 27.484375 56.78125 20.515625 
Q 56.78125 9.90625 50.3125 4.234375 
Q 43.84375 -1.421875 31.78125 -1.421875 
Q 19.734375 -1.421875 13.25 4.234375 
Q 6.78125 9.90625 6.78125 20.515625 
Q 6.78125 27.484375 10.78125 32.3125 
Q 14.796875 37.15625 21.921875 38.8125 
z
M 18.3125 54.390625 
Q 18.3125 48.734375 21.84375 45.5625 
Q 25.390625 42.390625 31.78125 42.390625 
Q 38.140625 42.390625 41.71875 45.5625 
Q 45.3125 48.734375 45.3125 54.390625 
Q 45.3125 60.0625 41.71875 63.234375 
Q 38.140625 66.40625 31.78125 66.40625 
Q 25.390625 66.40625 21.84375 63.234375 
Q 18.3125 60.0625 18.3125 54.390625 
z
" id="DejaVuSans-56"/>
      </defs>
      <g transform="translate(40.6375 56.46495)scale(0.1 -0.1)">
       <use xlink:href="#DejaVuSans-56"/>
      </g>
     </g>
    </g>
   </g>
   <g id="line2d_14">
    <path clip-path="url(#pb77d9a97fd)" d="M 69.218182 53.726322 
L 69.391018 62.767741 
L 69.563853 118.563937 
L 69.736689 54.124622 
L 69.909525 95.253326 
L 70.08236 98.63341 
L 70.255196 122.48864 
L 70.773703 44.443636 
L 70.946539 89.348352 
L 71.29221 100.421534 
L 71.637881 86.488225 
L 71.810717 118.324552 
L 72.329224 96.448027 
L 72.50206 102.959816 
L 72.674895 87.95615 
L 73.020567 127.953446 
L 73.193403 132.297806 
L 73.366238 95.550904 
L 73.71191 114.712768 
L 73.884745 77.502059 
L 74.057581 121.747555 
L 74.230417 116.619208 
L 74.403252 120.557611 
L 74.576088 100.780534 
L 74.748924 105.168082 
L 74.921759 92.60519 
L 75.094595 124.010657 
L 75.267431 98.630706 
L 75.440266 119.017965 
L 75.613102 108.859756 
L 75.785938 111.9744 
L 75.958773 138.66659 
L 76.131609 130.138046 
L 76.304445 144.483018 
L 76.650116 119.699645 
L 76.822952 152.779036 
L 76.995788 140.761654 
L 77.168623 115.69808 
L 77.514295 137.417753 
L 77.68713 131.364905 
L 77.859966 132.445394 
L 78.032802 140.579895 
L 78.205637 70.135037 
L 78.378473 156.919682 
L 78.551309 154.404638 
L 78.89698 107.943171 
L 79.069816 162.089588 
L 79.415487 126.527903 
L 79.588323 128.806884 
L 79.761158 99.772681 
L 79.933994 122.790734 
L 80.279665 105.479829 
L 80.452501 116.483262 
L 80.625337 143.755966 
L 80.798173 150.718206 
L 80.971008 82.344608 
L 81.489515 164.469684 
L 81.662351 128.968378 
L 81.835187 138.191356 
L 82.008022 87.072544 
L 82.180858 118.492238 
L 82.353694 124.307274 
L 82.526529 152.277285 
L 82.699365 128.195599 
L 82.872201 121.471403 
L 83.045036 151.524979 
L 83.217872 161.70144 
L 83.390708 134.196225 
L 83.563543 72.548146 
L 83.736379 130.093485 
L 83.909215 121.93498 
L 84.08205 176.020381 
L 84.254886 97.912105 
L 84.600558 148.264836 
L 84.773393 129.628187 
L 85.119065 160.132456 
L 85.2919 125.854343 
L 85.464736 134.777479 
L 85.637572 164.19893 
L 85.810407 110.592852 
L 85.983243 159.723644 
L 86.156079 122.829085 
L 86.50175 162.123653 
L 86.847421 129.736026 
L 87.020257 143.603855 
L 87.193093 101.613238 
L 87.365928 147.878706 
L 87.538764 142.298344 
L 87.7116 117.492797 
L 87.884435 143.375483 
L 88.057271 106.865186 
L 88.230107 145.96342 
L 88.402943 118.622301 
L 88.575778 123.444127 
L 88.748614 123.536605 
L 89.094285 166.72071 
L 89.612792 101.511669 
L 89.958464 151.021601 
L 90.131299 131.228039 
L 90.304135 166.43938 
L 90.476971 126.58251 
L 90.649806 127.831915 
L 90.822642 120.668547 
L 91.168313 142.163976 
L 91.341149 113.620837 
L 91.513985 156.546201 
L 91.686821 141.980456 
L 91.859656 98.797295 
L 92.032492 117.503792 
L 92.205328 154.078216 
L 92.378163 138.538412 
L 92.550999 145.51348 
L 92.723835 161.517239 
L 92.89667 162.925028 
L 93.069506 113.81119 
L 93.242342 145.148442 
L 93.588013 153.609078 
L 93.760849 96.907305 
L 93.933684 127.926778 
L 94.10652 108.648844 
L 94.279356 154.568751 
L 94.452191 128.625677 
L 94.625027 165.715956 
L 94.797863 143.579244 
L 94.970698 152.887292 
L 95.143534 132.954905 
L 95.31637 153.449571 
L 95.489206 151.855 
L 95.662041 145.642219 
L 96.007713 162.243846 
L 96.353384 124.697095 
L 96.52622 159.679727 
L 96.699055 107.20092 
L 97.044727 151.388767 
L 97.217562 154.46 
L 97.390398 145.688555 
L 97.563234 170.756397 
L 97.736069 156.537181 
L 97.908905 166.036886 
L 98.081741 142.127984 
L 98.254576 159.697081 
L 98.427412 140.19189 
L 98.600248 137.283683 
L 98.773083 126.03159 
L 98.945919 144.714769 
L 99.118755 118.207864 
L 99.291591 154.739309 
L 99.464426 113.746605 
L 99.637262 177.158636 
L 99.982933 129.907913 
L 100.155769 149.145249 
L 100.328605 124.211097 
L 100.50144 142.716795 
L 100.674276 137.770921 
L 101.019947 164.646625 
L 101.192783 161.215582 
L 101.365619 142.687839 
L 101.538454 165.703022 
L 101.71129 158.377167 
L 101.884126 156.57769 
L 102.056961 156.694838 
L 102.229797 128.671321 
L 102.402633 177.73445 
L 102.575468 164.348522 
L 102.748304 168.83157 
L 102.92114 154.046421 
L 103.093976 148.810281 
L 103.266811 104.706546 
L 103.439647 153.730695 
L 103.612483 117.519368 
L 103.958154 178.407395 
L 104.13099 171.221509 
L 104.303825 137.115722 
L 104.476661 144.202589 
L 104.649497 142.481224 
L 104.822332 178.064435 
L 104.995168 183.310841 
L 105.340839 148.78003 
L 105.513675 177.769801 
L 105.686511 167.793171 
L 105.859346 133.040486 
L 106.205018 170.837401 
L 106.377853 147.451479 
L 106.550689 166.248718 
L 106.723525 151.915751 
L 106.896361 148.787815 
L 107.069196 120.337479 
L 107.242032 148.353302 
L 107.414868 143.132375 
L 107.587703 164.792881 
L 107.760539 172.056015 
L 107.933375 147.001988 
L 108.10621 156.541212 
L 108.279046 154.724785 
L 108.451882 168.797902 
L 108.797553 150.00186 
L 108.970389 158.056806 
L 109.143224 185.364575 
L 109.31606 166.464382 
L 109.488896 183.048189 
L 109.661731 148.983074 
L 109.834567 177.892627 
L 110.007403 171.148799 
L 110.353074 133.582515 
L 110.698746 183.064291 
L 110.871581 166.334191 
L 111.044417 165.759847 
L 111.217253 174.800969 
L 111.390088 150.411579 
L 111.562924 169.089187 
L 111.73576 174.006676 
L 111.908595 158.62623 
L 112.081431 186.440717 
L 112.254267 146.392766 
L 112.427102 180.211635 
L 112.599938 156.774585 
L 112.772774 177.54904 
L 112.945609 175.663968 
L 113.118445 157.003472 
L 113.291281 181.579172 
L 113.636952 146.068426 
L 113.809788 181.083396 
L 113.982624 171.842487 
L 114.155459 171.346957 
L 114.328295 181.746858 
L 114.501131 170.253462 
L 114.673966 177.106608 
L 114.846802 207.268827 
L 115.019638 176.41123 
L 115.192473 176.156795 
L 115.365309 198.568431 
L 115.538145 178.983664 
L 115.71098 177.178878 
L 115.883816 178.203862 
L 116.229487 187.07286 
L 116.402323 187.37257 
L 116.575159 147.656132 
L 116.747994 181.338451 
L 116.92083 171.097877 
L 117.093666 182.065504 
L 117.266501 167.818633 
L 117.439337 167.367713 
L 117.612173 190.330862 
L 117.957844 161.175164 
L 118.13068 190.839931 
L 118.303516 187.672032 
L 118.476351 163.319057 
L 118.649187 182.501077 
L 118.822023 172.295125 
L 118.994858 185.077737 
L 119.167694 171.358713 
L 119.34053 182.490505 
L 119.513365 183.049147 
L 119.686201 190.825551 
L 120.031872 155.957834 
L 120.377544 193.231075 
L 120.550379 194.608609 
L 120.723215 187.722928 
L 121.068886 206.633844 
L 121.241722 184.210669 
L 121.414558 188.866641 
L 121.587394 206.394321 
L 121.933065 182.531712 
L 122.105901 196.936953 
L 122.624408 179.522004 
L 122.797243 170.952796 
L 122.970079 189.575448 
L 123.142915 176.206454 
L 123.31575 172.813253 
L 123.488586 175.450823 
L 123.661422 172.281982 
L 123.834257 181.648274 
L 124.007093 213.228317 
L 124.179929 151.872735 
L 124.352764 187.395568 
L 124.5256 189.538644 
L 124.698436 197.319587 
L 124.871271 187.503093 
L 125.216943 205.345446 
L 125.389779 182.727231 
L 125.562614 212.74859 
L 125.73545 205.43252 
L 125.908286 179.326453 
L 126.081121 181.682242 
L 126.253957 212.050439 
L 126.426793 214.252784 
L 126.772464 184.692414 
L 126.9453 193.016686 
L 127.118135 190.723317 
L 127.463807 197.554495 
L 127.636642 207.564176 
L 127.982314 200.945912 
L 128.155149 210.366885 
L 128.500821 184.661837 
L 128.673656 209.427285 
L 128.846492 188.592767 
L 129.019328 187.92701 
L 129.192164 205.603561 
L 129.364999 204.577769 
L 129.537835 210.777124 
L 129.710671 186.360695 
L 129.883506 204.403877 
L 130.056342 189.431079 
L 130.229178 191.068994 
L 130.402013 189.926507 
L 130.574849 212.284815 
L 130.747685 193.017218 
L 131.093356 205.291708 
L 131.266192 204.623415 
L 131.439027 215.292203 
L 131.611863 209.359856 
L 131.784699 208.582443 
L 131.957534 210.499425 
L 132.303206 206.452218 
L 132.476042 199.50431 
L 132.648877 197.738574 
L 132.821713 206.071776 
L 132.994549 221.798396 
L 133.34022 197.31039 
L 133.513056 207.085725 
L 133.685891 201.330364 
L 133.858727 218.683691 
L 134.031563 222.857111 
L 134.377234 212.379261 
L 134.55007 212.98929 
L 134.722905 209.698273 
L 134.895741 196.796571 
L 135.068577 213.936102 
L 135.241412 214.296634 
L 135.414248 196.164587 
L 135.759919 207.955325 
L 135.932755 207.235463 
L 136.105591 198.145014 
L 136.278427 202.03762 
L 136.451262 217.289006 
L 136.624098 216.438073 
L 136.796934 210.06309 
L 136.969769 194.099008 
L 137.142605 215.426503 
L 137.315441 212.190853 
L 137.488276 213.736405 
L 137.661112 204.376432 
L 137.833948 225.950862 
L 138.006783 206.076829 
L 138.179619 204.679482 
L 138.352455 213.110039 
L 138.52529 204.056161 
L 138.698126 218.770908 
L 138.870962 214.718349 
L 139.043797 217.615455 
L 139.216633 212.961171 
L 139.389469 214.783551 
L 139.562304 224.933782 
L 139.73514 214.870361 
L 139.907976 212.58953 
L 140.253647 226.456737 
L 140.426483 212.046293 
L 140.599319 219.806411 
L 140.772154 221.076372 
L 140.94499 218.161873 
L 141.117826 224.35882 
L 141.290661 221.730669 
L 141.636333 213.439488 
L 141.809168 211.134524 
L 141.982004 217.395865 
L 142.327675 210.339262 
L 142.500511 219.607792 
L 142.673347 222.627476 
L 142.846182 230.584853 
L 143.191854 216.224409 
L 143.364689 223.312474 
L 143.537525 219.921156 
L 143.710361 223.191335 
L 143.883197 224.217438 
L 144.056032 215.528842 
L 144.228868 229.470706 
L 144.401704 221.978771 
L 144.574539 223.061908 
L 144.747375 222.158287 
L 144.920211 209.903618 
L 145.093046 228.340024 
L 145.438718 202.456662 
L 145.611553 227.312805 
L 145.784389 214.876888 
L 145.957225 226.222731 
L 146.13006 215.131825 
L 146.302896 229.116629 
L 146.475732 222.286333 
L 146.648567 224.420342 
L 146.821403 204.00764 
L 147.167074 227.632422 
L 147.33991 221.755093 
L 147.512746 208.252543 
L 147.858417 222.733764 
L 148.031253 225.558155 
L 148.204089 198.204484 
L 148.54976 226.534228 
L 148.722596 225.470453 
L 148.895431 213.775918 
L 149.068267 228.733171 
L 149.241103 229.433839 
L 149.413938 228.248073 
L 149.586774 222.106544 
L 149.75961 220.847894 
L 150.105281 225.983437 
L 150.278117 194.017216 
L 150.450952 217.663946 
L 150.796624 228.346446 
L 150.96946 225.958312 
L 151.142295 228.038396 
L 151.315131 220.360335 
L 151.487967 221.319939 
L 151.660802 227.079506 
L 151.833638 223.668034 
L 152.006474 224.043874 
L 152.179309 227.60954 
L 152.352145 225.177956 
L 152.524981 197.453695 
L 152.697816 214.008321 
L 153.043488 212.360279 
L 153.216323 224.660184 
L 153.389159 215.778021 
L 153.561995 214.691471 
L 153.73483 216.490795 
L 153.907666 200.541497 
L 154.080502 221.348973 
L 154.253337 221.923803 
L 154.426173 229.190603 
L 154.599009 227.005224 
L 154.771845 204.597558 
L 154.94468 223.942702 
L 155.117516 220.925515 
L 155.290352 209.646002 
L 155.463187 223.873485 
L 155.808859 221.014615 
L 155.981694 222.679342 
L 156.15453 218.707716 
L 156.327366 228.679264 
L 156.500201 223.460689 
L 156.673037 222.896148 
L 156.845873 217.898669 
L 157.018708 203.289106 
L 157.191544 215.836997 
L 157.36438 197.872177 
L 157.537215 219.061084 
L 157.710051 225.866528 
L 157.882887 223.046406 
L 158.055722 214.562357 
L 158.228558 214.921105 
L 158.401394 217.780569 
L 158.57423 225.903238 
L 158.747065 217.71991 
L 158.919901 224.767662 
L 159.092737 216.018861 
L 159.265572 228.414697 
L 159.438408 212.560028 
L 159.611244 223.31342 
L 159.784079 224.04634 
L 159.956915 225.935523 
L 160.129751 222.495809 
L 160.302586 229.929247 
L 160.475422 226.867875 
L 160.648258 203.582882 
L 160.821093 220.507869 
L 160.993929 226.183867 
L 161.166765 224.128062 
L 161.3396 215.174089 
L 161.512436 221.245463 
L 161.685272 219.580356 
L 161.858107 225.891807 
L 162.030943 213.959564 
L 162.203779 227.206134 
L 162.376615 221.184624 
L 162.54945 223.453741 
L 162.722286 232.874462 
L 163.067957 225.358842 
L 163.240793 231.170976 
L 163.413629 204.621075 
L 163.586464 230.657341 
L 163.7593 218.152092 
L 163.932136 219.463878 
L 164.104971 216.657308 
L 164.277807 217.509037 
L 164.450643 228.896337 
L 164.623478 202.508936 
L 164.96915 227.680682 
L 165.141985 215.319219 
L 165.314821 220.592167 
L 165.487657 214.746747 
L 165.660492 230.427027 
L 165.833328 228.371714 
L 166.006164 224.762779 
L 166.179 194.34818 
L 166.351835 200.696911 
L 166.524671 220.664705 
L 166.697507 202.381851 
L 166.870342 225.565462 
L 167.043178 232.235893 
L 167.907356 204.490032 
L 168.080192 225.010712 
L 168.253028 209.520829 
L 168.425863 219.164373 
L 168.598699 211.083758 
L 168.771535 227.974723 
L 168.94437 223.121012 
L 169.117206 230.362551 
L 169.290042 228.823115 
L 169.462877 220.388385 
L 169.635713 220.144634 
L 169.808549 223.717901 
L 169.981385 217.046807 
L 170.15422 222.274626 
L 170.499892 195.532125 
L 170.845563 217.82601 
L 171.191234 228.884615 
L 171.36407 219.711753 
L 171.536906 229.345257 
L 171.709741 214.365149 
L 171.882577 231.105021 
L 172.055413 232.170935 
L 172.228248 215.512293 
L 172.401084 233.038832 
L 172.746755 208.90583 
L 173.092427 232.62859 
L 173.265263 221.027786 
L 173.438098 220.178517 
L 173.78377 230.612433 
L 173.956605 228.376304 
L 174.129441 224.19945 
L 174.475112 233.774104 
L 174.820784 225.121326 
L 175.166455 223.080745 
L 175.512126 228.54412 
L 175.684962 229.71835 
L 175.857798 235.340597 
L 176.030633 207.47027 
L 176.203469 232.414624 
L 176.54914 219.621823 
L 177.067648 235.896594 
L 177.413319 223.649201 
L 177.586155 224.515143 
L 177.75899 214.267781 
L 177.931826 219.802542 
L 178.104662 231.646416 
L 178.277497 225.258573 
L 178.450333 226.764336 
L 178.623169 226.402797 
L 178.796004 229.692884 
L 178.96884 217.604809 
L 179.141676 234.202058 
L 179.314511 231.812307 
L 179.487347 221.447875 
L 179.660183 219.421117 
L 179.833018 224.014097 
L 180.005854 233.196113 
L 180.17869 234.235539 
L 180.524361 233.263796 
L 180.697197 231.251478 
L 180.870033 226.625939 
L 181.042868 231.767451 
L 181.215704 232.662369 
L 181.38854 224.225276 
L 181.561375 228.700133 
L 181.734211 227.450769 
L 181.907047 234.457927 
L 182.079882 229.889363 
L 182.252718 229.435866 
L 182.425554 220.852924 
L 182.598389 235.253122 
L 182.771225 236.816983 
L 182.944061 233.20169 
L 183.116896 234.972745 
L 183.289732 229.637519 
L 183.462568 229.573746 
L 183.635403 225.740443 
L 183.808239 236.037287 
L 184.15391 234.140556 
L 184.326746 204.540721 
L 184.499582 232.699385 
L 184.672418 234.162486 
L 184.845253 234.584198 
L 185.190925 222.121306 
L 185.36376 230.307946 
L 185.536596 231.726332 
L 185.709432 235.838979 
L 185.882267 233.482786 
L 186.227939 233.534321 
L 186.57361 232.011906 
L 186.746446 236.493112 
L 186.919281 231.016784 
L 187.264953 237.735534 
L 187.610624 234.042395 
L 187.78346 236.729373 
L 187.956295 234.965313 
L 188.129131 237.031018 
L 188.301967 237.502077 
L 188.474803 235.187474 
L 188.647638 238.973506 
L 188.820474 230.538233 
L 188.99331 237.205221 
L 189.166145 236.095708 
L 189.338981 233.957619 
L 189.511817 236.847702 
L 189.684652 235.827477 
L 189.857488 233.504428 
L 190.030324 234.692188 
L 190.375995 235.50792 
L 190.548831 234.626303 
L 190.721666 235.743751 
L 190.894502 238.025526 
L 191.413009 230.996418 
L 191.585845 235.729161 
L 191.758681 234.572721 
L 191.931516 238.394368 
L 192.104352 236.563352 
L 192.277188 235.916397 
L 192.450023 231.01877 
L 192.622859 235.616048 
L 192.795695 236.977783 
L 192.96853 234.495649 
L 193.141366 237.547775 
L 193.487037 232.53361 
L 193.659873 238.110877 
L 193.832709 238.091663 
L 194.005544 234.496329 
L 194.17838 239.080015 
L 194.351216 236.415832 
L 194.524051 238.769831 
L 194.696887 237.775869 
L 194.869723 234.344438 
L 195.042558 233.194738 
L 195.215394 238.135441 
L 195.38823 236.255165 
L 195.561066 237.180827 
L 195.906737 239.651676 
L 196.079573 240.055549 
L 196.252408 236.516712 
L 196.425244 236.58073 
L 196.59808 236.315389 
L 196.770915 235.675478 
L 196.943751 238.383573 
L 197.116587 239.174636 
L 197.462258 237.156725 
L 197.635094 237.065807 
L 198.153601 239.178832 
L 198.326436 236.642895 
L 198.499272 237.069984 
L 198.672108 239.646114 
L 198.844943 239.196284 
L 199.190615 237.762572 
L 199.363451 238.514807 
L 199.536286 238.194108 
L 199.709122 239.194768 
L 199.881958 238.343355 
L 200.054793 236.726093 
L 200.227629 238.790899 
L 200.400465 237.395336 
L 200.5733 239.561997 
L 200.746136 238.004985 
L 200.918972 239.362854 
L 201.091807 237.778263 
L 201.264643 239.138103 
L 201.437479 236.044446 
L 201.610314 240.419162 
L 201.78315 238.387474 
L 201.955986 238.908383 
L 202.128821 238.746989 
L 202.301657 237.999077 
L 202.647328 239.128609 
L 202.820164 237.449466 
L 202.993 238.474657 
L 203.165836 237.260593 
L 203.338671 240.173116 
L 203.511507 238.026534 
L 203.684343 239.512519 
L 204.030014 238.468761 
L 204.20285 239.546012 
L 204.375685 237.659331 
L 204.548521 238.119324 
L 204.721357 238.954934 
L 205.067028 238.063677 
L 205.239864 237.629789 
L 205.585535 239.343747 
L 205.758371 238.489424 
L 205.931206 238.630703 
L 206.104042 238.338716 
L 206.449713 239.499173 
L 206.622549 237.759637 
L 206.795385 237.489072 
L 206.968221 239.482089 
L 207.313892 239.331033 
L 207.486728 239.936278 
L 207.659563 237.514423 
L 207.832399 238.965936 
L 208.17807 237.718797 
L 208.350906 239.184028 
L 208.523742 239.24307 
L 208.696577 236.691779 
L 208.869413 238.570108 
L 209.042249 237.674909 
L 209.215084 238.061137 
L 209.38792 240.164363 
L 209.733591 238.144758 
L 210.079263 240.01017 
L 210.252098 239.424405 
L 210.424934 239.851072 
L 210.59777 238.246301 
L 210.770606 239.218883 
L 210.943441 238.960761 
L 211.116277 238.122583 
L 211.289113 238.982 
L 211.461948 239.068234 
L 211.634784 239.607235 
L 211.80762 238.838002 
L 211.980455 237.074048 
L 212.153291 237.290852 
L 212.326127 239.331185 
L 212.498962 239.467556 
L 212.844634 238.730426 
L 213.017469 239.591645 
L 213.363141 239.307375 
L 213.535976 238.636041 
L 213.708812 239.779493 
L 213.881648 238.759354 
L 214.054484 239.067304 
L 214.227319 238.215065 
L 214.400155 238.837886 
L 214.572991 238.725477 
L 214.745826 238.803091 
L 214.918662 240.364694 
L 215.091498 238.66885 
L 215.264333 239.631999 
L 215.437169 239.20844 
L 215.610005 239.455063 
L 215.78284 240.255026 
L 215.955676 237.363138 
L 216.128512 239.398345 
L 216.301347 238.549493 
L 216.647019 240.367482 
L 216.819854 238.143533 
L 216.99269 237.929884 
L 217.165526 239.630568 
L 217.338361 238.42782 
L 217.684033 238.783132 
L 217.856869 238.385164 
L 218.029704 238.904437 
L 218.20254 237.280779 
L 218.375376 240.114699 
L 218.721047 237.538203 
L 218.893883 240.168424 
L 219.239554 237.412314 
L 219.41239 238.588631 
L 219.758061 238.236114 
L 220.103732 239.01142 
L 220.276568 238.599597 
L 220.622239 240.530138 
L 220.795075 239.861632 
L 221.140746 237.010582 
L 221.313582 239.901818 
L 221.486418 237.784714 
L 221.659254 238.226502 
L 221.832089 239.683742 
L 222.004925 238.442506 
L 222.350596 239.952337 
L 222.523432 238.312505 
L 222.696268 240.10787 
L 222.869103 239.763006 
L 223.041939 240.319217 
L 223.214775 238.595606 
L 223.38761 239.503615 
L 223.560446 239.484034 
L 223.733282 240.005078 
L 224.078953 238.711441 
L 224.424624 239.949234 
L 224.59746 239.957296 
L 224.770296 238.525458 
L 225.115967 239.85879 
L 225.288803 239.085971 
L 225.461639 239.419876 
L 225.634474 239.306726 
L 225.80731 239.450558 
L 225.980146 238.274812 
L 226.152981 239.446675 
L 226.325817 239.406405 
L 226.498653 238.605281 
L 226.671488 240.058586 
L 226.844324 240.301747 
L 227.01716 239.20657 
L 227.189995 239.854532 
L 227.535667 239.298879 
L 227.708502 239.598911 
L 227.881338 238.648106 
L 228.054174 238.388409 
L 228.227009 239.766825 
L 228.399845 239.101267 
L 228.572681 240.555196 
L 228.745516 240.502584 
L 228.918352 239.915261 
L 229.091188 238.215098 
L 229.264024 237.982166 
L 229.436859 240.86389 
L 229.955366 238.723589 
L 230.128202 238.508352 
L 230.473873 239.710926 
L 230.646709 239.17101 
L 230.819545 239.841831 
L 230.99238 239.315794 
L 231.165216 237.511863 
L 231.338052 239.707398 
L 231.510887 239.895532 
L 231.683723 238.753718 
L 232.029394 239.062524 
L 232.20223 238.988547 
L 232.375066 238.350938 
L 232.547902 239.734995 
L 232.720737 239.156078 
L 232.893573 239.996329 
L 233.066409 238.577206 
L 233.239244 239.834532 
L 233.41208 238.637278 
L 233.757751 240.184963 
L 233.930587 237.171857 
L 234.103423 239.132373 
L 234.276258 239.532674 
L 234.449094 240.30718 
L 234.794765 239.373084 
L 234.967601 238.214493 
L 235.140437 239.232546 
L 235.313272 238.221835 
L 235.486108 239.317516 
L 235.658944 237.74387 
L 235.831779 239.970931 
L 236.004615 238.223102 
L 236.177451 238.524334 
L 236.350287 236.286878 
L 236.695958 240.031657 
L 236.868794 237.816166 
L 237.214465 239.590971 
L 237.387301 239.194229 
L 237.560136 238.035206 
L 237.732972 240.702774 
L 237.905808 239.1254 
L 238.251479 240.644397 
L 238.424315 237.870331 
L 238.59715 239.885679 
L 238.769986 238.138021 
L 238.942822 240.20896 
L 239.115657 239.580764 
L 239.288493 240.020209 
L 239.807 239.319345 
L 239.979836 237.919538 
L 240.152672 239.828881 
L 240.325507 239.577031 
L 240.498343 239.081033 
L 240.671179 239.18837 
L 240.844014 239.666672 
L 241.01685 239.261659 
L 241.189686 239.331788 
L 241.362521 239.106688 
L 241.535357 239.607091 
L 241.708193 238.198281 
L 241.881028 240.293605 
L 242.053864 237.974314 
L 242.399535 240.386812 
L 242.745207 238.586838 
L 243.090878 239.935876 
L 243.263714 239.30223 
L 243.436549 239.402535 
L 243.609385 240.646725 
L 243.955057 238.387453 
L 244.127892 239.701081 
L 244.300728 238.204325 
L 244.473564 238.016402 
L 244.646399 239.73541 
L 244.819235 239.964437 
L 244.992071 239.692523 
L 245.164906 241.038564 
L 245.337742 239.353977 
L 245.510578 240.651538 
L 245.683413 239.498825 
L 245.856249 240.047424 
L 246.029085 238.834437 
L 246.20192 240.127116 
L 246.374756 240.019698 
L 246.547592 241.924075 
L 246.720427 239.382342 
L 246.893263 239.890988 
L 247.066099 239.341239 
L 247.41177 239.035351 
L 247.584606 239.691951 
L 247.757442 239.903181 
L 247.930277 237.794616 
L 248.448784 240.148796 
L 248.62162 240.158738 
L 248.794456 239.532562 
L 248.967291 239.448428 
L 249.140127 239.748678 
L 249.312963 238.33417 
L 249.485798 238.915417 
L 249.658634 237.32989 
L 249.83147 238.817696 
L 250.004305 238.111496 
L 250.177141 239.258919 
L 250.522812 237.3524 
L 250.695648 240.025192 
L 250.868484 239.73222 
L 251.041319 240.292551 
L 251.214155 236.035726 
L 251.386991 239.690725 
L 251.732662 240.831995 
L 251.905498 240.65011 
L 252.078334 239.244156 
L 252.251169 239.991909 
L 252.424005 240.221165 
L 252.596841 239.158502 
L 252.769676 238.798945 
L 252.942512 241.122403 
L 253.115348 239.404528 
L 253.288183 239.651345 
L 253.461019 240.931465 
L 253.633855 240.10327 
L 253.80669 238.108282 
L 253.979526 237.72624 
L 254.152362 239.230741 
L 254.325197 238.349276 
L 254.498033 240.142048 
L 254.670869 238.814068 
L 254.843705 239.26748 
L 255.189376 237.707139 
L 255.362212 238.553873 
L 255.535047 240.293745 
L 255.707883 239.472566 
L 256.053554 240.701401 
L 256.22639 239.382487 
L 256.399226 239.340649 
L 256.572061 240.532728 
L 256.744897 238.889915 
L 257.090568 240.356158 
L 257.263404 241.236625 
L 257.43624 239.40461 
L 257.609075 240.346685 
L 257.781911 239.717458 
L 257.954747 239.775667 
L 258.127582 239.201973 
L 258.300418 239.536647 
L 258.473254 239.251192 
L 258.64609 239.979574 
L 258.818925 239.734011 
L 258.991761 240.308631 
L 259.164597 240.334374 
L 259.337432 240.091857 
L 259.510268 238.821009 
L 259.683104 240.680339 
L 259.855939 238.853458 
L 260.028775 239.762411 
L 260.201611 239.139007 
L 260.374446 240.380866 
L 260.547282 240.405539 
L 260.720118 239.401468 
L 260.892953 239.210148 
L 261.065789 241.256817 
L 261.41146 240.440757 
L 261.584296 240.353923 
L 261.757132 240.131403 
L 261.929967 240.400276 
L 262.102803 240.20479 
L 262.275639 239.05793 
L 262.448475 239.01427 
L 262.62131 240.961856 
L 262.794146 239.278429 
L 262.966982 239.808944 
L 263.139817 239.633537 
L 263.312653 239.907915 
L 263.485489 239.689035 
L 263.658324 241.387859 
L 263.83116 240.447792 
L 264.003996 240.675431 
L 264.176831 238.985881 
L 264.349667 239.679507 
L 264.522503 239.838025 
L 264.695338 238.651895 
L 264.868174 239.011404 
L 265.04101 238.333711 
L 265.213845 239.986031 
L 265.386681 239.362543 
L 265.559517 239.843854 
L 265.905188 239.057359 
L 266.078024 238.715913 
L 266.25086 239.52119 
L 266.423695 239.084918 
L 266.942202 240.318099 
L 267.115038 241.19417 
L 267.287874 239.676471 
L 267.460709 240.990687 
L 267.633545 238.732478 
L 267.806381 239.136953 
L 267.979216 241.116163 
L 268.152052 240.175762 
L 268.324888 240.567078 
L 268.497723 239.767654 
L 268.670559 240.886871 
L 268.843395 239.597166 
L 269.01623 240.899839 
L 269.189066 238.14736 
L 269.534737 240.444423 
L 269.707573 239.308857 
L 269.880409 240.077755 
L 270.053245 238.631772 
L 270.22608 240.230646 
L 270.398916 240.04902 
L 270.571752 241.082642 
L 270.917423 238.976663 
L 271.090259 239.067831 
L 271.43593 240.251727 
L 271.608766 238.941094 
L 271.954437 241.334425 
L 272.127273 239.53463 
L 272.300108 240.2429 
L 272.472944 236.867924 
L 272.64578 240.254294 
L 272.818615 240.054629 
L 272.991451 239.683016 
L 273.164287 241.046889 
L 273.337123 238.829569 
L 273.509958 238.94668 
L 273.682794 239.541023 
L 273.85563 240.614726 
L 274.201301 240.990627 
L 274.374137 240.357314 
L 274.546972 240.182389 
L 274.719808 239.848203 
L 274.892644 240.597439 
L 275.065479 238.777255 
L 275.411151 240.454676 
L 275.583986 240.095765 
L 275.756822 239.437134 
L 275.929658 239.849123 
L 276.102493 239.929443 
L 276.275329 239.077979 
L 276.448165 241.505575 
L 276.793836 239.234114 
L 276.966672 240.027415 
L 277.139508 240.139406 
L 277.312343 240.628196 
L 277.485179 240.27428 
L 277.658015 240.274009 
L 277.83085 240.135158 
L 278.003686 239.138198 
L 278.176522 239.148834 
L 278.522193 240.816024 
L 278.867864 239.725392 
L 279.0407 239.715801 
L 279.213536 240.001349 
L 279.559207 239.577476 
L 279.732043 241.285633 
L 279.904878 239.900252 
L 280.25055 239.883804 
L 280.423385 240.464435 
L 280.769057 239.594421 
L 280.941893 239.822112 
L 281.287564 240.74362 
L 281.4604 239.093918 
L 281.633235 238.965391 
L 281.806071 241.161795 
L 282.151742 239.208242 
L 282.324578 240.410357 
L 282.497414 239.145206 
L 282.670249 240.281856 
L 282.843085 240.468136 
L 283.015921 239.281075 
L 283.534428 240.718729 
L 283.880099 238.990095 
L 284.052935 240.801144 
L 284.22577 240.172578 
L 284.398606 240.20069 
L 284.571442 240.668894 
L 284.744278 239.618793 
L 284.917113 240.291126 
L 285.089949 240.262826 
L 285.262785 240.541985 
L 285.43562 240.114426 
L 285.608456 240.095631 
L 285.781292 239.767808 
L 285.954127 238.281523 
L 286.126963 240.135173 
L 286.299799 238.959717 
L 286.472634 240.963141 
L 286.64547 240.570748 
L 286.991141 238.621252 
L 287.163977 239.599101 
L 287.509648 240.442232 
L 287.682484 237.996706 
L 287.85532 238.977783 
L 288.028155 241.865896 
L 288.200991 239.292645 
L 288.373827 240.385877 
L 288.546663 240.020596 
L 288.892334 240.589818 
L 289.06517 239.791448 
L 289.238005 240.352005 
L 289.410841 238.738131 
L 289.756512 240.322725 
L 289.929348 240.356209 
L 290.102184 239.145976 
L 290.275019 240.944837 
L 290.793526 239.25512 
L 291.139198 239.285756 
L 291.312033 240.833603 
L 291.484869 241.13707 
L 291.657705 239.123947 
L 292.003376 240.868981 
L 292.176212 240.499729 
L 292.349048 240.818302 
L 292.521883 239.088256 
L 292.694719 240.537469 
L 293.04039 239.159563 
L 293.213226 239.647376 
L 293.386062 237.990145 
L 293.558897 240.87619 
L 293.731733 240.176011 
L 293.904569 240.720607 
L 294.077404 239.533608 
L 294.25024 240.834932 
L 294.423076 240.491509 
L 294.595911 240.858777 
L 294.941583 239.011532 
L 295.114418 240.307576 
L 295.287254 238.585565 
L 295.46009 240.411447 
L 295.632926 240.269533 
L 295.805761 240.4793 
L 295.978597 238.828179 
L 296.151433 240.489273 
L 296.324268 240.106673 
L 296.497104 240.320194 
L 296.66994 238.484444 
L 296.842775 239.024819 
L 297.015611 241.042 
L 297.188447 239.842458 
L 297.361282 240.575248 
L 297.534118 239.17488 
L 297.706954 239.911649 
L 297.879789 239.185315 
L 298.052625 240.080481 
L 298.225461 239.649693 
L 298.398296 239.520756 
L 298.571132 240.026472 
L 298.743968 239.953281 
L 298.916803 239.24878 
L 299.089639 241.098223 
L 299.262475 240.916086 
L 299.435311 240.394982 
L 299.608146 241.058257 
L 299.953818 239.349755 
L 300.126653 240.688191 
L 300.299489 239.099541 
L 300.472325 240.638748 
L 300.64516 239.422133 
L 300.817996 240.353 
L 300.990832 239.811228 
L 301.163667 240.644229 
L 301.336503 239.998286 
L 301.509339 240.044027 
L 301.682174 239.739235 
L 301.85501 239.739992 
L 302.027846 240.53289 
L 302.200681 240.498622 
L 302.373517 239.688767 
L 302.546353 239.953732 
L 302.719188 238.694327 
L 302.892024 240.429784 
L 303.06486 239.922568 
L 303.237696 240.561857 
L 303.410531 240.570989 
L 303.583367 239.719383 
L 303.756203 240.052619 
L 303.929038 241.149913 
L 304.27471 238.966644 
L 304.447545 241.000191 
L 304.620381 240.498205 
L 304.793217 239.541506 
L 304.966052 240.6785 
L 305.138888 239.948871 
L 305.311724 241.301501 
L 305.484559 240.593426 
L 305.657395 240.696172 
L 306.003066 239.472891 
L 306.348738 239.478311 
L 306.521573 240.74469 
L 306.694409 240.676312 
L 306.867245 238.775963 
L 307.212916 239.728465 
L 307.385752 239.854825 
L 307.558588 239.057642 
L 307.731423 239.237778 
L 307.904259 237.444529 
L 308.077095 240.274961 
L 308.24993 240.720466 
L 308.422766 240.204343 
L 308.595602 240.180257 
L 308.941273 239.043376 
L 309.114109 240.398263 
L 309.286944 239.601204 
L 309.632616 239.383681 
L 309.805451 239.017628 
L 309.978287 240.638679 
L 310.151123 239.414434 
L 310.496794 238.560913 
L 310.66963 240.198257 
L 310.842466 240.159185 
L 311.015301 238.173625 
L 311.188137 238.984032 
L 311.360973 240.78847 
L 311.533808 240.106949 
L 311.706644 240.693791 
L 311.87948 239.120614 
L 312.225151 240.686526 
L 312.570822 238.317384 
L 312.743658 235.343056 
L 312.916494 240.653149 
L 313.262165 240.561114 
L 313.435001 239.422722 
L 313.607836 240.702661 
L 313.780672 240.823609 
L 313.953508 238.114369 
L 314.299179 241.283624 
L 314.472015 240.551957 
L 314.644851 240.538976 
L 314.817686 240.847322 
L 314.990522 239.944999 
L 315.163358 239.757558 
L 315.336193 240.941081 
L 315.509029 240.973107 
L 315.681865 239.767139 
L 315.8547 241.429157 
L 316.027536 240.575064 
L 316.200372 240.950503 
L 316.373207 238.040453 
L 316.718879 239.415001 
L 317.06455 238.37081 
L 317.237386 239.288486 
L 317.410221 240.900431 
L 317.583057 240.288551 
L 317.755893 240.276012 
L 317.928729 240.0274 
L 318.101564 239.544772 
L 318.447236 240.83496 
L 318.792907 238.869838 
L 319.138578 241.013332 
L 319.311414 238.833417 
L 319.48425 239.278088 
L 319.657085 238.842102 
L 320.002757 239.556425 
L 320.175592 240.567897 
L 320.348428 238.748185 
L 320.521264 239.770929 
L 320.694099 240.065111 
L 320.866935 240.580421 
L 321.039771 241.719367 
L 321.212606 240.894663 
L 321.558278 238.935461 
L 321.731114 238.725834 
L 321.903949 240.277134 
L 322.076785 240.081549 
L 322.249621 240.139448 
L 322.422456 239.813865 
L 322.595292 239.96254 
L 322.768128 239.513658 
L 322.940963 240.892072 
L 323.113799 239.606101 
L 323.286635 240.83209 
L 323.45947 239.281201 
L 323.805142 239.262821 
L 323.977977 239.111544 
L 324.150813 240.176756 
L 324.323649 239.06443 
L 324.496484 240.052021 
L 324.66932 239.644544 
L 325.014991 239.793972 
L 325.187827 239.37873 
L 325.360663 238.646616 
L 325.533499 239.822915 
L 325.87917 239.42057 
L 326.052006 240.547361 
L 326.224841 240.560684 
L 326.397677 240.927378 
L 326.570513 239.606836 
L 326.743348 240.205497 
L 327.08902 240.262631 
L 327.261855 241.081087 
L 327.434691 241.348313 
L 327.780362 239.44841 
L 328.126034 240.44459 
L 328.298869 238.665758 
L 328.471705 239.962218 
L 328.644541 239.771487 
L 328.817376 240.217674 
L 328.990212 239.673131 
L 329.163048 241.441391 
L 329.335884 240.929577 
L 329.508719 240.790125 
L 329.854391 239.009559 
L 330.372898 240.605748 
L 330.545733 240.397978 
L 330.718569 240.896894 
L 330.891405 240.942108 
L 331.06424 240.367715 
L 331.409912 240.478968 
L 331.582747 239.782592 
L 331.928419 241.245722 
L 332.101254 240.399828 
L 332.27409 241.205761 
L 332.446926 239.998299 
L 332.792597 240.145158 
L 333.138269 239.531882 
L 333.311104 240.735589 
L 333.48394 240.168359 
L 333.656776 240.906669 
L 333.829611 239.181569 
L 334.002447 238.607071 
L 334.175283 238.736145 
L 334.348118 240.316806 
L 334.520954 239.777686 
L 334.69379 239.914055 
L 334.866625 240.874818 
L 335.039461 240.19157 
L 335.212297 240.58871 
L 335.385132 240.391259 
L 335.557968 239.495727 
L 335.730804 239.853898 
L 335.903639 239.331313 
L 336.076475 239.463907 
L 336.249311 240.663553 
L 336.422147 240.118215 
L 336.594982 240.888537 
L 336.767818 239.965184 
L 336.940654 239.930962 
L 337.113489 241.458493 
L 337.459161 239.536383 
L 337.804832 239.945386 
L 337.977668 239.113605 
L 338.323339 240.39316 
L 338.496175 239.341214 
L 338.66901 239.393083 
L 338.841846 240.109959 
L 339.014682 239.823825 
L 339.187517 239.119317 
L 339.360353 240.023848 
L 339.533189 239.782653 
L 339.706024 240.076091 
L 339.87886 240.890926 
L 340.051696 240.854676 
L 340.224532 240.010243 
L 340.397367 239.901734 
L 340.570203 239.484057 
L 340.743039 240.436697 
L 340.915874 239.92329 
L 341.08871 240.033521 
L 341.261546 240.577444 
L 341.434381 238.338577 
L 341.607217 239.250683 
L 341.780053 238.960815 
L 341.952888 241.052064 
L 342.125724 240.104189 
L 342.29856 239.977478 
L 342.471395 238.568367 
L 342.644231 239.038829 
L 342.989902 240.685131 
L 343.162738 239.92126 
L 343.335574 240.759121 
L 343.508409 240.820285 
L 343.854081 239.74863 
L 344.026917 240.237381 
L 344.199752 238.591775 
L 344.372588 240.190858 
L 344.545424 240.447126 
L 344.718259 240.948091 
L 344.891095 241.020194 
L 345.063931 240.80885 
L 345.236766 240.119405 
L 345.582438 241.059415 
L 345.755273 240.513 
L 345.928109 238.805522 
L 346.27378 240.869303 
L 346.446616 240.622974 
L 346.619452 239.270355 
L 346.965123 242.116364 
L 347.137959 239.470613 
L 347.48363 240.216801 
L 347.656466 240.015212 
L 347.829302 239.354001 
L 348.002137 239.850049 
L 348.174973 239.970235 
L 348.347809 239.055711 
L 348.520644 241.578391 
L 348.69348 240.877781 
L 348.866316 239.702324 
L 349.039151 240.619003 
L 349.211987 239.808545 
L 349.384823 239.803122 
L 349.730494 240.978788 
L 349.90333 239.432826 
L 350.076165 240.257799 
L 350.249001 239.912558 
L 350.421837 239.02329 
L 350.594672 240.309766 
L 350.767508 240.173178 
L 350.940344 240.817404 
L 351.113179 240.668316 
L 351.286015 240.832332 
L 351.458851 239.714939 
L 351.804522 240.632375 
L 351.977358 240.215587 
L 352.150194 240.624301 
L 352.323029 239.698589 
L 352.495865 239.482494 
L 352.668701 241.873985 
L 352.841536 240.964543 
L 353.014372 240.693877 
L 353.187208 241.604944 
L 353.360043 238.779022 
L 353.532879 240.886392 
L 353.705715 240.28699 
L 353.87855 241.351216 
L 354.051386 240.420721 
L 354.224222 240.591225 
L 354.397057 239.391268 
L 354.569893 240.989294 
L 354.742729 239.674729 
L 354.915565 239.955864 
L 355.0884 241.24224 
L 355.261236 240.935722 
L 355.606907 240.007644 
L 355.779743 239.68291 
L 355.952579 240.720645 
L 356.125414 239.685914 
L 356.29825 239.615652 
L 356.471086 240.489049 
L 356.643921 239.974429 
L 356.816757 241.316852 
L 356.989593 240.994518 
L 357.162428 241.150378 
L 357.335264 240.279781 
L 357.5081 240.778519 
L 358.026607 239.939531 
L 358.199442 240.992402 
L 358.372278 240.123643 
L 358.545114 240.2742 
L 358.71795 240.077936 
L 358.890785 240.190885 
L 359.063621 239.853497 
L 359.236457 240.231314 
L 359.409292 239.175215 
L 359.582128 241.147678 
L 359.754964 240.803811 
L 359.927799 240.133343 
L 360.100635 240.51783 
L 360.273471 238.391076 
L 360.446306 240.296449 
L 360.791978 240.814029 
L 360.964813 240.038035 
L 361.137649 240.912076 
L 361.310485 240.619672 
L 361.48332 239.325044 
L 361.828992 241.7008 
L 362.001827 238.885369 
L 362.174663 239.512986 
L 362.347499 241.211533 
L 362.520335 238.302164 
L 362.866006 240.895601 
L 363.038842 241.070632 
L 363.211677 240.923136 
L 363.384513 240.987473 
L 363.557349 240.856422 
L 363.730184 240.309784 
L 363.90302 239.019514 
L 364.248691 241.41692 
L 364.421527 240.31594 
L 364.594363 240.478753 
L 364.767198 241.3122 
L 364.940034 240.886126 
L 365.285705 240.681007 
L 365.631377 241.098526 
L 365.804212 240.733457 
L 366.149884 239.574405 
L 366.32272 240.45043 
L 366.495555 240.685578 
L 366.668391 241.249963 
L 366.841227 241.014966 
L 367.014062 240.435325 
L 367.186898 240.732758 
L 367.359734 240.306357 
L 367.532569 240.874511 
L 367.705405 240.763681 
L 367.878241 240.888796 
L 368.051076 239.849157 
L 368.223912 241.039037 
L 368.569583 240.953694 
L 368.742419 238.366892 
L 368.915255 240.336912 
L 369.08809 240.229964 
L 369.260926 241.469653 
L 369.606597 239.45202 
L 369.779433 241.473185 
L 369.952269 240.413594 
L 370.29794 241.809056 
L 370.470776 241.204112 
L 370.643612 241.448433 
L 370.989283 239.330596 
L 371.334954 241.060977 
L 371.50779 240.398193 
L 371.680626 241.317813 
L 371.853461 240.36866 
L 372.026297 240.408442 
L 372.199133 240.26901 
L 372.544804 241.446234 
L 372.890475 239.775429 
L 373.063311 241.238232 
L 373.236147 241.264936 
L 373.408982 240.162795 
L 373.581818 240.092499 
L 373.581818 240.092499 
" style="fill:none;stroke:#1f77b4;stroke-linecap:square;stroke-width:1.5;"/>
   </g>
   <g id="patch_3">
    <path d="M 54 252 
L 54 34.56 
" style="fill:none;stroke:#000000;stroke-linecap:square;stroke-linejoin:miter;stroke-width:0.8;"/>
   </g>
   <g id="patch_4">
    <path d="M 388.8 252 
L 388.8 34.56 
" style="fill:none;stroke:#000000;stroke-linecap:square;stroke-linejoin:miter;stroke-width:0.8;"/>
   </g>
   <g id="patch_5">
    <path d="M 54 252 
L 388.8 252 
" style="fill:none;stroke:#000000;stroke-linecap:square;stroke-linejoin:miter;stroke-width:0.8;"/>
   </g>
   <g id="patch_6">
    <path d="M 54 34.56 
L 388.8 34.56 
" style="fill:none;stroke:#000000;stroke-linecap:square;stroke-linejoin:miter;stroke-width:0.8;"/>
   </g>
  </g>
 </g>
 <defs>
  <clipPath id="pb77d9a97fd">
   <rect height="217.44" width="334.8" x="54" y="34.56"/>
  </clipPath>
 </defs>
</svg>
