<?xml version="1.0" encoding="utf-8" standalone="no"?>
<!DOCTYPE svg PUBLIC "-//W3C//DTD SVG 1.1//EN"
  "http://www.w3.org/Graphics/SVG/1.1/DTD/svg11.dtd">
<!-- Created with matplotlib (https://matplotlib.org/) -->
<svg height="288pt" version="1.1" viewBox="0 0 432 288" width="432pt" xmlns="http://www.w3.org/2000/svg" xmlns:xlink="http://www.w3.org/1999/xlink">
 <defs>
  <style type="text/css">
*{stroke-linecap:butt;stroke-linejoin:round;}
  </style>
 </defs>
 <g id="figure_1">
  <g id="patch_1">
   <path d="M 0 288 
L 432 288 
L 432 0 
L 0 0 
z
" style="fill:#ffffff;"/>
  </g>
  <g id="axes_1">
   <g id="patch_2">
    <path d="M 54 252 
L 388.8 252 
L 388.8 34.56 
L 54 34.56 
z
" style="fill:#ffffff;"/>
   </g>
   <g id="matplotlib.axis_1">
    <g id="xtick_1">
     <g id="line2d_1">
      <defs>
       <path d="M 0 0 
L 0 3.5 
" id="m362f96e700" style="stroke:#000000;stroke-width:0.8;"/>
      </defs>
      <g>
       <use style="stroke:#000000;stroke-width:0.8;" x="69.218182" xlink:href="#m362f96e700" y="252"/>
      </g>
     </g>
     <g id="text_1">
      <!-- 0 -->
      <defs>
       <path d="M 31.78125 66.40625 
Q 24.171875 66.40625 20.328125 58.90625 
Q 16.5 51.421875 16.5 36.375 
Q 16.5 21.390625 20.328125 13.890625 
Q 24.171875 6.390625 31.78125 6.390625 
Q 39.453125 6.390625 43.28125 13.890625 
Q 47.125 21.390625 47.125 36.375 
Q 47.125 51.421875 43.28125 58.90625 
Q 39.453125 66.40625 31.78125 66.40625 
z
M 31.78125 74.21875 
Q 44.046875 74.21875 50.515625 64.515625 
Q 56.984375 54.828125 56.984375 36.375 
Q 56.984375 17.96875 50.515625 8.265625 
Q 44.046875 -1.421875 31.78125 -1.421875 
Q 19.53125 -1.421875 13.0625 8.265625 
Q 6.59375 17.96875 6.59375 36.375 
Q 6.59375 54.828125 13.0625 64.515625 
Q 19.53125 74.21875 31.78125 74.21875 
z
" id="DejaVuSans-48"/>
      </defs>
      <g transform="translate(66.036932 266.598437)scale(0.1 -0.1)">
       <use xlink:href="#DejaVuSans-48"/>
      </g>
     </g>
    </g>
    <g id="xtick_2">
     <g id="line2d_2">
      <g>
       <use style="stroke:#000000;stroke-width:0.8;" x="112.898382" xlink:href="#m362f96e700" y="252"/>
      </g>
     </g>
     <g id="text_2">
      <!-- 250 -->
      <defs>
       <path d="M 19.1875 8.296875 
L 53.609375 8.296875 
L 53.609375 0 
L 7.328125 0 
L 7.328125 8.296875 
Q 12.9375 14.109375 22.625 23.890625 
Q 32.328125 33.6875 34.8125 36.53125 
Q 39.546875 41.84375 41.421875 45.53125 
Q 43.3125 49.21875 43.3125 52.78125 
Q 43.3125 58.59375 39.234375 62.25 
Q 35.15625 65.921875 28.609375 65.921875 
Q 23.96875 65.921875 18.8125 64.3125 
Q 13.671875 62.703125 7.8125 59.421875 
L 7.8125 69.390625 
Q 13.765625 71.78125 18.9375 73 
Q 24.125 74.21875 28.421875 74.21875 
Q 39.75 74.21875 46.484375 68.546875 
Q 53.21875 62.890625 53.21875 53.421875 
Q 53.21875 48.921875 51.53125 44.890625 
Q 49.859375 40.875 45.40625 35.40625 
Q 44.1875 33.984375 37.640625 27.21875 
Q 31.109375 20.453125 19.1875 8.296875 
z
" id="DejaVuSans-50"/>
       <path d="M 10.796875 72.90625 
L 49.515625 72.90625 
L 49.515625 64.59375 
L 19.828125 64.59375 
L 19.828125 46.734375 
Q 21.96875 47.46875 24.109375 47.828125 
Q 26.265625 48.1875 28.421875 48.1875 
Q 40.625 48.1875 47.75 41.5 
Q 54.890625 34.8125 54.890625 23.390625 
Q 54.890625 11.625 47.5625 5.09375 
Q 40.234375 -1.421875 26.90625 -1.421875 
Q 22.3125 -1.421875 17.546875 -0.640625 
Q 12.796875 0.140625 7.71875 1.703125 
L 7.71875 11.625 
Q 12.109375 9.234375 16.796875 8.0625 
Q 21.484375 6.890625 26.703125 6.890625 
Q 35.15625 6.890625 40.078125 11.328125 
Q 45.015625 15.765625 45.015625 23.390625 
Q 45.015625 31 40.078125 35.4375 
Q 35.15625 39.890625 26.703125 39.890625 
Q 22.75 39.890625 18.8125 39.015625 
Q 14.890625 38.140625 10.796875 36.28125 
z
" id="DejaVuSans-53"/>
      </defs>
      <g transform="translate(103.354632 266.598437)scale(0.1 -0.1)">
       <use xlink:href="#DejaVuSans-50"/>
       <use x="63.623047" xlink:href="#DejaVuSans-53"/>
       <use x="127.246094" xlink:href="#DejaVuSans-48"/>
      </g>
     </g>
    </g>
    <g id="xtick_3">
     <g id="line2d_3">
      <g>
       <use style="stroke:#000000;stroke-width:0.8;" x="156.578583" xlink:href="#m362f96e700" y="252"/>
      </g>
     </g>
     <g id="text_3">
      <!-- 500 -->
      <g transform="translate(147.034833 266.598437)scale(0.1 -0.1)">
       <use xlink:href="#DejaVuSans-53"/>
       <use x="63.623047" xlink:href="#DejaVuSans-48"/>
       <use x="127.246094" xlink:href="#DejaVuSans-48"/>
      </g>
     </g>
    </g>
    <g id="xtick_4">
     <g id="line2d_4">
      <g>
       <use style="stroke:#000000;stroke-width:0.8;" x="200.258783" xlink:href="#m362f96e700" y="252"/>
      </g>
     </g>
     <g id="text_4">
      <!-- 750 -->
      <defs>
       <path d="M 8.203125 72.90625 
L 55.078125 72.90625 
L 55.078125 68.703125 
L 28.609375 0 
L 18.3125 0 
L 43.21875 64.59375 
L 8.203125 64.59375 
z
" id="DejaVuSans-55"/>
      </defs>
      <g transform="translate(190.715033 266.598437)scale(0.1 -0.1)">
       <use xlink:href="#DejaVuSans-55"/>
       <use x="63.623047" xlink:href="#DejaVuSans-53"/>
       <use x="127.246094" xlink:href="#DejaVuSans-48"/>
      </g>
     </g>
    </g>
    <g id="xtick_5">
     <g id="line2d_5">
      <g>
       <use style="stroke:#000000;stroke-width:0.8;" x="243.938983" xlink:href="#m362f96e700" y="252"/>
      </g>
     </g>
     <g id="text_5">
      <!-- 1000 -->
      <defs>
       <path d="M 12.40625 8.296875 
L 28.515625 8.296875 
L 28.515625 63.921875 
L 10.984375 60.40625 
L 10.984375 69.390625 
L 28.421875 72.90625 
L 38.28125 72.90625 
L 38.28125 8.296875 
L 54.390625 8.296875 
L 54.390625 0 
L 12.40625 0 
z
" id="DejaVuSans-49"/>
      </defs>
      <g transform="translate(231.213983 266.598437)scale(0.1 -0.1)">
       <use xlink:href="#DejaVuSans-49"/>
       <use x="63.623047" xlink:href="#DejaVuSans-48"/>
       <use x="127.246094" xlink:href="#DejaVuSans-48"/>
       <use x="190.869141" xlink:href="#DejaVuSans-48"/>
      </g>
     </g>
    </g>
    <g id="xtick_6">
     <g id="line2d_6">
      <g>
       <use style="stroke:#000000;stroke-width:0.8;" x="287.619184" xlink:href="#m362f96e700" y="252"/>
      </g>
     </g>
     <g id="text_6">
      <!-- 1250 -->
      <g transform="translate(274.894184 266.598437)scale(0.1 -0.1)">
       <use xlink:href="#DejaVuSans-49"/>
       <use x="63.623047" xlink:href="#DejaVuSans-50"/>
       <use x="127.246094" xlink:href="#DejaVuSans-53"/>
       <use x="190.869141" xlink:href="#DejaVuSans-48"/>
      </g>
     </g>
    </g>
    <g id="xtick_7">
     <g id="line2d_7">
      <g>
       <use style="stroke:#000000;stroke-width:0.8;" x="331.299384" xlink:href="#m362f96e700" y="252"/>
      </g>
     </g>
     <g id="text_7">
      <!-- 1500 -->
      <g transform="translate(318.574384 266.598437)scale(0.1 -0.1)">
       <use xlink:href="#DejaVuSans-49"/>
       <use x="63.623047" xlink:href="#DejaVuSans-53"/>
       <use x="127.246094" xlink:href="#DejaVuSans-48"/>
       <use x="190.869141" xlink:href="#DejaVuSans-48"/>
      </g>
     </g>
    </g>
    <g id="xtick_8">
     <g id="line2d_8">
      <g>
       <use style="stroke:#000000;stroke-width:0.8;" x="374.979585" xlink:href="#m362f96e700" y="252"/>
      </g>
     </g>
     <g id="text_8">
      <!-- 1750 -->
      <g transform="translate(362.254585 266.598437)scale(0.1 -0.1)">
       <use xlink:href="#DejaVuSans-49"/>
       <use x="63.623047" xlink:href="#DejaVuSans-55"/>
       <use x="127.246094" xlink:href="#DejaVuSans-53"/>
       <use x="190.869141" xlink:href="#DejaVuSans-48"/>
      </g>
     </g>
    </g>
   </g>
   <g id="matplotlib.axis_2">
    <g id="ytick_1">
     <g id="line2d_9">
      <defs>
       <path d="M 0 0 
L -3.5 0 
" id="m875b2fb977" style="stroke:#000000;stroke-width:0.8;"/>
      </defs>
      <g>
       <use style="stroke:#000000;stroke-width:0.8;" x="54" xlink:href="#m875b2fb977" y="247.116885"/>
      </g>
     </g>
     <g id="text_9">
      <!-- 0 -->
      <g transform="translate(40.6375 250.916104)scale(0.1 -0.1)">
       <use xlink:href="#DejaVuSans-48"/>
      </g>
     </g>
    </g>
    <g id="ytick_2">
     <g id="line2d_10">
      <g>
       <use style="stroke:#000000;stroke-width:0.8;" x="54" xlink:href="#m875b2fb977" y="215.35763"/>
      </g>
     </g>
     <g id="text_10">
      <!-- 1 -->
      <g transform="translate(40.6375 219.156848)scale(0.1 -0.1)">
       <use xlink:href="#DejaVuSans-49"/>
      </g>
     </g>
    </g>
    <g id="ytick_3">
     <g id="line2d_11">
      <g>
       <use style="stroke:#000000;stroke-width:0.8;" x="54" xlink:href="#m875b2fb977" y="183.598374"/>
      </g>
     </g>
     <g id="text_11">
      <!-- 2 -->
      <g transform="translate(40.6375 187.397592)scale(0.1 -0.1)">
       <use xlink:href="#DejaVuSans-50"/>
      </g>
     </g>
    </g>
    <g id="ytick_4">
     <g id="line2d_12">
      <g>
       <use style="stroke:#000000;stroke-width:0.8;" x="54" xlink:href="#m875b2fb977" y="151.839118"/>
      </g>
     </g>
     <g id="text_12">
      <!-- 3 -->
      <defs>
       <path d="M 40.578125 39.3125 
Q 47.65625 37.796875 51.625 33 
Q 55.609375 28.21875 55.609375 21.1875 
Q 55.609375 10.40625 48.1875 4.484375 
Q 40.765625 -1.421875 27.09375 -1.421875 
Q 22.515625 -1.421875 17.65625 -0.515625 
Q 12.796875 0.390625 7.625 2.203125 
L 7.625 11.71875 
Q 11.71875 9.328125 16.59375 8.109375 
Q 21.484375 6.890625 26.8125 6.890625 
Q 36.078125 6.890625 40.9375 10.546875 
Q 45.796875 14.203125 45.796875 21.1875 
Q 45.796875 27.640625 41.28125 31.265625 
Q 36.765625 34.90625 28.71875 34.90625 
L 20.21875 34.90625 
L 20.21875 43.015625 
L 29.109375 43.015625 
Q 36.375 43.015625 40.234375 45.921875 
Q 44.09375 48.828125 44.09375 54.296875 
Q 44.09375 59.90625 40.109375 62.90625 
Q 36.140625 65.921875 28.71875 65.921875 
Q 24.65625 65.921875 20.015625 65.03125 
Q 15.375 64.15625 9.8125 62.3125 
L 9.8125 71.09375 
Q 15.4375 72.65625 20.34375 73.4375 
Q 25.25 74.21875 29.59375 74.21875 
Q 40.828125 74.21875 47.359375 69.109375 
Q 53.90625 64.015625 53.90625 55.328125 
Q 53.90625 49.265625 50.4375 45.09375 
Q 46.96875 40.921875 40.578125 39.3125 
z
" id="DejaVuSans-51"/>
      </defs>
      <g transform="translate(40.6375 155.638337)scale(0.1 -0.1)">
       <use xlink:href="#DejaVuSans-51"/>
      </g>
     </g>
    </g>
    <g id="ytick_5">
     <g id="line2d_13">
      <g>
       <use style="stroke:#000000;stroke-width:0.8;" x="54" xlink:href="#m875b2fb977" y="120.079862"/>
      </g>
     </g>
     <g id="text_13">
      <!-- 4 -->
      <defs>
       <path d="M 37.796875 64.3125 
L 12.890625 25.390625 
L 37.796875 25.390625 
z
M 35.203125 72.90625 
L 47.609375 72.90625 
L 47.609375 25.390625 
L 58.015625 25.390625 
L 58.015625 17.1875 
L 47.609375 17.1875 
L 47.609375 0 
L 37.796875 0 
L 37.796875 17.1875 
L 4.890625 17.1875 
L 4.890625 26.703125 
z
" id="DejaVuSans-52"/>
      </defs>
      <g transform="translate(40.6375 123.879081)scale(0.1 -0.1)">
       <use xlink:href="#DejaVuSans-52"/>
      </g>
     </g>
    </g>
    <g id="ytick_6">
     <g id="line2d_14">
      <g>
       <use style="stroke:#000000;stroke-width:0.8;" x="54" xlink:href="#m875b2fb977" y="88.320606"/>
      </g>
     </g>
     <g id="text_14">
      <!-- 5 -->
      <g transform="translate(40.6375 92.119825)scale(0.1 -0.1)">
       <use xlink:href="#DejaVuSans-53"/>
      </g>
     </g>
    </g>
    <g id="ytick_7">
     <g id="line2d_15">
      <g>
       <use style="stroke:#000000;stroke-width:0.8;" x="54" xlink:href="#m875b2fb977" y="56.56135"/>
      </g>
     </g>
     <g id="text_15">
      <!-- 6 -->
      <defs>
       <path d="M 33.015625 40.375 
Q 26.375 40.375 22.484375 35.828125 
Q 18.609375 31.296875 18.609375 23.390625 
Q 18.609375 15.53125 22.484375 10.953125 
Q 26.375 6.390625 33.015625 6.390625 
Q 39.65625 6.390625 43.53125 10.953125 
Q 47.40625 15.53125 47.40625 23.390625 
Q 47.40625 31.296875 43.53125 35.828125 
Q 39.65625 40.375 33.015625 40.375 
z
M 52.59375 71.296875 
L 52.59375 62.3125 
Q 48.875 64.0625 45.09375 64.984375 
Q 41.3125 65.921875 37.59375 65.921875 
Q 27.828125 65.921875 22.671875 59.328125 
Q 17.53125 52.734375 16.796875 39.40625 
Q 19.671875 43.65625 24.015625 45.921875 
Q 28.375 48.1875 33.59375 48.1875 
Q 44.578125 48.1875 50.953125 41.515625 
Q 57.328125 34.859375 57.328125 23.390625 
Q 57.328125 12.15625 50.6875 5.359375 
Q 44.046875 -1.421875 33.015625 -1.421875 
Q 20.359375 -1.421875 13.671875 8.265625 
Q 6.984375 17.96875 6.984375 36.375 
Q 6.984375 53.65625 15.1875 63.9375 
Q 23.390625 74.21875 37.203125 74.21875 
Q 40.921875 74.21875 44.703125 73.484375 
Q 48.484375 72.75 52.59375 71.296875 
z
" id="DejaVuSans-54"/>
      </defs>
      <g transform="translate(40.6375 60.360569)scale(0.1 -0.1)">
       <use xlink:href="#DejaVuSans-54"/>
      </g>
     </g>
    </g>
   </g>
   <g id="line2d_16">
    <path clip-path="url(#pc918008e72)" d="M 69.218182 44.443636 
L 69.742344 50.25545 
L 69.917065 55.431426 
L 70.091786 55.451129 
L 70.266507 55.766115 
L 70.441227 55.251261 
L 70.615948 53.829414 
L 71.314831 64.032798 
L 71.489552 64.347075 
L 71.664273 64.269754 
L 71.838994 66.754177 
L 72.013715 65.450214 
L 72.188435 65.91561 
L 72.363156 65.900754 
L 72.537877 66.928781 
L 73.062039 74.572718 
L 73.23676 74.521596 
L 73.411481 73.687451 
L 73.760923 79.951016 
L 73.935643 80.016255 
L 74.110364 83.377782 
L 74.634527 86.178778 
L 74.809247 88.81396 
L 74.983968 86.494364 
L 75.33341 92.765169 
L 75.508131 94.677385 
L 75.682851 93.944105 
L 76.032293 99.071489 
L 76.207014 98.267766 
L 76.381735 98.179628 
L 76.556455 95.219282 
L 76.731176 94.928572 
L 76.905897 94.419137 
L 77.255339 89.679865 
L 77.60478 93.02386 
L 77.779501 89.377376 
L 77.954222 88.15804 
L 78.128943 88.450896 
L 78.303664 90.032679 
L 78.478384 93.928132 
L 78.653105 92.688098 
L 78.827826 88.229929 
L 79.002547 87.632777 
L 79.177268 88.716271 
L 79.526709 87.537667 
L 79.70143 87.202867 
L 79.876151 88.70707 
L 80.050872 92.807476 
L 80.225592 93.562652 
L 80.400313 90.950109 
L 80.575034 92.57982 
L 80.749755 92.940787 
L 80.924476 95.077068 
L 81.099196 91.580688 
L 81.448638 96.212079 
L 81.623359 95.732691 
L 81.79808 94.556924 
L 81.9728 96.62035 
L 82.147521 95.803495 
L 82.496963 101.988434 
L 82.671684 101.080379 
L 82.846404 101.573415 
L 83.021125 101.218089 
L 83.195846 103.22077 
L 83.370567 103.922526 
L 83.545288 102.522245 
L 83.720008 102.226928 
L 83.894729 106.931644 
L 84.06945 105.04592 
L 84.244171 106.763697 
L 84.418892 104.530905 
L 84.768333 107.575249 
L 84.943054 104.834109 
L 85.117775 105.915692 
L 85.641937 101.473171 
L 85.816658 102.303286 
L 85.991379 102.470258 
L 86.1661 104.669215 
L 86.690262 100.182822 
L 87.039704 98.830324 
L 87.214424 101.260513 
L 87.389145 100.133502 
L 87.563866 101.869484 
L 87.913308 99.383682 
L 88.088028 101.017202 
L 88.262749 99.047097 
L 88.43747 102.33656 
L 88.612191 102.072841 
L 88.786912 100.760195 
L 88.961632 100.366875 
L 89.136353 102.389086 
L 89.311074 101.807988 
L 89.485795 100.403822 
L 89.660516 101.576652 
L 90.009957 104.360854 
L 90.184678 105.24294 
L 90.359399 105.176262 
L 90.53412 106.658147 
L 90.70884 102.054313 
L 90.883561 102.14332 
L 91.058282 100.873177 
L 91.233003 103.117765 
L 91.407724 102.896648 
L 91.757165 106.439659 
L 91.931886 106.197397 
L 92.106607 105.5998 
L 92.456048 111.492868 
L 92.630769 110.934307 
L 92.980211 113.295858 
L 93.154932 112.196023 
L 93.329652 109.664888 
L 93.504373 112.70192 
L 93.853815 109.229029 
L 94.028536 109.082019 
L 94.203256 112.892678 
L 94.377977 114.068715 
L 94.552698 118.180959 
L 94.727419 118.311292 
L 94.90214 120.78835 
L 95.07686 119.226551 
L 95.251581 120.29374 
L 95.426302 119.453157 
L 95.601023 119.739772 
L 95.775744 117.924382 
L 95.950464 117.451616 
L 96.125185 115.635142 
L 96.299906 115.454024 
L 96.474627 112.242942 
L 96.824068 115.653725 
L 96.998789 113.682484 
L 97.17351 116.459687 
L 97.697672 114.032322 
L 97.872393 114.682995 
L 98.047114 114.278457 
L 98.221835 114.588222 
L 98.396556 113.042243 
L 98.571276 114.603185 
L 98.745997 114.515791 
L 99.095439 116.885967 
L 99.27016 117.060748 
L 99.969043 125.903475 
L 100.318485 121.42757 
L 100.493205 123.004916 
L 100.667926 120.910914 
L 101.192089 127.698697 
L 101.716251 123.886336 
L 102.065693 127.394522 
L 102.240413 127.962257 
L 102.415134 127.445961 
L 102.589855 128.84137 
L 102.764576 131.431692 
L 102.939297 128.472431 
L 103.114017 127.615126 
L 103.288738 127.747935 
L 103.463459 127.311273 
L 103.63818 128.465901 
L 103.812901 131.5917 
L 103.987621 131.264424 
L 104.162342 131.451016 
L 104.337063 130.839681 
L 104.511784 128.504064 
L 104.686505 128.078413 
L 104.861225 130.391868 
L 105.035946 130.577221 
L 105.210667 131.508156 
L 105.560109 129.001873 
L 105.734829 128.586026 
L 105.90955 128.666926 
L 106.084271 127.361696 
L 106.258992 128.525127 
L 106.608433 132.83362 
L 106.783154 131.386609 
L 106.957875 133.402168 
L 107.132596 133.72661 
L 107.307317 133.709138 
L 107.482037 132.70237 
L 107.831479 138.036928 
L 108.0062 139.573159 
L 108.355641 139.818931 
L 108.530362 140.044686 
L 108.879804 142.152194 
L 109.054525 141.478711 
L 109.229245 143.184957 
L 109.403966 142.945993 
L 109.578687 144.412901 
L 109.753408 142.519911 
L 109.928129 143.253844 
L 110.102849 142.764923 
L 110.452291 143.540059 
L 110.801733 142.810517 
L 110.976453 145.955629 
L 111.151174 146.329575 
L 111.325895 145.553751 
L 111.500616 146.574249 
L 111.850057 147.024439 
L 112.024778 150.789052 
L 112.199499 151.273856 
L 112.37422 151.416219 
L 112.548941 154.060859 
L 112.723661 153.567115 
L 112.898382 155.605514 
L 113.073103 155.472576 
L 113.247824 157.286156 
L 113.597265 158.69199 
L 113.771986 158.073087 
L 113.946707 158.057149 
L 114.121428 158.413629 
L 114.296149 160.797055 
L 114.470869 159.918773 
L 114.64559 159.622491 
L 114.820311 160.879447 
L 115.169753 159.926274 
L 115.344473 160.83558 
L 115.693915 158.671189 
L 115.868636 159.091255 
L 116.043357 157.351656 
L 116.218077 157.755154 
L 116.392798 157.369792 
L 116.567519 157.653617 
L 116.74224 157.57972 
L 116.916961 157.828192 
L 117.091681 157.112018 
L 117.266402 157.661688 
L 117.441123 157.69631 
L 118.314727 164.27171 
L 118.489448 164.786927 
L 118.838889 167.650308 
L 119.01361 168.189288 
L 119.537773 171.69526 
L 119.712493 171.932805 
L 119.887214 172.47331 
L 120.061935 171.70938 
L 120.236656 172.141497 
L 120.411377 171.173542 
L 120.586097 170.925719 
L 120.760818 172.216382 
L 121.11026 170.8152 
L 121.284981 172.048041 
L 121.459701 169.674341 
L 121.634422 169.118338 
L 121.809143 167.986436 
L 121.983864 168.854399 
L 122.158585 168.764116 
L 122.333306 168.144282 
L 122.508026 168.775487 
L 122.682747 168.788433 
L 123.032189 170.751383 
L 123.20691 170.133035 
L 123.38163 170.276068 
L 123.731072 174.631139 
L 124.080514 176.857227 
L 124.604676 180.058116 
L 124.779397 179.020326 
L 124.954118 182.707749 
L 125.47828 185.483036 
L 125.653001 186.293552 
L 125.827722 185.474442 
L 126.177163 186.133075 
L 126.351884 184.489597 
L 126.526605 184.500922 
L 126.876046 188.099274 
L 127.225488 185.746201 
L 127.400209 185.182275 
L 127.57493 185.604479 
L 127.74965 185.399873 
L 127.924371 186.827496 
L 128.099092 186.76346 
L 128.273813 186.957854 
L 128.623254 186.791965 
L 128.797975 187.741857 
L 128.972696 187.67518 
L 129.147417 188.260362 
L 129.322138 189.971112 
L 129.496858 189.902277 
L 129.8463 191.851333 
L 130.021021 191.330579 
L 130.195742 191.4295 
L 130.370462 192.159236 
L 130.545183 193.821329 
L 130.719904 193.351657 
L 131.768229 200.090415 
L 132.11767 200.936099 
L 132.292391 199.711473 
L 132.641833 200.39282 
L 132.991274 198.983424 
L 133.165995 199.082947 
L 133.340716 199.59484 
L 133.515437 199.621751 
L 133.864878 199.056069 
L 134.039599 199.38545 
L 134.21432 200.229827 
L 134.389041 199.369955 
L 134.563762 200.303284 
L 134.913203 199.269485 
L 135.087924 198.522453 
L 135.262645 199.421052 
L 135.612086 198.631064 
L 135.786807 199.711205 
L 135.961528 199.057038 
L 136.136249 199.353287 
L 136.48569 201.653012 
L 136.835132 202.484229 
L 137.184574 205.107635 
L 137.359294 204.796475 
L 137.534015 205.080063 
L 138.058178 207.643834 
L 138.407619 208.525177 
L 138.58234 209.848244 
L 138.757061 209.568818 
L 139.106502 210.787647 
L 139.281223 210.656844 
L 139.455944 211.540088 
L 139.805386 210.880207 
L 139.980106 211.012123 
L 140.329548 212.698375 
L 140.504269 212.4313 
L 140.67899 212.520954 
L 140.85371 213.230938 
L 141.028431 213.17797 
L 141.203152 212.961762 
L 141.377873 213.767634 
L 141.552594 213.484409 
L 141.902035 214.292935 
L 142.251477 214.235377 
L 142.426198 213.849941 
L 142.775639 215.261576 
L 142.95036 214.272427 
L 143.125081 215.207935 
L 143.474522 215.946364 
L 143.649243 215.450065 
L 143.823964 215.352851 
L 143.998685 215.444634 
L 144.173406 215.987301 
L 144.348127 214.709096 
L 144.522847 214.301922 
L 144.697568 214.595974 
L 144.872289 214.432938 
L 145.396451 213.299901 
L 145.571172 213.465182 
L 145.745893 211.879161 
L 145.920614 212.002564 
L 146.095335 211.882999 
L 147.143659 214.810419 
L 147.31838 214.262933 
L 147.667822 214.500296 
L 147.842543 213.838813 
L 148.017263 214.096534 
L 148.191984 213.783796 
L 148.366705 214.22022 
L 148.716147 215.998963 
L 149.065588 215.561195 
L 149.41503 218.26102 
L 149.589751 218.09613 
L 149.764471 218.237762 
L 149.939192 218.99271 
L 150.288634 215.900295 
L 150.638075 214.237583 
L 150.812796 214.490001 
L 151.162238 213.177547 
L 151.336959 214.66556 
L 151.511679 213.531855 
L 151.6864 213.428555 
L 151.861121 213.003301 
L 152.035842 213.217316 
L 152.210563 213.148908 
L 152.385283 212.105229 
L 152.560004 212.278886 
L 152.734725 211.87142 
L 152.909446 210.942998 
L 153.084167 210.931716 
L 153.433608 210.311144 
L 153.608329 211.981376 
L 153.78305 212.292531 
L 154.132491 214.073453 
L 154.307212 213.956653 
L 154.481933 214.097064 
L 154.656654 213.342095 
L 154.831375 213.298806 
L 155.180816 212.970581 
L 155.355537 213.231635 
L 155.530258 212.824818 
L 155.704979 212.000955 
L 155.879699 212.684494 
L 156.05442 212.276489 
L 156.578583 213.199864 
L 156.753303 212.777336 
L 156.928024 213.267308 
L 157.102745 212.597291 
L 157.277466 212.902243 
L 157.452187 212.595489 
L 157.626907 212.759352 
L 157.801628 212.732845 
L 157.976349 213.529409 
L 158.15107 215.090599 
L 158.325791 214.279234 
L 158.500511 215.77798 
L 158.675232 216.249592 
L 158.849953 216.134485 
L 159.024674 215.613246 
L 159.548836 216.901301 
L 159.723557 216.11049 
L 159.898278 216.738589 
L 160.072999 216.50135 
L 160.42244 217.288914 
L 160.597161 218.334384 
L 160.771882 218.469815 
L 160.946603 218.941549 
L 161.121323 217.530284 
L 161.296044 218.070673 
L 161.645486 216.800657 
L 161.820207 217.666336 
L 161.994927 217.467778 
L 162.169648 217.647376 
L 162.344369 216.215937 
L 162.693811 216.986224 
L 163.043252 216.35319 
L 163.217973 216.40531 
L 163.392694 216.618571 
L 163.567415 217.09444 
L 163.742135 217.181114 
L 164.091577 212.799278 
L 164.266298 212.488471 
L 164.441019 210.582296 
L 164.615739 211.969058 
L 164.79046 212.073577 
L 164.965181 212.637338 
L 165.314623 212.624681 
L 165.489343 212.059416 
L 165.664064 210.443434 
L 165.838785 211.933314 
L 166.188227 210.650923 
L 166.362948 210.370486 
L 166.712389 211.413772 
L 167.061831 211.439391 
L 167.236552 211.149755 
L 167.585993 214.382039 
L 167.760714 214.142492 
L 167.935435 215.459625 
L 168.110156 214.504791 
L 168.459597 210.924568 
L 168.634318 210.880341 
L 168.809039 211.228504 
L 169.15848 213.55482 
L 169.507922 214.162568 
L 169.682643 214.953178 
L 169.857364 216.349395 
L 170.032084 215.524237 
L 170.206805 216.180913 
L 170.381526 215.679591 
L 170.556247 214.360834 
L 170.730968 214.693994 
L 170.905688 215.520577 
L 171.080409 215.34246 
L 171.429851 215.841856 
L 171.604572 217.130859 
L 171.954013 220.292176 
L 172.303455 221.867023 
L 172.478176 221.851812 
L 172.652896 222.209989 
L 172.827617 221.869111 
L 173.002338 222.446185 
L 173.35178 221.888858 
L 173.5265 222.829464 
L 173.701221 222.981868 
L 173.875942 221.967454 
L 174.050663 223.52401 
L 174.225384 223.531767 
L 174.400104 222.670567 
L 174.574825 223.020492 
L 174.924267 224.651539 
L 175.448429 224.125322 
L 175.797871 222.123404 
L 175.972592 222.321478 
L 176.147312 222.330566 
L 176.671475 222.944205 
L 176.846196 222.219895 
L 177.020916 222.516769 
L 177.195637 222.283155 
L 177.370358 223.208636 
L 177.545079 222.348314 
L 177.7198 222.247463 
L 178.069241 223.670821 
L 178.418683 223.361634 
L 178.942845 224.315358 
L 179.117566 225.533294 
L 179.292287 225.826131 
L 179.467008 225.631053 
L 179.641728 225.776202 
L 179.99117 226.516458 
L 180.165891 226.499441 
L 180.690053 227.115464 
L 181.214216 229.295739 
L 181.388936 229.055896 
L 181.563657 228.493422 
L 182.08782 228.981918 
L 182.26254 227.519619 
L 182.611982 227.680649 
L 182.786703 228.366531 
L 182.961424 228.260989 
L 183.310865 227.63334 
L 183.485586 227.754969 
L 183.660307 228.178929 
L 183.835028 229.015173 
L 184.533911 228.437194 
L 184.708632 228.891114 
L 184.883352 228.98666 
L 185.058073 229.565866 
L 185.407515 229.72232 
L 185.582236 229.71582 
L 185.756956 231.847084 
L 186.281119 232.380243 
L 186.45584 232.915322 
L 186.63056 234.031134 
L 186.805281 234.046382 
L 186.980002 234.409148 
L 187.329444 234.457586 
L 187.678885 234.833499 
L 188.203048 234.982871 
L 188.377769 235.280237 
L 188.552489 235.289378 
L 188.72721 235.157498 
L 189.076652 235.422774 
L 189.251373 235.303937 
L 189.600814 234.954952 
L 189.775535 234.760994 
L 189.950256 234.973328 
L 190.124977 234.813748 
L 190.299697 235.169845 
L 190.474418 234.760229 
L 190.649139 234.72847 
L 190.82386 234.92844 
L 190.998581 234.772707 
L 191.348022 235.006846 
L 191.522743 234.863924 
L 191.872185 235.236338 
L 192.046905 235.227733 
L 192.221626 235.448632 
L 192.396347 235.342052 
L 192.920509 235.937406 
L 193.09523 235.769598 
L 193.269951 236.005492 
L 193.444672 235.863851 
L 193.619393 235.904735 
L 193.794113 236.091939 
L 194.143555 236.957485 
L 194.318276 236.926956 
L 194.492997 237.065013 
L 194.842438 237.006928 
L 195.017159 237.394264 
L 195.541321 237.614593 
L 195.716042 237.481229 
L 196.764367 238.170554 
L 197.113809 238.432778 
L 197.637971 238.16929 
L 197.987413 238.463315 
L 198.162133 238.490508 
L 198.336854 238.696786 
L 198.686296 238.657001 
L 198.861017 238.677514 
L 199.210458 238.870759 
L 199.385179 238.949607 
L 199.5599 238.782915 
L 200.258783 239.042742 
L 200.608225 238.987943 
L 200.782945 239.078391 
L 201.307108 238.898363 
L 202.005991 239.256468 
L 202.180712 239.184083 
L 202.355433 239.286117 
L 202.530153 239.173324 
L 203.229037 239.179186 
L 203.753199 239.128659 
L 204.102641 239.165167 
L 204.277361 239.112866 
L 204.801524 239.31684 
L 204.976245 239.139125 
L 205.325686 239.231303 
L 206.19929 239.321231 
L 206.374011 239.239384 
L 206.898173 239.311874 
L 207.072894 239.329349 
L 207.422336 239.190495 
L 207.771777 239.347573 
L 208.121219 239.255496 
L 208.645381 239.55708 
L 209.169544 239.405422 
L 210.043148 239.596041 
L 210.217869 239.452427 
L 211.615635 239.756818 
L 211.965077 239.689345 
L 212.139798 239.617061 
L 212.314518 239.671421 
L 212.66396 239.596821 
L 213.887006 239.985791 
L 214.061726 240.04696 
L 214.236447 239.907623 
L 214.93533 239.984482 
L 215.459493 239.850806 
L 217.381422 239.610594 
L 217.556142 239.422373 
L 217.730863 239.503515 
L 218.429746 239.267665 
L 218.953909 239.470475 
L 219.30335 239.56271 
L 219.478071 239.445346 
L 219.652792 239.545767 
L 219.827513 239.471628 
L 220.176954 239.505711 
L 220.351675 239.470093 
L 220.526396 239.602413 
L 220.875838 239.550175 
L 221.4 239.93712 
L 222.448325 239.999604 
L 222.623046 239.970466 
L 223.49665 240.377823 
L 223.846091 240.402956 
L 224.719695 240.284624 
L 224.894416 240.171141 
L 225.243858 240.320853 
L 225.942741 240.345802 
L 226.292182 240.271395 
L 226.466903 240.167517 
L 226.816345 240.23091 
L 227.515228 240.331338 
L 227.689949 240.234113 
L 228.03939 240.443723 
L 228.388832 240.471474 
L 228.738274 240.297716 
L 229.262436 240.306033 
L 229.437157 240.307153 
L 229.611878 240.168966 
L 230.13604 240.271813 
L 230.485482 240.158427 
L 230.834923 239.954604 
L 231.184365 240.132965 
L 231.883248 239.982486 
L 232.23269 240.094779 
L 232.40741 239.926663 
L 232.931573 239.969276 
L 233.106294 240.124907 
L 234.678781 239.879297 
L 234.853502 239.633688 
L 235.377664 239.623589 
L 235.727106 239.557905 
L 235.901827 239.691809 
L 236.076547 239.619164 
L 236.251268 239.696638 
L 236.60071 239.619618 
L 236.950151 239.681006 
L 238.173197 240.078175 
L 238.347918 240.278959 
L 238.697359 240.190771 
L 239.046801 240.322724 
L 239.396243 240.327348 
L 239.570963 240.408553 
L 239.920405 240.316539 
L 240.095126 240.29841 
L 240.269847 240.136448 
L 240.444567 240.296897 
L 240.619288 240.170343 
L 240.96873 240.268113 
L 241.842334 240.158443 
L 242.191775 240.310785 
L 243.2401 240.107937 
L 244.463146 240.45513 
L 244.637867 240.426464 
L 245.162029 240.689826 
L 247.433399 240.664202 
L 247.957562 240.487648 
L 248.132283 240.49301 
L 248.656445 239.975777 
L 249.005887 239.848377 
L 249.180607 239.716693 
L 249.70477 239.858968 
L 249.879491 239.602897 
L 250.403653 239.927715 
L 251.102536 239.98193 
L 251.451978 239.973627 
L 252.150861 240.499033 
L 252.675023 240.580883 
L 253.199186 240.426749 
L 253.373907 240.610707 
L 253.723348 240.482112 
L 254.07279 240.136415 
L 254.422231 240.171524 
L 254.771673 240.265696 
L 254.946394 240.304333 
L 255.121115 240.18636 
L 255.295836 240.26106 
L 255.819998 240.132326 
L 256.16944 240.450586 
L 256.693602 240.590805 
L 257.217764 240.673324 
L 257.567206 240.901925 
L 259.314414 240.915933 
L 259.663856 240.781549 
L 260.886901 241.168203 
L 261.585784 241.025425 
L 261.760505 241.090838 
L 261.935226 241.021527 
L 262.80883 241.257688 
L 263.332992 241.167307 
L 263.857155 240.792644 
L 264.730759 240.709643 
L 264.90548 240.560936 
L 265.429642 240.518983 
L 266.652688 240.450717 
L 267.875733 240.979289 
L 268.225175 240.93333 
L 268.574616 241.033719 
L 268.749337 241.099456 
L 269.098779 241.078778 
L 270.496545 240.843735 
L 270.671266 240.80064 
L 270.845987 240.904379 
L 271.020708 240.814844 
L 271.195428 240.857599 
L 271.370149 240.59064 
L 271.719591 240.765463 
L 271.894312 240.715049 
L 272.069032 240.830127 
L 272.418474 240.768333 
L 272.942636 240.739815 
L 273.64152 240.998842 
L 274.165682 241.002884 
L 274.689844 240.928437 
L 274.864565 241.125827 
L 275.738169 241.120537 
L 276.262332 241.232606 
L 277.310657 240.991201 
L 277.660098 241.145752 
L 278.184261 241.109664 
L 278.533702 241.086149 
L 278.708423 241.232321 
L 279.057865 241.11922 
L 279.582027 241.172962 
L 280.106189 241.080936 
L 280.805073 241.174105 
L 281.678677 241.106979 
L 282.028118 241.128551 
L 282.202839 241.03229 
L 282.727001 241.099023 
L 282.901722 241.001405 
L 283.600605 241.146563 
L 283.775326 241.072086 
L 284.299489 241.196222 
L 286.570859 241.046372 
L 286.920301 240.821333 
L 287.269742 240.878994 
L 289.541113 241.068371 
L 289.890554 241.041141 
L 290.065275 240.964383 
L 290.589437 241.124353 
L 291.812483 241.129017 
L 291.987204 241.211187 
L 292.860808 241.025471 
L 293.559691 241.218904 
L 293.734412 241.323056 
L 294.957457 241.049817 
L 295.48162 241.037849 
L 295.656341 241.114697 
L 295.831061 241.037697 
L 296.180503 241.117183 
L 297.054107 240.914104 
L 297.578269 240.871409 
L 298.102432 240.866373 
L 298.976036 241.093494 
L 299.150757 241.02924 
L 299.500198 241.180101 
L 300.199082 241.152989 
L 300.897965 241.258837 
L 301.771569 241.296346 
L 301.94629 241.149239 
L 304.392381 241.235622 
L 304.741822 241.343021 
L 305.964868 241.396595 
L 306.31431 241.25219 
L 307.013193 241.124313 
L 307.187914 240.888887 
L 309.284563 240.615851 
L 309.634005 240.546373 
L 309.983446 240.526328 
L 310.332888 240.487948 
L 310.507609 240.471147 
L 310.68233 240.692555 
L 311.905375 240.564581 
L 312.080096 240.282642 
L 312.604258 240.547964 
L 312.778979 240.467454 
L 313.303142 240.644688 
L 313.477862 240.596865 
L 314.351466 240.924918 
L 314.526187 240.862929 
L 314.875629 241.063557 
L 315.05035 241.002683 
L 315.399791 241.273894 
L 315.574512 241.645172 
L 316.098674 241.265336 
L 316.448116 241.063455 
L 316.622837 240.961812 
L 316.972278 241.200083 
L 317.671162 241.006714 
L 318.020603 241.079012 
L 318.370045 240.875646 
L 318.544766 240.958158 
L 319.068928 240.560814 
L 320.117253 240.922437 
L 320.291974 240.901248 
L 320.641415 241.036947 
L 322.039182 240.823084 
L 322.563344 241.025574 
L 322.912786 241.111636 
L 323.262227 241.062179 
L 324.485273 240.803793 
L 324.659994 240.847022 
L 325.009435 240.721938 
L 325.533598 240.700833 
L 325.883039 240.772496 
L 326.581923 240.859948 
L 327.106085 241.125784 
L 329.202735 241.464308 
L 329.552176 241.329867 
L 330.42578 241.29927 
L 331.124663 241.361459 
L 331.474105 241.588136 
L 331.998267 241.716692 
L 332.52243 241.513742 
L 332.697151 241.485762 
L 333.221313 241.713706 
L 334.269638 241.242141 
L 334.7938 241.281058 
L 335.842125 241.028125 
L 336.89045 241.187518 
L 337.414612 241.288594 
L 338.812379 241.028101 
L 339.511262 241.107325 
L 340.035424 241.106131 
L 340.384866 240.971488 
L 341.083749 241.009403 
L 341.607911 240.987546 
L 341.957353 241.025857 
L 342.306795 240.937402 
L 344.403444 240.983902 
L 344.752886 241.264625 
L 345.277048 241.379006 
L 346.150652 241.520823 
L 346.500094 241.468936 
L 346.674815 241.554752 
L 347.198977 241.506766 
L 347.373698 241.601015 
L 348.247302 241.362207 
L 348.596744 241.34863 
L 349.120906 241.33888 
L 349.470348 241.380236 
L 349.645068 241.301434 
L 349.99451 241.319551 
L 350.169231 241.114754 
L 351.217556 241.368306 
L 352.09116 241.374197 
L 352.26588 241.298947 
L 352.615322 241.512603 
L 354.36253 241.722042 
L 354.711972 241.661347 
L 355.236134 241.76693 
L 355.585576 241.725062 
L 355.760296 241.807042 
L 356.109738 241.572854 
L 356.808621 241.626526 
L 356.983342 241.683693 
L 357.332784 241.636441 
L 360.128316 241.502137 
L 360.8272 241.398124 
L 361.700804 241.49072 
L 362.050245 241.361357 
L 362.224966 241.428936 
L 362.574408 241.29203 
L 362.923849 241.400839 
L 363.448012 241.487711 
L 363.622732 241.614752 
L 363.972174 241.503979 
L 365.020499 241.690115 
L 365.19522 241.622592 
L 365.544661 241.858997 
L 365.719382 241.827343 
L 366.068824 241.92208 
L 366.942428 241.862688 
L 368.165473 241.962899 
L 368.514915 241.980708 
L 368.864357 241.792173 
L 369.213798 241.783408 
L 370.786285 242.002908 
L 371.135727 241.875311 
L 372.358773 242.034573 
L 372.533493 242.115104 
L 372.882935 241.998096 
L 373.232377 242.102575 
L 373.581818 242.024551 
L 373.581818 242.024551 
" style="fill:none;stroke:#1f77b4;stroke-linecap:square;stroke-width:1.5;"/>
   </g>
   <g id="patch_3">
    <path d="M 54 252 
L 54 34.56 
" style="fill:none;stroke:#000000;stroke-linecap:square;stroke-linejoin:miter;stroke-width:0.8;"/>
   </g>
   <g id="patch_4">
    <path d="M 388.8 252 
L 388.8 34.56 
" style="fill:none;stroke:#000000;stroke-linecap:square;stroke-linejoin:miter;stroke-width:0.8;"/>
   </g>
   <g id="patch_5">
    <path d="M 54 252 
L 388.8 252 
" style="fill:none;stroke:#000000;stroke-linecap:square;stroke-linejoin:miter;stroke-width:0.8;"/>
   </g>
   <g id="patch_6">
    <path d="M 54 34.56 
L 388.8 34.56 
" style="fill:none;stroke:#000000;stroke-linecap:square;stroke-linejoin:miter;stroke-width:0.8;"/>
   </g>
  </g>
 </g>
 <defs>
  <clipPath id="pc918008e72">
   <rect height="217.44" width="334.8" x="54" y="34.56"/>
  </clipPath>
 </defs>
</svg>
