<?xml version="1.0" encoding="utf-8" standalone="no"?>
<!DOCTYPE svg PUBLIC "-//W3C//DTD SVG 1.1//EN"
  "http://www.w3.org/Graphics/SVG/1.1/DTD/svg11.dtd">
<!-- Created with matplotlib (https://matplotlib.org/) -->
<svg height="288pt" version="1.1" viewBox="0 0 432 288" width="432pt" xmlns="http://www.w3.org/2000/svg" xmlns:xlink="http://www.w3.org/1999/xlink">
 <defs>
  <style type="text/css">
*{stroke-linecap:butt;stroke-linejoin:round;}
  </style>
 </defs>
 <g id="figure_1">
  <g id="patch_1">
   <path d="M 0 288 
L 432 288 
L 432 0 
L 0 0 
z
" style="fill:#ffffff;"/>
  </g>
  <g id="axes_1">
   <g id="patch_2">
    <path d="M 54 252 
L 388.8 252 
L 388.8 34.56 
L 54 34.56 
z
" style="fill:#ffffff;"/>
   </g>
   <g id="matplotlib.axis_1">
    <g id="xtick_1">
     <g id="line2d_1">
      <defs>
       <path d="M 0 0 
L 0 3.5 
" id="m1a9b32f4b6" style="stroke:#000000;stroke-width:0.8;"/>
      </defs>
      <g>
       <use style="stroke:#000000;stroke-width:0.8;" x="69.218182" xlink:href="#m1a9b32f4b6" y="252"/>
      </g>
     </g>
     <g id="text_1">
      <!-- 0 -->
      <defs>
       <path d="M 31.78125 66.40625 
Q 24.171875 66.40625 20.328125 58.90625 
Q 16.5 51.421875 16.5 36.375 
Q 16.5 21.390625 20.328125 13.890625 
Q 24.171875 6.390625 31.78125 6.390625 
Q 39.453125 6.390625 43.28125 13.890625 
Q 47.125 21.390625 47.125 36.375 
Q 47.125 51.421875 43.28125 58.90625 
Q 39.453125 66.40625 31.78125 66.40625 
z
M 31.78125 74.21875 
Q 44.046875 74.21875 50.515625 64.515625 
Q 56.984375 54.828125 56.984375 36.375 
Q 56.984375 17.96875 50.515625 8.265625 
Q 44.046875 -1.421875 31.78125 -1.421875 
Q 19.53125 -1.421875 13.0625 8.265625 
Q 6.59375 17.96875 6.59375 36.375 
Q 6.59375 54.828125 13.0625 64.515625 
Q 19.53125 74.21875 31.78125 74.21875 
z
" id="DejaVuSans-48"/>
      </defs>
      <g transform="translate(66.036932 266.598437)scale(0.1 -0.1)">
       <use xlink:href="#DejaVuSans-48"/>
      </g>
     </g>
    </g>
    <g id="xtick_2">
     <g id="line2d_2">
      <g>
       <use style="stroke:#000000;stroke-width:0.8;" x="129.452426" xlink:href="#m1a9b32f4b6" y="252"/>
      </g>
     </g>
     <g id="text_2">
      <!-- 1000 -->
      <defs>
       <path d="M 12.40625 8.296875 
L 28.515625 8.296875 
L 28.515625 63.921875 
L 10.984375 60.40625 
L 10.984375 69.390625 
L 28.421875 72.90625 
L 38.28125 72.90625 
L 38.28125 8.296875 
L 54.390625 8.296875 
L 54.390625 0 
L 12.40625 0 
z
" id="DejaVuSans-49"/>
      </defs>
      <g transform="translate(116.727426 266.598437)scale(0.1 -0.1)">
       <use xlink:href="#DejaVuSans-49"/>
       <use x="63.623047" xlink:href="#DejaVuSans-48"/>
       <use x="127.246094" xlink:href="#DejaVuSans-48"/>
       <use x="190.869141" xlink:href="#DejaVuSans-48"/>
      </g>
     </g>
    </g>
    <g id="xtick_3">
     <g id="line2d_3">
      <g>
       <use style="stroke:#000000;stroke-width:0.8;" x="189.68667" xlink:href="#m1a9b32f4b6" y="252"/>
      </g>
     </g>
     <g id="text_3">
      <!-- 2000 -->
      <defs>
       <path d="M 19.1875 8.296875 
L 53.609375 8.296875 
L 53.609375 0 
L 7.328125 0 
L 7.328125 8.296875 
Q 12.9375 14.109375 22.625 23.890625 
Q 32.328125 33.6875 34.8125 36.53125 
Q 39.546875 41.84375 41.421875 45.53125 
Q 43.3125 49.21875 43.3125 52.78125 
Q 43.3125 58.59375 39.234375 62.25 
Q 35.15625 65.921875 28.609375 65.921875 
Q 23.96875 65.921875 18.8125 64.3125 
Q 13.671875 62.703125 7.8125 59.421875 
L 7.8125 69.390625 
Q 13.765625 71.78125 18.9375 73 
Q 24.125 74.21875 28.421875 74.21875 
Q 39.75 74.21875 46.484375 68.546875 
Q 53.21875 62.890625 53.21875 53.421875 
Q 53.21875 48.921875 51.53125 44.890625 
Q 49.859375 40.875 45.40625 35.40625 
Q 44.1875 33.984375 37.640625 27.21875 
Q 31.109375 20.453125 19.1875 8.296875 
z
" id="DejaVuSans-50"/>
      </defs>
      <g transform="translate(176.96167 266.598437)scale(0.1 -0.1)">
       <use xlink:href="#DejaVuSans-50"/>
       <use x="63.623047" xlink:href="#DejaVuSans-48"/>
       <use x="127.246094" xlink:href="#DejaVuSans-48"/>
       <use x="190.869141" xlink:href="#DejaVuSans-48"/>
      </g>
     </g>
    </g>
    <g id="xtick_4">
     <g id="line2d_4">
      <g>
       <use style="stroke:#000000;stroke-width:0.8;" x="249.920915" xlink:href="#m1a9b32f4b6" y="252"/>
      </g>
     </g>
     <g id="text_4">
      <!-- 3000 -->
      <defs>
       <path d="M 40.578125 39.3125 
Q 47.65625 37.796875 51.625 33 
Q 55.609375 28.21875 55.609375 21.1875 
Q 55.609375 10.40625 48.1875 4.484375 
Q 40.765625 -1.421875 27.09375 -1.421875 
Q 22.515625 -1.421875 17.65625 -0.515625 
Q 12.796875 0.390625 7.625 2.203125 
L 7.625 11.71875 
Q 11.71875 9.328125 16.59375 8.109375 
Q 21.484375 6.890625 26.8125 6.890625 
Q 36.078125 6.890625 40.9375 10.546875 
Q 45.796875 14.203125 45.796875 21.1875 
Q 45.796875 27.640625 41.28125 31.265625 
Q 36.765625 34.90625 28.71875 34.90625 
L 20.21875 34.90625 
L 20.21875 43.015625 
L 29.109375 43.015625 
Q 36.375 43.015625 40.234375 45.921875 
Q 44.09375 48.828125 44.09375 54.296875 
Q 44.09375 59.90625 40.109375 62.90625 
Q 36.140625 65.921875 28.71875 65.921875 
Q 24.65625 65.921875 20.015625 65.03125 
Q 15.375 64.15625 9.8125 62.3125 
L 9.8125 71.09375 
Q 15.4375 72.65625 20.34375 73.4375 
Q 25.25 74.21875 29.59375 74.21875 
Q 40.828125 74.21875 47.359375 69.109375 
Q 53.90625 64.015625 53.90625 55.328125 
Q 53.90625 49.265625 50.4375 45.09375 
Q 46.96875 40.921875 40.578125 39.3125 
z
" id="DejaVuSans-51"/>
      </defs>
      <g transform="translate(237.195915 266.598437)scale(0.1 -0.1)">
       <use xlink:href="#DejaVuSans-51"/>
       <use x="63.623047" xlink:href="#DejaVuSans-48"/>
       <use x="127.246094" xlink:href="#DejaVuSans-48"/>
       <use x="190.869141" xlink:href="#DejaVuSans-48"/>
      </g>
     </g>
    </g>
    <g id="xtick_5">
     <g id="line2d_5">
      <g>
       <use style="stroke:#000000;stroke-width:0.8;" x="310.155159" xlink:href="#m1a9b32f4b6" y="252"/>
      </g>
     </g>
     <g id="text_5">
      <!-- 4000 -->
      <defs>
       <path d="M 37.796875 64.3125 
L 12.890625 25.390625 
L 37.796875 25.390625 
z
M 35.203125 72.90625 
L 47.609375 72.90625 
L 47.609375 25.390625 
L 58.015625 25.390625 
L 58.015625 17.1875 
L 47.609375 17.1875 
L 47.609375 0 
L 37.796875 0 
L 37.796875 17.1875 
L 4.890625 17.1875 
L 4.890625 26.703125 
z
" id="DejaVuSans-52"/>
      </defs>
      <g transform="translate(297.430159 266.598437)scale(0.1 -0.1)">
       <use xlink:href="#DejaVuSans-52"/>
       <use x="63.623047" xlink:href="#DejaVuSans-48"/>
       <use x="127.246094" xlink:href="#DejaVuSans-48"/>
       <use x="190.869141" xlink:href="#DejaVuSans-48"/>
      </g>
     </g>
    </g>
    <g id="xtick_6">
     <g id="line2d_6">
      <g>
       <use style="stroke:#000000;stroke-width:0.8;" x="370.389403" xlink:href="#m1a9b32f4b6" y="252"/>
      </g>
     </g>
     <g id="text_6">
      <!-- 5000 -->
      <defs>
       <path d="M 10.796875 72.90625 
L 49.515625 72.90625 
L 49.515625 64.59375 
L 19.828125 64.59375 
L 19.828125 46.734375 
Q 21.96875 47.46875 24.109375 47.828125 
Q 26.265625 48.1875 28.421875 48.1875 
Q 40.625 48.1875 47.75 41.5 
Q 54.890625 34.8125 54.890625 23.390625 
Q 54.890625 11.625 47.5625 5.09375 
Q 40.234375 -1.421875 26.90625 -1.421875 
Q 22.3125 -1.421875 17.546875 -0.640625 
Q 12.796875 0.140625 7.71875 1.703125 
L 7.71875 11.625 
Q 12.109375 9.234375 16.796875 8.0625 
Q 21.484375 6.890625 26.703125 6.890625 
Q 35.15625 6.890625 40.078125 11.328125 
Q 45.015625 15.765625 45.015625 23.390625 
Q 45.015625 31 40.078125 35.4375 
Q 35.15625 39.890625 26.703125 39.890625 
Q 22.75 39.890625 18.8125 39.015625 
Q 14.890625 38.140625 10.796875 36.28125 
z
" id="DejaVuSans-53"/>
      </defs>
      <g transform="translate(357.664403 266.598437)scale(0.1 -0.1)">
       <use xlink:href="#DejaVuSans-53"/>
       <use x="63.623047" xlink:href="#DejaVuSans-48"/>
       <use x="127.246094" xlink:href="#DejaVuSans-48"/>
       <use x="190.869141" xlink:href="#DejaVuSans-48"/>
      </g>
     </g>
    </g>
   </g>
   <g id="matplotlib.axis_2">
    <g id="ytick_1">
     <g id="line2d_7">
      <defs>
       <path d="M 0 0 
L -3.5 0 
" id="m47eee2c9bb" style="stroke:#000000;stroke-width:0.8;"/>
      </defs>
      <g>
       <use style="stroke:#000000;stroke-width:0.8;" x="54" xlink:href="#m47eee2c9bb" y="231.553699"/>
      </g>
     </g>
     <g id="text_7">
      <!-- 4.2 -->
      <defs>
       <path d="M 10.6875 12.40625 
L 21 12.40625 
L 21 0 
L 10.6875 0 
z
" id="DejaVuSans-46"/>
      </defs>
      <g transform="translate(31.096875 235.352918)scale(0.1 -0.1)">
       <use xlink:href="#DejaVuSans-52"/>
       <use x="63.623047" xlink:href="#DejaVuSans-46"/>
       <use x="95.410156" xlink:href="#DejaVuSans-50"/>
      </g>
     </g>
    </g>
    <g id="ytick_2">
     <g id="line2d_8">
      <g>
       <use style="stroke:#000000;stroke-width:0.8;" x="54" xlink:href="#m47eee2c9bb" y="201.374656"/>
      </g>
     </g>
     <g id="text_8">
      <!-- 4.4 -->
      <g transform="translate(31.096875 205.173875)scale(0.1 -0.1)">
       <use xlink:href="#DejaVuSans-52"/>
       <use x="63.623047" xlink:href="#DejaVuSans-46"/>
       <use x="95.410156" xlink:href="#DejaVuSans-52"/>
      </g>
     </g>
    </g>
    <g id="ytick_3">
     <g id="line2d_9">
      <g>
       <use style="stroke:#000000;stroke-width:0.8;" x="54" xlink:href="#m47eee2c9bb" y="171.195614"/>
      </g>
     </g>
     <g id="text_9">
      <!-- 4.6 -->
      <defs>
       <path d="M 33.015625 40.375 
Q 26.375 40.375 22.484375 35.828125 
Q 18.609375 31.296875 18.609375 23.390625 
Q 18.609375 15.53125 22.484375 10.953125 
Q 26.375 6.390625 33.015625 6.390625 
Q 39.65625 6.390625 43.53125 10.953125 
Q 47.40625 15.53125 47.40625 23.390625 
Q 47.40625 31.296875 43.53125 35.828125 
Q 39.65625 40.375 33.015625 40.375 
z
M 52.59375 71.296875 
L 52.59375 62.3125 
Q 48.875 64.0625 45.09375 64.984375 
Q 41.3125 65.921875 37.59375 65.921875 
Q 27.828125 65.921875 22.671875 59.328125 
Q 17.53125 52.734375 16.796875 39.40625 
Q 19.671875 43.65625 24.015625 45.921875 
Q 28.375 48.1875 33.59375 48.1875 
Q 44.578125 48.1875 50.953125 41.515625 
Q 57.328125 34.859375 57.328125 23.390625 
Q 57.328125 12.15625 50.6875 5.359375 
Q 44.046875 -1.421875 33.015625 -1.421875 
Q 20.359375 -1.421875 13.671875 8.265625 
Q 6.984375 17.96875 6.984375 36.375 
Q 6.984375 53.65625 15.1875 63.9375 
Q 23.390625 74.21875 37.203125 74.21875 
Q 40.921875 74.21875 44.703125 73.484375 
Q 48.484375 72.75 52.59375 71.296875 
z
" id="DejaVuSans-54"/>
      </defs>
      <g transform="translate(31.096875 174.994833)scale(0.1 -0.1)">
       <use xlink:href="#DejaVuSans-52"/>
       <use x="63.623047" xlink:href="#DejaVuSans-46"/>
       <use x="95.410156" xlink:href="#DejaVuSans-54"/>
      </g>
     </g>
    </g>
    <g id="ytick_4">
     <g id="line2d_10">
      <g>
       <use style="stroke:#000000;stroke-width:0.8;" x="54" xlink:href="#m47eee2c9bb" y="141.016572"/>
      </g>
     </g>
     <g id="text_10">
      <!-- 4.8 -->
      <defs>
       <path d="M 31.78125 34.625 
Q 24.75 34.625 20.71875 30.859375 
Q 16.703125 27.09375 16.703125 20.515625 
Q 16.703125 13.921875 20.71875 10.15625 
Q 24.75 6.390625 31.78125 6.390625 
Q 38.8125 6.390625 42.859375 10.171875 
Q 46.921875 13.96875 46.921875 20.515625 
Q 46.921875 27.09375 42.890625 30.859375 
Q 38.875 34.625 31.78125 34.625 
z
M 21.921875 38.8125 
Q 15.578125 40.375 12.03125 44.71875 
Q 8.5 49.078125 8.5 55.328125 
Q 8.5 64.0625 14.71875 69.140625 
Q 20.953125 74.21875 31.78125 74.21875 
Q 42.671875 74.21875 48.875 69.140625 
Q 55.078125 64.0625 55.078125 55.328125 
Q 55.078125 49.078125 51.53125 44.71875 
Q 48 40.375 41.703125 38.8125 
Q 48.828125 37.15625 52.796875 32.3125 
Q 56.78125 27.484375 56.78125 20.515625 
Q 56.78125 9.90625 50.3125 4.234375 
Q 43.84375 -1.421875 31.78125 -1.421875 
Q 19.734375 -1.421875 13.25 4.234375 
Q 6.78125 9.90625 6.78125 20.515625 
Q 6.78125 27.484375 10.78125 32.3125 
Q 14.796875 37.15625 21.921875 38.8125 
z
M 18.3125 54.390625 
Q 18.3125 48.734375 21.84375 45.5625 
Q 25.390625 42.390625 31.78125 42.390625 
Q 38.140625 42.390625 41.71875 45.5625 
Q 45.3125 48.734375 45.3125 54.390625 
Q 45.3125 60.0625 41.71875 63.234375 
Q 38.140625 66.40625 31.78125 66.40625 
Q 25.390625 66.40625 21.84375 63.234375 
Q 18.3125 60.0625 18.3125 54.390625 
z
" id="DejaVuSans-56"/>
      </defs>
      <g transform="translate(31.096875 144.815791)scale(0.1 -0.1)">
       <use xlink:href="#DejaVuSans-52"/>
       <use x="63.623047" xlink:href="#DejaVuSans-46"/>
       <use x="95.410156" xlink:href="#DejaVuSans-56"/>
      </g>
     </g>
    </g>
    <g id="ytick_5">
     <g id="line2d_11">
      <g>
       <use style="stroke:#000000;stroke-width:0.8;" x="54" xlink:href="#m47eee2c9bb" y="110.837529"/>
      </g>
     </g>
     <g id="text_11">
      <!-- 5.0 -->
      <g transform="translate(31.096875 114.636748)scale(0.1 -0.1)">
       <use xlink:href="#DejaVuSans-53"/>
       <use x="63.623047" xlink:href="#DejaVuSans-46"/>
       <use x="95.410156" xlink:href="#DejaVuSans-48"/>
      </g>
     </g>
    </g>
    <g id="ytick_6">
     <g id="line2d_12">
      <g>
       <use style="stroke:#000000;stroke-width:0.8;" x="54" xlink:href="#m47eee2c9bb" y="80.658487"/>
      </g>
     </g>
     <g id="text_12">
      <!-- 5.2 -->
      <g transform="translate(31.096875 84.457706)scale(0.1 -0.1)">
       <use xlink:href="#DejaVuSans-53"/>
       <use x="63.623047" xlink:href="#DejaVuSans-46"/>
       <use x="95.410156" xlink:href="#DejaVuSans-50"/>
      </g>
     </g>
    </g>
    <g id="ytick_7">
     <g id="line2d_13">
      <g>
       <use style="stroke:#000000;stroke-width:0.8;" x="54" xlink:href="#m47eee2c9bb" y="50.479445"/>
      </g>
     </g>
     <g id="text_13">
      <!-- 5.4 -->
      <g transform="translate(31.096875 54.278664)scale(0.1 -0.1)">
       <use xlink:href="#DejaVuSans-53"/>
       <use x="63.623047" xlink:href="#DejaVuSans-46"/>
       <use x="95.410156" xlink:href="#DejaVuSans-52"/>
      </g>
     </g>
    </g>
   </g>
   <g id="line2d_14">
    <path clip-path="url(#pa98947ad46)" d="M 69.218182 235.326079 
L 69.278416 234.948841 
L 69.398885 221.368272 
L 69.459119 228.158557 
L 69.519353 224.763414 
L 69.639822 220.236558 
L 69.700056 222.877224 
L 69.76029 220.236558 
L 69.820524 225.140652 
L 70.061461 205.901513 
L 70.121695 206.278751 
L 70.18193 205.524275 
L 70.242164 209.673893 
L 70.422867 202.506371 
L 70.603569 214.577988 
L 70.663804 214.200749 
L 70.844506 203.638085 
L 71.025209 222.877224 
L 71.085443 227.781319 
L 71.145678 222.122748 
L 71.205912 223.254462 
L 71.266146 225.51789 
L 71.32638 222.499986 
L 71.386615 225.140652 
L 71.507083 233.439889 
L 71.627552 229.290271 
L 71.808254 242.116364 
L 71.868489 232.308175 
L 71.928723 233.062651 
L 71.988957 231.553699 
L 72.049191 234.571603 
L 72.109426 233.817127 
L 72.290128 227.026842 
L 72.470831 234.194365 
L 72.711768 217.218654 
L 72.772002 219.85932 
L 72.832236 223.254462 
L 73.012939 209.296655 
L 73.133408 212.691797 
L 73.193642 211.937321 
L 73.253876 221.74551 
L 73.434579 198.356752 
L 73.494813 196.093324 
L 73.555047 196.8478 
L 73.615282 199.488466 
L 73.916453 169.686662 
L 74.036921 179.494851 
L 74.097156 177.608661 
L 74.15739 177.985899 
L 74.217624 174.213518 
L 74.398327 187.416849 
L 74.518795 178.740375 
L 74.819967 202.883609 
L 74.880201 202.129133 
L 75.121138 214.955226 
L 75.181372 211.182845 
L 75.241606 215.332464 
L 75.30184 214.955226 
L 75.422309 205.524275 
L 75.482543 205.901513 
L 75.542777 207.033227 
L 75.603012 205.901513 
L 75.663246 197.225038 
L 75.72348 200.62018 
L 75.783714 200.242942 
L 75.843949 207.410465 
L 75.904183 203.638085 
L 76.024651 200.997418 
L 76.205354 211.182845 
L 76.265588 209.673893 
L 76.325823 210.051131 
L 76.386057 208.542179 
L 76.506525 203.638085 
L 76.56676 214.200749 
L 76.626994 205.901513 
L 76.687228 211.182845 
L 76.747462 205.524275 
L 76.807697 207.033227 
L 76.988399 215.709702 
L 77.229336 191.943706 
L 77.349805 194.207134 
L 77.410039 183.267231 
L 77.470273 185.907897 
L 77.530508 192.320944 
L 77.590742 191.943706 
L 77.650976 185.530659 
L 77.831679 197.602276 
L 77.891913 200.62018 
L 77.952147 197.979514 
L 78.193084 213.823511 
L 78.253318 208.164941 
L 78.313553 210.805607 
L 78.494255 224.763414 
L 78.614724 224.763414 
L 78.674958 228.158557 
L 78.795427 220.236558 
L 78.855661 222.122748 
L 78.915895 225.140652 
L 78.976129 220.991034 
L 79.036364 230.421985 
L 79.096598 224.008938 
L 79.156832 224.386176 
L 79.337535 211.182845 
L 79.458003 219.482082 
L 79.518238 228.913033 
L 79.578472 222.499986 
L 79.638706 220.991034 
L 79.69894 214.577988 
L 79.759175 216.841416 
L 79.819409 220.236558 
L 79.939877 207.410465 
L 80.060346 210.428369 
L 80.180814 208.164941 
L 80.241049 209.296655 
L 80.301283 200.242942 
L 80.361517 203.260847 
L 80.481985 195.338848 
L 80.602454 185.907897 
L 80.722922 185.530659 
L 80.903625 174.590756 
L 80.963859 176.854185 
L 81.024094 173.83628 
L 81.084328 163.273616 
L 81.204796 178.363137 
L 81.325265 162.896378 
L 81.445733 164.40533 
L 81.505968 162.896378 
L 81.566202 163.273616 
L 81.626436 165.537044 
L 81.746905 178.363137 
L 81.867373 165.537044 
L 81.927607 167.045996 
L 82.10831 183.644469 
L 82.168544 181.758279 
L 82.228779 182.889993 
L 82.289013 182.889993 
L 82.349247 184.776183 
L 82.409481 181.758279 
L 82.469716 184.776183 
L 82.650418 175.722471 
L 83.072058 205.901513 
L 83.132292 202.506371 
L 83.192526 205.147037 
L 83.252761 207.410465 
L 83.312995 207.033227 
L 83.433463 205.524275 
L 83.493698 213.823511 
L 83.614166 202.129133 
L 83.734635 208.164941 
L 83.915337 199.865704 
L 83.975572 201.374656 
L 84.156274 197.602276 
L 84.276743 206.655989 
L 84.698383 174.967994 
L 84.758617 177.985899 
L 84.818851 181.381041 
L 84.879085 178.363137 
L 84.93932 182.512755 
L 84.999554 179.117613 
L 85.059788 181.758279 
L 85.180257 175.345232 
L 85.481428 156.106093 
L 85.541662 159.123997 
L 85.722365 146.675142 
L 85.842833 142.525524 
L 85.903067 143.657238 
L 85.963302 145.543428 
L 86.023536 141.016572 
L 86.08377 141.39381 
L 86.204239 154.219903 
L 86.324707 152.333713 
L 86.384941 151.201999 
L 86.746347 131.962859 
L 86.92705 136.112477 
L 86.987284 133.094573 
L 87.047518 134.603525 
L 87.167987 136.489715 
L 87.228221 127.436003 
L 87.288455 131.962859 
L 87.348689 126.681527 
L 87.408924 127.813241 
L 87.529392 130.831145 
L 87.589626 129.322193 
L 87.770329 135.358001 
L 87.830563 135.735239 
L 87.890798 138.753144 
L 87.951032 136.866954 
L 88.011266 137.244192 
L 88.131735 147.429618 
L 88.252203 145.543428 
L 88.372672 134.226287 
L 88.432906 140.262096 
L 88.49314 136.112477 
L 88.553374 138.375906 
L 88.673843 133.471811 
L 88.794311 138.375906 
L 88.854545 137.998668 
L 88.91478 136.866954 
L 88.975014 138.375906 
L 89.035248 131.962859 
L 89.095482 134.226287 
L 89.155717 132.717335 
L 89.215951 138.753144 
L 89.276185 132.340097 
L 89.336419 133.471811 
L 89.396654 143.28 
L 89.456888 141.771048 
L 89.577356 137.998668 
L 89.758059 152.710951 
L 89.818293 154.974379 
L 89.938762 148.93857 
L 89.998996 151.956475 
L 90.05923 151.579237 
L 90.601339 123.286384 
L 90.661573 124.040861 
L 90.782041 132.340097 
L 90.962744 116.118862 
L 91.022978 122.531908 
L 91.083212 118.38229 
L 91.143447 114.60991 
L 91.203681 116.873338 
L 91.444618 135.358001 
L 91.565086 127.436003 
L 91.625321 127.436003 
L 91.685555 131.962859 
L 91.745789 125.549813 
L 91.806023 127.436003 
L 91.866258 127.058765 
L 91.926492 135.735239 
L 91.986726 135.358001 
L 92.04696 127.058765 
L 92.107195 132.717335 
L 92.167429 129.322193 
L 92.227663 131.962859 
L 92.348132 137.244192 
L 92.528834 127.436003 
L 92.589069 130.831145 
L 92.709537 127.058765 
L 93.070943 142.902762 
L 93.131177 143.657238 
L 93.191411 141.39381 
L 93.372114 152.333713 
L 93.432348 154.219903 
L 93.492582 151.579237 
L 93.552817 154.219903 
L 93.853988 143.28 
L 93.974456 154.974379 
L 94.094925 145.16619 
L 94.215393 146.297904 
L 94.275627 142.902762 
L 94.45633 153.088189 
L 94.516564 152.710951 
L 94.757501 134.226287 
L 95.118907 151.956475 
L 95.179141 150.447523 
L 95.29961 152.333713 
L 95.359844 151.956475 
L 95.420078 146.675142 
L 95.781484 173.459042 
L 95.841718 162.519139 
L 95.901952 167.045996 
L 96.022421 158.746759 
L 96.323592 185.153421 
L 96.383826 177.231423 
L 96.44406 178.740375 
L 96.564529 188.171325 
L 96.684997 186.285135 
L 96.8657 176.476947 
L 96.925934 170.441138 
L 96.986168 174.590756 
L 97.046403 180.249327 
L 97.106637 178.363137 
L 97.407808 159.878473 
L 97.528277 165.914282 
L 97.588511 164.028092 
L 97.648745 164.028092 
L 97.769214 168.17771 
L 97.829448 171.572852 
L 98.130619 145.543428 
L 98.251088 149.693046 
L 98.311322 146.297904 
L 98.371556 148.93857 
L 98.43179 147.806856 
L 98.85343 116.873338 
L 98.913664 116.4961 
L 99.094367 111.969244 
L 99.214835 114.232672 
L 99.27507 111.214768 
L 99.335304 112.346482 
L 99.455772 116.118862 
L 99.516007 122.531908 
L 99.576241 120.645718 
L 99.696709 125.927051 
L 99.937646 108.951339 
L 99.997881 107.442387 
L 100.178583 89.7122 
L 100.238818 90.843914 
L 100.299052 90.466676 
L 100.479755 82.544677 
L 100.539989 87.448772 
L 100.660457 81.790201 
L 100.84116 86.694296 
L 100.901394 87.071534 
L 101.383268 125.927051 
L 101.443503 122.909146 
L 101.503737 127.058765 
L 101.563971 121.022956 
L 101.624205 125.549813 
L 101.744674 119.514004 
L 101.804908 121.400194 
L 101.865142 119.514004 
L 101.925376 119.891242 
L 102.286782 152.333713 
L 102.347016 155.351617 
L 102.40725 151.201999 
L 102.467485 154.219903 
L 102.527719 153.842665 
L 102.708422 160.255711 
L 102.768656 162.519139 
L 102.82889 172.327328 
L 102.889124 167.423234 
L 103.009593 159.878473 
L 103.190296 173.081804 
L 103.25053 172.327328 
L 103.310764 173.83628 
L 103.491467 160.632949 
L 103.551701 154.974379 
L 103.611935 162.141901 
L 103.67217 156.106093 
L 103.792638 142.148286 
L 103.852872 142.902762 
L 103.913107 142.525524 
L 104.033575 137.998668 
L 104.093809 142.902762 
L 104.154044 140.262096 
L 104.274512 134.226287 
L 104.334746 125.549813 
L 104.39498 127.813241 
L 104.575683 112.346482 
L 104.756386 113.100958 
L 104.937089 124.040861 
L 105.23826 109.328577 
L 105.298494 111.969244 
L 105.358728 113.478196 
L 105.418963 118.005052 
L 105.479197 116.118862 
L 105.720134 109.328577 
L 105.780368 115.364386 
L 105.900837 109.328577 
L 105.961071 110.837529 
L 106.021305 104.424483 
L 106.081539 109.328577 
L 106.141774 106.687911 
L 106.262242 114.60991 
L 106.322476 114.232672 
L 106.382711 115.364386 
L 106.442945 114.60991 
L 106.503179 113.478196 
L 106.683882 119.891242 
L 106.744116 127.058765 
L 106.80435 123.663622 
L 106.864584 123.663622 
L 106.924819 124.040861 
L 106.985053 129.322193 
L 107.045287 125.172575 
L 107.105521 123.663622 
L 107.165756 131.962859 
L 107.22599 125.172575 
L 107.346458 130.076669 
L 107.466927 125.549813 
L 107.64763 130.453907 
L 107.828332 125.172575 
L 108.069269 113.855434 
L 108.189738 114.987148 
L 108.310206 120.26848 
L 108.490909 108.951339 
L 108.671612 119.514004 
L 108.731846 116.118862 
L 108.972783 129.322193 
L 109.21372 112.72372 
L 109.273954 117.627814 
L 109.334189 112.346482 
L 109.394423 113.855434 
L 109.454657 116.873338 
L 109.695594 101.029341 
L 109.755828 96.879722 
L 109.816062 98.011437 
L 109.876297 96.879722 
L 110.056999 90.089438 
L 110.117234 93.861818 
L 110.177468 90.466676 
L 110.358171 105.556197 
L 110.418405 99.143151 
L 110.478639 99.897627 
L 110.538873 99.143151 
L 110.599108 101.029341 
L 110.719576 93.861818 
L 110.77981 90.466676 
L 110.840045 90.843914 
L 110.900279 98.011437 
L 110.960513 96.502484 
L 111.261684 84.053629 
L 111.442387 96.125246 
L 111.502621 96.125246 
L 111.562856 102.538293 
L 111.62309 99.897627 
L 111.683324 91.975628 
L 111.743558 101.783817 
L 111.803793 93.861818 
L 111.984495 85.562582 
L 112.345901 103.670007 
L 112.466369 109.705815 
L 112.586838 116.118862 
L 112.76754 108.951339 
L 112.948243 114.232672 
L 113.068712 103.292769 
L 113.18918 113.478196 
L 113.249414 112.346482 
L 113.430117 98.388675 
L 113.490351 100.652103 
L 113.550586 105.178959 
L 113.61082 104.047245 
L 113.972225 74.622679 
L 114.213162 94.239056 
L 114.454099 100.652103 
L 114.574568 93.48458 
L 114.695036 101.406579 
L 115.056442 78.395059 
L 115.17691 85.185344 
L 115.297379 83.299153 
L 115.357613 77.263345 
L 115.417847 78.395059 
L 115.478081 79.526773 
L 115.658784 73.113727 
L 115.719018 72.736489 
L 115.779253 70.47306 
L 115.899721 73.868203 
L 116.02019 68.964108 
L 116.381595 94.993532 
L 116.682766 76.131631 
L 116.803235 81.412963 
L 116.863469 74.622679 
L 116.923703 80.281249 
L 116.983938 81.035725 
L 117.104406 71.227536 
L 117.285109 78.772297 
L 117.345343 79.526773 
L 117.405577 73.113727 
L 117.465811 78.017821 
L 117.58628 72.736489 
L 117.646514 74.622679 
L 117.827217 88.203248 
L 117.887451 87.82601 
L 117.947685 88.580486 
L 118.00792 92.352866 
L 118.068154 91.975628 
L 118.188622 93.107342 
L 118.369325 88.203248 
L 118.429559 90.466676 
L 118.971668 70.095822 
L 119.031902 71.604774 
L 119.092136 68.964108 
L 119.272839 55.383539 
L 119.57401 64.060014 
L 119.694479 69.341346 
L 119.754713 67.455156 
L 119.99565 81.790201 
L 120.055884 79.904011 
L 120.116118 83.676391 
L 120.176352 82.544677 
L 120.236587 79.526773 
L 120.417289 87.448772 
L 120.537758 84.053629 
L 120.718461 104.801721 
L 120.838929 99.520389 
L 120.899163 101.783817 
L 120.959398 108.951339 
L 121.019632 105.933435 
L 121.079866 106.310673 
L 121.1401 104.047245 
L 121.260569 110.083053 
L 121.320803 108.574101 
L 121.441272 116.873338 
L 121.501506 116.4961 
L 121.742443 125.927051 
L 121.923146 116.873338 
L 122.043614 113.855434 
L 122.103848 116.4961 
L 122.284551 98.388675 
L 122.344785 88.957724 
L 122.40502 93.861818 
L 122.585722 83.676391 
L 122.645956 88.203248 
L 122.706191 85.185344 
L 122.886893 75.754393 
L 122.947128 74.245441 
L 123.007362 74.622679 
L 123.067596 74.999917 
L 123.12783 73.490965 
L 123.248299 81.412963 
L 123.368767 73.113727 
L 123.429002 79.149535 
L 123.489236 76.131631 
L 123.669939 80.658487 
L 123.850641 72.736489 
L 123.910876 73.490965 
L 124.091578 82.167439 
L 124.151813 74.622679 
L 124.212047 78.395059 
L 124.332515 86.317058 
L 124.513218 64.437252 
L 124.573452 67.455156 
L 124.754155 79.149535 
L 125.175795 66.70068 
L 125.236029 66.323442 
L 125.296263 69.718584 
L 125.356497 67.832394 
L 125.476966 63.682776 
L 125.597434 53.120111 
L 125.657669 55.006301 
L 125.717903 55.006301 
L 125.778137 59.910396 
L 125.838371 55.760777 
L 125.898606 62.173824 
L 126.079308 51.988397 
L 126.139543 58.778681 
L 126.199777 53.497349 
L 126.320245 53.874587 
L 126.500948 48.970493 
L 126.561182 47.461541 
L 126.681651 53.120111 
L 126.741885 49.347731 
L 126.982822 72.736489 
L 127.163525 66.70068 
L 127.223759 67.455156 
L 127.344228 76.886107 
L 127.404462 75.377155 
L 127.645399 89.334962 
L 127.765867 88.203248 
L 127.826102 79.904011 
L 127.886336 82.544677 
L 127.94657 81.790201 
L 128.006804 78.772297 
L 128.067038 81.790201 
L 128.127273 91.975628 
L 128.187507 91.221152 
L 128.36821 84.430867 
L 128.669381 98.388675 
L 128.789849 90.843914 
L 128.850084 93.861818 
L 128.970552 103.670007 
L 129.030786 99.897627 
L 129.091021 98.765913 
L 129.392192 84.430867 
L 129.452426 88.203248 
L 129.51266 80.281249 
L 129.572895 89.7122 
L 129.633129 88.580486 
L 129.813832 95.748008 
L 130.054769 82.544677 
L 130.235471 98.388675 
L 130.35594 90.466676 
L 130.416174 96.502484 
L 130.657111 74.622679 
L 130.777579 79.149535 
L 130.898048 76.508869 
L 131.078751 61.796586 
L 131.199219 70.47306 
L 131.259453 66.323442 
L 131.319688 65.191728 
L 131.379922 67.832394 
L 131.440156 61.796586 
L 131.50039 62.551062 
L 131.560625 64.437252 
L 131.681093 60.664872 
L 131.92203 81.035725 
L 132.162967 61.796586 
L 132.403904 68.209632 
L 132.464138 69.341346 
L 132.584607 65.946204 
L 132.644841 68.58687 
L 132.705075 78.017821 
L 132.76531 76.886107 
L 132.885778 73.490965 
L 132.946012 70.095822 
L 133.066481 88.580486 
L 133.126715 87.071534 
L 133.307418 96.879722 
L 133.367652 97.634198 
L 133.427886 90.089438 
L 133.48812 94.993532 
L 133.668823 103.292769 
L 133.789292 98.765913 
L 133.90976 102.538293 
L 134.090463 117.250576 
L 134.210931 107.819625 
L 134.271166 108.196863 
L 134.451868 118.38229 
L 134.512103 112.346482 
L 134.572337 113.478196 
L 134.632571 111.969244 
L 134.692805 117.250576 
L 134.75304 114.60991 
L 134.813274 113.478196 
L 134.993977 101.783817 
L 135.355382 116.118862 
L 135.475851 107.065149 
L 135.536085 110.837529 
L 135.656553 99.143151 
L 135.716788 102.915531 
L 135.777022 102.915531 
L 135.89749 113.478196 
L 136.078193 103.670007 
L 136.258896 109.328577 
L 136.379364 94.993532 
L 136.439598 88.957724 
L 136.499833 93.48458 
L 136.560067 94.239056 
L 136.801004 83.299153 
L 137.041941 90.089438 
L 137.102175 88.957724 
L 137.162409 89.334962 
L 137.463581 107.065149 
L 137.523815 96.125246 
L 137.584049 98.765913 
L 137.764752 94.239056 
L 137.88522 98.765913 
L 137.945455 89.7122 
L 138.005689 91.975628 
L 138.065923 98.011437 
L 138.126157 87.82601 
L 138.186392 94.239056 
L 138.30686 98.388675 
L 138.367094 94.239056 
L 138.427328 94.616294 
L 138.487563 94.239056 
L 138.547797 92.352866 
L 138.7285 84.808105 
L 138.788734 87.448772 
L 138.848968 95.748008 
L 139.029671 85.93982 
L 139.150139 94.616294 
L 139.270608 90.089438 
L 139.330842 95.37077 
L 139.391076 94.616294 
L 139.451311 93.861818 
L 139.511545 88.957724 
L 139.571779 91.59839 
L 139.812716 79.149535 
L 139.933185 84.430867 
L 140.053653 77.640583 
L 140.113887 76.886107 
L 140.174122 78.017821 
L 140.234356 75.754393 
L 140.29459 77.640583 
L 140.354824 85.562582 
L 140.415059 82.544677 
L 140.776464 64.81449 
L 140.836698 68.58687 
L 141.017401 76.508869 
L 141.077635 75.377155 
L 141.137869 75.754393 
L 141.378806 90.843914 
L 141.499275 83.676391 
L 141.740212 66.70068 
L 141.800446 70.850298 
L 141.86068 66.323442 
L 141.920915 74.245441 
L 141.981149 70.850298 
L 142.161852 66.323442 
L 142.523257 76.508869 
L 142.70396 73.868203 
L 142.764194 73.868203 
L 142.884663 76.131631 
L 142.944897 80.281249 
L 143.005131 73.868203 
L 143.065365 76.508869 
L 143.1256 74.999917 
L 143.185834 81.790201 
L 143.246068 77.640583 
L 143.426771 65.946204 
L 143.547239 72.736489 
L 143.667708 62.551062 
L 143.727942 65.946204 
L 143.908645 57.646967 
L 144.089347 71.982012 
L 144.27005 85.185344 
L 144.390519 79.149535 
L 144.631456 99.143151 
L 144.69169 96.125246 
L 144.872393 103.670007 
L 145.053095 93.107342 
L 145.11333 96.502484 
L 145.173564 94.993532 
L 145.233798 95.748008 
L 145.414501 91.221152 
L 145.474735 92.352866 
L 145.534969 102.538293 
L 145.595204 98.388675 
L 145.655438 96.125246 
L 145.836141 107.065149 
L 145.896375 106.310673 
L 145.956609 105.178959 
L 146.016843 108.196863 
L 146.077078 105.556197 
L 146.197546 96.125246 
L 146.25778 97.634198 
L 146.318015 104.801721 
L 146.378249 103.670007 
L 146.498717 104.424483 
L 146.558951 103.670007 
L 146.739654 87.448772 
L 147.040825 74.999917 
L 147.10106 68.209632 
L 147.161294 69.341346 
L 147.221528 71.982012 
L 147.281762 65.568966 
L 147.462465 91.975628 
L 147.582934 87.071534 
L 147.643168 88.957724 
L 147.823871 102.161055 
L 147.884105 100.274865 
L 147.944339 90.843914 
L 148.004573 92.730104 
L 148.064808 91.221152 
L 148.125042 93.107342 
L 148.185276 101.406579 
L 148.24551 97.25696 
L 148.305745 96.125246 
L 148.365979 98.388675 
L 148.426213 106.687911 
L 148.486447 100.652103 
L 148.546682 104.424483 
L 148.66715 99.520389 
L 148.727384 99.897627 
L 148.787619 101.406579 
L 148.908087 93.107342 
L 148.968321 93.861818 
L 149.149024 103.292769 
L 149.209258 106.310673 
L 149.269492 105.556197 
L 149.329727 104.047245 
L 149.450195 106.310673 
L 149.570664 114.60991 
L 149.630898 105.933435 
L 149.691132 107.065149 
L 149.751366 107.819625 
L 149.811601 105.933435 
L 149.871835 98.388675 
L 149.932069 101.406579 
L 150.112772 84.053629 
L 150.293475 70.095822 
L 150.474177 76.886107 
L 150.594646 68.964108 
L 150.65488 70.47306 
L 150.775349 75.754393 
L 150.835583 67.832394 
L 151.07652 85.93982 
L 151.257223 76.886107 
L 151.317457 78.017821 
L 151.377691 74.622679 
L 151.437925 76.508869 
L 151.49816 76.131631 
L 151.558394 74.622679 
L 151.678862 78.772297 
L 151.859565 58.778681 
L 151.919799 62.9283 
L 151.980033 55.383539 
L 152.160736 67.455156 
L 152.281205 60.287634 
L 152.341439 66.323442 
L 152.401673 65.946204 
L 152.461907 62.173824 
L 152.823313 82.167439 
L 152.883547 81.790201 
L 152.943781 82.921915 
L 153.004016 74.999917 
L 153.06425 76.508869 
L 153.124484 77.263345 
L 153.184718 72.736489 
L 153.305187 82.544677 
L 153.425655 75.377155 
L 153.606358 82.544677 
L 153.666592 85.562582 
L 153.907529 77.263345 
L 154.208701 100.652103 
L 154.268935 101.029341 
L 154.570106 82.921915 
L 154.63034 85.185344 
L 154.690574 88.957724 
L 154.750809 88.203248 
L 154.811043 87.071534 
L 154.931511 93.107342 
L 154.991746 93.48458 
L 155.172448 104.424483 
L 155.232683 97.634198 
L 155.292917 99.520389 
L 155.353151 98.765913 
L 155.47362 107.819625 
L 155.714557 95.37077 
L 155.774791 98.388675 
L 155.835025 95.37077 
L 155.895259 96.502484 
L 155.955494 95.748008 
L 156.196431 107.442387 
L 156.256665 106.687911 
L 156.316899 104.424483 
L 156.497602 79.149535 
L 156.557836 81.412963 
L 156.919241 109.328577 
L 157.220413 87.071534 
L 157.401115 94.993532 
L 157.46135 92.352866 
L 157.642052 76.131631 
L 157.822755 81.790201 
L 157.943224 75.754393 
L 158.123926 82.544677 
L 158.184161 87.071534 
L 158.244395 83.676391 
L 158.304629 77.640583 
L 158.485332 90.466676 
L 158.545566 90.089438 
L 158.666035 83.299153 
L 158.726269 84.808105 
L 158.906972 96.125246 
L 159.02744 93.861818 
L 159.328611 83.299153 
L 159.388846 87.82601 
L 159.44908 82.167439 
L 159.629782 104.047245 
L 159.870719 86.317058 
L 159.991188 91.59839 
L 160.051422 98.388675 
L 160.232125 82.167439 
L 160.292359 81.790201 
L 160.352593 84.430867 
L 160.954936 55.760777 
L 161.135639 71.227536 
L 161.497044 55.760777 
L 161.557278 62.551062 
L 161.677747 53.874587 
L 161.737981 54.251825 
L 161.798215 52.365635 
L 161.85845 56.515253 
L 162.039152 44.443636 
L 162.641495 91.975628 
L 162.822197 84.053629 
L 162.882432 87.071534 
L 162.942666 79.904011 
L 163.0029 82.544677 
L 163.063134 83.299153 
L 163.304071 98.011437 
L 163.42454 93.48458 
L 163.484774 100.274865 
L 163.545008 99.520389 
L 163.605243 99.143151 
L 163.665477 106.687911 
L 163.725711 100.652103 
L 163.785945 98.388675 
L 163.84618 101.029341 
L 163.906414 99.520389 
L 163.966648 98.765913 
L 164.087117 106.687911 
L 164.147351 104.047245 
L 164.207585 108.196863 
L 164.328054 100.652103 
L 164.388288 101.406579 
L 164.448522 102.538293 
L 164.508756 99.897627 
L 164.629225 103.292769 
L 164.870162 93.861818 
L 164.930396 101.029341 
L 165.050864 90.466676 
L 165.111099 90.843914 
L 165.352036 101.783817 
L 165.41227 95.748008 
L 165.472504 100.652103 
L 165.954378 76.131631 
L 166.074847 71.982012 
L 166.135081 75.754393 
L 166.195315 73.868203 
L 166.376018 68.58687 
L 166.436252 61.04211 
L 166.496486 61.419348 
L 166.556721 67.077918 
L 166.616955 58.024205 
L 166.677189 65.568966 
L 166.857892 75.377155 
L 166.918126 76.131631 
L 167.098829 71.227536 
L 167.279532 79.904011 
L 167.339766 71.982012 
L 167.4 78.017821 
L 167.460234 74.622679 
L 167.520468 78.395059 
L 167.580703 74.622679 
L 167.701171 83.299153 
L 167.761405 80.281249 
L 167.82164 86.317058 
L 167.881874 79.526773 
L 167.942108 81.035725 
L 168.122811 88.957724 
L 168.303514 83.299153 
L 168.363748 83.299153 
L 168.484216 86.694296 
L 168.544451 84.430867 
L 168.725153 96.879722 
L 168.785388 95.748008 
L 168.845622 101.406579 
L 168.905856 97.634198 
L 169.026325 109.705815 
L 169.146793 107.819625 
L 169.207027 102.915531 
L 169.267262 105.178959 
L 169.327496 102.161055 
L 169.508199 110.083053 
L 169.628667 101.029341 
L 169.688901 101.783817 
L 169.869604 110.837529 
L 169.929838 111.592006 
L 169.990073 118.38229 
L 170.050307 113.100958 
L 170.170775 116.873338 
L 170.231009 108.951339 
L 170.291244 113.478196 
L 170.351478 116.873338 
L 170.532181 102.915531 
L 170.652649 109.705815 
L 170.95382 132.717335 
L 171.134523 121.400194 
L 171.194757 125.927051 
L 171.435694 112.346482 
L 172.098271 82.921915 
L 172.158505 84.808105 
L 172.21874 85.562582 
L 172.399442 68.209632 
L 172.459677 73.490965 
L 172.519911 71.227536 
L 172.580145 71.227536 
L 172.640379 74.622679 
L 172.700613 73.490965 
L 172.760848 73.113727 
L 172.821082 74.245441 
L 172.94155 70.850298 
L 173.001785 77.263345 
L 173.36319 48.216017 
L 173.423424 48.970493 
L 173.483659 47.084303 
L 173.664361 59.533158 
L 173.78483 62.9283 
L 173.845064 58.024205 
L 174.086001 70.850298 
L 174.146235 70.47306 
L 174.326938 78.017821 
L 174.447407 83.676391 
L 174.567875 78.772297 
L 174.628109 79.526773 
L 174.688344 84.430867 
L 174.748578 81.412963 
L 174.869046 85.562582 
L 174.929281 80.281249 
L 175.049749 85.562582 
L 175.109983 84.808105 
L 175.170218 81.790201 
L 175.35092 95.37077 
L 175.471389 85.93982 
L 175.652091 95.748008 
L 175.712326 87.82601 
L 175.77256 91.59839 
L 175.893028 103.292769 
L 175.953263 97.634198 
L 176.013497 99.897627 
L 176.133965 98.388675 
L 176.254434 104.047245 
L 176.314668 101.783817 
L 176.435137 96.125246 
L 176.495371 102.161055 
L 176.555605 101.406579 
L 176.615839 102.161055 
L 176.676074 106.687911 
L 176.796542 100.274865 
L 176.856776 101.029341 
L 176.917011 106.310673 
L 176.977245 105.933435 
L 177.037479 105.556197 
L 177.097713 99.520389 
L 177.157948 101.783817 
L 177.278416 99.143151 
L 177.459119 109.705815 
L 177.519353 108.951339 
L 177.820524 117.250576 
L 178.001227 129.322193 
L 178.061461 128.944955 
L 178.121695 137.244192 
L 178.18193 136.112477 
L 178.302398 124.040861 
L 178.362632 128.190479 
L 178.422867 127.813241 
L 178.483101 125.927051 
L 178.543335 128.190479 
L 178.603569 124.040861 
L 178.844506 133.849049 
L 179.085443 112.72372 
L 179.145678 114.60991 
L 179.205912 111.592006 
L 179.266146 116.873338 
L 179.446849 101.783817 
L 179.507083 105.178959 
L 179.567317 105.178959 
L 179.687786 100.274865 
L 179.868489 90.089438 
L 179.928723 91.59839 
L 179.988957 90.466676 
L 180.109426 91.59839 
L 180.16966 91.221152 
L 180.229894 93.107342 
L 180.470831 86.694296 
L 180.531065 78.772297 
L 180.591299 80.281249 
L 180.651534 77.640583 
L 180.832236 84.430867 
L 180.892471 85.562582 
L 181.012939 93.48458 
L 181.073173 88.957724 
L 181.133408 89.334962 
L 181.193642 88.957724 
L 181.253876 87.82601 
L 181.434579 98.388675 
L 181.494813 96.125246 
L 181.615282 106.687911 
L 181.675516 102.161055 
L 181.73575 102.538293 
L 182.15739 116.4961 
L 182.277858 109.328577 
L 182.458561 117.250576 
L 182.518795 118.759528 
L 182.699498 109.328577 
L 182.759732 113.100958 
L 182.819967 110.837529 
L 182.880201 110.460291 
L 183.121138 125.549813 
L 183.181372 124.418099 
L 183.362075 108.951339 
L 183.542777 104.801721 
L 183.663246 100.274865 
L 183.783714 88.957724 
L 183.843949 93.48458 
L 183.904183 92.352866 
L 184.024651 84.053629 
L 184.325823 98.011437 
L 184.506525 90.466676 
L 184.56676 91.59839 
L 184.687228 99.520389 
L 184.928165 83.299153 
L 185.048634 83.676391 
L 185.169102 87.448772 
L 185.229336 86.694296 
L 185.289571 88.203248 
L 185.349805 81.412963 
L 185.410039 85.93982 
L 185.470273 88.580486 
L 185.530508 87.82601 
L 185.71121 83.299153 
L 185.891913 93.861818 
L 185.952147 95.37077 
L 186.313553 116.4961 
L 186.614724 99.143151 
L 186.735192 93.861818 
L 186.795427 96.502484 
L 186.855661 94.993532 
L 186.915895 96.879722 
L 187.096598 90.843914 
L 187.337535 98.765913 
L 187.397769 93.861818 
L 187.458003 94.993532 
L 187.518238 96.502484 
L 187.578472 92.730104 
L 187.638706 99.143151 
L 187.69894 94.993532 
L 187.759175 99.520389 
L 187.819409 97.634198 
L 188.000112 90.466676 
L 188.12058 92.730104 
L 188.180814 88.957724 
L 188.241049 94.239056 
L 188.301283 91.221152 
L 188.361517 81.790201 
L 188.421751 85.562582 
L 188.481985 85.93982 
L 188.54222 87.448772 
L 188.662688 82.167439 
L 188.722922 83.299153 
L 188.783157 88.957724 
L 188.843391 82.544677 
L 188.903625 87.82601 
L 188.963859 87.448772 
L 189.084328 81.790201 
L 189.144562 84.808105 
L 189.204796 78.395059 
L 189.265031 84.053629 
L 189.325265 82.167439 
L 189.505968 84.053629 
L 189.566202 84.053629 
L 189.626436 81.790201 
L 189.68667 83.676391 
L 189.746905 85.185344 
L 189.927607 92.352866 
L 189.987842 94.616294 
L 190.10831 87.82601 
L 190.228779 95.748008 
L 190.289013 94.993532 
L 190.349247 96.502484 
L 190.469716 105.556197 
L 190.52995 104.047245 
L 190.590184 105.933435 
L 190.650418 97.25696 
L 190.710653 98.011437 
L 190.770887 106.310673 
L 190.831121 103.670007 
L 190.891355 97.634198 
L 190.95159 99.143151 
L 191.312995 117.627814 
L 191.553932 110.460291 
L 191.794869 131.962859 
L 191.855103 130.076669 
L 191.915337 133.094573 
L 192.09604 121.022956 
L 192.156274 121.777432 
L 192.336977 109.328577 
L 192.397211 110.837529 
L 192.51768 117.250576 
L 192.818851 98.388675 
L 192.879085 98.765913 
L 192.999554 96.879722 
L 193.120022 101.783817 
L 193.180257 101.783817 
L 193.240491 94.616294 
L 193.300725 99.897627 
L 193.360959 99.143151 
L 193.421194 96.502484 
L 193.481428 102.161055 
L 193.541662 98.765913 
L 193.662131 92.730104 
L 193.722365 84.808105 
L 193.963302 110.837529 
L 194.204239 81.035725 
L 194.264473 87.071534 
L 194.384941 78.772297 
L 194.625878 91.221152 
L 194.806581 103.292769 
L 194.866815 95.748008 
L 194.92705 98.388675 
L 194.987284 96.502484 
L 195.228221 106.687911 
L 195.288455 106.687911 
L 195.348689 104.424483 
L 195.469158 109.328577 
L 195.529392 108.196863 
L 195.890798 89.7122 
L 195.951032 88.203248 
L 196.0715 90.466676 
L 196.131735 97.25696 
L 196.191969 92.730104 
L 196.252203 91.221152 
L 196.312437 84.053629 
L 196.372672 85.93982 
L 196.49314 96.125246 
L 196.613608 104.047245 
L 196.673843 94.239056 
L 196.854545 112.72372 
L 196.91478 112.346482 
L 197.035248 110.083053 
L 197.215951 101.029341 
L 197.336419 109.705815 
L 197.396654 107.065149 
L 197.517122 94.993532 
L 197.577356 95.37077 
L 197.818293 99.897627 
L 197.938762 98.765913 
L 197.998996 94.616294 
L 198.119465 100.274865 
L 198.179699 98.765913 
L 198.239933 107.065149 
L 198.300167 105.178959 
L 198.661573 91.975628 
L 198.721807 94.616294 
L 198.782041 90.843914 
L 198.842276 95.37077 
L 198.90251 94.616294 
L 199.143447 75.377155 
L 199.203681 75.377155 
L 199.324149 82.167439 
L 199.384384 81.035725 
L 199.444618 79.904011 
L 199.625321 87.448772 
L 199.806023 75.754393 
L 199.866258 76.131631 
L 199.926492 78.017821 
L 200.287897 67.077918 
L 200.4686 81.790201 
L 200.528834 81.035725 
L 200.589069 83.676391 
L 200.649303 76.886107 
L 200.709537 80.281249 
L 200.769771 79.526773 
L 200.830006 77.263345 
L 200.89024 84.430867 
L 200.950474 81.790201 
L 201.070943 73.868203 
L 201.131177 74.999917 
L 201.251645 73.490965 
L 201.31188 69.718584 
L 201.613051 94.239056 
L 201.733519 87.82601 
L 201.853988 91.221152 
L 202.03469 85.93982 
L 202.45633 112.346482 
L 202.516564 112.72372 
L 202.637033 121.022956 
L 202.697267 120.645718 
L 202.87797 116.118862 
L 202.938204 116.4961 
L 203.058673 120.26848 
L 203.118907 116.873338 
L 203.179141 124.418099 
L 203.239375 124.040861 
L 203.359844 110.460291 
L 203.420078 112.72372 
L 203.540547 121.400194 
L 203.600781 121.022956 
L 203.721249 118.38229 
L 203.781484 119.891242 
L 203.841718 117.627814 
L 203.901952 120.26848 
L 204.022421 104.047245 
L 204.082655 105.178959 
L 204.263358 91.975628 
L 204.323592 93.48458 
L 204.504294 98.011437 
L 204.624763 97.25696 
L 204.8657 79.526773 
L 204.925934 81.035725 
L 205.046403 72.736489 
L 205.106637 79.904011 
L 205.166871 74.622679 
L 205.227105 78.772297 
L 205.28734 76.508869 
L 205.347574 72.359251 
L 205.407808 74.245441 
L 205.528277 78.395059 
L 205.588511 75.377155 
L 205.648745 76.508869 
L 205.769214 78.772297 
L 205.889682 84.808105 
L 205.949916 82.921915 
L 206.130619 94.993532 
L 206.311322 88.957724 
L 206.371556 88.580486 
L 206.732962 103.292769 
L 206.913664 87.071534 
L 206.973898 86.317058 
L 207.034133 87.82601 
L 207.214835 96.879722 
L 207.27507 99.897627 
L 207.335304 96.125246 
L 207.516007 104.801721 
L 207.576241 107.442387 
L 207.636475 106.687911 
L 207.696709 105.178959 
L 207.756944 108.574101 
L 207.937646 98.765913 
L 207.997881 97.25696 
L 208.178583 108.574101 
L 208.720692 71.604774 
L 208.780926 81.412963 
L 208.84116 78.017821 
L 208.961629 75.377155 
L 209.021863 81.412963 
L 209.082097 80.281249 
L 209.142331 79.526773 
L 209.202566 90.843914 
L 209.2628 87.82601 
L 209.323034 89.334962 
L 209.624205 83.299153 
L 209.684439 84.808105 
L 209.804908 76.508869 
L 209.865142 81.035725 
L 210.045845 70.47306 
L 210.286782 75.377155 
L 210.347016 74.999917 
L 210.40725 76.131631 
L 210.467485 70.47306 
L 210.527719 76.508869 
L 210.708422 67.832394 
L 210.949359 78.772297 
L 211.009593 75.377155 
L 211.130061 81.412963 
L 211.310764 72.736489 
L 211.370998 74.999917 
L 211.551701 62.173824 
L 211.611935 51.233921 
L 211.732404 62.551062 
L 211.852872 56.515253 
L 211.973341 60.287634 
L 212.093809 51.611159 
L 212.154044 60.287634 
L 212.214278 59.533158 
L 212.334746 54.251825 
L 212.39498 54.629063 
L 212.575683 61.796586 
L 212.635917 61.04211 
L 212.696152 58.024205 
L 212.756386 61.419348 
L 212.81662 58.778681 
L 212.876854 60.664872 
L 212.997323 53.120111 
L 213.117791 60.664872 
L 213.298494 74.999917 
L 213.479197 70.095822 
L 213.539431 68.964108 
L 213.6599 73.113727 
L 213.720134 72.359251 
L 213.780368 72.359251 
L 213.840602 71.982012 
L 214.021305 91.221152 
L 214.081539 84.808105 
L 214.141774 84.430867 
L 214.503179 105.178959 
L 214.563413 98.388675 
L 214.623648 104.801721 
L 214.683882 102.161055 
L 214.744116 104.801721 
L 214.80435 104.047245 
L 214.864584 99.897627 
L 214.924819 105.178959 
L 214.985053 101.029341 
L 215.045287 102.538293 
L 215.165756 110.837529 
L 215.22599 109.705815 
L 215.286224 106.310673 
L 215.346458 108.196863 
L 215.466927 113.478196 
L 215.527161 113.100958 
L 215.707864 98.765913 
L 215.888567 110.083053 
L 215.948801 107.065149 
L 216.009035 112.72372 
L 216.069269 109.328577 
L 216.370441 96.879722 
L 216.430675 98.011437 
L 216.490909 98.011437 
L 216.551143 99.520389 
L 216.671612 91.59839 
L 216.731846 86.317058 
L 216.852315 93.48458 
L 217.093252 84.808105 
L 217.153486 87.82601 
L 217.21372 83.299153 
L 217.394423 90.843914 
L 217.454657 89.334962 
L 217.575125 82.921915 
L 217.695594 94.616294 
L 217.816062 93.48458 
L 217.876297 92.352866 
L 217.936531 96.879722 
L 217.996765 96.125246 
L 218.056999 96.125246 
L 218.358171 102.538293 
L 218.418405 96.879722 
L 218.478639 97.634198 
L 218.538873 99.520389 
L 218.599108 107.065149 
L 218.659342 104.801721 
L 218.719576 101.783817 
L 218.77981 105.556197 
L 218.900279 100.274865 
L 218.960513 101.783817 
L 219.141216 112.346482 
L 219.261684 107.065149 
L 219.321919 107.442387 
L 219.382153 114.60991 
L 219.442387 114.232672 
L 219.502621 114.60991 
L 219.562856 112.72372 
L 219.62309 118.38229 
L 219.683324 110.460291 
L 219.743558 110.837529 
L 219.864027 108.196863 
L 219.984495 116.118862 
L 220.04473 112.72372 
L 220.104964 110.083053 
L 220.285666 118.005052 
L 220.345901 115.364386 
L 220.406135 115.741624 
L 220.466369 116.873338 
L 220.707306 108.196863 
L 220.76754 111.592006 
L 220.827775 108.574101 
L 220.948243 114.232672 
L 221.068712 109.328577 
L 221.369883 130.076669 
L 221.430117 124.418099 
L 221.550586 131.585621 
L 221.731288 117.250576 
L 221.791523 116.118862 
L 222.092694 130.831145 
L 222.333631 118.005052 
L 222.393865 114.987148 
L 222.514334 124.040861 
L 222.574568 118.38229 
L 222.634802 121.022956 
L 222.695036 121.022956 
L 222.75527 117.250576 
L 222.815505 123.663622 
L 222.875739 122.15467 
L 223.116676 111.969244 
L 223.17691 110.460291 
L 223.297379 118.005052 
L 223.417847 115.364386 
L 223.478081 118.38229 
L 223.658784 110.460291 
L 223.899721 93.48458 
L 223.959955 93.107342 
L 224.140658 103.292769 
L 224.502064 79.149535 
L 224.622532 87.82601 
L 224.803235 96.502484 
L 224.863469 95.748008 
L 224.983938 92.730104 
L 225.044172 93.48458 
L 225.104406 90.843914 
L 225.16464 93.107342 
L 225.224875 90.466676 
L 225.345343 95.37077 
L 225.405577 91.975628 
L 225.526046 99.143151 
L 225.58628 98.388675 
L 225.766983 83.676391 
L 225.947685 89.334962 
L 226.068154 75.377155 
L 226.128388 78.017821 
L 226.188622 78.395059 
L 226.248857 80.658487 
L 226.309091 78.772297 
L 226.369325 78.772297 
L 226.489794 79.526773 
L 226.550028 70.850298 
L 226.610262 76.886107 
L 226.670496 75.377155 
L 226.851199 82.544677 
L 227.031902 70.850298 
L 227.092136 71.227536 
L 227.272839 67.832394 
L 227.333073 71.227536 
L 227.393307 69.718584 
L 227.453542 70.47306 
L 227.513776 67.832394 
L 227.57401 71.227536 
L 227.694479 65.946204 
L 227.814947 71.227536 
L 227.875181 64.060014 
L 227.935416 68.58687 
L 227.99565 68.58687 
L 228.176352 73.113727 
L 228.357055 66.70068 
L 228.477524 77.263345 
L 228.537758 76.886107 
L 228.597992 86.317058 
L 228.658226 85.93982 
L 228.718461 82.167439 
L 228.778695 83.299153 
L 228.959398 94.239056 
L 229.019632 87.82601 
L 229.079866 90.843914 
L 229.260569 94.993532 
L 229.320803 93.48458 
L 229.381037 98.388675 
L 229.441272 97.25696 
L 229.501506 92.730104 
L 229.56174 99.143151 
L 229.621974 93.48458 
L 229.682209 98.011437 
L 229.742443 97.25696 
L 229.802677 105.556197 
L 229.98338 92.352866 
L 230.164083 98.765913 
L 230.224317 94.993532 
L 230.284551 98.388675 
L 230.40502 92.730104 
L 230.826659 102.915531 
L 231.007362 94.239056 
L 231.067596 95.748008 
L 231.12783 102.161055 
L 231.188065 99.143151 
L 231.248299 92.730104 
L 231.308533 94.239056 
L 231.368767 95.37077 
L 231.429002 100.652103 
L 231.489236 96.879722 
L 231.54947 94.616294 
L 231.790407 107.442387 
L 232.031344 128.944955 
L 232.091578 125.549813 
L 232.151813 125.172575 
L 232.212047 121.777432 
L 232.272281 124.418099 
L 232.332515 123.286384 
L 232.452984 128.567717 
L 232.513218 122.909146 
L 232.573452 127.813241 
L 232.633687 124.795337 
L 232.754155 126.681527 
L 232.814389 121.777432 
L 232.934858 131.208383 
L 232.995092 128.190479 
L 233.236029 119.136766 
L 233.657669 106.310673 
L 233.717903 106.687911 
L 234.019074 91.975628 
L 234.079308 91.59839 
L 234.320245 76.886107 
L 234.561182 58.024205 
L 234.741885 65.191728 
L 234.802119 61.796586 
L 234.862354 64.437252 
L 234.922588 67.077918 
L 234.982822 57.646967 
L 235.043056 64.060014 
L 235.344228 75.377155 
L 235.404462 75.377155 
L 235.464696 74.622679 
L 235.52493 76.508869 
L 235.765867 92.352866 
L 235.826102 85.185344 
L 235.94657 97.634198 
L 236.006804 96.502484 
L 236.067038 96.879722 
L 236.428444 120.26848 
L 236.548912 119.891242 
L 236.729615 115.741624 
L 236.850084 119.891242 
L 236.910318 116.4961 
L 237.091021 124.418099 
L 237.151255 123.663622 
L 237.331958 133.849049 
L 237.392192 133.849049 
L 237.813832 110.460291 
L 237.9343 117.250576 
L 238.115003 102.538293 
L 238.175237 104.801721 
L 238.235471 113.478196 
L 238.295706 107.442387 
L 238.35594 102.161055 
L 238.416174 105.178959 
L 238.536642 116.4961 
L 238.596877 112.72372 
L 238.657111 113.478196 
L 238.717345 116.4961 
L 238.958282 99.143151 
L 239.018516 99.520389 
L 239.078751 101.783817 
L 239.138985 100.274865 
L 239.259453 93.48458 
L 239.319688 101.783817 
L 239.560625 84.430867 
L 239.741327 71.982012 
L 239.92203 98.388675 
L 239.982264 96.125246 
L 240.042499 88.580486 
L 240.102733 92.730104 
L 240.162967 91.975628 
L 240.223201 94.993532 
L 240.283436 91.975628 
L 240.34367 93.107342 
L 240.524373 104.801721 
L 240.705075 108.574101 
L 240.76531 108.196863 
L 240.825544 109.328577 
L 241.126715 86.317058 
L 241.186949 91.975628 
L 241.247183 91.975628 
L 241.668823 113.478196 
L 241.729057 111.214768 
L 241.789292 111.214768 
L 241.849526 112.346482 
L 241.90976 110.460291 
L 241.969994 113.478196 
L 242.030229 110.837529 
L 242.210931 101.406579 
L 242.391634 87.448772 
L 242.451868 89.7122 
L 242.572337 82.167439 
L 242.632571 82.921915 
L 242.75304 84.430867 
L 242.813274 76.508869 
L 242.873508 83.299153 
L 243.054211 63.682776 
L 243.114445 64.81449 
L 243.174679 65.946204 
L 243.234914 64.81449 
L 243.355382 59.533158 
L 243.475851 67.455156 
L 243.536085 74.622679 
L 243.596319 68.58687 
L 243.656553 71.604774 
L 243.777022 67.455156 
L 243.89749 75.377155 
L 244.138427 65.568966 
L 244.198661 64.81449 
L 244.258896 68.58687 
L 244.31913 65.946204 
L 244.439598 61.04211 
L 244.620301 73.490965 
L 244.680535 70.47306 
L 244.74077 74.245441 
L 244.801004 70.850298 
L 244.861238 71.227536 
L 244.981707 73.113727 
L 245.162409 65.946204 
L 245.282878 64.437252 
L 245.463581 73.113727 
L 245.523815 69.718584 
L 245.764752 79.526773 
L 245.945455 73.868203 
L 246.005689 74.245441 
L 246.126157 73.490965 
L 246.186392 70.47306 
L 246.246626 70.850298 
L 246.30686 72.736489 
L 246.367094 72.359251 
L 246.427328 67.455156 
L 246.608031 76.508869 
L 246.668265 73.490965 
L 246.848968 93.107342 
L 246.909202 88.203248 
L 247.029671 74.245441 
L 247.089905 76.508869 
L 247.150139 77.640583 
L 247.391076 98.388675 
L 247.451311 104.801721 
L 247.511545 102.161055 
L 247.571779 96.879722 
L 247.632013 99.520389 
L 247.752482 94.239056 
L 247.812716 90.466676 
L 247.87295 91.59839 
L 247.933185 94.993532 
L 248.053653 85.185344 
L 248.174122 88.580486 
L 248.29459 83.299153 
L 248.475293 93.48458 
L 248.655996 85.185344 
L 248.71623 76.886107 
L 248.776464 79.526773 
L 248.836698 78.395059 
L 249.017401 63.305538 
L 249.077635 69.341346 
L 249.137869 64.437252 
L 249.258338 56.892491 
L 249.499275 73.113727 
L 249.740212 49.347731 
L 249.86068 51.233921 
L 249.981149 58.024205 
L 250.101617 58.778681 
L 250.28232 68.964108 
L 250.583491 61.796586 
L 250.70396 64.060014 
L 250.884663 52.365635 
L 250.944897 54.251825 
L 251.065365 61.419348 
L 251.1256 69.718584 
L 251.185834 63.305538 
L 251.246068 63.682776 
L 251.426771 74.999917 
L 251.487005 70.850298 
L 251.667708 79.149535 
L 251.727942 69.718584 
L 251.788176 72.736489 
L 251.84841 76.508869 
L 251.908645 74.622679 
L 251.968879 73.490965 
L 252.209816 86.317058 
L 252.27005 84.808105 
L 252.330284 78.395059 
L 252.450753 84.808105 
L 252.510987 83.676391 
L 252.571221 77.640583 
L 252.631456 82.921915 
L 252.751924 78.395059 
L 252.812158 88.203248 
L 252.872393 86.317058 
L 253.173564 67.455156 
L 253.414501 77.640583 
L 253.534969 70.095822 
L 253.715672 86.317058 
L 253.775906 87.448772 
L 253.896375 91.975628 
L 253.956609 87.448772 
L 254.016843 87.82601 
L 254.137312 90.843914 
L 254.197546 90.466676 
L 254.318015 81.790201 
L 254.438483 91.221152 
L 254.498717 90.466676 
L 254.67942 82.167439 
L 254.739654 83.676391 
L 254.920357 75.754393 
L 255.10106 81.790201 
L 255.221528 70.095822 
L 255.281762 71.604774 
L 255.341997 72.359251 
L 255.402231 70.850298 
L 255.582934 85.93982 
L 255.643168 86.694296 
L 255.703402 85.185344 
L 255.763636 91.975628 
L 255.823871 90.089438 
L 255.884105 92.730104 
L 256.004573 83.676391 
L 256.064808 87.071534 
L 256.24551 74.622679 
L 256.305745 76.131631 
L 256.365979 78.772297 
L 256.486447 68.209632 
L 256.787619 90.843914 
L 256.908087 84.808105 
L 256.968321 86.694296 
L 257.149024 94.616294 
L 257.450195 112.72372 
L 257.510429 109.328577 
L 257.751366 120.26848 
L 257.811601 121.400194 
L 257.932069 117.627814 
L 257.992303 110.837529 
L 258.052538 111.592006 
L 258.173006 114.60991 
L 258.353709 107.065149 
L 258.413943 108.574101 
L 258.474177 105.556197 
L 258.895817 130.076669 
L 258.956051 130.831145 
L 259.016286 129.322193 
L 259.136754 118.759528 
L 259.196988 119.136766 
L 259.257223 117.627814 
L 259.317457 123.663622 
L 259.377691 121.777432 
L 259.437925 118.005052 
L 259.49816 119.136766 
L 259.558394 122.531908 
L 259.618628 119.891242 
L 259.859565 101.029341 
L 259.919799 102.538293 
L 260.100502 113.855434 
L 260.341439 117.627814 
L 260.401673 121.400194 
L 260.461907 119.514004 
L 260.64261 106.310673 
L 260.823313 118.005052 
L 260.943781 113.855434 
L 261.004016 117.627814 
L 261.184718 107.819625 
L 261.244953 108.574101 
L 261.425655 101.406579 
L 261.48589 101.783817 
L 261.666592 112.72372 
L 261.726827 107.819625 
L 261.787061 104.047245 
L 261.847295 105.556197 
L 261.907529 109.328577 
L 262.027998 98.388675 
L 262.088232 104.801721 
L 262.148466 97.634198 
L 262.208701 102.538293 
L 262.268935 108.951339 
L 262.329169 104.047245 
L 262.509872 92.730104 
L 262.570106 94.616294 
L 262.63034 91.221152 
L 262.811043 98.388675 
L 262.871277 96.502484 
L 262.991746 99.520389 
L 263.05198 98.388675 
L 263.232683 89.7122 
L 263.292917 95.37077 
L 263.353151 90.843914 
L 263.413385 82.544677 
L 263.47362 85.562582 
L 263.533854 84.808105 
L 263.594088 88.580486 
L 263.654322 82.921915 
L 263.714557 83.676391 
L 263.774791 82.921915 
L 263.895259 88.203248 
L 264.075962 75.754393 
L 264.136196 76.131631 
L 264.196431 81.790201 
L 264.256665 79.904011 
L 264.316899 76.886107 
L 264.377133 77.640583 
L 264.437368 84.053629 
L 264.497602 79.149535 
L 264.61807 79.904011 
L 264.738539 75.377155 
L 264.859007 78.395059 
L 264.979476 69.341346 
L 265.03971 75.377155 
L 265.160178 68.964108 
L 265.220413 70.095822 
L 265.280647 73.490965 
L 265.401115 69.341346 
L 265.581818 72.736489 
L 265.702287 66.323442 
L 265.822755 78.772297 
L 265.882989 75.754393 
L 266.003458 64.81449 
L 266.184161 71.227536 
L 266.244395 66.70068 
L 266.304629 69.718584 
L 266.425098 74.622679 
L 266.726269 63.305538 
L 266.786503 67.455156 
L 266.846737 64.437252 
L 266.906972 65.946204 
L 266.967206 73.490965 
L 267.02744 66.70068 
L 267.087674 68.209632 
L 267.208143 81.412963 
L 267.268377 78.395059 
L 267.328611 80.658487 
L 267.388846 74.999917 
L 267.44908 75.754393 
L 267.509314 76.886107 
L 267.569548 76.508869 
L 267.690017 68.209632 
L 267.750251 69.718584 
L 268.051422 90.089438 
L 268.111656 89.7122 
L 268.171891 85.562582 
L 268.232125 87.448772 
L 268.352593 89.334962 
L 268.412828 86.694296 
L 268.473062 78.395059 
L 268.533296 83.299153 
L 268.774233 91.59839 
L 268.954936 86.317058 
L 269.01517 85.93982 
L 269.075404 86.694296 
L 269.135639 90.843914 
L 269.376576 77.640583 
L 269.43681 80.281249 
L 269.497044 79.526773 
L 269.677747 68.209632 
L 269.85845 84.808105 
L 269.918684 81.790201 
L 269.978918 81.790201 
L 270.039152 82.167439 
L 270.159621 86.694296 
L 270.280089 78.017821 
L 270.340323 79.149535 
L 270.400558 79.904011 
L 270.641495 67.077918 
L 270.882432 89.334962 
L 271.0029 85.93982 
L 271.123369 81.035725 
L 271.183603 76.886107 
L 271.243837 80.281249 
L 271.42454 94.993532 
L 271.484774 91.975628 
L 271.545008 88.580486 
L 271.725711 104.801721 
L 271.785945 99.520389 
L 272.026882 113.855434 
L 272.087117 111.969244 
L 272.147351 114.232672 
L 272.267819 100.274865 
L 272.328054 102.915531 
L 272.568991 111.214768 
L 272.629225 110.460291 
L 272.689459 111.592006 
L 272.809927 102.915531 
L 272.870162 105.933435 
L 273.050864 111.592006 
L 273.231567 104.047245 
L 273.41227 95.37077 
L 273.472504 95.748008 
L 273.532738 94.993532 
L 273.653207 96.879722 
L 273.773675 92.730104 
L 273.83391 90.843914 
L 273.954378 94.239056 
L 274.074847 90.466676 
L 274.135081 91.59839 
L 274.255549 92.352866 
L 274.315784 93.48458 
L 274.376018 93.107342 
L 274.436252 88.580486 
L 274.496486 93.107342 
L 274.556721 83.299153 
L 274.616955 86.694296 
L 274.737423 86.694296 
L 275.098829 68.58687 
L 275.279532 76.886107 
L 275.339766 74.622679 
L 275.4 77.263345 
L 275.460234 73.868203 
L 275.640937 80.658487 
L 275.82164 73.113727 
L 275.942108 76.508869 
L 276.243279 68.209632 
L 276.303514 70.850298 
L 276.363748 69.718584 
L 276.423982 67.832394 
L 276.664919 81.035725 
L 276.725153 77.640583 
L 276.785388 75.754393 
L 276.96609 81.412963 
L 277.086559 76.886107 
L 277.207027 81.035725 
L 277.267262 74.999917 
L 277.568433 100.274865 
L 277.628667 97.25696 
L 277.688901 87.448772 
L 277.749136 91.975628 
L 277.929838 97.634198 
L 277.990073 93.48458 
L 278.351478 113.855434 
L 278.471946 112.72372 
L 278.712883 120.645718 
L 278.773118 117.250576 
L 278.833352 120.645718 
L 279.134523 102.538293 
L 279.315226 111.592006 
L 279.37546 107.819625 
L 279.495929 114.232672 
L 279.556163 110.837529 
L 279.676631 120.645718 
L 279.736866 119.136766 
L 280.038037 106.310673 
L 280.158505 115.364386 
L 280.21874 110.460291 
L 280.278974 113.855434 
L 280.339208 111.592006 
L 280.399442 115.741624 
L 280.580145 102.538293 
L 280.700613 94.993532 
L 280.760848 95.748008 
L 281.001785 108.196863 
L 281.122253 97.25696 
L 281.182487 104.801721 
L 281.242722 104.047245 
L 281.36319 109.705815 
L 281.543893 116.873338 
L 281.664361 105.933435 
L 281.724596 97.634198 
L 281.78483 98.388675 
L 281.845064 99.520389 
L 281.965533 104.047245 
L 282.266704 94.993532 
L 282.447407 111.592006 
L 282.507641 110.460291 
L 282.567875 108.951339 
L 282.929281 125.172575 
L 282.989515 120.26848 
L 283.109983 127.058765 
L 283.411154 107.819625 
L 283.531623 111.969244 
L 283.591857 109.328577 
L 283.652091 111.969244 
L 283.832794 106.310673 
L 284.013497 105.178959 
L 284.073731 101.783817 
L 284.1942 111.969244 
L 284.254434 101.406579 
L 284.314668 101.783817 
L 284.374902 101.029341 
L 284.676074 114.987148 
L 284.796542 108.951339 
L 284.917011 117.627814 
L 285.218182 97.634198 
L 285.278416 102.538293 
L 285.33865 98.388675 
L 285.398885 107.819625 
L 285.459119 107.442387 
L 285.519353 100.652103 
L 285.76029 121.400194 
L 285.880759 118.38229 
L 285.940993 118.759528 
L 286.061461 114.232672 
L 286.121695 118.38229 
L 286.18193 111.969244 
L 286.242164 114.60991 
L 286.302398 115.364386 
L 286.422867 109.705815 
L 286.483101 118.005052 
L 286.543335 112.72372 
L 286.603569 110.083053 
L 286.663804 118.38229 
L 286.724038 115.741624 
L 286.904741 118.38229 
L 286.964975 119.514004 
L 287.085443 111.214768 
L 287.145678 114.232672 
L 287.205912 114.987148 
L 287.266146 108.951339 
L 287.32638 110.083053 
L 287.386615 111.969244 
L 287.446849 108.951339 
L 287.74802 129.699431 
L 287.868489 121.400194 
L 287.928723 122.909146 
L 288.16966 108.951339 
L 288.410597 125.172575 
L 288.470831 121.400194 
L 288.531065 115.741624 
L 288.591299 118.38229 
L 288.651534 115.364386 
L 288.711768 119.891242 
L 288.772002 116.873338 
L 288.832236 117.627814 
L 288.892471 117.250576 
L 288.952705 114.232672 
L 289.133408 125.927051 
L 289.31411 122.909146 
L 289.374345 127.058765 
L 289.434579 122.15467 
L 289.555047 128.944955 
L 289.615282 127.058765 
L 289.675516 130.831145 
L 289.73575 124.418099 
L 289.795984 125.172575 
L 289.916453 131.585621 
L 290.097156 116.4961 
L 290.217624 119.136766 
L 290.277858 118.759528 
L 290.338093 124.040861 
L 290.398327 120.26848 
L 290.57903 125.927051 
L 290.699498 122.531908 
L 290.819967 105.933435 
L 290.880201 108.574101 
L 291.000669 117.627814 
L 291.181372 104.801721 
L 291.362075 114.987148 
L 291.422309 114.232672 
L 291.663246 110.837529 
L 291.783714 108.196863 
L 291.904183 113.855434 
L 292.084886 98.388675 
L 292.205354 106.687911 
L 292.446291 93.48458 
L 292.506525 93.861818 
L 292.56676 96.502484 
L 292.687228 92.352866 
L 292.867931 103.292769 
L 292.928165 97.25696 
L 292.988399 98.765913 
L 293.169102 105.178959 
L 293.289571 111.592006 
L 293.410039 102.161055 
L 293.590742 110.837529 
L 293.650976 110.460291 
L 293.71121 112.72372 
L 293.771445 111.969244 
L 294.012381 98.388675 
L 294.072616 99.897627 
L 294.13285 104.047245 
L 294.193084 101.406579 
L 294.253318 104.424483 
L 294.373787 99.143151 
L 294.494255 104.801721 
L 294.614724 91.975628 
L 294.795427 105.556197 
L 294.855661 103.292769 
L 294.915895 101.406579 
L 294.976129 94.616294 
L 295.036364 99.897627 
L 295.096598 105.556197 
L 295.277301 90.843914 
L 295.337535 90.089438 
L 295.69894 67.077918 
L 295.879643 76.131631 
L 296.000112 77.263345 
L 296.180814 64.81449 
L 296.361517 71.227536 
L 296.421751 73.490965 
L 296.481985 71.604774 
L 296.662688 61.04211 
L 296.722922 59.910396 
L 296.963859 69.718584 
L 297.024094 69.341346 
L 297.084328 64.060014 
L 297.144562 66.70068 
L 297.204796 65.568966 
L 297.325265 67.455156 
L 297.445733 61.04211 
L 297.505968 55.760777 
L 297.807139 85.93982 
L 297.867373 85.185344 
L 298.10831 98.011437 
L 298.168544 98.011437 
L 298.349247 93.861818 
L 298.409481 91.59839 
L 298.469716 98.011437 
L 298.52995 96.502484 
L 298.590184 98.765913 
L 298.650418 91.975628 
L 298.710653 95.37077 
L 298.770887 92.352866 
L 298.831121 94.239056 
L 299.011824 99.143151 
L 299.072058 96.502484 
L 299.132292 99.143151 
L 299.373229 90.089438 
L 299.493698 93.861818 
L 299.614166 84.430867 
L 299.6744 84.808105 
L 299.794869 92.352866 
L 299.855103 89.334962 
L 300.035806 76.508869 
L 300.09604 68.209632 
L 300.156274 70.095822 
L 300.216509 71.227536 
L 300.276743 70.47306 
L 300.336977 70.47306 
L 300.397211 69.341346 
L 300.457446 65.191728 
L 300.51768 70.47306 
L 300.577914 67.455156 
L 300.638148 70.095822 
L 300.698383 67.077918 
L 300.818851 74.999917 
L 300.999554 66.323442 
L 301.180257 69.718584 
L 301.300725 63.305538 
L 301.360959 66.323442 
L 301.421194 68.58687 
L 301.481428 67.832394 
L 301.662131 56.515253 
L 301.782599 63.305538 
L 301.842833 59.533158 
L 301.903067 62.551062 
L 301.963302 65.946204 
L 302.023536 61.419348 
L 302.08377 64.81449 
L 302.264473 68.58687 
L 302.324707 68.964108 
L 302.384941 63.305538 
L 302.445176 66.323442 
L 302.50541 70.850298 
L 302.565644 67.455156 
L 302.625878 64.437252 
L 302.686113 67.832394 
L 302.866815 59.15592 
L 302.92705 57.269729 
L 303.047518 63.305538 
L 303.107752 61.796586 
L 303.167987 62.9283 
L 303.469158 75.377155 
L 303.589626 68.209632 
L 303.649861 68.58687 
L 303.710095 73.490965 
L 303.770329 73.113727 
L 303.830563 68.964108 
L 303.890798 69.718584 
L 303.951032 73.490965 
L 304.011266 69.718584 
L 304.0715 75.754393 
L 304.131735 68.964108 
L 304.191969 72.359251 
L 304.252203 71.982012 
L 304.312437 68.58687 
L 304.49314 77.640583 
L 304.553374 73.113727 
L 304.91478 98.388675 
L 304.975014 95.748008 
L 305.035248 97.25696 
L 305.276185 119.136766 
L 305.336419 117.250576 
L 305.637591 103.292769 
L 305.697825 104.801721 
L 305.758059 99.143151 
L 305.938762 113.100958 
L 306.119465 108.574101 
L 306.420636 131.208383 
L 306.48087 130.453907 
L 306.721807 141.771048 
L 306.842276 132.340097 
L 306.962744 136.489715 
L 307.143447 126.304289 
L 307.263915 118.38229 
L 307.324149 105.933435 
L 307.384384 108.196863 
L 307.504852 111.214768 
L 307.806023 105.556197 
L 307.986726 111.969244 
L 308.287897 125.927051 
L 308.348132 122.15467 
L 308.408366 123.663622 
L 308.528834 132.340097 
L 308.589069 131.962859 
L 308.89024 115.741624 
L 308.950474 116.873338 
L 309.010708 115.741624 
L 309.191411 100.274865 
L 309.251645 103.670007 
L 309.492582 91.59839 
L 309.733519 118.38229 
L 309.853988 116.118862 
L 310.03469 110.460291 
L 310.155159 107.819625 
L 310.335862 120.645718 
L 310.396096 119.891242 
L 310.637033 99.143151 
L 310.697267 101.783817 
L 310.757501 110.460291 
L 310.817736 108.196863 
L 310.998438 91.59839 
L 311.118907 98.011437 
L 311.239375 94.616294 
L 311.29961 95.37077 
L 311.480312 102.161055 
L 311.781484 116.873338 
L 311.841718 117.627814 
L 312.022421 111.969244 
L 312.142889 102.538293 
L 312.263358 103.292769 
L 312.323592 105.556197 
L 312.383826 98.765913 
L 312.44406 101.406579 
L 312.745231 87.82601 
L 312.805466 88.203248 
L 313.046403 100.274865 
L 313.166871 86.317058 
L 313.227105 90.466676 
L 313.28734 91.221152 
L 313.347574 90.089438 
L 313.468042 81.412963 
L 313.528277 83.299153 
L 313.708979 96.125246 
L 313.769214 89.7122 
L 313.829448 91.221152 
L 314.010151 98.388675 
L 314.070385 99.897627 
L 314.190853 95.748008 
L 314.311322 107.065149 
L 314.371556 100.274865 
L 314.43179 104.801721 
L 314.492025 104.424483 
L 314.552259 108.574101 
L 314.732962 99.520389 
L 314.793196 107.819625 
L 314.85343 105.556197 
L 314.913664 101.406579 
L 314.973898 104.801721 
L 315.094367 107.442387 
L 315.154601 106.310673 
L 315.214835 101.406579 
L 315.27507 105.178959 
L 315.395538 106.310673 
L 315.455772 104.424483 
L 315.576241 114.232672 
L 315.636475 110.083053 
L 315.817178 128.190479 
L 315.877412 129.699431 
L 316.058115 118.759528 
L 316.118349 119.514004 
L 316.238818 118.005052 
L 316.359286 120.26848 
L 316.41952 116.4961 
L 316.479755 118.38229 
L 316.539989 118.759528 
L 316.600223 121.022956 
L 316.660457 115.364386 
L 316.720692 116.4961 
L 316.780926 119.514004 
L 316.84116 118.38229 
L 316.961629 113.855434 
L 317.142331 123.286384 
L 317.383268 107.819625 
L 317.443503 107.442387 
L 317.624205 121.777432 
L 317.744674 109.705815 
L 317.804908 111.969244 
L 318.40725 89.334962 
L 318.527719 94.616294 
L 318.708422 86.694296 
L 318.768656 89.334962 
L 318.82889 92.352866 
L 319.009593 76.508869 
L 319.069827 83.299153 
L 319.25053 75.754393 
L 319.310764 76.131631 
L 319.491467 64.437252 
L 319.551701 67.455156 
L 319.67217 74.245441 
L 319.732404 72.736489 
L 319.792638 80.658487 
L 319.852872 78.772297 
L 320.033575 60.664872 
L 320.093809 64.437252 
L 320.154044 71.227536 
L 320.39498 55.006301 
L 320.575683 62.173824 
L 320.635917 56.138015 
L 320.696152 56.515253 
L 320.81662 59.910396 
L 320.876854 54.629063 
L 320.937089 55.006301 
L 320.997323 60.287634 
L 321.057557 54.629063 
L 321.117791 59.533158 
L 321.298494 47.838779 
L 321.418963 56.515253 
L 321.479197 50.479445 
L 321.539431 53.874587 
L 321.599665 53.874587 
L 321.6599 50.102207 
L 321.720134 51.611159 
L 321.900837 55.383539 
L 322.021305 47.461541 
L 322.141774 54.629063 
L 322.202008 48.216017 
L 322.262242 51.233921 
L 322.503179 55.760777 
L 322.683882 64.437252 
L 322.744116 58.024205 
L 322.80435 58.778681 
L 322.864584 58.778681 
L 322.985053 55.760777 
L 323.165756 69.718584 
L 323.22599 68.209632 
L 323.286224 74.999917 
L 323.346458 72.359251 
L 323.406693 66.70068 
L 323.466927 68.58687 
L 323.527161 68.209632 
L 323.707864 80.281249 
L 323.888567 70.850298 
L 324.069269 75.754393 
L 324.129504 75.754393 
L 324.249972 85.185344 
L 324.370441 76.886107 
L 324.490909 77.263345 
L 324.671612 87.071534 
L 324.731846 85.93982 
L 324.79208 87.82601 
L 325.033017 79.904011 
L 325.21372 85.185344 
L 325.394423 75.754393 
L 325.454657 76.886107 
L 325.695594 62.173824 
L 325.755828 62.551062 
L 325.936531 81.412963 
L 326.056999 75.754393 
L 326.297936 87.448772 
L 326.538873 94.993532 
L 326.659342 83.299153 
L 326.719576 87.82601 
L 326.840045 98.388675 
L 326.900279 91.221152 
L 326.960513 93.48458 
L 327.020747 95.37077 
L 327.080982 93.48458 
L 327.141216 94.239056 
L 327.20145 96.502484 
L 327.442387 117.250576 
L 327.502621 114.60991 
L 327.562856 116.4961 
L 327.803793 136.866954 
L 327.864027 130.453907 
L 327.924261 127.058765 
L 328.165198 151.201999 
L 328.285666 142.525524 
L 328.345901 142.902762 
L 328.526603 134.603525 
L 328.707306 137.62143 
L 328.76754 134.226287 
L 329.128946 154.974379 
L 329.18918 154.219903 
L 329.249414 147.806856 
L 329.309649 154.597141 
L 329.369883 148.184094 
L 329.430117 151.201999 
L 329.490351 153.088189 
L 329.550586 152.333713 
L 329.61082 152.710951 
L 329.731288 154.597141 
L 330.03246 144.411714 
L 330.273397 131.208383 
L 330.333631 137.998668 
L 330.393865 134.980763 
L 330.454099 136.489715 
L 330.574568 125.549813 
L 330.634802 131.208383 
L 330.935973 121.400194 
L 330.996207 122.909146 
L 331.116676 118.759528 
L 331.17691 121.022956 
L 331.237144 119.136766 
L 331.357613 112.72372 
L 331.417847 118.38229 
L 331.59855 106.687911 
L 331.658784 108.951339 
L 331.719018 101.029341 
L 331.779253 107.065149 
L 331.899721 95.748008 
L 331.959955 96.879722 
L 332.02019 98.011437 
L 332.140658 96.125246 
L 332.321361 90.843914 
L 332.381595 92.352866 
L 332.441829 89.334962 
L 332.682766 104.047245 
L 332.743001 101.783817 
L 332.983938 95.37077 
L 333.044172 95.748008 
L 333.405577 110.837529 
L 333.646514 96.125246 
L 333.706748 96.502484 
L 333.766983 98.011437 
L 333.827217 92.352866 
L 333.947685 102.538293 
L 334.00792 95.748008 
L 334.068154 99.143151 
L 334.248857 111.969244 
L 334.309091 110.083053 
L 334.369325 113.855434 
L 334.429559 111.592006 
L 334.790965 95.748008 
L 334.851199 98.388675 
L 334.911433 96.502484 
L 334.971668 95.748008 
L 335.031902 96.502484 
L 335.272839 110.837529 
L 335.393307 107.819625 
L 335.57401 94.239056 
L 335.754713 104.047245 
L 335.814947 98.388675 
L 335.935416 107.819625 
L 335.99565 105.556197 
L 336.116118 111.969244 
L 336.357055 102.538293 
L 336.477524 111.969244 
L 336.658226 99.897627 
L 336.718461 104.801721 
L 336.899163 85.93982 
L 336.959398 89.7122 
L 337.381037 109.705815 
L 337.682209 84.430867 
L 337.742443 90.466676 
L 337.802677 93.861818 
L 338.103848 78.772297 
L 338.224317 80.658487 
L 338.284551 80.281249 
L 338.525488 62.551062 
L 338.706191 70.47306 
L 338.766425 70.47306 
L 338.886893 59.533158 
L 338.947128 64.81449 
L 339.007362 64.437252 
L 339.12783 71.982012 
L 339.188065 68.964108 
L 339.368767 84.430867 
L 339.489236 91.221152 
L 339.54947 84.430867 
L 339.609704 86.694296 
L 339.669939 87.448772 
L 339.730173 86.694296 
L 339.850641 91.975628 
L 339.97111 101.406579 
L 340.091578 112.346482 
L 340.151813 110.837529 
L 340.212047 108.196863 
L 340.272281 110.837529 
L 340.332515 105.178959 
L 340.39275 108.196863 
L 340.573452 112.72372 
L 340.693921 107.065149 
L 340.995092 123.663622 
L 341.055326 124.418099 
L 341.115561 119.514004 
L 341.175795 120.26848 
L 341.236029 124.795337 
L 341.296263 124.418099 
L 341.5372 104.801721 
L 341.597434 111.214768 
L 341.657669 108.196863 
L 341.778137 112.72372 
L 342.019074 100.274865 
L 342.199777 82.921915 
L 342.320245 85.562582 
L 342.440714 75.754393 
L 342.561182 68.58687 
L 342.802119 82.544677 
L 342.982822 74.245441 
L 343.043056 74.999917 
L 343.103291 75.754393 
L 343.163525 74.999917 
L 343.645399 52.742873 
L 343.705633 54.251825 
L 343.826102 71.227536 
L 343.886336 65.946204 
L 343.94657 70.850298 
L 344.006804 68.58687 
L 344.247741 55.760777 
L 344.36821 62.551062 
L 344.428444 60.287634 
L 344.488678 61.796586 
L 344.609147 63.305538 
L 344.729615 58.024205 
L 344.970552 68.209632 
L 345.151255 52.742873 
L 345.211489 53.497349 
L 345.392192 56.515253 
L 345.452426 55.006301 
L 345.51266 62.551062 
L 345.572895 58.024205 
L 345.813832 70.095822 
L 345.874066 68.209632 
L 346.115003 85.562582 
L 346.35594 67.832394 
L 346.536642 76.508869 
L 346.596877 76.131631 
L 346.717345 79.904011 
L 346.898048 75.754393 
L 346.958282 73.868203 
L 347.138985 78.017821 
L 347.199219 72.359251 
L 347.259453 74.622679 
L 347.319688 74.245441 
L 347.379922 74.622679 
L 347.440156 76.508869 
L 347.560625 84.430867 
L 347.681093 80.658487 
L 347.741327 81.035725 
L 347.861796 87.071534 
L 347.92203 80.281249 
L 347.982264 82.544677 
L 348.102733 87.448772 
L 348.223201 81.412963 
L 348.283436 84.430867 
L 348.524373 70.095822 
L 348.644841 67.832394 
L 348.76531 74.999917 
L 348.825544 64.81449 
L 348.885778 66.70068 
L 348.946012 73.490965 
L 349.006247 72.736489 
L 349.126715 65.568966 
L 349.247183 68.209632 
L 349.307418 75.377155 
L 349.367652 70.850298 
L 349.427886 73.113727 
L 349.48812 71.982012 
L 349.548355 69.718584 
L 349.668823 77.263345 
L 349.849526 61.04211 
L 349.90976 60.287634 
L 350.030229 68.964108 
L 350.090463 65.946204 
L 350.150697 70.47306 
L 350.210931 66.70068 
L 350.391634 73.490965 
L 350.512103 64.437252 
L 350.572337 68.964108 
L 350.632571 64.437252 
L 350.692805 65.946204 
L 350.75304 67.077918 
L 350.873508 64.437252 
L 351.054211 84.430867 
L 351.114445 78.772297 
L 351.174679 79.904011 
L 351.295148 83.299153 
L 351.415616 76.886107 
L 351.475851 77.640583 
L 351.536085 75.754393 
L 351.596319 77.263345 
L 351.777022 88.957724 
L 351.837256 89.334962 
L 351.957724 95.37077 
L 352.017959 93.107342 
L 352.078193 93.48458 
L 352.258896 107.065149 
L 352.439598 111.214768 
L 352.560067 105.933435 
L 352.620301 106.687911 
L 352.680535 107.819625 
L 352.801004 105.178959 
L 352.921472 111.214768 
L 352.981707 110.837529 
L 353.041941 111.214768 
L 353.102175 110.083053 
L 353.222644 114.232672 
L 353.282878 112.346482 
L 353.523815 101.406579 
L 354.126157 121.022956 
L 354.186392 121.777432 
L 354.547797 99.897627 
L 354.668265 100.274865 
L 354.7285 100.274865 
L 354.969437 107.065149 
L 355.089905 109.705815 
L 355.150139 107.442387 
L 355.210374 108.951339 
L 355.270608 107.819625 
L 355.391076 110.460291 
L 355.571779 122.531908 
L 355.692248 116.118862 
L 355.812716 125.549813 
L 355.87295 123.286384 
L 355.933185 126.304289 
L 356.174122 118.005052 
L 356.29459 121.022956 
L 356.415059 113.100958 
L 356.475293 114.232672 
L 356.595761 113.855434 
L 356.655996 114.232672 
L 356.71623 117.250576 
L 356.776464 110.837529 
L 356.957167 123.286384 
L 357.017401 122.15467 
L 357.137869 128.190479 
L 357.258338 119.891242 
L 357.318572 123.286384 
L 357.378806 120.645718 
L 357.499275 113.855434 
L 357.559509 115.364386 
L 357.740212 121.400194 
L 357.920915 115.741624 
L 358.101617 125.172575 
L 358.222086 116.4961 
L 358.28232 121.400194 
L 358.342554 118.759528 
L 358.523257 113.478196 
L 358.583491 117.627814 
L 358.643726 112.346482 
L 358.764194 125.927051 
L 358.824428 123.663622 
L 358.944897 120.26848 
L 359.005131 121.777432 
L 359.065365 127.436003 
L 359.306302 112.72372 
L 359.426771 116.118862 
L 359.547239 106.687911 
L 359.607474 107.442387 
L 359.667708 106.687911 
L 359.727942 107.819625 
L 359.788176 105.933435 
L 359.908645 111.969244 
L 359.968879 112.346482 
L 360.209816 103.670007 
L 360.27005 107.442387 
L 360.330284 105.178959 
L 360.390519 104.424483 
L 360.450753 105.556197 
L 360.510987 104.047245 
L 360.631456 110.083053 
L 360.69169 109.328577 
L 360.812158 119.891242 
L 360.872393 119.514004 
L 360.932627 119.514004 
L 361.11333 109.705815 
L 361.173564 108.574101 
L 361.233798 111.214768 
L 361.294032 110.460291 
L 361.474735 95.37077 
L 361.534969 102.915531 
L 361.715672 113.478196 
L 361.775906 114.232672 
L 361.956609 121.400194 
L 362.016843 120.26848 
L 362.137312 114.987148 
L 362.25778 116.873338 
L 362.318015 116.873338 
L 362.378249 118.759528 
L 362.438483 117.250576 
L 362.558951 111.214768 
L 362.799888 120.645718 
L 363.221528 101.029341 
L 363.281762 101.783817 
L 363.341997 100.274865 
L 363.522699 108.196863 
L 363.582934 108.196863 
L 363.643168 106.310673 
L 363.703402 107.442387 
L 363.763636 112.72372 
L 363.823871 107.065149 
L 363.884105 115.741624 
L 363.944339 111.969244 
L 364.125042 117.250576 
L 364.365979 108.951339 
L 364.606916 119.514004 
L 364.847853 111.214768 
L 364.908087 112.72372 
L 364.968321 119.136766 
L 365.028555 117.250576 
L 365.269492 109.705815 
L 365.389961 119.514004 
L 365.450195 120.26848 
L 365.570664 110.083053 
L 365.630898 111.592006 
L 365.992303 96.879722 
L 366.052538 94.239056 
L 366.173006 86.317058 
L 366.23324 87.448772 
L 366.293475 85.93982 
L 366.353709 90.089438 
L 366.413943 87.071534 
L 366.474177 87.071534 
L 366.534412 79.526773 
L 366.594646 83.676391 
L 366.715114 88.580486 
L 366.835583 88.203248 
L 366.956051 90.843914 
L 367.016286 86.694296 
L 367.07652 87.071534 
L 367.136754 86.694296 
L 367.257223 88.957724 
L 367.49816 82.544677 
L 367.618628 81.035725 
L 367.799331 87.071534 
L 367.859565 87.071534 
L 368.100502 97.634198 
L 368.160736 96.125246 
L 368.22097 97.634198 
L 368.341439 90.466676 
L 368.401673 91.221152 
L 368.522142 107.819625 
L 368.64261 105.178959 
L 368.702844 104.801721 
L 368.763079 105.556197 
L 369.184718 119.891242 
L 369.305187 107.442387 
L 369.365421 108.574101 
L 369.48589 107.442387 
L 369.546124 114.60991 
L 369.606358 110.083053 
L 369.666592 110.460291 
L 369.787061 118.759528 
L 369.907529 109.705815 
L 369.967764 111.592006 
L 370.027998 113.100958 
L 370.088232 112.72372 
L 370.329169 102.161055 
L 370.389403 107.442387 
L 370.449637 104.801721 
L 370.509872 99.143151 
L 370.750809 131.208383 
L 370.811043 134.226287 
L 370.931511 125.172575 
L 371.05198 131.962859 
L 371.112214 131.962859 
L 371.533854 116.118862 
L 371.594088 111.214768 
L 371.714557 119.514004 
L 371.774791 114.232672 
L 371.835025 118.005052 
L 371.955494 114.232672 
L 372.075962 120.26848 
L 372.136196 110.460291 
L 372.196431 111.969244 
L 372.256665 113.855434 
L 372.316899 120.645718 
L 372.377133 119.891242 
L 372.437368 118.759528 
L 372.497602 119.891242 
L 372.61807 127.058765 
L 372.798773 117.250576 
L 372.859007 123.286384 
L 372.919241 121.400194 
L 373.03971 111.214768 
L 373.099944 112.346482 
L 373.340881 106.310673 
L 373.401115 105.933435 
L 373.581818 99.897627 
L 373.581818 99.897627 
" style="fill:none;stroke:#1f77b4;stroke-linecap:square;stroke-width:1.5;"/>
   </g>
   <g id="patch_3">
    <path d="M 54 252 
L 54 34.56 
" style="fill:none;stroke:#000000;stroke-linecap:square;stroke-linejoin:miter;stroke-width:0.8;"/>
   </g>
   <g id="patch_4">
    <path d="M 388.8 252 
L 388.8 34.56 
" style="fill:none;stroke:#000000;stroke-linecap:square;stroke-linejoin:miter;stroke-width:0.8;"/>
   </g>
   <g id="patch_5">
    <path d="M 54 252 
L 388.8 252 
" style="fill:none;stroke:#000000;stroke-linecap:square;stroke-linejoin:miter;stroke-width:0.8;"/>
   </g>
   <g id="patch_6">
    <path d="M 54 34.56 
L 388.8 34.56 
" style="fill:none;stroke:#000000;stroke-linecap:square;stroke-linejoin:miter;stroke-width:0.8;"/>
   </g>
  </g>
 </g>
 <defs>
  <clipPath id="pa98947ad46">
   <rect height="217.44" width="334.8" x="54" y="34.56"/>
  </clipPath>
 </defs>
</svg>
