<?xml version="1.0" encoding="utf-8" standalone="no"?>
<!DOCTYPE svg PUBLIC "-//W3C//DTD SVG 1.1//EN"
  "http://www.w3.org/Graphics/SVG/1.1/DTD/svg11.dtd">
<!-- Created with matplotlib (https://matplotlib.org/) -->
<svg height="288pt" version="1.1" viewBox="0 0 432 288" width="432pt" xmlns="http://www.w3.org/2000/svg" xmlns:xlink="http://www.w3.org/1999/xlink">
 <defs>
  <style type="text/css">
*{stroke-linecap:butt;stroke-linejoin:round;}
  </style>
 </defs>
 <g id="figure_1">
  <g id="patch_1">
   <path d="M 0 288 
L 432 288 
L 432 0 
L 0 0 
z
" style="fill:#ffffff;"/>
  </g>
  <g id="axes_1">
   <g id="patch_2">
    <path d="M 54 252 
L 388.8 252 
L 388.8 34.56 
L 54 34.56 
z
" style="fill:#ffffff;"/>
   </g>
   <g id="matplotlib.axis_1">
    <g id="xtick_1">
     <g id="line2d_1">
      <defs>
       <path d="M 0 0 
L 0 3.5 
" id="maef0a6589f" style="stroke:#000000;stroke-width:0.8;"/>
      </defs>
      <g>
       <use style="stroke:#000000;stroke-width:0.8;" x="69.218182" xlink:href="#maef0a6589f" y="252"/>
      </g>
     </g>
     <g id="text_1">
      <!-- 0 -->
      <defs>
       <path d="M 31.78125 66.40625 
Q 24.171875 66.40625 20.328125 58.90625 
Q 16.5 51.421875 16.5 36.375 
Q 16.5 21.390625 20.328125 13.890625 
Q 24.171875 6.390625 31.78125 6.390625 
Q 39.453125 6.390625 43.28125 13.890625 
Q 47.125 21.390625 47.125 36.375 
Q 47.125 51.421875 43.28125 58.90625 
Q 39.453125 66.40625 31.78125 66.40625 
z
M 31.78125 74.21875 
Q 44.046875 74.21875 50.515625 64.515625 
Q 56.984375 54.828125 56.984375 36.375 
Q 56.984375 17.96875 50.515625 8.265625 
Q 44.046875 -1.421875 31.78125 -1.421875 
Q 19.53125 -1.421875 13.0625 8.265625 
Q 6.59375 17.96875 6.59375 36.375 
Q 6.59375 54.828125 13.0625 64.515625 
Q 19.53125 74.21875 31.78125 74.21875 
z
" id="DejaVuSans-48"/>
      </defs>
      <g transform="translate(66.036932 266.598437)scale(0.1 -0.1)">
       <use xlink:href="#DejaVuSans-48"/>
      </g>
     </g>
    </g>
    <g id="xtick_2">
     <g id="line2d_2">
      <g>
       <use style="stroke:#000000;stroke-width:0.8;" x="112.280383" xlink:href="#maef0a6589f" y="252"/>
      </g>
     </g>
     <g id="text_2">
      <!-- 250 -->
      <defs>
       <path d="M 19.1875 8.296875 
L 53.609375 8.296875 
L 53.609375 0 
L 7.328125 0 
L 7.328125 8.296875 
Q 12.9375 14.109375 22.625 23.890625 
Q 32.328125 33.6875 34.8125 36.53125 
Q 39.546875 41.84375 41.421875 45.53125 
Q 43.3125 49.21875 43.3125 52.78125 
Q 43.3125 58.59375 39.234375 62.25 
Q 35.15625 65.921875 28.609375 65.921875 
Q 23.96875 65.921875 18.8125 64.3125 
Q 13.671875 62.703125 7.8125 59.421875 
L 7.8125 69.390625 
Q 13.765625 71.78125 18.9375 73 
Q 24.125 74.21875 28.421875 74.21875 
Q 39.75 74.21875 46.484375 68.546875 
Q 53.21875 62.890625 53.21875 53.421875 
Q 53.21875 48.921875 51.53125 44.890625 
Q 49.859375 40.875 45.40625 35.40625 
Q 44.1875 33.984375 37.640625 27.21875 
Q 31.109375 20.453125 19.1875 8.296875 
z
" id="DejaVuSans-50"/>
       <path d="M 10.796875 72.90625 
L 49.515625 72.90625 
L 49.515625 64.59375 
L 19.828125 64.59375 
L 19.828125 46.734375 
Q 21.96875 47.46875 24.109375 47.828125 
Q 26.265625 48.1875 28.421875 48.1875 
Q 40.625 48.1875 47.75 41.5 
Q 54.890625 34.8125 54.890625 23.390625 
Q 54.890625 11.625 47.5625 5.09375 
Q 40.234375 -1.421875 26.90625 -1.421875 
Q 22.3125 -1.421875 17.546875 -0.640625 
Q 12.796875 0.140625 7.71875 1.703125 
L 7.71875 11.625 
Q 12.109375 9.234375 16.796875 8.0625 
Q 21.484375 6.890625 26.703125 6.890625 
Q 35.15625 6.890625 40.078125 11.328125 
Q 45.015625 15.765625 45.015625 23.390625 
Q 45.015625 31 40.078125 35.4375 
Q 35.15625 39.890625 26.703125 39.890625 
Q 22.75 39.890625 18.8125 39.015625 
Q 14.890625 38.140625 10.796875 36.28125 
z
" id="DejaVuSans-53"/>
      </defs>
      <g transform="translate(102.736633 266.598437)scale(0.1 -0.1)">
       <use xlink:href="#DejaVuSans-50"/>
       <use x="63.623047" xlink:href="#DejaVuSans-53"/>
       <use x="127.246094" xlink:href="#DejaVuSans-48"/>
      </g>
     </g>
    </g>
    <g id="xtick_3">
     <g id="line2d_3">
      <g>
       <use style="stroke:#000000;stroke-width:0.8;" x="155.342584" xlink:href="#maef0a6589f" y="252"/>
      </g>
     </g>
     <g id="text_3">
      <!-- 500 -->
      <g transform="translate(145.798834 266.598437)scale(0.1 -0.1)">
       <use xlink:href="#DejaVuSans-53"/>
       <use x="63.623047" xlink:href="#DejaVuSans-48"/>
       <use x="127.246094" xlink:href="#DejaVuSans-48"/>
      </g>
     </g>
    </g>
    <g id="xtick_4">
     <g id="line2d_4">
      <g>
       <use style="stroke:#000000;stroke-width:0.8;" x="198.404785" xlink:href="#maef0a6589f" y="252"/>
      </g>
     </g>
     <g id="text_4">
      <!-- 750 -->
      <defs>
       <path d="M 8.203125 72.90625 
L 55.078125 72.90625 
L 55.078125 68.703125 
L 28.609375 0 
L 18.3125 0 
L 43.21875 64.59375 
L 8.203125 64.59375 
z
" id="DejaVuSans-55"/>
      </defs>
      <g transform="translate(188.861035 266.598437)scale(0.1 -0.1)">
       <use xlink:href="#DejaVuSans-55"/>
       <use x="63.623047" xlink:href="#DejaVuSans-53"/>
       <use x="127.246094" xlink:href="#DejaVuSans-48"/>
      </g>
     </g>
    </g>
    <g id="xtick_5">
     <g id="line2d_5">
      <g>
       <use style="stroke:#000000;stroke-width:0.8;" x="241.466986" xlink:href="#maef0a6589f" y="252"/>
      </g>
     </g>
     <g id="text_5">
      <!-- 1000 -->
      <defs>
       <path d="M 12.40625 8.296875 
L 28.515625 8.296875 
L 28.515625 63.921875 
L 10.984375 60.40625 
L 10.984375 69.390625 
L 28.421875 72.90625 
L 38.28125 72.90625 
L 38.28125 8.296875 
L 54.390625 8.296875 
L 54.390625 0 
L 12.40625 0 
z
" id="DejaVuSans-49"/>
      </defs>
      <g transform="translate(228.741986 266.598437)scale(0.1 -0.1)">
       <use xlink:href="#DejaVuSans-49"/>
       <use x="63.623047" xlink:href="#DejaVuSans-48"/>
       <use x="127.246094" xlink:href="#DejaVuSans-48"/>
       <use x="190.869141" xlink:href="#DejaVuSans-48"/>
      </g>
     </g>
    </g>
    <g id="xtick_6">
     <g id="line2d_6">
      <g>
       <use style="stroke:#000000;stroke-width:0.8;" x="284.529187" xlink:href="#maef0a6589f" y="252"/>
      </g>
     </g>
     <g id="text_6">
      <!-- 1250 -->
      <g transform="translate(271.804187 266.598437)scale(0.1 -0.1)">
       <use xlink:href="#DejaVuSans-49"/>
       <use x="63.623047" xlink:href="#DejaVuSans-50"/>
       <use x="127.246094" xlink:href="#DejaVuSans-53"/>
       <use x="190.869141" xlink:href="#DejaVuSans-48"/>
      </g>
     </g>
    </g>
    <g id="xtick_7">
     <g id="line2d_7">
      <g>
       <use style="stroke:#000000;stroke-width:0.8;" x="327.591388" xlink:href="#maef0a6589f" y="252"/>
      </g>
     </g>
     <g id="text_7">
      <!-- 1500 -->
      <g transform="translate(314.866388 266.598437)scale(0.1 -0.1)">
       <use xlink:href="#DejaVuSans-49"/>
       <use x="63.623047" xlink:href="#DejaVuSans-53"/>
       <use x="127.246094" xlink:href="#DejaVuSans-48"/>
       <use x="190.869141" xlink:href="#DejaVuSans-48"/>
      </g>
     </g>
    </g>
    <g id="xtick_8">
     <g id="line2d_8">
      <g>
       <use style="stroke:#000000;stroke-width:0.8;" x="370.653589" xlink:href="#maef0a6589f" y="252"/>
      </g>
     </g>
     <g id="text_8">
      <!-- 1750 -->
      <g transform="translate(357.928589 266.598437)scale(0.1 -0.1)">
       <use xlink:href="#DejaVuSans-49"/>
       <use x="63.623047" xlink:href="#DejaVuSans-55"/>
       <use x="127.246094" xlink:href="#DejaVuSans-53"/>
       <use x="190.869141" xlink:href="#DejaVuSans-48"/>
      </g>
     </g>
    </g>
   </g>
   <g id="matplotlib.axis_2">
    <g id="ytick_1">
     <g id="line2d_9">
      <defs>
       <path d="M 0 0 
L -3.5 0 
" id="m2f42ef51a1" style="stroke:#000000;stroke-width:0.8;"/>
      </defs>
      <g>
       <use style="stroke:#000000;stroke-width:0.8;" x="54" xlink:href="#m2f42ef51a1" y="234.364492"/>
      </g>
     </g>
     <g id="text_9">
      <!-- 2 -->
      <g transform="translate(40.6375 238.163711)scale(0.1 -0.1)">
       <use xlink:href="#DejaVuSans-50"/>
      </g>
     </g>
    </g>
    <g id="ytick_2">
     <g id="line2d_10">
      <g>
       <use style="stroke:#000000;stroke-width:0.8;" x="54" xlink:href="#m2f42ef51a1" y="195.605134"/>
      </g>
     </g>
     <g id="text_10">
      <!-- 3 -->
      <defs>
       <path d="M 40.578125 39.3125 
Q 47.65625 37.796875 51.625 33 
Q 55.609375 28.21875 55.609375 21.1875 
Q 55.609375 10.40625 48.1875 4.484375 
Q 40.765625 -1.421875 27.09375 -1.421875 
Q 22.515625 -1.421875 17.65625 -0.515625 
Q 12.796875 0.390625 7.625 2.203125 
L 7.625 11.71875 
Q 11.71875 9.328125 16.59375 8.109375 
Q 21.484375 6.890625 26.8125 6.890625 
Q 36.078125 6.890625 40.9375 10.546875 
Q 45.796875 14.203125 45.796875 21.1875 
Q 45.796875 27.640625 41.28125 31.265625 
Q 36.765625 34.90625 28.71875 34.90625 
L 20.21875 34.90625 
L 20.21875 43.015625 
L 29.109375 43.015625 
Q 36.375 43.015625 40.234375 45.921875 
Q 44.09375 48.828125 44.09375 54.296875 
Q 44.09375 59.90625 40.109375 62.90625 
Q 36.140625 65.921875 28.71875 65.921875 
Q 24.65625 65.921875 20.015625 65.03125 
Q 15.375 64.15625 9.8125 62.3125 
L 9.8125 71.09375 
Q 15.4375 72.65625 20.34375 73.4375 
Q 25.25 74.21875 29.59375 74.21875 
Q 40.828125 74.21875 47.359375 69.109375 
Q 53.90625 64.015625 53.90625 55.328125 
Q 53.90625 49.265625 50.4375 45.09375 
Q 46.96875 40.921875 40.578125 39.3125 
z
" id="DejaVuSans-51"/>
      </defs>
      <g transform="translate(40.6375 199.404352)scale(0.1 -0.1)">
       <use xlink:href="#DejaVuSans-51"/>
      </g>
     </g>
    </g>
    <g id="ytick_3">
     <g id="line2d_11">
      <g>
       <use style="stroke:#000000;stroke-width:0.8;" x="54" xlink:href="#m2f42ef51a1" y="156.845775"/>
      </g>
     </g>
     <g id="text_11">
      <!-- 4 -->
      <defs>
       <path d="M 37.796875 64.3125 
L 12.890625 25.390625 
L 37.796875 25.390625 
z
M 35.203125 72.90625 
L 47.609375 72.90625 
L 47.609375 25.390625 
L 58.015625 25.390625 
L 58.015625 17.1875 
L 47.609375 17.1875 
L 47.609375 0 
L 37.796875 0 
L 37.796875 17.1875 
L 4.890625 17.1875 
L 4.890625 26.703125 
z
" id="DejaVuSans-52"/>
      </defs>
      <g transform="translate(40.6375 160.644994)scale(0.1 -0.1)">
       <use xlink:href="#DejaVuSans-52"/>
      </g>
     </g>
    </g>
    <g id="ytick_4">
     <g id="line2d_12">
      <g>
       <use style="stroke:#000000;stroke-width:0.8;" x="54" xlink:href="#m2f42ef51a1" y="118.086417"/>
      </g>
     </g>
     <g id="text_12">
      <!-- 5 -->
      <g transform="translate(40.6375 121.885636)scale(0.1 -0.1)">
       <use xlink:href="#DejaVuSans-53"/>
      </g>
     </g>
    </g>
    <g id="ytick_5">
     <g id="line2d_13">
      <g>
       <use style="stroke:#000000;stroke-width:0.8;" x="54" xlink:href="#m2f42ef51a1" y="79.327059"/>
      </g>
     </g>
     <g id="text_13">
      <!-- 6 -->
      <defs>
       <path d="M 33.015625 40.375 
Q 26.375 40.375 22.484375 35.828125 
Q 18.609375 31.296875 18.609375 23.390625 
Q 18.609375 15.53125 22.484375 10.953125 
Q 26.375 6.390625 33.015625 6.390625 
Q 39.65625 6.390625 43.53125 10.953125 
Q 47.40625 15.53125 47.40625 23.390625 
Q 47.40625 31.296875 43.53125 35.828125 
Q 39.65625 40.375 33.015625 40.375 
z
M 52.59375 71.296875 
L 52.59375 62.3125 
Q 48.875 64.0625 45.09375 64.984375 
Q 41.3125 65.921875 37.59375 65.921875 
Q 27.828125 65.921875 22.671875 59.328125 
Q 17.53125 52.734375 16.796875 39.40625 
Q 19.671875 43.65625 24.015625 45.921875 
Q 28.375 48.1875 33.59375 48.1875 
Q 44.578125 48.1875 50.953125 41.515625 
Q 57.328125 34.859375 57.328125 23.390625 
Q 57.328125 12.15625 50.6875 5.359375 
Q 44.046875 -1.421875 33.015625 -1.421875 
Q 20.359375 -1.421875 13.671875 8.265625 
Q 6.984375 17.96875 6.984375 36.375 
Q 6.984375 53.65625 15.1875 63.9375 
Q 23.390625 74.21875 37.203125 74.21875 
Q 40.921875 74.21875 44.703125 73.484375 
Q 48.484375 72.75 52.59375 71.296875 
z
" id="DejaVuSans-54"/>
      </defs>
      <g transform="translate(40.6375 83.126278)scale(0.1 -0.1)">
       <use xlink:href="#DejaVuSans-54"/>
      </g>
     </g>
    </g>
    <g id="ytick_6">
     <g id="line2d_14">
      <g>
       <use style="stroke:#000000;stroke-width:0.8;" x="54" xlink:href="#m2f42ef51a1" y="40.567701"/>
      </g>
     </g>
     <g id="text_14">
      <!-- 7 -->
      <g transform="translate(40.6375 44.366919)scale(0.1 -0.1)">
       <use xlink:href="#DejaVuSans-55"/>
      </g>
     </g>
    </g>
   </g>
   <g id="line2d_15">
    <path clip-path="url(#p7d974260f7)" d="M 69.218182 168.473583 
L 69.390431 176.225455 
L 69.562679 176.225455 
L 69.734928 106.45861 
L 69.907177 183.977326 
L 70.079426 137.466096 
L 70.251675 211.108877 
L 70.423923 211.108877 
L 70.596172 141.342032 
L 70.768421 125.838289 
L 70.94067 195.605134 
L 71.112919 87.07893 
L 71.457416 191.729198 
L 71.629665 168.473583 
L 71.801914 118.086417 
L 71.974163 137.466096 
L 72.146411 180.10139 
L 72.31866 168.473583 
L 72.490909 199.48107 
L 72.663158 168.473583 
L 72.835407 176.225455 
L 73.007656 199.48107 
L 73.179904 94.830802 
L 73.352153 137.466096 
L 73.524402 141.342032 
L 73.696651 137.466096 
L 73.8689 152.96984 
L 74.041148 129.714225 
L 74.213397 191.729198 
L 74.385646 98.706738 
L 74.557895 207.232941 
L 74.730144 211.108877 
L 74.902392 121.962353 
L 75.074641 176.225455 
L 75.24689 176.225455 
L 75.419139 152.96984 
L 75.763636 133.59016 
L 75.935885 149.093904 
L 76.108134 191.729198 
L 76.280383 149.093904 
L 76.452632 164.597647 
L 76.62488 137.466096 
L 76.797129 133.59016 
L 77.141627 199.48107 
L 77.313876 180.10139 
L 77.486124 129.714225 
L 77.658373 114.210481 
L 77.830622 156.845775 
L 78.002871 156.845775 
L 78.17512 90.954866 
L 78.347368 199.48107 
L 78.519617 141.342032 
L 78.691866 222.736684 
L 78.864115 168.473583 
L 79.036364 191.729198 
L 79.208612 118.086417 
L 79.55311 172.349519 
L 79.897608 145.217968 
L 80.069856 149.093904 
L 80.242105 187.853262 
L 80.414354 137.466096 
L 80.586603 183.977326 
L 80.9311 203.357005 
L 81.275598 141.342032 
L 81.447847 121.962353 
L 81.620096 125.838289 
L 81.792344 242.116364 
L 81.964593 156.845775 
L 82.136842 156.845775 
L 82.309091 118.086417 
L 82.48134 114.210481 
L 82.653589 191.729198 
L 82.825837 218.860749 
L 82.998086 145.217968 
L 83.170335 156.845775 
L 83.687081 98.706738 
L 83.85933 172.349519 
L 84.031579 152.96984 
L 84.203828 218.860749 
L 84.376077 238.240428 
L 84.548325 145.217968 
L 84.720574 187.853262 
L 84.892823 168.473583 
L 85.065072 75.451123 
L 85.237321 156.845775 
L 85.409569 114.210481 
L 85.581818 176.225455 
L 85.754067 195.605134 
L 85.926316 183.977326 
L 86.098565 226.61262 
L 86.270813 94.830802 
L 86.443062 207.232941 
L 86.615311 195.605134 
L 86.78756 110.334545 
L 86.959809 183.977326 
L 87.132057 87.07893 
L 87.304306 172.349519 
L 87.476555 133.59016 
L 87.648804 195.605134 
L 87.821053 133.59016 
L 87.993301 141.342032 
L 88.16555 102.582674 
L 88.510048 180.10139 
L 88.682297 102.582674 
L 88.854545 211.108877 
L 89.026794 129.714225 
L 89.199043 183.977326 
L 89.371292 79.327059 
L 89.543541 187.853262 
L 89.715789 90.954866 
L 89.888038 218.860749 
L 90.232536 145.217968 
L 90.404785 195.605134 
L 90.577033 118.086417 
L 90.749282 183.977326 
L 91.09378 133.59016 
L 91.266029 75.451123 
L 91.438278 180.10139 
L 91.610526 187.853262 
L 91.782775 129.714225 
L 91.955024 203.357005 
L 92.127273 199.48107 
L 92.47177 125.838289 
L 92.644019 176.225455 
L 92.816268 187.853262 
L 92.988517 242.116364 
L 93.160766 149.093904 
L 93.333014 211.108877 
L 93.505263 145.217968 
L 93.677512 180.10139 
L 93.849761 110.334545 
L 94.02201 160.721711 
L 94.194258 176.225455 
L 94.366507 83.202995 
L 94.538756 141.342032 
L 94.711005 94.830802 
L 94.883254 160.721711 
L 95.055502 164.597647 
L 95.227751 176.225455 
L 95.4 168.473583 
L 95.572249 145.217968 
L 95.744498 48.319572 
L 95.916746 238.240428 
L 96.088995 160.721711 
L 96.261244 156.845775 
L 96.433493 211.108877 
L 96.605742 137.466096 
L 96.77799 145.217968 
L 96.950239 141.342032 
L 97.122488 168.473583 
L 97.294737 118.086417 
L 97.466986 187.853262 
L 97.811483 102.582674 
L 97.983732 191.729198 
L 98.32823 129.714225 
L 98.500478 110.334545 
L 98.672727 63.823316 
L 98.844976 183.977326 
L 99.017225 149.093904 
L 99.189474 145.217968 
L 99.361722 106.45861 
L 99.70622 191.729198 
L 99.878469 98.706738 
L 100.050718 160.721711 
L 100.222967 87.07893 
L 100.395215 191.729198 
L 100.567464 110.334545 
L 100.739713 137.466096 
L 101.084211 98.706738 
L 101.256459 160.721711 
L 101.428708 133.59016 
L 101.600957 141.342032 
L 101.773206 191.729198 
L 101.945455 102.582674 
L 102.117703 214.984813 
L 102.289952 121.962353 
L 102.462201 156.845775 
L 102.63445 160.721711 
L 102.806699 234.364492 
L 102.978947 152.96984 
L 103.323445 137.466096 
L 103.495694 152.96984 
L 103.667943 183.977326 
L 103.840191 172.349519 
L 104.01244 180.10139 
L 104.184689 102.582674 
L 104.356938 87.07893 
L 104.529187 160.721711 
L 104.701435 102.582674 
L 104.873684 195.605134 
L 105.045933 90.954866 
L 105.218182 207.232941 
L 105.562679 180.10139 
L 105.734928 176.225455 
L 105.907177 133.59016 
L 106.079426 145.217968 
L 106.251675 145.217968 
L 106.596172 164.597647 
L 106.768421 118.086417 
L 106.94067 141.342032 
L 107.112919 125.838289 
L 107.457416 160.721711 
L 107.629665 125.838289 
L 107.801914 133.59016 
L 107.974163 156.845775 
L 108.146411 141.342032 
L 108.31866 90.954866 
L 108.490909 141.342032 
L 108.663158 118.086417 
L 108.835407 180.10139 
L 109.007656 164.597647 
L 109.352153 211.108877 
L 109.696651 176.225455 
L 109.8689 183.977326 
L 110.041148 168.473583 
L 110.213397 98.706738 
L 110.385646 199.48107 
L 110.557895 141.342032 
L 110.730144 156.845775 
L 110.902392 207.232941 
L 111.24689 145.217968 
L 111.419139 207.232941 
L 111.591388 106.45861 
L 111.763636 180.10139 
L 112.108134 129.714225 
L 112.280383 98.706738 
L 112.452632 137.466096 
L 112.62488 141.342032 
L 112.969378 199.48107 
L 113.141627 195.605134 
L 113.313876 102.582674 
L 113.486124 110.334545 
L 113.658373 199.48107 
L 113.830622 121.962353 
L 114.002871 141.342032 
L 114.347368 90.954866 
L 114.519617 59.94738 
L 114.691866 129.714225 
L 114.864115 102.582674 
L 115.208612 172.349519 
L 115.380861 172.349519 
L 115.55311 125.838289 
L 115.725359 125.838289 
L 115.897608 160.721711 
L 116.069856 79.327059 
L 116.242105 207.232941 
L 116.414354 83.202995 
L 116.586603 152.96984 
L 116.758852 141.342032 
L 116.9311 176.225455 
L 117.103349 176.225455 
L 117.275598 218.860749 
L 117.447847 207.232941 
L 117.620096 137.466096 
L 117.792344 121.962353 
L 117.964593 90.954866 
L 118.309091 207.232941 
L 118.653589 94.830802 
L 118.825837 87.07893 
L 118.998086 110.334545 
L 119.170335 106.45861 
L 119.342584 121.962353 
L 119.514833 160.721711 
L 119.687081 168.473583 
L 119.85933 110.334545 
L 120.031579 137.466096 
L 120.203828 110.334545 
L 120.376077 176.225455 
L 120.720574 63.823316 
L 121.065072 137.466096 
L 121.409569 94.830802 
L 121.581818 114.210481 
L 121.754067 102.582674 
L 121.926316 59.94738 
L 122.098565 63.823316 
L 122.270813 121.962353 
L 122.443062 56.071444 
L 122.615311 87.07893 
L 122.78756 156.845775 
L 122.959809 83.202995 
L 123.132057 110.334545 
L 123.304306 176.225455 
L 123.476555 98.706738 
L 123.648804 156.845775 
L 123.821053 114.210481 
L 124.16555 172.349519 
L 124.337799 87.07893 
L 124.510048 160.721711 
L 124.682297 87.07893 
L 124.854545 164.597647 
L 125.026794 176.225455 
L 125.371292 83.202995 
L 125.543541 149.093904 
L 125.715789 129.714225 
L 125.888038 145.217968 
L 126.060287 145.217968 
L 126.232536 79.327059 
L 126.577033 168.473583 
L 126.749282 87.07893 
L 126.921531 149.093904 
L 127.09378 152.96984 
L 127.266029 195.605134 
L 127.610526 118.086417 
L 127.782775 141.342032 
L 127.955024 125.838289 
L 128.127273 71.575187 
L 128.47177 133.59016 
L 128.644019 56.071444 
L 128.816268 118.086417 
L 128.988517 118.086417 
L 129.160766 79.327059 
L 129.333014 90.954866 
L 129.505263 71.575187 
L 129.677512 145.217968 
L 129.849761 156.845775 
L 130.194258 83.202995 
L 130.366507 133.59016 
L 130.538756 129.714225 
L 130.711005 137.466096 
L 130.883254 125.838289 
L 131.055502 141.342032 
L 131.227751 98.706738 
L 131.4 141.342032 
L 131.572249 114.210481 
L 131.744498 168.473583 
L 131.916746 79.327059 
L 132.088995 98.706738 
L 132.261244 149.093904 
L 132.433493 94.830802 
L 132.605742 79.327059 
L 132.77799 118.086417 
L 133.466986 90.954866 
L 133.639234 156.845775 
L 133.811483 75.451123 
L 133.983732 129.714225 
L 134.155981 114.210481 
L 134.32823 160.721711 
L 134.500478 106.45861 
L 134.844976 133.59016 
L 135.017225 207.232941 
L 135.361722 125.838289 
L 135.533971 98.706738 
L 135.70622 160.721711 
L 136.050718 180.10139 
L 136.222967 118.086417 
L 136.395215 160.721711 
L 136.567464 125.838289 
L 136.739713 152.96984 
L 136.911962 129.714225 
L 137.084211 59.94738 
L 137.256459 149.093904 
L 137.428708 118.086417 
L 137.600957 125.838289 
L 137.773206 56.071444 
L 137.945455 121.962353 
L 138.117703 67.699251 
L 138.289952 71.575187 
L 138.462201 149.093904 
L 138.63445 133.59016 
L 138.806699 160.721711 
L 138.978947 137.466096 
L 139.151196 168.473583 
L 139.323445 102.582674 
L 139.495694 133.59016 
L 139.667943 67.699251 
L 139.840191 133.59016 
L 140.01244 83.202995 
L 140.356938 90.954866 
L 140.529187 129.714225 
L 140.701435 118.086417 
L 140.873684 125.838289 
L 141.045933 207.232941 
L 141.562679 106.45861 
L 141.734928 79.327059 
L 141.907177 180.10139 
L 142.251675 63.823316 
L 142.423923 195.605134 
L 142.596172 83.202995 
L 142.768421 79.327059 
L 142.94067 156.845775 
L 143.112919 94.830802 
L 143.285167 94.830802 
L 143.457416 110.334545 
L 143.629665 106.45861 
L 143.801914 67.699251 
L 143.974163 71.575187 
L 144.146411 102.582674 
L 144.31866 87.07893 
L 144.490909 137.466096 
L 144.663158 125.838289 
L 145.007656 83.202995 
L 145.179904 98.706738 
L 145.352153 98.706738 
L 145.524402 118.086417 
L 145.696651 83.202995 
L 145.8689 133.59016 
L 146.041148 71.575187 
L 146.213397 94.830802 
L 146.385646 94.830802 
L 146.557895 56.071444 
L 146.902392 149.093904 
L 147.074641 129.714225 
L 147.24689 145.217968 
L 147.419139 79.327059 
L 147.591388 176.225455 
L 147.935885 75.451123 
L 148.108134 133.59016 
L 148.280383 137.466096 
L 148.452632 149.093904 
L 148.62488 145.217968 
L 148.797129 156.845775 
L 148.969378 83.202995 
L 149.141627 90.954866 
L 149.313876 75.451123 
L 149.486124 149.093904 
L 149.658373 79.327059 
L 149.830622 102.582674 
L 150.002871 106.45861 
L 150.17512 121.962353 
L 150.347368 110.334545 
L 150.519617 149.093904 
L 150.691866 75.451123 
L 150.864115 71.575187 
L 151.208612 152.96984 
L 151.380861 125.838289 
L 151.725359 218.860749 
L 151.897608 114.210481 
L 152.069856 121.962353 
L 152.242105 110.334545 
L 152.414354 79.327059 
L 152.586603 152.96984 
L 152.758852 106.45861 
L 152.9311 98.706738 
L 153.275598 125.838289 
L 153.447847 118.086417 
L 153.792344 180.10139 
L 153.964593 79.327059 
L 154.136842 90.954866 
L 154.309091 90.954866 
L 154.48134 137.466096 
L 154.653589 110.334545 
L 154.825837 187.853262 
L 154.998086 168.473583 
L 155.170335 164.597647 
L 155.342584 149.093904 
L 155.687081 187.853262 
L 155.85933 180.10139 
L 156.031579 137.466096 
L 156.203828 137.466096 
L 156.376077 98.706738 
L 156.548325 87.07893 
L 156.720574 133.59016 
L 156.892823 114.210481 
L 157.065072 125.838289 
L 157.237321 106.45861 
L 157.409569 102.582674 
L 157.581818 164.597647 
L 157.754067 149.093904 
L 157.926316 172.349519 
L 158.270813 118.086417 
L 158.443062 118.086417 
L 158.78756 129.714225 
L 159.132057 156.845775 
L 159.304306 90.954866 
L 159.476555 125.838289 
L 159.648804 137.466096 
L 159.821053 195.605134 
L 159.993301 149.093904 
L 160.16555 137.466096 
L 160.337799 118.086417 
L 160.510048 156.845775 
L 160.682297 102.582674 
L 160.854545 121.962353 
L 161.026794 156.845775 
L 161.199043 141.342032 
L 161.371292 102.582674 
L 161.543541 164.597647 
L 161.715789 121.962353 
L 161.888038 141.342032 
L 162.232536 110.334545 
L 162.404785 114.210481 
L 162.577033 160.721711 
L 162.749282 156.845775 
L 162.921531 94.830802 
L 163.09378 129.714225 
L 163.266029 79.327059 
L 163.438278 183.977326 
L 163.782775 121.962353 
L 163.955024 87.07893 
L 164.127273 168.473583 
L 164.299522 118.086417 
L 164.47177 125.838289 
L 164.644019 48.319572 
L 164.816268 98.706738 
L 164.988517 203.357005 
L 165.333014 125.838289 
L 165.505263 106.45861 
L 165.677512 176.225455 
L 165.849761 137.466096 
L 166.02201 137.466096 
L 166.194258 121.962353 
L 166.538756 168.473583 
L 166.883254 106.45861 
L 167.055502 94.830802 
L 167.227751 137.466096 
L 167.4 137.466096 
L 167.572249 71.575187 
L 167.744498 133.59016 
L 167.916746 114.210481 
L 168.088995 141.342032 
L 168.433493 90.954866 
L 168.605742 98.706738 
L 168.77799 133.59016 
L 168.950239 90.954866 
L 169.122488 83.202995 
L 169.294737 118.086417 
L 169.466986 90.954866 
L 169.639234 129.714225 
L 169.811483 106.45861 
L 169.983732 145.217968 
L 170.155981 137.466096 
L 170.32823 141.342032 
L 170.500478 106.45861 
L 170.672727 129.714225 
L 170.844976 183.977326 
L 171.361722 106.45861 
L 171.533971 149.093904 
L 171.70622 156.845775 
L 171.878469 71.575187 
L 172.050718 125.838289 
L 172.222967 90.954866 
L 172.395215 118.086417 
L 172.567464 164.597647 
L 172.911962 56.071444 
L 173.084211 145.217968 
L 173.256459 71.575187 
L 173.428708 67.699251 
L 173.600957 59.94738 
L 173.945455 125.838289 
L 174.117703 67.699251 
L 174.289952 118.086417 
L 174.462201 90.954866 
L 174.63445 118.086417 
L 174.806699 125.838289 
L 174.978947 106.45861 
L 175.151196 137.466096 
L 175.323445 141.342032 
L 175.495694 106.45861 
L 175.667943 168.473583 
L 176.01244 98.706738 
L 176.184689 156.845775 
L 176.356938 48.319572 
L 176.701435 141.342032 
L 176.873684 59.94738 
L 177.045933 160.721711 
L 177.218182 118.086417 
L 177.390431 160.721711 
L 177.562679 98.706738 
L 177.734928 133.59016 
L 178.251675 94.830802 
L 178.423923 137.466096 
L 178.596172 67.699251 
L 178.768421 129.714225 
L 179.112919 83.202995 
L 179.285167 106.45861 
L 179.629665 187.853262 
L 179.801914 94.830802 
L 179.974163 141.342032 
L 180.146411 114.210481 
L 180.31866 121.962353 
L 180.490909 145.217968 
L 180.663158 75.451123 
L 180.835407 114.210481 
L 181.007656 44.443636 
L 181.179904 137.466096 
L 181.352153 98.706738 
L 181.524402 87.07893 
L 181.696651 121.962353 
L 181.8689 133.59016 
L 182.041148 71.575187 
L 182.557895 149.093904 
L 182.902392 79.327059 
L 183.074641 168.473583 
L 183.24689 149.093904 
L 183.419139 110.334545 
L 183.591388 114.210481 
L 183.935885 75.451123 
L 184.452632 176.225455 
L 184.62488 79.327059 
L 184.797129 168.473583 
L 184.969378 129.714225 
L 185.141627 125.838289 
L 185.313876 152.96984 
L 185.486124 67.699251 
L 185.830622 133.59016 
L 186.002871 133.59016 
L 186.17512 121.962353 
L 186.347368 67.699251 
L 186.691866 141.342032 
L 186.864115 164.597647 
L 187.208612 94.830802 
L 187.55311 149.093904 
L 187.725359 106.45861 
L 187.897608 137.466096 
L 188.069856 133.59016 
L 188.242105 114.210481 
L 188.414354 172.349519 
L 188.586603 164.597647 
L 188.758852 102.582674 
L 188.9311 110.334545 
L 189.103349 152.96984 
L 189.275598 133.59016 
L 189.447847 149.093904 
L 189.620096 149.093904 
L 189.792344 145.217968 
L 189.964593 125.838289 
L 190.136842 199.48107 
L 190.309091 110.334545 
L 190.48134 133.59016 
L 190.653589 83.202995 
L 190.825837 71.575187 
L 190.998086 168.473583 
L 191.170335 59.94738 
L 191.687081 164.597647 
L 191.85933 149.093904 
L 192.031579 75.451123 
L 192.203828 118.086417 
L 192.376077 87.07893 
L 192.548325 90.954866 
L 192.720574 137.466096 
L 192.892823 141.342032 
L 193.065072 59.94738 
L 193.237321 121.962353 
L 193.409569 102.582674 
L 193.581818 118.086417 
L 193.754067 94.830802 
L 194.098565 156.845775 
L 194.270813 83.202995 
L 194.443062 133.59016 
L 194.615311 63.823316 
L 194.959809 168.473583 
L 195.132057 129.714225 
L 195.304306 156.845775 
L 195.648804 90.954866 
L 195.821053 145.217968 
L 195.993301 71.575187 
L 196.16555 141.342032 
L 196.337799 145.217968 
L 196.510048 156.845775 
L 196.682297 83.202995 
L 196.854545 83.202995 
L 197.026794 106.45861 
L 197.199043 79.327059 
L 197.543541 160.721711 
L 197.715789 156.845775 
L 197.888038 83.202995 
L 198.060287 145.217968 
L 198.232536 102.582674 
L 198.404785 98.706738 
L 198.577033 59.94738 
L 198.749282 75.451123 
L 199.09378 141.342032 
L 199.266029 52.195508 
L 199.438278 125.838289 
L 199.610526 118.086417 
L 199.782775 79.327059 
L 199.955024 137.466096 
L 200.299522 71.575187 
L 200.47177 106.45861 
L 200.644019 67.699251 
L 200.816268 83.202995 
L 200.988517 145.217968 
L 201.333014 94.830802 
L 201.505263 94.830802 
L 201.677512 102.582674 
L 201.849761 133.59016 
L 202.194258 63.823316 
L 202.366507 98.706738 
L 202.538756 168.473583 
L 202.711005 141.342032 
L 202.883254 133.59016 
L 203.055502 59.94738 
L 203.4 137.466096 
L 203.572249 133.59016 
L 203.744498 114.210481 
L 203.916746 129.714225 
L 204.088995 94.830802 
L 204.261244 141.342032 
L 204.433493 121.962353 
L 204.605742 152.96984 
L 204.77799 141.342032 
L 204.950239 71.575187 
L 205.122488 141.342032 
L 205.294737 129.714225 
L 205.466986 152.96984 
L 205.639234 137.466096 
L 205.811483 63.823316 
L 205.983732 156.845775 
L 206.32823 87.07893 
L 206.500478 152.96984 
L 206.672727 63.823316 
L 206.844976 52.195508 
L 207.017225 145.217968 
L 207.189474 79.327059 
L 207.361722 129.714225 
L 207.533971 79.327059 
L 207.70622 67.699251 
L 208.050718 121.962353 
L 208.222967 133.59016 
L 208.395215 87.07893 
L 208.567464 87.07893 
L 208.739713 98.706738 
L 208.911962 67.699251 
L 209.084211 129.714225 
L 209.428708 63.823316 
L 209.600957 168.473583 
L 209.773206 129.714225 
L 209.945455 129.714225 
L 210.117703 90.954866 
L 210.462201 133.59016 
L 210.63445 121.962353 
L 210.806699 133.59016 
L 210.978947 71.575187 
L 211.495694 160.721711 
L 211.667943 75.451123 
L 211.840191 71.575187 
L 212.01244 71.575187 
L 212.184689 160.721711 
L 212.356938 106.45861 
L 212.529187 118.086417 
L 212.701435 44.443636 
L 212.873684 187.853262 
L 213.045933 90.954866 
L 213.218182 118.086417 
L 213.390431 67.699251 
L 213.734928 176.225455 
L 214.079426 145.217968 
L 214.251675 149.093904 
L 214.423923 71.575187 
L 214.94067 199.48107 
L 215.112919 118.086417 
L 215.285167 121.962353 
L 215.457416 102.582674 
L 215.629665 152.96984 
L 215.801914 110.334545 
L 215.974163 110.334545 
L 216.146411 145.217968 
L 216.31866 137.466096 
L 216.490909 90.954866 
L 216.663158 137.466096 
L 216.835407 149.093904 
L 217.007656 59.94738 
L 217.179904 156.845775 
L 217.352153 164.597647 
L 217.524402 145.217968 
L 217.696651 172.349519 
L 217.8689 75.451123 
L 218.041148 87.07893 
L 218.213397 149.093904 
L 218.385646 141.342032 
L 218.557895 160.721711 
L 218.730144 98.706738 
L 218.902392 94.830802 
L 219.074641 48.319572 
L 219.24689 98.706738 
L 219.419139 94.830802 
L 219.591388 98.706738 
L 219.763636 63.823316 
L 219.935885 106.45861 
L 220.108134 75.451123 
L 220.280383 149.093904 
L 220.62488 75.451123 
L 220.797129 75.451123 
L 220.969378 110.334545 
L 221.141627 79.327059 
L 221.313876 129.714225 
L 221.658373 79.327059 
L 221.830622 137.466096 
L 222.002871 87.07893 
L 222.17512 149.093904 
L 222.347368 94.830802 
L 222.519617 83.202995 
L 222.691866 102.582674 
L 222.864115 141.342032 
L 223.036364 118.086417 
L 223.208612 160.721711 
L 223.380861 71.575187 
L 223.55311 75.451123 
L 223.725359 125.838289 
L 223.897608 75.451123 
L 224.069856 83.202995 
L 224.414354 114.210481 
L 224.586603 71.575187 
L 224.758852 67.699251 
L 224.9311 121.962353 
L 225.103349 133.59016 
L 225.275598 133.59016 
L 225.447847 141.342032 
L 225.620096 71.575187 
L 225.792344 121.962353 
L 225.964593 87.07893 
L 226.309091 133.59016 
L 226.48134 133.59016 
L 226.653589 63.823316 
L 226.825837 133.59016 
L 226.998086 71.575187 
L 227.170335 67.699251 
L 227.342584 67.699251 
L 227.514833 102.582674 
L 227.687081 75.451123 
L 227.85933 90.954866 
L 228.031579 79.327059 
L 228.203828 149.093904 
L 228.376077 102.582674 
L 228.720574 160.721711 
L 228.892823 63.823316 
L 229.065072 94.830802 
L 229.409569 56.071444 
L 229.581818 149.093904 
L 229.754067 98.706738 
L 229.926316 149.093904 
L 230.098565 133.59016 
L 230.270813 141.342032 
L 230.443062 118.086417 
L 230.615311 59.94738 
L 230.78756 133.59016 
L 230.959809 152.96984 
L 231.132057 125.838289 
L 231.304306 118.086417 
L 231.476555 121.962353 
L 231.648804 52.195508 
L 231.821053 125.838289 
L 231.993301 114.210481 
L 232.16555 90.954866 
L 232.337799 87.07893 
L 232.510048 141.342032 
L 232.854545 94.830802 
L 233.026794 141.342032 
L 233.199043 48.319572 
L 233.371292 129.714225 
L 233.543541 129.714225 
L 233.888038 75.451123 
L 234.060287 121.962353 
L 234.232536 114.210481 
L 234.404785 125.838289 
L 234.577033 114.210481 
L 234.749282 152.96984 
L 234.921531 141.342032 
L 235.09378 94.830802 
L 235.266029 141.342032 
L 235.438278 137.466096 
L 235.610526 164.597647 
L 235.782775 121.962353 
L 235.955024 141.342032 
L 236.299522 98.706738 
L 236.47177 87.07893 
L 236.644019 145.217968 
L 236.816268 137.466096 
L 236.988517 152.96984 
L 237.160766 156.845775 
L 237.333014 129.714225 
L 237.505263 71.575187 
L 237.849761 90.954866 
L 238.194258 168.473583 
L 238.711005 133.59016 
L 239.227751 56.071444 
L 239.4 141.342032 
L 239.572249 67.699251 
L 239.916746 83.202995 
L 240.088995 129.714225 
L 240.433493 94.830802 
L 240.605742 110.334545 
L 240.77799 71.575187 
L 240.950239 114.210481 
L 241.122488 75.451123 
L 241.294737 133.59016 
L 241.466986 94.830802 
L 241.639234 141.342032 
L 241.811483 98.706738 
L 241.983732 125.838289 
L 242.155981 110.334545 
L 242.32823 141.342032 
L 242.500478 125.838289 
L 242.672727 156.845775 
L 243.017225 106.45861 
L 243.189474 94.830802 
L 243.361722 149.093904 
L 243.533971 98.706738 
L 243.70622 149.093904 
L 243.878469 137.466096 
L 244.050718 67.699251 
L 244.395215 152.96984 
L 244.567464 110.334545 
L 244.739713 102.582674 
L 245.428708 156.845775 
L 245.600957 94.830802 
L 245.773206 156.845775 
L 245.945455 137.466096 
L 246.117703 98.706738 
L 246.289952 98.706738 
L 246.462201 102.582674 
L 246.63445 63.823316 
L 246.806699 114.210481 
L 247.151196 83.202995 
L 247.323445 118.086417 
L 247.495694 110.334545 
L 247.667943 114.210481 
L 247.840191 156.845775 
L 248.184689 118.086417 
L 248.356938 102.582674 
L 248.529187 121.962353 
L 248.701435 71.575187 
L 249.045933 106.45861 
L 249.218182 180.10139 
L 249.390431 152.96984 
L 249.562679 156.845775 
L 249.734928 79.327059 
L 249.907177 98.706738 
L 250.079426 133.59016 
L 250.251675 133.59016 
L 250.596172 79.327059 
L 250.768421 79.327059 
L 250.94067 125.838289 
L 251.112919 87.07893 
L 251.285167 94.830802 
L 251.629665 121.962353 
L 251.801914 59.94738 
L 251.974163 118.086417 
L 252.31866 87.07893 
L 252.490909 125.838289 
L 252.663158 90.954866 
L 252.835407 94.830802 
L 253.007656 52.195508 
L 253.179904 137.466096 
L 253.352153 156.845775 
L 253.696651 114.210481 
L 253.8689 129.714225 
L 254.041148 79.327059 
L 254.213397 152.96984 
L 254.557895 133.59016 
L 254.730144 75.451123 
L 254.902392 149.093904 
L 255.074641 106.45861 
L 255.24689 114.210481 
L 255.419139 83.202995 
L 255.591388 125.838289 
L 255.763636 79.327059 
L 256.108134 71.575187 
L 256.280383 63.823316 
L 256.452632 71.575187 
L 256.62488 121.962353 
L 256.797129 98.706738 
L 256.969378 160.721711 
L 257.141627 67.699251 
L 257.313876 114.210481 
L 257.486124 110.334545 
L 257.658373 133.59016 
L 257.830622 67.699251 
L 258.002871 145.217968 
L 258.17512 106.45861 
L 258.519617 137.466096 
L 258.691866 79.327059 
L 259.036364 94.830802 
L 259.208612 129.714225 
L 259.380861 129.714225 
L 259.725359 102.582674 
L 259.897608 75.451123 
L 260.242105 106.45861 
L 260.414354 141.342032 
L 260.586603 149.093904 
L 260.9311 83.202995 
L 261.103349 125.838289 
L 261.275598 106.45861 
L 261.447847 63.823316 
L 261.792344 137.466096 
L 261.964593 118.086417 
L 262.136842 141.342032 
L 262.309091 94.830802 
L 262.48134 90.954866 
L 262.653589 67.699251 
L 262.825837 156.845775 
L 262.998086 114.210481 
L 263.170335 164.597647 
L 263.342584 75.451123 
L 263.514833 71.575187 
L 263.687081 106.45861 
L 263.85933 102.582674 
L 264.031579 56.071444 
L 264.203828 160.721711 
L 264.548325 67.699251 
L 264.892823 121.962353 
L 265.065072 75.451123 
L 265.237321 125.838289 
L 265.409569 102.582674 
L 265.581818 110.334545 
L 265.754067 129.714225 
L 265.926316 133.59016 
L 266.098565 133.59016 
L 266.270813 118.086417 
L 266.443062 137.466096 
L 266.615311 63.823316 
L 266.959809 87.07893 
L 267.132057 63.823316 
L 267.304306 137.466096 
L 267.476555 90.954866 
L 267.648804 110.334545 
L 267.821053 102.582674 
L 267.993301 145.217968 
L 268.16555 106.45861 
L 268.510048 160.721711 
L 268.682297 75.451123 
L 268.854545 133.59016 
L 269.026794 79.327059 
L 269.199043 83.202995 
L 269.371292 137.466096 
L 269.715789 118.086417 
L 269.888038 63.823316 
L 270.060287 59.94738 
L 270.232536 79.327059 
L 270.404785 75.451123 
L 270.577033 90.954866 
L 270.749282 141.342032 
L 270.921531 71.575187 
L 271.266029 125.838289 
L 271.438278 71.575187 
L 271.610526 90.954866 
L 271.782775 145.217968 
L 272.299522 106.45861 
L 272.47177 59.94738 
L 272.644019 83.202995 
L 272.816268 137.466096 
L 272.988517 145.217968 
L 273.160766 94.830802 
L 273.333014 114.210481 
L 273.505263 83.202995 
L 273.677512 90.954866 
L 274.02201 149.093904 
L 274.194258 125.838289 
L 274.366507 156.845775 
L 274.538756 141.342032 
L 274.711005 94.830802 
L 274.883254 83.202995 
L 275.055502 98.706738 
L 275.4 145.217968 
L 275.572249 137.466096 
L 275.744498 121.962353 
L 275.916746 118.086417 
L 276.088995 102.582674 
L 276.433493 121.962353 
L 276.605742 63.823316 
L 276.77799 145.217968 
L 276.950239 59.94738 
L 277.122488 106.45861 
L 277.294737 110.334545 
L 277.466986 141.342032 
L 277.639234 149.093904 
L 277.811483 83.202995 
L 277.983732 137.466096 
L 278.155981 67.699251 
L 278.32823 71.575187 
L 278.672727 160.721711 
L 278.844976 87.07893 
L 279.017225 114.210481 
L 279.189474 87.07893 
L 279.361722 98.706738 
L 279.533971 118.086417 
L 279.878469 59.94738 
L 280.222967 160.721711 
L 280.395215 98.706738 
L 280.911962 129.714225 
L 281.084211 152.96984 
L 281.256459 102.582674 
L 281.428708 90.954866 
L 281.600957 106.45861 
L 281.773206 160.721711 
L 281.945455 63.823316 
L 282.117703 106.45861 
L 282.462201 79.327059 
L 282.63445 156.845775 
L 282.806699 83.202995 
L 282.978947 137.466096 
L 283.151196 149.093904 
L 283.323445 133.59016 
L 283.495694 48.319572 
L 283.667943 156.845775 
L 283.840191 114.210481 
L 284.01244 114.210481 
L 284.184689 87.07893 
L 284.356938 94.830802 
L 284.529187 94.830802 
L 285.045933 141.342032 
L 285.390431 67.699251 
L 285.562679 56.071444 
L 285.734928 106.45861 
L 285.907177 79.327059 
L 286.079426 129.714225 
L 286.251675 110.334545 
L 286.423923 118.086417 
L 286.596172 149.093904 
L 286.768421 156.845775 
L 286.94067 79.327059 
L 287.112919 110.334545 
L 287.285167 63.823316 
L 287.457416 114.210481 
L 287.801914 90.954866 
L 287.974163 83.202995 
L 288.146411 83.202995 
L 288.31866 149.093904 
L 288.490909 79.327059 
L 288.663158 125.838289 
L 288.835407 52.195508 
L 289.179904 106.45861 
L 289.352153 152.96984 
L 289.524402 87.07893 
L 289.696651 125.838289 
L 290.041148 114.210481 
L 290.213397 56.071444 
L 290.385646 118.086417 
L 290.557895 79.327059 
L 290.730144 90.954866 
L 290.902392 90.954866 
L 291.074641 145.217968 
L 291.419139 59.94738 
L 291.591388 94.830802 
L 291.763636 94.830802 
L 291.935885 133.59016 
L 292.108134 87.07893 
L 292.280383 71.575187 
L 292.452632 125.838289 
L 292.62488 125.838289 
L 292.797129 98.706738 
L 292.969378 94.830802 
L 293.313876 137.466096 
L 293.486124 137.466096 
L 293.658373 79.327059 
L 293.830622 160.721711 
L 294.002871 141.342032 
L 294.17512 160.721711 
L 294.347368 98.706738 
L 294.519617 98.706738 
L 294.691866 79.327059 
L 294.864115 90.954866 
L 295.036364 121.962353 
L 295.208612 75.451123 
L 295.380861 137.466096 
L 295.55311 156.845775 
L 295.897608 83.202995 
L 296.069856 114.210481 
L 296.242105 59.94738 
L 296.586603 125.838289 
L 296.758852 125.838289 
L 296.9311 67.699251 
L 297.275598 121.962353 
L 297.447847 125.838289 
L 297.620096 63.823316 
L 297.792344 110.334545 
L 297.964593 59.94738 
L 298.136842 52.195508 
L 298.309091 79.327059 
L 298.48134 145.217968 
L 298.653589 137.466096 
L 298.825837 141.342032 
L 298.998086 48.319572 
L 299.170335 114.210481 
L 299.342584 110.334545 
L 299.514833 129.714225 
L 299.687081 71.575187 
L 299.85933 160.721711 
L 300.031579 71.575187 
L 300.203828 75.451123 
L 300.376077 83.202995 
L 300.548325 149.093904 
L 300.720574 75.451123 
L 300.892823 133.59016 
L 301.065072 145.217968 
L 301.237321 79.327059 
L 301.409569 59.94738 
L 301.581818 98.706738 
L 301.754067 44.443636 
L 301.926316 114.210481 
L 302.270813 56.071444 
L 302.443062 102.582674 
L 302.615311 118.086417 
L 302.78756 79.327059 
L 302.959809 83.202995 
L 303.132057 164.597647 
L 303.304306 67.699251 
L 303.476555 118.086417 
L 303.648804 79.327059 
L 303.821053 75.451123 
L 303.993301 59.94738 
L 304.16555 149.093904 
L 304.337799 83.202995 
L 304.510048 102.582674 
L 304.682297 59.94738 
L 304.854545 118.086417 
L 305.026794 110.334545 
L 305.199043 75.451123 
L 305.371292 106.45861 
L 305.543541 160.721711 
L 305.715789 156.845775 
L 305.888038 156.845775 
L 306.060287 90.954866 
L 306.232536 98.706738 
L 306.577033 121.962353 
L 306.749282 129.714225 
L 306.921531 129.714225 
L 307.09378 141.342032 
L 307.266029 137.466096 
L 307.438278 94.830802 
L 307.610526 87.07893 
L 307.782775 129.714225 
L 307.955024 118.086417 
L 308.127273 172.349519 
L 308.299522 125.838289 
L 308.47177 145.217968 
L 308.644019 106.45861 
L 308.816268 118.086417 
L 308.988517 63.823316 
L 309.160766 125.838289 
L 309.333014 125.838289 
L 309.505263 90.954866 
L 309.677512 125.838289 
L 309.849761 71.575187 
L 310.02201 145.217968 
L 310.194258 133.59016 
L 310.366507 63.823316 
L 310.883254 137.466096 
L 311.227751 79.327059 
L 311.572249 129.714225 
L 312.088995 59.94738 
L 312.261244 75.451123 
L 312.433493 141.342032 
L 312.605742 83.202995 
L 312.77799 125.838289 
L 312.950239 87.07893 
L 313.122488 149.093904 
L 313.466986 121.962353 
L 313.639234 59.94738 
L 313.811483 149.093904 
L 313.983732 90.954866 
L 314.155981 118.086417 
L 314.32823 83.202995 
L 314.672727 114.210481 
L 314.844976 118.086417 
L 315.017225 125.838289 
L 315.189474 121.962353 
L 315.361722 152.96984 
L 315.533971 137.466096 
L 315.70622 102.582674 
L 315.878469 152.96984 
L 316.050718 83.202995 
L 316.222967 102.582674 
L 316.395215 98.706738 
L 316.567464 152.96984 
L 316.739713 63.823316 
L 316.911962 141.342032 
L 317.084211 152.96984 
L 317.256459 102.582674 
L 317.428708 94.830802 
L 317.600957 94.830802 
L 317.773206 133.59016 
L 318.117703 90.954866 
L 318.289952 156.845775 
L 318.63445 83.202995 
L 318.806699 102.582674 
L 318.978947 79.327059 
L 319.323445 172.349519 
L 319.840191 125.838289 
L 320.01244 67.699251 
L 320.356938 141.342032 
L 320.529187 118.086417 
L 320.873684 152.96984 
L 321.045933 110.334545 
L 321.390431 129.714225 
L 321.562679 118.086417 
L 321.734928 133.59016 
L 321.907177 168.473583 
L 322.423923 79.327059 
L 322.596172 160.721711 
L 322.768421 114.210481 
L 322.94067 141.342032 
L 323.112919 98.706738 
L 323.285167 129.714225 
L 323.457416 110.334545 
L 323.629665 56.071444 
L 323.801914 59.94738 
L 323.974163 87.07893 
L 324.146411 145.217968 
L 324.31866 102.582674 
L 324.490909 141.342032 
L 324.663158 98.706738 
L 324.835407 94.830802 
L 325.179904 160.721711 
L 325.352153 160.721711 
L 325.524402 149.093904 
L 325.696651 67.699251 
L 325.8689 83.202995 
L 326.041148 129.714225 
L 326.213397 67.699251 
L 326.385646 87.07893 
L 326.557895 168.473583 
L 326.730144 152.96984 
L 326.902392 110.334545 
L 327.074641 133.59016 
L 327.24689 94.830802 
L 327.419139 152.96984 
L 327.591388 137.466096 
L 327.935885 83.202995 
L 328.108134 102.582674 
L 328.280383 145.217968 
L 328.452632 149.093904 
L 328.62488 172.349519 
L 328.797129 102.582674 
L 328.969378 114.210481 
L 329.141627 152.96984 
L 329.486124 87.07893 
L 329.658373 83.202995 
L 329.830622 67.699251 
L 330.002871 83.202995 
L 330.17512 137.466096 
L 330.347368 114.210481 
L 330.691866 137.466096 
L 330.864115 98.706738 
L 331.036364 160.721711 
L 331.208612 156.845775 
L 331.380861 83.202995 
L 331.55311 59.94738 
L 331.725359 145.217968 
L 331.897608 129.714225 
L 332.069856 98.706738 
L 332.242105 141.342032 
L 332.414354 71.575187 
L 332.586603 90.954866 
L 332.758852 145.217968 
L 332.9311 94.830802 
L 333.103349 87.07893 
L 333.275598 52.195508 
L 333.620096 149.093904 
L 333.792344 83.202995 
L 333.964593 83.202995 
L 334.309091 156.845775 
L 334.48134 149.093904 
L 334.825837 90.954866 
L 334.998086 141.342032 
L 335.170335 145.217968 
L 335.514833 87.07893 
L 335.85933 137.466096 
L 336.031579 125.838289 
L 336.203828 56.071444 
L 336.376077 172.349519 
L 336.892823 98.706738 
L 337.065072 141.342032 
L 337.237321 110.334545 
L 337.409569 102.582674 
L 337.581818 67.699251 
L 337.926316 152.96984 
L 338.270813 90.954866 
L 338.443062 110.334545 
L 338.615311 102.582674 
L 338.78756 44.443636 
L 338.959809 129.714225 
L 339.132057 110.334545 
L 339.304306 133.59016 
L 339.476555 125.838289 
L 339.648804 137.466096 
L 339.821053 59.94738 
L 339.993301 156.845775 
L 340.16555 94.830802 
L 340.337799 98.706738 
L 340.510048 145.217968 
L 340.682297 110.334545 
L 340.854545 149.093904 
L 341.026794 90.954866 
L 341.199043 83.202995 
L 341.371292 156.845775 
L 341.543541 145.217968 
L 341.715789 114.210481 
L 341.888038 125.838289 
L 342.060287 118.086417 
L 342.232536 149.093904 
L 342.577033 90.954866 
L 342.921531 137.466096 
L 343.09378 152.96984 
L 343.266029 90.954866 
L 343.610526 168.473583 
L 343.782775 114.210481 
L 343.955024 168.473583 
L 344.127273 67.699251 
L 344.299522 114.210481 
L 344.47177 98.706738 
L 344.644019 129.714225 
L 344.816268 137.466096 
L 344.988517 118.086417 
L 345.160766 63.823316 
L 345.333014 71.575187 
L 345.505263 90.954866 
L 345.677512 145.217968 
L 345.849761 129.714225 
L 346.02201 149.093904 
L 346.194258 141.342032 
L 346.366507 67.699251 
L 346.538756 141.342032 
L 346.711005 156.845775 
L 346.883254 106.45861 
L 347.055502 106.45861 
L 347.4 129.714225 
L 347.572249 83.202995 
L 347.744498 67.699251 
L 347.916746 137.466096 
L 348.088995 149.093904 
L 348.261244 98.706738 
L 348.433493 141.342032 
L 348.605742 141.342032 
L 348.77799 145.217968 
L 348.950239 90.954866 
L 349.122488 137.466096 
L 349.294737 133.59016 
L 349.466986 121.962353 
L 349.811483 149.093904 
L 349.983732 67.699251 
L 350.155981 102.582674 
L 350.32823 79.327059 
L 350.500478 180.10139 
L 350.672727 98.706738 
L 350.844976 129.714225 
L 351.017225 102.582674 
L 351.189474 152.96984 
L 351.361722 98.706738 
L 351.533971 141.342032 
L 351.70622 121.962353 
L 351.878469 152.96984 
L 352.050718 133.59016 
L 352.222967 145.217968 
L 352.395215 129.714225 
L 352.567464 94.830802 
L 352.739713 160.721711 
L 352.911962 106.45861 
L 353.084211 133.59016 
L 353.256459 114.210481 
L 353.428708 79.327059 
L 353.600957 83.202995 
L 353.773206 125.838289 
L 353.945455 79.327059 
L 354.117703 71.575187 
L 354.289952 98.706738 
L 354.462201 102.582674 
L 354.63445 125.838289 
L 354.806699 98.706738 
L 354.978947 121.962353 
L 355.151196 125.838289 
L 355.323445 63.823316 
L 355.495694 71.575187 
L 355.667943 145.217968 
L 355.840191 90.954866 
L 356.01244 125.838289 
L 356.184689 56.071444 
L 356.356938 149.093904 
L 356.529187 98.706738 
L 356.701435 87.07893 
L 356.873684 160.721711 
L 357.045933 183.977326 
L 357.218182 83.202995 
L 357.734928 149.093904 
L 357.907177 145.217968 
L 358.079426 129.714225 
L 358.251675 98.706738 
L 358.423923 110.334545 
L 358.596172 156.845775 
L 358.768421 94.830802 
L 358.94067 164.597647 
L 359.112919 129.714225 
L 359.285167 141.342032 
L 359.629665 106.45861 
L 359.801914 110.334545 
L 359.974163 180.10139 
L 360.146411 94.830802 
L 360.31866 90.954866 
L 360.490909 98.706738 
L 360.835407 149.093904 
L 361.007656 141.342032 
L 361.179904 172.349519 
L 361.352153 160.721711 
L 361.524402 90.954866 
L 361.696651 94.830802 
L 362.041148 160.721711 
L 362.213397 152.96984 
L 362.557895 129.714225 
L 362.730144 121.962353 
L 362.902392 156.845775 
L 363.074641 90.954866 
L 363.24689 83.202995 
L 363.419139 133.59016 
L 363.591388 129.714225 
L 363.763636 94.830802 
L 363.935885 164.597647 
L 364.108134 133.59016 
L 364.280383 137.466096 
L 364.452632 168.473583 
L 364.62488 83.202995 
L 364.797129 67.699251 
L 364.969378 129.714225 
L 365.141627 63.823316 
L 365.313876 125.838289 
L 365.486124 118.086417 
L 365.658373 125.838289 
L 365.830622 114.210481 
L 366.002871 160.721711 
L 366.17512 110.334545 
L 366.519617 160.721711 
L 366.691866 83.202995 
L 366.864115 129.714225 
L 367.036364 87.07893 
L 367.208612 149.093904 
L 367.380861 141.342032 
L 367.55311 94.830802 
L 367.725359 141.342032 
L 367.897608 149.093904 
L 368.069856 133.59016 
L 368.242105 129.714225 
L 368.414354 98.706738 
L 368.758852 118.086417 
L 368.9311 141.342032 
L 369.275598 106.45861 
L 369.447847 114.210481 
L 369.620096 133.59016 
L 369.792344 114.210481 
L 369.964593 149.093904 
L 370.136842 79.327059 
L 370.48134 137.466096 
L 370.825837 83.202995 
L 370.998086 145.217968 
L 371.170335 141.342032 
L 371.342584 83.202995 
L 371.514833 83.202995 
L 371.687081 114.210481 
L 371.85933 87.07893 
L 372.031579 94.830802 
L 372.376077 176.225455 
L 372.548325 98.706738 
L 372.720574 160.721711 
L 372.892823 125.838289 
L 373.065072 141.342032 
L 373.409569 102.582674 
L 373.581818 152.96984 
L 373.581818 152.96984 
" style="fill:none;stroke:#1f77b4;stroke-linecap:square;stroke-width:1.5;"/>
   </g>
   <g id="patch_3">
    <path d="M 54 252 
L 54 34.56 
" style="fill:none;stroke:#000000;stroke-linecap:square;stroke-linejoin:miter;stroke-width:0.8;"/>
   </g>
   <g id="patch_4">
    <path d="M 388.8 252 
L 388.8 34.56 
" style="fill:none;stroke:#000000;stroke-linecap:square;stroke-linejoin:miter;stroke-width:0.8;"/>
   </g>
   <g id="patch_5">
    <path d="M 54 252 
L 388.8 252 
" style="fill:none;stroke:#000000;stroke-linecap:square;stroke-linejoin:miter;stroke-width:0.8;"/>
   </g>
   <g id="patch_6">
    <path d="M 54 34.56 
L 388.8 34.56 
" style="fill:none;stroke:#000000;stroke-linecap:square;stroke-linejoin:miter;stroke-width:0.8;"/>
   </g>
  </g>
 </g>
 <defs>
  <clipPath id="p7d974260f7">
   <rect height="217.44" width="334.8" x="54" y="34.56"/>
  </clipPath>
 </defs>
</svg>
