<?xml version="1.0" encoding="utf-8" standalone="no"?>
<!DOCTYPE svg PUBLIC "-//W3C//DTD SVG 1.1//EN"
  "http://www.w3.org/Graphics/SVG/1.1/DTD/svg11.dtd">
<!-- Created with matplotlib (https://matplotlib.org/) -->
<svg height="288pt" version="1.1" viewBox="0 0 432 288" width="432pt" xmlns="http://www.w3.org/2000/svg" xmlns:xlink="http://www.w3.org/1999/xlink">
 <defs>
  <style type="text/css">
*{stroke-linecap:butt;stroke-linejoin:round;}
  </style>
 </defs>
 <g id="figure_1">
  <g id="patch_1">
   <path d="M 0 288 
L 432 288 
L 432 0 
L 0 0 
z
" style="fill:#ffffff;"/>
  </g>
  <g id="axes_1">
   <g id="patch_2">
    <path d="M 54 252 
L 388.8 252 
L 388.8 34.56 
L 54 34.56 
z
" style="fill:#ffffff;"/>
   </g>
   <g id="matplotlib.axis_1">
    <g id="xtick_1">
     <g id="line2d_1">
      <defs>
       <path d="M 0 0 
L 0 3.5 
" id="maf55c42731" style="stroke:#000000;stroke-width:0.8;"/>
      </defs>
      <g>
       <use style="stroke:#000000;stroke-width:0.8;" x="69.218182" xlink:href="#maf55c42731" y="252"/>
      </g>
     </g>
     <g id="text_1">
      <!-- 0 -->
      <defs>
       <path d="M 31.78125 66.40625 
Q 24.171875 66.40625 20.328125 58.90625 
Q 16.5 51.421875 16.5 36.375 
Q 16.5 21.390625 20.328125 13.890625 
Q 24.171875 6.390625 31.78125 6.390625 
Q 39.453125 6.390625 43.28125 13.890625 
Q 47.125 21.390625 47.125 36.375 
Q 47.125 51.421875 43.28125 58.90625 
Q 39.453125 66.40625 31.78125 66.40625 
z
M 31.78125 74.21875 
Q 44.046875 74.21875 50.515625 64.515625 
Q 56.984375 54.828125 56.984375 36.375 
Q 56.984375 17.96875 50.515625 8.265625 
Q 44.046875 -1.421875 31.78125 -1.421875 
Q 19.53125 -1.421875 13.0625 8.265625 
Q 6.59375 17.96875 6.59375 36.375 
Q 6.59375 54.828125 13.0625 64.515625 
Q 19.53125 74.21875 31.78125 74.21875 
z
" id="DejaVuSans-48"/>
      </defs>
      <g transform="translate(66.036932 266.598437)scale(0.1 -0.1)">
       <use xlink:href="#DejaVuSans-48"/>
      </g>
     </g>
    </g>
    <g id="xtick_2">
     <g id="line2d_2">
      <g>
       <use style="stroke:#000000;stroke-width:0.8;" x="113.252273" xlink:href="#maf55c42731" y="252"/>
      </g>
     </g>
     <g id="text_2">
      <!-- 250 -->
      <defs>
       <path d="M 19.1875 8.296875 
L 53.609375 8.296875 
L 53.609375 0 
L 7.328125 0 
L 7.328125 8.296875 
Q 12.9375 14.109375 22.625 23.890625 
Q 32.328125 33.6875 34.8125 36.53125 
Q 39.546875 41.84375 41.421875 45.53125 
Q 43.3125 49.21875 43.3125 52.78125 
Q 43.3125 58.59375 39.234375 62.25 
Q 35.15625 65.921875 28.609375 65.921875 
Q 23.96875 65.921875 18.8125 64.3125 
Q 13.671875 62.703125 7.8125 59.421875 
L 7.8125 69.390625 
Q 13.765625 71.78125 18.9375 73 
Q 24.125 74.21875 28.421875 74.21875 
Q 39.75 74.21875 46.484375 68.546875 
Q 53.21875 62.890625 53.21875 53.421875 
Q 53.21875 48.921875 51.53125 44.890625 
Q 49.859375 40.875 45.40625 35.40625 
Q 44.1875 33.984375 37.640625 27.21875 
Q 31.109375 20.453125 19.1875 8.296875 
z
" id="DejaVuSans-50"/>
       <path d="M 10.796875 72.90625 
L 49.515625 72.90625 
L 49.515625 64.59375 
L 19.828125 64.59375 
L 19.828125 46.734375 
Q 21.96875 47.46875 24.109375 47.828125 
Q 26.265625 48.1875 28.421875 48.1875 
Q 40.625 48.1875 47.75 41.5 
Q 54.890625 34.8125 54.890625 23.390625 
Q 54.890625 11.625 47.5625 5.09375 
Q 40.234375 -1.421875 26.90625 -1.421875 
Q 22.3125 -1.421875 17.546875 -0.640625 
Q 12.796875 0.140625 7.71875 1.703125 
L 7.71875 11.625 
Q 12.109375 9.234375 16.796875 8.0625 
Q 21.484375 6.890625 26.703125 6.890625 
Q 35.15625 6.890625 40.078125 11.328125 
Q 45.015625 15.765625 45.015625 23.390625 
Q 45.015625 31 40.078125 35.4375 
Q 35.15625 39.890625 26.703125 39.890625 
Q 22.75 39.890625 18.8125 39.015625 
Q 14.890625 38.140625 10.796875 36.28125 
z
" id="DejaVuSans-53"/>
      </defs>
      <g transform="translate(103.708523 266.598437)scale(0.1 -0.1)">
       <use xlink:href="#DejaVuSans-50"/>
       <use x="63.623047" xlink:href="#DejaVuSans-53"/>
       <use x="127.246094" xlink:href="#DejaVuSans-48"/>
      </g>
     </g>
    </g>
    <g id="xtick_3">
     <g id="line2d_3">
      <g>
       <use style="stroke:#000000;stroke-width:0.8;" x="157.286364" xlink:href="#maf55c42731" y="252"/>
      </g>
     </g>
     <g id="text_3">
      <!-- 500 -->
      <g transform="translate(147.742614 266.598437)scale(0.1 -0.1)">
       <use xlink:href="#DejaVuSans-53"/>
       <use x="63.623047" xlink:href="#DejaVuSans-48"/>
       <use x="127.246094" xlink:href="#DejaVuSans-48"/>
      </g>
     </g>
    </g>
    <g id="xtick_4">
     <g id="line2d_4">
      <g>
       <use style="stroke:#000000;stroke-width:0.8;" x="201.320455" xlink:href="#maf55c42731" y="252"/>
      </g>
     </g>
     <g id="text_4">
      <!-- 750 -->
      <defs>
       <path d="M 8.203125 72.90625 
L 55.078125 72.90625 
L 55.078125 68.703125 
L 28.609375 0 
L 18.3125 0 
L 43.21875 64.59375 
L 8.203125 64.59375 
z
" id="DejaVuSans-55"/>
      </defs>
      <g transform="translate(191.776705 266.598437)scale(0.1 -0.1)">
       <use xlink:href="#DejaVuSans-55"/>
       <use x="63.623047" xlink:href="#DejaVuSans-53"/>
       <use x="127.246094" xlink:href="#DejaVuSans-48"/>
      </g>
     </g>
    </g>
    <g id="xtick_5">
     <g id="line2d_5">
      <g>
       <use style="stroke:#000000;stroke-width:0.8;" x="245.354545" xlink:href="#maf55c42731" y="252"/>
      </g>
     </g>
     <g id="text_5">
      <!-- 1000 -->
      <defs>
       <path d="M 12.40625 8.296875 
L 28.515625 8.296875 
L 28.515625 63.921875 
L 10.984375 60.40625 
L 10.984375 69.390625 
L 28.421875 72.90625 
L 38.28125 72.90625 
L 38.28125 8.296875 
L 54.390625 8.296875 
L 54.390625 0 
L 12.40625 0 
z
" id="DejaVuSans-49"/>
      </defs>
      <g transform="translate(232.629545 266.598437)scale(0.1 -0.1)">
       <use xlink:href="#DejaVuSans-49"/>
       <use x="63.623047" xlink:href="#DejaVuSans-48"/>
       <use x="127.246094" xlink:href="#DejaVuSans-48"/>
       <use x="190.869141" xlink:href="#DejaVuSans-48"/>
      </g>
     </g>
    </g>
    <g id="xtick_6">
     <g id="line2d_6">
      <g>
       <use style="stroke:#000000;stroke-width:0.8;" x="289.388636" xlink:href="#maf55c42731" y="252"/>
      </g>
     </g>
     <g id="text_6">
      <!-- 1250 -->
      <g transform="translate(276.663636 266.598437)scale(0.1 -0.1)">
       <use xlink:href="#DejaVuSans-49"/>
       <use x="63.623047" xlink:href="#DejaVuSans-50"/>
       <use x="127.246094" xlink:href="#DejaVuSans-53"/>
       <use x="190.869141" xlink:href="#DejaVuSans-48"/>
      </g>
     </g>
    </g>
    <g id="xtick_7">
     <g id="line2d_7">
      <g>
       <use style="stroke:#000000;stroke-width:0.8;" x="333.422727" xlink:href="#maf55c42731" y="252"/>
      </g>
     </g>
     <g id="text_7">
      <!-- 1500 -->
      <g transform="translate(320.697727 266.598437)scale(0.1 -0.1)">
       <use xlink:href="#DejaVuSans-49"/>
       <use x="63.623047" xlink:href="#DejaVuSans-53"/>
       <use x="127.246094" xlink:href="#DejaVuSans-48"/>
       <use x="190.869141" xlink:href="#DejaVuSans-48"/>
      </g>
     </g>
    </g>
    <g id="xtick_8">
     <g id="line2d_8">
      <g>
       <use style="stroke:#000000;stroke-width:0.8;" x="377.456818" xlink:href="#maf55c42731" y="252"/>
      </g>
     </g>
     <g id="text_8">
      <!-- 1750 -->
      <g transform="translate(364.731818 266.598437)scale(0.1 -0.1)">
       <use xlink:href="#DejaVuSans-49"/>
       <use x="63.623047" xlink:href="#DejaVuSans-55"/>
       <use x="127.246094" xlink:href="#DejaVuSans-53"/>
       <use x="190.869141" xlink:href="#DejaVuSans-48"/>
      </g>
     </g>
    </g>
   </g>
   <g id="matplotlib.axis_2">
    <g id="ytick_1">
     <g id="line2d_9">
      <defs>
       <path d="M 0 0 
L -3.5 0 
" id="me35bba0bc7" style="stroke:#000000;stroke-width:0.8;"/>
      </defs>
      <g>
       <use style="stroke:#000000;stroke-width:0.8;" x="54" xlink:href="#me35bba0bc7" y="252.444692"/>
      </g>
     </g>
     <g id="text_9">
      <!-- 3.75 -->
      <defs>
       <path d="M 40.578125 39.3125 
Q 47.65625 37.796875 51.625 33 
Q 55.609375 28.21875 55.609375 21.1875 
Q 55.609375 10.40625 48.1875 4.484375 
Q 40.765625 -1.421875 27.09375 -1.421875 
Q 22.515625 -1.421875 17.65625 -0.515625 
Q 12.796875 0.390625 7.625 2.203125 
L 7.625 11.71875 
Q 11.71875 9.328125 16.59375 8.109375 
Q 21.484375 6.890625 26.8125 6.890625 
Q 36.078125 6.890625 40.9375 10.546875 
Q 45.796875 14.203125 45.796875 21.1875 
Q 45.796875 27.640625 41.28125 31.265625 
Q 36.765625 34.90625 28.71875 34.90625 
L 20.21875 34.90625 
L 20.21875 43.015625 
L 29.109375 43.015625 
Q 36.375 43.015625 40.234375 45.921875 
Q 44.09375 48.828125 44.09375 54.296875 
Q 44.09375 59.90625 40.109375 62.90625 
Q 36.140625 65.921875 28.71875 65.921875 
Q 24.65625 65.921875 20.015625 65.03125 
Q 15.375 64.15625 9.8125 62.3125 
L 9.8125 71.09375 
Q 15.4375 72.65625 20.34375 73.4375 
Q 25.25 74.21875 29.59375 74.21875 
Q 40.828125 74.21875 47.359375 69.109375 
Q 53.90625 64.015625 53.90625 55.328125 
Q 53.90625 49.265625 50.4375 45.09375 
Q 46.96875 40.921875 40.578125 39.3125 
z
" id="DejaVuSans-51"/>
       <path d="M 10.6875 12.40625 
L 21 12.40625 
L 21 0 
L 10.6875 0 
z
" id="DejaVuSans-46"/>
      </defs>
      <g transform="translate(24.734375 256.243911)scale(0.1 -0.1)">
       <use xlink:href="#DejaVuSans-51"/>
       <use x="63.623047" xlink:href="#DejaVuSans-46"/>
       <use x="95.410156" xlink:href="#DejaVuSans-55"/>
       <use x="159.033203" xlink:href="#DejaVuSans-53"/>
      </g>
     </g>
    </g>
    <g id="ytick_2">
     <g id="line2d_10">
      <g>
       <use style="stroke:#000000;stroke-width:0.8;" x="54" xlink:href="#me35bba0bc7" y="223.754891"/>
      </g>
     </g>
     <g id="text_10">
      <!-- 4.00 -->
      <defs>
       <path d="M 37.796875 64.3125 
L 12.890625 25.390625 
L 37.796875 25.390625 
z
M 35.203125 72.90625 
L 47.609375 72.90625 
L 47.609375 25.390625 
L 58.015625 25.390625 
L 58.015625 17.1875 
L 47.609375 17.1875 
L 47.609375 0 
L 37.796875 0 
L 37.796875 17.1875 
L 4.890625 17.1875 
L 4.890625 26.703125 
z
" id="DejaVuSans-52"/>
      </defs>
      <g transform="translate(24.734375 227.55411)scale(0.1 -0.1)">
       <use xlink:href="#DejaVuSans-52"/>
       <use x="63.623047" xlink:href="#DejaVuSans-46"/>
       <use x="95.410156" xlink:href="#DejaVuSans-48"/>
       <use x="159.033203" xlink:href="#DejaVuSans-48"/>
      </g>
     </g>
    </g>
    <g id="ytick_3">
     <g id="line2d_11">
      <g>
       <use style="stroke:#000000;stroke-width:0.8;" x="54" xlink:href="#me35bba0bc7" y="195.06509"/>
      </g>
     </g>
     <g id="text_11">
      <!-- 4.25 -->
      <g transform="translate(24.734375 198.864309)scale(0.1 -0.1)">
       <use xlink:href="#DejaVuSans-52"/>
       <use x="63.623047" xlink:href="#DejaVuSans-46"/>
       <use x="95.410156" xlink:href="#DejaVuSans-50"/>
       <use x="159.033203" xlink:href="#DejaVuSans-53"/>
      </g>
     </g>
    </g>
    <g id="ytick_4">
     <g id="line2d_12">
      <g>
       <use style="stroke:#000000;stroke-width:0.8;" x="54" xlink:href="#me35bba0bc7" y="166.37529"/>
      </g>
     </g>
     <g id="text_12">
      <!-- 4.50 -->
      <g transform="translate(24.734375 170.174508)scale(0.1 -0.1)">
       <use xlink:href="#DejaVuSans-52"/>
       <use x="63.623047" xlink:href="#DejaVuSans-46"/>
       <use x="95.410156" xlink:href="#DejaVuSans-53"/>
       <use x="159.033203" xlink:href="#DejaVuSans-48"/>
      </g>
     </g>
    </g>
    <g id="ytick_5">
     <g id="line2d_13">
      <g>
       <use style="stroke:#000000;stroke-width:0.8;" x="54" xlink:href="#me35bba0bc7" y="137.685489"/>
      </g>
     </g>
     <g id="text_13">
      <!-- 4.75 -->
      <g transform="translate(24.734375 141.484708)scale(0.1 -0.1)">
       <use xlink:href="#DejaVuSans-52"/>
       <use x="63.623047" xlink:href="#DejaVuSans-46"/>
       <use x="95.410156" xlink:href="#DejaVuSans-55"/>
       <use x="159.033203" xlink:href="#DejaVuSans-53"/>
      </g>
     </g>
    </g>
    <g id="ytick_6">
     <g id="line2d_14">
      <g>
       <use style="stroke:#000000;stroke-width:0.8;" x="54" xlink:href="#me35bba0bc7" y="108.995688"/>
      </g>
     </g>
     <g id="text_14">
      <!-- 5.00 -->
      <g transform="translate(24.734375 112.794907)scale(0.1 -0.1)">
       <use xlink:href="#DejaVuSans-53"/>
       <use x="63.623047" xlink:href="#DejaVuSans-46"/>
       <use x="95.410156" xlink:href="#DejaVuSans-48"/>
       <use x="159.033203" xlink:href="#DejaVuSans-48"/>
      </g>
     </g>
    </g>
    <g id="ytick_7">
     <g id="line2d_15">
      <g>
       <use style="stroke:#000000;stroke-width:0.8;" x="54" xlink:href="#me35bba0bc7" y="80.305887"/>
      </g>
     </g>
     <g id="text_15">
      <!-- 5.25 -->
      <g transform="translate(24.734375 84.105106)scale(0.1 -0.1)">
       <use xlink:href="#DejaVuSans-53"/>
       <use x="63.623047" xlink:href="#DejaVuSans-46"/>
       <use x="95.410156" xlink:href="#DejaVuSans-50"/>
       <use x="159.033203" xlink:href="#DejaVuSans-53"/>
      </g>
     </g>
    </g>
    <g id="ytick_8">
     <g id="line2d_16">
      <g>
       <use style="stroke:#000000;stroke-width:0.8;" x="54" xlink:href="#me35bba0bc7" y="51.616087"/>
      </g>
     </g>
     <g id="text_16">
      <!-- 5.50 -->
      <g transform="translate(24.734375 55.415305)scale(0.1 -0.1)">
       <use xlink:href="#DejaVuSans-53"/>
       <use x="63.623047" xlink:href="#DejaVuSans-46"/>
       <use x="95.410156" xlink:href="#DejaVuSans-53"/>
       <use x="159.033203" xlink:href="#DejaVuSans-48"/>
      </g>
     </g>
    </g>
   </g>
   <g id="line2d_17">
    <path clip-path="url(#p2f7da4a35f)" d="M 69.218182 229.205953 
L 69.394318 230.927341 
L 69.746591 228.058361 
L 69.922727 230.353545 
L 70.098864 226.623871 
L 70.275 228.919055 
L 70.451136 228.058361 
L 70.803409 224.902483 
L 70.979545 224.041789 
L 71.155682 221.172809 
L 71.331818 226.336973 
L 71.507955 221.172809 
L 71.684091 221.746605 
L 71.860227 219.738319 
L 72.036364 227.484565 
L 72.388636 230.640443 
L 72.740909 222.607299 
L 72.917045 222.894197 
L 73.093182 221.459707 
L 73.269318 217.443135 
L 73.621591 225.189381 
L 73.797727 224.902483 
L 74.326136 236.665301 
L 74.502273 234.943913 
L 74.678409 238.099792 
L 75.030682 225.476279 
L 75.206818 234.370117 
L 75.559091 231.501137 
L 75.911364 226.623871 
L 76.263636 236.091505 
L 76.439773 232.648729 
L 76.615909 233.222525 
L 77.144318 227.197667 
L 77.320455 227.484565 
L 77.496591 224.041789 
L 77.672727 226.910769 
L 77.848864 234.943913 
L 78.377273 240.394976 
L 78.553409 239.247384 
L 79.081818 230.640443 
L 79.257955 232.648729 
L 79.434091 232.074933 
L 79.610227 240.108078 
L 79.786364 236.665301 
L 80.138636 242.116364 
L 80.314773 239.534282 
L 80.490909 242.116364 
L 80.667045 234.657015 
L 80.843182 237.239098 
L 81.019318 233.509423 
L 81.195455 233.796321 
L 81.547727 226.623871 
L 81.723864 223.754891 
L 81.9 224.902483 
L 82.076136 228.919055 
L 82.252273 218.590727 
L 82.428409 222.607299 
L 82.604545 220.599013 
L 82.780682 225.476279 
L 82.956818 222.894197 
L 83.132955 222.607299 
L 83.309091 213.139665 
L 83.485227 218.590727 
L 83.8375 220.885911 
L 84.013636 226.336973 
L 84.365909 228.632157 
L 84.542045 228.919055 
L 84.718182 222.607299 
L 84.894318 210.557583 
L 85.070455 213.139665 
L 85.246591 213.139665 
L 85.422727 210.270685 
L 85.598864 219.738319 
L 85.951136 225.476279 
L 86.303409 220.312115 
L 86.479545 220.599013 
L 86.655682 221.746605 
L 86.831818 225.763177 
L 87.007955 226.050075 
L 87.184091 222.320401 
L 87.360227 227.484565 
L 87.536364 222.033503 
L 87.7125 227.484565 
L 87.888636 227.771463 
L 88.417045 217.156237 
L 88.593182 218.590727 
L 88.945455 226.050075 
L 89.121591 225.189381 
L 89.297727 228.345259 
L 89.473864 216.295543 
L 89.65 224.328687 
L 89.826136 222.607299 
L 90.002273 228.345259 
L 90.178409 230.066647 
L 90.354545 233.509423 
L 90.706818 225.476279 
L 90.882955 227.197667 
L 91.059091 221.459707 
L 91.235227 226.623871 
L 91.5875 219.451421 
L 91.939773 229.205953 
L 92.292045 219.738319 
L 92.468182 214.861053 
L 92.644318 213.426563 
L 92.820455 209.696889 
L 92.996591 209.409991 
L 93.348864 206.827909 
L 93.525 207.114807 
L 93.701136 196.49958 
L 93.877273 197.360274 
L 94.053409 188.179538 
L 94.229545 191.622314 
L 94.405682 186.45815 
L 94.581818 188.466436 
L 94.757955 185.597456 
L 94.934091 179.859496 
L 95.110227 185.597456 
L 95.286364 185.02366 
L 95.638636 190.76162 
L 95.814773 186.171252 
L 95.990909 189.040232 
L 96.167045 185.597456 
L 96.343182 186.45815 
L 96.519318 194.778192 
L 96.695455 194.491294 
L 97.047727 193.056804 
L 97.223864 187.605742 
L 97.4 188.753334 
L 97.752273 193.917498 
L 97.928409 194.778192 
L 98.104545 193.6306 
L 98.280682 186.171252 
L 98.456818 187.605742 
L 98.632955 187.605742 
L 98.809091 187.89264 
L 98.985227 183.58917 
L 99.513636 203.958929 
L 99.689773 203.385133 
L 99.865909 202.237541 
L 100.042045 202.237541 
L 100.218182 205.106521 
L 100.394318 204.532725 
L 100.570455 202.524439 
L 100.746591 203.958929 
L 100.922727 202.524439 
L 101.098864 205.393419 
L 101.275 201.950643 
L 101.451136 205.680317 
L 101.627273 204.819623 
L 101.803409 205.680317 
L 101.979545 209.983787 
L 102.155682 208.549297 
L 102.331818 205.393419 
L 102.507955 205.393419 
L 102.684091 199.942357 
L 102.860227 205.680317 
L 103.036364 201.950643 
L 103.388636 210.844481 
L 103.564773 213.426563 
L 103.740909 209.123093 
L 104.093182 213.139665 
L 104.269318 210.270685 
L 104.445455 213.713461 
L 104.621591 210.557583 
L 104.797727 209.409991 
L 104.973864 211.418277 
L 105.502273 223.754891 
L 105.678409 224.041789 
L 105.854545 222.894197 
L 106.030682 226.910769 
L 106.559091 211.131379 
L 106.735227 208.549297 
L 107.263636 220.025217 
L 107.615909 212.278971 
L 107.792045 218.303829 
L 107.968182 216.869339 
L 108.144318 218.016931 
L 108.320455 216.295543 
L 108.672727 206.254113 
L 108.848864 205.967215 
L 109.025 201.950643 
L 109.201136 202.237541 
L 109.553409 210.557583 
L 109.729545 211.131379 
L 109.905682 207.114807 
L 110.081818 206.827909 
L 110.257955 198.794764 
L 110.434091 198.507866 
L 110.610227 190.187824 
L 110.786364 188.466436 
L 110.9625 185.310558 
L 111.138636 185.884354 
L 111.314773 191.622314 
L 111.490909 193.056804 
L 111.667045 197.93407 
L 111.843182 196.49958 
L 112.195455 184.736762 
L 112.371591 187.031946 
L 112.547727 187.031946 
L 112.723864 188.466436 
L 113.076136 177.85121 
L 113.252273 176.41672 
L 113.428409 176.990516 
L 113.604545 175.842924 
L 113.780682 177.277414 
L 113.956818 176.129822 
L 114.309091 165.227698 
L 114.485227 165.801494 
L 114.661364 170.67876 
L 115.013636 159.202839 
L 115.189773 156.907655 
L 115.542045 159.489737 
L 115.718182 162.07182 
L 115.894318 160.924227 
L 116.070455 160.924227 
L 116.775 137.685489 
L 116.951136 134.816509 
L 117.127273 134.529611 
L 117.303409 134.816509 
L 117.479545 127.644059 
L 117.655682 134.529611 
L 117.831818 130.513039 
L 118.007955 131.660631 
L 118.360227 124.48818 
L 118.536364 121.045404 
L 118.7125 112.151566 
L 118.888636 113.872954 
L 119.064773 111.290872 
L 119.240909 116.741934 
L 119.417045 116.741934 
L 119.769318 106.700504 
L 120.297727 116.455036 
L 120.473864 119.324016 
L 120.826136 112.725362 
L 121.002273 112.725362 
L 121.178409 111.003974 
L 121.354545 111.864668 
L 122.235227 126.496467 
L 122.411364 125.635773 
L 122.5875 122.766792 
L 122.763636 123.05369 
L 122.939773 124.48818 
L 123.115909 121.045404 
L 123.468182 129.365447 
L 123.644318 126.209569 
L 123.820455 128.791651 
L 124.172727 126.783365 
L 124.348864 132.234427 
L 124.525 133.095121 
L 124.701136 126.209569 
L 124.877273 128.791651 
L 125.053409 126.783365 
L 125.229545 128.504753 
L 125.405682 127.357161 
L 125.581818 125.061977 
L 125.757955 125.922671 
L 125.934091 124.48818 
L 126.110227 126.496467 
L 126.286364 126.783365 
L 126.4625 119.610914 
L 126.638636 118.463322 
L 126.814773 123.340588 
L 127.343182 113.586056 
L 127.519318 111.003974 
L 127.695455 113.01226 
L 127.871591 111.864668 
L 128.047727 106.126708 
L 128.223864 111.290872 
L 128.4 105.83981 
L 128.576136 104.118422 
L 128.752273 98.093564 
L 128.928409 98.66736 
L 129.104545 97.806666 
L 129.280682 96.085278 
L 129.456818 96.659074 
L 129.809091 111.003974 
L 129.985227 110.430178 
L 130.513636 120.471608 
L 130.689773 127.930957 
L 130.865909 129.939243 
L 131.042045 136.537897 
L 131.218182 135.103407 
L 131.394318 134.816509 
L 131.570455 135.390305 
L 131.746591 133.668917 
L 131.922727 134.816509 
L 132.275 133.095121 
L 132.451136 127.930957 
L 132.803409 124.201282 
L 132.979545 119.037118 
L 133.155682 121.6192 
L 133.331818 119.037118 
L 133.684091 127.930957 
L 134.036364 129.939243 
L 134.2125 133.955815 
L 134.388636 130.226141 
L 134.564773 131.947529 
L 134.917045 129.365447 
L 135.093182 129.365447 
L 135.269318 127.357161 
L 135.445455 130.513039 
L 135.621591 130.226141 
L 135.797727 137.111693 
L 135.973864 137.398591 
L 136.15 137.398591 
L 136.326136 136.537897 
L 136.678409 130.513039 
L 136.854545 128.504753 
L 137.030682 123.914384 
L 137.206818 131.086835 
L 137.735227 117.028832 
L 137.911364 115.307444 
L 138.0875 110.430178 
L 138.263636 109.282586 
L 138.615909 101.249442 
L 138.792045 102.110136 
L 139.144318 96.372176 
L 139.320455 97.23287 
L 139.496591 102.397034 
L 139.672727 100.675646 
L 139.848864 101.823238 
L 140.025 103.831524 
L 140.201136 100.10185 
L 140.377273 98.954258 
L 140.553409 93.216298 
L 140.729545 92.9294 
L 140.905682 85.756949 
L 141.081818 85.183153 
L 141.257955 82.314173 
L 141.610227 80.592785 
L 142.138636 92.642502 
L 142.314773 88.912828 
L 142.490909 93.216298 
L 142.667045 92.9294 
L 142.843182 83.174867 
L 143.019318 80.879683 
L 143.371591 86.330745 
L 143.547727 91.208012 
L 143.723864 89.486624 
L 143.9 86.043847 
L 144.076136 88.052134 
L 144.252273 79.158295 
L 144.428409 84.035561 
L 144.604545 84.035561 
L 144.780682 80.018989 
L 144.956818 80.879683 
L 145.132955 82.887969 
L 145.309091 82.887969 
L 145.485227 86.043847 
L 145.661364 86.617643 
L 145.8375 86.617643 
L 146.013636 88.052134 
L 146.189773 92.9294 
L 146.365909 92.068706 
L 146.542045 95.511482 
L 146.718182 104.40532 
L 147.070455 108.421892 
L 147.246591 109.282586 
L 147.422727 106.413606 
L 147.598864 111.57777 
L 147.775 109.569484 
L 148.303409 115.020546 
L 148.655682 121.906098 
L 148.831818 124.201282 
L 149.184091 116.455036 
L 149.360227 117.31573 
L 149.536364 114.44675 
L 149.7125 113.586056 
L 149.888636 121.906098 
L 150.240909 126.496467 
L 150.417045 126.496467 
L 150.769318 130.226141 
L 151.121591 140.841367 
L 151.297727 145.431735 
L 151.473864 141.702061 
L 151.65 142.275857 
L 151.826136 144.571041 
L 152.178409 145.431735 
L 152.354545 145.144837 
L 152.530682 141.702061 
L 153.059091 157.768349 
L 153.235227 157.481451 
L 153.411364 156.907655 
L 153.5875 152.891083 
L 153.763636 146.005531 
L 153.939773 147.153123 
L 154.115909 149.161409 
L 154.292045 152.604185 
L 154.468182 153.464879 
L 154.644318 151.456593 
L 154.820455 153.751777 
L 155.172727 163.793208 
L 155.348864 164.653902 
L 155.525 164.653902 
L 155.701136 164.9408 
L 155.877273 159.202839 
L 156.229545 167.235984 
L 156.405682 170.965658 
L 156.581818 168.383576 
L 156.757955 172.400148 
L 157.110227 165.514596 
L 157.814773 153.751777 
L 157.990909 152.030389 
L 158.167045 148.874511 
L 158.343182 148.300715 
L 158.519318 146.866225 
L 158.695455 154.038675 
L 159.047727 155.186267 
L 159.223864 152.317287 
L 159.4 156.907655 
L 159.576136 158.055247 
L 159.752273 155.186267 
L 160.104545 142.275857 
L 160.456818 148.874511 
L 160.632955 149.448307 
L 160.809091 148.013817 
L 160.985227 151.456593 
L 161.161364 150.595899 
L 161.3375 149.161409 
L 161.865909 155.760063 
L 162.218182 147.440021 
L 162.394318 144.284143 
L 162.570455 145.718633 
L 162.922727 141.988959 
L 163.098864 142.849653 
L 163.275 139.693775 
L 163.451136 139.693775 
L 163.627273 141.128265 
L 163.803409 135.677203 
L 163.979545 133.955815 
L 164.155682 133.382019 
L 164.507955 129.078549 
L 164.684091 129.365447 
L 165.036364 122.192996 
L 165.388636 124.201282 
L 165.564773 128.504753 
L 165.917045 122.766792 
L 166.093182 123.340588 
L 166.269318 130.513039 
L 166.445455 129.365447 
L 166.621591 130.226141 
L 166.797727 128.791651 
L 167.15 140.554469 
L 167.326136 130.799937 
L 167.678409 126.209569 
L 167.854545 127.070263 
L 168.030682 126.209569 
L 168.206818 123.340588 
L 168.382955 117.31573 
L 168.559091 119.037118 
L 169.0875 100.675646 
L 169.263636 99.528054 
L 169.439773 101.823238 
L 169.615909 96.659074 
L 169.792045 95.224584 
L 169.968182 96.659074 
L 170.144318 95.511482 
L 170.320455 96.372176 
L 170.496591 93.790094 
L 170.672727 94.937686 
L 170.848864 98.66736 
L 171.025 99.241156 
L 171.729545 108.995688 
L 172.081818 104.40532 
L 172.257955 106.987402 
L 172.434091 100.675646 
L 172.610227 102.397034 
L 172.786364 100.675646 
L 172.9625 104.692218 
L 173.314773 98.66736 
L 173.667045 94.076992 
L 174.019318 92.355604 
L 174.195455 85.756949 
L 174.371591 90.06042 
L 174.547727 88.339032 
L 174.9 86.904541 
L 175.076136 86.043847 
L 175.428409 95.511482 
L 175.604545 95.224584 
L 175.956818 102.397034 
L 176.132955 108.70879 
L 176.661364 104.979116 
L 177.013636 106.987402 
L 177.189773 104.692218 
L 177.365909 104.40532 
L 177.542045 106.413606 
L 177.894318 98.093564 
L 178.070455 98.093564 
L 178.598864 94.36389 
L 178.775 95.224584 
L 178.951136 102.683932 
L 179.127273 102.683932 
L 179.303409 100.675646 
L 179.479545 102.97083 
L 179.655682 96.659074 
L 179.831818 96.659074 
L 180.007955 94.937686 
L 180.184091 100.675646 
L 180.360227 96.659074 
L 180.7125 102.397034 
L 181.064773 105.83981 
L 181.240909 105.83981 
L 181.417045 104.40532 
L 181.945455 111.57777 
L 182.297727 100.388748 
L 182.65 105.552912 
L 182.826136 105.83981 
L 183.178409 102.397034 
L 183.354545 107.848096 
L 183.530682 107.2743 
L 183.706818 114.159852 
L 183.882955 113.872954 
L 184.059091 115.020546 
L 184.411364 124.48818 
L 184.5875 122.192996 
L 185.115909 131.373733 
L 185.292045 131.373733 
L 185.468182 133.382019 
L 185.644318 138.259285 
L 185.820455 135.103407 
L 185.996591 138.833081 
L 186.172727 138.833081 
L 186.348864 140.267571 
L 186.701136 139.406877 
L 186.877273 143.136551 
L 187.229545 131.660631 
L 187.405682 135.103407 
L 187.581818 134.816509 
L 187.757955 136.250999 
L 188.110227 129.939243 
L 188.286364 131.373733 
L 188.4625 129.939243 
L 188.638636 130.226141 
L 188.814773 130.799937 
L 188.990909 126.209569 
L 189.167045 130.226141 
L 189.519318 127.070263 
L 189.695455 121.906098 
L 189.871591 123.05369 
L 190.047727 127.644059 
L 190.223864 124.48818 
L 190.4 123.340588 
L 190.576136 120.18471 
L 190.752273 119.324016 
L 191.104545 123.05369 
L 191.280682 121.906098 
L 191.456818 118.75022 
L 191.632955 117.889526 
L 191.809091 120.471608 
L 191.985227 114.44675 
L 192.161364 115.020546 
L 192.3375 114.733648 
L 192.513636 115.307444 
L 193.218182 98.380462 
L 193.394318 97.519768 
L 193.746591 109.569484 
L 193.922727 103.257728 
L 194.098864 109.569484 
L 194.275 109.856382 
L 194.451136 107.848096 
L 194.803409 94.650788 
L 195.155682 99.241156 
L 195.331818 96.659074 
L 195.507955 99.241156 
L 195.684091 97.806666 
L 195.860227 93.216298 
L 196.036364 98.954258 
L 196.740909 92.355604 
L 196.917045 88.62593 
L 197.093182 87.765236 
L 197.269318 90.06042 
L 197.445455 87.19144 
L 197.621591 89.486624 
L 197.973864 85.183153 
L 198.15 81.740377 
L 198.326136 74.854825 
L 198.502273 73.133437 
L 198.678409 78.871397 
L 198.854545 78.584499 
L 199.030682 83.174867 
L 199.382955 74.854825 
L 199.559091 73.420335 
L 199.911364 79.445193 
L 200.439773 83.748663 
L 200.615909 80.879683 
L 200.792045 80.592785 
L 200.968182 84.896255 
L 201.144318 79.445193 
L 201.496591 84.609357 
L 201.848864 96.085278 
L 202.025 92.355604 
L 202.201136 93.503196 
L 202.377273 98.66736 
L 202.553409 95.79838 
L 202.729545 98.380462 
L 202.905682 97.23287 
L 203.081818 90.921114 
L 203.257955 94.076992 
L 203.434091 94.650788 
L 203.786364 97.23287 
L 203.9625 96.085278 
L 204.138636 92.642502 
L 204.314773 93.216298 
L 204.490909 96.085278 
L 204.667045 95.511482 
L 204.843182 94.36389 
L 205.195455 90.634216 
L 205.371591 95.511482 
L 205.547727 95.224584 
L 205.723864 87.478338 
L 205.9 89.486624 
L 206.076136 89.199726 
L 206.252273 94.36389 
L 206.604545 90.921114 
L 206.780682 90.921114 
L 207.132955 91.781808 
L 207.485227 87.478338 
L 207.8375 89.486624 
L 208.013636 84.609357 
L 208.189773 84.609357 
L 208.365909 79.445193 
L 208.542045 81.740377 
L 208.894318 76.863111 
L 209.070455 75.428621 
L 209.246591 77.723805 
L 209.422727 75.428621 
L 209.598864 77.723805 
L 209.775 71.412049 
L 209.951136 76.863111 
L 210.127273 86.043847 
L 210.303409 87.19144 
L 210.479545 92.068706 
L 210.655682 93.503196 
L 210.831818 92.9294 
L 211.184091 101.53634 
L 211.360227 107.2743 
L 211.536364 106.126708 
L 212.240909 117.028832 
L 212.417045 115.594342 
L 212.769318 124.775079 
L 212.945455 119.037118 
L 213.121591 119.610914 
L 213.297727 121.045404 
L 213.473864 118.75022 
L 213.826136 124.201282 
L 214.002273 125.922671 
L 214.178409 128.791651 
L 214.354545 129.078549 
L 214.530682 127.644059 
L 214.706818 128.217855 
L 214.882955 126.783365 
L 215.059091 133.095121 
L 215.411364 136.824795 
L 215.5875 128.504753 
L 215.763636 127.930957 
L 215.939773 126.209569 
L 216.115909 130.226141 
L 216.292045 121.045404 
L 216.468182 122.192996 
L 216.644318 119.037118 
L 216.820455 125.061977 
L 216.996591 122.766792 
L 217.348864 108.995688 
L 217.525 106.413606 
L 217.701136 101.249442 
L 217.877273 105.552912 
L 218.053409 104.118422 
L 218.405682 93.216298 
L 218.581818 90.921114 
L 218.757955 92.9294 
L 218.934091 92.355604 
L 219.110227 87.19144 
L 219.286364 86.617643 
L 219.4625 88.912828 
L 219.638636 86.904541 
L 219.814773 88.62593 
L 219.990909 87.19144 
L 220.343182 80.879683 
L 220.519318 82.027275 
L 220.871591 71.698947 
L 221.047727 69.403763 
L 221.223864 61.944415 
L 221.4 61.370619 
L 221.576136 63.952701 
L 222.280682 58.788537 
L 223.513636 71.985845 
L 223.689773 71.698947 
L 224.042045 62.805109 
L 224.218182 64.813395 
L 224.394318 64.813395 
L 224.570455 63.378905 
L 224.746591 63.378905 
L 224.922727 64.813395 
L 225.098864 65.100293 
L 225.275 69.977559 
L 225.451136 71.698947 
L 225.627273 69.977559 
L 225.803409 65.960987 
L 226.155682 62.518211 
L 226.331818 65.960987 
L 226.507955 62.805109 
L 226.684091 65.100293 
L 226.860227 63.092007 
L 227.2125 71.412049 
L 227.388636 66.534783 
L 227.917045 78.010703 
L 228.093182 78.297601 
L 228.269318 82.027275 
L 228.445455 80.879683 
L 228.621591 81.166581 
L 228.797727 79.732091 
L 229.15 72.559641 
L 229.326136 77.723805 
L 229.502273 77.436907 
L 229.678409 78.010703 
L 229.854545 80.305887 
L 230.030682 73.994131 
L 230.206818 73.707233 
L 230.382955 78.584499 
L 230.559091 76.289315 
L 230.735227 76.576213 
L 231.0875 84.035561 
L 231.263636 85.756949 
L 231.615909 93.216298 
L 231.792045 97.806666 
L 231.968182 93.790094 
L 232.144318 96.659074 
L 232.320455 96.085278 
L 232.496591 96.372176 
L 233.025 106.987402 
L 233.201136 110.14328 
L 233.377273 105.552912 
L 233.553409 108.995688 
L 233.729545 108.134994 
L 234.257955 111.57777 
L 234.434091 112.438464 
L 234.786364 103.831524 
L 234.9625 104.40532 
L 235.667045 118.176424 
L 235.843182 117.889526 
L 236.019318 117.889526 
L 236.195455 115.594342 
L 236.371591 115.594342 
L 236.9 106.126708 
L 237.076136 112.151566 
L 237.252273 111.003974 
L 237.428409 108.421892 
L 237.604545 108.995688 
L 237.780682 108.70879 
L 237.956818 108.134994 
L 238.132955 105.266014 
L 238.309091 105.83981 
L 238.661364 103.544626 
L 238.8375 100.388748 
L 239.013636 102.683932 
L 239.189773 100.388748 
L 239.365909 100.675646 
L 239.542045 97.806666 
L 239.718182 100.388748 
L 240.070455 98.66736 
L 240.246591 98.380462 
L 240.422727 102.97083 
L 240.598864 99.528054 
L 240.775 100.388748 
L 240.951136 99.241156 
L 241.127273 92.642502 
L 241.303409 92.068706 
L 241.655682 100.388748 
L 241.831818 101.249442 
L 242.007955 100.10185 
L 242.184091 96.945972 
L 242.360227 96.085278 
L 242.536364 96.945972 
L 242.7125 94.076992 
L 243.240909 104.118422 
L 243.417045 100.962544 
L 243.593182 103.544626 
L 243.769318 102.683932 
L 243.945455 104.979116 
L 244.297727 100.388748 
L 244.473864 102.110136 
L 244.65 102.110136 
L 245.178409 112.438464 
L 245.354545 111.290872 
L 245.530682 111.864668 
L 245.882955 108.421892 
L 246.059091 105.83981 
L 246.235227 105.552912 
L 246.5875 110.430178 
L 246.763636 110.430178 
L 246.939773 106.987402 
L 247.115909 106.413606 
L 247.292045 109.282586 
L 247.468182 108.134994 
L 247.644318 107.848096 
L 247.996591 98.380462 
L 248.172727 102.683932 
L 248.348864 100.10185 
L 248.525 95.79838 
L 248.701136 95.79838 
L 248.877273 97.23287 
L 249.053409 92.9294 
L 249.229545 92.355604 
L 249.581818 83.748663 
L 249.757955 86.043847 
L 250.110227 78.010703 
L 250.286364 74.567927 
L 250.638636 81.453479 
L 250.814773 86.904541 
L 250.990909 86.904541 
L 251.167045 89.199726 
L 251.343182 88.912828 
L 251.871591 95.224584 
L 252.047727 89.199726 
L 252.223864 90.634216 
L 252.4 89.773522 
L 252.576136 90.634216 
L 252.752273 87.765236 
L 252.928409 91.781808 
L 253.104545 90.921114 
L 253.280682 88.62593 
L 253.809091 67.682375 
L 253.985227 70.838253 
L 254.161364 70.838253 
L 254.3375 72.846539 
L 254.513636 67.969273 
L 254.865909 71.698947 
L 255.042045 75.715519 
L 255.218182 71.412049 
L 255.394318 75.715519 
L 255.922727 78.584499 
L 256.098864 80.018989 
L 256.275 77.723805 
L 256.451136 77.436907 
L 256.627273 80.592785 
L 256.803409 80.879683 
L 256.979545 82.887969 
L 257.155682 83.461765 
L 257.331818 85.183153 
L 257.684091 78.010703 
L 257.860227 78.297601 
L 258.036364 80.879683 
L 258.2125 79.158295 
L 258.388636 79.445193 
L 258.740909 74.854825 
L 258.917045 69.690661 
L 259.093182 71.125151 
L 259.269318 70.264457 
L 259.445455 71.125151 
L 259.797727 73.994131 
L 259.973864 71.412049 
L 260.15 70.551355 
L 260.678409 87.19144 
L 260.854545 87.478338 
L 261.030682 83.748663 
L 261.206818 84.322459 
L 261.382955 80.018989 
L 261.559091 79.158295 
L 261.735227 82.601071 
L 261.911364 82.601071 
L 262.0875 77.723805 
L 262.263636 80.018989 
L 262.615909 76.002417 
L 262.792045 76.289315 
L 262.968182 73.707233 
L 263.672727 82.314173 
L 263.848864 81.453479 
L 264.025 82.887969 
L 264.201136 80.018989 
L 264.377273 80.018989 
L 264.553409 79.732091 
L 264.729545 76.576213 
L 264.905682 76.289315 
L 265.081818 71.985845 
L 265.257955 72.272743 
L 265.610227 75.141723 
L 265.786364 75.141723 
L 266.138636 85.756949 
L 266.314773 81.166581 
L 266.490909 82.314173 
L 266.667045 77.723805 
L 266.843182 76.863111 
L 267.195455 84.609357 
L 267.547727 78.010703 
L 267.723864 70.264457 
L 268.076136 70.838253 
L 268.252273 69.690661 
L 268.604545 73.707233 
L 268.780682 69.403763 
L 268.956818 70.551355 
L 269.132955 70.838253 
L 269.309091 70.264457 
L 269.485227 71.985845 
L 269.661364 76.002417 
L 269.8375 74.567927 
L 270.013636 74.854825 
L 270.365909 67.682375 
L 270.542045 67.969273 
L 270.718182 68.829967 
L 271.070455 65.387191 
L 271.422727 67.969273 
L 271.598864 70.838253 
L 271.775 77.150009 
L 271.951136 76.289315 
L 272.303409 83.461765 
L 272.479545 82.887969 
L 272.655682 78.297601 
L 272.831818 77.723805 
L 273.184091 75.428621 
L 273.360227 80.018989 
L 273.536364 79.158295 
L 273.888636 83.461765 
L 274.064773 81.453479 
L 274.240909 81.166581 
L 274.417045 77.150009 
L 274.593182 83.174867 
L 274.769318 83.174867 
L 275.121591 87.765236 
L 275.297727 91.49491 
L 275.65 92.9294 
L 275.826136 95.511482 
L 276.002273 91.208012 
L 276.178409 91.208012 
L 276.530682 93.790094 
L 276.706818 90.634216 
L 276.882955 91.208012 
L 277.059091 89.773522 
L 277.411364 95.224584 
L 277.763636 84.609357 
L 277.939773 86.330745 
L 278.115909 89.773522 
L 278.468182 92.355604 
L 278.644318 92.068706 
L 278.820455 90.634216 
L 278.996591 92.642502 
L 279.348864 84.896255 
L 279.525 85.756949 
L 279.701136 91.49491 
L 280.229545 83.748663 
L 280.405682 79.445193 
L 280.581818 82.027275 
L 280.757955 79.445193 
L 281.286364 85.756949 
L 281.4625 84.609357 
L 281.638636 85.470051 
L 281.814773 89.486624 
L 281.990909 90.06042 
L 282.167045 88.339032 
L 282.519318 80.879683 
L 282.695455 82.887969 
L 282.871591 82.601071 
L 283.047727 88.052134 
L 283.223864 89.773522 
L 283.4 86.617643 
L 283.576136 78.871397 
L 283.752273 80.305887 
L 283.928409 77.723805 
L 284.104545 80.879683 
L 284.280682 81.740377 
L 284.456818 81.740377 
L 284.809091 94.076992 
L 285.3375 84.896255 
L 285.513636 85.183153 
L 285.689773 83.461765 
L 285.865909 80.592785 
L 286.042045 75.428621 
L 286.218182 73.994131 
L 286.394318 78.297601 
L 287.098864 70.838253 
L 287.275 71.698947 
L 287.451136 77.150009 
L 287.627273 71.985845 
L 287.803409 75.141723 
L 287.979545 73.707233 
L 288.155682 71.125151 
L 288.331818 65.387191 
L 288.507955 70.551355 
L 288.684091 64.813395 
L 289.036364 61.370619 
L 289.2125 65.674089 
L 289.388636 65.100293 
L 289.917045 58.501639 
L 290.269318 57.354047 
L 290.445455 57.640945 
L 290.621591 62.805109 
L 290.973864 65.674089 
L 291.15 63.092007 
L 291.326136 63.665803 
L 291.502273 65.100293 
L 291.678409 64.239599 
L 291.854545 58.501639 
L 292.382955 73.994131 
L 292.559091 72.846539 
L 292.735227 72.846539 
L 292.911364 71.985845 
L 293.0875 72.559641 
L 293.263636 75.428621 
L 293.439773 69.977559 
L 293.968182 80.305887 
L 294.144318 80.592785 
L 294.320455 81.166581 
L 294.496591 74.281029 
L 294.672727 74.854825 
L 294.848864 74.854825 
L 295.025 75.428621 
L 295.201136 71.985845 
L 295.377273 75.141723 
L 295.553409 75.428621 
L 295.729545 78.871397 
L 295.905682 76.863111 
L 296.081818 78.297601 
L 296.434091 69.403763 
L 296.610227 70.838253 
L 296.9625 77.723805 
L 297.138636 78.297601 
L 297.314773 75.428621 
L 297.490909 78.584499 
L 297.667045 77.436907 
L 297.843182 77.723805 
L 298.019318 75.715519 
L 298.195455 80.592785 
L 298.723864 68.543069 
L 298.9 73.707233 
L 299.076136 67.395477 
L 299.252273 66.821681 
L 299.604545 64.239599 
L 299.780682 61.370619 
L 299.956818 62.805109 
L 300.132955 59.362333 
L 300.485227 58.501639 
L 300.8375 48.460208 
L 301.013636 49.607801 
L 301.189773 49.320902 
L 301.365909 47.025718 
L 301.542045 54.771965 
L 301.718182 52.763679 
L 301.894318 52.189883 
L 302.070455 48.747106 
L 302.246591 49.320902 
L 302.422727 46.451922 
L 302.598864 48.460208 
L 302.775 45.30433 
L 302.951136 48.17331 
L 303.127273 44.443636 
L 303.479545 53.050577 
L 303.655682 52.763679 
L 303.831818 49.894699 
L 304.184091 52.763679 
L 304.360227 60.796823 
L 304.7125 58.214741 
L 304.888636 57.067149 
L 305.064773 60.796823 
L 305.240909 58.501639 
L 305.769318 71.698947 
L 305.945455 67.682375 
L 306.121591 68.543069 
L 306.297727 68.256171 
L 306.473864 66.247885 
L 306.826136 78.010703 
L 307.354545 86.330745 
L 307.530682 85.756949 
L 307.706818 90.921114 
L 307.882955 92.642502 
L 308.059091 90.634216 
L 308.235227 94.076992 
L 308.411364 93.216298 
L 308.5875 91.781808 
L 308.763636 96.659074 
L 308.939773 92.642502 
L 309.115909 93.790094 
L 309.468182 104.118422 
L 309.644318 100.10185 
L 309.820455 99.814952 
L 309.996591 99.814952 
L 310.172727 104.979116 
L 310.348864 104.40532 
L 310.877273 98.66736 
L 311.053409 97.23287 
L 311.405682 89.486624 
L 311.581818 89.199726 
L 311.757955 92.9294 
L 311.934091 94.076992 
L 312.110227 94.076992 
L 312.286364 88.912828 
L 312.4625 90.347318 
L 312.814773 85.183153 
L 312.990909 84.322459 
L 313.167045 85.470051 
L 313.343182 84.322459 
L 313.519318 84.322459 
L 313.695455 80.879683 
L 313.871591 80.592785 
L 314.047727 81.166581 
L 314.223864 83.461765 
L 314.4 82.314173 
L 314.576136 88.912828 
L 314.928409 84.035561 
L 315.104545 84.609357 
L 315.280682 86.617643 
L 315.632955 85.756949 
L 315.809091 87.19144 
L 315.985227 90.06042 
L 316.161364 90.06042 
L 316.3375 86.904541 
L 316.513636 86.617643 
L 316.865909 88.339032 
L 317.042045 92.355604 
L 317.218182 92.068706 
L 317.394318 90.06042 
L 317.746591 93.216298 
L 318.275 105.552912 
L 318.451136 106.413606 
L 318.627273 109.282586 
L 318.803409 103.257728 
L 318.979545 102.683932 
L 319.155682 104.118422 
L 319.331818 108.421892 
L 319.507955 107.2743 
L 319.684091 111.864668 
L 319.860227 111.290872 
L 320.2125 115.88124 
L 320.388636 116.168138 
L 320.564773 117.31573 
L 320.740909 120.471608 
L 320.917045 121.6192 
L 321.093182 119.037118 
L 321.269318 114.733648 
L 321.445455 119.037118 
L 321.621591 116.168138 
L 321.797727 120.471608 
L 321.973864 120.18471 
L 322.15 122.479894 
L 322.326136 119.324016 
L 322.502273 118.75022 
L 322.854545 107.848096 
L 323.030682 111.003974 
L 323.206818 111.57777 
L 323.382955 115.020546 
L 323.559091 112.438464 
L 323.735227 111.57777 
L 323.911364 114.44675 
L 324.0875 114.733648 
L 324.263636 117.31573 
L 324.439773 122.192996 
L 324.615909 119.610914 
L 324.792045 119.897812 
L 324.968182 119.324016 
L 325.320455 106.413606 
L 326.025 114.733648 
L 326.201136 111.290872 
L 326.377273 113.872954 
L 326.553409 114.159852 
L 326.905682 108.70879 
L 327.081818 107.561198 
L 327.257955 108.70879 
L 327.610227 113.872954 
L 327.786364 108.995688 
L 327.9625 107.2743 
L 328.314773 113.01226 
L 328.843182 99.814952 
L 329.019318 98.66736 
L 329.371591 99.528054 
L 329.723864 110.430178 
L 330.076136 112.438464 
L 330.252273 116.455036 
L 330.604545 109.282586 
L 330.780682 113.01226 
L 330.956818 113.01226 
L 331.132955 108.421892 
L 331.309091 106.987402 
L 331.485227 101.249442 
L 331.661364 102.97083 
L 331.8375 107.561198 
L 332.013636 104.979116 
L 332.189773 106.413606 
L 332.718182 99.814952 
L 332.894318 97.806666 
L 333.070455 94.076992 
L 333.246591 96.945972 
L 333.422727 97.23287 
L 333.951136 99.814952 
L 334.127273 102.683932 
L 334.303409 102.683932 
L 334.479545 100.388748 
L 334.655682 94.076992 
L 334.831818 94.937686 
L 335.007955 96.659074 
L 335.184091 94.650788 
L 335.360227 89.773522 
L 335.7125 100.388748 
L 335.888636 103.544626 
L 336.064773 104.692218 
L 336.240909 104.979116 
L 336.417045 104.692218 
L 336.593182 102.97083 
L 336.769318 97.806666 
L 336.945455 98.954258 
L 337.121591 98.380462 
L 337.297727 94.937686 
L 337.473864 95.511482 
L 337.65 99.241156 
L 337.826136 96.085278 
L 338.002273 89.773522 
L 338.178409 92.068706 
L 338.354545 89.773522 
L 338.706818 96.945972 
L 338.882955 96.372176 
L 339.059091 93.790094 
L 339.411364 102.110136 
L 339.5875 100.675646 
L 339.763636 100.388748 
L 339.939773 102.397034 
L 340.115909 107.2743 
L 340.292045 104.118422 
L 340.468182 98.66736 
L 340.644318 99.241156 
L 340.996591 102.683932 
L 341.172727 101.53634 
L 341.348864 99.528054 
L 341.701136 103.257728 
L 342.053409 100.388748 
L 342.229545 101.249442 
L 342.405682 108.421892 
L 342.581818 102.397034 
L 342.757955 102.110136 
L 342.934091 106.413606 
L 343.110227 107.561198 
L 343.286364 109.569484 
L 343.4625 106.413606 
L 343.638636 107.2743 
L 343.990909 110.717076 
L 344.167045 109.569484 
L 344.343182 110.14328 
L 344.871591 104.40532 
L 345.047727 111.864668 
L 345.223864 111.864668 
L 345.4 114.733648 
L 345.576136 115.307444 
L 345.752273 111.003974 
L 345.928409 111.290872 
L 346.104545 118.463322 
L 346.280682 114.733648 
L 346.456818 115.594342 
L 346.632955 117.028832 
L 346.809091 115.88124 
L 346.985227 113.872954 
L 347.161364 107.848096 
L 347.513636 116.168138 
L 347.689773 111.864668 
L 347.865909 111.57777 
L 348.218182 115.020546 
L 348.570455 112.151566 
L 349.098864 117.31573 
L 349.275 118.176424 
L 349.451136 111.864668 
L 349.627273 112.725362 
L 349.803409 108.421892 
L 349.979545 109.282586 
L 350.155682 108.134994 
L 350.331818 105.266014 
L 350.684091 110.717076 
L 350.860227 110.717076 
L 351.036364 111.57777 
L 351.2125 110.430178 
L 351.388636 113.01226 
L 351.917045 126.496467 
L 352.093182 122.766792 
L 352.269318 125.061977 
L 352.445455 121.906098 
L 352.621591 121.332302 
L 352.797727 124.775079 
L 353.15 114.733648 
L 353.326136 116.168138 
L 353.502273 114.159852 
L 353.854545 108.421892 
L 354.030682 109.856382 
L 354.206818 114.159852 
L 354.559091 109.282586 
L 354.735227 111.290872 
L 355.0875 100.388748 
L 355.439773 100.388748 
L 355.615909 99.528054 
L 355.792045 93.790094 
L 355.968182 95.79838 
L 356.144318 93.216298 
L 356.320455 88.62593 
L 356.672727 101.53634 
L 356.848864 101.823238 
L 357.025 96.372176 
L 357.553409 103.257728 
L 357.729545 101.53634 
L 357.905682 101.53634 
L 358.081818 99.241156 
L 358.257955 101.823238 
L 358.434091 97.519768 
L 358.610227 99.814952 
L 358.786364 98.66736 
L 358.9625 99.528054 
L 359.138636 101.53634 
L 359.314773 97.519768 
L 359.490909 97.806666 
L 359.667045 101.249442 
L 359.843182 99.814952 
L 360.195455 101.823238 
L 360.371591 101.823238 
L 361.076136 121.906098 
L 361.252273 119.324016 
L 361.428409 119.037118 
L 361.604545 119.324016 
L 361.780682 121.906098 
L 362.132955 133.382019 
L 362.309091 132.234427 
L 362.8375 139.406877 
L 363.013636 134.529611 
L 363.365909 140.267571 
L 363.542045 135.390305 
L 363.718182 133.955815 
L 364.246591 142.849653 
L 364.598864 132.234427 
L 364.775 132.234427 
L 364.951136 129.652345 
L 365.127273 130.799937 
L 365.303409 127.930957 
L 365.479545 130.226141 
L 365.655682 126.496467 
L 365.831818 128.791651 
L 366.007955 126.496467 
L 366.184091 127.070263 
L 366.360227 131.086835 
L 366.536364 129.078549 
L 366.7125 125.348875 
L 366.888636 124.775079 
L 367.240909 132.234427 
L 367.417045 129.939243 
L 367.593182 129.365447 
L 367.769318 129.939243 
L 368.121591 124.775079 
L 368.473864 126.209569 
L 368.65 125.635773 
L 369.002273 121.906098 
L 369.354545 118.463322 
L 369.530682 119.324016 
L 369.706818 116.168138 
L 369.882955 120.471608 
L 370.059091 120.18471 
L 370.235227 118.75022 
L 370.5875 119.610914 
L 370.763636 113.586056 
L 370.939773 114.44675 
L 371.115909 114.733648 
L 371.292045 108.421892 
L 371.468182 108.421892 
L 371.644318 111.864668 
L 371.820455 108.70879 
L 371.996591 111.003974 
L 372.172727 111.290872 
L 372.348864 115.594342 
L 372.525 113.586056 
L 372.701136 117.028832 
L 372.877273 114.44675 
L 373.053409 116.741934 
L 373.229545 115.88124 
L 373.405682 111.57777 
L 373.581818 116.741934 
L 373.581818 116.741934 
" style="fill:none;stroke:#1f77b4;stroke-linecap:square;stroke-width:1.5;"/>
   </g>
   <g id="patch_3">
    <path d="M 54 252 
L 54 34.56 
" style="fill:none;stroke:#000000;stroke-linecap:square;stroke-linejoin:miter;stroke-width:0.8;"/>
   </g>
   <g id="patch_4">
    <path d="M 388.8 252 
L 388.8 34.56 
" style="fill:none;stroke:#000000;stroke-linecap:square;stroke-linejoin:miter;stroke-width:0.8;"/>
   </g>
   <g id="patch_5">
    <path d="M 54 252 
L 388.8 252 
" style="fill:none;stroke:#000000;stroke-linecap:square;stroke-linejoin:miter;stroke-width:0.8;"/>
   </g>
   <g id="patch_6">
    <path d="M 54 34.56 
L 388.8 34.56 
" style="fill:none;stroke:#000000;stroke-linecap:square;stroke-linejoin:miter;stroke-width:0.8;"/>
   </g>
  </g>
 </g>
 <defs>
  <clipPath id="p2f7da4a35f">
   <rect height="217.44" width="334.8" x="54" y="34.56"/>
  </clipPath>
 </defs>
</svg>
