<?xml version="1.0" encoding="utf-8" standalone="no"?>
<!DOCTYPE svg PUBLIC "-//W3C//DTD SVG 1.1//EN"
  "http://www.w3.org/Graphics/SVG/1.1/DTD/svg11.dtd">
<!-- Created with matplotlib (https://matplotlib.org/) -->
<svg height="288pt" version="1.1" viewBox="0 0 432 288" width="432pt" xmlns="http://www.w3.org/2000/svg" xmlns:xlink="http://www.w3.org/1999/xlink">
 <defs>
  <style type="text/css">
*{stroke-linecap:butt;stroke-linejoin:round;}
  </style>
 </defs>
 <g id="figure_1">
  <g id="patch_1">
   <path d="M 0 288 
L 432 288 
L 432 0 
L 0 0 
z
" style="fill:#ffffff;"/>
  </g>
  <g id="axes_1">
   <g id="patch_2">
    <path d="M 54 252 
L 388.8 252 
L 388.8 34.56 
L 54 34.56 
z
" style="fill:#ffffff;"/>
   </g>
   <g id="matplotlib.axis_1">
    <g id="xtick_1">
     <g id="line2d_1">
      <defs>
       <path d="M 0 0 
L 0 3.5 
" id="m4651b2e07f" style="stroke:#000000;stroke-width:0.8;"/>
      </defs>
      <g>
       <use style="stroke:#000000;stroke-width:0.8;" x="69.218182" xlink:href="#m4651b2e07f" y="252"/>
      </g>
     </g>
     <g id="text_1">
      <!-- 0 -->
      <defs>
       <path d="M 31.78125 66.40625 
Q 24.171875 66.40625 20.328125 58.90625 
Q 16.5 51.421875 16.5 36.375 
Q 16.5 21.390625 20.328125 13.890625 
Q 24.171875 6.390625 31.78125 6.390625 
Q 39.453125 6.390625 43.28125 13.890625 
Q 47.125 21.390625 47.125 36.375 
Q 47.125 51.421875 43.28125 58.90625 
Q 39.453125 66.40625 31.78125 66.40625 
z
M 31.78125 74.21875 
Q 44.046875 74.21875 50.515625 64.515625 
Q 56.984375 54.828125 56.984375 36.375 
Q 56.984375 17.96875 50.515625 8.265625 
Q 44.046875 -1.421875 31.78125 -1.421875 
Q 19.53125 -1.421875 13.0625 8.265625 
Q 6.59375 17.96875 6.59375 36.375 
Q 6.59375 54.828125 13.0625 64.515625 
Q 19.53125 74.21875 31.78125 74.21875 
z
" id="DejaVuSans-48"/>
      </defs>
      <g transform="translate(66.036932 266.598437)scale(0.1 -0.1)">
       <use xlink:href="#DejaVuSans-48"/>
      </g>
     </g>
    </g>
    <g id="xtick_2">
     <g id="line2d_2">
      <g>
       <use style="stroke:#000000;stroke-width:0.8;" x="107.961007" xlink:href="#m4651b2e07f" y="252"/>
      </g>
     </g>
     <g id="text_2">
      <!-- 250 -->
      <defs>
       <path d="M 19.1875 8.296875 
L 53.609375 8.296875 
L 53.609375 0 
L 7.328125 0 
L 7.328125 8.296875 
Q 12.9375 14.109375 22.625 23.890625 
Q 32.328125 33.6875 34.8125 36.53125 
Q 39.546875 41.84375 41.421875 45.53125 
Q 43.3125 49.21875 43.3125 52.78125 
Q 43.3125 58.59375 39.234375 62.25 
Q 35.15625 65.921875 28.609375 65.921875 
Q 23.96875 65.921875 18.8125 64.3125 
Q 13.671875 62.703125 7.8125 59.421875 
L 7.8125 69.390625 
Q 13.765625 71.78125 18.9375 73 
Q 24.125 74.21875 28.421875 74.21875 
Q 39.75 74.21875 46.484375 68.546875 
Q 53.21875 62.890625 53.21875 53.421875 
Q 53.21875 48.921875 51.53125 44.890625 
Q 49.859375 40.875 45.40625 35.40625 
Q 44.1875 33.984375 37.640625 27.21875 
Q 31.109375 20.453125 19.1875 8.296875 
z
" id="DejaVuSans-50"/>
       <path d="M 10.796875 72.90625 
L 49.515625 72.90625 
L 49.515625 64.59375 
L 19.828125 64.59375 
L 19.828125 46.734375 
Q 21.96875 47.46875 24.109375 47.828125 
Q 26.265625 48.1875 28.421875 48.1875 
Q 40.625 48.1875 47.75 41.5 
Q 54.890625 34.8125 54.890625 23.390625 
Q 54.890625 11.625 47.5625 5.09375 
Q 40.234375 -1.421875 26.90625 -1.421875 
Q 22.3125 -1.421875 17.546875 -0.640625 
Q 12.796875 0.140625 7.71875 1.703125 
L 7.71875 11.625 
Q 12.109375 9.234375 16.796875 8.0625 
Q 21.484375 6.890625 26.703125 6.890625 
Q 35.15625 6.890625 40.078125 11.328125 
Q 45.015625 15.765625 45.015625 23.390625 
Q 45.015625 31 40.078125 35.4375 
Q 35.15625 39.890625 26.703125 39.890625 
Q 22.75 39.890625 18.8125 39.015625 
Q 14.890625 38.140625 10.796875 36.28125 
z
" id="DejaVuSans-53"/>
      </defs>
      <g transform="translate(98.417257 266.598437)scale(0.1 -0.1)">
       <use xlink:href="#DejaVuSans-50"/>
       <use x="63.623047" xlink:href="#DejaVuSans-53"/>
       <use x="127.246094" xlink:href="#DejaVuSans-48"/>
      </g>
     </g>
    </g>
    <g id="xtick_3">
     <g id="line2d_3">
      <g>
       <use style="stroke:#000000;stroke-width:0.8;" x="146.703833" xlink:href="#m4651b2e07f" y="252"/>
      </g>
     </g>
     <g id="text_3">
      <!-- 500 -->
      <g transform="translate(137.160083 266.598437)scale(0.1 -0.1)">
       <use xlink:href="#DejaVuSans-53"/>
       <use x="63.623047" xlink:href="#DejaVuSans-48"/>
       <use x="127.246094" xlink:href="#DejaVuSans-48"/>
      </g>
     </g>
    </g>
    <g id="xtick_4">
     <g id="line2d_4">
      <g>
       <use style="stroke:#000000;stroke-width:0.8;" x="185.446658" xlink:href="#m4651b2e07f" y="252"/>
      </g>
     </g>
     <g id="text_4">
      <!-- 750 -->
      <defs>
       <path d="M 8.203125 72.90625 
L 55.078125 72.90625 
L 55.078125 68.703125 
L 28.609375 0 
L 18.3125 0 
L 43.21875 64.59375 
L 8.203125 64.59375 
z
" id="DejaVuSans-55"/>
      </defs>
      <g transform="translate(175.902908 266.598437)scale(0.1 -0.1)">
       <use xlink:href="#DejaVuSans-55"/>
       <use x="63.623047" xlink:href="#DejaVuSans-53"/>
       <use x="127.246094" xlink:href="#DejaVuSans-48"/>
      </g>
     </g>
    </g>
    <g id="xtick_5">
     <g id="line2d_5">
      <g>
       <use style="stroke:#000000;stroke-width:0.8;" x="224.189483" xlink:href="#m4651b2e07f" y="252"/>
      </g>
     </g>
     <g id="text_5">
      <!-- 1000 -->
      <defs>
       <path d="M 12.40625 8.296875 
L 28.515625 8.296875 
L 28.515625 63.921875 
L 10.984375 60.40625 
L 10.984375 69.390625 
L 28.421875 72.90625 
L 38.28125 72.90625 
L 38.28125 8.296875 
L 54.390625 8.296875 
L 54.390625 0 
L 12.40625 0 
z
" id="DejaVuSans-49"/>
      </defs>
      <g transform="translate(211.464483 266.598437)scale(0.1 -0.1)">
       <use xlink:href="#DejaVuSans-49"/>
       <use x="63.623047" xlink:href="#DejaVuSans-48"/>
       <use x="127.246094" xlink:href="#DejaVuSans-48"/>
       <use x="190.869141" xlink:href="#DejaVuSans-48"/>
      </g>
     </g>
    </g>
    <g id="xtick_6">
     <g id="line2d_6">
      <g>
       <use style="stroke:#000000;stroke-width:0.8;" x="262.932309" xlink:href="#m4651b2e07f" y="252"/>
      </g>
     </g>
     <g id="text_6">
      <!-- 1250 -->
      <g transform="translate(250.207309 266.598437)scale(0.1 -0.1)">
       <use xlink:href="#DejaVuSans-49"/>
       <use x="63.623047" xlink:href="#DejaVuSans-50"/>
       <use x="127.246094" xlink:href="#DejaVuSans-53"/>
       <use x="190.869141" xlink:href="#DejaVuSans-48"/>
      </g>
     </g>
    </g>
    <g id="xtick_7">
     <g id="line2d_7">
      <g>
       <use style="stroke:#000000;stroke-width:0.8;" x="301.675134" xlink:href="#m4651b2e07f" y="252"/>
      </g>
     </g>
     <g id="text_7">
      <!-- 1500 -->
      <g transform="translate(288.950134 266.598437)scale(0.1 -0.1)">
       <use xlink:href="#DejaVuSans-49"/>
       <use x="63.623047" xlink:href="#DejaVuSans-53"/>
       <use x="127.246094" xlink:href="#DejaVuSans-48"/>
       <use x="190.869141" xlink:href="#DejaVuSans-48"/>
      </g>
     </g>
    </g>
    <g id="xtick_8">
     <g id="line2d_8">
      <g>
       <use style="stroke:#000000;stroke-width:0.8;" x="340.41796" xlink:href="#m4651b2e07f" y="252"/>
      </g>
     </g>
     <g id="text_8">
      <!-- 1750 -->
      <g transform="translate(327.69296 266.598437)scale(0.1 -0.1)">
       <use xlink:href="#DejaVuSans-49"/>
       <use x="63.623047" xlink:href="#DejaVuSans-55"/>
       <use x="127.246094" xlink:href="#DejaVuSans-53"/>
       <use x="190.869141" xlink:href="#DejaVuSans-48"/>
      </g>
     </g>
    </g>
    <g id="xtick_9">
     <g id="line2d_9">
      <g>
       <use style="stroke:#000000;stroke-width:0.8;" x="379.160785" xlink:href="#m4651b2e07f" y="252"/>
      </g>
     </g>
     <g id="text_9">
      <!-- 2000 -->
      <g transform="translate(366.435785 266.598437)scale(0.1 -0.1)">
       <use xlink:href="#DejaVuSans-50"/>
       <use x="63.623047" xlink:href="#DejaVuSans-48"/>
       <use x="127.246094" xlink:href="#DejaVuSans-48"/>
       <use x="190.869141" xlink:href="#DejaVuSans-48"/>
      </g>
     </g>
    </g>
   </g>
   <g id="matplotlib.axis_2">
    <g id="ytick_1">
     <g id="line2d_10">
      <defs>
       <path d="M 0 0 
L -3.5 0 
" id="md5818ee7e1" style="stroke:#000000;stroke-width:0.8;"/>
      </defs>
      <g>
       <use style="stroke:#000000;stroke-width:0.8;" x="54" xlink:href="#md5818ee7e1" y="244.193187"/>
      </g>
     </g>
     <g id="text_10">
      <!-- 0.0 -->
      <defs>
       <path d="M 10.6875 12.40625 
L 21 12.40625 
L 21 0 
L 10.6875 0 
z
" id="DejaVuSans-46"/>
      </defs>
      <g transform="translate(31.096875 247.992405)scale(0.1 -0.1)">
       <use xlink:href="#DejaVuSans-48"/>
       <use x="63.623047" xlink:href="#DejaVuSans-46"/>
       <use x="95.410156" xlink:href="#DejaVuSans-48"/>
      </g>
     </g>
    </g>
    <g id="ytick_2">
     <g id="line2d_11">
      <g>
       <use style="stroke:#000000;stroke-width:0.8;" x="54" xlink:href="#md5818ee7e1" y="219.158756"/>
      </g>
     </g>
     <g id="text_11">
      <!-- 2.5 -->
      <g transform="translate(31.096875 222.957975)scale(0.1 -0.1)">
       <use xlink:href="#DejaVuSans-50"/>
       <use x="63.623047" xlink:href="#DejaVuSans-46"/>
       <use x="95.410156" xlink:href="#DejaVuSans-53"/>
      </g>
     </g>
    </g>
    <g id="ytick_3">
     <g id="line2d_12">
      <g>
       <use style="stroke:#000000;stroke-width:0.8;" x="54" xlink:href="#md5818ee7e1" y="194.124326"/>
      </g>
     </g>
     <g id="text_12">
      <!-- 5.0 -->
      <g transform="translate(31.096875 197.923545)scale(0.1 -0.1)">
       <use xlink:href="#DejaVuSans-53"/>
       <use x="63.623047" xlink:href="#DejaVuSans-46"/>
       <use x="95.410156" xlink:href="#DejaVuSans-48"/>
      </g>
     </g>
    </g>
    <g id="ytick_4">
     <g id="line2d_13">
      <g>
       <use style="stroke:#000000;stroke-width:0.8;" x="54" xlink:href="#md5818ee7e1" y="169.089896"/>
      </g>
     </g>
     <g id="text_13">
      <!-- 7.5 -->
      <g transform="translate(31.096875 172.889114)scale(0.1 -0.1)">
       <use xlink:href="#DejaVuSans-55"/>
       <use x="63.623047" xlink:href="#DejaVuSans-46"/>
       <use x="95.410156" xlink:href="#DejaVuSans-53"/>
      </g>
     </g>
    </g>
    <g id="ytick_5">
     <g id="line2d_14">
      <g>
       <use style="stroke:#000000;stroke-width:0.8;" x="54" xlink:href="#md5818ee7e1" y="144.055465"/>
      </g>
     </g>
     <g id="text_14">
      <!-- 10.0 -->
      <g transform="translate(24.734375 147.854684)scale(0.1 -0.1)">
       <use xlink:href="#DejaVuSans-49"/>
       <use x="63.623047" xlink:href="#DejaVuSans-48"/>
       <use x="127.246094" xlink:href="#DejaVuSans-46"/>
       <use x="159.033203" xlink:href="#DejaVuSans-48"/>
      </g>
     </g>
    </g>
    <g id="ytick_6">
     <g id="line2d_15">
      <g>
       <use style="stroke:#000000;stroke-width:0.8;" x="54" xlink:href="#md5818ee7e1" y="119.021035"/>
      </g>
     </g>
     <g id="text_15">
      <!-- 12.5 -->
      <g transform="translate(24.734375 122.820254)scale(0.1 -0.1)">
       <use xlink:href="#DejaVuSans-49"/>
       <use x="63.623047" xlink:href="#DejaVuSans-50"/>
       <use x="127.246094" xlink:href="#DejaVuSans-46"/>
       <use x="159.033203" xlink:href="#DejaVuSans-53"/>
      </g>
     </g>
    </g>
    <g id="ytick_7">
     <g id="line2d_16">
      <g>
       <use style="stroke:#000000;stroke-width:0.8;" x="54" xlink:href="#md5818ee7e1" y="93.986604"/>
      </g>
     </g>
     <g id="text_16">
      <!-- 15.0 -->
      <g transform="translate(24.734375 97.785823)scale(0.1 -0.1)">
       <use xlink:href="#DejaVuSans-49"/>
       <use x="63.623047" xlink:href="#DejaVuSans-53"/>
       <use x="127.246094" xlink:href="#DejaVuSans-46"/>
       <use x="159.033203" xlink:href="#DejaVuSans-48"/>
      </g>
     </g>
    </g>
    <g id="ytick_8">
     <g id="line2d_17">
      <g>
       <use style="stroke:#000000;stroke-width:0.8;" x="54" xlink:href="#md5818ee7e1" y="68.952174"/>
      </g>
     </g>
     <g id="text_17">
      <!-- 17.5 -->
      <g transform="translate(24.734375 72.751393)scale(0.1 -0.1)">
       <use xlink:href="#DejaVuSans-49"/>
       <use x="63.623047" xlink:href="#DejaVuSans-55"/>
       <use x="127.246094" xlink:href="#DejaVuSans-46"/>
       <use x="159.033203" xlink:href="#DejaVuSans-53"/>
      </g>
     </g>
    </g>
    <g id="ytick_9">
     <g id="line2d_18">
      <g>
       <use style="stroke:#000000;stroke-width:0.8;" x="54" xlink:href="#md5818ee7e1" y="43.917744"/>
      </g>
     </g>
     <g id="text_18">
      <!-- 20.0 -->
      <g transform="translate(24.734375 47.716962)scale(0.1 -0.1)">
       <use xlink:href="#DejaVuSans-50"/>
       <use x="63.623047" xlink:href="#DejaVuSans-48"/>
       <use x="127.246094" xlink:href="#DejaVuSans-46"/>
       <use x="159.033203" xlink:href="#DejaVuSans-48"/>
      </g>
     </g>
    </g>
   </g>
   <g id="line2d_19">
    <path clip-path="url(#p7cb8e48da0)" d="M 69.218182 44.443636 
L 69.683096 76.456277 
L 70.14801 99.670219 
L 70.457952 134.719066 
L 70.612924 129.540917 
L 70.767895 158.897555 
L 70.922866 158.892632 
L 71.077837 169.06435 
L 71.232809 193.720115 
L 71.38778 198.053044 
L 71.542751 210.350383 
L 71.697723 212.5438 
L 71.852694 224.99288 
L 72.007665 223.5078 
L 72.317608 234.490253 
L 72.472579 229.927204 
L 72.62755 231.517684 
L 72.782522 231.02539 
L 73.247436 235.659665 
L 73.402407 233.785123 
L 73.557378 233.753425 
L 73.71235 236.970464 
L 74.022292 233.073559 
L 74.332235 234.597732 
L 74.487206 233.378669 
L 74.642177 230.417663 
L 74.797149 234.349768 
L 74.95212 235.054384 
L 75.107091 234.506807 
L 75.262063 236.469751 
L 75.417034 232.530422 
L 75.572005 231.43198 
L 75.726976 235.551942 
L 75.881948 233.179237 
L 76.036919 236.332542 
L 76.346862 234.391836 
L 76.501833 236.177664 
L 76.656804 234.578562 
L 76.811776 234.903359 
L 76.966747 233.882208 
L 77.121718 234.171851 
L 77.27669 235.591429 
L 77.431661 234.981976 
L 77.586632 233.490741 
L 77.896575 235.738109 
L 78.051546 231.544822 
L 78.206517 235.592401 
L 78.361489 236.266742 
L 78.671431 235.166154 
L 78.826403 238.074367 
L 78.981374 233.944757 
L 79.136345 237.174018 
L 79.291316 233.960183 
L 79.75623 236.979674 
L 79.911202 233.978815 
L 80.221144 237.927728 
L 80.376116 233.778346 
L 80.531087 234.115636 
L 80.686058 236.350777 
L 80.841029 234.630434 
L 80.996001 234.439422 
L 81.305943 235.481637 
L 81.460915 234.499205 
L 81.615886 234.825981 
L 81.770857 234.798662 
L 82.0808 236.063995 
L 82.235771 236.484314 
L 82.390742 230.911752 
L 82.545714 236.367472 
L 82.855656 232.386745 
L 83.010628 235.486445 
L 83.165599 235.85331 
L 83.32057 233.808048 
L 83.475542 236.936028 
L 83.630513 234.653487 
L 83.785484 234.931589 
L 83.940455 233.7678 
L 84.095427 236.575309 
L 84.250398 236.578777 
L 84.405369 235.454482 
L 84.560341 236.06661 
L 84.715312 237.168657 
L 85.025255 233.271517 
L 85.335197 236.011691 
L 85.490168 235.372132 
L 85.64514 236.322632 
L 85.800111 238.053137 
L 86.110054 233.926575 
L 86.265025 232.731471 
L 86.419996 236.339553 
L 86.574968 234.817155 
L 86.729939 236.468739 
L 86.88491 233.158272 
L 87.039882 235.261721 
L 87.194853 235.764888 
L 87.349824 235.272646 
L 87.504795 234.205314 
L 87.659767 236.081115 
L 87.814738 236.012896 
L 87.969709 233.458506 
L 88.124681 235.66616 
L 88.279652 235.320131 
L 88.589595 235.938664 
L 88.744566 232.421457 
L 89.054508 234.991422 
L 89.20948 235.028779 
L 89.364451 236.567815 
L 89.519422 236.671013 
L 89.674394 235.916073 
L 89.829365 233.821213 
L 89.984336 237.82284 
L 90.139308 236.544355 
L 90.294279 236.898814 
L 90.604221 235.886524 
L 90.759193 236.864872 
L 90.914164 234.860714 
L 91.069135 236.542039 
L 91.224107 234.875975 
L 91.534049 235.315759 
L 91.689021 234.745993 
L 91.843992 235.884699 
L 91.998963 235.602705 
L 92.153934 234.048334 
L 92.463877 235.142833 
L 92.618848 237.020702 
L 92.77382 235.297187 
L 92.928791 235.333588 
L 93.238734 236.303098 
L 93.393705 238.638795 
L 93.548676 234.702365 
L 93.703647 235.84029 
L 93.858619 237.827743 
L 94.01359 236.24956 
L 94.168561 236.918967 
L 94.323533 235.638426 
L 94.478504 235.803021 
L 94.633475 233.635453 
L 94.788447 237.368155 
L 94.943418 235.784534 
L 95.098389 237.475983 
L 95.25336 236.158022 
L 95.408332 236.32286 
L 95.563303 236.005971 
L 95.718274 235.330214 
L 95.873246 235.983613 
L 96.028217 234.637668 
L 96.183188 235.908355 
L 96.648102 235.501559 
L 96.803074 234.955819 
L 96.958045 235.851056 
L 97.113016 234.068408 
L 97.267987 235.211913 
L 97.422959 237.360257 
L 97.57793 234.899227 
L 97.732901 236.364001 
L 97.887873 236.220343 
L 98.042844 235.631917 
L 98.197815 234.527424 
L 98.352787 236.604603 
L 98.507758 236.504456 
L 98.662729 236.941677 
L 98.972672 235.383458 
L 99.127643 233.038907 
L 99.282614 236.196992 
L 99.747528 233.375958 
L 99.9025 236.477617 
L 100.057471 236.452513 
L 100.212442 235.879892 
L 100.367413 236.758859 
L 100.522385 235.717179 
L 100.677356 237.516027 
L 100.832327 235.906488 
L 100.987299 237.974206 
L 101.297241 232.654307 
L 101.452213 234.998332 
L 101.607184 234.368215 
L 101.762155 236.684482 
L 101.917126 234.712786 
L 102.072098 235.54712 
L 102.227069 235.126533 
L 102.38204 234.143841 
L 102.691983 236.189716 
L 103.001926 234.897027 
L 103.156897 236.942498 
L 103.311868 235.412781 
L 103.466839 236.839316 
L 103.621811 234.951067 
L 103.776782 235.440705 
L 103.931753 236.783506 
L 104.241696 234.875669 
L 104.551639 236.991287 
L 104.70661 236.190116 
L 104.861581 234.078754 
L 105.016552 237.807135 
L 105.171524 235.323177 
L 105.326495 235.186296 
L 105.481466 233.256036 
L 105.636438 236.583062 
L 105.791409 237.247247 
L 105.94638 234.327958 
L 106.101352 233.523176 
L 106.411294 236.059769 
L 106.566266 235.136843 
L 106.721237 236.286596 
L 106.876208 235.98987 
L 107.031179 236.328153 
L 107.186151 235.199338 
L 107.341122 237.309192 
L 107.496093 234.777082 
L 107.806036 237.617083 
L 108.115979 233.05826 
L 108.27095 235.957541 
L 108.425921 234.951977 
L 108.580892 236.631288 
L 109.200778 232.074509 
L 109.355749 234.914159 
L 109.51072 235.170126 
L 109.665692 233.696398 
L 109.975634 236.944141 
L 110.130605 236.105008 
L 110.285577 237.729283 
L 110.440548 237.712452 
L 110.595519 236.763017 
L 110.750491 236.934752 
L 110.905462 235.550929 
L 111.060433 236.942072 
L 111.215405 235.157255 
L 111.370376 236.588543 
L 111.525347 236.557729 
L 111.680318 233.817487 
L 111.83529 233.697135 
L 111.990261 235.350451 
L 112.145232 235.675847 
L 112.300204 234.552453 
L 112.455175 236.604731 
L 112.610146 236.500136 
L 112.765118 236.030707 
L 112.920089 235.024277 
L 113.07506 237.627709 
L 113.385003 235.772625 
L 113.539974 236.693358 
L 113.694945 233.433024 
L 113.849917 236.938408 
L 114.004888 234.104223 
L 114.159859 236.99062 
L 114.779744 234.571748 
L 114.934716 234.259894 
L 115.089687 232.942273 
L 115.244658 235.978975 
L 115.39963 234.237797 
L 115.554601 237.631262 
L 115.709572 234.228663 
L 115.864544 234.714445 
L 116.019515 233.484269 
L 116.329458 236.515598 
L 116.6394 234.882313 
L 116.794371 235.235458 
L 116.949343 237.666805 
L 117.104314 235.75617 
L 117.259285 238.384561 
L 117.414257 234.552939 
L 117.569228 234.668818 
L 117.724199 236.630143 
L 117.879171 232.143991 
L 118.034142 236.442917 
L 118.189113 235.627478 
L 118.344084 235.76515 
L 118.654027 232.881036 
L 118.808998 236.378649 
L 118.96397 233.711814 
L 119.118941 234.481319 
L 119.273912 236.18675 
L 119.428884 236.169639 
L 119.583855 230.116858 
L 119.738826 234.586414 
L 120.048769 236.394379 
L 120.20374 235.688786 
L 120.358711 232.890681 
L 120.513683 233.34207 
L 120.823625 237.854952 
L 120.978597 234.555856 
L 121.133568 234.399688 
L 121.288539 234.950133 
L 121.44351 232.520061 
L 121.598482 236.046392 
L 121.753453 236.124746 
L 121.908424 234.535166 
L 122.218367 235.393754 
L 122.52831 232.134783 
L 122.683281 234.145365 
L 122.838252 237.698122 
L 122.993223 233.985799 
L 123.148195 235.271413 
L 123.303166 235.005439 
L 123.458137 236.103549 
L 123.613109 231.433645 
L 123.76808 235.22977 
L 123.923051 235.898387 
L 124.078023 233.176344 
L 124.232994 233.617016 
L 124.387965 231.54028 
L 124.542936 235.084152 
L 124.697908 234.706201 
L 124.852879 233.048583 
L 125.162822 236.637952 
L 125.317793 237.34802 
L 125.472764 233.704941 
L 125.627736 234.316792 
L 125.782707 232.788755 
L 126.09265 236.31163 
L 126.402592 232.752903 
L 126.557563 233.136241 
L 126.712535 235.067871 
L 126.867506 235.47244 
L 127.177449 231.024903 
L 127.487391 236.389381 
L 127.642363 235.132469 
L 127.797334 235.279256 
L 127.952305 234.337185 
L 128.107276 235.551019 
L 128.262248 232.91345 
L 128.417219 235.348592 
L 128.57219 235.753719 
L 128.727162 235.592726 
L 129.192076 236.614825 
L 129.347047 234.333771 
L 129.656989 236.539925 
L 129.811961 238.071809 
L 130.121903 233.00269 
L 130.276875 231.764341 
L 130.431846 236.378635 
L 130.586817 235.227739 
L 130.741789 235.179946 
L 130.89676 236.099489 
L 131.051731 232.503117 
L 131.361674 234.967922 
L 131.516645 233.355883 
L 131.671616 233.179209 
L 131.826588 235.668734 
L 131.981559 233.095424 
L 132.13653 234.898101 
L 132.291502 233.652683 
L 132.446473 236.328448 
L 132.756415 231.088625 
L 133.066358 235.444742 
L 133.376301 236.23813 
L 133.531272 235.210683 
L 133.686243 232.369343 
L 133.996186 236.19529 
L 134.4611 231.732143 
L 134.616071 234.649647 
L 134.771042 235.326958 
L 134.926014 233.051169 
L 135.080985 235.486717 
L 135.235956 233.384898 
L 135.390928 236.370548 
L 135.545899 236.60674 
L 135.855842 233.171318 
L 136.010813 233.730629 
L 136.320755 236.807042 
L 136.785669 234.163492 
L 136.940641 233.870239 
L 137.095612 234.155582 
L 137.250583 235.127462 
L 137.405555 233.782342 
L 137.560526 234.184742 
L 137.715497 237.49191 
L 137.870468 235.548244 
L 138.02544 230.819053 
L 138.180411 234.634366 
L 138.335382 231.243015 
L 138.645325 238.08137 
L 138.955268 234.377151 
L 139.110239 230.793881 
L 139.26521 231.648379 
L 139.420181 233.972868 
L 139.575153 232.926623 
L 139.730124 233.953622 
L 139.885095 234.215735 
L 140.040067 236.086293 
L 140.195038 233.744394 
L 140.350009 235.28865 
L 140.504981 233.865956 
L 140.659952 237.157162 
L 140.814923 231.623682 
L 140.969894 230.300883 
L 141.124866 233.832356 
L 141.279837 233.874907 
L 141.434808 233.050806 
L 141.58978 233.616739 
L 141.744751 233.516855 
L 141.899722 234.217238 
L 142.054694 231.4407 
L 142.209665 234.473101 
L 142.364636 233.157912 
L 142.519607 235.940679 
L 142.674579 233.300099 
L 142.82955 233.272894 
L 142.984521 233.088927 
L 143.139493 234.930416 
L 143.294464 233.752279 
L 143.449435 234.085832 
L 143.759378 235.598895 
L 143.914349 236.092229 
L 144.06932 234.086411 
L 144.224292 234.086998 
L 144.534234 233.508893 
L 144.689206 236.710357 
L 144.844177 236.333154 
L 144.999148 233.946803 
L 145.15412 234.979829 
L 145.309091 232.515239 
L 145.464062 235.422384 
L 145.619034 233.681347 
L 145.774005 236.483858 
L 145.928976 236.497615 
L 146.238919 231.022986 
L 146.39389 234.438063 
L 146.548861 234.970014 
L 146.703833 236.161151 
L 146.858804 233.807188 
L 147.013775 234.746139 
L 147.168747 234.883569 
L 147.323718 235.26868 
L 147.63366 233.169269 
L 147.788632 234.534251 
L 148.098574 232.827136 
L 148.408517 235.478872 
L 148.563488 233.97554 
L 148.873431 230.024551 
L 149.183373 234.444217 
L 149.338345 233.256384 
L 149.648287 234.698219 
L 149.95823 231.040712 
L 150.268173 233.595483 
L 150.423144 231.36298 
L 150.578115 235.071286 
L 150.888058 232.539244 
L 151.198 236.443954 
L 151.352972 233.708963 
L 151.507943 237.578677 
L 151.662914 234.014413 
L 151.817886 233.834539 
L 152.127828 235.347891 
L 152.437771 232.910908 
L 152.592742 232.787165 
L 152.747713 234.280657 
L 152.902685 234.438468 
L 153.057656 235.677779 
L 153.212627 233.195245 
L 153.52257 236.230445 
L 153.677541 235.492706 
L 153.832512 234.103346 
L 154.142455 236.124252 
L 154.297426 236.111393 
L 154.452398 236.933401 
L 154.607369 234.684955 
L 154.76234 234.563544 
L 154.917312 233.332777 
L 155.072283 233.190162 
L 155.227254 233.885665 
L 155.382226 235.519543 
L 155.537197 232.959293 
L 155.692168 233.843842 
L 155.847139 233.088676 
L 156.002111 235.500276 
L 156.157082 231.339997 
L 156.312053 232.025405 
L 156.467025 236.764923 
L 156.621996 234.298259 
L 156.776967 236.408018 
L 156.931939 232.801375 
L 157.08691 235.793097 
L 157.241881 234.22166 
L 157.396852 234.152267 
L 157.551824 231.491408 
L 157.706795 236.397856 
L 157.861766 234.389153 
L 158.016738 235.18828 
L 158.171709 231.903154 
L 158.32668 236.221512 
L 158.481652 234.504914 
L 158.636623 235.101218 
L 158.791594 234.620783 
L 158.946565 235.067076 
L 159.101537 233.881281 
L 159.256508 235.083814 
L 159.411479 234.565493 
L 159.566451 232.809779 
L 159.721422 235.038917 
L 159.876393 233.821843 
L 160.186336 236.99242 
L 160.341307 229.976487 
L 160.496278 234.838669 
L 160.65125 234.946308 
L 160.806221 234.464768 
L 160.961192 234.458397 
L 161.426106 237.629413 
L 161.581078 233.669948 
L 161.736049 236.145888 
L 161.89102 235.871004 
L 162.045991 236.704917 
L 162.200963 232.87963 
L 162.355934 235.839455 
L 162.510905 235.904483 
L 162.820848 237.468858 
L 162.975819 237.11175 
L 163.130791 232.891576 
L 163.285762 236.085224 
L 163.440733 233.391317 
L 163.595704 236.672225 
L 163.750676 234.568425 
L 164.060618 235.55817 
L 164.21559 236.599537 
L 164.525532 235.976576 
L 164.835475 233.91587 
L 164.990446 237.87641 
L 165.145418 234.728301 
L 165.45536 236.100028 
L 165.765303 232.964603 
L 165.920274 234.774215 
L 166.075245 233.379113 
L 166.230217 237.3008 
L 166.540159 234.279793 
L 166.695131 234.191266 
L 166.850102 236.992644 
L 167.005073 237.600712 
L 167.160044 236.417761 
L 167.315016 236.53934 
L 167.469987 235.780393 
L 167.624958 237.66853 
L 167.934901 234.728854 
L 168.089872 235.751747 
L 168.244844 233.355102 
L 168.399815 233.999319 
L 168.554786 235.399521 
L 168.709757 232.974424 
L 168.864729 235.573495 
L 169.0197 234.702278 
L 169.174671 237.460027 
L 169.329643 235.281515 
L 169.484614 235.509312 
L 169.639585 232.962956 
L 169.949528 237.684024 
L 170.104499 234.106452 
L 170.25947 236.136724 
L 170.414442 236.071588 
L 170.569413 232.061932 
L 170.879356 236.109004 
L 171.034327 236.022652 
L 171.189298 236.12932 
L 171.34427 237.194778 
L 171.499241 237.098875 
L 171.654212 233.806519 
L 171.809183 236.53 
L 171.964155 234.616336 
L 172.119126 236.08792 
L 172.274097 235.407832 
L 172.58404 237.608078 
L 172.739011 235.464096 
L 172.893983 236.863453 
L 173.203925 233.219032 
L 173.513868 234.856937 
L 173.668839 236.11882 
L 173.82381 235.314313 
L 173.978782 233.766537 
L 174.288724 238.128948 
L 174.443696 235.206757 
L 174.753638 235.996888 
L 174.90861 237.153355 
L 175.063581 236.102854 
L 175.218552 236.270001 
L 175.373523 237.907522 
L 175.528495 234.134356 
L 175.683466 238.148569 
L 175.838437 238.445796 
L 175.993409 234.860531 
L 176.14838 235.280428 
L 176.303351 233.57297 
L 176.458323 235.001539 
L 176.613294 238.186074 
L 176.768265 235.39777 
L 177.38815 234.588772 
L 177.543122 236.108974 
L 177.698093 236.390564 
L 178.008036 234.998479 
L 178.163007 236.506934 
L 178.472949 234.566949 
L 178.627921 237.209837 
L 178.782892 235.162466 
L 178.937863 236.649482 
L 179.247806 234.681515 
L 179.402777 236.045713 
L 179.557749 235.897841 
L 179.71272 237.550244 
L 179.867691 235.261753 
L 180.022662 237.784977 
L 180.177634 234.904841 
L 180.487576 239.029472 
L 180.642548 235.466796 
L 180.797519 235.261521 
L 180.95249 236.564454 
L 181.107462 233.254206 
L 181.262433 237.074676 
L 181.417404 236.662252 
L 181.572375 233.40931 
L 181.727347 236.150186 
L 181.882318 233.842122 
L 182.037289 237.275464 
L 182.192261 235.0074 
L 182.347232 236.777954 
L 182.502203 237.008538 
L 182.657175 236.390283 
L 182.812146 237.81351 
L 182.967117 235.785722 
L 183.122089 237.056224 
L 183.432031 234.631943 
L 183.741974 236.392794 
L 183.896945 232.420227 
L 184.051916 236.09718 
L 184.206888 235.032299 
L 184.361859 236.527675 
L 184.51683 235.665037 
L 184.671802 235.993259 
L 184.826773 238.505836 
L 185.136715 235.224578 
L 185.601629 237.193019 
L 185.756601 237.054856 
L 185.911572 236.390664 
L 186.066543 237.041349 
L 186.221515 236.211426 
L 186.376486 237.252459 
L 186.8414 234.603988 
L 186.996371 234.862129 
L 187.306314 236.404916 
L 187.461285 236.985532 
L 187.616256 236.526255 
L 187.926199 237.716448 
L 188.08117 236.945056 
L 188.236141 234.632301 
L 188.391113 236.408077 
L 188.546084 234.92095 
L 188.701055 237.017093 
L 188.856027 236.108971 
L 189.010998 238.84583 
L 189.165969 233.004428 
L 189.320941 236.070011 
L 189.475912 236.01208 
L 189.630883 236.637987 
L 189.785854 235.736136 
L 190.095797 237.447416 
L 190.250768 235.306958 
L 190.560711 237.36797 
L 190.715682 237.393056 
L 190.870654 237.116325 
L 191.025625 236.066013 
L 191.180596 236.046097 
L 191.490539 238.042997 
L 191.64551 236.395885 
L 191.800481 239.039597 
L 191.955453 237.667387 
L 192.110424 237.619737 
L 192.420367 234.146817 
L 192.730309 238.112032 
L 192.885281 236.24652 
L 193.040252 238.43969 
L 193.195223 238.822499 
L 193.350194 236.101989 
L 193.505166 237.110665 
L 193.660137 236.840642 
L 193.815108 237.969573 
L 194.125051 234.82169 
L 194.280022 236.788552 
L 194.589965 236.324036 
L 194.744936 237.644107 
L 195.054879 236.131596 
L 195.20985 235.957187 
L 195.364821 239.378893 
L 195.519793 236.542444 
L 195.674764 236.847692 
L 195.829735 236.246549 
L 195.984707 237.032235 
L 196.139678 233.642801 
L 196.44962 238.073551 
L 196.604592 235.72968 
L 196.759563 239.244407 
L 197.069506 236.44714 
L 197.224477 236.907733 
L 197.379448 235.769481 
L 197.53442 236.376595 
L 197.689391 236.259508 
L 197.844362 237.979878 
L 198.154305 236.812034 
L 198.309276 235.53235 
L 198.464247 236.910079 
L 198.77419 237.344668 
L 198.929161 238.191492 
L 199.084133 237.623996 
L 199.239104 235.921744 
L 199.394075 237.602308 
L 199.549046 236.110075 
L 199.858989 237.471058 
L 200.01396 235.637541 
L 200.168932 238.315046 
L 200.478874 237.720106 
L 200.633846 235.521258 
L 200.788817 236.29034 
L 200.943788 238.247595 
L 201.098759 234.97498 
L 201.253731 235.874483 
L 201.408702 238.584587 
L 201.563673 238.284365 
L 201.718645 238.33703 
L 201.873616 237.99502 
L 202.028587 238.498791 
L 202.183559 237.258219 
L 202.33853 238.903783 
L 202.493501 237.359771 
L 202.648473 238.74063 
L 202.803444 236.495505 
L 203.113386 237.549456 
L 203.268358 237.185593 
L 203.423329 235.297661 
L 203.5783 237.463706 
L 203.733272 237.15121 
L 203.888243 238.345188 
L 204.043214 236.881745 
L 204.198186 237.610512 
L 204.353157 236.617017 
L 204.508128 237.703442 
L 204.663099 236.595696 
L 204.818071 236.624597 
L 204.973042 237.911865 
L 205.128013 236.569471 
L 205.282985 239.083999 
L 205.592927 234.374643 
L 205.747899 239.591386 
L 205.90287 236.890189 
L 206.057841 236.540517 
L 206.212812 235.57637 
L 206.367784 238.202718 
L 206.677726 235.343546 
L 206.832698 237.135683 
L 206.987669 235.105255 
L 207.297612 236.561359 
L 207.452583 237.587947 
L 207.607554 236.549981 
L 207.762525 237.288435 
L 207.917497 236.648228 
L 208.072468 236.842767 
L 208.227439 236.169969 
L 208.382411 236.697128 
L 208.537382 237.645307 
L 208.692353 235.629502 
L 208.847325 237.628116 
L 209.002296 237.695542 
L 209.157267 237.342736 
L 209.312238 237.329077 
L 209.46721 235.3752 
L 209.622181 236.212163 
L 209.777152 238.235785 
L 209.932124 235.904625 
L 210.087095 238.641483 
L 210.242066 235.588011 
L 210.552009 238.698987 
L 210.70698 237.064116 
L 211.016923 237.473915 
L 211.171894 236.981119 
L 211.326865 237.551462 
L 211.481837 236.73249 
L 211.636808 235.0514 
L 211.791779 238.205812 
L 211.946751 235.378351 
L 212.101722 237.887756 
L 212.256693 235.821161 
L 212.411665 236.859651 
L 212.566636 236.817904 
L 212.721607 237.241406 
L 212.876578 238.199072 
L 213.03155 237.033 
L 213.186521 233.600376 
L 213.341492 236.763477 
L 213.496464 235.560474 
L 213.806406 239.121851 
L 213.961378 237.404374 
L 214.116349 238.311755 
L 214.27132 236.838728 
L 214.426291 234.302256 
L 214.581263 237.99074 
L 214.736234 237.432034 
L 214.891205 237.762966 
L 215.046177 236.518606 
L 215.356119 237.025037 
L 215.511091 237.773663 
L 215.666062 236.597544 
L 215.821033 236.506792 
L 215.976004 236.789594 
L 216.130976 238.31053 
L 216.440918 236.280964 
L 216.59589 237.293528 
L 216.750861 237.327619 
L 216.905832 238.585467 
L 217.060804 236.217339 
L 217.215775 237.482144 
L 217.525717 235.596601 
L 217.990631 238.388771 
L 218.145603 236.244537 
L 218.300574 237.911421 
L 218.455545 237.346662 
L 218.610517 237.931366 
L 218.765488 236.713057 
L 219.07543 238.579208 
L 219.230402 236.897293 
L 219.385373 238.245488 
L 219.540344 237.36287 
L 219.850287 234.765611 
L 220.005258 237.411038 
L 220.16023 236.703695 
L 220.315201 237.499842 
L 220.470172 236.401589 
L 220.625143 236.908508 
L 220.780115 233.935974 
L 220.935086 238.426748 
L 221.090057 238.188379 
L 221.4 236.280515 
L 221.554971 238.047748 
L 221.709943 235.637894 
L 221.864914 238.132811 
L 222.019885 237.998742 
L 222.174857 238.480133 
L 222.484799 236.994979 
L 222.63977 238.562533 
L 222.794742 237.568457 
L 222.949713 238.245504 
L 223.104684 237.946773 
L 223.259656 236.46688 
L 223.414627 237.998934 
L 223.72457 234.789791 
L 223.879541 237.816649 
L 224.189483 235.669796 
L 224.344455 235.574779 
L 224.499426 239.495383 
L 224.654397 237.150555 
L 224.809369 238.262693 
L 225.119311 238.386666 
L 225.274283 236.614375 
L 225.429254 237.970988 
L 225.584225 236.91739 
L 225.739196 236.702939 
L 225.894168 236.939153 
L 226.049139 237.95626 
L 226.359082 236.507283 
L 226.514053 237.859306 
L 226.669024 238.132334 
L 226.823996 239.067348 
L 226.978967 237.212806 
L 227.133938 238.317628 
L 227.288909 234.481228 
L 227.598852 238.537953 
L 227.753823 235.755311 
L 227.908795 235.702676 
L 228.063766 238.896709 
L 228.218737 237.98867 
L 228.373709 236.199539 
L 228.683651 236.491507 
L 228.838622 238.327355 
L 229.148565 238.273583 
L 229.458508 236.419563 
L 229.613479 238.416949 
L 229.76845 237.744473 
L 229.923422 236.221307 
L 230.078393 237.652421 
L 230.233364 235.740189 
L 230.388335 236.902507 
L 230.543307 236.634235 
L 230.698278 236.718077 
L 230.853249 238.342407 
L 231.008221 235.13402 
L 231.163192 238.497636 
L 231.318163 235.711961 
L 231.473135 236.726631 
L 231.628106 238.478326 
L 231.783077 236.641085 
L 232.09302 238.846231 
L 232.247991 236.26585 
L 232.402962 236.042761 
L 232.557934 235.299403 
L 232.867876 238.889334 
L 233.022848 236.701617 
L 233.177819 238.398735 
L 233.487762 236.807328 
L 233.797704 239.046892 
L 233.952675 235.416971 
L 234.262618 238.572316 
L 234.417589 237.988431 
L 234.572561 238.028296 
L 234.727532 238.573449 
L 234.882503 237.949442 
L 235.037475 238.064704 
L 235.192446 238.584109 
L 235.347417 234.368218 
L 235.502388 236.997268 
L 235.65736 237.353971 
L 235.812331 236.646928 
L 235.967302 238.392379 
L 236.122274 237.938214 
L 236.277245 236.448994 
L 236.432216 236.485042 
L 236.742159 238.202918 
L 237.052101 236.943648 
L 237.207073 238.422357 
L 237.362044 238.492739 
L 237.517015 235.677916 
L 237.671987 235.258666 
L 237.826958 236.569485 
L 237.981929 236.595126 
L 238.136901 236.450422 
L 238.446843 239.529364 
L 238.601814 236.119809 
L 238.911757 238.442291 
L 239.066728 237.229088 
L 239.2217 237.082622 
L 239.376671 238.88124 
L 239.531642 239.245127 
L 239.841585 236.411243 
L 239.996556 237.633558 
L 240.151527 239.762577 
L 240.306499 236.358567 
L 240.46147 238.043945 
L 240.616441 236.876354 
L 240.771413 238.368079 
L 240.926384 236.22794 
L 241.081355 238.903358 
L 241.236327 237.716422 
L 241.391298 238.68682 
L 241.546269 238.072444 
L 241.856212 239.071545 
L 242.011183 237.988848 
L 242.166154 238.207147 
L 242.476097 236.46815 
L 242.631068 239.132906 
L 242.78604 239.389099 
L 242.941011 237.004878 
L 243.095982 238.927572 
L 243.250954 238.848388 
L 243.405925 239.640283 
L 243.715867 237.28431 
L 243.870839 237.607101 
L 244.02581 235.423603 
L 244.335753 239.364877 
L 244.490724 236.456584 
L 244.800667 238.255081 
L 244.955638 238.369893 
L 245.110609 238.038568 
L 245.26558 236.416617 
L 245.420552 236.472646 
L 245.730494 239.242059 
L 246.040437 238.567559 
L 246.195408 238.566221 
L 246.35038 239.031092 
L 246.505351 237.892265 
L 246.815293 238.91722 
L 246.970265 235.933835 
L 247.125236 238.60151 
L 247.435179 239.233473 
L 247.59015 239.642589 
L 247.745121 237.562996 
L 247.900093 238.348864 
L 248.210035 237.229833 
L 248.365006 237.856202 
L 248.519978 237.639867 
L 248.674949 236.514214 
L 248.82992 236.991252 
L 248.984892 238.117474 
L 249.139863 236.780302 
L 249.294834 238.284885 
L 249.449806 238.545221 
L 249.604777 238.421955 
L 249.759748 236.604918 
L 249.914719 239.834214 
L 250.069691 237.945937 
L 250.379633 237.858921 
L 250.534605 238.486082 
L 250.689576 238.527809 
L 250.844547 239.648281 
L 250.999519 237.438476 
L 251.309461 239.407981 
L 251.464433 237.423394 
L 251.619404 239.330294 
L 251.929346 236.845928 
L 252.239289 239.374548 
L 252.39426 238.250849 
L 252.549232 238.188914 
L 252.704203 239.291225 
L 252.859174 237.226454 
L 253.014146 239.830765 
L 253.169117 239.672436 
L 253.479059 238.685833 
L 253.789002 238.289337 
L 253.943973 238.273713 
L 254.098945 238.747467 
L 254.253916 239.57989 
L 254.408887 234.779942 
L 254.71883 238.216754 
L 254.873801 238.263503 
L 255.028772 238.858754 
L 255.183744 238.417302 
L 255.338715 240.223339 
L 255.648658 237.673902 
L 255.803629 237.831648 
L 255.9586 238.365605 
L 256.113572 239.421082 
L 256.423514 235.463027 
L 256.578485 237.566165 
L 256.733457 236.755693 
L 256.888428 238.060203 
L 257.043399 237.613629 
L 257.353342 239.818191 
L 257.508313 237.568253 
L 257.663285 239.031964 
L 257.818256 239.114143 
L 258.128198 237.987937 
L 258.28317 239.033915 
L 258.438141 238.499064 
L 258.593112 239.002435 
L 258.748084 237.806839 
L 258.903055 238.108315 
L 259.058026 237.575841 
L 259.212998 238.979028 
L 259.367969 238.363296 
L 259.52294 238.86818 
L 259.677911 239.823289 
L 259.832883 239.278781 
L 259.987854 237.429504 
L 260.297797 238.298779 
L 260.452768 237.680646 
L 260.917682 239.884755 
L 261.072653 238.164585 
L 261.227625 238.848831 
L 261.382596 237.287868 
L 261.537567 238.130076 
L 261.692538 238.160123 
L 261.84751 238.758721 
L 262.002481 238.715239 
L 262.312424 239.480018 
L 262.467395 237.656664 
L 262.777338 238.996399 
L 262.932309 238.494395 
L 263.08728 235.914067 
L 263.242251 238.581221 
L 263.397223 238.047685 
L 263.552194 238.89859 
L 263.707165 238.639661 
L 263.862137 238.773229 
L 264.172079 238.524243 
L 264.482022 238.405188 
L 264.636993 238.591977 
L 264.791964 239.341623 
L 264.946936 237.226164 
L 265.101907 239.114507 
L 265.256878 236.667287 
L 265.41185 239.004787 
L 265.566821 237.233764 
L 265.721792 237.974556 
L 265.876764 237.952681 
L 266.031735 238.148141 
L 266.186706 238.645695 
L 266.341677 238.727956 
L 266.496649 239.258617 
L 266.65162 237.247416 
L 266.806591 237.304254 
L 266.961563 239.06787 
L 267.116534 238.474094 
L 267.271505 238.89018 
L 267.426477 238.785463 
L 267.581448 239.762917 
L 267.736419 236.51483 
L 268.046362 238.393205 
L 268.201333 238.63763 
L 268.356304 238.024588 
L 268.511276 240.016011 
L 268.666247 240.3429 
L 268.821218 238.077151 
L 268.97619 237.450957 
L 269.286132 239.247434 
L 269.441103 238.829664 
L 269.596075 239.288832 
L 269.751046 239.180319 
L 269.906017 238.883829 
L 270.060989 237.749621 
L 270.21596 239.75725 
L 270.370931 238.7608 
L 270.525903 238.775316 
L 270.680874 239.080789 
L 270.835845 236.76282 
L 270.990817 240.541332 
L 271.145788 237.656 
L 271.300759 238.66762 
L 271.45573 236.048747 
L 271.610702 239.921933 
L 271.765673 237.89689 
L 271.920644 237.553778 
L 272.230587 240.03126 
L 272.385558 239.226994 
L 272.54053 236.915883 
L 272.695501 239.502039 
L 272.850472 239.544979 
L 273.005443 239.749142 
L 273.160415 237.114061 
L 273.315386 239.163752 
L 273.470357 239.452085 
L 273.625329 236.546956 
L 273.7803 239.727013 
L 274.090243 237.604343 
L 274.245214 237.908063 
L 274.400185 238.768133 
L 274.555156 237.264432 
L 274.865099 238.615879 
L 275.02007 236.941182 
L 275.330013 239.363788 
L 275.484984 238.836003 
L 275.639956 239.214697 
L 275.794927 236.384212 
L 275.949898 239.767127 
L 276.104869 239.059055 
L 276.259841 239.392149 
L 276.414812 237.709106 
L 276.569783 238.202431 
L 276.879726 237.383243 
L 277.034697 240.212167 
L 277.189669 238.844359 
L 277.34464 238.593264 
L 277.499611 239.124617 
L 277.654582 238.791282 
L 277.809554 239.010569 
L 277.964525 238.853285 
L 278.119496 238.902145 
L 278.274468 238.829318 
L 278.429439 238.992666 
L 278.58441 238.800841 
L 278.739382 237.472896 
L 278.894353 237.645653 
L 279.204296 239.545899 
L 279.359267 237.383955 
L 279.514238 237.404244 
L 279.669209 238.918226 
L 279.824181 238.313753 
L 280.134123 238.948248 
L 280.444066 238.892602 
L 280.599037 237.517048 
L 280.754009 238.706168 
L 280.90898 238.809124 
L 281.063951 238.270186 
L 281.218922 236.888862 
L 281.528865 238.552831 
L 281.683836 238.407042 
L 281.838808 237.371705 
L 281.993779 238.944365 
L 282.14875 239.200903 
L 282.458693 237.547512 
L 282.613664 239.591386 
L 282.768635 238.392418 
L 282.923607 238.422353 
L 283.078578 239.127235 
L 283.388521 238.421503 
L 283.543492 238.047293 
L 283.698463 238.105507 
L 283.853435 237.868401 
L 284.008406 239.042656 
L 284.163377 239.325844 
L 284.47332 237.857519 
L 284.628291 239.186609 
L 284.783262 238.195931 
L 284.938234 238.262504 
L 285.093205 239.170444 
L 285.248176 238.682657 
L 285.403148 237.238695 
L 285.558119 239.284243 
L 285.71309 237.594494 
L 285.868061 237.90463 
L 286.178004 239.505982 
L 286.332975 237.565702 
L 286.487947 237.075249 
L 286.642918 239.598828 
L 286.797889 238.894527 
L 287.107832 238.85595 
L 287.262803 238.385721 
L 287.417774 239.623265 
L 287.572746 239.807045 
L 287.727717 235.844134 
L 287.882688 238.138071 
L 288.03766 237.790749 
L 288.192631 236.97183 
L 288.502574 238.853473 
L 288.657545 238.46182 
L 288.812516 236.494643 
L 289.122459 240.175241 
L 289.432401 237.972476 
L 289.587373 239.378983 
L 289.742344 239.70303 
L 289.897315 239.381444 
L 290.052287 240.203947 
L 290.362229 238.587698 
L 290.517201 238.406577 
L 290.672172 239.272736 
L 290.827143 237.669645 
L 290.982114 239.987136 
L 291.137086 239.124335 
L 291.292057 237.462921 
L 291.447028 237.570557 
L 291.602 236.962271 
L 291.756971 237.988021 
L 291.911942 237.767226 
L 292.066914 240.297031 
L 292.221885 238.045276 
L 292.376856 238.297667 
L 292.531827 237.641826 
L 292.686799 239.103625 
L 292.996741 237.809883 
L 293.151713 238.977459 
L 293.616627 236.989698 
L 293.771598 238.615942 
L 294.08154 237.066136 
L 294.391483 238.220066 
L 294.546454 238.479359 
L 294.701426 239.607618 
L 294.856397 237.328209 
L 295.011368 237.743247 
L 295.16634 237.471208 
L 295.321311 239.239219 
L 295.631253 238.519311 
L 295.786225 239.690492 
L 295.941196 239.412573 
L 296.096167 238.297751 
L 296.251139 237.998035 
L 296.561081 238.677538 
L 296.871024 238.032571 
L 297.025995 237.22414 
L 297.180966 238.826014 
L 297.490909 236.810549 
L 297.64588 237.845615 
L 297.800852 237.734598 
L 297.955823 238.505044 
L 298.265766 237.626551 
L 298.420737 237.682899 
L 298.575708 237.241535 
L 298.73068 237.494112 
L 299.040622 239.679993 
L 299.350565 238.638239 
L 299.505536 239.773514 
L 299.660507 239.680833 
L 299.815479 239.326676 
L 299.97045 238.591133 
L 300.125421 239.382099 
L 300.280393 238.489271 
L 300.435364 239.002496 
L 300.590335 238.033569 
L 300.745306 238.016044 
L 301.055249 238.718791 
L 301.21022 236.862227 
L 301.365192 239.658685 
L 301.675134 238.165306 
L 301.830106 237.924651 
L 301.985077 238.616111 
L 302.140048 238.540384 
L 302.449991 237.88793 
L 302.604962 238.014169 
L 302.759933 237.733228 
L 302.914905 237.991543 
L 303.069876 236.278941 
L 303.224847 238.417333 
L 303.379819 237.662351 
L 303.53479 239.144669 
L 303.689761 237.636306 
L 303.844732 238.617455 
L 303.999704 238.71637 
L 304.154675 239.552595 
L 304.309646 237.036094 
L 304.464618 238.182542 
L 304.619589 236.700973 
L 304.77456 238.302802 
L 305.084503 238.36304 
L 305.239474 238.954518 
L 305.394445 238.318401 
L 305.549417 238.599893 
L 305.704388 238.268374 
L 305.859359 237.607633 
L 306.014331 239.390525 
L 306.169302 238.328976 
L 306.324273 238.13847 
L 306.479245 239.439118 
L 306.634216 239.458581 
L 306.789187 237.837294 
L 306.944158 238.044692 
L 307.09913 236.847082 
L 307.409072 239.812355 
L 307.719015 237.271073 
L 307.873986 237.129076 
L 308.028958 238.981958 
L 308.183929 239.309442 
L 308.3389 238.813384 
L 308.493872 238.870462 
L 308.648843 239.492604 
L 308.803814 238.024514 
L 308.958785 239.86949 
L 309.268728 237.784926 
L 309.423699 238.793606 
L 309.578671 236.131284 
L 309.888613 238.913391 
L 310.043585 238.878053 
L 310.198556 237.271944 
L 310.353527 238.958859 
L 310.508498 237.798591 
L 310.66347 239.452235 
L 310.973412 237.794244 
L 311.128384 236.56648 
L 311.438326 238.505217 
L 311.593298 237.426922 
L 311.748269 237.525266 
L 311.90324 236.816365 
L 312.058211 239.402824 
L 312.368154 238.205927 
L 312.523125 239.938463 
L 312.678097 238.909084 
L 312.833068 239.455444 
L 313.143011 238.017873 
L 313.297982 238.008237 
L 313.452953 238.802707 
L 313.607924 238.396994 
L 313.762896 238.558028 
L 313.917867 238.49445 
L 314.072838 237.277264 
L 314.22781 239.243958 
L 314.382781 238.964229 
L 314.537752 238.140772 
L 314.692724 238.774596 
L 314.847695 238.25095 
L 315.002666 238.778556 
L 315.312609 237.437446 
L 315.46758 238.956004 
L 315.622551 238.764708 
L 315.777523 237.06971 
L 315.932494 239.315763 
L 316.087465 237.522913 
L 316.242437 238.267595 
L 316.397408 240.121684 
L 316.552379 238.585001 
L 316.70735 238.760482 
L 316.862322 238.668198 
L 317.017293 237.839758 
L 317.172264 238.629711 
L 317.327236 237.134501 
L 317.482207 239.150095 
L 317.79215 238.213723 
L 317.947121 239.691664 
L 318.102092 237.949317 
L 318.412035 239.563917 
L 318.721977 240.062168 
L 318.876949 238.693946 
L 319.03192 238.380539 
L 319.186891 237.408047 
L 319.341863 240.159905 
L 319.651805 237.925141 
L 319.806777 238.271237 
L 319.961748 239.98446 
L 320.116719 238.022843 
L 320.27169 238.889673 
L 320.426662 238.742674 
L 320.581633 239.026798 
L 320.736604 239.815776 
L 320.891576 237.191116 
L 321.046547 236.809669 
L 321.35649 238.316771 
L 321.511461 237.026383 
L 321.821403 238.824204 
L 322.131346 237.577785 
L 322.286317 239.109255 
L 322.441289 237.869657 
L 322.59626 239.546026 
L 322.751231 238.277647 
L 322.906203 237.973301 
L 323.061174 239.62839 
L 323.216145 237.698173 
L 323.371116 239.105356 
L 323.526088 238.870008 
L 323.83603 240.007928 
L 323.991002 236.350324 
L 324.145973 236.715463 
L 324.455916 239.744462 
L 324.610887 238.472727 
L 324.920829 239.097391 
L 325.075801 239.092925 
L 325.385743 238.469515 
L 325.540715 238.864409 
L 325.695686 238.067843 
L 325.850657 238.478578 
L 326.1606 237.758621 
L 326.315571 238.202861 
L 326.625514 240.108219 
L 326.780485 239.046373 
L 326.935456 239.094789 
L 327.090428 238.192743 
L 327.245399 238.157433 
L 327.555342 237.872106 
L 327.710313 237.811597 
L 327.865284 237.441736 
L 328.020256 239.007572 
L 328.175227 238.423083 
L 328.330198 238.512431 
L 328.485169 239.627224 
L 328.640141 237.524017 
L 328.795112 238.077851 
L 328.950083 239.056251 
L 329.105055 237.647339 
L 329.260026 238.799292 
L 329.569969 238.153835 
L 329.879911 239.098709 
L 330.034882 238.022908 
L 330.344825 239.33576 
L 330.499796 239.06198 
L 330.654768 240.191356 
L 330.96471 236.506903 
L 331.274653 238.993078 
L 331.429624 236.55679 
L 331.584595 238.912333 
L 331.739567 237.955422 
L 331.894538 238.270949 
L 332.049509 237.648907 
L 332.204481 239.680156 
L 332.359452 240.03709 
L 332.514423 238.175756 
L 332.669395 239.031856 
L 332.979337 238.914475 
L 333.134308 237.546723 
L 333.28928 239.240812 
L 333.444251 238.159116 
L 333.599222 239.685049 
L 333.754194 239.990015 
L 333.909165 238.724129 
L 334.064136 239.528376 
L 334.219108 237.918639 
L 334.52905 237.480744 
L 334.684021 238.63511 
L 334.838993 238.676376 
L 334.993964 238.957502 
L 335.148935 236.077343 
L 335.458878 239.757577 
L 335.613849 238.243735 
L 335.768821 238.054576 
L 335.923792 238.118221 
L 336.388706 239.042981 
L 336.543677 238.284589 
L 336.698648 238.440571 
L 336.85362 237.877477 
L 337.008591 239.20098 
L 337.163562 239.210703 
L 337.318534 238.602282 
L 337.473505 238.5871 
L 337.783448 239.494625 
L 337.938419 239.525521 
L 338.09339 240.04283 
L 338.248361 239.551534 
L 338.558304 239.938073 
L 338.713275 238.101588 
L 338.868247 239.219935 
L 339.178189 238.7019 
L 339.333161 237.55975 
L 339.643103 239.295553 
L 339.798074 238.498988 
L 340.108017 239.626381 
L 340.41796 238.102224 
L 340.572931 239.477531 
L 340.727902 239.41842 
L 341.192816 238.278561 
L 341.347787 238.625431 
L 341.502759 239.905799 
L 341.65773 240.069758 
L 341.812701 238.621551 
L 341.967673 239.292705 
L 342.122644 239.369893 
L 342.432587 238.035285 
L 342.587558 238.788893 
L 342.742529 238.470153 
L 342.8975 238.511725 
L 343.052472 239.716609 
L 343.207443 239.450302 
L 343.362414 239.847463 
L 343.517386 239.619461 
L 343.672357 239.016201 
L 343.827328 239.295458 
L 343.9823 238.482211 
L 344.292242 240.687308 
L 344.447213 239.359208 
L 344.602185 239.396858 
L 344.757156 240.200165 
L 344.912127 239.798722 
L 345.067099 240.631722 
L 345.377041 238.75054 
L 345.532013 240.023927 
L 345.686984 239.984657 
L 345.841955 239.356721 
L 345.996926 239.800175 
L 346.151898 239.654463 
L 346.306869 238.333612 
L 346.46184 240.088247 
L 346.616812 238.496921 
L 346.771783 240.423674 
L 346.926754 239.760576 
L 347.081726 238.470842 
L 347.236697 239.417637 
L 347.391668 239.048494 
L 347.54664 238.331863 
L 347.701611 239.863341 
L 347.856582 238.778563 
L 348.011553 238.845593 
L 348.166525 239.811004 
L 348.321496 239.175716 
L 348.476467 239.249098 
L 348.631439 239.131068 
L 348.78641 239.261059 
L 348.941381 238.470778 
L 349.096353 239.975667 
L 349.251324 239.961614 
L 349.406295 239.111443 
L 349.561266 240.174269 
L 349.871209 237.870854 
L 350.02618 240.339645 
L 350.181152 239.102375 
L 350.336123 238.989646 
L 350.491094 239.804597 
L 350.646066 239.894459 
L 350.801037 239.261765 
L 350.956008 240.912029 
L 351.110979 238.775825 
L 351.265951 238.542532 
L 351.575893 240.124778 
L 351.730865 240.323726 
L 352.040807 239.606236 
L 352.195779 240.875226 
L 352.505721 238.846694 
L 352.660692 240.186852 
L 352.815664 240.269251 
L 352.970635 238.593281 
L 353.125606 240.238679 
L 353.280578 240.120816 
L 353.435549 240.270637 
L 353.745492 239.648138 
L 353.900463 240.672486 
L 354.055434 239.440032 
L 354.210405 240.127345 
L 354.365377 238.99794 
L 354.520348 239.624385 
L 354.675319 240.821104 
L 355.140233 238.955226 
L 355.295205 239.459656 
L 355.450176 239.563242 
L 355.605147 238.92242 
L 355.760118 240.676332 
L 356.070061 239.00987 
L 356.225032 240.439238 
L 356.380004 240.102219 
L 356.534975 240.54362 
L 356.689946 239.608762 
L 356.844918 240.296612 
L 356.999889 240.196197 
L 357.15486 240.647946 
L 357.309832 238.788963 
L 357.464803 241.538097 
L 357.619774 240.264053 
L 358.239659 239.435765 
L 358.394631 239.747471 
L 358.704573 238.842362 
L 358.859545 240.537747 
L 359.169487 240.962 
L 359.324458 239.772074 
L 359.47943 240.179223 
L 359.634401 239.421509 
L 359.944344 240.3784 
L 360.099315 240.13908 
L 360.409258 240.334201 
L 360.564229 239.096843 
L 360.7192 240.968093 
L 361.029143 239.291323 
L 361.184114 240.203322 
L 361.339085 239.724006 
L 361.494057 241.143094 
L 361.649028 239.634082 
L 361.803999 240.291975 
L 362.113942 240.304576 
L 362.268913 239.865602 
L 362.578856 241.073844 
L 362.733827 240.358856 
L 363.04377 240.373278 
L 363.198741 238.700866 
L 363.508684 241.118437 
L 363.663655 240.535845 
L 363.818626 241.762141 
L 363.973597 241.29317 
L 364.128569 240.440745 
L 364.28354 241.240864 
L 364.438511 240.530859 
L 364.593483 241.232951 
L 364.748454 240.969957 
L 364.903425 240.303277 
L 365.368339 240.96864 
L 365.678282 240.234585 
L 365.833253 241.242623 
L 365.988224 240.795825 
L 366.143196 239.812622 
L 366.298167 240.500489 
L 366.60811 240.539962 
L 366.918052 239.634005 
L 367.073024 241.121938 
L 367.227995 240.319939 
L 367.382966 241.387347 
L 367.537937 240.580563 
L 367.84788 241.293372 
L 368.002851 241.12424 
L 368.312794 239.52261 
L 368.467765 241.178525 
L 368.622737 241.163036 
L 368.777708 239.885815 
L 369.08765 240.332517 
L 369.397593 241.270421 
L 369.552564 241.474694 
L 369.707536 241.062951 
L 369.862507 239.370132 
L 370.017478 241.21926 
L 370.17245 241.248893 
L 370.327421 240.583249 
L 370.482392 240.645098 
L 370.792335 241.714338 
L 370.947306 241.234488 
L 371.102277 241.366447 
L 371.257249 240.737033 
L 371.41222 242.116364 
L 371.722163 241.780617 
L 371.877134 241.819578 
L 372.032105 241.522767 
L 372.187076 241.641863 
L 372.497019 240.811828 
L 372.65199 240.748421 
L 372.806962 242.033616 
L 372.961933 240.526131 
L 373.271876 241.601539 
L 373.426847 241.49046 
L 373.581818 241.833017 
L 373.581818 241.833017 
" style="fill:none;stroke:#1f77b4;stroke-linecap:square;stroke-width:1.5;"/>
   </g>
   <g id="patch_3">
    <path d="M 54 252 
L 54 34.56 
" style="fill:none;stroke:#000000;stroke-linecap:square;stroke-linejoin:miter;stroke-width:0.8;"/>
   </g>
   <g id="patch_4">
    <path d="M 388.8 252 
L 388.8 34.56 
" style="fill:none;stroke:#000000;stroke-linecap:square;stroke-linejoin:miter;stroke-width:0.8;"/>
   </g>
   <g id="patch_5">
    <path d="M 54 252 
L 388.8 252 
" style="fill:none;stroke:#000000;stroke-linecap:square;stroke-linejoin:miter;stroke-width:0.8;"/>
   </g>
   <g id="patch_6">
    <path d="M 54 34.56 
L 388.8 34.56 
" style="fill:none;stroke:#000000;stroke-linecap:square;stroke-linejoin:miter;stroke-width:0.8;"/>
   </g>
  </g>
 </g>
 <defs>
  <clipPath id="p7cb8e48da0">
   <rect height="217.44" width="334.8" x="54" y="34.56"/>
  </clipPath>
 </defs>
</svg>
