<?xml version="1.0" encoding="utf-8" standalone="no"?>
<!DOCTYPE svg PUBLIC "-//W3C//DTD SVG 1.1//EN"
  "http://www.w3.org/Graphics/SVG/1.1/DTD/svg11.dtd">
<!-- Created with matplotlib (https://matplotlib.org/) -->
<svg height="288pt" version="1.1" viewBox="0 0 432 288" width="432pt" xmlns="http://www.w3.org/2000/svg" xmlns:xlink="http://www.w3.org/1999/xlink">
 <defs>
  <style type="text/css">
*{stroke-linecap:butt;stroke-linejoin:round;}
  </style>
 </defs>
 <g id="figure_1">
  <g id="patch_1">
   <path d="M 0 288 
L 432 288 
L 432 0 
L 0 0 
z
" style="fill:#ffffff;"/>
  </g>
  <g id="axes_1">
   <g id="patch_2">
    <path d="M 54 252 
L 388.8 252 
L 388.8 34.56 
L 54 34.56 
z
" style="fill:#ffffff;"/>
   </g>
   <g id="matplotlib.axis_1">
    <g id="xtick_1">
     <g id="line2d_1">
      <defs>
       <path d="M 0 0 
L 0 3.5 
" id="mf86ba7b4d7" style="stroke:#000000;stroke-width:0.8;"/>
      </defs>
      <g>
       <use style="stroke:#000000;stroke-width:0.8;" x="69.218182" xlink:href="#mf86ba7b4d7" y="252"/>
      </g>
     </g>
     <g id="text_1">
      <!-- 0 -->
      <defs>
       <path d="M 31.78125 66.40625 
Q 24.171875 66.40625 20.328125 58.90625 
Q 16.5 51.421875 16.5 36.375 
Q 16.5 21.390625 20.328125 13.890625 
Q 24.171875 6.390625 31.78125 6.390625 
Q 39.453125 6.390625 43.28125 13.890625 
Q 47.125 21.390625 47.125 36.375 
Q 47.125 51.421875 43.28125 58.90625 
Q 39.453125 66.40625 31.78125 66.40625 
z
M 31.78125 74.21875 
Q 44.046875 74.21875 50.515625 64.515625 
Q 56.984375 54.828125 56.984375 36.375 
Q 56.984375 17.96875 50.515625 8.265625 
Q 44.046875 -1.421875 31.78125 -1.421875 
Q 19.53125 -1.421875 13.0625 8.265625 
Q 6.59375 17.96875 6.59375 36.375 
Q 6.59375 54.828125 13.0625 64.515625 
Q 19.53125 74.21875 31.78125 74.21875 
z
" id="DejaVuSans-48"/>
      </defs>
      <g transform="translate(66.036932 266.598437)scale(0.1 -0.1)">
       <use xlink:href="#DejaVuSans-48"/>
      </g>
     </g>
    </g>
    <g id="xtick_2">
     <g id="line2d_2">
      <g>
       <use style="stroke:#000000;stroke-width:0.8;" x="108.339472" xlink:href="#mf86ba7b4d7" y="252"/>
      </g>
     </g>
     <g id="text_2">
      <!-- 250 -->
      <defs>
       <path d="M 19.1875 8.296875 
L 53.609375 8.296875 
L 53.609375 0 
L 7.328125 0 
L 7.328125 8.296875 
Q 12.9375 14.109375 22.625 23.890625 
Q 32.328125 33.6875 34.8125 36.53125 
Q 39.546875 41.84375 41.421875 45.53125 
Q 43.3125 49.21875 43.3125 52.78125 
Q 43.3125 58.59375 39.234375 62.25 
Q 35.15625 65.921875 28.609375 65.921875 
Q 23.96875 65.921875 18.8125 64.3125 
Q 13.671875 62.703125 7.8125 59.421875 
L 7.8125 69.390625 
Q 13.765625 71.78125 18.9375 73 
Q 24.125 74.21875 28.421875 74.21875 
Q 39.75 74.21875 46.484375 68.546875 
Q 53.21875 62.890625 53.21875 53.421875 
Q 53.21875 48.921875 51.53125 44.890625 
Q 49.859375 40.875 45.40625 35.40625 
Q 44.1875 33.984375 37.640625 27.21875 
Q 31.109375 20.453125 19.1875 8.296875 
z
" id="DejaVuSans-50"/>
       <path d="M 10.796875 72.90625 
L 49.515625 72.90625 
L 49.515625 64.59375 
L 19.828125 64.59375 
L 19.828125 46.734375 
Q 21.96875 47.46875 24.109375 47.828125 
Q 26.265625 48.1875 28.421875 48.1875 
Q 40.625 48.1875 47.75 41.5 
Q 54.890625 34.8125 54.890625 23.390625 
Q 54.890625 11.625 47.5625 5.09375 
Q 40.234375 -1.421875 26.90625 -1.421875 
Q 22.3125 -1.421875 17.546875 -0.640625 
Q 12.796875 0.140625 7.71875 1.703125 
L 7.71875 11.625 
Q 12.109375 9.234375 16.796875 8.0625 
Q 21.484375 6.890625 26.703125 6.890625 
Q 35.15625 6.890625 40.078125 11.328125 
Q 45.015625 15.765625 45.015625 23.390625 
Q 45.015625 31 40.078125 35.4375 
Q 35.15625 39.890625 26.703125 39.890625 
Q 22.75 39.890625 18.8125 39.015625 
Q 14.890625 38.140625 10.796875 36.28125 
z
" id="DejaVuSans-53"/>
      </defs>
      <g transform="translate(98.795722 266.598437)scale(0.1 -0.1)">
       <use xlink:href="#DejaVuSans-50"/>
       <use x="63.623047" xlink:href="#DejaVuSans-53"/>
       <use x="127.246094" xlink:href="#DejaVuSans-48"/>
      </g>
     </g>
    </g>
    <g id="xtick_3">
     <g id="line2d_3">
      <g>
       <use style="stroke:#000000;stroke-width:0.8;" x="147.460762" xlink:href="#mf86ba7b4d7" y="252"/>
      </g>
     </g>
     <g id="text_3">
      <!-- 500 -->
      <g transform="translate(137.917012 266.598437)scale(0.1 -0.1)">
       <use xlink:href="#DejaVuSans-53"/>
       <use x="63.623047" xlink:href="#DejaVuSans-48"/>
       <use x="127.246094" xlink:href="#DejaVuSans-48"/>
      </g>
     </g>
    </g>
    <g id="xtick_4">
     <g id="line2d_4">
      <g>
       <use style="stroke:#000000;stroke-width:0.8;" x="186.582052" xlink:href="#mf86ba7b4d7" y="252"/>
      </g>
     </g>
     <g id="text_4">
      <!-- 750 -->
      <defs>
       <path d="M 8.203125 72.90625 
L 55.078125 72.90625 
L 55.078125 68.703125 
L 28.609375 0 
L 18.3125 0 
L 43.21875 64.59375 
L 8.203125 64.59375 
z
" id="DejaVuSans-55"/>
      </defs>
      <g transform="translate(177.038302 266.598437)scale(0.1 -0.1)">
       <use xlink:href="#DejaVuSans-55"/>
       <use x="63.623047" xlink:href="#DejaVuSans-53"/>
       <use x="127.246094" xlink:href="#DejaVuSans-48"/>
      </g>
     </g>
    </g>
    <g id="xtick_5">
     <g id="line2d_5">
      <g>
       <use style="stroke:#000000;stroke-width:0.8;" x="225.703342" xlink:href="#mf86ba7b4d7" y="252"/>
      </g>
     </g>
     <g id="text_5">
      <!-- 1000 -->
      <defs>
       <path d="M 12.40625 8.296875 
L 28.515625 8.296875 
L 28.515625 63.921875 
L 10.984375 60.40625 
L 10.984375 69.390625 
L 28.421875 72.90625 
L 38.28125 72.90625 
L 38.28125 8.296875 
L 54.390625 8.296875 
L 54.390625 0 
L 12.40625 0 
z
" id="DejaVuSans-49"/>
      </defs>
      <g transform="translate(212.978342 266.598437)scale(0.1 -0.1)">
       <use xlink:href="#DejaVuSans-49"/>
       <use x="63.623047" xlink:href="#DejaVuSans-48"/>
       <use x="127.246094" xlink:href="#DejaVuSans-48"/>
       <use x="190.869141" xlink:href="#DejaVuSans-48"/>
      </g>
     </g>
    </g>
    <g id="xtick_6">
     <g id="line2d_6">
      <g>
       <use style="stroke:#000000;stroke-width:0.8;" x="264.824632" xlink:href="#mf86ba7b4d7" y="252"/>
      </g>
     </g>
     <g id="text_6">
      <!-- 1250 -->
      <g transform="translate(252.099632 266.598437)scale(0.1 -0.1)">
       <use xlink:href="#DejaVuSans-49"/>
       <use x="63.623047" xlink:href="#DejaVuSans-50"/>
       <use x="127.246094" xlink:href="#DejaVuSans-53"/>
       <use x="190.869141" xlink:href="#DejaVuSans-48"/>
      </g>
     </g>
    </g>
    <g id="xtick_7">
     <g id="line2d_7">
      <g>
       <use style="stroke:#000000;stroke-width:0.8;" x="303.945922" xlink:href="#mf86ba7b4d7" y="252"/>
      </g>
     </g>
     <g id="text_7">
      <!-- 1500 -->
      <g transform="translate(291.220922 266.598437)scale(0.1 -0.1)">
       <use xlink:href="#DejaVuSans-49"/>
       <use x="63.623047" xlink:href="#DejaVuSans-53"/>
       <use x="127.246094" xlink:href="#DejaVuSans-48"/>
       <use x="190.869141" xlink:href="#DejaVuSans-48"/>
      </g>
     </g>
    </g>
    <g id="xtick_8">
     <g id="line2d_8">
      <g>
       <use style="stroke:#000000;stroke-width:0.8;" x="343.067212" xlink:href="#mf86ba7b4d7" y="252"/>
      </g>
     </g>
     <g id="text_8">
      <!-- 1750 -->
      <g transform="translate(330.342212 266.598437)scale(0.1 -0.1)">
       <use xlink:href="#DejaVuSans-49"/>
       <use x="63.623047" xlink:href="#DejaVuSans-55"/>
       <use x="127.246094" xlink:href="#DejaVuSans-53"/>
       <use x="190.869141" xlink:href="#DejaVuSans-48"/>
      </g>
     </g>
    </g>
    <g id="xtick_9">
     <g id="line2d_9">
      <g>
       <use style="stroke:#000000;stroke-width:0.8;" x="382.188502" xlink:href="#mf86ba7b4d7" y="252"/>
      </g>
     </g>
     <g id="text_9">
      <!-- 2000 -->
      <g transform="translate(369.463502 266.598437)scale(0.1 -0.1)">
       <use xlink:href="#DejaVuSans-50"/>
       <use x="63.623047" xlink:href="#DejaVuSans-48"/>
       <use x="127.246094" xlink:href="#DejaVuSans-48"/>
       <use x="190.869141" xlink:href="#DejaVuSans-48"/>
      </g>
     </g>
    </g>
   </g>
   <g id="matplotlib.axis_2">
    <g id="ytick_1">
     <g id="line2d_10">
      <defs>
       <path d="M 0 0 
L -3.5 0 
" id="ma7c93c24ed" style="stroke:#000000;stroke-width:0.8;"/>
      </defs>
      <g>
       <use style="stroke:#000000;stroke-width:0.8;" x="54" xlink:href="#ma7c93c24ed" y="247.79695"/>
      </g>
     </g>
     <g id="text_10">
      <!-- 0 -->
      <g transform="translate(40.6375 251.596169)scale(0.1 -0.1)">
       <use xlink:href="#DejaVuSans-48"/>
      </g>
     </g>
    </g>
    <g id="ytick_2">
     <g id="line2d_11">
      <g>
       <use style="stroke:#000000;stroke-width:0.8;" x="54" xlink:href="#ma7c93c24ed" y="206.838775"/>
      </g>
     </g>
     <g id="text_11">
      <!-- 2 -->
      <g transform="translate(40.6375 210.637994)scale(0.1 -0.1)">
       <use xlink:href="#DejaVuSans-50"/>
      </g>
     </g>
    </g>
    <g id="ytick_3">
     <g id="line2d_12">
      <g>
       <use style="stroke:#000000;stroke-width:0.8;" x="54" xlink:href="#ma7c93c24ed" y="165.8806"/>
      </g>
     </g>
     <g id="text_12">
      <!-- 4 -->
      <defs>
       <path d="M 37.796875 64.3125 
L 12.890625 25.390625 
L 37.796875 25.390625 
z
M 35.203125 72.90625 
L 47.609375 72.90625 
L 47.609375 25.390625 
L 58.015625 25.390625 
L 58.015625 17.1875 
L 47.609375 17.1875 
L 47.609375 0 
L 37.796875 0 
L 37.796875 17.1875 
L 4.890625 17.1875 
L 4.890625 26.703125 
z
" id="DejaVuSans-52"/>
      </defs>
      <g transform="translate(40.6375 169.679819)scale(0.1 -0.1)">
       <use xlink:href="#DejaVuSans-52"/>
      </g>
     </g>
    </g>
    <g id="ytick_4">
     <g id="line2d_13">
      <g>
       <use style="stroke:#000000;stroke-width:0.8;" x="54" xlink:href="#ma7c93c24ed" y="124.922425"/>
      </g>
     </g>
     <g id="text_13">
      <!-- 6 -->
      <defs>
       <path d="M 33.015625 40.375 
Q 26.375 40.375 22.484375 35.828125 
Q 18.609375 31.296875 18.609375 23.390625 
Q 18.609375 15.53125 22.484375 10.953125 
Q 26.375 6.390625 33.015625 6.390625 
Q 39.65625 6.390625 43.53125 10.953125 
Q 47.40625 15.53125 47.40625 23.390625 
Q 47.40625 31.296875 43.53125 35.828125 
Q 39.65625 40.375 33.015625 40.375 
z
M 52.59375 71.296875 
L 52.59375 62.3125 
Q 48.875 64.0625 45.09375 64.984375 
Q 41.3125 65.921875 37.59375 65.921875 
Q 27.828125 65.921875 22.671875 59.328125 
Q 17.53125 52.734375 16.796875 39.40625 
Q 19.671875 43.65625 24.015625 45.921875 
Q 28.375 48.1875 33.59375 48.1875 
Q 44.578125 48.1875 50.953125 41.515625 
Q 57.328125 34.859375 57.328125 23.390625 
Q 57.328125 12.15625 50.6875 5.359375 
Q 44.046875 -1.421875 33.015625 -1.421875 
Q 20.359375 -1.421875 13.671875 8.265625 
Q 6.984375 17.96875 6.984375 36.375 
Q 6.984375 53.65625 15.1875 63.9375 
Q 23.390625 74.21875 37.203125 74.21875 
Q 40.921875 74.21875 44.703125 73.484375 
Q 48.484375 72.75 52.59375 71.296875 
z
" id="DejaVuSans-54"/>
      </defs>
      <g transform="translate(40.6375 128.721644)scale(0.1 -0.1)">
       <use xlink:href="#DejaVuSans-54"/>
      </g>
     </g>
    </g>
    <g id="ytick_5">
     <g id="line2d_14">
      <g>
       <use style="stroke:#000000;stroke-width:0.8;" x="54" xlink:href="#ma7c93c24ed" y="83.96425"/>
      </g>
     </g>
     <g id="text_14">
      <!-- 8 -->
      <defs>
       <path d="M 31.78125 34.625 
Q 24.75 34.625 20.71875 30.859375 
Q 16.703125 27.09375 16.703125 20.515625 
Q 16.703125 13.921875 20.71875 10.15625 
Q 24.75 6.390625 31.78125 6.390625 
Q 38.8125 6.390625 42.859375 10.171875 
Q 46.921875 13.96875 46.921875 20.515625 
Q 46.921875 27.09375 42.890625 30.859375 
Q 38.875 34.625 31.78125 34.625 
z
M 21.921875 38.8125 
Q 15.578125 40.375 12.03125 44.71875 
Q 8.5 49.078125 8.5 55.328125 
Q 8.5 64.0625 14.71875 69.140625 
Q 20.953125 74.21875 31.78125 74.21875 
Q 42.671875 74.21875 48.875 69.140625 
Q 55.078125 64.0625 55.078125 55.328125 
Q 55.078125 49.078125 51.53125 44.71875 
Q 48 40.375 41.703125 38.8125 
Q 48.828125 37.15625 52.796875 32.3125 
Q 56.78125 27.484375 56.78125 20.515625 
Q 56.78125 9.90625 50.3125 4.234375 
Q 43.84375 -1.421875 31.78125 -1.421875 
Q 19.734375 -1.421875 13.25 4.234375 
Q 6.78125 9.90625 6.78125 20.515625 
Q 6.78125 27.484375 10.78125 32.3125 
Q 14.796875 37.15625 21.921875 38.8125 
z
M 18.3125 54.390625 
Q 18.3125 48.734375 21.84375 45.5625 
Q 25.390625 42.390625 31.78125 42.390625 
Q 38.140625 42.390625 41.71875 45.5625 
Q 45.3125 48.734375 45.3125 54.390625 
Q 45.3125 60.0625 41.71875 63.234375 
Q 38.140625 66.40625 31.78125 66.40625 
Q 25.390625 66.40625 21.84375 63.234375 
Q 18.3125 60.0625 18.3125 54.390625 
z
" id="DejaVuSans-56"/>
      </defs>
      <g transform="translate(40.6375 87.763468)scale(0.1 -0.1)">
       <use xlink:href="#DejaVuSans-56"/>
      </g>
     </g>
    </g>
    <g id="ytick_6">
     <g id="line2d_15">
      <g>
       <use style="stroke:#000000;stroke-width:0.8;" x="54" xlink:href="#ma7c93c24ed" y="43.006074"/>
      </g>
     </g>
     <g id="text_15">
      <!-- 10 -->
      <g transform="translate(34.275 46.805293)scale(0.1 -0.1)">
       <use xlink:href="#DejaVuSans-49"/>
       <use x="63.623047" xlink:href="#DejaVuSans-48"/>
      </g>
     </g>
    </g>
   </g>
   <g id="line2d_16">
    <path clip-path="url(#pa939be1064)" d="M 69.218182 44.443636 
L 70.000608 128.749815 
L 70.626548 178.475212 
L 71.096004 204.878558 
L 71.408974 215.664559 
L 71.721944 221.328739 
L 72.034915 224.587335 
L 72.347885 226.508919 
L 72.50437 226.308517 
L 72.660855 226.462387 
L 73.130311 227.481231 
L 73.286796 227.505766 
L 73.443281 227.376125 
L 73.756251 227.705147 
L 74.069222 227.328466 
L 74.695162 227.688146 
L 75.008133 228.309384 
L 75.164618 227.950516 
L 75.634073 228.363449 
L 75.947044 229.003215 
L 76.260014 229.167537 
L 76.416499 229.03919 
L 76.72947 229.051482 
L 76.885955 229.297007 
L 77.04244 229.202468 
L 77.35541 229.844035 
L 77.66838 229.570052 
L 77.824866 229.862504 
L 78.137836 229.681208 
L 78.294321 230.048632 
L 78.450806 230.037305 
L 78.763777 229.768613 
L 78.920262 229.731035 
L 79.076747 229.490251 
L 79.233232 229.706953 
L 79.389717 229.636428 
L 79.546202 229.324712 
L 79.702688 229.484065 
L 79.859173 229.304935 
L 80.015658 228.835287 
L 80.172143 228.989449 
L 80.328628 228.933492 
L 80.485113 228.512236 
L 80.641599 228.835123 
L 80.798084 228.890121 
L 81.111054 228.656794 
L 81.424024 229.02252 
L 81.580509 229.019743 
L 82.049965 229.459712 
L 82.362935 229.108501 
L 82.51942 229.060173 
L 82.675906 229.516268 
L 82.832391 229.511682 
L 83.145361 230.20051 
L 83.301846 230.041006 
L 83.458331 229.721783 
L 83.614817 229.980642 
L 83.771302 229.763977 
L 83.927787 229.949595 
L 84.084272 229.768265 
L 84.240757 229.921025 
L 85.023183 229.460166 
L 85.179668 229.282985 
L 85.336153 229.527848 
L 85.805609 229.569338 
L 86.118579 228.731829 
L 86.275064 228.71062 
L 86.431549 228.823326 
L 86.588035 229.21561 
L 86.901005 229.361872 
L 87.05749 229.091151 
L 87.37046 229.69928 
L 87.996401 230.180742 
L 88.152886 230.062926 
L 88.309371 230.378232 
L 88.935312 230.133076 
L 89.248282 230.675237 
L 89.717738 230.398018 
L 90.187193 230.525138 
L 90.500164 230.319089 
L 90.656649 230.49701 
L 90.813134 230.325237 
L 91.126104 230.418967 
L 91.439075 230.599526 
L 91.752045 230.739362 
L 91.90853 230.567543 
L 92.065015 230.835672 
L 92.2215 230.825429 
L 92.847441 231.488365 
L 93.003926 231.315505 
L 93.160411 231.385695 
L 93.629867 231.244536 
L 93.786352 230.929853 
L 93.942837 231.011574 
L 94.255807 230.719007 
L 94.568778 230.32142 
L 94.725263 230.497486 
L 94.881748 230.405068 
L 95.038233 230.684075 
L 95.664174 230.295262 
L 95.977144 230.409511 
L 96.133629 230.509887 
L 96.916055 230.142982 
L 97.07254 229.925629 
L 97.698481 230.486157 
L 97.854966 230.318145 
L 98.011451 230.585725 
L 98.167936 230.538942 
L 98.480907 230.734914 
L 99.106847 230.13439 
L 99.263333 229.970879 
L 99.419818 229.987615 
L 99.576303 230.201084 
L 99.732788 229.99114 
L 99.889273 229.972383 
L 100.202244 230.373687 
L 100.358729 230.212064 
L 100.671699 230.214403 
L 100.984669 230.144292 
L 101.141154 229.93208 
L 101.29764 230.02176 
L 101.61061 229.734345 
L 101.92358 230.263275 
L 102.080065 230.449573 
L 102.236551 230.183125 
L 102.393036 230.499536 
L 102.862491 230.391966 
L 103.175462 230.670908 
L 103.957887 230.082435 
L 104.270858 230.275153 
L 104.583828 230.138302 
L 104.740313 230.387141 
L 105.053283 230.22457 
L 105.366254 230.395611 
L 105.522739 229.910017 
L 105.835709 229.950923 
L 105.992194 230.296059 
L 107.244076 229.425454 
L 108.182987 230.051932 
L 108.339472 229.840659 
L 108.652442 230.322951 
L 108.965412 230.551669 
L 109.278383 230.074789 
L 109.434868 230.10216 
L 110.060809 230.820328 
L 110.217294 231.059022 
L 110.530264 231.135404 
L 110.686749 231.207758 
L 111.31269 230.56334 
L 111.62566 230.420372 
L 111.782145 230.534337 
L 112.095116 230.253283 
L 112.408086 230.387954 
L 112.564571 230.141707 
L 113.034027 230.245496 
L 113.659967 229.513031 
L 113.972938 229.487165 
L 114.129423 229.301977 
L 114.755363 229.872222 
L 115.068334 229.636156 
L 115.224819 229.788621 
L 115.381304 229.540372 
L 115.694274 230.038171 
L 116.007245 230.037422 
L 116.16373 229.55169 
L 116.320215 229.771536 
L 116.4767 229.669012 
L 116.78967 229.831749 
L 116.946156 229.796373 
L 117.102641 229.213543 
L 117.728581 229.101638 
L 117.885067 228.539864 
L 118.041552 228.416047 
L 118.511007 229.005466 
L 118.980463 228.395449 
L 119.136948 228.55927 
L 119.293433 228.890955 
L 119.449918 228.70245 
L 119.762889 228.913285 
L 120.075859 228.223895 
L 120.388829 228.954015 
L 120.701799 228.656049 
L 120.858285 228.586173 
L 121.01477 228.914704 
L 121.64071 228.218237 
L 121.797196 228.138205 
L 121.953681 227.789532 
L 122.110166 228.051722 
L 122.266651 227.914682 
L 122.423136 227.60013 
L 122.736107 227.854097 
L 123.205562 228.300081 
L 123.362047 228.161361 
L 123.518532 227.871532 
L 123.675018 228.109359 
L 123.831503 228.033244 
L 124.144473 227.499491 
L 124.300958 227.871107 
L 124.457443 227.895921 
L 124.770414 227.449753 
L 124.926899 227.606203 
L 125.083384 228.102046 
L 125.396354 228.165585 
L 125.709325 228.328936 
L 126.022295 227.743637 
L 126.804721 228.610754 
L 126.961206 228.590991 
L 127.587147 229.412692 
L 127.743632 229.342768 
L 128.056602 229.544316 
L 128.369572 229.430387 
L 128.526057 229.51426 
L 128.839028 229.17937 
L 128.995513 229.38945 
L 129.934424 228.166035 
L 130.090909 228.37 
L 130.247394 228.185665 
L 130.560365 227.160602 
L 130.71685 227.244791 
L 131.02982 228.003312 
L 131.186305 227.883883 
L 131.499276 227.467644 
L 131.655761 227.47744 
L 131.812246 227.705129 
L 131.968731 227.583676 
L 132.125216 227.252803 
L 132.438186 227.604714 
L 132.594672 227.337055 
L 132.751157 227.581576 
L 132.907642 227.426844 
L 133.064127 227.704758 
L 133.220612 227.733215 
L 133.690068 228.141181 
L 134.316008 228.091762 
L 134.472494 228.275222 
L 134.628979 228.265254 
L 134.785464 228.056684 
L 135.098434 228.185292 
L 135.56789 228.749344 
L 136.19383 227.966011 
L 136.663286 228.375726 
L 137.445712 227.067646 
L 137.602197 227.072988 
L 137.758682 227.299589 
L 138.228137 227.282576 
L 138.384623 227.586519 
L 138.697593 226.449899 
L 138.854078 226.758023 
L 139.010563 226.680365 
L 139.167048 226.86522 
L 139.323534 226.832545 
L 139.636504 226.13947 
L 139.792989 225.839204 
L 140.105959 226.369778 
L 140.41893 226.609185 
L 141.201355 226.183975 
L 141.357841 226.314946 
L 141.514326 226.155606 
L 141.827296 226.999623 
L 142.296752 227.05782 
L 142.609722 227.662136 
L 142.766207 227.634483 
L 142.922692 227.996375 
L 143.079177 227.796175 
L 143.235663 228.027727 
L 143.392148 227.7967 
L 143.705118 228.451997 
L 143.861603 228.415823 
L 144.018088 228.016271 
L 144.487544 228.280531 
L 144.800514 227.959677 
L 145.426455 228.19042 
L 146.052395 227.490223 
L 146.208881 227.793268 
L 146.521851 227.402168 
L 146.834821 226.405996 
L 147.147792 226.80913 
L 147.460762 226.723668 
L 147.773732 226.008711 
L 148.399673 225.364627 
L 148.556158 225.425718 
L 148.712643 225.221719 
L 148.869128 225.283325 
L 149.025613 225.653161 
L 149.182099 225.635444 
L 149.338584 225.850159 
L 149.495069 225.854134 
L 149.651554 226.112953 
L 149.964524 226.841169 
L 150.590465 226.558169 
L 150.74695 226.81409 
L 150.903435 227.288251 
L 151.216406 227.398272 
L 151.372891 227.895993 
L 151.685861 227.973508 
L 151.998832 228.452052 
L 152.155317 228.418046 
L 152.311802 228.74776 
L 152.468287 228.451863 
L 152.781257 228.456707 
L 153.094228 228.120783 
L 153.250713 228.324573 
L 153.876653 228.42426 
L 154.189624 227.86108 
L 154.346109 228.10345 
L 154.502594 227.905875 
L 154.659079 227.99947 
L 154.815564 227.866338 
L 154.97205 227.888502 
L 155.28502 227.493623 
L 155.441505 226.937154 
L 155.59799 227.112306 
L 155.754475 227.094474 
L 155.910961 227.284208 
L 156.067446 227.152605 
L 156.223931 227.391456 
L 156.380416 227.287706 
L 156.849871 227.788474 
L 157.006357 227.622924 
L 157.319327 228.265482 
L 157.475812 227.86105 
L 157.632297 227.936786 
L 157.788782 227.672338 
L 158.101753 228.037896 
L 158.258238 227.603807 
L 158.414723 227.673995 
L 158.571208 228.027275 
L 158.727693 227.829607 
L 159.040664 227.858945 
L 159.353634 228.45122 
L 159.510119 228.365841 
L 160.13606 228.665558 
L 160.44903 228.879743 
L 160.918486 229.876876 
L 161.231456 229.550413 
L 161.544426 230.087085 
L 161.857397 230.096364 
L 162.326852 230.338164 
L 162.483337 230.169153 
L 162.639822 230.27035 
L 162.796308 230.04232 
L 162.952793 230.247382 
L 163.109278 230.045264 
L 163.265763 230.323705 
L 163.422248 230.350349 
L 163.578733 230.251948 
L 164.048189 229.198308 
L 164.204674 229.649171 
L 164.361159 229.602559 
L 164.517644 229.69341 
L 164.674129 229.43972 
L 165.143585 230.04825 
L 165.456555 229.982957 
L 165.926011 230.427789 
L 166.395466 229.906169 
L 166.551951 229.834539 
L 166.708437 229.633329 
L 166.864922 229.9001 
L 167.021407 229.892744 
L 167.177892 230.310036 
L 167.334377 230.103555 
L 167.490862 230.091278 
L 167.647348 229.956625 
L 167.960318 230.171131 
L 168.116803 229.813827 
L 168.429773 229.73726 
L 168.742744 228.995545 
L 168.899229 228.955064 
L 169.212199 229.125969 
L 169.525169 229.835538 
L 169.681655 229.672646 
L 169.83814 230.03622 
L 169.994625 229.938346 
L 170.15111 230.080034 
L 170.307595 229.870188 
L 170.933536 230.644866 
L 171.246506 230.27537 
L 171.559477 229.928649 
L 171.872447 230.46424 
L 172.028932 230.224711 
L 172.185417 230.262526 
L 172.341902 230.466997 
L 172.654873 230.11405 
L 172.967843 230.401766 
L 173.437298 230.827992 
L 173.593784 230.535808 
L 173.750269 230.591076 
L 173.906754 230.895969 
L 174.063239 230.69116 
L 174.532695 230.866766 
L 174.68918 231.207186 
L 175.00215 231.119341 
L 175.158635 231.260184 
L 175.31512 231.107878 
L 175.471606 230.745879 
L 175.784576 230.91537 
L 175.941061 230.864883 
L 176.097546 230.644537 
L 176.254031 230.685856 
L 176.410516 230.609981 
L 176.567002 230.268392 
L 176.723487 230.582874 
L 177.036457 230.09385 
L 177.192942 230.16378 
L 177.349427 230.102538 
L 177.662398 230.447038 
L 177.975368 230.368113 
L 178.131853 230.634864 
L 178.288338 230.610418 
L 178.444824 230.833961 
L 178.601309 231.288043 
L 178.914279 231.106927 
L 179.070764 231.215451 
L 179.227249 231.037091 
L 179.696705 231.092756 
L 180.009675 230.84939 
L 181.105071 231.302165 
L 181.574527 231.003114 
L 181.731012 230.636652 
L 181.887497 230.731339 
L 182.043982 230.440804 
L 182.200467 230.393023 
L 182.356953 230.574841 
L 182.669923 230.416938 
L 183.139378 231.166489 
L 183.295864 230.956776 
L 183.608834 231.089987 
L 183.921804 231.176806 
L 184.078289 231.031314 
L 184.234774 231.159707 
L 184.39126 231.073323 
L 184.70423 231.438815 
L 184.860715 231.410164 
L 185.0172 231.22725 
L 185.173685 231.476946 
L 185.330171 231.466742 
L 185.799626 231.74198 
L 185.956111 231.877793 
L 186.112596 231.797075 
L 186.269082 231.86991 
L 187.051507 231.514765 
L 187.207993 231.765817 
L 187.364478 231.353023 
L 187.520963 231.338563 
L 187.677448 231.211729 
L 187.990418 231.323047 
L 188.303389 231.791367 
L 188.616359 231.708964 
L 189.085814 231.81573 
L 189.398785 231.555043 
L 189.86824 232.136464 
L 190.181211 232.502629 
L 190.337696 232.377255 
L 190.494181 232.646865 
L 190.650666 232.450209 
L 191.120122 232.716266 
L 191.589577 233.126426 
L 191.746062 233.210394 
L 192.059032 233.215424 
L 192.684973 233.072129 
L 192.841458 232.896358 
L 192.997943 233.023994 
L 193.467399 232.452795 
L 193.780369 233.079968 
L 193.936854 233.102274 
L 194.09334 232.91152 
L 194.249825 232.991863 
L 194.562795 232.248152 
L 194.71928 232.449753 
L 194.875765 232.308541 
L 195.032251 232.554337 
L 195.345221 232.457768 
L 195.501706 232.671075 
L 195.814676 232.542203 
L 196.127647 232.569939 
L 196.440617 232.727035 
L 196.597102 232.683594 
L 196.753587 232.431146 
L 197.066558 232.535681 
L 197.692498 233.15654 
L 197.848983 232.955765 
L 198.005469 233.097502 
L 198.318439 232.737432 
L 198.787894 233.239063 
L 199.100865 233.154754 
L 199.25735 233.182129 
L 199.57032 232.82727 
L 199.88329 233.279902 
L 200.196261 233.476192 
L 200.509231 233.470212 
L 200.665716 233.775139 
L 200.822201 233.750339 
L 200.978687 234.019325 
L 201.291657 233.936305 
L 201.448142 234.131807 
L 201.604627 234.016316 
L 201.761112 233.74051 
L 201.917598 233.714291 
L 202.230568 234.091079 
L 202.387053 233.951415 
L 202.700023 234.296838 
L 203.012994 234.034062 
L 203.482449 233.653173 
L 203.638934 233.839868 
L 204.10839 233.439799 
L 204.264875 233.480157 
L 204.42136 233.404598 
L 204.577845 233.202841 
L 204.890816 233.475764 
L 205.047301 233.258968 
L 205.203786 233.25738 
L 205.516756 232.799572 
L 205.673241 232.692291 
L 205.829727 232.791573 
L 205.986212 232.673627 
L 206.299182 232.746879 
L 206.925123 232.405773 
L 207.081608 232.534089 
L 207.238093 232.333335 
L 207.707548 232.676939 
L 208.020519 232.312406 
L 208.177004 232.608151 
L 208.333489 232.48227 
L 208.489974 232.843866 
L 208.802945 232.939662 
L 209.115915 233.105844 
L 209.58537 233.202458 
L 209.898341 233.347338 
L 210.054826 233.082099 
L 210.211311 233.345539 
L 210.367796 233.11549 
L 210.524281 233.135145 
L 210.837252 232.931556 
L 211.150222 233.184324 
L 211.306707 233.18057 
L 211.463192 233.295951 
L 211.619677 232.780475 
L 211.776163 232.900672 
L 212.089133 232.519912 
L 212.245618 232.730325 
L 212.715074 232.815256 
L 212.871559 232.48301 
L 213.497499 232.926416 
L 213.653985 232.808173 
L 213.966955 233.024737 
L 214.279925 232.927087 
L 214.43641 232.782961 
L 214.592896 232.913594 
L 214.749381 233.26679 
L 214.905866 233.217451 
L 215.218836 233.431273 
L 216.314232 233.04634 
L 217.096658 233.251982 
L 217.253143 233.263794 
L 217.566114 233.583114 
L 217.722599 233.438604 
L 218.035569 233.671022 
L 218.505025 233.104372 
L 219.130965 233.320747 
L 219.28745 233.053112 
L 219.443935 233.188685 
L 219.600421 233.168194 
L 219.756906 233.271677 
L 219.913391 233.10491 
L 220.069876 233.176599 
L 220.226361 232.942081 
L 220.539332 233.103492 
L 221.165272 233.149016 
L 221.634728 233.772327 
L 222.260668 233.564729 
L 222.417154 233.961546 
L 222.886609 233.308579 
L 223.043094 233.637314 
L 223.199579 233.545572 
L 223.356065 233.81397 
L 223.669035 233.879776 
L 223.82552 233.688994 
L 224.13849 233.729996 
L 224.451461 233.475495 
L 225.077401 233.375616 
L 225.233886 233.570361 
L 225.390372 234.007761 
L 225.546857 233.946015 
L 225.703342 234.158319 
L 225.859827 234.036782 
L 226.016312 234.124012 
L 226.329283 233.88344 
L 226.485768 233.621667 
L 226.798738 233.632943 
L 226.955223 233.590524 
L 227.268194 233.380712 
L 227.581164 233.682035 
L 227.894134 233.664887 
L 228.36359 233.673279 
L 228.520075 233.382258 
L 228.67656 233.42721 
L 228.833045 233.163655 
L 228.98953 233.411242 
L 229.146015 233.432347 
L 229.302501 233.246256 
L 229.458986 233.510798 
L 229.771956 233.411844 
L 229.928441 233.17904 
L 230.084926 233.232937 
L 230.241412 233.451079 
L 230.710867 233.458842 
L 231.023837 233.168599 
L 231.336808 232.936145 
L 231.962748 233.365628 
L 232.119233 233.355896 
L 232.432204 233.700043 
L 232.588689 233.400904 
L 232.745174 233.663565 
L 232.901659 233.671202 
L 233.21463 234.037082 
L 233.371115 234.046809 
L 233.684085 234.221058 
L 233.84057 234.194255 
L 233.997055 234.000213 
L 234.466511 234.244825 
L 234.622996 234.194009 
L 234.779481 234.320456 
L 235.092452 234.010263 
L 235.405422 234.161324 
L 235.561907 233.975056 
L 235.874877 234.204752 
L 236.031362 234.196615 
L 236.813788 233.168679 
L 236.970273 233.086801 
L 237.126759 233.614552 
L 237.439729 233.517094 
L 237.596214 233.700678 
L 237.909184 233.494238 
L 238.37864 234.056924 
L 238.535125 233.873717 
L 238.69161 233.915465 
L 238.848095 234.203714 
L 239.161066 233.946791 
L 239.317551 234.069336 
L 239.474036 234.387288 
L 239.630521 234.352364 
L 239.943491 234.717845 
L 240.099977 234.810226 
L 240.256462 234.66125 
L 240.569432 235.083368 
L 240.725917 235.037001 
L 241.038888 235.176347 
L 241.195373 234.929597 
L 241.351858 234.918122 
L 241.821313 235.246723 
L 241.977799 235.153243 
L 242.290769 235.563191 
L 242.447254 235.604906 
L 242.91671 235.306036 
L 243.073195 235.474598 
L 243.386165 235.202158 
L 243.85562 235.115082 
L 244.168591 234.830284 
L 244.325076 235.023446 
L 245.107502 235.107642 
L 245.420472 234.900147 
L 245.576957 235.067119 
L 245.733442 234.89602 
L 246.046413 235.356424 
L 246.202898 235.342987 
L 246.359383 235.668771 
L 246.828839 235.582578 
L 246.985324 235.499881 
L 247.298294 235.766439 
L 247.924235 235.103536 
L 248.70666 234.980245 
L 248.863146 235.185992 
L 249.489086 234.825792 
L 249.645571 235.039022 
L 249.802057 234.94593 
L 249.958542 235.035188 
L 250.115027 235.257914 
L 250.271512 235.213657 
L 250.584482 235.489913 
L 250.897453 235.484875 
L 251.053938 235.750149 
L 251.523393 235.799122 
L 252.149334 236.152921 
L 252.462304 236.23061 
L 252.618789 236.206225 
L 252.775275 236.065669 
L 253.088245 236.322067 
L 253.24473 235.848829 
L 253.714186 235.7614 
L 253.870671 235.96722 
L 254.496611 236.036507 
L 254.653097 235.887258 
L 254.809582 236.003742 
L 254.966067 235.96185 
L 255.122552 235.770365 
L 255.435522 235.287243 
L 255.748493 235.093739 
L 256.061463 235.033348 
L 256.217948 235.057715 
L 256.530918 235.556352 
L 256.843889 235.678648 
L 257.000374 235.589603 
L 257.156859 235.652655 
L 257.313344 235.47634 
L 257.7828 235.580757 
L 258.09577 235.454798 
L 258.252255 235.512416 
L 258.721711 236.349408 
L 259.504136 236.119746 
L 259.973592 236.149709 
L 260.130077 236.237739 
L 260.443047 236.021467 
L 260.599533 235.935337 
L 261.225473 236.314139 
L 262.164384 235.96055 
L 262.320869 235.934874 
L 262.63384 236.081769 
L 262.790325 236.063499 
L 262.94681 235.928515 
L 264.042206 236.093554 
L 264.355176 235.783877 
L 264.981117 235.54849 
L 265.137602 235.827811 
L 265.607058 235.797799 
L 265.763543 235.661247 
L 266.545969 235.890037 
L 266.858939 235.504377 
L 267.015424 235.623712 
L 267.171909 235.574949 
L 267.79785 236.145556 
L 268.11082 236.142704 
L 268.736761 236.415373 
L 268.893246 236.576892 
L 269.049731 236.442095 
L 269.362702 236.560074 
L 269.832157 236.514643 
L 269.988642 236.810581 
L 270.614583 236.526607 
L 270.927553 236.222974 
L 271.397009 236.510298 
L 271.553494 236.314605 
L 272.492405 236.407187 
L 272.64889 236.179327 
L 272.96186 236.415717 
L 273.118345 236.115396 
L 273.587801 236.275758 
L 273.744286 236.054823 
L 273.900771 236.128343 
L 274.526712 235.874726 
L 274.683197 236.10979 
L 274.839682 235.790978 
L 275.152652 235.743129 
L 275.309138 235.976074 
L 275.622108 235.699547 
L 275.778593 235.833041 
L 275.935078 235.593379 
L 276.404534 235.972643 
L 276.561019 236.009095 
L 276.873989 236.292966 
L 277.030474 236.317241 
L 277.343445 236.596138 
L 278.751811 236.285813 
L 279.221267 236.344358 
L 279.534237 236.38097 
L 279.847207 236.207885 
L 280.160178 236.127662 
L 280.473148 235.843118 
L 280.942603 235.747527 
L 281.255574 235.928544 
L 281.412059 235.800067 
L 281.568544 235.816792 
L 281.725029 236.040437 
L 282.038 235.997776 
L 282.35097 236.002363 
L 283.133396 235.865072 
L 283.759336 236.164201 
L 283.915821 236.142614 
L 284.228792 236.25682 
L 284.541762 236.096382 
L 284.698247 236.273971 
L 285.011218 236.019901 
L 285.324188 236.117031 
L 285.637158 235.871125 
L 286.106614 236.207917 
L 286.576069 236.225227 
L 286.732554 236.424575 
L 286.889039 236.082792 
L 287.20201 236.028636 
L 287.51498 235.716509 
L 287.671465 235.881627 
L 288.140921 235.743251 
L 288.297406 235.86409 
L 288.610376 235.837475 
L 288.766861 236.073042 
L 289.079832 236.133487 
L 289.392802 236.29873 
L 289.549287 236.319383 
L 289.862258 236.140335 
L 290.331713 236.652443 
L 290.644683 236.676252 
L 290.957654 236.434419 
L 291.270624 236.750996 
L 291.583594 236.477851 
L 292.05305 236.282132 
L 292.522505 235.908314 
L 293.148446 235.621176 
L 293.461416 235.189103 
L 293.774387 235.359454 
L 293.930872 235.629952 
L 294.243842 235.560032 
L 294.400327 235.271078 
L 294.869783 235.549768 
L 295.339238 235.763716 
L 295.652208 235.67459 
L 296.121664 235.84632 
L 296.278149 235.803068 
L 296.591119 236.001098 
L 297.060575 235.60064 
L 297.373545 235.739929 
L 297.53003 235.755813 
L 298.155971 235.20965 
L 298.625427 235.374872 
L 299.094882 235.71365 
L 299.251367 235.770766 
L 299.407852 235.991427 
L 299.564337 235.956994 
L 300.190278 236.288164 
L 300.346763 236.31002 
L 300.503248 236.20098 
L 300.816219 236.517946 
L 301.129189 236.656431 
L 301.285674 236.65389 
L 302.224585 235.868784 
L 302.537556 235.5337 
L 302.850526 235.463681 
L 303.163496 235.484556 
L 303.789437 235.451214 
L 303.945922 235.241637 
L 305.197803 235.402872 
L 305.823744 235.908718 
L 306.293199 235.902801 
L 306.60617 235.670351 
L 306.762655 235.954236 
L 307.858051 236.110209 
L 308.327506 236.407842 
L 308.640477 236.254117 
L 308.796962 236.321107 
L 309.109932 235.839825 
L 309.579388 236.07852 
L 309.735873 236.059115 
L 309.892358 235.853198 
L 310.361814 236.195545 
L 310.674784 235.806988 
L 310.831269 235.775476 
L 311.45721 235.255441 
L 311.926665 235.465418 
L 312.239635 235.892181 
L 312.865576 235.832815 
L 313.022061 235.894004 
L 313.491517 235.720734 
L 313.804487 236.100782 
L 313.960972 236.063516 
L 314.430428 236.476169 
L 314.743398 236.185914 
L 314.899883 236.262613 
L 315.525824 235.828772 
L 315.682309 235.854307 
L 315.838794 236.070417 
L 316.464735 236.029644 
L 316.62122 236.167938 
L 316.777705 235.952236 
L 317.716616 236.11742 
L 318.029586 236.417214 
L 318.342557 236.715971 
L 318.655527 236.608595 
L 318.812012 236.802092 
L 319.124982 236.57491 
L 319.281468 236.524882 
L 319.594438 236.678197 
L 319.750923 236.70478 
L 319.907408 236.869223 
L 320.063893 236.856615 
L 320.220379 236.970822 
L 320.376864 236.866255 
L 320.533349 236.571558 
L 320.846319 236.459617 
L 321.15929 236.033629 
L 321.628745 235.760702 
L 321.78523 235.934658 
L 321.941715 235.70047 
L 322.254686 235.83736 
L 323.037111 235.772361 
L 323.350082 235.830243 
L 323.663052 235.734635 
L 324.288993 236.252723 
L 324.601963 236.385709 
L 324.758448 236.499753 
L 324.914933 236.434337 
L 325.071419 236.536055 
L 325.227904 236.384904 
L 325.540874 236.423428 
L 325.697359 236.232235 
L 326.3233 236.390254 
L 326.479785 236.296882 
L 326.792755 236.632726 
L 327.888151 236.034538 
L 328.044637 236.152919 
L 328.357607 236.016881 
L 328.983548 236.167166 
L 329.609488 235.813074 
L 329.922459 235.967338 
L 330.391914 236.331382 
L 330.704884 236.116547 
L 330.861369 236.174832 
L 331.17434 235.901758 
L 331.48731 235.965616 
L 331.643795 235.821709 
L 331.956766 236.156144 
L 332.113251 236.117262 
L 332.426221 236.231924 
L 333.365132 236.160594 
L 333.521617 236.244612 
L 333.678102 236.553571 
L 333.834588 236.561466 
L 333.991073 236.434993 
L 334.304043 236.501124 
L 334.617013 236.645048 
L 335.086469 236.271175 
L 335.399439 236.178195 
L 335.712409 236.03065 
L 336.02538 236.11535 
L 336.181865 236.12818 
L 336.65132 235.83367 
L 336.964291 235.871092 
L 337.746717 236.418272 
L 338.059687 236.958132 
L 338.529142 237.081216 
L 338.842113 237.187841 
L 339.155083 237.056142 
L 339.624538 237.276267 
L 339.937509 237.256333 
L 340.093994 237.2052 
L 340.406964 237.317865 
L 340.719935 237.184234 
L 341.032905 236.909132 
L 343.067212 237.227499 
L 343.223697 237.382643 
L 343.693153 237.262075 
L 343.849638 237.350747 
L 344.162608 237.672084 
L 344.475578 237.633377 
L 344.945034 237.945656 
L 345.101519 237.940183 
L 345.414489 238.265803 
L 345.883945 238.481854 
L 346.04043 238.367667 
L 346.196915 238.392288 
L 346.3534 238.277504 
L 346.666371 238.468985 
L 346.979341 238.459047 
L 347.292311 238.18642 
L 347.448796 238.23412 
L 347.918252 237.90737 
L 348.074737 237.832528 
L 348.231222 237.883508 
L 348.857163 237.645571 
L 349.483104 237.802991 
L 349.639589 237.541954 
L 350.89147 238.008586 
L 351.047955 237.878879 
L 351.360925 237.990187 
L 351.986866 238.37282 
L 352.612807 238.493322 
L 353.395233 238.804005 
L 353.551718 238.778818 
L 353.708203 238.92307 
L 353.864688 238.772552 
L 354.177658 238.957319 
L 354.803599 239.007132 
L 355.42954 238.760084 
L 355.586025 238.810136 
L 355.898995 238.76987 
L 356.994391 238.925478 
L 357.150876 238.788623 
L 357.463847 239.113774 
L 357.776817 239.009767 
L 358.872213 239.166791 
L 359.028698 239.366406 
L 359.498154 239.191318 
L 359.967609 239.240085 
L 360.124094 239.194676 
L 360.28058 239.352683 
L 360.437065 239.103054 
L 360.750035 239.182196 
L 360.90652 239.112721 
L 362.001916 239.481868 
L 362.158401 239.369756 
L 362.940827 239.667686 
L 363.253798 239.510398 
L 363.879738 239.937555 
L 364.349194 240.243687 
L 364.505679 240.252875 
L 364.818649 240.39063 
L 365.13162 240.467329 
L 365.44459 240.584057 
L 365.601075 240.498239 
L 365.914045 240.631468 
L 366.07053 240.574138 
L 366.383501 240.797106 
L 366.696471 240.691858 
L 366.852956 240.474246 
L 367.791867 240.466491 
L 367.948352 240.550438 
L 369.043749 240.257532 
L 369.669689 240.608357 
L 369.826174 240.535254 
L 370.139145 240.710335 
L 371.234541 240.890283 
L 371.547511 241.223569 
L 371.703996 241.28672 
L 372.173452 241.760288 
L 372.486422 241.724964 
L 372.642907 241.650699 
L 373.112363 241.866067 
L 373.425333 241.994893 
L 373.581818 242.116364 
L 373.581818 242.116364 
" style="fill:none;stroke:#1f77b4;stroke-linecap:square;stroke-width:1.5;"/>
   </g>
   <g id="patch_3">
    <path d="M 54 252 
L 54 34.56 
" style="fill:none;stroke:#000000;stroke-linecap:square;stroke-linejoin:miter;stroke-width:0.8;"/>
   </g>
   <g id="patch_4">
    <path d="M 388.8 252 
L 388.8 34.56 
" style="fill:none;stroke:#000000;stroke-linecap:square;stroke-linejoin:miter;stroke-width:0.8;"/>
   </g>
   <g id="patch_5">
    <path d="M 54 252 
L 388.8 252 
" style="fill:none;stroke:#000000;stroke-linecap:square;stroke-linejoin:miter;stroke-width:0.8;"/>
   </g>
   <g id="patch_6">
    <path d="M 54 34.56 
L 388.8 34.56 
" style="fill:none;stroke:#000000;stroke-linecap:square;stroke-linejoin:miter;stroke-width:0.8;"/>
   </g>
  </g>
 </g>
 <defs>
  <clipPath id="pa939be1064">
   <rect height="217.44" width="334.8" x="54" y="34.56"/>
  </clipPath>
 </defs>
</svg>
