<?xml version="1.0" encoding="utf-8" standalone="no"?>
<!DOCTYPE svg PUBLIC "-//W3C//DTD SVG 1.1//EN"
  "http://www.w3.org/Graphics/SVG/1.1/DTD/svg11.dtd">
<!-- Created with matplotlib (https://matplotlib.org/) -->
<svg height="288pt" version="1.1" viewBox="0 0 432 288" width="432pt" xmlns="http://www.w3.org/2000/svg" xmlns:xlink="http://www.w3.org/1999/xlink">
 <defs>
  <style type="text/css">
*{stroke-linecap:butt;stroke-linejoin:round;}
  </style>
 </defs>
 <g id="figure_1">
  <g id="patch_1">
   <path d="M 0 288 
L 432 288 
L 432 0 
L 0 0 
z
" style="fill:#ffffff;"/>
  </g>
  <g id="axes_1">
   <g id="patch_2">
    <path d="M 54 252 
L 388.8 252 
L 388.8 34.56 
L 54 34.56 
z
" style="fill:#ffffff;"/>
   </g>
   <g id="matplotlib.axis_1">
    <g id="xtick_1">
     <g id="line2d_1">
      <defs>
       <path d="M 0 0 
L 0 3.5 
" id="m76633d609d" style="stroke:#000000;stroke-width:0.8;"/>
      </defs>
      <g>
       <use style="stroke:#000000;stroke-width:0.8;" x="69.218182" xlink:href="#m76633d609d" y="252"/>
      </g>
     </g>
     <g id="text_1">
      <!-- 0 -->
      <defs>
       <path d="M 31.78125 66.40625 
Q 24.171875 66.40625 20.328125 58.90625 
Q 16.5 51.421875 16.5 36.375 
Q 16.5 21.390625 20.328125 13.890625 
Q 24.171875 6.390625 31.78125 6.390625 
Q 39.453125 6.390625 43.28125 13.890625 
Q 47.125 21.390625 47.125 36.375 
Q 47.125 51.421875 43.28125 58.90625 
Q 39.453125 66.40625 31.78125 66.40625 
z
M 31.78125 74.21875 
Q 44.046875 74.21875 50.515625 64.515625 
Q 56.984375 54.828125 56.984375 36.375 
Q 56.984375 17.96875 50.515625 8.265625 
Q 44.046875 -1.421875 31.78125 -1.421875 
Q 19.53125 -1.421875 13.0625 8.265625 
Q 6.59375 17.96875 6.59375 36.375 
Q 6.59375 54.828125 13.0625 64.515625 
Q 19.53125 74.21875 31.78125 74.21875 
z
" id="DejaVuSans-48"/>
      </defs>
      <g transform="translate(66.036932 266.598437)scale(0.1 -0.1)">
       <use xlink:href="#DejaVuSans-48"/>
      </g>
     </g>
    </g>
    <g id="xtick_2">
     <g id="line2d_2">
      <g>
       <use style="stroke:#000000;stroke-width:0.8;" x="110.934689" xlink:href="#m76633d609d" y="252"/>
      </g>
     </g>
     <g id="text_2">
      <!-- 250 -->
      <defs>
       <path d="M 19.1875 8.296875 
L 53.609375 8.296875 
L 53.609375 0 
L 7.328125 0 
L 7.328125 8.296875 
Q 12.9375 14.109375 22.625 23.890625 
Q 32.328125 33.6875 34.8125 36.53125 
Q 39.546875 41.84375 41.421875 45.53125 
Q 43.3125 49.21875 43.3125 52.78125 
Q 43.3125 58.59375 39.234375 62.25 
Q 35.15625 65.921875 28.609375 65.921875 
Q 23.96875 65.921875 18.8125 64.3125 
Q 13.671875 62.703125 7.8125 59.421875 
L 7.8125 69.390625 
Q 13.765625 71.78125 18.9375 73 
Q 24.125 74.21875 28.421875 74.21875 
Q 39.75 74.21875 46.484375 68.546875 
Q 53.21875 62.890625 53.21875 53.421875 
Q 53.21875 48.921875 51.53125 44.890625 
Q 49.859375 40.875 45.40625 35.40625 
Q 44.1875 33.984375 37.640625 27.21875 
Q 31.109375 20.453125 19.1875 8.296875 
z
" id="DejaVuSans-50"/>
       <path d="M 10.796875 72.90625 
L 49.515625 72.90625 
L 49.515625 64.59375 
L 19.828125 64.59375 
L 19.828125 46.734375 
Q 21.96875 47.46875 24.109375 47.828125 
Q 26.265625 48.1875 28.421875 48.1875 
Q 40.625 48.1875 47.75 41.5 
Q 54.890625 34.8125 54.890625 23.390625 
Q 54.890625 11.625 47.5625 5.09375 
Q 40.234375 -1.421875 26.90625 -1.421875 
Q 22.3125 -1.421875 17.546875 -0.640625 
Q 12.796875 0.140625 7.71875 1.703125 
L 7.71875 11.625 
Q 12.109375 9.234375 16.796875 8.0625 
Q 21.484375 6.890625 26.703125 6.890625 
Q 35.15625 6.890625 40.078125 11.328125 
Q 45.015625 15.765625 45.015625 23.390625 
Q 45.015625 31 40.078125 35.4375 
Q 35.15625 39.890625 26.703125 39.890625 
Q 22.75 39.890625 18.8125 39.015625 
Q 14.890625 38.140625 10.796875 36.28125 
z
" id="DejaVuSans-53"/>
      </defs>
      <g transform="translate(101.390939 266.598437)scale(0.1 -0.1)">
       <use xlink:href="#DejaVuSans-50"/>
       <use x="63.623047" xlink:href="#DejaVuSans-53"/>
       <use x="127.246094" xlink:href="#DejaVuSans-48"/>
      </g>
     </g>
    </g>
    <g id="xtick_3">
     <g id="line2d_3">
      <g>
       <use style="stroke:#000000;stroke-width:0.8;" x="152.651196" xlink:href="#m76633d609d" y="252"/>
      </g>
     </g>
     <g id="text_3">
      <!-- 500 -->
      <g transform="translate(143.107446 266.598437)scale(0.1 -0.1)">
       <use xlink:href="#DejaVuSans-53"/>
       <use x="63.623047" xlink:href="#DejaVuSans-48"/>
       <use x="127.246094" xlink:href="#DejaVuSans-48"/>
      </g>
     </g>
    </g>
    <g id="xtick_4">
     <g id="line2d_4">
      <g>
       <use style="stroke:#000000;stroke-width:0.8;" x="194.367703" xlink:href="#m76633d609d" y="252"/>
      </g>
     </g>
     <g id="text_4">
      <!-- 750 -->
      <defs>
       <path d="M 8.203125 72.90625 
L 55.078125 72.90625 
L 55.078125 68.703125 
L 28.609375 0 
L 18.3125 0 
L 43.21875 64.59375 
L 8.203125 64.59375 
z
" id="DejaVuSans-55"/>
      </defs>
      <g transform="translate(184.823953 266.598437)scale(0.1 -0.1)">
       <use xlink:href="#DejaVuSans-55"/>
       <use x="63.623047" xlink:href="#DejaVuSans-53"/>
       <use x="127.246094" xlink:href="#DejaVuSans-48"/>
      </g>
     </g>
    </g>
    <g id="xtick_5">
     <g id="line2d_5">
      <g>
       <use style="stroke:#000000;stroke-width:0.8;" x="236.084211" xlink:href="#m76633d609d" y="252"/>
      </g>
     </g>
     <g id="text_5">
      <!-- 1000 -->
      <defs>
       <path d="M 12.40625 8.296875 
L 28.515625 8.296875 
L 28.515625 63.921875 
L 10.984375 60.40625 
L 10.984375 69.390625 
L 28.421875 72.90625 
L 38.28125 72.90625 
L 38.28125 8.296875 
L 54.390625 8.296875 
L 54.390625 0 
L 12.40625 0 
z
" id="DejaVuSans-49"/>
      </defs>
      <g transform="translate(223.359211 266.598437)scale(0.1 -0.1)">
       <use xlink:href="#DejaVuSans-49"/>
       <use x="63.623047" xlink:href="#DejaVuSans-48"/>
       <use x="127.246094" xlink:href="#DejaVuSans-48"/>
       <use x="190.869141" xlink:href="#DejaVuSans-48"/>
      </g>
     </g>
    </g>
    <g id="xtick_6">
     <g id="line2d_6">
      <g>
       <use style="stroke:#000000;stroke-width:0.8;" x="277.800718" xlink:href="#m76633d609d" y="252"/>
      </g>
     </g>
     <g id="text_6">
      <!-- 1250 -->
      <g transform="translate(265.075718 266.598437)scale(0.1 -0.1)">
       <use xlink:href="#DejaVuSans-49"/>
       <use x="63.623047" xlink:href="#DejaVuSans-50"/>
       <use x="127.246094" xlink:href="#DejaVuSans-53"/>
       <use x="190.869141" xlink:href="#DejaVuSans-48"/>
      </g>
     </g>
    </g>
    <g id="xtick_7">
     <g id="line2d_7">
      <g>
       <use style="stroke:#000000;stroke-width:0.8;" x="319.517225" xlink:href="#m76633d609d" y="252"/>
      </g>
     </g>
     <g id="text_7">
      <!-- 1500 -->
      <g transform="translate(306.792225 266.598437)scale(0.1 -0.1)">
       <use xlink:href="#DejaVuSans-49"/>
       <use x="63.623047" xlink:href="#DejaVuSans-53"/>
       <use x="127.246094" xlink:href="#DejaVuSans-48"/>
       <use x="190.869141" xlink:href="#DejaVuSans-48"/>
      </g>
     </g>
    </g>
    <g id="xtick_8">
     <g id="line2d_8">
      <g>
       <use style="stroke:#000000;stroke-width:0.8;" x="361.233732" xlink:href="#m76633d609d" y="252"/>
      </g>
     </g>
     <g id="text_8">
      <!-- 1750 -->
      <g transform="translate(348.508732 266.598437)scale(0.1 -0.1)">
       <use xlink:href="#DejaVuSans-49"/>
       <use x="63.623047" xlink:href="#DejaVuSans-55"/>
       <use x="127.246094" xlink:href="#DejaVuSans-53"/>
       <use x="190.869141" xlink:href="#DejaVuSans-48"/>
      </g>
     </g>
    </g>
   </g>
   <g id="matplotlib.axis_2">
    <g id="ytick_1">
     <g id="line2d_9">
      <defs>
       <path d="M 0 0 
L -3.5 0 
" id="mf73011c8ab" style="stroke:#000000;stroke-width:0.8;"/>
      </defs>
      <g>
       <use style="stroke:#000000;stroke-width:0.8;" x="54" xlink:href="#mf73011c8ab" y="245.1845"/>
      </g>
     </g>
     <g id="text_9">
      <!-- 0 -->
      <g transform="translate(40.6375 248.983719)scale(0.1 -0.1)">
       <use xlink:href="#DejaVuSans-48"/>
      </g>
     </g>
    </g>
    <g id="ytick_2">
     <g id="line2d_10">
      <g>
       <use style="stroke:#000000;stroke-width:0.8;" x="54" xlink:href="#mf73011c8ab" y="216.045585"/>
      </g>
     </g>
     <g id="text_10">
      <!-- 1 -->
      <g transform="translate(40.6375 219.844804)scale(0.1 -0.1)">
       <use xlink:href="#DejaVuSans-49"/>
      </g>
     </g>
    </g>
    <g id="ytick_3">
     <g id="line2d_11">
      <g>
       <use style="stroke:#000000;stroke-width:0.8;" x="54" xlink:href="#mf73011c8ab" y="186.906671"/>
      </g>
     </g>
     <g id="text_11">
      <!-- 2 -->
      <g transform="translate(40.6375 190.70589)scale(0.1 -0.1)">
       <use xlink:href="#DejaVuSans-50"/>
      </g>
     </g>
    </g>
    <g id="ytick_4">
     <g id="line2d_12">
      <g>
       <use style="stroke:#000000;stroke-width:0.8;" x="54" xlink:href="#mf73011c8ab" y="157.767756"/>
      </g>
     </g>
     <g id="text_12">
      <!-- 3 -->
      <defs>
       <path d="M 40.578125 39.3125 
Q 47.65625 37.796875 51.625 33 
Q 55.609375 28.21875 55.609375 21.1875 
Q 55.609375 10.40625 48.1875 4.484375 
Q 40.765625 -1.421875 27.09375 -1.421875 
Q 22.515625 -1.421875 17.65625 -0.515625 
Q 12.796875 0.390625 7.625 2.203125 
L 7.625 11.71875 
Q 11.71875 9.328125 16.59375 8.109375 
Q 21.484375 6.890625 26.8125 6.890625 
Q 36.078125 6.890625 40.9375 10.546875 
Q 45.796875 14.203125 45.796875 21.1875 
Q 45.796875 27.640625 41.28125 31.265625 
Q 36.765625 34.90625 28.71875 34.90625 
L 20.21875 34.90625 
L 20.21875 43.015625 
L 29.109375 43.015625 
Q 36.375 43.015625 40.234375 45.921875 
Q 44.09375 48.828125 44.09375 54.296875 
Q 44.09375 59.90625 40.109375 62.90625 
Q 36.140625 65.921875 28.71875 65.921875 
Q 24.65625 65.921875 20.015625 65.03125 
Q 15.375 64.15625 9.8125 62.3125 
L 9.8125 71.09375 
Q 15.4375 72.65625 20.34375 73.4375 
Q 25.25 74.21875 29.59375 74.21875 
Q 40.828125 74.21875 47.359375 69.109375 
Q 53.90625 64.015625 53.90625 55.328125 
Q 53.90625 49.265625 50.4375 45.09375 
Q 46.96875 40.921875 40.578125 39.3125 
z
" id="DejaVuSans-51"/>
      </defs>
      <g transform="translate(40.6375 161.566975)scale(0.1 -0.1)">
       <use xlink:href="#DejaVuSans-51"/>
      </g>
     </g>
    </g>
    <g id="ytick_5">
     <g id="line2d_13">
      <g>
       <use style="stroke:#000000;stroke-width:0.8;" x="54" xlink:href="#mf73011c8ab" y="128.628842"/>
      </g>
     </g>
     <g id="text_13">
      <!-- 4 -->
      <defs>
       <path d="M 37.796875 64.3125 
L 12.890625 25.390625 
L 37.796875 25.390625 
z
M 35.203125 72.90625 
L 47.609375 72.90625 
L 47.609375 25.390625 
L 58.015625 25.390625 
L 58.015625 17.1875 
L 47.609375 17.1875 
L 47.609375 0 
L 37.796875 0 
L 37.796875 17.1875 
L 4.890625 17.1875 
L 4.890625 26.703125 
z
" id="DejaVuSans-52"/>
      </defs>
      <g transform="translate(40.6375 132.428061)scale(0.1 -0.1)">
       <use xlink:href="#DejaVuSans-52"/>
      </g>
     </g>
    </g>
    <g id="ytick_6">
     <g id="line2d_14">
      <g>
       <use style="stroke:#000000;stroke-width:0.8;" x="54" xlink:href="#mf73011c8ab" y="99.489927"/>
      </g>
     </g>
     <g id="text_14">
      <!-- 5 -->
      <g transform="translate(40.6375 103.289146)scale(0.1 -0.1)">
       <use xlink:href="#DejaVuSans-53"/>
      </g>
     </g>
    </g>
    <g id="ytick_7">
     <g id="line2d_15">
      <g>
       <use style="stroke:#000000;stroke-width:0.8;" x="54" xlink:href="#mf73011c8ab" y="70.351013"/>
      </g>
     </g>
     <g id="text_15">
      <!-- 6 -->
      <defs>
       <path d="M 33.015625 40.375 
Q 26.375 40.375 22.484375 35.828125 
Q 18.609375 31.296875 18.609375 23.390625 
Q 18.609375 15.53125 22.484375 10.953125 
Q 26.375 6.390625 33.015625 6.390625 
Q 39.65625 6.390625 43.53125 10.953125 
Q 47.40625 15.53125 47.40625 23.390625 
Q 47.40625 31.296875 43.53125 35.828125 
Q 39.65625 40.375 33.015625 40.375 
z
M 52.59375 71.296875 
L 52.59375 62.3125 
Q 48.875 64.0625 45.09375 64.984375 
Q 41.3125 65.921875 37.59375 65.921875 
Q 27.828125 65.921875 22.671875 59.328125 
Q 17.53125 52.734375 16.796875 39.40625 
Q 19.671875 43.65625 24.015625 45.921875 
Q 28.375 48.1875 33.59375 48.1875 
Q 44.578125 48.1875 50.953125 41.515625 
Q 57.328125 34.859375 57.328125 23.390625 
Q 57.328125 12.15625 50.6875 5.359375 
Q 44.046875 -1.421875 33.015625 -1.421875 
Q 20.359375 -1.421875 13.671875 8.265625 
Q 6.984375 17.96875 6.984375 36.375 
Q 6.984375 53.65625 15.1875 63.9375 
Q 23.390625 74.21875 37.203125 74.21875 
Q 40.921875 74.21875 44.703125 73.484375 
Q 48.484375 72.75 52.59375 71.296875 
z
" id="DejaVuSans-54"/>
      </defs>
      <g transform="translate(40.6375 74.150231)scale(0.1 -0.1)">
       <use xlink:href="#DejaVuSans-54"/>
      </g>
     </g>
    </g>
    <g id="ytick_8">
     <g id="line2d_16">
      <g>
       <use style="stroke:#000000;stroke-width:0.8;" x="54" xlink:href="#mf73011c8ab" y="41.212098"/>
      </g>
     </g>
     <g id="text_16">
      <!-- 7 -->
      <g transform="translate(40.6375 45.011317)scale(0.1 -0.1)">
       <use xlink:href="#DejaVuSans-55"/>
      </g>
     </g>
    </g>
   </g>
   <g id="line2d_17">
    <path clip-path="url(#p36459a4008)" d="M 69.218182 148.912829 
L 69.385048 111.251018 
L 69.551914 100.61332 
L 69.71878 110.441627 
L 69.885646 75.071599 
L 70.052512 88.07323 
L 70.219378 113.153132 
L 70.386244 62.223276 
L 70.719976 85.011625 
L 70.886842 103.609117 
L 71.053708 44.443636 
L 71.220574 117.034159 
L 71.38744 58.391786 
L 71.721172 91.179881 
L 71.888038 84.717388 
L 72.054904 135.254831 
L 72.22177 91.905758 
L 72.555502 124.633397 
L 72.722368 94.666675 
L 72.889234 109.948216 
L 73.0561 148.311447 
L 73.222967 119.621207 
L 73.389833 137.694125 
L 73.556699 130.959835 
L 73.723565 112.022525 
L 73.890431 128.058889 
L 74.224163 121.990875 
L 74.391029 80.057403 
L 74.557895 128.954439 
L 74.724761 102.746677 
L 74.891627 96.707522 
L 75.058493 85.099042 
L 75.225359 114.149233 
L 75.559091 83.76669 
L 75.725957 69.201283 
L 75.892823 111.518425 
L 76.059689 78.948426 
L 76.226555 116.939402 
L 76.393421 115.402672 
L 76.560287 97.134834 
L 76.727153 93.814413 
L 76.894019 87.216039 
L 77.060885 116.794687 
L 77.227751 79.903299 
L 77.728349 129.116894 
L 77.895215 89.601575 
L 78.062081 104.566887 
L 78.228947 132.13538 
L 78.395813 130.210243 
L 78.562679 132.813558 
L 78.729545 113.892671 
L 78.896411 115.697312 
L 79.063278 157.875067 
L 79.230144 115.455707 
L 79.39701 105.141911 
L 79.563876 109.322483 
L 79.897608 65.04248 
L 80.23134 86.617032 
L 80.398206 105.798476 
L 80.565072 101.868808 
L 80.731938 127.87504 
L 80.898804 87.788708 
L 81.06567 133.621381 
L 81.9 91.040581 
L 82.066866 116.513945 
L 82.233732 103.598209 
L 82.400598 105.509039 
L 82.567464 102.996445 
L 82.73433 119.881667 
L 82.901196 118.601037 
L 83.068062 129.171978 
L 83.234928 103.47732 
L 83.401794 99.195801 
L 83.735526 124.654399 
L 84.069258 79.119127 
L 84.236124 95.976983 
L 84.40299 57.91856 
L 84.569856 153.368547 
L 84.903589 80.528288 
L 85.070455 129.185581 
L 85.237321 53.305664 
L 85.571053 113.596732 
L 85.737919 87.823451 
L 85.904785 141.152015 
L 86.071651 96.524768 
L 86.238517 133.802566 
L 86.405383 112.213949 
L 86.572249 111.365439 
L 86.739115 123.382119 
L 87.072847 104.402348 
L 87.239713 130.237202 
L 87.406579 102.08311 
L 87.573445 113.876887 
L 87.740311 96.906075 
L 88.074043 122.371752 
L 88.240909 71.530893 
L 88.407775 87.307729 
L 88.574641 135.477029 
L 88.741507 132.398025 
L 88.908373 104.096196 
L 89.075239 122.655478 
L 89.242105 117.409749 
L 89.575837 163.998822 
L 89.909569 107.065426 
L 90.076435 125.256295 
L 90.243301 157.573261 
L 90.410167 79.391987 
L 90.7439 112.801736 
L 90.910766 119.657305 
L 91.077632 140.955033 
L 91.244498 102.48166 
L 91.57823 114.688962 
L 91.745096 86.530608 
L 91.911962 122.952098 
L 92.078828 102.524507 
L 92.41256 129.013727 
L 92.579426 102.661615 
L 92.746292 141.927777 
L 92.913158 144.623786 
L 93.080024 99.863815 
L 93.24689 117.195988 
L 93.413756 94.703718 
L 93.914354 132.064421 
L 94.08122 115.408639 
L 94.248086 143.923919 
L 94.414952 113.535026 
L 94.581818 117.512936 
L 94.748684 97.222439 
L 95.249282 111.148407 
L 95.416148 138.117915 
L 95.583014 136.350588 
L 95.74988 124.099931 
L 95.916746 133.610849 
L 96.083612 85.860455 
L 96.417344 153.135095 
L 96.751077 80.45653 
L 96.917943 75.107842 
L 97.084809 158.353893 
L 97.251675 95.29545 
L 97.418541 162.897577 
L 97.585407 156.430878 
L 97.919139 95.727639 
L 98.086005 95.282056 
L 98.419737 108.377361 
L 98.586603 89.282174 
L 98.753469 84.18272 
L 98.920335 143.348791 
L 99.087201 160.62037 
L 99.254067 143.028088 
L 99.420933 99.025572 
L 99.754665 165.766972 
L 99.921531 108.881857 
L 100.088397 136.42344 
L 100.255263 114.048165 
L 100.422129 118.76122 
L 100.755861 147.880307 
L 100.922727 135.241916 
L 101.089593 138.691567 
L 101.256459 122.571131 
L 101.423325 148.676911 
L 101.757057 100.159914 
L 101.923923 139.00864 
L 102.090789 150.76129 
L 102.257656 151.315129 
L 102.424522 118.103304 
L 102.591388 147.088298 
L 102.92512 111.73215 
L 103.091986 129.023762 
L 103.258852 131.354376 
L 103.592584 170.214927 
L 103.75945 158.186582 
L 103.926316 121.899442 
L 104.093182 153.69453 
L 104.260048 129.179718 
L 104.426914 127.400268 
L 104.59378 129.546901 
L 104.760646 152.701232 
L 104.927512 141.192764 
L 105.094378 142.872153 
L 105.261244 141.2222 
L 105.42811 144.009009 
L 105.594976 122.578627 
L 105.761842 116.55616 
L 105.928708 117.743398 
L 106.429306 159.303545 
L 106.596172 153.580543 
L 106.763038 139.793135 
L 106.929904 137.77438 
L 107.09677 141.829957 
L 107.263636 167.141824 
L 107.430502 140.933809 
L 107.597368 167.201064 
L 107.764234 117.086843 
L 107.9311 175.695525 
L 108.097967 138.121368 
L 108.264833 152.933246 
L 108.431699 185.785152 
L 108.598565 124.424357 
L 108.765431 155.698943 
L 108.932297 132.522343 
L 109.099163 154.287065 
L 109.266029 106.398768 
L 109.599761 149.427816 
L 109.766627 146.905255 
L 109.933493 123.893695 
L 110.100359 162.006383 
L 110.267225 143.091103 
L 110.600957 166.818923 
L 110.934689 135.302997 
L 111.101555 149.261481 
L 111.268421 178.08099 
L 111.435287 159.160862 
L 111.602153 163.264789 
L 111.935885 140.179691 
L 112.269617 175.366163 
L 112.436483 173.733123 
L 112.770215 162.974487 
L 112.937081 133.979902 
L 113.103947 172.387435 
L 113.270813 156.900586 
L 113.437679 153.457232 
L 113.604545 147.496551 
L 113.771411 123.654379 
L 113.938278 161.206153 
L 114.105144 161.671167 
L 114.27201 175.032298 
L 114.438876 165.075369 
L 114.605742 144.824888 
L 114.772608 165.358845 
L 114.939474 145.111793 
L 115.10634 175.124721 
L 115.273206 158.054699 
L 115.440072 169.736493 
L 115.606938 156.263234 
L 115.773804 177.948009 
L 115.94067 173.267976 
L 116.107536 146.517369 
L 116.274402 155.762135 
L 116.441268 177.359571 
L 116.775 143.150724 
L 117.108732 184.806162 
L 117.275598 141.79958 
L 117.442464 177.349101 
L 117.60933 153.303382 
L 117.776196 147.414938 
L 117.943062 172.839181 
L 118.109928 164.464615 
L 118.276794 173.180409 
L 118.44366 138.275357 
L 118.610526 153.090563 
L 118.777392 180.19539 
L 118.944258 148.303325 
L 119.111124 155.315749 
L 119.27799 181.162921 
L 119.444856 177.467729 
L 119.611722 152.484894 
L 119.778589 168.949946 
L 119.945455 151.314514 
L 120.279187 184.850619 
L 120.446053 177.23104 
L 120.612919 176.82821 
L 120.779785 173.471871 
L 120.946651 146.184043 
L 121.113517 168.896987 
L 121.280383 174.05368 
L 121.614115 191.796617 
L 121.780981 194.890195 
L 121.947847 153.405892 
L 122.114713 178.714925 
L 122.281579 160.360612 
L 122.448445 181.124287 
L 122.615311 179.783528 
L 122.782177 181.709017 
L 122.949043 165.6343 
L 123.115909 167.38047 
L 123.282775 196.779106 
L 123.449641 167.861341 
L 123.616507 188.90977 
L 123.950239 177.857043 
L 124.117105 180.081955 
L 124.283971 191.564804 
L 124.450837 179.645938 
L 124.617703 193.388741 
L 124.784569 155.563468 
L 124.951435 157.734594 
L 125.118301 190.651446 
L 125.452033 186.52482 
L 125.785766 169.239799 
L 125.952632 190.509592 
L 126.119498 181.070293 
L 126.286364 191.531343 
L 126.45323 194.371276 
L 126.620096 188.049531 
L 126.786962 194.711885 
L 126.953828 181.781567 
L 127.120694 194.661887 
L 127.454426 186.360991 
L 127.788158 174.564329 
L 127.955024 170.713995 
L 128.12189 184.641156 
L 128.288756 183.421212 
L 128.455622 190.883799 
L 128.622488 189.997374 
L 128.789354 182.214567 
L 128.95622 196.2563 
L 129.123086 200.606276 
L 129.289952 178.935449 
L 129.456818 202.30946 
L 129.623684 181.789574 
L 129.79055 198.919485 
L 129.957416 170.218029 
L 130.124282 173.123275 
L 130.291148 189.66368 
L 130.458014 179.002233 
L 130.791746 200.991298 
L 131.125478 190.756758 
L 131.459211 194.218871 
L 131.626077 192.797769 
L 131.792943 203.873005 
L 131.959809 200.193563 
L 132.126675 177.1784 
L 132.293541 204.766605 
L 132.460407 167.011053 
L 132.794139 203.488693 
L 132.961005 190.20175 
L 133.127871 193.080531 
L 133.294737 192.468636 
L 133.461603 197.182102 
L 133.628469 194.528071 
L 133.795335 200.749931 
L 133.962201 194.36341 
L 134.129067 196.34456 
L 134.295933 193.708799 
L 134.462799 196.808519 
L 134.629665 201.992415 
L 134.796531 193.049531 
L 134.963397 190.780672 
L 135.130263 186.267867 
L 135.297129 212.014843 
L 135.630861 196.375816 
L 135.797727 193.356301 
L 135.964593 201.896812 
L 136.298325 199.569078 
L 136.465191 196.164734 
L 136.632057 215.032031 
L 136.798923 201.466136 
L 136.965789 200.773079 
L 137.132656 181.570787 
L 137.466388 205.993364 
L 137.633254 208.016607 
L 137.966986 188.670476 
L 138.300718 186.855702 
L 138.63445 212.816314 
L 139.135048 195.225673 
L 139.301914 211.878535 
L 139.46878 200.447708 
L 139.802512 218.651552 
L 139.969378 199.869146 
L 140.136244 199.589037 
L 140.636842 212.652423 
L 140.803708 208.746492 
L 140.970574 211.789439 
L 141.13744 217.356114 
L 141.304306 202.247927 
L 141.471172 200.197044 
L 141.638038 217.147636 
L 141.804904 213.08052 
L 141.97177 212.557361 
L 142.138636 215.49233 
L 142.305502 207.08836 
L 142.472368 215.803674 
L 142.639234 204.925588 
L 142.8061 209.004035 
L 142.972967 219.687526 
L 143.139833 206.935345 
L 143.306699 209.08227 
L 143.473565 199.893447 
L 143.640431 215.976494 
L 143.807297 211.562545 
L 143.974163 217.017905 
L 144.141029 208.744391 
L 144.307895 215.752408 
L 144.474761 212.347465 
L 144.641627 211.334655 
L 144.808493 217.649928 
L 144.975359 208.488184 
L 145.142225 221.065364 
L 145.309091 222.820022 
L 145.475957 215.770373 
L 145.642823 225.715123 
L 146.143421 218.122889 
L 146.310287 222.550415 
L 146.477153 207.804725 
L 146.644019 223.324251 
L 146.810885 219.755427 
L 146.977751 224.649534 
L 147.144617 219.725698 
L 147.478349 220.116477 
L 147.645215 223.636622 
L 147.812081 219.008584 
L 147.978947 225.353126 
L 148.145813 220.824334 
L 148.312679 213.226226 
L 148.479545 226.062494 
L 148.646411 221.031893 
L 148.813278 203.03843 
L 148.980144 225.728695 
L 149.313876 218.872936 
L 149.480742 225.513841 
L 149.647608 226.196888 
L 149.814474 223.418191 
L 149.98134 222.954871 
L 150.148206 223.593364 
L 150.315072 213.705212 
L 150.481938 225.162798 
L 150.648804 223.935551 
L 150.81567 232.357323 
L 150.982536 223.398039 
L 151.149402 227.601921 
L 151.316268 226.582683 
L 151.483134 230.092305 
L 151.65 226.280965 
L 151.816866 229.447385 
L 151.983732 225.369065 
L 152.317464 226.158827 
L 152.48433 229.188618 
L 152.651196 220.322184 
L 152.818062 222.671741 
L 152.984928 217.589004 
L 153.31866 231.855526 
L 153.485526 232.807972 
L 153.652392 224.961831 
L 153.819258 229.419472 
L 153.986124 227.334149 
L 154.15299 231.57154 
L 154.319856 213.852456 
L 154.486722 231.20527 
L 154.653589 225.116188 
L 154.820455 228.70175 
L 154.987321 224.112588 
L 155.154187 229.579565 
L 155.321053 223.023056 
L 155.487919 230.255929 
L 155.654785 228.598761 
L 155.821651 231.068033 
L 155.988517 223.667824 
L 156.155383 225.729186 
L 156.322249 234.744398 
L 156.489115 233.006268 
L 156.655981 229.007781 
L 156.822847 229.062732 
L 156.989713 226.202305 
L 157.323445 228.929756 
L 157.490311 229.453279 
L 157.657177 231.747987 
L 157.824043 224.913588 
L 157.990909 234.084738 
L 158.157775 225.99958 
L 158.324641 232.185402 
L 158.491507 226.74479 
L 158.658373 232.284178 
L 158.825239 231.573821 
L 158.992105 237.552697 
L 159.158971 227.492475 
L 159.325837 228.422913 
L 159.492703 233.27877 
L 159.659569 231.187654 
L 159.826435 231.901724 
L 159.993301 230.904137 
L 160.160167 235.283334 
L 160.327033 230.055521 
L 160.4939 233.624544 
L 160.660766 228.634226 
L 160.827632 233.846098 
L 160.994498 232.510128 
L 161.161364 228.615293 
L 161.661962 233.072212 
L 161.828828 230.574496 
L 162.16256 231.660117 
L 162.329426 233.416353 
L 162.496292 231.98417 
L 162.663158 232.368266 
L 162.830024 234.835264 
L 162.99689 225.60822 
L 163.163756 232.065061 
L 163.497488 224.26136 
L 163.83122 233.854674 
L 163.998086 232.341176 
L 164.164952 227.895028 
L 164.331818 233.706779 
L 164.498684 234.892095 
L 164.66555 229.459062 
L 164.832416 234.642553 
L 164.999282 232.180771 
L 165.166148 234.450173 
L 165.333014 233.181638 
L 165.666746 228.053083 
L 165.833612 226.137127 
L 166.000478 231.834412 
L 166.334211 234.90892 
L 166.501077 227.926175 
L 166.667943 231.426443 
L 166.834809 224.251355 
L 167.001675 232.966641 
L 167.168541 226.314482 
L 167.335407 231.477101 
L 167.502273 230.648174 
L 167.669139 232.317395 
L 167.836005 232.864117 
L 168.002871 234.777818 
L 168.169737 228.330353 
L 168.336603 233.408666 
L 168.503469 231.090214 
L 168.670335 236.75721 
L 168.837201 236.193749 
L 169.170933 228.614914 
L 169.337799 225.90561 
L 169.504665 234.303045 
L 169.671531 230.502547 
L 169.838397 233.722327 
L 170.005263 229.957848 
L 170.338995 235.345528 
L 170.505861 233.313346 
L 170.672727 236.248064 
L 170.839593 228.885559 
L 171.006459 235.530858 
L 171.173325 223.763329 
L 171.340191 234.303519 
L 171.507057 230.245298 
L 171.673923 229.368439 
L 171.840789 230.000226 
L 172.007656 235.484803 
L 172.174522 235.558645 
L 172.341388 234.02365 
L 172.508254 234.284222 
L 172.67512 231.48511 
L 172.841986 234.292053 
L 173.175718 228.632939 
L 173.342584 228.729442 
L 173.50945 235.501275 
L 173.676316 236.700532 
L 173.843182 231.479878 
L 174.010048 230.545429 
L 174.34378 234.614224 
L 174.510646 232.9788 
L 174.677512 236.625564 
L 174.844378 233.294477 
L 175.011244 237.740213 
L 175.17811 232.670904 
L 175.344976 236.284167 
L 175.511842 233.764445 
L 175.678708 235.765912 
L 175.845574 235.263152 
L 176.01244 235.239686 
L 176.179306 231.425275 
L 176.346172 233.781193 
L 176.679904 233.73683 
L 176.84677 237.117394 
L 177.013636 231.919233 
L 177.180502 236.354594 
L 177.347368 232.4644 
L 177.514234 236.489189 
L 177.6811 235.295262 
L 177.847967 232.855184 
L 178.014833 233.642324 
L 178.181699 233.40076 
L 178.348565 234.306521 
L 178.515431 229.688239 
L 178.682297 237.023292 
L 178.849163 230.069894 
L 179.016029 234.749376 
L 179.182895 233.802123 
L 179.349761 230.389251 
L 179.516627 234.469006 
L 179.683493 231.610861 
L 179.850359 231.920288 
L 180.017225 225.791593 
L 180.184091 232.665952 
L 180.350957 233.87681 
L 180.517823 233.171867 
L 180.684689 233.521348 
L 180.851555 232.047963 
L 181.185287 235.035378 
L 181.519019 236.595258 
L 181.685885 232.652588 
L 181.852751 237.073536 
L 182.186483 232.733439 
L 182.353349 233.222818 
L 182.687081 230.812329 
L 182.853947 231.959859 
L 183.020813 235.231507 
L 183.354545 232.624662 
L 183.521411 236.512052 
L 183.688278 233.133717 
L 183.855144 238.19449 
L 184.02201 233.25701 
L 184.188876 236.517594 
L 184.355742 234.342408 
L 184.522608 234.672335 
L 184.85634 237.372453 
L 185.023206 230.765651 
L 185.190072 235.630096 
L 185.356938 234.138514 
L 185.523804 239.23036 
L 185.69067 234.792375 
L 185.857536 235.971204 
L 186.024402 235.637654 
L 186.191268 232.501539 
L 186.358134 234.417046 
L 186.525 231.186045 
L 186.691866 232.447232 
L 186.858732 232.754639 
L 187.025598 236.313822 
L 187.192464 235.534561 
L 187.35933 236.237222 
L 187.526196 235.947479 
L 187.693062 235.884023 
L 187.859928 237.190904 
L 188.026794 235.08473 
L 188.19366 236.226545 
L 188.360526 233.580737 
L 188.527392 238.698419 
L 188.861124 232.978668 
L 189.02799 236.081181 
L 189.194856 236.323449 
L 189.361722 232.12617 
L 189.695455 239.418276 
L 189.862321 235.125925 
L 190.029187 237.407091 
L 190.362919 234.748287 
L 190.529785 237.001412 
L 190.696651 235.704876 
L 190.863517 239.205781 
L 191.030383 237.615228 
L 191.197249 233.009899 
L 191.530981 230.867604 
L 192.031579 236.162232 
L 192.198445 235.839936 
L 192.365311 234.246057 
L 192.532177 237.852578 
L 192.699043 234.199086 
L 192.865909 236.873795 
L 193.032775 231.738777 
L 193.199641 235.891669 
L 193.366507 234.137301 
L 193.533373 237.882765 
L 193.867105 233.334972 
L 194.033971 233.683145 
L 194.367703 238.614204 
L 194.534569 235.778573 
L 194.701435 238.098013 
L 194.868301 237.123033 
L 195.035167 233.889779 
L 195.202033 236.569322 
L 195.3689 237.009192 
L 195.702632 232.876222 
L 195.869498 235.719197 
L 196.036364 234.521756 
L 196.370096 237.386685 
L 196.536962 236.58731 
L 196.703828 238.875394 
L 196.870694 236.894716 
L 197.03756 237.161503 
L 197.204426 235.840764 
L 197.371292 238.476331 
L 197.705024 234.576596 
L 197.87189 237.544468 
L 198.038756 236.659235 
L 198.205622 237.722964 
L 198.539354 234.771202 
L 198.70622 238.990281 
L 199.206818 233.178042 
L 199.373684 237.319763 
L 199.54055 237.458013 
L 199.707416 234.823437 
L 199.874282 234.108164 
L 200.208014 237.12384 
L 200.37488 233.928731 
L 200.541746 236.462373 
L 200.875478 236.766916 
L 201.042344 234.484115 
L 201.209211 235.204555 
L 201.376077 238.140728 
L 201.542943 236.581731 
L 201.709809 238.564561 
L 201.876675 236.64078 
L 202.210407 238.270632 
L 202.377273 237.755295 
L 202.544139 231.963317 
L 202.711005 239.667253 
L 202.877871 239.340744 
L 203.211603 236.792644 
L 203.378469 238.853215 
L 203.545335 233.634471 
L 203.712201 239.113566 
L 203.879067 234.764502 
L 204.045933 233.664525 
L 204.379665 238.377845 
L 204.546531 237.99574 
L 204.713397 237.286853 
L 204.880263 238.370276 
L 205.047129 236.394251 
L 205.213995 237.43186 
L 205.380861 236.748179 
L 205.547727 237.181222 
L 205.714593 236.492699 
L 205.881459 235.166776 
L 206.215191 237.862886 
L 206.382057 235.299694 
L 206.548923 237.291321 
L 206.715789 236.737376 
L 206.882656 237.990866 
L 207.049522 236.008717 
L 207.216388 237.538115 
L 207.383254 233.911572 
L 207.55012 237.548913 
L 207.883852 232.594148 
L 208.050718 233.79932 
L 208.217584 237.07019 
L 208.38445 235.236275 
L 208.551316 234.630863 
L 208.718182 236.693996 
L 208.885048 233.957553 
L 209.051914 236.228419 
L 209.21878 236.228043 
L 209.552512 238.87966 
L 209.719378 238.40404 
L 209.886244 236.670007 
L 210.05311 237.346872 
L 210.219976 239.843449 
L 210.553708 236.307396 
L 210.720574 236.672775 
L 210.88744 237.600192 
L 211.054306 236.027834 
L 211.221172 235.644409 
L 211.388038 238.565329 
L 211.554904 235.385249 
L 211.888636 238.776168 
L 212.222368 235.843128 
L 212.5561 234.567111 
L 212.889833 237.762809 
L 213.056699 237.623255 
L 213.390431 235.806321 
L 213.557297 237.046992 
L 213.724163 235.793042 
L 213.891029 238.144998 
L 214.057895 237.848166 
L 214.224761 235.045127 
L 214.391627 237.474632 
L 214.558493 235.814578 
L 214.725359 236.654501 
L 214.892225 239.438664 
L 215.059091 236.666566 
L 215.225957 236.66489 
L 215.392823 237.840345 
L 215.559689 237.235209 
L 215.726555 239.952657 
L 215.893421 237.369144 
L 216.060287 231.812484 
L 216.227153 235.535363 
L 216.394019 235.706403 
L 216.560885 234.301842 
L 216.894617 237.321777 
L 217.228349 238.552144 
L 217.395215 238.891871 
L 218.062679 235.079878 
L 218.229545 235.136481 
L 218.396411 237.98394 
L 218.563278 234.45279 
L 218.730144 233.59252 
L 218.89701 236.665185 
L 219.063876 236.809707 
L 219.230742 235.430063 
L 219.397608 238.612649 
L 219.564474 234.798313 
L 219.73134 235.832774 
L 219.898206 238.087075 
L 220.065072 235.196173 
L 220.398804 239.002473 
L 220.56567 234.784458 
L 220.899402 237.866438 
L 221.066268 238.050848 
L 221.4 235.998184 
L 221.566866 236.530203 
L 221.733732 236.560128 
L 221.900598 236.195977 
L 222.067464 234.244497 
L 222.23433 237.749795 
L 222.401196 235.205323 
L 222.568062 235.414243 
L 222.734928 237.930545 
L 222.901794 237.413305 
L 223.06866 237.524727 
L 223.235526 238.695838 
L 223.402392 237.414018 
L 223.569258 237.64779 
L 223.736124 233.787279 
L 223.90299 237.004746 
L 224.069856 236.150408 
L 224.236722 236.332965 
L 224.403589 239.474044 
L 224.570455 234.786227 
L 224.737321 238.221706 
L 224.904187 238.390325 
L 225.071053 237.89311 
L 225.237919 236.526245 
L 225.404785 238.204041 
L 225.571651 234.969191 
L 225.738517 237.216889 
L 225.905383 235.645147 
L 226.072249 237.32774 
L 226.239115 236.961886 
L 226.405981 236.245032 
L 226.572847 237.710392 
L 226.739713 237.243354 
L 226.906579 234.888329 
L 227.073445 234.870974 
L 227.240311 238.507834 
L 227.407177 238.668196 
L 227.574043 236.705088 
L 227.740909 236.719953 
L 228.241507 233.965831 
L 228.408373 235.056989 
L 228.575239 237.195519 
L 228.742105 237.003859 
L 228.908971 235.730395 
L 229.242703 237.204444 
L 229.409569 235.924318 
L 229.576435 235.580414 
L 229.743301 237.476847 
L 229.910167 235.145737 
L 230.077033 237.08158 
L 230.2439 237.63616 
L 230.577632 235.930151 
L 230.744498 235.847966 
L 230.911364 234.887146 
L 231.07823 232.023824 
L 231.411962 237.030178 
L 231.578828 235.896333 
L 231.745694 237.957244 
L 231.91256 235.512385 
L 232.079426 236.51082 
L 232.246292 239.182751 
L 232.413158 236.468375 
L 232.580024 231.45415 
L 232.74689 237.688803 
L 232.913756 238.97053 
L 233.080622 234.588871 
L 233.247488 237.060442 
L 233.414354 237.675536 
L 233.58122 235.738036 
L 233.748086 237.038586 
L 233.914952 235.596574 
L 234.081818 237.563334 
L 234.248684 235.959174 
L 234.41555 238.979672 
L 234.749282 235.182764 
L 234.916148 234.033419 
L 235.083014 238.463055 
L 235.24988 237.775682 
L 235.416746 239.001116 
L 235.583612 238.316053 
L 235.750478 232.116117 
L 236.084211 236.43808 
L 236.251077 235.157537 
L 236.417943 231.470179 
L 236.584809 239.035478 
L 236.751675 234.737938 
L 236.918541 238.417845 
L 237.252273 236.723283 
L 237.419139 237.929738 
L 237.752871 237.481319 
L 237.919737 235.292754 
L 238.253469 238.125906 
L 238.420335 236.240287 
L 238.587201 237.67559 
L 238.920933 236.0279 
L 239.087799 238.367087 
L 239.254665 237.45418 
L 239.421531 238.986278 
L 239.588397 238.151835 
L 239.755263 233.422917 
L 239.922129 236.111739 
L 240.088995 236.117095 
L 240.255861 238.501826 
L 240.422727 237.967754 
L 240.589593 235.747837 
L 240.756459 237.106383 
L 240.923325 234.97834 
L 241.090191 239.495682 
L 241.257057 239.521103 
L 241.423923 238.810109 
L 241.757656 237.037403 
L 241.924522 239.059276 
L 242.258254 236.743897 
L 242.42512 236.849332 
L 242.591986 236.016845 
L 242.758852 237.806048 
L 243.092584 234.474265 
L 243.25945 238.401654 
L 243.426316 235.935728 
L 243.593182 236.813859 
L 243.926914 234.207819 
L 244.09378 239.499657 
L 244.427512 235.485578 
L 244.594378 237.215803 
L 244.761244 236.93692 
L 244.92811 234.133061 
L 245.094976 236.381217 
L 245.261842 236.074482 
L 245.428708 237.337184 
L 245.76244 235.855161 
L 245.929306 237.742175 
L 246.096172 238.155565 
L 246.263038 237.714081 
L 246.429904 237.827713 
L 246.59677 237.536401 
L 246.763636 236.731895 
L 246.930502 237.614059 
L 247.097368 237.631363 
L 247.264234 237.147622 
L 247.4311 235.467095 
L 247.597967 236.444182 
L 247.764833 239.066703 
L 247.931699 235.572252 
L 248.098565 238.740359 
L 248.265431 235.979537 
L 248.432297 236.422477 
L 248.599163 234.765963 
L 248.766029 239.205923 
L 248.932895 237.705006 
L 249.099761 238.902775 
L 249.266627 234.905304 
L 249.600359 239.007668 
L 249.767225 236.837173 
L 249.934091 240.569824 
L 250.100957 236.64957 
L 250.267823 236.303902 
L 250.434689 238.881401 
L 250.601555 236.709364 
L 250.768421 238.547194 
L 250.935287 236.719921 
L 251.102153 236.546358 
L 251.269019 236.700671 
L 251.435885 238.936343 
L 251.602751 236.880592 
L 251.769617 238.571286 
L 252.103349 237.302084 
L 252.270215 236.814677 
L 252.437081 238.182345 
L 252.603947 236.841786 
L 252.937679 237.72866 
L 253.104545 237.725357 
L 253.271411 239.312517 
L 253.605144 239.200769 
L 253.77201 238.734177 
L 253.938876 238.720886 
L 254.272608 238.459812 
L 254.439474 239.258402 
L 254.773206 237.096701 
L 255.106938 240.491997 
L 255.273804 236.120212 
L 255.44067 238.575397 
L 255.607536 237.839571 
L 255.941268 239.544198 
L 256.108134 236.016987 
L 256.275 237.385747 
L 256.441866 240.502581 
L 256.608732 238.148663 
L 256.775598 238.792262 
L 256.942464 238.430343 
L 257.10933 237.424507 
L 257.276196 234.767816 
L 257.443062 238.840255 
L 257.609928 237.871821 
L 257.776794 238.231314 
L 257.94366 237.656171 
L 258.110526 238.970753 
L 258.277392 238.043431 
L 258.444258 232.747102 
L 258.611124 241.106213 
L 258.77799 237.488821 
L 258.944856 238.145029 
L 259.111722 237.122309 
L 259.445455 238.058271 
L 259.612321 236.639816 
L 259.779187 238.460406 
L 260.112919 239.013012 
L 260.279785 238.105809 
L 260.446651 238.882741 
L 260.613517 236.286185 
L 260.780383 238.503866 
L 260.947249 236.637772 
L 261.114115 237.619323 
L 261.280981 237.659023 
L 261.447847 239.656311 
L 261.614713 236.610669 
L 261.781579 236.560339 
L 261.948445 238.380077 
L 262.115311 237.213201 
L 262.282177 237.809824 
L 262.449043 236.846698 
L 262.615909 235.185466 
L 262.782775 239.823016 
L 262.949641 237.819618 
L 263.116507 239.051182 
L 263.450239 236.242041 
L 263.617105 237.250049 
L 263.783971 239.901449 
L 263.950837 236.952706 
L 264.117703 238.019664 
L 264.284569 237.989489 
L 264.451435 239.632751 
L 264.618301 240.107961 
L 264.785167 238.794316 
L 264.952033 235.065138 
L 265.1189 240.280901 
L 265.285766 237.430934 
L 265.452632 237.864518 
L 265.619498 237.492184 
L 265.786364 234.084205 
L 265.95323 238.7155 
L 266.120096 238.800281 
L 266.286962 239.205004 
L 266.453828 235.203531 
L 266.78756 238.900359 
L 266.954426 240.23683 
L 267.121292 238.451798 
L 267.288158 238.546104 
L 267.455024 240.842298 
L 267.62189 239.350783 
L 267.788756 239.692278 
L 268.122488 236.671709 
L 268.289354 236.631385 
L 268.45622 237.479711 
L 268.623086 236.15748 
L 268.789952 236.235294 
L 268.956818 238.312182 
L 269.123684 238.054035 
L 269.29055 239.161901 
L 269.457416 234.857812 
L 269.624282 238.145181 
L 269.791148 236.852978 
L 269.958014 239.100241 
L 270.12488 237.402013 
L 270.458612 233.489298 
L 270.625478 238.619892 
L 270.792344 237.937185 
L 271.126077 238.249592 
L 271.292943 238.537402 
L 271.459809 238.565606 
L 271.626675 238.314557 
L 271.793541 238.358073 
L 271.960407 237.737693 
L 272.127273 239.471822 
L 272.294139 239.791213 
L 272.461005 237.176621 
L 272.627871 237.826261 
L 272.794737 237.579431 
L 272.961603 236.826613 
L 273.295335 238.670559 
L 273.462201 238.078726 
L 273.629067 235.883597 
L 273.962799 238.043387 
L 274.129665 235.384095 
L 274.296531 238.492489 
L 274.463397 238.330088 
L 274.630263 239.540964 
L 274.797129 239.758516 
L 274.963995 240.568227 
L 275.130861 237.380937 
L 275.297727 238.240806 
L 275.464593 238.308457 
L 275.631459 239.952686 
L 275.798325 236.650201 
L 276.132057 240.146257 
L 276.298923 238.498887 
L 276.465789 239.103743 
L 276.632656 239.261527 
L 276.799522 237.489405 
L 277.30012 239.33821 
L 277.466986 236.0266 
L 277.633852 240.393328 
L 277.800718 236.488437 
L 277.967584 239.610924 
L 278.301316 238.669434 
L 278.635048 239.257974 
L 278.801914 238.631224 
L 278.96878 239.739112 
L 279.135646 238.469108 
L 279.302512 239.611469 
L 279.469378 238.877492 
L 279.636244 237.063895 
L 279.80311 239.123355 
L 279.969976 239.588617 
L 280.136842 237.295355 
L 280.303708 237.272362 
L 280.470574 238.385192 
L 280.63744 238.529337 
L 280.804306 236.809437 
L 280.971172 239.172629 
L 281.138038 239.03874 
L 281.304904 238.588251 
L 281.47177 238.905803 
L 281.638636 240.152666 
L 281.805502 239.738642 
L 281.972368 240.127189 
L 282.139234 240.070737 
L 282.3061 240.773992 
L 282.472967 239.241963 
L 282.639833 238.765297 
L 282.806699 238.922052 
L 282.973565 239.828509 
L 283.307297 236.609523 
L 283.474163 239.069475 
L 283.641029 238.729529 
L 283.807895 237.910288 
L 283.974761 237.84241 
L 284.141627 239.066844 
L 284.308493 238.809452 
L 284.475359 240.720886 
L 284.642225 237.631317 
L 284.975957 240.824882 
L 285.142823 239.722695 
L 285.309689 239.468535 
L 285.476555 238.368283 
L 285.643421 235.91288 
L 285.810287 239.562224 
L 285.977153 240.38719 
L 286.144019 239.025619 
L 286.477751 241.39808 
L 286.644617 240.22807 
L 286.811483 240.265506 
L 286.978349 240.15436 
L 287.145215 237.848648 
L 287.312081 240.078938 
L 287.478947 238.789286 
L 287.645813 238.872873 
L 287.812679 240.336246 
L 287.979545 239.383267 
L 288.313278 239.834254 
L 288.480144 238.036441 
L 288.813876 239.115312 
L 288.980742 238.650964 
L 289.147608 237.616622 
L 289.314474 240.026383 
L 289.48134 240.324698 
L 289.648206 241.005765 
L 289.815072 239.581074 
L 289.981938 239.605827 
L 290.148804 238.410901 
L 290.31567 240.631932 
L 290.482536 239.738634 
L 290.649402 239.953817 
L 290.816268 239.666216 
L 290.983134 240.765908 
L 291.15 237.8309 
L 291.316866 240.307491 
L 291.483732 238.145712 
L 291.650598 239.970729 
L 291.817464 238.505128 
L 291.98433 239.995618 
L 292.151196 239.180498 
L 292.318062 240.166097 
L 292.484928 240.131579 
L 292.651794 239.186526 
L 292.81866 240.174541 
L 293.152392 237.197094 
L 293.319258 237.724627 
L 293.486124 238.719433 
L 293.65299 238.533736 
L 293.819856 240.810547 
L 293.986722 237.696762 
L 294.320455 238.656602 
L 294.487321 238.505429 
L 294.821053 240.94817 
L 294.987919 238.565419 
L 295.154785 238.555408 
L 295.321651 239.907465 
L 295.488517 239.024266 
L 295.822249 240.010138 
L 295.989115 241.053215 
L 296.155981 238.840299 
L 296.322847 238.887079 
L 296.656579 236.849181 
L 296.823445 238.272073 
L 296.990311 238.387651 
L 297.157177 238.860879 
L 297.324043 241.189119 
L 297.490909 240.332724 
L 297.657775 238.771857 
L 297.824641 240.684781 
L 297.991507 241.14344 
L 298.158373 239.550253 
L 298.492105 239.316444 
L 298.658971 239.941864 
L 298.825837 239.786941 
L 298.992703 240.831976 
L 299.159569 238.946983 
L 299.326435 240.477959 
L 299.493301 239.444105 
L 299.660167 240.480173 
L 299.827033 240.001464 
L 299.9939 237.962093 
L 300.160766 238.186456 
L 300.327632 238.745967 
L 300.494498 238.320666 
L 300.661364 235.154359 
L 300.995096 240.671214 
L 301.161962 238.178986 
L 301.328828 238.281261 
L 301.829426 239.980527 
L 302.163158 238.240468 
L 302.330024 239.947411 
L 302.49689 239.520235 
L 302.663756 239.807122 
L 302.830622 237.014108 
L 303.164354 239.371756 
L 303.33122 241.121306 
L 303.498086 239.126114 
L 303.664952 238.87404 
L 303.831818 239.640072 
L 303.998684 238.543314 
L 304.16555 239.631617 
L 304.332416 239.461727 
L 304.499282 240.201207 
L 304.666148 237.979589 
L 304.833014 239.858576 
L 304.99988 237.788956 
L 305.166746 237.358618 
L 305.333612 238.903327 
L 305.500478 241.816784 
L 305.834211 240.313484 
L 306.001077 238.399902 
L 306.167943 240.689511 
L 306.334809 240.290212 
L 306.668541 240.586178 
L 307.002273 238.865414 
L 307.169139 239.08676 
L 307.336005 240.186689 
L 307.502871 238.612562 
L 307.669737 240.753022 
L 308.003469 238.908411 
L 308.337201 240.656593 
L 308.504067 238.954378 
L 308.670933 240.176539 
L 309.004665 239.436849 
L 309.171531 237.263892 
L 309.338397 239.316993 
L 309.505263 239.707785 
L 309.672129 239.036302 
L 309.838995 238.920104 
L 310.005861 240.266021 
L 310.172727 239.919882 
L 310.339593 238.915074 
L 310.506459 240.41645 
L 310.673325 238.726093 
L 310.840191 239.739725 
L 311.007057 239.809617 
L 311.173923 240.307853 
L 311.340789 240.100879 
L 311.507656 240.962248 
L 311.674522 238.72594 
L 311.841388 239.909941 
L 312.008254 238.88661 
L 312.17512 240.655124 
L 312.341986 240.39779 
L 312.508852 239.628815 
L 312.842584 241.215415 
L 313.00945 239.072893 
L 313.176316 240.471308 
L 313.343182 240.476124 
L 313.510048 240.762143 
L 313.676914 240.12776 
L 313.84378 240.324604 
L 314.010646 240.229073 
L 314.177512 239.903382 
L 314.344378 240.147508 
L 314.511244 238.876805 
L 314.67811 240.374889 
L 315.011842 241.460048 
L 315.178708 240.579928 
L 315.345574 241.053659 
L 315.51244 240.207538 
L 315.679306 240.484999 
L 315.846172 240.446524 
L 316.013038 239.670743 
L 316.179904 240.532621 
L 316.34677 239.806192 
L 316.513636 241.263598 
L 316.680502 239.34539 
L 316.847368 240.80882 
L 317.1811 241.473971 
L 317.347967 240.056659 
L 317.514833 240.563881 
L 317.681699 238.83447 
L 317.848565 241.195365 
L 318.015431 238.027676 
L 318.182297 239.179441 
L 318.349163 239.141858 
L 318.516029 240.758879 
L 318.682895 239.215493 
L 318.849761 238.882016 
L 319.016627 239.358649 
L 319.183493 240.518401 
L 319.350359 240.322677 
L 319.517225 239.949536 
L 319.684091 240.503437 
L 319.850957 239.315 
L 320.017823 241.705081 
L 320.184689 239.261054 
L 320.351555 239.958896 
L 320.518421 238.893521 
L 320.685287 240.559956 
L 320.852153 238.770359 
L 321.019019 240.442605 
L 321.185885 239.602119 
L 321.352751 240.873341 
L 321.519617 240.126278 
L 321.686483 240.880967 
L 321.853349 239.67093 
L 322.020215 239.618843 
L 322.187081 239.280074 
L 322.353947 240.408698 
L 322.687679 240.1928 
L 322.854545 241.82494 
L 323.188278 239.813644 
L 323.688876 241.650936 
L 323.855742 237.903424 
L 324.022608 239.831016 
L 324.35634 238.915647 
L 324.523206 240.445757 
L 324.690072 239.233996 
L 324.856938 240.279279 
L 325.023804 239.247848 
L 325.357536 241.252586 
L 325.524402 241.172582 
L 325.691268 239.234918 
L 325.858134 240.406776 
L 326.025 239.616522 
L 326.191866 240.366352 
L 326.358732 239.278619 
L 326.525598 240.618722 
L 326.692464 239.843221 
L 327.026196 240.871383 
L 327.193062 240.755678 
L 327.359928 239.31262 
L 327.526794 240.663999 
L 327.69366 240.72742 
L 327.860526 239.158137 
L 328.027392 238.982072 
L 328.361124 239.820433 
L 328.52799 239.485137 
L 328.694856 240.355128 
L 328.861722 239.82311 
L 329.028589 240.237823 
L 329.195455 238.880539 
L 329.362321 241.075726 
L 329.529187 240.725448 
L 329.696053 241.274923 
L 330.029785 239.367805 
L 330.196651 241.155813 
L 330.530383 237.401026 
L 330.864115 240.690903 
L 331.030981 240.524142 
L 331.197847 238.771923 
L 331.531579 240.548269 
L 331.698445 240.329972 
L 331.865311 240.360725 
L 332.032177 238.438076 
L 332.365909 240.120939 
L 332.532775 241.066603 
L 332.699641 241.044227 
L 332.866507 239.241441 
L 333.033373 241.058666 
L 333.367105 240.390478 
L 333.533971 241.113645 
L 333.700837 240.402018 
L 333.867703 238.41501 
L 334.034569 241.256659 
L 334.201435 240.10586 
L 334.368301 240.394584 
L 334.535167 240.184571 
L 334.8689 242.073308 
L 335.035766 238.618453 
L 335.202632 240.615695 
L 335.369498 240.64946 
L 335.536364 241.011985 
L 335.70323 239.416405 
L 335.870096 239.527976 
L 336.203828 240.368178 
L 336.370694 240.490048 
L 336.53756 239.773944 
L 336.704426 237.589924 
L 336.871292 240.322061 
L 337.038158 240.665286 
L 337.205024 240.69663 
L 337.37189 237.865605 
L 337.538756 240.102389 
L 337.705622 240.139849 
L 337.872488 239.228029 
L 338.039354 240.29763 
L 338.20622 239.281418 
L 338.373086 239.130251 
L 338.539952 241.340529 
L 338.706818 241.324994 
L 338.873684 239.496449 
L 339.04055 240.197107 
L 339.207416 240.297108 
L 339.374282 241.175192 
L 339.541148 239.296534 
L 339.87488 241.103981 
L 340.041746 240.60634 
L 340.208612 240.519676 
L 340.375478 238.804147 
L 340.542344 239.086517 
L 340.876077 241.346373 
L 341.042943 239.729161 
L 341.209809 240.591818 
L 341.376675 240.202769 
L 341.543541 241.289225 
L 341.710407 239.355971 
L 341.877273 240.760427 
L 342.044139 241.045015 
L 342.211005 240.16376 
L 342.377871 239.98937 
L 342.544737 239.445565 
L 342.711603 239.771112 
L 342.878469 239.34379 
L 343.212201 241.771132 
L 343.379067 241.13128 
L 343.545933 239.789755 
L 343.712799 241.578724 
L 343.879665 241.204612 
L 344.046531 241.141299 
L 344.213397 241.517066 
L 344.380263 241.114645 
L 344.713995 239.57604 
L 344.880861 241.213492 
L 345.047727 240.831888 
L 345.214593 241.229038 
L 345.381459 240.681313 
L 345.548325 241.283141 
L 345.715191 240.748722 
L 345.882057 241.304467 
L 346.048923 239.382801 
L 346.215789 239.789673 
L 346.382656 240.567636 
L 346.549522 239.172377 
L 346.716388 239.424739 
L 346.883254 237.787393 
L 347.05012 240.415118 
L 347.383852 238.742342 
L 347.717584 241.239274 
L 348.051316 239.142327 
L 348.385048 240.161162 
L 348.551914 239.221998 
L 348.71878 240.140065 
L 348.885646 240.357942 
L 349.052512 239.789796 
L 349.219378 241.086334 
L 349.55311 240.17848 
L 349.719976 238.478646 
L 349.886842 240.608654 
L 350.053708 240.927988 
L 350.220574 241.545798 
L 350.554306 239.349652 
L 350.721172 241.23583 
L 351.054904 239.592866 
L 351.22177 239.80619 
L 351.388636 239.378567 
L 351.555502 239.65372 
L 351.889234 241.176415 
L 352.0561 239.751846 
L 352.222967 241.661361 
L 352.389833 239.917883 
L 352.556699 239.381957 
L 352.723565 241.423931 
L 352.890431 240.368682 
L 353.057297 240.339487 
L 353.224163 240.019632 
L 353.391029 241.224288 
L 353.557895 239.790354 
L 353.724761 240.104611 
L 353.891627 239.50951 
L 354.058493 241.439982 
L 354.225359 241.978257 
L 354.725957 239.404605 
L 354.892823 240.257772 
L 355.059689 238.017175 
L 355.226555 240.641675 
L 355.393421 241.311976 
L 355.727153 238.770779 
L 355.894019 240.240883 
L 356.394617 241.492581 
L 356.561483 240.504349 
L 356.728349 240.608994 
L 356.895215 241.810511 
L 357.062081 238.897725 
L 357.228947 240.997894 
L 357.395813 240.862613 
L 357.562679 238.72227 
L 357.729545 239.190343 
L 357.896411 241.443337 
L 358.063278 241.215032 
L 358.563876 239.217781 
L 358.730742 240.706825 
L 358.897608 239.953694 
L 359.064474 240.138554 
L 359.23134 240.09872 
L 359.398206 241.293747 
L 359.565072 241.122032 
L 359.898804 238.935261 
L 360.06567 240.525494 
L 360.232536 240.43093 
L 360.566268 241.466742 
L 360.733134 241.452008 
L 360.9 240.667397 
L 361.066866 238.763913 
L 361.233732 239.734241 
L 361.400598 238.886484 
L 361.567464 239.482988 
L 361.73433 240.728371 
L 361.901196 240.978832 
L 362.068062 239.981158 
L 362.234928 241.347559 
L 362.401794 237.921737 
L 362.56866 241.319545 
L 362.735526 241.152389 
L 363.069258 239.636022 
L 363.569856 240.948231 
L 363.736722 240.213219 
L 363.903589 241.413548 
L 364.070455 241.695289 
L 364.237321 239.539466 
L 364.571053 241.632116 
L 364.904785 240.349047 
L 365.071651 240.112577 
L 365.405383 241.521882 
L 365.572249 240.603318 
L 365.739115 240.31687 
L 365.905981 240.352515 
L 366.072847 239.508389 
L 366.239713 239.818009 
L 366.406579 242.116364 
L 366.573445 241.535923 
L 366.740311 239.910992 
L 366.907177 240.739318 
L 367.074043 240.461296 
L 367.240909 240.637404 
L 367.407775 239.551456 
L 367.574641 241.677667 
L 367.741507 239.436715 
L 368.075239 241.476325 
L 368.242105 240.570898 
L 368.408971 240.292992 
L 368.575837 240.294561 
L 368.742703 241.567082 
L 368.909569 240.168958 
L 369.076435 240.798666 
L 369.243301 240.860726 
L 369.410167 240.104894 
L 369.577033 241.000783 
L 369.7439 239.928449 
L 369.910766 240.624072 
L 370.077632 240.840616 
L 370.244498 240.793411 
L 370.57823 241.630707 
L 370.745096 240.15862 
L 370.911962 240.263556 
L 371.078828 241.557368 
L 371.245694 240.52811 
L 371.579426 242.010821 
L 371.913158 239.905686 
L 372.080024 241.169905 
L 372.24689 238.991581 
L 372.413756 239.29886 
L 372.580622 241.523491 
L 372.914354 241.341533 
L 373.08122 239.656681 
L 373.248086 240.529743 
L 373.414952 238.635486 
L 373.581818 241.363429 
L 373.581818 241.363429 
" style="fill:none;stroke:#1f77b4;stroke-linecap:square;stroke-width:1.5;"/>
   </g>
   <g id="patch_3">
    <path d="M 54 252 
L 54 34.56 
" style="fill:none;stroke:#000000;stroke-linecap:square;stroke-linejoin:miter;stroke-width:0.8;"/>
   </g>
   <g id="patch_4">
    <path d="M 388.8 252 
L 388.8 34.56 
" style="fill:none;stroke:#000000;stroke-linecap:square;stroke-linejoin:miter;stroke-width:0.8;"/>
   </g>
   <g id="patch_5">
    <path d="M 54 252 
L 388.8 252 
" style="fill:none;stroke:#000000;stroke-linecap:square;stroke-linejoin:miter;stroke-width:0.8;"/>
   </g>
   <g id="patch_6">
    <path d="M 54 34.56 
L 388.8 34.56 
" style="fill:none;stroke:#000000;stroke-linecap:square;stroke-linejoin:miter;stroke-width:0.8;"/>
   </g>
  </g>
 </g>
 <defs>
  <clipPath id="p36459a4008">
   <rect height="217.44" width="334.8" x="54" y="34.56"/>
  </clipPath>
 </defs>
</svg>
