<?xml version="1.0" encoding="utf-8" standalone="no"?>
<!DOCTYPE svg PUBLIC "-//W3C//DTD SVG 1.1//EN"
  "http://www.w3.org/Graphics/SVG/1.1/DTD/svg11.dtd">
<!-- Created with matplotlib (https://matplotlib.org/) -->
<svg height="288pt" version="1.1" viewBox="0 0 432 288" width="432pt" xmlns="http://www.w3.org/2000/svg" xmlns:xlink="http://www.w3.org/1999/xlink">
 <defs>
  <style type="text/css">
*{stroke-linecap:butt;stroke-linejoin:round;}
  </style>
 </defs>
 <g id="figure_1">
  <g id="patch_1">
   <path d="M 0 288 
L 432 288 
L 432 0 
L 0 0 
z
" style="fill:#ffffff;"/>
  </g>
  <g id="axes_1">
   <g id="patch_2">
    <path d="M 54 252 
L 388.8 252 
L 388.8 34.56 
L 54 34.56 
z
" style="fill:#ffffff;"/>
   </g>
   <g id="matplotlib.axis_1">
    <g id="xtick_1">
     <g id="line2d_1">
      <defs>
       <path d="M 0 0 
L 0 3.5 
" id="mb3dd1566a6" style="stroke:#000000;stroke-width:0.8;"/>
      </defs>
      <g>
       <use style="stroke:#000000;stroke-width:0.8;" x="69.218182" xlink:href="#mb3dd1566a6" y="252"/>
      </g>
     </g>
     <g id="text_1">
      <!-- 0 -->
      <defs>
       <path d="M 31.78125 66.40625 
Q 24.171875 66.40625 20.328125 58.90625 
Q 16.5 51.421875 16.5 36.375 
Q 16.5 21.390625 20.328125 13.890625 
Q 24.171875 6.390625 31.78125 6.390625 
Q 39.453125 6.390625 43.28125 13.890625 
Q 47.125 21.390625 47.125 36.375 
Q 47.125 51.421875 43.28125 58.90625 
Q 39.453125 66.40625 31.78125 66.40625 
z
M 31.78125 74.21875 
Q 44.046875 74.21875 50.515625 64.515625 
Q 56.984375 54.828125 56.984375 36.375 
Q 56.984375 17.96875 50.515625 8.265625 
Q 44.046875 -1.421875 31.78125 -1.421875 
Q 19.53125 -1.421875 13.0625 8.265625 
Q 6.59375 17.96875 6.59375 36.375 
Q 6.59375 54.828125 13.0625 64.515625 
Q 19.53125 74.21875 31.78125 74.21875 
z
" id="DejaVuSans-48"/>
      </defs>
      <g transform="translate(66.036932 266.598437)scale(0.1 -0.1)">
       <use xlink:href="#DejaVuSans-48"/>
      </g>
     </g>
    </g>
    <g id="xtick_2">
     <g id="line2d_2">
      <g>
       <use style="stroke:#000000;stroke-width:0.8;" x="107.647934" xlink:href="#mb3dd1566a6" y="252"/>
      </g>
     </g>
     <g id="text_2">
      <!-- 250 -->
      <defs>
       <path d="M 19.1875 8.296875 
L 53.609375 8.296875 
L 53.609375 0 
L 7.328125 0 
L 7.328125 8.296875 
Q 12.9375 14.109375 22.625 23.890625 
Q 32.328125 33.6875 34.8125 36.53125 
Q 39.546875 41.84375 41.421875 45.53125 
Q 43.3125 49.21875 43.3125 52.78125 
Q 43.3125 58.59375 39.234375 62.25 
Q 35.15625 65.921875 28.609375 65.921875 
Q 23.96875 65.921875 18.8125 64.3125 
Q 13.671875 62.703125 7.8125 59.421875 
L 7.8125 69.390625 
Q 13.765625 71.78125 18.9375 73 
Q 24.125 74.21875 28.421875 74.21875 
Q 39.75 74.21875 46.484375 68.546875 
Q 53.21875 62.890625 53.21875 53.421875 
Q 53.21875 48.921875 51.53125 44.890625 
Q 49.859375 40.875 45.40625 35.40625 
Q 44.1875 33.984375 37.640625 27.21875 
Q 31.109375 20.453125 19.1875 8.296875 
z
" id="DejaVuSans-50"/>
       <path d="M 10.796875 72.90625 
L 49.515625 72.90625 
L 49.515625 64.59375 
L 19.828125 64.59375 
L 19.828125 46.734375 
Q 21.96875 47.46875 24.109375 47.828125 
Q 26.265625 48.1875 28.421875 48.1875 
Q 40.625 48.1875 47.75 41.5 
Q 54.890625 34.8125 54.890625 23.390625 
Q 54.890625 11.625 47.5625 5.09375 
Q 40.234375 -1.421875 26.90625 -1.421875 
Q 22.3125 -1.421875 17.546875 -0.640625 
Q 12.796875 0.140625 7.71875 1.703125 
L 7.71875 11.625 
Q 12.109375 9.234375 16.796875 8.0625 
Q 21.484375 6.890625 26.703125 6.890625 
Q 35.15625 6.890625 40.078125 11.328125 
Q 45.015625 15.765625 45.015625 23.390625 
Q 45.015625 31 40.078125 35.4375 
Q 35.15625 39.890625 26.703125 39.890625 
Q 22.75 39.890625 18.8125 39.015625 
Q 14.890625 38.140625 10.796875 36.28125 
z
" id="DejaVuSans-53"/>
      </defs>
      <g transform="translate(98.104184 266.598437)scale(0.1 -0.1)">
       <use xlink:href="#DejaVuSans-50"/>
       <use x="63.623047" xlink:href="#DejaVuSans-53"/>
       <use x="127.246094" xlink:href="#DejaVuSans-48"/>
      </g>
     </g>
    </g>
    <g id="xtick_3">
     <g id="line2d_3">
      <g>
       <use style="stroke:#000000;stroke-width:0.8;" x="146.077686" xlink:href="#mb3dd1566a6" y="252"/>
      </g>
     </g>
     <g id="text_3">
      <!-- 500 -->
      <g transform="translate(136.533936 266.598437)scale(0.1 -0.1)">
       <use xlink:href="#DejaVuSans-53"/>
       <use x="63.623047" xlink:href="#DejaVuSans-48"/>
       <use x="127.246094" xlink:href="#DejaVuSans-48"/>
      </g>
     </g>
    </g>
    <g id="xtick_4">
     <g id="line2d_4">
      <g>
       <use style="stroke:#000000;stroke-width:0.8;" x="184.507438" xlink:href="#mb3dd1566a6" y="252"/>
      </g>
     </g>
     <g id="text_4">
      <!-- 750 -->
      <defs>
       <path d="M 8.203125 72.90625 
L 55.078125 72.90625 
L 55.078125 68.703125 
L 28.609375 0 
L 18.3125 0 
L 43.21875 64.59375 
L 8.203125 64.59375 
z
" id="DejaVuSans-55"/>
      </defs>
      <g transform="translate(174.963688 266.598437)scale(0.1 -0.1)">
       <use xlink:href="#DejaVuSans-55"/>
       <use x="63.623047" xlink:href="#DejaVuSans-53"/>
       <use x="127.246094" xlink:href="#DejaVuSans-48"/>
      </g>
     </g>
    </g>
    <g id="xtick_5">
     <g id="line2d_5">
      <g>
       <use style="stroke:#000000;stroke-width:0.8;" x="222.93719" xlink:href="#mb3dd1566a6" y="252"/>
      </g>
     </g>
     <g id="text_5">
      <!-- 1000 -->
      <defs>
       <path d="M 12.40625 8.296875 
L 28.515625 8.296875 
L 28.515625 63.921875 
L 10.984375 60.40625 
L 10.984375 69.390625 
L 28.421875 72.90625 
L 38.28125 72.90625 
L 38.28125 8.296875 
L 54.390625 8.296875 
L 54.390625 0 
L 12.40625 0 
z
" id="DejaVuSans-49"/>
      </defs>
      <g transform="translate(210.21219 266.598437)scale(0.1 -0.1)">
       <use xlink:href="#DejaVuSans-49"/>
       <use x="63.623047" xlink:href="#DejaVuSans-48"/>
       <use x="127.246094" xlink:href="#DejaVuSans-48"/>
       <use x="190.869141" xlink:href="#DejaVuSans-48"/>
      </g>
     </g>
    </g>
    <g id="xtick_6">
     <g id="line2d_6">
      <g>
       <use style="stroke:#000000;stroke-width:0.8;" x="261.366942" xlink:href="#mb3dd1566a6" y="252"/>
      </g>
     </g>
     <g id="text_6">
      <!-- 1250 -->
      <g transform="translate(248.641942 266.598437)scale(0.1 -0.1)">
       <use xlink:href="#DejaVuSans-49"/>
       <use x="63.623047" xlink:href="#DejaVuSans-50"/>
       <use x="127.246094" xlink:href="#DejaVuSans-53"/>
       <use x="190.869141" xlink:href="#DejaVuSans-48"/>
      </g>
     </g>
    </g>
    <g id="xtick_7">
     <g id="line2d_7">
      <g>
       <use style="stroke:#000000;stroke-width:0.8;" x="299.796694" xlink:href="#mb3dd1566a6" y="252"/>
      </g>
     </g>
     <g id="text_7">
      <!-- 1500 -->
      <g transform="translate(287.071694 266.598437)scale(0.1 -0.1)">
       <use xlink:href="#DejaVuSans-49"/>
       <use x="63.623047" xlink:href="#DejaVuSans-53"/>
       <use x="127.246094" xlink:href="#DejaVuSans-48"/>
       <use x="190.869141" xlink:href="#DejaVuSans-48"/>
      </g>
     </g>
    </g>
    <g id="xtick_8">
     <g id="line2d_8">
      <g>
       <use style="stroke:#000000;stroke-width:0.8;" x="338.226446" xlink:href="#mb3dd1566a6" y="252"/>
      </g>
     </g>
     <g id="text_8">
      <!-- 1750 -->
      <g transform="translate(325.501446 266.598437)scale(0.1 -0.1)">
       <use xlink:href="#DejaVuSans-49"/>
       <use x="63.623047" xlink:href="#DejaVuSans-55"/>
       <use x="127.246094" xlink:href="#DejaVuSans-53"/>
       <use x="190.869141" xlink:href="#DejaVuSans-48"/>
      </g>
     </g>
    </g>
    <g id="xtick_9">
     <g id="line2d_9">
      <g>
       <use style="stroke:#000000;stroke-width:0.8;" x="376.656198" xlink:href="#mb3dd1566a6" y="252"/>
      </g>
     </g>
     <g id="text_9">
      <!-- 2000 -->
      <g transform="translate(363.931198 266.598437)scale(0.1 -0.1)">
       <use xlink:href="#DejaVuSans-50"/>
       <use x="63.623047" xlink:href="#DejaVuSans-48"/>
       <use x="127.246094" xlink:href="#DejaVuSans-48"/>
       <use x="190.869141" xlink:href="#DejaVuSans-48"/>
      </g>
     </g>
    </g>
   </g>
   <g id="matplotlib.axis_2">
    <g id="ytick_1">
     <g id="line2d_10">
      <defs>
       <path d="M 0 0 
L -3.5 0 
" id="m96faedced3" style="stroke:#000000;stroke-width:0.8;"/>
      </defs>
      <g>
       <use style="stroke:#000000;stroke-width:0.8;" x="54" xlink:href="#m96faedced3" y="243.476466"/>
      </g>
     </g>
     <g id="text_10">
      <!-- 0.0 -->
      <defs>
       <path d="M 10.6875 12.40625 
L 21 12.40625 
L 21 0 
L 10.6875 0 
z
" id="DejaVuSans-46"/>
      </defs>
      <g transform="translate(31.096875 247.275685)scale(0.1 -0.1)">
       <use xlink:href="#DejaVuSans-48"/>
       <use x="63.623047" xlink:href="#DejaVuSans-46"/>
       <use x="95.410156" xlink:href="#DejaVuSans-48"/>
      </g>
     </g>
    </g>
    <g id="ytick_2">
     <g id="line2d_11">
      <g>
       <use style="stroke:#000000;stroke-width:0.8;" x="54" xlink:href="#m96faedced3" y="217.364657"/>
      </g>
     </g>
     <g id="text_11">
      <!-- 2.5 -->
      <g transform="translate(31.096875 221.163876)scale(0.1 -0.1)">
       <use xlink:href="#DejaVuSans-50"/>
       <use x="63.623047" xlink:href="#DejaVuSans-46"/>
       <use x="95.410156" xlink:href="#DejaVuSans-53"/>
      </g>
     </g>
    </g>
    <g id="ytick_3">
     <g id="line2d_12">
      <g>
       <use style="stroke:#000000;stroke-width:0.8;" x="54" xlink:href="#m96faedced3" y="191.252848"/>
      </g>
     </g>
     <g id="text_12">
      <!-- 5.0 -->
      <g transform="translate(31.096875 195.052067)scale(0.1 -0.1)">
       <use xlink:href="#DejaVuSans-53"/>
       <use x="63.623047" xlink:href="#DejaVuSans-46"/>
       <use x="95.410156" xlink:href="#DejaVuSans-48"/>
      </g>
     </g>
    </g>
    <g id="ytick_4">
     <g id="line2d_13">
      <g>
       <use style="stroke:#000000;stroke-width:0.8;" x="54" xlink:href="#m96faedced3" y="165.141038"/>
      </g>
     </g>
     <g id="text_13">
      <!-- 7.5 -->
      <g transform="translate(31.096875 168.940257)scale(0.1 -0.1)">
       <use xlink:href="#DejaVuSans-55"/>
       <use x="63.623047" xlink:href="#DejaVuSans-46"/>
       <use x="95.410156" xlink:href="#DejaVuSans-53"/>
      </g>
     </g>
    </g>
    <g id="ytick_5">
     <g id="line2d_14">
      <g>
       <use style="stroke:#000000;stroke-width:0.8;" x="54" xlink:href="#m96faedced3" y="139.029229"/>
      </g>
     </g>
     <g id="text_14">
      <!-- 10.0 -->
      <g transform="translate(24.734375 142.828448)scale(0.1 -0.1)">
       <use xlink:href="#DejaVuSans-49"/>
       <use x="63.623047" xlink:href="#DejaVuSans-48"/>
       <use x="127.246094" xlink:href="#DejaVuSans-46"/>
       <use x="159.033203" xlink:href="#DejaVuSans-48"/>
      </g>
     </g>
    </g>
    <g id="ytick_6">
     <g id="line2d_15">
      <g>
       <use style="stroke:#000000;stroke-width:0.8;" x="54" xlink:href="#m96faedced3" y="112.91742"/>
      </g>
     </g>
     <g id="text_15">
      <!-- 12.5 -->
      <g transform="translate(24.734375 116.716639)scale(0.1 -0.1)">
       <use xlink:href="#DejaVuSans-49"/>
       <use x="63.623047" xlink:href="#DejaVuSans-50"/>
       <use x="127.246094" xlink:href="#DejaVuSans-46"/>
       <use x="159.033203" xlink:href="#DejaVuSans-53"/>
      </g>
     </g>
    </g>
    <g id="ytick_7">
     <g id="line2d_16">
      <g>
       <use style="stroke:#000000;stroke-width:0.8;" x="54" xlink:href="#m96faedced3" y="86.80561"/>
      </g>
     </g>
     <g id="text_16">
      <!-- 15.0 -->
      <g transform="translate(24.734375 90.604829)scale(0.1 -0.1)">
       <use xlink:href="#DejaVuSans-49"/>
       <use x="63.623047" xlink:href="#DejaVuSans-53"/>
       <use x="127.246094" xlink:href="#DejaVuSans-46"/>
       <use x="159.033203" xlink:href="#DejaVuSans-48"/>
      </g>
     </g>
    </g>
    <g id="ytick_8">
     <g id="line2d_17">
      <g>
       <use style="stroke:#000000;stroke-width:0.8;" x="54" xlink:href="#m96faedced3" y="60.693801"/>
      </g>
     </g>
     <g id="text_17">
      <!-- 17.5 -->
      <g transform="translate(24.734375 64.49302)scale(0.1 -0.1)">
       <use xlink:href="#DejaVuSans-49"/>
       <use x="63.623047" xlink:href="#DejaVuSans-55"/>
       <use x="127.246094" xlink:href="#DejaVuSans-46"/>
       <use x="159.033203" xlink:href="#DejaVuSans-53"/>
      </g>
     </g>
    </g>
    <g id="ytick_9">
     <g id="line2d_18">
      <g>
       <use style="stroke:#000000;stroke-width:0.8;" x="54" xlink:href="#m96faedced3" y="34.581992"/>
      </g>
     </g>
     <g id="text_18">
      <!-- 20.0 -->
      <g transform="translate(24.734375 38.381211)scale(0.1 -0.1)">
       <use xlink:href="#DejaVuSans-50"/>
       <use x="63.623047" xlink:href="#DejaVuSans-48"/>
       <use x="127.246094" xlink:href="#DejaVuSans-46"/>
       <use x="159.033203" xlink:href="#DejaVuSans-48"/>
      </g>
     </g>
    </g>
   </g>
   <g id="line2d_19">
    <path clip-path="url(#pa8f56c57d0)" d="M 69.218182 44.539828 
L 69.371901 44.443636 
L 69.52562 52.829878 
L 69.679339 50.385342 
L 69.833058 61.214157 
L 69.986777 61.881236 
L 70.140496 82.03969 
L 70.294215 67.412145 
L 70.447934 91.542455 
L 70.601653 78.862508 
L 70.755372 100.876169 
L 70.909091 101.41922 
L 71.06281 104.074562 
L 71.370248 141.994554 
L 71.523967 143.935468 
L 71.831405 112.714173 
L 71.985124 120.902283 
L 72.138843 172.729673 
L 72.292562 124.060136 
L 72.6 169.084057 
L 72.907438 153.015533 
L 73.368595 195.577591 
L 73.522314 198.693992 
L 73.676033 198.867376 
L 73.983471 216.217696 
L 74.13719 223.804621 
L 74.290909 223.101068 
L 74.444628 227.446164 
L 74.598347 227.107414 
L 74.752066 233.49335 
L 74.905785 233.610814 
L 75.059504 231.574195 
L 75.520661 234.470285 
L 75.67438 225.55847 
L 75.828099 231.598544 
L 75.981818 228.836268 
L 76.135537 229.093626 
L 76.442975 234.85332 
L 76.750413 231.349242 
L 77.057851 233.333065 
L 77.21157 232.569244 
L 77.365289 234.451227 
L 77.519008 234.436306 
L 77.672727 231.896849 
L 77.980165 235.842947 
L 78.441322 232.312846 
L 78.595041 232.619711 
L 78.74876 230.946759 
L 78.902479 232.023063 
L 79.056198 229.898196 
L 79.363636 232.659875 
L 79.517355 233.05574 
L 79.824793 236.250959 
L 79.978512 232.714285 
L 80.132231 235.932146 
L 80.28595 233.770384 
L 80.439669 233.658704 
L 80.593388 233.358861 
L 80.747107 232.533602 
L 80.900826 230.745713 
L 81.054545 234.123956 
L 81.208264 233.335804 
L 81.361983 234.529001 
L 81.515702 231.096705 
L 81.669421 235.491297 
L 81.97686 229.281411 
L 82.130579 233.151974 
L 82.284298 232.102078 
L 82.591736 236.51368 
L 82.745455 232.718442 
L 82.899174 234.743144 
L 83.052893 235.047806 
L 83.206612 233.975421 
L 83.360331 235.866757 
L 83.51405 230.542604 
L 83.667769 235.015944 
L 83.821488 234.483026 
L 83.975207 234.599282 
L 84.128926 234.88777 
L 84.282645 236.470489 
L 84.590083 231.861318 
L 84.743802 235.376844 
L 85.05124 234.084459 
L 85.204959 235.309534 
L 85.358678 233.338915 
L 85.512397 235.982247 
L 85.819835 235.094027 
L 85.973554 235.518109 
L 86.127273 237.317745 
L 86.434711 232.010415 
L 86.58843 233.480118 
L 86.742149 233.25267 
L 86.895868 231.974334 
L 87.049587 233.301637 
L 87.203306 236.055542 
L 87.357025 234.233848 
L 87.510744 234.150492 
L 87.818182 236.756052 
L 88.12562 235.892534 
L 88.279339 236.484799 
L 88.433058 235.49959 
L 88.586777 232.097815 
L 88.894215 236.028459 
L 89.047934 235.01162 
L 89.201653 235.236331 
L 89.355372 231.92964 
L 89.509091 234.234197 
L 89.66281 233.512731 
L 89.816529 234.354217 
L 89.970248 236.674897 
L 90.123967 235.038307 
L 90.277686 235.073039 
L 90.431405 235.434015 
L 90.738843 232.137169 
L 90.892562 231.568723 
L 91.046281 232.595352 
L 91.2 234.762648 
L 91.353719 233.303279 
L 91.507438 235.107196 
L 91.661157 232.788908 
L 91.814876 234.432388 
L 91.968595 233.318694 
L 92.122314 234.167842 
L 92.276033 234.121764 
L 92.429752 235.731202 
L 92.583471 233.223276 
L 92.73719 235.363091 
L 92.890909 234.83493 
L 93.044628 231.627388 
L 93.198347 232.510425 
L 93.352066 234.400608 
L 93.505785 232.6496 
L 93.813223 236.362947 
L 94.120661 234.874181 
L 94.27438 234.795066 
L 94.428099 235.345875 
L 94.581818 234.175855 
L 94.735537 231.779401 
L 95.196694 236.986346 
L 95.504132 234.337976 
L 95.657851 235.103296 
L 95.81157 236.663712 
L 95.965289 235.613832 
L 96.119008 232.591877 
L 96.272727 233.472776 
L 96.426446 233.448108 
L 96.580165 234.527535 
L 96.733884 233.227017 
L 97.041322 235.600185 
L 97.195041 232.737891 
L 97.34876 235.647883 
L 97.502479 236.017538 
L 97.656198 235.709753 
L 97.809917 235.128975 
L 98.117355 236.251401 
L 98.271074 234.247834 
L 98.424793 236.49815 
L 98.578512 233.859844 
L 98.732231 236.591911 
L 98.88595 236.666096 
L 99.039669 234.913728 
L 99.193388 235.85958 
L 99.500826 233.697173 
L 99.654545 235.737743 
L 99.808264 235.106031 
L 100.115702 235.602477 
L 100.42314 234.079981 
L 100.57686 237.092803 
L 101.038017 232.947359 
L 101.191736 234.379908 
L 101.345455 232.820037 
L 101.652893 235.371478 
L 101.806612 235.189302 
L 101.960331 235.752101 
L 102.11405 234.681185 
L 102.267769 230.421452 
L 102.421488 234.322227 
L 102.575207 234.24571 
L 102.728926 234.612365 
L 102.882645 236.255902 
L 103.036364 234.417429 
L 103.190083 235.051402 
L 103.343802 234.906787 
L 103.497521 232.031089 
L 103.65124 237.19818 
L 103.804959 234.227512 
L 103.958678 235.956119 
L 104.112397 236.096647 
L 104.266116 236.416252 
L 104.419835 234.204164 
L 104.727273 236.500379 
L 104.880992 234.251834 
L 105.034711 234.486392 
L 105.18843 234.122521 
L 105.342149 236.577418 
L 105.495868 235.260619 
L 105.649587 235.050733 
L 105.803306 236.272729 
L 106.110744 234.020874 
L 106.264463 236.05381 
L 106.418182 235.855956 
L 106.571901 233.265189 
L 106.72562 236.851391 
L 106.879339 236.490975 
L 107.186777 234.698269 
L 107.340496 235.237041 
L 107.494215 234.149371 
L 107.647934 234.662657 
L 107.955372 236.391307 
L 108.109091 236.844536 
L 108.26281 234.083117 
L 108.416529 234.137966 
L 108.570248 236.612718 
L 108.723967 234.430228 
L 108.877686 234.368236 
L 109.031405 235.609003 
L 109.185124 234.068463 
L 109.338843 235.982138 
L 109.492562 235.09719 
L 109.8 237.246539 
L 109.953719 233.585576 
L 110.107438 234.319944 
L 110.261157 236.578336 
L 110.414876 233.813764 
L 110.722314 236.434111 
L 110.876033 235.380179 
L 111.029752 233.411243 
L 111.183471 236.074006 
L 111.33719 232.122001 
L 111.490909 236.501506 
L 111.644628 236.809032 
L 111.798347 235.394012 
L 111.952066 235.797233 
L 112.105785 235.771667 
L 112.259504 234.274563 
L 112.413223 236.405746 
L 112.87438 232.563492 
L 113.181818 236.511487 
L 113.335537 235.196138 
L 113.489256 236.50363 
L 113.642975 236.198064 
L 113.796694 234.603299 
L 113.950413 236.196597 
L 114.104132 235.567981 
L 114.257851 234.198707 
L 114.41157 235.24419 
L 114.565289 234.117542 
L 114.719008 236.571549 
L 115.026446 233.739428 
L 115.180165 234.97933 
L 115.333884 234.512159 
L 115.487603 234.925267 
L 115.641322 234.104281 
L 115.795041 236.574279 
L 115.94876 234.157483 
L 116.102479 233.845511 
L 116.256198 235.926647 
L 116.409917 234.931146 
L 116.563636 235.417691 
L 116.717355 235.507182 
L 116.871074 238.528585 
L 117.024793 234.654317 
L 117.178512 234.815374 
L 117.332231 235.794956 
L 117.639669 234.446383 
L 117.793388 234.428678 
L 117.947107 235.259642 
L 118.100826 234.91866 
L 118.254545 236.927422 
L 118.408264 234.531106 
L 118.561983 234.714303 
L 118.715702 233.426541 
L 118.869421 233.4526 
L 119.02314 236.041509 
L 119.17686 234.44175 
L 119.330579 235.77615 
L 119.484298 231.505095 
L 119.638017 235.39693 
L 119.791736 234.937415 
L 120.099174 235.735399 
L 120.252893 233.954669 
L 120.560331 235.945496 
L 120.71405 234.509889 
L 120.867769 234.670311 
L 121.021488 235.955184 
L 121.175207 235.469706 
L 121.328926 235.624306 
L 121.482645 235.613204 
L 121.636364 236.4168 
L 121.790083 233.848029 
L 121.943802 236.705562 
L 122.25124 233.732284 
L 122.558678 237.304628 
L 122.712397 234.861499 
L 122.866116 236.704565 
L 123.019835 235.166846 
L 123.173554 235.290579 
L 123.327273 235.73709 
L 123.480992 235.408925 
L 123.634711 232.90893 
L 123.78843 236.086846 
L 123.942149 236.051778 
L 124.095868 234.810959 
L 124.249587 237.006123 
L 124.403306 234.132115 
L 124.557025 234.815823 
L 124.710744 231.533329 
L 125.018182 234.846298 
L 125.171901 235.16877 
L 125.479339 236.512591 
L 125.786777 233.1405 
L 125.940496 236.640897 
L 126.247934 232.896459 
L 126.401653 233.647466 
L 126.555372 236.025824 
L 126.709091 234.716185 
L 126.86281 235.566688 
L 127.016529 235.774486 
L 127.170248 234.777471 
L 127.323967 235.137918 
L 127.477686 236.477612 
L 127.631405 236.780839 
L 127.785124 233.611907 
L 128.092562 237.257844 
L 128.246281 234.336374 
L 128.4 235.199191 
L 128.553719 234.596093 
L 128.861157 235.968446 
L 129.014876 235.274598 
L 129.168595 233.624005 
L 129.322314 235.569261 
L 129.629752 236.093098 
L 129.783471 237.347107 
L 129.93719 233.415536 
L 130.090909 235.39898 
L 130.244628 235.869532 
L 130.398347 236.723529 
L 130.552066 235.920903 
L 130.705785 232.328331 
L 130.859504 233.268014 
L 131.013223 235.445465 
L 131.166942 233.776728 
L 131.320661 234.485106 
L 131.47438 234.231571 
L 131.628099 236.773035 
L 131.935537 234.459533 
L 132.089256 236.293894 
L 132.242975 235.677921 
L 132.396694 234.055553 
L 132.550413 235.711162 
L 132.704132 234.784465 
L 132.857851 232.463066 
L 133.165289 235.355409 
L 133.319008 235.537351 
L 133.626446 233.999421 
L 134.087603 237.33697 
L 134.241322 236.449396 
L 134.395041 232.326073 
L 134.54876 236.102087 
L 134.702479 236.139727 
L 135.009917 233.966196 
L 135.317355 236.218475 
L 135.624793 236.955933 
L 135.778512 232.959884 
L 135.932231 234.497598 
L 136.08595 234.365311 
L 136.239669 235.486719 
L 136.393388 233.787018 
L 136.547107 233.779248 
L 136.700826 236.724214 
L 136.854545 231.965056 
L 137.008264 234.170155 
L 137.161983 234.303578 
L 137.469421 235.345064 
L 137.62314 234.049001 
L 137.77686 237.00798 
L 137.930579 234.762919 
L 138.084298 234.490454 
L 138.391736 235.883791 
L 138.545455 235.952135 
L 138.699174 234.81899 
L 138.852893 235.256834 
L 139.006612 232.433906 
L 139.160331 237.330913 
L 139.31405 236.869061 
L 139.467769 234.475694 
L 139.621488 235.80087 
L 139.928926 234.587627 
L 140.082645 231.773842 
L 140.236364 236.297179 
L 140.543802 232.856943 
L 140.85124 235.091785 
L 141.004959 233.791708 
L 141.158678 235.44587 
L 141.466116 233.683572 
L 141.619835 235.889884 
L 141.773554 233.075837 
L 142.080992 234.352291 
L 142.38843 237.39757 
L 142.695868 232.65532 
L 142.849587 236.93661 
L 143.003306 236.853133 
L 143.157025 233.094143 
L 143.464463 235.948806 
L 143.618182 235.884507 
L 143.771901 235.458328 
L 144.079339 228.646738 
L 144.233058 236.650222 
L 144.386777 233.715524 
L 144.540496 235.901712 
L 144.694215 234.739527 
L 144.847934 235.365445 
L 145.001653 235.406164 
L 145.155372 233.041731 
L 145.309091 236.083576 
L 145.46281 231.893621 
L 145.616529 235.670704 
L 145.770248 234.606964 
L 145.923967 234.907068 
L 146.077686 235.462917 
L 146.231405 235.429099 
L 146.385124 237.478804 
L 146.538843 233.54786 
L 146.692562 235.363878 
L 147 234.733184 
L 147.153719 235.905139 
L 147.307438 233.589051 
L 147.461157 236.289564 
L 147.614876 236.296813 
L 147.768595 237.654065 
L 147.922314 233.921222 
L 148.076033 235.163639 
L 148.229752 234.962998 
L 148.383471 237.245834 
L 148.53719 236.206558 
L 148.690909 235.949449 
L 148.844628 234.651728 
L 148.998347 236.117824 
L 149.152066 233.849562 
L 149.459504 237.136728 
L 149.766942 232.185057 
L 149.920661 236.590925 
L 150.07438 233.937768 
L 150.228099 236.311891 
L 150.535537 235.144169 
L 150.689256 231.927794 
L 150.842975 234.005317 
L 150.996694 233.176 
L 151.304132 237.156151 
L 151.457851 234.404456 
L 151.61157 234.919319 
L 151.765289 236.443052 
L 151.919008 234.097692 
L 152.072727 236.435118 
L 152.226446 233.156395 
L 152.533884 234.877855 
L 152.687603 235.168563 
L 152.841322 232.251554 
L 152.995041 237.019507 
L 153.14876 237.225662 
L 153.302479 236.699348 
L 153.609917 232.280669 
L 153.763636 236.282573 
L 153.917355 233.21319 
L 154.224793 235.757748 
L 154.378512 234.677803 
L 154.532231 235.415981 
L 154.68595 233.024287 
L 154.839669 233.550661 
L 154.993388 237.102736 
L 155.300826 233.146178 
L 155.454545 236.484857 
L 155.608264 235.88042 
L 155.761983 236.516196 
L 155.915702 234.993466 
L 156.069421 236.124139 
L 156.22314 235.181346 
L 156.37686 235.76335 
L 156.530579 234.622526 
L 156.684298 235.910204 
L 156.838017 233.926861 
L 156.991736 234.977618 
L 157.145455 237.366199 
L 157.299174 233.255528 
L 157.452893 233.825711 
L 157.606612 236.329717 
L 157.760331 234.946431 
L 157.91405 235.682324 
L 158.067769 235.174234 
L 158.221488 237.091867 
L 158.528926 235.588677 
L 158.682645 237.593098 
L 158.836364 234.892686 
L 158.990083 236.100013 
L 159.143802 235.754185 
L 159.297521 236.111147 
L 159.45124 236.03244 
L 159.604959 234.369329 
L 159.758678 236.616103 
L 160.066116 233.067695 
L 160.219835 235.229693 
L 160.373554 235.220158 
L 160.527273 234.265125 
L 160.680992 236.1567 
L 160.834711 234.579362 
L 160.98843 234.39187 
L 161.142149 234.960895 
L 161.295868 237.215708 
L 161.603306 235.874749 
L 161.757025 235.988822 
L 161.910744 235.908042 
L 162.064463 235.232629 
L 162.218182 232.522999 
L 162.371901 235.643391 
L 162.52562 236.059871 
L 162.833058 234.660787 
L 162.986777 234.923945 
L 163.140496 236.182249 
L 163.294215 235.747447 
L 163.447934 232.73744 
L 163.601653 233.845043 
L 163.755372 237.174817 
L 164.06281 236.335307 
L 164.370248 235.278265 
L 164.523967 236.724073 
L 164.677686 236.920067 
L 164.831405 234.727502 
L 164.985124 236.717674 
L 165.292562 235.557763 
L 165.446281 233.635834 
L 165.6 236.565567 
L 165.753719 234.891198 
L 165.907438 236.981514 
L 166.214876 234.947685 
L 166.368595 237.273681 
L 166.522314 234.455416 
L 166.829752 236.230701 
L 166.983471 235.70232 
L 167.290909 235.914383 
L 167.444628 234.566744 
L 167.752066 235.106149 
L 167.905785 236.869439 
L 168.059504 235.039654 
L 168.213223 236.407468 
L 168.366942 236.29267 
L 168.520661 234.126703 
L 168.67438 234.120291 
L 168.828099 234.268835 
L 168.981818 236.188519 
L 169.135537 234.4226 
L 169.289256 235.295243 
L 169.442975 237.254123 
L 169.596694 237.654535 
L 169.750413 236.870398 
L 169.904132 237.26374 
L 170.057851 236.831839 
L 170.21157 237.219439 
L 170.519008 235.50442 
L 170.826446 235.315531 
L 170.980165 237.343633 
L 171.133884 235.628756 
L 171.287603 235.919882 
L 171.441322 235.909607 
L 171.595041 234.04154 
L 171.74876 237.251389 
L 172.056198 235.114229 
L 172.209917 237.415347 
L 172.363636 237.764896 
L 172.517355 235.442265 
L 172.671074 236.792553 
L 172.824793 234.51312 
L 172.978512 235.227052 
L 173.439669 235.630861 
L 173.593388 235.358288 
L 173.747107 236.375442 
L 173.900826 235.770155 
L 174.054545 237.155944 
L 174.208264 234.436138 
L 174.515702 236.725693 
L 174.82314 235.108846 
L 174.97686 236.458264 
L 175.284298 233.298458 
L 175.438017 234.19153 
L 175.591736 236.845527 
L 175.745455 235.352507 
L 175.899174 236.346605 
L 176.052893 235.585117 
L 176.206612 236.230523 
L 176.360331 234.265044 
L 176.51405 237.191295 
L 176.667769 236.907439 
L 176.821488 234.51896 
L 176.975207 236.102198 
L 177.128926 235.833173 
L 177.436364 237.952964 
L 177.743802 234.98404 
L 177.897521 236.656911 
L 178.05124 236.812288 
L 178.204959 237.639239 
L 178.358678 236.891545 
L 178.512397 236.739872 
L 178.666116 237.931572 
L 178.819835 237.102463 
L 178.973554 233.228064 
L 179.127273 234.178939 
L 179.280992 236.846776 
L 179.58843 235.616608 
L 179.742149 235.657183 
L 180.049587 238.307807 
L 180.203306 235.220075 
L 180.357025 235.156037 
L 180.664463 233.906999 
L 180.971901 236.669203 
L 181.12562 234.09525 
L 181.279339 237.279617 
L 181.433058 235.825987 
L 181.586777 237.17762 
L 181.740496 235.375075 
L 181.894215 236.005768 
L 182.047934 235.18358 
L 182.201653 237.882952 
L 182.509091 234.242529 
L 182.66281 235.944895 
L 182.816529 236.332094 
L 182.970248 235.164544 
L 183.277686 235.845041 
L 183.431405 235.645453 
L 183.585124 236.14029 
L 183.738843 238.190106 
L 184.046281 236.465039 
L 184.2 235.885267 
L 184.353719 237.213186 
L 184.507438 235.745098 
L 184.661157 237.745956 
L 184.968595 236.117051 
L 185.122314 237.298403 
L 185.429752 236.103894 
L 185.583471 236.957298 
L 185.73719 237.004845 
L 185.890909 234.175625 
L 186.044628 238.910907 
L 186.352066 236.736338 
L 186.505785 237.408941 
L 186.813223 235.824589 
L 187.120661 237.43509 
L 187.27438 237.68641 
L 187.428099 236.724897 
L 187.581818 237.007724 
L 187.889256 235.932921 
L 188.042975 237.734126 
L 188.350413 235.809302 
L 188.657851 237.131952 
L 188.81157 236.594857 
L 188.965289 237.892556 
L 189.119008 235.638052 
L 189.272727 237.380073 
L 189.426446 235.801852 
L 189.733884 238.669682 
L 190.041322 234.032827 
L 190.195041 236.670537 
L 190.34876 234.943963 
L 190.502479 236.82853 
L 190.656198 236.165409 
L 190.809917 237.049383 
L 190.963636 236.784876 
L 191.117355 237.94245 
L 191.271074 236.331192 
L 191.424793 236.138615 
L 191.578512 237.605635 
L 191.88595 235.039095 
L 192.039669 237.863515 
L 192.193388 234.672106 
L 192.500826 236.298581 
L 192.654545 236.119985 
L 192.808264 237.712184 
L 192.961983 235.949571 
L 193.115702 237.569858 
L 193.269421 237.245849 
L 193.42314 235.137778 
L 193.57686 237.992922 
L 193.730579 236.519926 
L 193.884298 236.118445 
L 194.038017 236.323363 
L 194.191736 238.03207 
L 194.345455 237.880438 
L 194.499174 236.184263 
L 194.806612 238.344941 
L 194.960331 238.065901 
L 195.11405 236.070556 
L 195.267769 238.053288 
L 195.421488 236.688776 
L 195.575207 238.261296 
L 195.728926 237.289933 
L 195.882645 237.095349 
L 196.036364 235.752076 
L 196.190083 237.154062 
L 196.343802 236.059668 
L 196.497521 238.465761 
L 196.65124 237.021445 
L 196.804959 238.426839 
L 196.958678 236.889101 
L 197.419835 236.391337 
L 197.727273 237.543818 
L 197.880992 237.599328 
L 198.034711 237.248633 
L 198.18843 235.596376 
L 198.342149 238.290821 
L 198.495868 238.052667 
L 198.649587 237.229626 
L 198.803306 237.323228 
L 198.957025 236.494794 
L 199.110744 236.851188 
L 199.264463 236.832349 
L 199.418182 237.989646 
L 199.571901 235.807641 
L 199.72562 237.498112 
L 199.879339 236.537104 
L 200.033058 237.432814 
L 200.340496 236.21596 
L 200.494215 237.505013 
L 200.801653 236.881101 
L 200.955372 237.493145 
L 201.109091 236.216123 
L 201.26281 238.761129 
L 201.416529 236.535193 
L 201.570248 236.834633 
L 201.723967 237.688472 
L 201.877686 237.563465 
L 202.031405 236.200907 
L 202.185124 237.278269 
L 202.646281 237.846498 
L 202.953719 235.682003 
L 203.261157 237.997936 
L 203.876033 236.165303 
L 204.029752 238.117167 
L 204.183471 238.335084 
L 204.33719 234.834256 
L 204.490909 238.231203 
L 204.644628 238.193464 
L 204.798347 236.871744 
L 204.952066 238.578114 
L 205.413223 236.795081 
L 205.566942 237.83885 
L 205.720661 237.602158 
L 205.87438 238.314061 
L 206.028099 235.609922 
L 206.335537 238.301026 
L 206.489256 236.605876 
L 206.950413 238.044805 
L 207.104132 237.522437 
L 207.257851 238.517631 
L 207.41157 237.028916 
L 207.565289 237.61193 
L 207.719008 236.530064 
L 207.872727 237.114379 
L 208.026446 237.180172 
L 208.180165 237.774922 
L 208.333884 234.866085 
L 208.487603 238.097069 
L 208.641322 238.815382 
L 208.94876 237.668205 
L 209.102479 237.39669 
L 209.409917 236.37249 
L 209.563636 238.518738 
L 209.717355 238.159729 
L 209.871074 236.535408 
L 210.024793 238.672257 
L 210.178512 239.259034 
L 210.332231 236.971215 
L 210.48595 237.056469 
L 210.639669 237.520401 
L 210.793388 236.63809 
L 210.947107 237.125531 
L 211.100826 238.745796 
L 211.408264 238.07629 
L 211.561983 239.249811 
L 211.715702 236.002886 
L 211.869421 237.411625 
L 212.02314 237.614191 
L 212.17686 237.374501 
L 212.330579 235.799796 
L 212.484298 238.265655 
L 212.638017 235.588553 
L 212.945455 237.8791 
L 213.099174 237.843963 
L 213.252893 236.633213 
L 213.406612 238.863162 
L 213.560331 238.687133 
L 213.71405 237.545306 
L 214.021488 238.708144 
L 214.175207 238.40853 
L 214.482645 238.408188 
L 214.636364 237.91434 
L 214.790083 238.557109 
L 214.943802 236.761158 
L 215.097521 238.548125 
L 215.25124 237.879567 
L 215.712397 239.680057 
L 216.019835 236.506852 
L 216.173554 237.220282 
L 216.327273 239.112688 
L 216.480992 236.525665 
L 216.634711 238.199292 
L 216.942149 237.914634 
L 217.095868 239.322369 
L 217.249587 239.336616 
L 217.403306 237.797055 
L 217.710744 239.387195 
L 217.864463 237.755823 
L 218.018182 238.19885 
L 218.171901 237.54517 
L 218.32562 238.594669 
L 218.479339 237.723867 
L 218.633058 235.875565 
L 218.940496 237.873147 
L 219.094215 237.696765 
L 219.247934 238.643883 
L 219.555372 237.138581 
L 219.709091 238.096739 
L 220.016529 236.880714 
L 220.323967 238.770753 
L 220.477686 239.183435 
L 220.631405 238.880381 
L 220.785124 239.097725 
L 220.938843 238.9036 
L 221.092562 237.322479 
L 221.246281 238.656596 
L 221.4 238.393251 
L 221.553719 238.598342 
L 221.707438 239.210408 
L 221.861157 239.08337 
L 222.014876 240.188376 
L 222.322314 236.98572 
L 222.476033 238.658825 
L 222.629752 239.08681 
L 222.783471 236.621709 
L 223.090909 240.011606 
L 223.244628 238.472373 
L 223.552066 239.539048 
L 223.705785 239.263067 
L 223.859504 238.076221 
L 224.013223 239.298918 
L 224.320661 238.485725 
L 224.47438 238.153417 
L 224.628099 239.382458 
L 224.781818 238.718516 
L 224.935537 236.901213 
L 225.089256 238.664893 
L 225.396694 237.7723 
L 225.550413 238.830474 
L 226.01157 237.641266 
L 226.165289 237.832626 
L 226.319008 238.852054 
L 226.472727 238.262661 
L 226.780165 238.791665 
L 226.933884 236.816253 
L 227.241322 239.392502 
L 227.395041 238.854378 
L 227.702479 238.906759 
L 228.009917 239.665436 
L 228.317355 237.226671 
L 228.471074 238.673201 
L 228.624793 238.640731 
L 228.778512 238.325692 
L 228.932231 238.756386 
L 229.08595 238.077193 
L 229.393388 239.398194 
L 229.700826 238.318049 
L 230.008264 238.83129 
L 230.161983 239.057428 
L 230.315702 238.965074 
L 230.469421 239.206586 
L 230.62314 238.169394 
L 230.77686 239.61979 
L 230.930579 238.907576 
L 231.084298 240.31983 
L 231.238017 238.776004 
L 231.391736 238.50658 
L 231.852893 238.738195 
L 232.006612 239.296826 
L 232.160331 239.153796 
L 232.31405 239.698939 
L 232.467769 238.825817 
L 232.621488 239.646595 
L 232.775207 239.611788 
L 232.928926 239.442862 
L 233.082645 240.061546 
L 233.236364 237.626077 
L 233.390083 238.470994 
L 233.543802 238.109345 
L 233.697521 238.244671 
L 233.85124 240.424705 
L 234.004959 239.914618 
L 234.158678 240.367253 
L 234.466116 239.293205 
L 234.619835 238.646603 
L 234.773554 239.602128 
L 234.927273 238.796476 
L 235.234711 239.820014 
L 235.38843 239.712762 
L 235.542149 237.703856 
L 235.695868 237.991382 
L 235.849587 240.028485 
L 236.003306 240.484438 
L 236.157025 239.146249 
L 236.310744 239.052975 
L 236.464463 239.284686 
L 236.618182 239.144689 
L 236.771901 240.009669 
L 236.92562 239.566565 
L 237.079339 238.433856 
L 237.233058 239.379279 
L 237.386777 238.884701 
L 237.694215 240.01985 
L 237.847934 238.634233 
L 238.001653 239.525086 
L 238.155372 238.060566 
L 238.309091 240.024883 
L 238.46281 239.209874 
L 238.616529 237.089764 
L 238.923967 239.37806 
L 239.077686 238.605746 
L 239.231405 239.633605 
L 239.385124 239.118552 
L 239.538843 237.83294 
L 239.692562 238.296989 
L 239.846281 238.162768 
L 240.153719 240.216798 
L 240.461157 237.516525 
L 240.614876 238.849345 
L 240.768595 237.796587 
L 240.922314 239.438464 
L 241.076033 239.522936 
L 241.229752 240.245029 
L 241.383471 238.463809 
L 241.53719 239.001863 
L 241.690909 238.44703 
L 241.844628 239.82607 
L 241.998347 239.371658 
L 242.305785 239.606376 
L 242.459504 238.494531 
L 242.766942 239.948209 
L 242.920661 239.962861 
L 243.07438 238.508115 
L 243.228099 239.646919 
L 243.381818 238.622438 
L 243.535537 239.092229 
L 243.689256 238.317858 
L 243.842975 238.614778 
L 244.304132 240.481643 
L 244.457851 239.355749 
L 244.61157 240.29051 
L 244.765289 239.150588 
L 244.919008 239.504627 
L 245.072727 238.947041 
L 245.226446 240.057497 
L 245.380165 239.363565 
L 245.533884 239.972333 
L 245.687603 238.631335 
L 245.841322 239.101629 
L 245.995041 239.062998 
L 246.14876 239.397229 
L 246.302479 240.010154 
L 246.456198 240.050757 
L 246.609917 239.558507 
L 246.763636 240.02061 
L 246.917355 240.922609 
L 247.071074 240.565373 
L 247.378512 239.088556 
L 247.68595 240.432922 
L 247.839669 239.861463 
L 247.993388 237.954798 
L 248.147107 239.757711 
L 248.608264 239.454711 
L 248.761983 240.331544 
L 248.915702 239.333491 
L 249.069421 239.704235 
L 249.22314 239.584151 
L 249.37686 240.078872 
L 249.530579 239.733498 
L 249.684298 240.571141 
L 250.145455 238.734199 
L 250.299174 239.692874 
L 250.452893 238.977809 
L 250.606612 238.887416 
L 250.760331 239.851523 
L 250.91405 239.541547 
L 251.067769 240.931513 
L 251.375207 238.494542 
L 251.528926 238.88392 
L 251.682645 239.749835 
L 251.836364 239.690335 
L 251.990083 240.115852 
L 252.143802 240.149486 
L 252.297521 239.140942 
L 252.45124 240.067925 
L 252.604959 239.778039 
L 252.758678 239.111099 
L 252.912397 239.637314 
L 253.066116 240.565343 
L 253.373554 239.214043 
L 253.834711 240.676093 
L 254.142149 239.819134 
L 254.295868 240.11359 
L 254.449587 240.003579 
L 254.603306 240.106785 
L 254.757025 239.83812 
L 254.910744 239.047066 
L 255.064463 240.138637 
L 255.218182 239.876374 
L 255.371901 240.84745 
L 255.52562 239.752233 
L 255.679339 239.969044 
L 255.833058 240.660945 
L 255.986777 239.378706 
L 256.140496 240.555369 
L 256.447934 240.030624 
L 256.601653 239.219014 
L 256.755372 240.519257 
L 256.909091 239.761235 
L 257.06281 240.383906 
L 257.370248 239.381717 
L 257.523967 239.411655 
L 257.831405 240.474412 
L 258.138843 239.204869 
L 258.292562 240.998221 
L 258.446281 241.474978 
L 258.907438 239.565501 
L 259.061157 240.063759 
L 259.214876 240.070045 
L 259.368595 240.754441 
L 259.829752 239.06416 
L 259.983471 240.543316 
L 260.13719 240.126023 
L 260.290909 240.035495 
L 260.444628 240.473787 
L 260.598347 239.710984 
L 260.905785 240.81353 
L 261.059504 239.872213 
L 261.366942 241.075626 
L 261.520661 240.229779 
L 261.67438 240.878205 
L 261.828099 240.794967 
L 261.981818 238.828224 
L 262.135537 241.097961 
L 262.289256 240.225763 
L 262.442975 240.772254 
L 262.596694 239.835418 
L 262.904132 240.273868 
L 263.057851 239.215849 
L 263.365289 241.017456 
L 263.519008 240.314951 
L 263.672727 238.995972 
L 263.826446 240.988781 
L 263.980165 241.005422 
L 264.287603 240.11817 
L 264.441322 241.126644 
L 264.595041 240.681633 
L 264.74876 240.826537 
L 264.902479 240.034568 
L 265.056198 241.078587 
L 265.517355 239.39978 
L 265.671074 239.967243 
L 265.824793 239.861228 
L 265.978512 241.003806 
L 266.28595 239.665781 
L 266.439669 240.450056 
L 266.593388 239.873324 
L 266.747107 240.296962 
L 266.900826 241.215348 
L 267.361983 239.708203 
L 267.515702 239.794802 
L 267.669421 240.410216 
L 267.82314 240.523624 
L 267.97686 241.014713 
L 268.130579 239.818383 
L 268.438017 241.010419 
L 268.591736 240.322642 
L 268.745455 240.645844 
L 268.899174 240.556904 
L 269.052893 239.67467 
L 269.206612 240.088355 
L 269.360331 240.918143 
L 269.51405 239.086592 
L 269.667769 240.933973 
L 269.821488 240.337002 
L 269.975207 240.867534 
L 270.282645 240.648827 
L 270.436364 240.401255 
L 270.590083 240.73583 
L 270.743802 239.770792 
L 270.897521 241.191113 
L 271.358678 239.436112 
L 271.512397 241.055635 
L 271.666116 239.58319 
L 271.973554 240.827154 
L 272.280992 239.919956 
L 272.434711 240.091202 
L 272.58843 241.703889 
L 272.742149 240.896692 
L 272.895868 241.016726 
L 273.049587 240.855743 
L 273.203306 240.1114 
L 273.357025 240.197361 
L 273.664463 241.352874 
L 273.818182 240.476763 
L 273.971901 240.573024 
L 274.12562 240.808098 
L 274.433058 240.853078 
L 274.586777 240.384819 
L 274.740496 240.490162 
L 274.894215 240.202515 
L 275.047934 240.481957 
L 275.201653 239.580243 
L 275.355372 240.270833 
L 275.509091 239.915233 
L 275.66281 240.80198 
L 275.816529 240.195726 
L 275.970248 241.372011 
L 276.123967 241.346915 
L 276.277686 240.389376 
L 276.431405 240.812616 
L 276.585124 239.867121 
L 276.738843 240.252907 
L 277.046281 241.68874 
L 277.2 240.003389 
L 277.353719 241.460959 
L 277.661157 239.987055 
L 277.814876 240.288205 
L 277.968595 240.047348 
L 278.276033 241.040628 
L 278.429752 240.935593 
L 278.73719 240.509332 
L 278.890909 240.608243 
L 279.044628 239.848911 
L 279.198347 240.712494 
L 279.505785 239.329123 
L 279.659504 240.683178 
L 279.966942 239.137073 
L 280.120661 241.113811 
L 280.27438 240.541677 
L 280.428099 239.493511 
L 280.581818 240.3959 
L 280.735537 239.700718 
L 280.889256 241.006534 
L 281.042975 240.758187 
L 281.196694 240.972941 
L 281.350413 240.866687 
L 281.504132 240.108803 
L 281.657851 240.902036 
L 281.965289 240.851551 
L 282.119008 239.41253 
L 282.272727 240.479678 
L 282.426446 240.688673 
L 282.580165 241.138123 
L 282.733884 239.059912 
L 282.887603 240.224674 
L 283.041322 240.284072 
L 283.195041 240.125587 
L 283.502479 240.381251 
L 283.656198 238.932879 
L 283.963636 240.734464 
L 284.117355 240.128888 
L 284.271074 241.623572 
L 284.424793 240.803162 
L 284.578512 240.778111 
L 284.732231 240.190866 
L 284.88595 240.879964 
L 285.039669 240.488159 
L 285.347107 240.422251 
L 285.500826 239.77307 
L 285.654545 239.626037 
L 285.961983 240.709126 
L 286.115702 239.294257 
L 286.269421 240.325362 
L 286.42314 239.363434 
L 286.57686 240.05947 
L 286.730579 239.475658 
L 286.884298 240.881012 
L 287.038017 240.30427 
L 287.191736 239.217392 
L 287.345455 240.465729 
L 287.499174 240.139343 
L 287.652893 240.502338 
L 287.806612 239.984601 
L 287.960331 240.517136 
L 288.11405 239.552386 
L 288.267769 240.151082 
L 288.421488 239.882694 
L 288.575207 239.304345 
L 288.728926 240.416554 
L 288.882645 240.690524 
L 289.036364 240.531953 
L 289.190083 239.603888 
L 289.343802 240.938726 
L 289.497521 240.707885 
L 289.65124 239.641691 
L 289.804959 239.944824 
L 290.112397 241.01422 
L 290.266116 239.87973 
L 290.419835 239.826897 
L 290.727273 241.466736 
L 290.880992 239.303637 
L 291.18843 240.865761 
L 291.495868 240.617586 
L 291.649587 239.254832 
L 291.803306 240.839959 
L 292.110744 238.967981 
L 292.264463 240.766694 
L 292.418182 240.12779 
L 292.571901 240.06118 
L 292.879339 240.191599 
L 293.033058 240.727244 
L 293.186777 239.026948 
L 293.340496 240.680977 
L 293.494215 239.417847 
L 293.801653 240.480304 
L 293.955372 240.631795 
L 294.109091 239.783129 
L 294.26281 240.183667 
L 294.416529 239.659439 
L 294.570248 240.322702 
L 294.877686 240.704644 
L 295.031405 239.571897 
L 295.185124 239.798843 
L 295.338843 239.308721 
L 295.492562 239.20814 
L 295.646281 240.902982 
L 295.953719 239.984876 
L 296.107438 240.928335 
L 296.261157 240.547134 
L 296.414876 241.846731 
L 296.722314 240.472793 
L 296.876033 240.484788 
L 297.029752 240.014879 
L 297.183471 240.820663 
L 297.33719 240.520461 
L 297.490909 239.505327 
L 297.644628 239.550214 
L 297.798347 240.887267 
L 297.952066 240.62534 
L 298.105785 239.958729 
L 298.720661 241.100594 
L 298.87438 238.143641 
L 299.181818 241.274455 
L 299.489256 238.535752 
L 299.796694 240.436232 
L 299.950413 239.896206 
L 300.104132 239.9032 
L 300.257851 241.018411 
L 300.41157 240.194724 
L 300.565289 240.751279 
L 300.719008 240.089996 
L 300.872727 240.537431 
L 301.180165 238.755623 
L 301.333884 240.074657 
L 301.641322 240.624837 
L 301.94876 239.4488 
L 302.102479 239.744654 
L 302.256198 239.193726 
L 302.563636 240.431586 
L 302.871074 240.346385 
L 303.024793 240.352209 
L 303.332231 239.624533 
L 303.48595 240.465364 
L 303.639669 239.871278 
L 303.793388 240.019848 
L 303.947107 239.537762 
L 304.100826 240.442427 
L 304.254545 239.67924 
L 304.408264 239.905404 
L 304.561983 238.849738 
L 304.715702 240.521396 
L 304.869421 238.033121 
L 305.17686 240.157707 
L 305.638017 239.674725 
L 305.791736 240.570751 
L 306.252893 239.668338 
L 306.406612 240.916312 
L 306.560331 239.481711 
L 306.867769 240.844275 
L 307.175207 240.212498 
L 307.328926 240.594595 
L 307.482645 240.633478 
L 307.636364 240.855594 
L 307.790083 239.456799 
L 307.943802 239.950861 
L 308.097521 239.834295 
L 308.404959 240.732471 
L 308.558678 240.57743 
L 308.712397 237.656134 
L 309.173554 240.28663 
L 309.327273 238.514149 
L 309.480992 240.73078 
L 309.634711 240.342287 
L 309.78843 240.735665 
L 309.942149 238.629037 
L 310.095868 240.357598 
L 310.249587 239.500096 
L 310.403306 240.891809 
L 310.710744 239.69259 
L 310.864463 240.167163 
L 311.018182 241.062246 
L 311.171901 240.123505 
L 311.32562 240.006969 
L 311.479339 241.062436 
L 311.786777 239.256634 
L 311.940496 240.468601 
L 312.094215 239.977434 
L 312.247934 240.644414 
L 312.401653 240.31314 
L 312.555372 239.678926 
L 312.709091 241.316146 
L 312.86281 239.674085 
L 313.016529 239.866009 
L 313.170248 240.961691 
L 313.323967 240.803189 
L 313.477686 240.421569 
L 313.631405 240.887901 
L 313.785124 240.074366 
L 313.938843 240.432883 
L 314.092562 240.393438 
L 314.246281 239.371713 
L 314.4 240.6219 
L 314.553719 240.243874 
L 314.707438 240.335424 
L 314.861157 240.045365 
L 315.014876 240.376686 
L 315.168595 239.429247 
L 315.322314 240.11344 
L 315.476033 240.112322 
L 315.783471 241.462421 
L 315.93719 239.937652 
L 316.090909 240.840859 
L 316.398347 240.383382 
L 316.552066 240.727508 
L 316.705785 240.352749 
L 317.013223 240.514013 
L 317.166942 241.849592 
L 317.320661 240.338617 
L 317.47438 240.566116 
L 317.628099 240.370564 
L 317.781818 241.277195 
L 318.089256 239.983596 
L 318.242975 240.742399 
L 318.396694 240.568838 
L 318.550413 240.666719 
L 318.704132 240.380955 
L 318.857851 241.301596 
L 319.01157 239.14571 
L 319.165289 240.929819 
L 319.626446 238.664244 
L 319.780165 239.204996 
L 319.933884 240.85135 
L 320.087603 240.625206 
L 320.241322 240.899064 
L 320.395041 240.374555 
L 320.54876 240.750531 
L 320.702479 240.645617 
L 320.856198 240.865546 
L 321.009917 239.301378 
L 321.163636 239.104314 
L 321.317355 240.208519 
L 321.471074 240.190297 
L 321.624793 240.347561 
L 321.778512 240.072422 
L 322.08595 240.339975 
L 322.393388 239.488888 
L 322.547107 239.343531 
L 322.854545 241.185685 
L 323.008264 239.909156 
L 323.161983 240.532394 
L 323.315702 239.836183 
L 323.469421 240.682423 
L 323.62314 239.871664 
L 323.77686 240.476601 
L 323.930579 240.482494 
L 324.084298 240.630679 
L 324.238017 240.965417 
L 324.391736 240.554264 
L 324.545455 240.754361 
L 324.699174 239.611045 
L 324.852893 241.00412 
L 325.006612 240.227008 
L 325.160331 240.643638 
L 325.31405 240.343008 
L 325.467769 240.605995 
L 325.621488 240.556118 
L 325.928926 241.232981 
L 326.082645 239.718406 
L 326.543802 241.010308 
L 326.697521 239.710789 
L 326.85124 241.293271 
L 327.004959 240.244412 
L 327.312397 240.727402 
L 327.466116 239.990204 
L 327.619835 240.838835 
L 327.773554 240.830274 
L 327.927273 239.144085 
L 328.080992 241.143168 
L 328.234711 240.202041 
L 328.38843 240.120096 
L 328.542149 240.283157 
L 328.695868 239.737269 
L 328.849587 238.53299 
L 329.003306 240.335165 
L 329.157025 239.977312 
L 329.310744 239.266013 
L 329.464463 240.762305 
L 329.618182 240.499251 
L 329.771901 239.076771 
L 329.92562 240.334477 
L 330.079339 240.327816 
L 330.233058 240.72169 
L 330.386777 240.291974 
L 330.540496 238.558041 
L 330.847934 240.475762 
L 331.001653 240.303609 
L 331.155372 240.740991 
L 331.309091 240.624223 
L 331.46281 239.369166 
L 331.770248 240.111408 
L 331.923967 239.91463 
L 332.077686 239.525881 
L 332.538843 240.15105 
L 332.692562 240.59065 
L 332.846281 239.724556 
L 333.153719 240.363755 
L 333.307438 240.182909 
L 333.461157 239.403347 
L 333.614876 241.211854 
L 333.922314 240.786104 
L 334.076033 239.748177 
L 334.229752 240.608742 
L 334.383471 238.847621 
L 334.690909 241.14012 
L 334.844628 239.354427 
L 334.998347 239.108815 
L 335.152066 240.210478 
L 335.305785 240.326092 
L 335.459504 239.7039 
L 335.766942 241.241337 
L 336.07438 239.388963 
L 336.228099 239.909354 
L 336.381818 240.971222 
L 336.842975 239.441453 
L 336.996694 239.313482 
L 337.150413 239.850189 
L 337.304132 239.290053 
L 337.457851 239.483532 
L 337.61157 238.981314 
L 337.765289 239.671903 
L 337.919008 239.83324 
L 338.072727 239.709746 
L 338.226446 240.199333 
L 338.380165 239.055575 
L 338.533884 240.652518 
L 338.687603 240.823264 
L 338.841322 239.95241 
L 338.995041 240.12559 
L 339.14876 239.333809 
L 339.302479 240.529861 
L 339.456198 240.34803 
L 339.609917 238.637077 
L 339.917355 240.557818 
L 340.071074 240.512186 
L 340.224793 240.350431 
L 340.378512 238.785807 
L 340.532231 241.218935 
L 340.68595 239.761509 
L 340.839669 239.658124 
L 341.147107 240.754866 
L 341.300826 239.334163 
L 341.454545 240.613497 
L 341.608264 240.590274 
L 341.761983 241.153604 
L 342.069421 240.220279 
L 342.22314 240.358381 
L 342.37686 241.298756 
L 342.530579 239.633682 
L 342.684298 241.222355 
L 342.991736 239.663025 
L 343.145455 239.379335 
L 343.299174 239.693979 
L 343.452893 239.17447 
L 343.606612 240.806188 
L 343.760331 238.363328 
L 344.067769 240.470623 
L 344.221488 240.999504 
L 344.375207 240.485579 
L 344.528926 239.469071 
L 344.682645 241.186234 
L 344.836364 240.400661 
L 344.990083 240.980461 
L 345.143802 240.877974 
L 345.297521 240.551087 
L 345.45124 239.829448 
L 345.604959 239.699667 
L 345.758678 240.747244 
L 345.912397 240.181751 
L 346.066116 240.368629 
L 346.373554 241.380476 
L 346.527273 240.105999 
L 346.680992 241.187854 
L 346.834711 241.193549 
L 347.142149 240.707389 
L 347.295868 240.212282 
L 347.449587 238.942809 
L 347.603306 241.7291 
L 347.757025 240.590419 
L 348.064463 240.91798 
L 348.218182 239.484382 
L 348.52562 241.324908 
L 348.833058 238.595793 
L 349.140496 241.057184 
L 349.294215 240.096511 
L 349.447934 240.842819 
L 349.601653 240.828833 
L 349.755372 241.385632 
L 349.909091 240.945103 
L 350.06281 240.939125 
L 350.216529 239.550079 
L 350.370248 239.352585 
L 350.677686 241.009054 
L 350.831405 240.77348 
L 350.985124 240.039993 
L 351.138843 240.966036 
L 351.6 239.83876 
L 351.753719 240.491465 
L 351.907438 241.775697 
L 352.061157 240.286198 
L 352.214876 241.690156 
L 352.368595 240.708619 
L 352.522314 238.963229 
L 352.676033 241.510962 
L 352.983471 240.170959 
L 353.13719 237.972524 
L 353.290909 240.900471 
L 353.444628 240.818317 
L 353.598347 241.00349 
L 353.752066 240.993149 
L 353.905785 241.275077 
L 354.059504 240.715431 
L 354.213223 239.496803 
L 354.520661 241.209343 
L 354.67438 239.212076 
L 354.828099 240.580956 
L 354.981818 240.497657 
L 355.135537 241.278239 
L 355.289256 239.583933 
L 355.442975 240.658709 
L 355.750413 239.236811 
L 356.057851 240.853609 
L 356.21157 240.689671 
L 356.365289 240.846956 
L 356.519008 239.926947 
L 356.672727 240.911326 
L 356.826446 239.530807 
L 356.980165 240.945104 
L 357.133884 240.829615 
L 357.287603 240.479269 
L 357.441322 241.892968 
L 357.595041 237.721663 
L 357.74876 241.180822 
L 357.902479 240.164601 
L 358.209917 241.150338 
L 358.363636 240.737922 
L 358.517355 241.290826 
L 358.671074 240.588685 
L 358.824793 241.288883 
L 359.132231 240.408399 
L 359.593388 241.006612 
L 359.747107 241.030934 
L 359.900826 241.261877 
L 360.208264 240.246349 
L 360.361983 241.215029 
L 360.515702 241.287288 
L 360.669421 239.049825 
L 360.82314 239.732254 
L 360.97686 241.631498 
L 361.130579 241.125146 
L 361.284298 241.04241 
L 361.438017 239.244782 
L 361.745455 241.041204 
L 361.899174 240.226243 
L 362.052893 241.057997 
L 362.206612 240.752302 
L 362.360331 239.708383 
L 362.51405 239.71948 
L 362.667769 241.258455 
L 362.821488 240.136544 
L 362.975207 240.992566 
L 363.128926 240.825277 
L 363.282645 240.037349 
L 363.436364 240.635596 
L 363.590083 240.440425 
L 363.743802 240.977992 
L 364.05124 240.239224 
L 364.204959 240.87004 
L 364.358678 240.041661 
L 364.512397 240.828612 
L 364.666116 240.548081 
L 364.819835 240.611915 
L 364.973554 239.933527 
L 365.127273 241.015201 
L 365.434711 238.721713 
L 365.742149 241.318754 
L 366.203306 239.362395 
L 366.357025 240.470493 
L 366.510744 239.545003 
L 366.664463 241.231224 
L 366.818182 240.272275 
L 366.971901 238.526973 
L 367.12562 241.084467 
L 367.279339 240.799571 
L 367.433058 241.028534 
L 367.586777 239.458442 
L 368.047934 241.786577 
L 368.201653 240.503869 
L 368.355372 240.352731 
L 368.509091 239.979098 
L 368.66281 241.439666 
L 368.816529 240.280025 
L 369.123967 240.586511 
L 369.431405 241.300683 
L 369.585124 240.332068 
L 369.892562 240.708852 
L 370.046281 240.371516 
L 370.2 240.423171 
L 370.507438 240.808558 
L 370.661157 241.720295 
L 370.814876 240.637157 
L 371.122314 241.684892 
L 371.429752 239.267267 
L 371.583471 242.116364 
L 371.890909 240.434127 
L 372.044628 241.732046 
L 372.198347 239.455054 
L 372.352066 241.025346 
L 372.659504 240.042823 
L 372.813223 240.895272 
L 373.120661 240.98818 
L 373.27438 240.203404 
L 373.428099 241.086232 
L 373.581818 240.507209 
L 373.581818 240.507209 
" style="fill:none;stroke:#1f77b4;stroke-linecap:square;stroke-width:1.5;"/>
   </g>
   <g id="patch_3">
    <path d="M 54 252 
L 54 34.56 
" style="fill:none;stroke:#000000;stroke-linecap:square;stroke-linejoin:miter;stroke-width:0.8;"/>
   </g>
   <g id="patch_4">
    <path d="M 388.8 252 
L 388.8 34.56 
" style="fill:none;stroke:#000000;stroke-linecap:square;stroke-linejoin:miter;stroke-width:0.8;"/>
   </g>
   <g id="patch_5">
    <path d="M 54 252 
L 388.8 252 
" style="fill:none;stroke:#000000;stroke-linecap:square;stroke-linejoin:miter;stroke-width:0.8;"/>
   </g>
   <g id="patch_6">
    <path d="M 54 34.56 
L 388.8 34.56 
" style="fill:none;stroke:#000000;stroke-linecap:square;stroke-linejoin:miter;stroke-width:0.8;"/>
   </g>
  </g>
 </g>
 <defs>
  <clipPath id="pa8f56c57d0">
   <rect height="217.44" width="334.8" x="54" y="34.56"/>
  </clipPath>
 </defs>
</svg>
