<?xml version="1.0" encoding="utf-8" standalone="no"?>
<!DOCTYPE svg PUBLIC "-//W3C//DTD SVG 1.1//EN"
  "http://www.w3.org/Graphics/SVG/1.1/DTD/svg11.dtd">
<!-- Created with matplotlib (https://matplotlib.org/) -->
<svg height="288pt" version="1.1" viewBox="0 0 432 288" width="432pt" xmlns="http://www.w3.org/2000/svg" xmlns:xlink="http://www.w3.org/1999/xlink">
 <defs>
  <style type="text/css">
*{stroke-linecap:butt;stroke-linejoin:round;}
  </style>
 </defs>
 <g id="figure_1">
  <g id="patch_1">
   <path d="M 0 288 
L 432 288 
L 432 0 
L 0 0 
z
" style="fill:#ffffff;"/>
  </g>
  <g id="axes_1">
   <g id="patch_2">
    <path d="M 54 252 
L 388.8 252 
L 388.8 34.56 
L 54 34.56 
z
" style="fill:#ffffff;"/>
   </g>
   <g id="matplotlib.axis_1">
    <g id="xtick_1">
     <g id="line2d_1">
      <defs>
       <path d="M 0 0 
L 0 3.5 
" id="ma3b23dfcdf" style="stroke:#000000;stroke-width:0.8;"/>
      </defs>
      <g>
       <use style="stroke:#000000;stroke-width:0.8;" x="69.218182" xlink:href="#ma3b23dfcdf" y="252"/>
      </g>
     </g>
     <g id="text_1">
      <!-- 0 -->
      <defs>
       <path d="M 31.78125 66.40625 
Q 24.171875 66.40625 20.328125 58.90625 
Q 16.5 51.421875 16.5 36.375 
Q 16.5 21.390625 20.328125 13.890625 
Q 24.171875 6.390625 31.78125 6.390625 
Q 39.453125 6.390625 43.28125 13.890625 
Q 47.125 21.390625 47.125 36.375 
Q 47.125 51.421875 43.28125 58.90625 
Q 39.453125 66.40625 31.78125 66.40625 
z
M 31.78125 74.21875 
Q 44.046875 74.21875 50.515625 64.515625 
Q 56.984375 54.828125 56.984375 36.375 
Q 56.984375 17.96875 50.515625 8.265625 
Q 44.046875 -1.421875 31.78125 -1.421875 
Q 19.53125 -1.421875 13.0625 8.265625 
Q 6.59375 17.96875 6.59375 36.375 
Q 6.59375 54.828125 13.0625 64.515625 
Q 19.53125 74.21875 31.78125 74.21875 
z
" id="DejaVuSans-48"/>
      </defs>
      <g transform="translate(66.036932 266.598437)scale(0.1 -0.1)">
       <use xlink:href="#DejaVuSans-48"/>
      </g>
     </g>
    </g>
    <g id="xtick_2">
     <g id="line2d_2">
      <g>
       <use style="stroke:#000000;stroke-width:0.8;" x="108.020277" xlink:href="#ma3b23dfcdf" y="252"/>
      </g>
     </g>
     <g id="text_2">
      <!-- 250 -->
      <defs>
       <path d="M 19.1875 8.296875 
L 53.609375 8.296875 
L 53.609375 0 
L 7.328125 0 
L 7.328125 8.296875 
Q 12.9375 14.109375 22.625 23.890625 
Q 32.328125 33.6875 34.8125 36.53125 
Q 39.546875 41.84375 41.421875 45.53125 
Q 43.3125 49.21875 43.3125 52.78125 
Q 43.3125 58.59375 39.234375 62.25 
Q 35.15625 65.921875 28.609375 65.921875 
Q 23.96875 65.921875 18.8125 64.3125 
Q 13.671875 62.703125 7.8125 59.421875 
L 7.8125 69.390625 
Q 13.765625 71.78125 18.9375 73 
Q 24.125 74.21875 28.421875 74.21875 
Q 39.75 74.21875 46.484375 68.546875 
Q 53.21875 62.890625 53.21875 53.421875 
Q 53.21875 48.921875 51.53125 44.890625 
Q 49.859375 40.875 45.40625 35.40625 
Q 44.1875 33.984375 37.640625 27.21875 
Q 31.109375 20.453125 19.1875 8.296875 
z
" id="DejaVuSans-50"/>
       <path d="M 10.796875 72.90625 
L 49.515625 72.90625 
L 49.515625 64.59375 
L 19.828125 64.59375 
L 19.828125 46.734375 
Q 21.96875 47.46875 24.109375 47.828125 
Q 26.265625 48.1875 28.421875 48.1875 
Q 40.625 48.1875 47.75 41.5 
Q 54.890625 34.8125 54.890625 23.390625 
Q 54.890625 11.625 47.5625 5.09375 
Q 40.234375 -1.421875 26.90625 -1.421875 
Q 22.3125 -1.421875 17.546875 -0.640625 
Q 12.796875 0.140625 7.71875 1.703125 
L 7.71875 11.625 
Q 12.109375 9.234375 16.796875 8.0625 
Q 21.484375 6.890625 26.703125 6.890625 
Q 35.15625 6.890625 40.078125 11.328125 
Q 45.015625 15.765625 45.015625 23.390625 
Q 45.015625 31 40.078125 35.4375 
Q 35.15625 39.890625 26.703125 39.890625 
Q 22.75 39.890625 18.8125 39.015625 
Q 14.890625 38.140625 10.796875 36.28125 
z
" id="DejaVuSans-53"/>
      </defs>
      <g transform="translate(98.476527 266.598437)scale(0.1 -0.1)">
       <use xlink:href="#DejaVuSans-50"/>
       <use x="63.623047" xlink:href="#DejaVuSans-53"/>
       <use x="127.246094" xlink:href="#DejaVuSans-48"/>
      </g>
     </g>
    </g>
    <g id="xtick_3">
     <g id="line2d_3">
      <g>
       <use style="stroke:#000000;stroke-width:0.8;" x="146.822373" xlink:href="#ma3b23dfcdf" y="252"/>
      </g>
     </g>
     <g id="text_3">
      <!-- 500 -->
      <g transform="translate(137.278623 266.598437)scale(0.1 -0.1)">
       <use xlink:href="#DejaVuSans-53"/>
       <use x="63.623047" xlink:href="#DejaVuSans-48"/>
       <use x="127.246094" xlink:href="#DejaVuSans-48"/>
      </g>
     </g>
    </g>
    <g id="xtick_4">
     <g id="line2d_4">
      <g>
       <use style="stroke:#000000;stroke-width:0.8;" x="185.624468" xlink:href="#ma3b23dfcdf" y="252"/>
      </g>
     </g>
     <g id="text_4">
      <!-- 750 -->
      <defs>
       <path d="M 8.203125 72.90625 
L 55.078125 72.90625 
L 55.078125 68.703125 
L 28.609375 0 
L 18.3125 0 
L 43.21875 64.59375 
L 8.203125 64.59375 
z
" id="DejaVuSans-55"/>
      </defs>
      <g transform="translate(176.080718 266.598437)scale(0.1 -0.1)">
       <use xlink:href="#DejaVuSans-55"/>
       <use x="63.623047" xlink:href="#DejaVuSans-53"/>
       <use x="127.246094" xlink:href="#DejaVuSans-48"/>
      </g>
     </g>
    </g>
    <g id="xtick_5">
     <g id="line2d_5">
      <g>
       <use style="stroke:#000000;stroke-width:0.8;" x="224.426563" xlink:href="#ma3b23dfcdf" y="252"/>
      </g>
     </g>
     <g id="text_5">
      <!-- 1000 -->
      <defs>
       <path d="M 12.40625 8.296875 
L 28.515625 8.296875 
L 28.515625 63.921875 
L 10.984375 60.40625 
L 10.984375 69.390625 
L 28.421875 72.90625 
L 38.28125 72.90625 
L 38.28125 8.296875 
L 54.390625 8.296875 
L 54.390625 0 
L 12.40625 0 
z
" id="DejaVuSans-49"/>
      </defs>
      <g transform="translate(211.701563 266.598437)scale(0.1 -0.1)">
       <use xlink:href="#DejaVuSans-49"/>
       <use x="63.623047" xlink:href="#DejaVuSans-48"/>
       <use x="127.246094" xlink:href="#DejaVuSans-48"/>
       <use x="190.869141" xlink:href="#DejaVuSans-48"/>
      </g>
     </g>
    </g>
    <g id="xtick_6">
     <g id="line2d_6">
      <g>
       <use style="stroke:#000000;stroke-width:0.8;" x="263.228659" xlink:href="#ma3b23dfcdf" y="252"/>
      </g>
     </g>
     <g id="text_6">
      <!-- 1250 -->
      <g transform="translate(250.503659 266.598437)scale(0.1 -0.1)">
       <use xlink:href="#DejaVuSans-49"/>
       <use x="63.623047" xlink:href="#DejaVuSans-50"/>
       <use x="127.246094" xlink:href="#DejaVuSans-53"/>
       <use x="190.869141" xlink:href="#DejaVuSans-48"/>
      </g>
     </g>
    </g>
    <g id="xtick_7">
     <g id="line2d_7">
      <g>
       <use style="stroke:#000000;stroke-width:0.8;" x="302.030754" xlink:href="#ma3b23dfcdf" y="252"/>
      </g>
     </g>
     <g id="text_7">
      <!-- 1500 -->
      <g transform="translate(289.305754 266.598437)scale(0.1 -0.1)">
       <use xlink:href="#DejaVuSans-49"/>
       <use x="63.623047" xlink:href="#DejaVuSans-53"/>
       <use x="127.246094" xlink:href="#DejaVuSans-48"/>
       <use x="190.869141" xlink:href="#DejaVuSans-48"/>
      </g>
     </g>
    </g>
    <g id="xtick_8">
     <g id="line2d_8">
      <g>
       <use style="stroke:#000000;stroke-width:0.8;" x="340.83285" xlink:href="#ma3b23dfcdf" y="252"/>
      </g>
     </g>
     <g id="text_8">
      <!-- 1750 -->
      <g transform="translate(328.10785 266.598437)scale(0.1 -0.1)">
       <use xlink:href="#DejaVuSans-49"/>
       <use x="63.623047" xlink:href="#DejaVuSans-55"/>
       <use x="127.246094" xlink:href="#DejaVuSans-53"/>
       <use x="190.869141" xlink:href="#DejaVuSans-48"/>
      </g>
     </g>
    </g>
    <g id="xtick_9">
     <g id="line2d_9">
      <g>
       <use style="stroke:#000000;stroke-width:0.8;" x="379.634945" xlink:href="#ma3b23dfcdf" y="252"/>
      </g>
     </g>
     <g id="text_9">
      <!-- 2000 -->
      <g transform="translate(366.909945 266.598437)scale(0.1 -0.1)">
       <use xlink:href="#DejaVuSans-50"/>
       <use x="63.623047" xlink:href="#DejaVuSans-48"/>
       <use x="127.246094" xlink:href="#DejaVuSans-48"/>
       <use x="190.869141" xlink:href="#DejaVuSans-48"/>
      </g>
     </g>
    </g>
   </g>
   <g id="matplotlib.axis_2">
    <g id="ytick_1">
     <g id="line2d_10">
      <defs>
       <path d="M 0 0 
L -3.5 0 
" id="maf41b4c569" style="stroke:#000000;stroke-width:0.8;"/>
      </defs>
      <g>
       <use style="stroke:#000000;stroke-width:0.8;" x="54" xlink:href="#maf41b4c569" y="245.613832"/>
      </g>
     </g>
     <g id="text_10">
      <!-- 0 -->
      <g transform="translate(40.6375 249.413051)scale(0.1 -0.1)">
       <use xlink:href="#DejaVuSans-48"/>
      </g>
     </g>
    </g>
    <g id="ytick_2">
     <g id="line2d_11">
      <g>
       <use style="stroke:#000000;stroke-width:0.8;" x="54" xlink:href="#maf41b4c569" y="217.391732"/>
      </g>
     </g>
     <g id="text_11">
      <!-- 2 -->
      <g transform="translate(40.6375 221.19095)scale(0.1 -0.1)">
       <use xlink:href="#DejaVuSans-50"/>
      </g>
     </g>
    </g>
    <g id="ytick_3">
     <g id="line2d_12">
      <g>
       <use style="stroke:#000000;stroke-width:0.8;" x="54" xlink:href="#maf41b4c569" y="189.169631"/>
      </g>
     </g>
     <g id="text_12">
      <!-- 4 -->
      <defs>
       <path d="M 37.796875 64.3125 
L 12.890625 25.390625 
L 37.796875 25.390625 
z
M 35.203125 72.90625 
L 47.609375 72.90625 
L 47.609375 25.390625 
L 58.015625 25.390625 
L 58.015625 17.1875 
L 47.609375 17.1875 
L 47.609375 0 
L 37.796875 0 
L 37.796875 17.1875 
L 4.890625 17.1875 
L 4.890625 26.703125 
z
" id="DejaVuSans-52"/>
      </defs>
      <g transform="translate(40.6375 192.96885)scale(0.1 -0.1)">
       <use xlink:href="#DejaVuSans-52"/>
      </g>
     </g>
    </g>
    <g id="ytick_4">
     <g id="line2d_13">
      <g>
       <use style="stroke:#000000;stroke-width:0.8;" x="54" xlink:href="#maf41b4c569" y="160.94753"/>
      </g>
     </g>
     <g id="text_13">
      <!-- 6 -->
      <defs>
       <path d="M 33.015625 40.375 
Q 26.375 40.375 22.484375 35.828125 
Q 18.609375 31.296875 18.609375 23.390625 
Q 18.609375 15.53125 22.484375 10.953125 
Q 26.375 6.390625 33.015625 6.390625 
Q 39.65625 6.390625 43.53125 10.953125 
Q 47.40625 15.53125 47.40625 23.390625 
Q 47.40625 31.296875 43.53125 35.828125 
Q 39.65625 40.375 33.015625 40.375 
z
M 52.59375 71.296875 
L 52.59375 62.3125 
Q 48.875 64.0625 45.09375 64.984375 
Q 41.3125 65.921875 37.59375 65.921875 
Q 27.828125 65.921875 22.671875 59.328125 
Q 17.53125 52.734375 16.796875 39.40625 
Q 19.671875 43.65625 24.015625 45.921875 
Q 28.375 48.1875 33.59375 48.1875 
Q 44.578125 48.1875 50.953125 41.515625 
Q 57.328125 34.859375 57.328125 23.390625 
Q 57.328125 12.15625 50.6875 5.359375 
Q 44.046875 -1.421875 33.015625 -1.421875 
Q 20.359375 -1.421875 13.671875 8.265625 
Q 6.984375 17.96875 6.984375 36.375 
Q 6.984375 53.65625 15.1875 63.9375 
Q 23.390625 74.21875 37.203125 74.21875 
Q 40.921875 74.21875 44.703125 73.484375 
Q 48.484375 72.75 52.59375 71.296875 
z
" id="DejaVuSans-54"/>
      </defs>
      <g transform="translate(40.6375 164.746749)scale(0.1 -0.1)">
       <use xlink:href="#DejaVuSans-54"/>
      </g>
     </g>
    </g>
    <g id="ytick_5">
     <g id="line2d_14">
      <g>
       <use style="stroke:#000000;stroke-width:0.8;" x="54" xlink:href="#maf41b4c569" y="132.72543"/>
      </g>
     </g>
     <g id="text_14">
      <!-- 8 -->
      <defs>
       <path d="M 31.78125 34.625 
Q 24.75 34.625 20.71875 30.859375 
Q 16.703125 27.09375 16.703125 20.515625 
Q 16.703125 13.921875 20.71875 10.15625 
Q 24.75 6.390625 31.78125 6.390625 
Q 38.8125 6.390625 42.859375 10.171875 
Q 46.921875 13.96875 46.921875 20.515625 
Q 46.921875 27.09375 42.890625 30.859375 
Q 38.875 34.625 31.78125 34.625 
z
M 21.921875 38.8125 
Q 15.578125 40.375 12.03125 44.71875 
Q 8.5 49.078125 8.5 55.328125 
Q 8.5 64.0625 14.71875 69.140625 
Q 20.953125 74.21875 31.78125 74.21875 
Q 42.671875 74.21875 48.875 69.140625 
Q 55.078125 64.0625 55.078125 55.328125 
Q 55.078125 49.078125 51.53125 44.71875 
Q 48 40.375 41.703125 38.8125 
Q 48.828125 37.15625 52.796875 32.3125 
Q 56.78125 27.484375 56.78125 20.515625 
Q 56.78125 9.90625 50.3125 4.234375 
Q 43.84375 -1.421875 31.78125 -1.421875 
Q 19.734375 -1.421875 13.25 4.234375 
Q 6.78125 9.90625 6.78125 20.515625 
Q 6.78125 27.484375 10.78125 32.3125 
Q 14.796875 37.15625 21.921875 38.8125 
z
M 18.3125 54.390625 
Q 18.3125 48.734375 21.84375 45.5625 
Q 25.390625 42.390625 31.78125 42.390625 
Q 38.140625 42.390625 41.71875 45.5625 
Q 45.3125 48.734375 45.3125 54.390625 
Q 45.3125 60.0625 41.71875 63.234375 
Q 38.140625 66.40625 31.78125 66.40625 
Q 25.390625 66.40625 21.84375 63.234375 
Q 18.3125 60.0625 18.3125 54.390625 
z
" id="DejaVuSans-56"/>
      </defs>
      <g transform="translate(40.6375 136.524648)scale(0.1 -0.1)">
       <use xlink:href="#DejaVuSans-56"/>
      </g>
     </g>
    </g>
    <g id="ytick_6">
     <g id="line2d_15">
      <g>
       <use style="stroke:#000000;stroke-width:0.8;" x="54" xlink:href="#maf41b4c569" y="104.503329"/>
      </g>
     </g>
     <g id="text_15">
      <!-- 10 -->
      <g transform="translate(34.275 108.302548)scale(0.1 -0.1)">
       <use xlink:href="#DejaVuSans-49"/>
       <use x="63.623047" xlink:href="#DejaVuSans-48"/>
      </g>
     </g>
    </g>
    <g id="ytick_7">
     <g id="line2d_16">
      <g>
       <use style="stroke:#000000;stroke-width:0.8;" x="54" xlink:href="#maf41b4c569" y="76.281228"/>
      </g>
     </g>
     <g id="text_16">
      <!-- 12 -->
      <g transform="translate(34.275 80.080447)scale(0.1 -0.1)">
       <use xlink:href="#DejaVuSans-49"/>
       <use x="63.623047" xlink:href="#DejaVuSans-50"/>
      </g>
     </g>
    </g>
    <g id="ytick_8">
     <g id="line2d_17">
      <g>
       <use style="stroke:#000000;stroke-width:0.8;" x="54" xlink:href="#maf41b4c569" y="48.059128"/>
      </g>
     </g>
     <g id="text_17">
      <!-- 14 -->
      <g transform="translate(34.275 51.858346)scale(0.1 -0.1)">
       <use xlink:href="#DejaVuSans-49"/>
       <use x="63.623047" xlink:href="#DejaVuSans-52"/>
      </g>
     </g>
    </g>
   </g>
   <g id="line2d_18">
    <path clip-path="url(#pabbea413e2)" d="M 69.218182 44.443636 
L 69.528599 56.758423 
L 71.391099 146.527631 
L 72.011933 172.999604 
L 72.632766 197.790907 
L 73.874433 225.804918 
L 74.340058 228.913819 
L 74.650475 230.152726 
L 74.805684 230.476258 
L 74.960892 230.484636 
L 75.426517 230.948469 
L 75.736934 230.74499 
L 75.892142 231.108974 
L 76.202559 231.209386 
L 76.357767 231.385096 
L 76.823393 231.336332 
L 76.978601 231.667448 
L 77.133809 231.705571 
L 77.444226 231.962281 
L 78.06506 231.684992 
L 78.375476 231.485855 
L 78.530685 231.518603 
L 78.685893 231.436451 
L 78.99631 231.769196 
L 79.151518 231.583994 
L 79.461935 231.831304 
L 79.92756 232.03687 
L 80.082769 231.935015 
L 80.237977 232.092647 
L 80.393185 231.960468 
L 80.548394 232.102081 
L 80.703602 231.891585 
L 81.014019 232.135208 
L 81.324436 232.447118 
L 81.479644 232.658869 
L 81.790061 232.658441 
L 82.100477 232.744877 
L 82.410894 233.215074 
L 82.721311 233.416903 
L 82.876519 233.336092 
L 83.342145 233.702252 
L 83.497353 233.658235 
L 83.652561 233.397735 
L 83.80777 233.596167 
L 84.273395 233.219934 
L 84.428603 233.298818 
L 84.583812 233.147731 
L 84.73902 233.17424 
L 85.049437 233.501626 
L 85.67027 233.966569 
L 85.980687 233.621683 
L 86.291104 233.650591 
L 86.601521 233.415812 
L 86.911937 233.568234 
L 87.067146 233.642644 
L 87.377562 234.077487 
L 87.532771 234.011117 
L 87.687979 234.09219 
L 87.843188 234.020475 
L 88.774438 232.897705 
L 89.084855 232.967094 
L 89.395271 232.727049 
L 89.55048 232.651758 
L 89.705688 232.908558 
L 89.860897 232.840269 
L 90.171313 232.997736 
L 90.48173 232.48601 
L 90.636938 232.440587 
L 90.792147 232.252496 
L 90.947355 232.336537 
L 91.41298 233.033387 
L 91.568189 233.035577 
L 91.723397 233.173557 
L 92.189022 233.002263 
L 92.654647 233.530776 
L 92.809856 233.436662 
L 93.275481 233.704134 
L 93.585898 233.834294 
L 93.741106 233.769952 
L 93.896314 233.896808 
L 94.672356 233.638847 
L 94.982773 233.787835 
L 95.29319 234.147433 
L 95.448398 234.113566 
L 95.603607 233.928577 
L 96.22444 234.051378 
L 96.379649 234.004085 
L 96.690065 234.317079 
L 97.000482 234.415655 
L 97.310899 234.591215 
L 97.466107 234.59137 
L 97.621316 234.719744 
L 97.776524 234.61383 
L 98.086941 234.677775 
L 98.397358 234.407099 
L 98.862983 234.009969 
L 99.018191 234.112081 
L 99.483816 233.939884 
L 99.639025 233.572532 
L 100.10465 233.49869 
L 100.259858 233.576365 
L 100.880692 233.350246 
L 101.346317 233.39902 
L 101.656734 233.749315 
L 102.122359 234.023007 
L 102.587984 233.836442 
L 102.743192 234.252284 
L 103.208817 234.482213 
L 103.519234 234.357838 
L 104.450484 234.656607 
L 104.91611 234.478787 
L 105.226526 234.385358 
L 105.692151 234.686515 
L 105.84736 234.521727 
L 106.002568 234.613063 
L 106.933819 234.443503 
L 107.244235 234.647469 
L 107.554652 234.386581 
L 107.70986 234.513581 
L 107.865069 234.417437 
L 108.330694 234.562125 
L 108.641111 234.308768 
L 108.796319 234.176292 
L 109.106736 234.349213 
L 109.882778 234.564374 
L 110.193195 234.413753 
L 110.348403 234.097408 
L 110.65882 234.359723 
L 110.814028 234.266354 
L 111.124445 234.525519 
L 111.279653 234.401846 
L 111.900487 234.686915 
L 112.210904 234.509833 
L 112.52132 234.338746 
L 113.142154 234.155099 
L 113.452571 234.43875 
L 113.762987 234.302527 
L 114.228612 234.164601 
L 114.383821 234.429758 
L 114.694238 234.274736 
L 115.004654 234.361474 
L 115.159863 234.383688 
L 115.315071 234.238935 
L 115.625488 234.341597 
L 115.935905 234.474472 
L 116.246321 234.414439 
L 116.40153 234.203567 
L 116.711947 234.371111 
L 116.867155 234.360945 
L 117.022363 234.129511 
L 117.33278 234.089621 
L 117.487989 233.880798 
L 117.643197 233.953826 
L 117.953614 233.838586 
L 118.419239 233.927662 
L 118.729656 234.01187 
L 118.884864 233.923843 
L 119.350489 234.140418 
L 119.505697 234.360159 
L 119.971323 234.238682 
L 120.126531 234.630447 
L 120.281739 234.594278 
L 120.592156 234.695384 
L 120.747365 234.665336 
L 121.057781 234.816763 
L 121.21299 234.61164 
L 121.523406 234.811484 
L 121.678615 234.734191 
L 121.833823 234.837977 
L 122.14424 234.683314 
L 122.299448 234.353431 
L 122.454657 234.357322 
L 122.609865 234.231727 
L 122.765073 234.250016 
L 123.07549 234.433882 
L 123.385907 234.170959 
L 123.696324 234.15917 
L 124.006741 233.856288 
L 124.782782 233.963912 
L 124.937991 233.837712 
L 125.714033 234.565553 
L 126.334866 234.339132 
L 126.490075 234.530163 
L 126.800491 234.341136 
L 127.110908 234.667188 
L 127.266117 234.671732 
L 127.421325 234.849454 
L 127.731742 234.678776 
L 128.197367 234.822049 
L 128.352575 234.521277 
L 128.662992 234.468716 
L 128.8182 234.233563 
L 129.749451 234.303435 
L 129.904659 234.442179 
L 130.680701 233.99741 
L 130.991118 233.972027 
L 131.301534 233.685605 
L 131.922368 234.393767 
L 132.077576 234.247922 
L 132.232785 234.374277 
L 132.853618 234.243904 
L 133.008827 234.280419 
L 133.319243 234.535459 
L 133.474452 234.412207 
L 133.62966 234.549642 
L 134.56091 234.360466 
L 135.026536 233.903306 
L 135.181744 234.107242 
L 135.336952 233.968554 
L 135.802578 234.031391 
L 136.268203 233.961431 
L 136.423411 233.817078 
L 136.578619 233.97224 
L 136.733828 233.832835 
L 137.044245 234.126544 
L 137.665078 234.37272 
L 137.820286 234.210847 
L 137.975495 234.345517 
L 138.130703 234.33143 
L 138.285912 234.163354 
L 138.44112 234.188241 
L 138.751537 233.993193 
L 138.906745 234.057733 
L 139.682787 233.592613 
L 139.837995 233.722202 
L 139.993204 233.59661 
L 140.303621 233.687376 
L 140.458829 233.474891 
L 140.924454 233.845528 
L 141.079663 233.725602 
L 141.234871 233.798542 
L 141.545288 234.073372 
L 141.855704 233.487617 
L 142.32133 233.683883 
L 142.476538 233.606175 
L 142.786955 233.882002 
L 142.942163 233.793472 
L 143.097371 233.834805 
L 143.25258 233.463007 
L 143.718205 233.483404 
L 143.873413 233.389494 
L 144.18383 233.746968 
L 144.494247 233.549613 
L 144.649455 233.513187 
L 144.804664 233.727171 
L 144.959872 234.217483 
L 145.11508 234.010698 
L 145.580706 234.408147 
L 145.891122 234.294205 
L 146.667164 234.815698 
L 146.822373 234.897486 
L 147.132789 234.793693 
L 147.443206 234.817019 
L 147.598415 234.602286 
L 147.753623 234.71522 
L 148.06404 234.688966 
L 148.219248 234.81457 
L 148.374456 234.737197 
L 148.684873 234.195588 
L 148.840082 234.145248 
L 149.150498 234.360934 
L 149.460915 234.082042 
L 149.92654 234.099393 
L 150.236957 233.964215 
L 150.392165 233.811626 
L 151.323416 234.075287 
L 151.478624 233.881854 
L 151.633832 234.176024 
L 151.789041 234.122515 
L 151.944249 234.241728 
L 152.099458 234.214324 
L 152.254666 234.046909 
L 152.409874 234.115239 
L 152.720291 233.791843 
L 152.8755 233.994837 
L 153.185916 233.894945 
L 153.80675 234.393403 
L 154.427583 234.156907 
L 154.582792 234.402086 
L 154.738 234.242955 
L 155.048417 234.525983 
L 155.358834 234.299396 
L 155.66925 234.490963 
L 155.824459 234.634959 
L 155.979667 234.504686 
L 156.600501 234.928728 
L 156.755709 234.819058 
L 157.221334 234.931625 
L 157.842168 235.032734 
L 158.152584 234.759393 
L 158.463001 234.921789 
L 159.54946 234.804123 
L 159.704668 234.695752 
L 159.859877 234.764341 
L 160.015085 234.705748 
L 160.325502 234.45588 
L 160.946335 234.419458 
L 161.256752 234.664824 
L 161.567169 234.468737 
L 161.877586 234.690051 
L 162.188002 234.869838 
L 162.343211 234.738962 
L 163.119253 234.865077 
L 163.274461 235.070078 
L 163.429669 234.934466 
L 164.516128 235.260275 
L 164.671337 235.354803 
L 165.757795 234.906787 
L 165.913004 235.051478 
L 166.22342 234.955133 
L 166.533837 235.037936 
L 166.844254 234.830713 
L 167.465087 234.722756 
L 167.775504 235.048698 
L 168.706754 235.398137 
L 169.638005 235.419541 
L 169.948421 235.754414 
L 170.10363 235.681845 
L 170.414047 236.050836 
L 171.500505 235.313631 
L 171.810922 235.371887 
L 172.121339 235.389919 
L 172.431756 235.325705 
L 172.742172 235.488923 
L 172.897381 235.344191 
L 173.207798 235.317843 
L 173.518214 234.798358 
L 173.673423 234.89315 
L 173.828631 234.795873 
L 174.139048 234.943915 
L 174.294256 235.002146 
L 174.449465 234.925234 
L 174.759881 235.13529 
L 174.91509 235.009882 
L 175.380715 235.124763 
L 175.535923 235.245751 
L 175.84634 235.161148 
L 176.311965 235.511086 
L 176.622382 235.925946 
L 176.932799 236.117521 
L 177.243215 235.811872 
L 177.708841 235.857534 
L 177.864049 235.773078 
L 178.174466 236.103627 
L 178.484882 235.929036 
L 178.795299 235.543402 
L 179.105716 235.606607 
L 179.416133 235.398775 
L 180.036966 235.109588 
L 180.502591 235.386099 
L 180.813008 235.296349 
L 180.968217 235.34194 
L 181.433842 235.053266 
L 181.744258 235.199286 
L 182.054675 235.563738 
L 182.209884 235.549946 
L 182.5203 235.666376 
L 182.830717 235.699304 
L 183.296342 235.932449 
L 183.451551 235.858176 
L 183.606759 235.91379 
L 183.917176 236.168776 
L 184.072384 236.023104 
L 184.382801 236.39628 
L 184.848426 236.607352 
L 185.158843 236.436491 
L 185.779676 236.675996 
L 186.090093 236.52829 
L 186.245302 236.637525 
L 187.021343 236.562573 
L 187.176552 236.813656 
L 187.33176 236.592571 
L 188.107802 236.688513 
L 188.573427 236.260926 
L 190.280719 236.250671 
L 191.21197 235.952301 
L 191.522387 236.230095 
L 192.919262 236.382546 
L 193.229679 236.701043 
L 193.384887 236.579926 
L 193.695304 236.875223 
L 194.005721 237.086838 
L 194.626554 236.923614 
L 194.781763 237.148423 
L 194.936971 237.082798 
L 195.247388 237.263671 
L 195.402596 237.28775 
L 195.713013 237.089088 
L 196.02343 237.129443 
L 196.644263 237.007883 
L 196.799472 237.100015 
L 197.265097 236.992006 
L 197.730722 237.174892 
L 197.88593 236.995333 
L 198.041139 237.027533 
L 198.196347 236.899879 
L 198.972389 236.974552 
L 199.438014 236.852865 
L 199.593222 237.066647 
L 199.903639 236.865773 
L 201.145306 237.026903 
L 201.455723 236.948029 
L 201.921348 237.117276 
L 202.386973 237.072149 
L 202.542182 237.215287 
L 202.69739 236.950022 
L 203.007807 237.15638 
L 203.163015 237.101209 
L 203.783849 237.270559 
L 205.180724 237.364885 
L 205.335933 237.491847 
L 205.646349 237.464004 
L 205.801558 237.612255 
L 206.5776 237.368186 
L 206.732808 237.176282 
L 207.198433 237.352319 
L 207.353641 237.308691 
L 207.664058 237.409539 
L 207.819267 237.279264 
L 208.129683 237.486557 
L 208.4401 237.485644 
L 208.595309 237.602953 
L 208.905725 237.500352 
L 209.37135 237.50222 
L 209.992184 237.934853 
L 210.302601 237.709874 
L 210.923434 237.758921 
L 211.233851 237.475639 
L 211.389059 237.566407 
L 211.544268 237.510455 
L 211.699476 237.333078 
L 212.165101 237.572716 
L 212.630726 237.752819 
L 213.717185 237.925315 
L 214.18281 238.43273 
L 214.338019 238.458105 
L 214.648435 238.323278 
L 214.803644 238.490769 
L 215.114061 238.299914 
L 216.510936 238.538372 
L 216.821353 238.518927 
L 216.976561 238.461714 
L 217.286978 238.104336 
L 218.218228 238.2773 
L 219.304687 238.152618 
L 219.459895 238.230152 
L 219.615104 238.170952 
L 220.391146 238.628543 
L 220.701562 238.843461 
L 220.856771 238.73145 
L 222.408854 239.103067 
L 223.340105 239.220318 
L 223.650522 238.969998 
L 223.960938 238.995069 
L 224.581772 239.038724 
L 224.73698 238.891532 
L 225.047397 238.849851 
L 225.823439 238.662157 
L 226.444272 238.739625 
L 226.599481 238.926351 
L 227.375523 238.877656 
L 229.393232 239.210031 
L 229.703648 239.229045 
L 231.566149 239.700588 
L 231.721357 239.783694 
L 232.186983 239.579509 
L 232.497399 239.638967 
L 233.118233 239.816833 
L 235.29115 240.01987 
L 235.446359 240.139098 
L 236.2224 239.874623 
L 236.377609 239.967387 
L 236.843234 239.854574 
L 237.464067 239.826215 
L 239.792193 239.261497 
L 239.947402 239.40906 
L 240.257818 239.289557 
L 240.878652 239.533941 
L 241.344277 239.58742 
L 241.654694 239.82056 
L 242.120319 239.70619 
L 242.275527 239.812631 
L 242.585944 239.831998 
L 243.206778 239.919594 
L 243.517194 240.05417 
L 244.138028 240.022986 
L 244.293236 240.122813 
L 244.91407 240.02136 
L 245.379695 240.173879 
L 246.000528 240.506099 
L 246.310945 240.438169 
L 247.242196 240.427251 
L 247.397404 240.392285 
L 247.707821 240.522799 
L 248.173446 240.583384 
L 249.72553 240.263458 
L 249.880738 240.464538 
L 251.898447 240.345367 
L 252.674489 240.619384 
L 252.829697 240.663283 
L 253.140114 240.62719 
L 253.605739 240.817697 
L 254.071364 240.757334 
L 254.381781 240.851285 
L 255.157823 240.98528 
L 255.46824 240.997791 
L 257.33074 240.998785 
L 257.641157 241.064942 
L 257.951574 241.03722 
L 258.417199 241.043316 
L 258.572407 241.080378 
L 258.727616 240.982085 
L 259.348449 241.099792 
L 261.366158 241.291519 
L 261.676575 241.289111 
L 261.831783 241.370828 
L 262.1422 241.308436 
L 262.452617 241.364039 
L 262.763034 241.351836 
L 264.315118 241.469868 
L 264.625534 241.386061 
L 264.935951 241.41982 
L 265.091159 241.49756 
L 265.556785 241.37103 
L 265.867201 241.474218 
L 267.574494 241.345721 
L 267.88491 241.438555 
L 268.195327 241.329969 
L 268.350535 241.414567 
L 268.505744 241.322464 
L 268.816161 241.396816 
L 269.281786 241.430668 
L 269.902619 241.542947 
L 270.989078 241.445548 
L 271.299495 241.486119 
L 271.454703 241.430258 
L 271.609911 241.607059 
L 273.317204 241.67544 
L 273.472412 241.771158 
L 273.782829 241.787111 
L 275.955746 241.624156 
L 276.110955 241.699523 
L 276.421371 241.688178 
L 277.197413 241.62806 
L 277.663038 241.821945 
L 278.43908 241.651322 
L 278.594289 241.551111 
L 278.904705 241.582249 
L 279.215122 241.414537 
L 279.370331 241.450899 
L 279.680747 241.305827 
L 279.991164 241.335009 
L 280.456789 241.394852 
L 280.767206 241.355333 
L 282.164081 241.512509 
L 282.474498 241.429392 
L 282.629707 241.48936 
L 282.940123 241.403959 
L 283.560957 241.382731 
L 283.871374 241.379903 
L 284.647416 241.367901 
L 284.802624 241.265758 
L 285.113041 241.383895 
L 285.578666 241.267296 
L 285.889083 241.282225 
L 286.199499 241.319467 
L 286.975541 241.102277 
L 288.217208 240.988623 
L 291.166168 241.358045 
L 291.321376 241.252397 
L 291.476584 241.330946 
L 291.942209 241.270202 
L 292.252626 241.297943 
L 292.407835 241.163701 
L 292.718251 241.190194 
L 293.80471 241.029696 
L 294.115127 241.104091 
L 294.891169 241.017925 
L 295.512002 241.133153 
L 296.132836 241.33325 
L 296.443253 241.361664 
L 297.064086 241.348559 
L 297.529711 241.397075 
L 297.995336 241.571923 
L 298.305753 241.400967 
L 298.61617 241.345748 
L 298.926587 241.054565 
L 300.944296 240.959604 
L 301.099504 240.872409 
L 301.409921 240.963467 
L 301.565129 240.822912 
L 302.806796 240.953862 
L 303.272421 240.82215 
L 303.738046 240.911091 
L 304.203672 240.680101 
L 304.514088 240.675959 
L 304.824505 240.722018 
L 305.29013 240.679422 
L 305.600547 240.61848 
L 305.755755 240.705741 
L 306.066172 240.684301 
L 307.928673 241.279508 
L 308.394298 240.976425 
L 308.549506 241.012814 
L 308.859923 240.922314 
L 309.17034 240.99383 
L 309.480757 240.838126 
L 310.10159 240.695269 
L 310.877632 240.835159 
L 311.03284 240.811265 
L 311.498466 241.060677 
L 313.826591 241.352767 
L 314.137008 241.305019 
L 314.447425 241.352089 
L 314.91305 241.265626 
L 315.223467 241.354928 
L 317.862009 241.769032 
L 318.172426 241.774484 
L 318.948468 241.633297 
L 319.258885 241.416389 
L 319.569301 241.455757 
L 319.879718 241.393976 
L 320.345343 241.397206 
L 320.810968 241.206164 
L 322.052635 241.011966 
L 322.518261 241.176462 
L 323.294303 241.048404 
L 323.449511 241.022529 
L 324.070344 241.299503 
L 324.380761 241.312688 
L 324.846386 241.363119 
L 325.46722 241.589875 
L 325.932845 241.639159 
L 326.864095 241.661377 
L 327.174512 241.628981 
L 327.32972 241.711341 
L 327.484929 241.585693 
L 327.795346 241.617751 
L 328.260971 241.525571 
L 328.571388 241.295525 
L 328.881804 241.245797 
L 329.968263 241.080179 
L 330.433888 240.888974 
L 330.744305 240.940133 
L 331.054722 240.917926 
L 331.365138 240.917284 
L 331.520347 241.010615 
L 331.830764 240.937352 
L 332.14118 240.937784 
L 333.227639 241.056997 
L 333.538056 241.160772 
L 334.158889 241.071772 
L 334.314098 241.155577 
L 334.779723 241.096254 
L 335.555765 241.224393 
L 335.866181 241.145818 
L 336.331807 241.19252 
L 336.797432 240.993242 
L 336.95264 240.904163 
L 337.107849 240.947119 
L 337.418265 240.744274 
L 337.88389 240.816459 
L 338.039099 240.730635 
L 338.349516 240.79299 
L 338.659932 240.725974 
L 339.280766 240.602434 
L 339.591183 240.652523 
L 339.901599 240.767289 
L 340.056808 240.733227 
L 340.367225 240.903158 
L 340.988058 240.942352 
L 341.298475 241.043386 
L 342.229725 241.177535 
L 342.540142 241.390222 
L 343.160975 241.235163 
L 343.937017 241.159368 
L 344.092226 241.237147 
L 344.402642 241.200098 
L 344.713059 241.18614 
L 345.023476 241.243585 
L 345.333893 241.148789 
L 345.799518 241.156468 
L 346.885977 241.731855 
L 347.196393 241.574461 
L 347.351602 241.727128 
L 348.127644 241.622292 
L 348.43806 241.765043 
L 348.748477 241.573897 
L 349.058894 241.576713 
L 349.369311 241.589222 
L 349.834936 241.583977 
L 350.145353 241.447726 
L 350.300561 241.557022 
L 350.921394 241.477198 
L 351.231811 241.507541 
L 351.542228 241.418905 
L 351.852645 241.68658 
L 352.163062 241.770687 
L 352.31827 241.643718 
L 352.628687 241.654188 
L 352.783895 241.601894 
L 352.939103 241.401497 
L 353.404729 241.621635 
L 354.956812 241.603264 
L 355.267229 241.457615 
L 355.422438 241.520538 
L 355.732854 241.317215 
L 355.888063 241.363329 
L 356.043271 241.546875 
L 356.508896 241.476821 
L 356.819313 241.355748 
L 357.12973 241.429828 
L 357.284938 241.537266 
L 357.440146 241.30167 
L 357.595355 241.434661 
L 358.06098 241.426148 
L 358.837022 241.76539 
L 359.302647 241.743693 
L 359.923481 241.933201 
L 360.389106 241.902587 
L 360.544314 241.992306 
L 360.699523 241.894454 
L 361.009939 242.007679 
L 361.320356 241.899525 
L 361.785981 241.791221 
L 362.251606 241.781419 
L 362.562023 241.710726 
L 363.027648 241.632462 
L 363.648482 241.652246 
L 363.80369 241.718555 
L 364.269315 241.539671 
L 364.579732 241.663577 
L 367.218275 241.196689 
L 367.373483 241.263353 
L 367.6839 241.152657 
L 367.839108 241.152931 
L 367.994316 241.278106 
L 368.304733 241.32036 
L 368.770358 241.44886 
L 369.080775 241.463563 
L 369.5464 241.691193 
L 369.856817 241.674375 
L 370.012025 241.798976 
L 370.477651 241.726611 
L 370.788067 241.903559 
L 371.253692 241.952716 
L 371.408901 241.879392 
L 371.719318 242.02185 
L 372.49536 241.988227 
L 372.960985 242.007775 
L 373.42661 242.066785 
L 373.581818 242.046428 
L 373.581818 242.046428 
" style="fill:none;stroke:#1f77b4;stroke-linecap:square;stroke-width:1.5;"/>
   </g>
   <g id="patch_3">
    <path d="M 54 252 
L 54 34.56 
" style="fill:none;stroke:#000000;stroke-linecap:square;stroke-linejoin:miter;stroke-width:0.8;"/>
   </g>
   <g id="patch_4">
    <path d="M 388.8 252 
L 388.8 34.56 
" style="fill:none;stroke:#000000;stroke-linecap:square;stroke-linejoin:miter;stroke-width:0.8;"/>
   </g>
   <g id="patch_5">
    <path d="M 54 252 
L 388.8 252 
" style="fill:none;stroke:#000000;stroke-linecap:square;stroke-linejoin:miter;stroke-width:0.8;"/>
   </g>
   <g id="patch_6">
    <path d="M 54 34.56 
L 388.8 34.56 
" style="fill:none;stroke:#000000;stroke-linecap:square;stroke-linejoin:miter;stroke-width:0.8;"/>
   </g>
  </g>
 </g>
 <defs>
  <clipPath id="pabbea413e2">
   <rect height="217.44" width="334.8" x="54" y="34.56"/>
  </clipPath>
 </defs>
</svg>
