<?xml version="1.0" encoding="utf-8" standalone="no"?>
<!DOCTYPE svg PUBLIC "-//W3C//DTD SVG 1.1//EN"
  "http://www.w3.org/Graphics/SVG/1.1/DTD/svg11.dtd">
<!-- Created with matplotlib (https://matplotlib.org/) -->
<svg height="288pt" version="1.1" viewBox="0 0 432 288" width="432pt" xmlns="http://www.w3.org/2000/svg" xmlns:xlink="http://www.w3.org/1999/xlink">
 <defs>
  <style type="text/css">
*{stroke-linecap:butt;stroke-linejoin:round;}
  </style>
 </defs>
 <g id="figure_1">
  <g id="patch_1">
   <path d="M 0 288 
L 432 288 
L 432 0 
L 0 0 
z
" style="fill:#ffffff;"/>
  </g>
  <g id="axes_1">
   <g id="patch_2">
    <path d="M 54 252 
L 388.8 252 
L 388.8 34.56 
L 54 34.56 
z
" style="fill:#ffffff;"/>
   </g>
   <g id="matplotlib.axis_1">
    <g id="xtick_1">
     <g id="line2d_1">
      <defs>
       <path d="M 0 0 
L 0 3.5 
" id="m024c5d7212" style="stroke:#000000;stroke-width:0.8;"/>
      </defs>
      <g>
       <use style="stroke:#000000;stroke-width:0.8;" x="69.218182" xlink:href="#m024c5d7212" y="252"/>
      </g>
     </g>
     <g id="text_1">
      <!-- 0 -->
      <defs>
       <path d="M 31.78125 66.40625 
Q 24.171875 66.40625 20.328125 58.90625 
Q 16.5 51.421875 16.5 36.375 
Q 16.5 21.390625 20.328125 13.890625 
Q 24.171875 6.390625 31.78125 6.390625 
Q 39.453125 6.390625 43.28125 13.890625 
Q 47.125 21.390625 47.125 36.375 
Q 47.125 51.421875 43.28125 58.90625 
Q 39.453125 66.40625 31.78125 66.40625 
z
M 31.78125 74.21875 
Q 44.046875 74.21875 50.515625 64.515625 
Q 56.984375 54.828125 56.984375 36.375 
Q 56.984375 17.96875 50.515625 8.265625 
Q 44.046875 -1.421875 31.78125 -1.421875 
Q 19.53125 -1.421875 13.0625 8.265625 
Q 6.59375 17.96875 6.59375 36.375 
Q 6.59375 54.828125 13.0625 64.515625 
Q 19.53125 74.21875 31.78125 74.21875 
z
" id="DejaVuSans-48"/>
      </defs>
      <g transform="translate(66.036932 266.598437)scale(0.1 -0.1)">
       <use xlink:href="#DejaVuSans-48"/>
      </g>
     </g>
    </g>
    <g id="xtick_2">
     <g id="line2d_2">
      <g>
       <use style="stroke:#000000;stroke-width:0.8;" x="118.29326" xlink:href="#m024c5d7212" y="252"/>
      </g>
     </g>
     <g id="text_2">
      <!-- 500 -->
      <defs>
       <path d="M 10.796875 72.90625 
L 49.515625 72.90625 
L 49.515625 64.59375 
L 19.828125 64.59375 
L 19.828125 46.734375 
Q 21.96875 47.46875 24.109375 47.828125 
Q 26.265625 48.1875 28.421875 48.1875 
Q 40.625 48.1875 47.75 41.5 
Q 54.890625 34.8125 54.890625 23.390625 
Q 54.890625 11.625 47.5625 5.09375 
Q 40.234375 -1.421875 26.90625 -1.421875 
Q 22.3125 -1.421875 17.546875 -0.640625 
Q 12.796875 0.140625 7.71875 1.703125 
L 7.71875 11.625 
Q 12.109375 9.234375 16.796875 8.0625 
Q 21.484375 6.890625 26.703125 6.890625 
Q 35.15625 6.890625 40.078125 11.328125 
Q 45.015625 15.765625 45.015625 23.390625 
Q 45.015625 31 40.078125 35.4375 
Q 35.15625 39.890625 26.703125 39.890625 
Q 22.75 39.890625 18.8125 39.015625 
Q 14.890625 38.140625 10.796875 36.28125 
z
" id="DejaVuSans-53"/>
      </defs>
      <g transform="translate(108.74951 266.598437)scale(0.1 -0.1)">
       <use xlink:href="#DejaVuSans-53"/>
       <use x="63.623047" xlink:href="#DejaVuSans-48"/>
       <use x="127.246094" xlink:href="#DejaVuSans-48"/>
      </g>
     </g>
    </g>
    <g id="xtick_3">
     <g id="line2d_3">
      <g>
       <use style="stroke:#000000;stroke-width:0.8;" x="167.368339" xlink:href="#m024c5d7212" y="252"/>
      </g>
     </g>
     <g id="text_3">
      <!-- 1000 -->
      <defs>
       <path d="M 12.40625 8.296875 
L 28.515625 8.296875 
L 28.515625 63.921875 
L 10.984375 60.40625 
L 10.984375 69.390625 
L 28.421875 72.90625 
L 38.28125 72.90625 
L 38.28125 8.296875 
L 54.390625 8.296875 
L 54.390625 0 
L 12.40625 0 
z
" id="DejaVuSans-49"/>
      </defs>
      <g transform="translate(154.643339 266.598437)scale(0.1 -0.1)">
       <use xlink:href="#DejaVuSans-49"/>
       <use x="63.623047" xlink:href="#DejaVuSans-48"/>
       <use x="127.246094" xlink:href="#DejaVuSans-48"/>
       <use x="190.869141" xlink:href="#DejaVuSans-48"/>
      </g>
     </g>
    </g>
    <g id="xtick_4">
     <g id="line2d_4">
      <g>
       <use style="stroke:#000000;stroke-width:0.8;" x="216.443417" xlink:href="#m024c5d7212" y="252"/>
      </g>
     </g>
     <g id="text_4">
      <!-- 1500 -->
      <g transform="translate(203.718417 266.598437)scale(0.1 -0.1)">
       <use xlink:href="#DejaVuSans-49"/>
       <use x="63.623047" xlink:href="#DejaVuSans-53"/>
       <use x="127.246094" xlink:href="#DejaVuSans-48"/>
       <use x="190.869141" xlink:href="#DejaVuSans-48"/>
      </g>
     </g>
    </g>
    <g id="xtick_5">
     <g id="line2d_5">
      <g>
       <use style="stroke:#000000;stroke-width:0.8;" x="265.518495" xlink:href="#m024c5d7212" y="252"/>
      </g>
     </g>
     <g id="text_5">
      <!-- 2000 -->
      <defs>
       <path d="M 19.1875 8.296875 
L 53.609375 8.296875 
L 53.609375 0 
L 7.328125 0 
L 7.328125 8.296875 
Q 12.9375 14.109375 22.625 23.890625 
Q 32.328125 33.6875 34.8125 36.53125 
Q 39.546875 41.84375 41.421875 45.53125 
Q 43.3125 49.21875 43.3125 52.78125 
Q 43.3125 58.59375 39.234375 62.25 
Q 35.15625 65.921875 28.609375 65.921875 
Q 23.96875 65.921875 18.8125 64.3125 
Q 13.671875 62.703125 7.8125 59.421875 
L 7.8125 69.390625 
Q 13.765625 71.78125 18.9375 73 
Q 24.125 74.21875 28.421875 74.21875 
Q 39.75 74.21875 46.484375 68.546875 
Q 53.21875 62.890625 53.21875 53.421875 
Q 53.21875 48.921875 51.53125 44.890625 
Q 49.859375 40.875 45.40625 35.40625 
Q 44.1875 33.984375 37.640625 27.21875 
Q 31.109375 20.453125 19.1875 8.296875 
z
" id="DejaVuSans-50"/>
      </defs>
      <g transform="translate(252.793495 266.598437)scale(0.1 -0.1)">
       <use xlink:href="#DejaVuSans-50"/>
       <use x="63.623047" xlink:href="#DejaVuSans-48"/>
       <use x="127.246094" xlink:href="#DejaVuSans-48"/>
       <use x="190.869141" xlink:href="#DejaVuSans-48"/>
      </g>
     </g>
    </g>
    <g id="xtick_6">
     <g id="line2d_6">
      <g>
       <use style="stroke:#000000;stroke-width:0.8;" x="314.593574" xlink:href="#m024c5d7212" y="252"/>
      </g>
     </g>
     <g id="text_6">
      <!-- 2500 -->
      <g transform="translate(301.868574 266.598437)scale(0.1 -0.1)">
       <use xlink:href="#DejaVuSans-50"/>
       <use x="63.623047" xlink:href="#DejaVuSans-53"/>
       <use x="127.246094" xlink:href="#DejaVuSans-48"/>
       <use x="190.869141" xlink:href="#DejaVuSans-48"/>
      </g>
     </g>
    </g>
    <g id="xtick_7">
     <g id="line2d_7">
      <g>
       <use style="stroke:#000000;stroke-width:0.8;" x="363.668652" xlink:href="#m024c5d7212" y="252"/>
      </g>
     </g>
     <g id="text_7">
      <!-- 3000 -->
      <defs>
       <path d="M 40.578125 39.3125 
Q 47.65625 37.796875 51.625 33 
Q 55.609375 28.21875 55.609375 21.1875 
Q 55.609375 10.40625 48.1875 4.484375 
Q 40.765625 -1.421875 27.09375 -1.421875 
Q 22.515625 -1.421875 17.65625 -0.515625 
Q 12.796875 0.390625 7.625 2.203125 
L 7.625 11.71875 
Q 11.71875 9.328125 16.59375 8.109375 
Q 21.484375 6.890625 26.8125 6.890625 
Q 36.078125 6.890625 40.9375 10.546875 
Q 45.796875 14.203125 45.796875 21.1875 
Q 45.796875 27.640625 41.28125 31.265625 
Q 36.765625 34.90625 28.71875 34.90625 
L 20.21875 34.90625 
L 20.21875 43.015625 
L 29.109375 43.015625 
Q 36.375 43.015625 40.234375 45.921875 
Q 44.09375 48.828125 44.09375 54.296875 
Q 44.09375 59.90625 40.109375 62.90625 
Q 36.140625 65.921875 28.71875 65.921875 
Q 24.65625 65.921875 20.015625 65.03125 
Q 15.375 64.15625 9.8125 62.3125 
L 9.8125 71.09375 
Q 15.4375 72.65625 20.34375 73.4375 
Q 25.25 74.21875 29.59375 74.21875 
Q 40.828125 74.21875 47.359375 69.109375 
Q 53.90625 64.015625 53.90625 55.328125 
Q 53.90625 49.265625 50.4375 45.09375 
Q 46.96875 40.921875 40.578125 39.3125 
z
" id="DejaVuSans-51"/>
      </defs>
      <g transform="translate(350.943652 266.598437)scale(0.1 -0.1)">
       <use xlink:href="#DejaVuSans-51"/>
       <use x="63.623047" xlink:href="#DejaVuSans-48"/>
       <use x="127.246094" xlink:href="#DejaVuSans-48"/>
       <use x="190.869141" xlink:href="#DejaVuSans-48"/>
      </g>
     </g>
    </g>
   </g>
   <g id="matplotlib.axis_2">
    <g id="ytick_1">
     <g id="line2d_8">
      <defs>
       <path d="M 0 0 
L -3.5 0 
" id="ma70ab0edc0" style="stroke:#000000;stroke-width:0.8;"/>
      </defs>
      <g>
       <use style="stroke:#000000;stroke-width:0.8;" x="54" xlink:href="#ma70ab0edc0" y="247.445652"/>
      </g>
     </g>
     <g id="text_8">
      <!-- 0 -->
      <g transform="translate(40.6375 251.244871)scale(0.1 -0.1)">
       <use xlink:href="#DejaVuSans-48"/>
      </g>
     </g>
    </g>
    <g id="ytick_2">
     <g id="line2d_9">
      <g>
       <use style="stroke:#000000;stroke-width:0.8;" x="54" xlink:href="#ma70ab0edc0" y="211.899966"/>
      </g>
     </g>
     <g id="text_9">
      <!-- 1 -->
      <g transform="translate(40.6375 215.699185)scale(0.1 -0.1)">
       <use xlink:href="#DejaVuSans-49"/>
      </g>
     </g>
    </g>
    <g id="ytick_3">
     <g id="line2d_10">
      <g>
       <use style="stroke:#000000;stroke-width:0.8;" x="54" xlink:href="#ma70ab0edc0" y="176.354281"/>
      </g>
     </g>
     <g id="text_10">
      <!-- 2 -->
      <g transform="translate(40.6375 180.1535)scale(0.1 -0.1)">
       <use xlink:href="#DejaVuSans-50"/>
      </g>
     </g>
    </g>
    <g id="ytick_4">
     <g id="line2d_11">
      <g>
       <use style="stroke:#000000;stroke-width:0.8;" x="54" xlink:href="#ma70ab0edc0" y="140.808595"/>
      </g>
     </g>
     <g id="text_11">
      <!-- 3 -->
      <g transform="translate(40.6375 144.607814)scale(0.1 -0.1)">
       <use xlink:href="#DejaVuSans-51"/>
      </g>
     </g>
    </g>
    <g id="ytick_5">
     <g id="line2d_12">
      <g>
       <use style="stroke:#000000;stroke-width:0.8;" x="54" xlink:href="#ma70ab0edc0" y="105.26291"/>
      </g>
     </g>
     <g id="text_12">
      <!-- 4 -->
      <defs>
       <path d="M 37.796875 64.3125 
L 12.890625 25.390625 
L 37.796875 25.390625 
z
M 35.203125 72.90625 
L 47.609375 72.90625 
L 47.609375 25.390625 
L 58.015625 25.390625 
L 58.015625 17.1875 
L 47.609375 17.1875 
L 47.609375 0 
L 37.796875 0 
L 37.796875 17.1875 
L 4.890625 17.1875 
L 4.890625 26.703125 
z
" id="DejaVuSans-52"/>
      </defs>
      <g transform="translate(40.6375 109.062129)scale(0.1 -0.1)">
       <use xlink:href="#DejaVuSans-52"/>
      </g>
     </g>
    </g>
    <g id="ytick_6">
     <g id="line2d_13">
      <g>
       <use style="stroke:#000000;stroke-width:0.8;" x="54" xlink:href="#ma70ab0edc0" y="69.717225"/>
      </g>
     </g>
     <g id="text_13">
      <!-- 5 -->
      <g transform="translate(40.6375 73.516443)scale(0.1 -0.1)">
       <use xlink:href="#DejaVuSans-53"/>
      </g>
     </g>
    </g>
    <g id="ytick_7">
     <g id="line2d_14">
      <g>
       <use style="stroke:#000000;stroke-width:0.8;" x="54" xlink:href="#ma70ab0edc0" y="34.171539"/>
      </g>
     </g>
     <g id="text_14">
      <!-- 6 -->
      <defs>
       <path d="M 33.015625 40.375 
Q 26.375 40.375 22.484375 35.828125 
Q 18.609375 31.296875 18.609375 23.390625 
Q 18.609375 15.53125 22.484375 10.953125 
Q 26.375 6.390625 33.015625 6.390625 
Q 39.65625 6.390625 43.53125 10.953125 
Q 47.40625 15.53125 47.40625 23.390625 
Q 47.40625 31.296875 43.53125 35.828125 
Q 39.65625 40.375 33.015625 40.375 
z
M 52.59375 71.296875 
L 52.59375 62.3125 
Q 48.875 64.0625 45.09375 64.984375 
Q 41.3125 65.921875 37.59375 65.921875 
Q 27.828125 65.921875 22.671875 59.328125 
Q 17.53125 52.734375 16.796875 39.40625 
Q 19.671875 43.65625 24.015625 45.921875 
Q 28.375 48.1875 33.59375 48.1875 
Q 44.578125 48.1875 50.953125 41.515625 
Q 57.328125 34.859375 57.328125 23.390625 
Q 57.328125 12.15625 50.6875 5.359375 
Q 44.046875 -1.421875 33.015625 -1.421875 
Q 20.359375 -1.421875 13.671875 8.265625 
Q 6.984375 17.96875 6.984375 36.375 
Q 6.984375 53.65625 15.1875 63.9375 
Q 23.390625 74.21875 37.203125 74.21875 
Q 40.921875 74.21875 44.703125 73.484375 
Q 48.484375 72.75 52.59375 71.296875 
z
" id="DejaVuSans-54"/>
      </defs>
      <g transform="translate(40.6375 37.970758)scale(0.1 -0.1)">
       <use xlink:href="#DejaVuSans-54"/>
      </g>
     </g>
    </g>
   </g>
   <g id="line2d_15">
    <path clip-path="url(#pffd482620f)" d="M 69.218182 47.605865 
L 69.414482 44.560384 
L 69.610782 51.686993 
L 69.708933 46.880098 
L 69.807083 48.274313 
L 70.003383 44.443636 
L 70.101533 45.946372 
L 70.199683 50.060325 
L 70.297834 48.462702 
L 70.494134 53.271292 
L 70.592284 53.061335 
L 70.690434 50.50647 
L 70.788584 51.138628 
L 71.083035 56.636203 
L 71.279335 54.571544 
L 71.377485 55.245889 
L 71.573786 51.830984 
L 71.770086 61.896279 
L 71.868236 62.141075 
L 72.064536 64.585645 
L 72.162687 61.011159 
L 72.260837 61.037071 
L 72.358987 61.249507 
L 72.555287 58.65852 
L 72.751587 61.832607 
L 72.849738 58.973384 
L 72.947888 59.247397 
L 73.046038 59.008648 
L 73.144188 62.627979 
L 73.242338 62.268453 
L 73.340488 65.654067 
L 73.438639 64.800063 
L 73.536789 65.707058 
L 73.634939 61.439334 
L 74.02754 64.9403 
L 74.22384 72.212919 
L 74.51829 78.903524 
L 74.61644 78.348472 
L 74.714591 78.434758 
L 74.910891 83.510623 
L 75.205341 81.418921 
L 75.597942 85.471854 
L 75.794242 82.664839 
L 75.990543 85.453099 
L 76.186843 79.833885 
L 76.284993 80.778849 
L 76.972044 70.054543 
L 77.070194 70.918127 
L 77.266495 69.644226 
L 77.364645 66.691033 
L 77.659095 70.320943 
L 77.953546 68.119124 
L 78.051696 66.924993 
L 78.149846 69.85549 
L 78.346146 66.413694 
L 78.640597 70.277505 
L 79.229498 62.136581 
L 79.327648 63.81301 
L 79.425798 63.440911 
L 79.523948 62.436362 
L 79.818399 57.114697 
L 79.916549 58.034857 
L 80.014699 61.189427 
L 80.210999 57.085472 
L 80.50545 60.92619 
L 80.6036 59.688651 
L 80.70175 62.898387 
L 80.7999 59.878397 
L 81.683252 88.02331 
L 81.781402 88.466777 
L 81.879552 89.446275 
L 81.977702 88.697703 
L 82.174003 93.413191 
L 82.272153 93.855226 
L 82.468453 90.584985 
L 82.566603 91.504646 
L 82.664753 88.92896 
L 82.762903 93.484272 
L 82.959204 90.470634 
L 83.057354 92.609993 
L 83.253654 86.714808 
L 83.449955 84.731957 
L 83.646255 79.743898 
L 83.842555 80.719296 
L 84.038856 77.789017 
L 84.137006 78.662303 
L 84.431456 82.157215 
L 84.529606 83.150373 
L 84.627756 85.527916 
L 84.725907 81.844548 
L 84.824057 83.002459 
L 85.020357 80.72159 
L 85.314808 88.631828 
L 85.412958 84.7523 
L 85.609258 91.524609 
L 85.707408 85.853212 
L 85.805558 86.712628 
L 86.296309 95.66258 
L 86.394459 96.021634 
L 86.492609 95.774405 
L 86.59076 91.518681 
L 86.68891 96.081988 
L 86.78706 95.742266 
L 86.88521 96.318425 
L 86.98336 93.994721 
L 87.08151 94.336007 
L 87.179661 94.028519 
L 87.277811 92.462125 
L 87.375961 97.534947 
L 87.474111 97.420594 
L 87.572261 94.724299 
L 87.670411 98.711533 
L 87.768561 98.333048 
L 87.964862 100.31742 
L 88.161162 97.802584 
L 88.357462 95.778361 
L 88.455613 98.380438 
L 88.553763 103.936214 
L 88.651913 103.421719 
L 88.750063 103.798139 
L 88.848213 105.086801 
L 88.946363 104.430933 
L 89.044514 104.764169 
L 89.142664 105.51858 
L 89.338964 103.053786 
L 89.437114 103.254116 
L 89.731565 106.58885 
L 89.927865 102.284438 
L 90.222315 106.535918 
L 90.320466 108.225174 
L 90.418616 107.566259 
L 90.516766 108.594157 
L 90.614916 108.235512 
L 90.811216 110.995665 
L 91.007517 114.024499 
L 91.105667 114.389408 
L 91.400117 118.014641 
L 91.596418 119.361566 
L 91.694568 119.418298 
L 91.890868 123.443767 
L 91.989018 122.887539 
L 92.087168 125.555602 
L 92.185319 125.018909 
L 92.381619 127.392882 
L 92.577919 126.419887 
L 92.676069 128.927114 
L 92.774219 126.227552 
L 92.97052 128.640032 
L 93.16682 127.565992 
L 93.26497 128.100484 
L 93.755721 125.269631 
L 93.853871 125.439782 
L 93.952021 127.37061 
L 94.050171 123.939761 
L 94.148322 124.562283 
L 94.246472 123.285227 
L 94.442772 126.197582 
L 94.540922 125.9183 
L 94.639072 123.410443 
L 94.737223 123.681776 
L 94.835373 125.565662 
L 94.933523 125.018943 
L 95.129823 128.353212 
L 95.227973 127.491571 
L 95.326124 127.59715 
L 95.816874 134.100742 
L 95.915024 132.646833 
L 96.013175 135.969764 
L 96.307625 131.326117 
L 96.405775 131.975017 
L 96.602076 135.263829 
L 96.700226 139.306001 
L 96.896526 137.361514 
L 96.994676 138.082622 
L 97.092826 137.684421 
L 97.289127 139.366298 
L 97.387277 139.671091 
L 97.485427 141.985477 
L 97.779877 140.584691 
L 98.270628 150.069785 
L 98.368778 150.508442 
L 98.565079 149.835872 
L 98.663229 149.823083 
L 99.055829 157.313286 
L 99.15398 157.825732 
L 99.35028 162.499977 
L 99.44843 161.469098 
L 99.64473 164.196294 
L 99.742881 164.978167 
L 99.939181 163.853048 
L 100.331782 166.365573 
L 100.528082 170.547692 
L 101.018833 165.463771 
L 101.313283 166.305173 
L 101.607734 169.484866 
L 101.804034 169.852125 
L 101.902184 169.611089 
L 102.196635 170.953084 
L 102.294785 169.972443 
L 102.392935 171.236579 
L 102.491085 170.75718 
L 102.589235 170.96777 
L 102.687385 170.302946 
L 102.785535 171.131639 
L 102.981836 174.125552 
L 103.079986 174.249633 
L 103.276286 174.017696 
L 103.570737 172.192301 
L 103.865187 174.499637 
L 104.061487 176.046217 
L 104.159638 175.748545 
L 105.53374 184.939261 
L 105.63189 184.655683 
L 105.73004 184.888528 
L 105.82819 185.63143 
L 106.024491 185.184789 
L 106.318941 185.92676 
L 106.417091 185.720933 
L 106.613392 187.688897 
L 106.711542 188.794695 
L 106.809692 188.582582 
L 106.907842 188.965347 
L 107.005992 188.455506 
L 107.202293 189.245907 
L 107.398593 191.507135 
L 107.496743 191.712359 
L 107.693043 193.446454 
L 107.791193 193.687865 
L 108.085644 195.414372 
L 108.281944 195.699366 
L 108.674545 193.603634 
L 108.870845 195.099213 
L 109.067145 196.876846 
L 109.165296 196.396344 
L 109.263446 196.723589 
L 109.557896 198.575803 
L 109.656046 198.115004 
L 110.048647 202.119064 
L 110.244947 203.09902 
L 110.539398 206.155941 
L 110.735698 206.765959 
L 110.833848 206.914849 
L 111.324599 208.763755 
L 111.520899 208.394954 
L 111.7172 210.646096 
L 111.81535 210.61509 
L 112.01165 210.264486 
L 112.207951 211.773274 
L 112.306101 211.999365 
L 112.502401 213.533484 
L 112.600551 213.857014 
L 112.895002 215.923938 
L 113.582053 219.95592 
L 113.680203 219.737146 
L 114.072803 221.759417 
L 114.170954 221.462457 
L 114.367254 222.473892 
L 114.465404 222.546725 
L 114.563554 223.105435 
L 114.661704 223.062737 
L 115.054305 224.259032 
L 115.446906 225.557442 
L 115.545056 225.517637 
L 115.643206 225.743049 
L 115.741356 225.659835 
L 115.937656 226.414832 
L 116.035807 226.558308 
L 116.133957 227.610739 
L 116.330257 227.377968 
L 116.428407 227.847509 
L 116.526557 224.93016 
L 116.624708 225.323853 
L 116.821008 225.017531 
L 116.919158 225.106179 
L 117.017308 224.906574 
L 117.115458 223.471881 
L 117.213609 223.704443 
L 117.508059 219.754101 
L 117.606209 219.903549 
L 118.39141 212.431799 
L 118.489561 215.10589 
L 118.587711 214.285016 
L 118.784011 214.964021 
L 118.882161 212.834403 
L 118.980311 213.192957 
L 119.274762 216.518969 
L 119.372912 216.218125 
L 119.569212 218.37852 
L 120.354414 224.315405 
L 120.452564 224.237981 
L 120.550714 224.585165 
L 120.747014 223.50047 
L 120.943314 225.370877 
L 121.139615 224.326176 
L 121.237765 224.282562 
L 121.335915 225.422132 
L 121.434065 223.976725 
L 121.532215 223.998293 
L 121.728516 225.013146 
L 121.826666 224.109277 
L 122.022966 225.090088 
L 122.121116 223.51701 
L 122.317417 224.678035 
L 122.415567 224.20543 
L 122.611867 225.342837 
L 122.710017 225.280402 
L 122.808167 225.398751 
L 122.906318 225.242342 
L 123.102618 226.603899 
L 123.298918 226.711544 
L 123.397068 228.673 
L 123.593369 225.797838 
L 123.691519 224.220017 
L 123.789669 225.039275 
L 123.985969 222.69203 
L 124.084119 223.923697 
L 124.18227 223.827016 
L 124.28042 222.163342 
L 124.37857 222.785252 
L 124.47672 222.595817 
L 124.67302 222.916079 
L 124.771171 222.541818 
L 124.967471 222.544729 
L 125.065621 222.438404 
L 125.163771 221.99888 
L 125.360072 222.279051 
L 125.458222 222.861583 
L 125.752672 226.472294 
L 126.047123 228.481183 
L 126.145273 227.882595 
L 126.243423 229.340437 
L 126.341573 229.288875 
L 126.439723 229.772602 
L 126.537873 229.63552 
L 126.636024 228.198045 
L 126.930474 228.79548 
L 127.126774 229.034359 
L 127.421225 224.359796 
L 127.519375 224.382569 
L 127.617525 224.518878 
L 127.715675 223.114111 
L 128.010126 223.675063 
L 128.206426 224.764373 
L 128.304576 225.176383 
L 128.500877 224.6884 
L 128.599027 226.54669 
L 128.697177 226.53783 
L 128.893477 225.211748 
L 129.089777 225.255925 
L 129.384228 228.957301 
L 129.482378 228.873246 
L 129.580528 229.206747 
L 129.678678 230.290517 
L 129.874979 227.838405 
L 129.973129 228.19493 
L 130.169429 226.709984 
L 130.267579 226.178369 
L 130.36573 226.271153 
L 130.46388 226.639761 
L 130.56203 226.184602 
L 130.66018 226.82385 
L 130.95463 224.295892 
L 131.052781 224.114152 
L 131.150931 222.619263 
L 131.249081 222.849687 
L 131.347231 224.04887 
L 131.445381 223.527427 
L 131.543531 221.299154 
L 131.641682 221.722903 
L 131.739832 221.609627 
L 131.936132 220.343783 
L 132.034282 218.702373 
L 132.230583 220.294873 
L 132.426883 219.174729 
L 132.623183 218.361673 
L 132.819483 220.824255 
L 133.113934 223.909151 
L 133.212084 223.270155 
L 133.310234 223.590134 
L 133.408384 221.698034 
L 133.506535 223.810558 
L 133.604685 222.103689 
L 133.899135 225.375385 
L 133.997285 225.956093 
L 134.095435 224.188543 
L 134.193586 224.294873 
L 134.488036 226.149546 
L 134.684336 225.500821 
L 134.978787 224.980805 
L 135.076937 225.071861 
L 135.175087 225.649156 
L 135.273237 225.186802 
L 135.469538 227.813064 
L 135.567688 229.483418 
L 135.665838 229.466295 
L 135.763988 229.708572 
L 135.862138 229.580423 
L 136.058439 232.611565 
L 136.156589 232.493133 
L 136.352889 231.807957 
L 136.74549 233.288638 
L 137.03994 231.915958 
L 137.13809 231.912768 
L 137.334391 230.575453 
L 137.432541 230.619331 
L 137.530691 230.822019 
L 137.628841 230.665232 
L 137.923292 227.48085 
L 138.021442 227.601219 
L 138.119592 226.730697 
L 138.315892 227.675941 
L 138.512193 227.652007 
L 138.610343 227.97183 
L 138.708493 226.92902 
L 139.002943 228.698924 
L 139.101093 228.837309 
L 139.199244 230.60345 
L 139.297394 230.491355 
L 139.493694 230.37352 
L 139.689994 232.60575 
L 139.886295 234.458908 
L 139.984445 234.551906 
L 140.180745 235.778164 
L 140.278895 235.73747 
L 140.573346 235.927949 
L 140.671496 237.12139 
L 140.769646 237.108951 
L 140.867796 236.984508 
L 141.064097 237.364701 
L 141.162247 237.35024 
L 141.358547 237.638636 
L 141.554847 237.612607 
L 141.652998 237.90038 
L 141.751148 237.846104 
L 141.849298 237.81004 
L 142.045598 238.155064 
L 142.732649 238.262183 
L 142.92895 238.539834 
L 143.2234 238.634553 
L 143.4197 238.51733 
L 143.517851 238.654471 
L 143.616001 238.568305 
L 143.910451 238.942254 
L 144.499352 238.945288 
L 144.597502 238.837764 
L 144.695652 238.959665 
L 145.088253 238.801931 
L 145.186403 238.822293 
L 145.382704 239.026979 
L 145.579004 238.980904 
L 145.775304 238.692155 
L 145.873454 238.693085 
L 146.069755 238.578591 
L 146.266055 238.649324 
L 146.364205 238.575856 
L 146.462355 238.673993 
L 146.658656 238.5914 
L 146.854956 238.886198 
L 147.051256 238.702706 
L 147.345707 238.858833 
L 147.542007 238.715521 
L 147.640157 238.97437 
L 147.836457 238.74623 
L 148.032758 238.955031 
L 148.425358 238.875919 
L 148.621659 238.882122 
L 148.817959 238.640422 
L 149.112409 238.858045 
L 149.30871 238.700959 
L 149.40686 238.892931 
L 149.60316 238.64908 
L 149.799461 238.852861 
L 150.192061 238.626148 
L 150.486512 238.87765 
L 150.682812 238.63526 
L 151.468013 238.47098 
L 151.762464 238.804751 
L 151.860614 238.71509 
L 152.056914 239.014548 
L 152.253215 238.912982 
L 152.449515 238.697442 
L 152.743965 239.111322 
L 153.234716 239.335596 
L 153.332866 239.49664 
L 153.627317 239.350038 
L 153.725467 239.367661 
L 153.823617 239.528207 
L 153.921767 239.424989 
L 154.216218 239.959525 
L 154.510668 240.31031 
L 154.706968 240.248497 
L 154.903269 240.126345 
L 155.197719 240.288503 
L 155.295869 240.057616 
L 155.39402 240.116716 
L 155.49217 239.994233 
L 155.59032 240.120592 
L 156.277371 239.446841 
L 156.473671 239.175211 
L 156.866272 239.297724 
L 157.160722 239.274274 
L 157.455173 239.592644 
L 158.044074 239.308835 
L 158.436674 239.399843 
L 158.731125 239.374534 
L 158.927425 239.528059 
L 159.418176 239.41084 
L 159.516326 239.477793 
L 159.614476 239.786069 
L 159.712626 239.680397 
L 159.908927 239.775987 
L 160.301527 239.679781 
L 160.595978 239.898513 
L 160.792278 239.664043 
L 160.988578 239.711252 
L 161.086729 239.618538 
L 161.283029 239.641625 
L 161.479329 239.666263 
L 161.577479 239.532241 
L 161.77378 239.754969 
L 162.16638 239.921718 
L 162.264531 240.181754 
L 162.362681 240.13913 
L 162.558981 240.010251 
L 162.755281 240.158397 
L 162.853431 240.066767 
L 163.049732 240.209669 
L 163.540483 240.119475 
L 163.834933 240.130159 
L 164.129383 240.312149 
L 164.227534 240.187907 
L 164.521984 240.27324 
L 164.620134 240.215414 
L 164.816435 240.253523 
L 164.914585 240.09277 
L 165.307185 240.232586 
L 165.699786 240.210442 
L 165.994236 240.108424 
L 166.779438 239.619076 
L 166.877588 239.744767 
L 167.270189 239.626527 
L 167.466489 239.576325 
L 167.662789 239.389973 
L 167.859089 239.442947 
L 168.05539 239.371542 
L 168.742441 239.928904 
L 168.938741 239.93472 
L 169.036891 240.102841 
L 169.527642 239.892509 
L 169.625792 239.939956 
L 169.822093 239.815909 
L 170.018393 240.050414 
L 170.214693 239.926029 
L 170.312843 239.675345 
L 170.509144 239.78375 
L 170.607294 239.740607 
L 170.803594 239.850185 
L 170.901744 239.898109 
L 171.098045 239.851045 
L 171.392495 240.162115 
L 171.588795 240.129167 
L 171.785096 240.384937 
L 172.079546 240.342283 
L 172.177696 240.396403 
L 172.373997 240.710823 
L 172.570297 240.817535 
L 172.668447 240.667622 
L 172.766597 240.824211 
L 172.962898 240.672416 
L 173.453648 240.895461 
L 173.748099 240.559341 
L 173.846249 240.355951 
L 174.042549 240.481214 
L 174.337 240.307069 
L 174.63145 240.543927 
L 174.827751 240.569747 
L 175.024051 240.709399 
L 175.318501 240.550176 
L 176.300003 241.016167 
L 176.496303 240.847526 
L 177.085204 240.747902 
L 177.183354 240.509735 
L 177.379655 240.642635 
L 177.477805 240.679877 
L 177.674105 240.504484 
L 177.870405 240.528666 
L 178.361156 240.550032 
L 178.557457 240.483589 
L 178.851907 240.47642 
L 178.950057 240.489633 
L 179.048207 240.384194 
L 179.146357 240.551 
L 179.440808 240.448498 
L 179.637108 240.680588 
L 179.735258 240.678074 
L 179.931559 240.477076 
L 180.324159 240.559899 
L 180.42231 240.721277 
L 180.52046 240.509197 
L 180.71676 240.669498 
L 180.91306 240.556437 
L 181.109361 240.599098 
L 181.403811 240.694263 
L 181.501961 240.623503 
L 181.796412 240.799795 
L 182.385313 240.425027 
L 182.483463 240.653456 
L 182.679763 240.561189 
L 183.072364 240.504994 
L 183.268664 240.216854 
L 183.464964 240.33648 
L 183.759415 240.155987 
L 183.955715 240.174987 
L 184.250166 240.372701 
L 184.544616 240.284194 
L 184.937217 240.03896 
L 185.035367 240.096316 
L 185.231667 240.329487 
L 185.526118 240.374471 
L 185.820568 240.297036 
L 186.016868 240.243774 
L 186.213169 240.075717 
L 186.311319 240.042176 
L 186.409469 240.167768 
L 186.605769 240.137797 
L 186.70392 240.075238 
L 186.90022 240.339811 
L 187.390971 239.957103 
L 187.881721 240.591081 
L 188.274322 240.345582 
L 188.470622 240.242086 
L 188.765073 240.244344 
L 189.059523 240.115214 
L 189.157673 240.381236 
L 189.844725 239.74664 
L 190.041025 239.890063 
L 190.237325 239.932775 
L 190.924376 239.988753 
L 191.022526 240.045938 
L 191.218827 239.603457 
L 191.316977 239.784062 
L 191.513277 239.711376 
L 191.611427 239.875529 
L 191.709578 239.788763 
L 191.807728 239.85893 
L 192.004028 239.723029 
L 192.102178 239.768606 
L 192.396629 240.157966 
L 192.592929 240.418508 
L 192.789229 240.244398 
L 193.08368 240.198167 
L 193.27998 240.338767 
L 194.163331 239.763526 
L 194.555932 239.651851 
L 194.752232 239.797902 
L 194.948533 239.847919 
L 195.046683 240.075387 
L 195.341133 239.920306 
L 195.537434 240.141487 
L 195.831884 240.107737 
L 196.126335 240.075997 
L 196.224485 240.085469 
L 196.518935 239.794748 
L 196.715236 239.73019 
L 197.500437 239.398489 
L 197.696737 239.4332 
L 197.991188 239.608847 
L 198.285638 239.511281 
L 198.678239 239.587337 
L 198.776389 239.483443 
L 198.972689 239.699178 
L 199.168989 239.389448 
L 200.150491 239.897584 
L 200.248641 239.809773 
L 200.346791 239.896365 
L 200.543092 239.779234 
L 201.131993 240.09558 
L 202.604245 238.991519 
L 202.800545 238.981406 
L 202.996846 238.851088 
L 203.487596 238.797713 
L 203.683897 238.500857 
L 203.978347 238.200695 
L 204.370948 238.195716 
L 204.469098 238.162758 
L 204.665398 237.681368 
L 204.763548 237.775145 
L 204.861699 237.679398 
L 204.959849 237.887494 
L 205.4506 236.975079 
L 205.74505 237.316673 
L 205.8432 237.165712 
L 206.235801 237.282746 
L 206.333951 237.318704 
L 206.432101 237.096996 
L 206.628401 237.482221 
L 206.726552 237.287563 
L 206.824702 237.425124 
L 206.922852 237.297246 
L 207.119152 237.343999 
L 207.413603 238.042518 
L 207.511753 238.169859 
L 207.904353 237.912309 
L 208.100654 237.587425 
L 208.395104 237.662891 
L 208.689555 237.483839 
L 208.787705 237.542219 
L 209.671056 236.158447 
L 209.867357 236.381658 
L 210.161807 236.156525 
L 210.456258 236.422937 
L 210.554408 236.653219 
L 210.848858 236.227317 
L 211.045158 236.432882 
L 211.241459 236.497642 
L 211.437759 236.644902 
L 211.535909 236.540152 
L 211.73221 236.262002 
L 212.615561 235.928626 
L 212.713711 236.206708 
L 212.910011 235.983689 
L 213.008162 236.04511 
L 213.400762 236.737806 
L 213.597063 237.101692 
L 213.695213 236.903409 
L 213.793363 236.969929 
L 213.989663 237.305685 
L 214.087813 237.382372 
L 214.284114 237.195111 
L 214.578564 237.620178 
L 214.676714 237.621617 
L 215.167465 238.091412 
L 215.461916 237.549533 
L 215.560066 237.595858 
L 215.756366 237.965138 
L 215.854516 237.822006 
L 216.148967 238.075642 
L 216.247117 237.961527 
L 216.345267 238.072326 
L 216.639717 237.546045 
L 216.737868 237.668067 
L 216.836018 237.560762 
L 216.934168 237.737009 
L 217.130468 237.343204 
L 217.228618 237.439569 
L 217.326768 237.504707 
L 217.424919 237.714121 
L 217.719369 237.388227 
L 217.915669 237.353638 
L 218.01382 237.273024 
L 218.21012 237.342177 
L 218.40642 237.271161 
L 218.50457 237.106427 
L 218.700871 237.3858 
L 218.897171 237.333913 
L 218.995321 237.296334 
L 219.191621 237.62995 
L 219.289772 237.641733 
L 219.387922 237.476283 
L 219.584222 237.764564 
L 219.976823 238.112412 
L 220.074973 237.942303 
L 220.369423 238.075971 
L 220.467574 238.117924 
L 220.762024 237.221502 
L 220.958324 237.369316 
L 221.154625 237.094943 
L 221.252775 237.03011 
L 221.350925 237.174076 
L 221.449075 237.009911 
L 221.645375 237.199649 
L 221.841676 236.917974 
L 222.136126 237.37331 
L 222.234276 237.382104 
L 222.528727 237.951705 
L 222.725027 238.281302 
L 222.823177 238.11266 
L 222.921327 238.169064 
L 223.019478 238.360284 
L 223.313928 238.228292 
L 223.412078 238.361549 
L 223.608379 237.989324 
L 223.804679 238.422875 
L 223.902829 238.482456 
L 224.000979 238.715307 
L 224.197279 238.307991 
L 224.49173 238.42586 
L 224.58988 238.447247 
L 224.78618 238.853328 
L 224.982481 238.809985 
L 225.080631 238.750328 
L 225.276931 239.10994 
L 225.375081 239.103091 
L 225.669532 239.327879 
L 225.767682 239.380585 
L 225.963982 239.273653 
L 226.160283 239.734298 
L 226.356583 239.590402 
L 227.534385 240.215239 
L 227.730685 240.094872 
L 228.123286 239.588704 
L 228.221436 239.871774 
L 228.319586 239.799194 
L 228.614037 239.924304 
L 228.810337 239.736435 
L 229.595538 239.54734 
L 229.791838 239.451797 
L 230.086289 239.734889 
L 230.282589 239.697974 
L 230.57704 239.629252 
L 230.77334 239.677488 
L 231.165941 239.842556 
L 231.362241 239.739904 
L 231.558541 239.859395 
L 231.852992 240.203028 
L 232.147442 240.161698 
L 232.343742 240.313655 
L 232.540043 240.359361 
L 232.834493 240.323826 
L 232.932643 240.344626 
L 233.128944 240.273846 
L 233.325244 240.414174 
L 234.110445 240.564509 
L 234.306746 240.290708 
L 234.699346 240.575431 
L 235.288247 240.807918 
L 235.484548 240.902698 
L 235.680848 240.827792 
L 236.367899 241.391404 
L 236.564199 241.371183 
L 236.7605 241.403689 
L 236.85865 241.403065 
L 236.9568 241.541418 
L 237.1531 241.470754 
L 237.3494 241.620722 
L 237.938301 241.646515 
L 238.134602 241.798185 
L 238.330902 241.789685 
L 238.527202 241.862149 
L 239.017953 241.920696 
L 239.214253 241.957857 
L 239.410554 241.851052 
L 239.901305 242.016784 
L 240.097605 241.816706 
L 240.293905 241.70332 
L 240.588356 241.709924 
L 240.882806 241.758414 
L 240.980956 241.738151 
L 241.177257 241.550035 
L 241.668007 241.609604 
L 242.060608 241.278827 
L 242.158758 241.345622 
L 242.551359 241.094978 
L 242.747659 241.185954 
L 243.23841 241.283653 
L 243.33656 241.335691 
L 243.53286 241.217412 
L 243.729161 241.138205 
L 243.827311 241.178269 
L 244.121761 241.528257 
L 244.219911 241.637738 
L 244.318062 241.50151 
L 244.514362 241.558127 
L 244.710662 241.531168 
L 245.201413 241.59194 
L 245.594014 241.733625 
L 246.379215 241.244428 
L 246.575515 241.461815 
L 246.771816 241.401037 
L 246.968116 241.330854 
L 247.164416 241.347834 
L 247.262566 241.275409 
L 247.360716 241.35244 
L 247.557017 241.197976 
L 247.949617 241.264864 
L 248.145918 241.403064 
L 248.342218 241.656367 
L 248.538518 241.470138 
L 248.734819 241.448412 
L 249.32372 241.491766 
L 249.52002 241.640021 
L 250.108921 241.768823 
L 250.305221 241.585947 
L 251.286723 241.77364 
L 251.483023 241.665669 
L 251.777474 241.714644 
L 252.170074 241.68009 
L 252.366374 241.796076 
L 252.758975 241.792324 
L 252.955275 241.819019 
L 253.151576 241.808573 
L 253.642327 242.018184 
L 253.740477 242.116364 
L 253.936777 242.110341 
L 254.231227 242.027033 
L 254.427528 241.882332 
L 254.525678 241.994478 
L 254.623828 241.715766 
L 254.721978 241.85372 
L 254.918279 241.808586 
L 255.114579 241.854766 
L 255.70348 241.728714 
L 255.99793 241.770903 
L 256.194231 241.713245 
L 256.488681 241.897051 
L 256.586831 241.97732 
L 256.783132 241.884984 
L 256.881282 241.90879 
L 257.175732 241.583674 
L 257.470183 241.556344 
L 257.666483 241.118404 
L 258.059084 240.762089 
L 258.255384 240.718743 
L 258.549834 240.270857 
L 258.746135 240.153022 
L 258.844285 239.921102 
L 259.040585 240.003703 
L 259.236885 239.925487 
L 259.433186 239.967512 
L 259.629486 240.34052 
L 259.923937 240.63919 
L 260.120237 240.472934 
L 260.316537 240.568692 
L 260.414687 240.567425 
L 260.610988 240.782234 
L 261.199889 240.910344 
L 261.396189 240.245875 
L 262.18139 239.184937 
L 262.27954 239.313751 
L 262.573991 238.957766 
L 262.672141 238.633524 
L 262.868441 238.705587 
L 263.064742 238.636214 
L 263.162892 238.663219 
L 263.261042 239.120846 
L 263.359192 238.847388 
L 263.457342 238.893346 
L 263.653643 238.894991 
L 263.751793 238.695805 
L 263.948093 238.838638 
L 264.340694 239.165006 
L 264.438844 239.136062 
L 264.635144 239.327368 
L 265.224045 238.784025 
L 265.322195 239.111746 
L 265.420345 238.962585 
L 265.518495 239.075634 
L 265.616646 238.976534 
L 265.812946 239.155811 
L 266.009246 239.206383 
L 266.205547 239.050235 
L 266.303697 239.03478 
L 266.401847 239.258854 
L 266.499997 239.034887 
L 266.892598 239.222576 
L 267.088898 239.244366 
L 267.285198 239.410385 
L 267.383348 239.332457 
L 267.775949 239.8912 
L 268.0704 239.499463 
L 268.2667 239.588562 
L 268.36485 239.501186 
L 268.757451 240.079499 
L 268.855601 240.005749 
L 268.953751 239.774159 
L 269.051901 239.825552 
L 269.150051 239.896016 
L 269.346352 239.507054 
L 269.738952 239.210079 
L 270.033403 239.443243 
L 270.229703 239.189009 
L 270.622304 239.171975 
L 270.818604 238.996627 
L 271.014904 239.322192 
L 271.113054 239.166696 
L 271.309355 239.480161 
L 271.407505 239.344685 
L 271.505655 239.46486 
L 271.701955 239.072264 
L 271.800106 238.998872 
L 271.996406 239.152556 
L 272.094556 239.201513 
L 272.290856 238.853153 
L 272.389006 238.867219 
L 273.076058 238.170357 
L 273.370508 238.287106 
L 273.468658 238.213813 
L 273.566808 238.609343 
L 273.664959 238.539165 
L 273.763109 238.616823 
L 274.54831 238.019085 
L 274.64646 238.119983 
L 274.84276 237.844151 
L 275.039061 237.727142 
L 275.333511 237.844895 
L 275.529811 237.687506 
L 275.726112 237.76232 
L 275.824262 237.659855 
L 276.118712 238.175535 
L 276.216863 237.769779 
L 276.315013 237.813754 
L 276.609463 237.429866 
L 276.805764 237.918891 
L 277.100214 238.462957 
L 277.296514 238.395026 
L 277.394664 238.420471 
L 277.689115 238.165918 
L 277.885415 238.406799 
L 277.983565 238.079952 
L 278.081716 238.202082 
L 278.179866 238.637507 
L 278.278016 238.456766 
L 278.572466 239.086916 
L 278.965067 238.210193 
L 279.063217 238.211365 
L 279.161367 238.350309 
L 279.357668 238.115181 
L 279.652118 238.188693 
L 279.848418 238.036435 
L 279.946569 238.341772 
L 280.142869 238.309969 
L 280.241019 238.609168 
L 280.535469 238.180391 
L 280.73177 238.518231 
L 280.82992 238.891907 
L 281.02622 238.433502 
L 281.222521 237.944209 
L 281.418821 237.813613 
L 281.615121 237.774793 
L 281.713271 237.384897 
L 281.909572 237.457101 
L 282.204022 237.009104 
L 282.498473 237.439883 
L 282.596623 237.358198 
L 282.694773 237.460367 
L 282.792923 237.274472 
L 283.479974 239.100839 
L 283.578124 238.859659 
L 283.774425 239.393751 
L 283.970725 239.061777 
L 284.068875 239.048991 
L 284.167025 239.279858 
L 284.363326 238.913745 
L 284.559626 239.137823 
L 284.657776 239.079844 
L 284.854076 239.141919 
L 285.050377 238.760807 
L 285.344827 238.426577 
L 285.541127 238.602928 
L 285.639278 238.596065 
L 285.737428 238.237878 
L 285.835578 238.408977 
L 286.031878 239.049088 
L 286.130028 238.857271 
L 286.326329 239.040152 
L 286.424479 238.835951 
L 286.620779 238.983234 
L 287.11153 238.93036 
L 287.504131 239.363187 
L 287.602281 239.378109 
L 287.798581 239.778857 
L 287.994881 239.698535 
L 288.093032 240.019941 
L 288.191182 239.900021 
L 288.681933 240.250016 
L 288.780083 240.116165 
L 288.878233 240.484149 
L 288.976383 240.239263 
L 289.074533 240.444377 
L 289.368984 240.080354 
L 289.565284 240.132152 
L 290.056035 239.982712 
L 290.252335 240.197772 
L 290.448635 240.510885 
L 290.644936 240.214179 
L 291.430137 241.257497 
L 291.822738 241.136466 
L 291.920888 241.037296 
L 292.117188 240.354147 
L 292.215338 240.400086 
L 292.313488 240.036177 
L 292.411638 240.096579 
L 292.509789 240.300788 
L 292.902389 240.076218 
L 293.687591 240.063378 
L 293.785741 240.241612 
L 293.883891 240.05121 
L 294.178341 240.711492 
L 294.276491 240.817276 
L 294.472792 240.550176 
L 294.570942 240.580753 
L 294.865392 240.294289 
L 295.061693 240.055955 
L 295.356143 239.39512 
L 295.454293 239.440645 
L 295.748744 239.26987 
L 295.945044 239.413816 
L 296.141344 239.357724 
L 296.239495 239.524501 
L 296.533945 239.245114 
L 296.632095 239.275312 
L 296.828396 238.906186 
L 296.926546 238.975259 
L 297.122846 238.914244 
L 297.319146 239.232761 
L 297.417296 239.168047 
L 297.515447 239.242355 
L 297.613597 239.136967 
L 297.908047 239.361405 
L 298.202498 238.846915 
L 298.398798 239.021036 
L 298.595098 238.958097 
L 298.791399 239.282546 
L 298.889549 239.196607 
L 299.085849 239.563144 
L 299.47845 239.457529 
L 299.87105 239.048103 
L 300.067351 239.462752 
L 300.459951 239.516734 
L 300.558101 239.694409 
L 300.754402 239.559251 
L 300.852552 239.688859 
L 300.950702 239.358355 
L 301.048852 239.399052 
L 301.245153 239.147157 
L 301.539603 239.370309 
L 301.834054 239.818387 
L 302.128504 239.972365 
L 302.324804 240.127215 
L 302.521105 240.099 
L 302.815555 240.3614 
L 303.011855 240.65019 
L 303.110006 240.764215 
L 303.306306 240.551132 
L 303.993357 240.112893 
L 304.189657 240.129196 
L 304.582258 240.45404 
L 304.778558 240.311165 
L 304.974859 240.13135 
L 305.76006 240.930624 
L 306.05451 240.792778 
L 306.250811 240.767649 
L 306.447111 240.433002 
L 306.643411 240.784097 
L 306.741561 240.710008 
L 306.839712 240.617872 
L 307.036012 240.874413 
L 307.232312 240.47486 
L 307.330462 240.742381 
L 307.526763 240.561589 
L 308.213814 240.438468 
L 308.410114 240.660756 
L 308.606414 240.366839 
L 309.097165 240.804903 
L 309.195315 241.018968 
L 309.293465 240.918776 
L 309.489766 241.128246 
L 309.980517 241.191541 
L 310.176817 240.991345 
L 310.373117 240.908893 
L 310.569417 241.044763 
L 310.667568 241.012482 
L 310.863868 241.308557 
L 310.962018 241.244983 
L 311.060168 241.356832 
L 311.452769 240.923679 
L 311.649069 240.905448 
L 311.747219 240.922893 
L 312.13982 241.282379 
L 312.33612 241.205693 
L 312.532421 241.002202 
L 312.630571 240.974446 
L 313.023171 240.320963 
L 313.415772 240.4995 
L 313.612072 240.560753 
L 313.808373 240.389679 
L 313.906523 240.307628 
L 314.102823 240.378677 
L 314.299123 240.360445 
L 314.495424 240.513807 
L 314.789874 240.242601 
L 314.986175 240.482099 
L 315.084325 240.469381 
L 315.476925 240.824575 
L 315.575075 240.736123 
L 315.869526 240.985576 
L 316.163976 241.093699 
L 316.360277 241.30659 
L 316.458427 241.363229 
L 316.752877 242.031102 
L 316.949178 242.013327 
L 317.047328 242.012005 
L 317.341778 241.704872 
L 317.439928 241.631164 
L 317.636229 241.914537 
L 317.734379 241.8211 
L 317.930679 241.917864 
L 318.028829 241.888774 
L 318.22513 242.014662 
L 318.814031 241.934714 
L 319.206631 242.100111 
L 319.893682 241.477742 
L 319.991833 241.525389 
L 320.384433 241.21915 
L 320.482583 241.156219 
L 320.678884 240.90121 
L 321.071484 240.759597 
L 321.267785 240.560735 
L 321.464085 240.754448 
L 321.660385 240.904042 
L 321.856686 240.80808 
L 322.052986 240.865897 
L 322.249286 241.077311 
L 322.445586 240.980245 
L 322.641887 241.157 
L 322.838187 241.197082 
L 323.034487 241.271037 
L 323.230788 241.588255 
L 323.525238 241.369626 
L 323.819689 241.631528 
L 323.917839 241.496832 
L 324.015989 241.642481 
L 324.212289 241.59617 
L 324.40859 241.657437 
L 324.60489 241.643962 
L 324.89934 241.444113 
L 325.095641 241.501463 
L 325.291941 241.279314 
L 325.390091 241.225426 
L 325.488241 241.456631 
L 325.782692 241.267549 
L 325.880842 241.405586 
L 326.077142 241.321909 
L 326.469743 241.078186 
L 326.764193 241.317562 
L 327.058644 241.262141 
L 327.353094 241.599208 
L 327.549395 241.340329 
L 327.647545 241.222696 
L 327.745695 241.329554 
L 327.941995 241.313988 
L 328.138296 241.442637 
L 328.334596 241.687128 
L 328.629046 241.814594 
L 328.825347 241.835432 
L 328.923497 241.882619 
L 329.119797 241.710104 
L 329.316097 241.718949 
L 329.610548 241.918512 
L 330.395749 241.692018 
L 330.592049 241.537086 
L 331.0828 241.307141 
L 331.279101 241.066943 
L 331.475401 241.172016 
L 332.456902 240.954886 
L 332.849503 241.368613 
L 333.045803 241.294681 
L 333.242104 241.484569 
L 333.438404 241.524672 
L 333.831005 241.621907 
L 334.125455 241.605906 
L 334.419906 241.296792 
L 334.714356 240.943495 
L 334.910656 240.818435 
L 335.008807 240.902061 
L 335.106957 240.795224 
L 335.401407 240.916084 
L 335.499557 240.545237 
L 335.794008 240.646357 
L 335.990308 240.49882 
L 336.088458 240.528531 
L 336.284759 240.865503 
L 336.481059 240.790698 
L 336.579209 240.976165 
L 336.677359 240.699834 
L 336.87366 240.938852 
L 337.06996 240.887959 
L 337.26626 240.84139 
L 337.36441 240.618233 
L 337.46256 240.976399 
L 337.560711 240.857427 
L 337.658861 240.921593 
L 337.757011 240.807761 
L 338.051461 240.983827 
L 338.247762 240.925024 
L 338.542212 240.864758 
L 338.738513 241.359694 
L 339.032963 241.403925 
L 339.229263 241.470754 
L 339.523714 241.949527 
L 339.720014 242.031892 
L 340.014465 241.725427 
L 340.308915 241.891879 
L 340.505215 241.934931 
L 341.192266 240.814648 
L 341.290417 240.778658 
L 341.584867 240.485113 
L 341.781167 240.532606 
L 341.879318 240.362725 
L 341.977468 240.491945 
L 342.468218 239.868769 
L 342.664519 240.142131 
L 342.860819 240.392057 
L 343.057119 240.281731 
L 343.15527 240.196346 
L 343.35157 239.913782 
L 343.64602 239.904549 
L 343.940471 240.39575 
L 344.234921 240.011961 
L 344.431222 239.8821 
L 344.823822 239.73463 
L 344.921972 239.826472 
L 345.118273 239.707028 
L 345.314573 239.911121 
L 345.510873 239.776714 
L 345.609023 239.840134 
L 345.707174 239.740899 
L 345.903474 239.3249 
L 346.296075 240.043087 
L 346.394225 239.831796 
L 346.590525 240.174858 
L 346.786825 239.895763 
L 346.884976 240.041187 
L 346.983126 239.981017 
L 347.277576 240.173097 
L 347.375726 239.938527 
L 347.572027 239.979664 
L 347.964627 239.900022 
L 348.062777 239.60902 
L 348.160928 239.768717 
L 348.259078 239.357349 
L 348.455378 239.633452 
L 348.553528 239.621387 
L 348.749829 239.895087 
L 348.847979 239.760159 
L 348.946129 240.022902 
L 349.142429 239.931967 
L 349.240579 239.978353 
L 349.43688 240.317887 
L 349.73133 240.39872 
L 350.123931 240.616011 
L 350.222081 241.142995 
L 350.320231 241.111279 
L 350.614681 240.830823 
L 350.712832 240.813114 
L 350.810982 240.909533 
L 351.105432 240.469717 
L 351.596183 239.118668 
L 351.694333 239.19285 
L 351.792483 239.401055 
L 351.890634 239.234442 
L 351.988784 239.290178 
L 352.283234 238.781442 
L 352.381384 238.860737 
L 352.479534 238.730563 
L 352.577685 238.802229 
L 352.675835 238.708833 
L 352.773985 238.776559 
L 352.970285 238.735624 
L 353.362886 239.647079 
L 353.461036 239.470812 
L 353.657336 239.658379 
L 353.755486 239.634345 
L 353.951787 239.292895 
L 354.148087 239.339009 
L 354.638838 239.386921 
L 354.736988 239.005125 
L 354.835138 239.064765 
L 355.031439 239.212356 
L 355.129589 239.08737 
L 355.227739 239.190338 
L 355.325889 239.091311 
L 355.424039 239.393041 
L 355.620339 238.74356 
L 355.71849 238.645436 
L 355.91479 239.198209 
L 356.11109 239.489539 
L 356.307391 239.559632 
L 356.405541 239.306544 
L 356.503691 239.387026 
L 356.601841 239.24546 
L 356.699991 239.514436 
L 356.896292 239.485185 
L 357.092592 239.456173 
L 357.387042 239.705521 
L 357.583343 240.427075 
L 357.779643 240.261291 
L 357.877793 240.290403 
L 358.074093 240.104064 
L 358.859295 240.779189 
L 359.055595 240.423764 
L 359.153745 240.17986 
L 359.350045 240.238271 
L 359.546346 240.240546 
L 359.644496 240.221685 
L 359.840796 239.877946 
L 360.037097 239.769267 
L 360.429697 239.333425 
L 360.527847 239.463629 
L 360.822298 239.197377 
L 361.018598 239.559588 
L 361.116748 239.635897 
L 361.411199 239.012182 
L 361.607499 238.950259 
L 361.705649 239.151384 
L 361.90195 239.151463 
L 362.1964 239.655865 
L 362.29455 239.6874 
L 362.589001 240.072425 
L 362.883451 239.573623 
L 363.177902 239.893233 
L 363.276052 239.856267 
L 363.570502 240.32244 
L 363.766802 240.181649 
L 364.061253 239.999027 
L 364.355703 239.493031 
L 364.552004 239.475073 
L 364.650154 239.762114 
L 364.748304 239.609058 
L 364.846454 239.757855 
L 365.140905 239.666096 
L 365.435355 239.864462 
L 365.533505 239.581066 
L 365.827956 239.860181 
L 366.122406 240.251962 
L 366.220556 240.059189 
L 366.515007 240.312655 
L 366.613157 240.084864 
L 366.809457 240.336192 
L 367.398358 240.453736 
L 367.496508 240.211114 
L 367.692809 240.402329 
L 367.987259 240.114624 
L 368.085409 239.722581 
L 368.28171 240.132167 
L 368.47801 239.939114 
L 368.57616 240.09795 
L 368.67431 239.876759 
L 369.066911 240.232868 
L 369.263211 239.691127 
L 369.361361 239.646152 
L 369.557662 239.902658 
L 369.655812 239.849215 
L 369.753962 239.994601 
L 369.950262 239.748516 
L 370.048413 240.1869 
L 370.342863 239.474813 
L 370.441013 239.549767 
L 370.539163 239.527789 
L 370.637313 239.724596 
L 370.833614 239.688802 
L 371.029914 238.931093 
L 371.128064 239.259183 
L 371.324365 239.223435 
L 371.422515 239.468687 
L 371.520665 239.244446 
L 371.618815 239.354063 
L 371.716965 239.228026 
L 371.913266 239.512418 
L 372.109566 239.525904 
L 372.305866 239.997553 
L 372.502166 239.646102 
L 372.600317 239.751463 
L 372.796617 239.344622 
L 372.992917 239.901522 
L 373.189218 240.12775 
L 373.385518 239.936607 
L 373.581818 240.090904 
L 373.581818 240.090904 
" style="fill:none;stroke:#1f77b4;stroke-linecap:square;stroke-width:1.5;"/>
   </g>
   <g id="patch_3">
    <path d="M 54 252 
L 54 34.56 
" style="fill:none;stroke:#000000;stroke-linecap:square;stroke-linejoin:miter;stroke-width:0.8;"/>
   </g>
   <g id="patch_4">
    <path d="M 388.8 252 
L 388.8 34.56 
" style="fill:none;stroke:#000000;stroke-linecap:square;stroke-linejoin:miter;stroke-width:0.8;"/>
   </g>
   <g id="patch_5">
    <path d="M 54 252 
L 388.8 252 
" style="fill:none;stroke:#000000;stroke-linecap:square;stroke-linejoin:miter;stroke-width:0.8;"/>
   </g>
   <g id="patch_6">
    <path d="M 54 34.56 
L 388.8 34.56 
" style="fill:none;stroke:#000000;stroke-linecap:square;stroke-linejoin:miter;stroke-width:0.8;"/>
   </g>
  </g>
 </g>
 <defs>
  <clipPath id="pffd482620f">
   <rect height="217.44" width="334.8" x="54" y="34.56"/>
  </clipPath>
 </defs>
</svg>
