<?xml version="1.0" encoding="utf-8" standalone="no"?>
<!DOCTYPE svg PUBLIC "-//W3C//DTD SVG 1.1//EN"
  "http://www.w3.org/Graphics/SVG/1.1/DTD/svg11.dtd">
<!-- Created with matplotlib (https://matplotlib.org/) -->
<svg height="288pt" version="1.1" viewBox="0 0 432 288" width="432pt" xmlns="http://www.w3.org/2000/svg" xmlns:xlink="http://www.w3.org/1999/xlink">
 <defs>
  <style type="text/css">
*{stroke-linecap:butt;stroke-linejoin:round;}
  </style>
 </defs>
 <g id="figure_1">
  <g id="patch_1">
   <path d="M 0 288 
L 432 288 
L 432 0 
L 0 0 
z
" style="fill:#ffffff;"/>
  </g>
  <g id="axes_1">
   <g id="patch_2">
    <path d="M 54 252 
L 388.8 252 
L 388.8 34.56 
L 54 34.56 
z
" style="fill:#ffffff;"/>
   </g>
   <g id="matplotlib.axis_1">
    <g id="xtick_1">
     <g id="line2d_1">
      <defs>
       <path d="M 0 0 
L 0 3.5 
" id="m4572425ff4" style="stroke:#000000;stroke-width:0.8;"/>
      </defs>
      <g>
       <use style="stroke:#000000;stroke-width:0.8;" x="69.218182" xlink:href="#m4572425ff4" y="252"/>
      </g>
     </g>
     <g id="text_1">
      <!-- 0 -->
      <defs>
       <path d="M 31.78125 66.40625 
Q 24.171875 66.40625 20.328125 58.90625 
Q 16.5 51.421875 16.5 36.375 
Q 16.5 21.390625 20.328125 13.890625 
Q 24.171875 6.390625 31.78125 6.390625 
Q 39.453125 6.390625 43.28125 13.890625 
Q 47.125 21.390625 47.125 36.375 
Q 47.125 51.421875 43.28125 58.90625 
Q 39.453125 66.40625 31.78125 66.40625 
z
M 31.78125 74.21875 
Q 44.046875 74.21875 50.515625 64.515625 
Q 56.984375 54.828125 56.984375 36.375 
Q 56.984375 17.96875 50.515625 8.265625 
Q 44.046875 -1.421875 31.78125 -1.421875 
Q 19.53125 -1.421875 13.0625 8.265625 
Q 6.59375 17.96875 6.59375 36.375 
Q 6.59375 54.828125 13.0625 64.515625 
Q 19.53125 74.21875 31.78125 74.21875 
z
" id="DejaVuSans-48"/>
      </defs>
      <g transform="translate(66.036932 266.598437)scale(0.1 -0.1)">
       <use xlink:href="#DejaVuSans-48"/>
      </g>
     </g>
    </g>
    <g id="xtick_2">
     <g id="line2d_2">
      <g>
       <use style="stroke:#000000;stroke-width:0.8;" x="142.735968" xlink:href="#m4572425ff4" y="252"/>
      </g>
     </g>
     <g id="text_2">
      <!-- 500 -->
      <defs>
       <path d="M 10.796875 72.90625 
L 49.515625 72.90625 
L 49.515625 64.59375 
L 19.828125 64.59375 
L 19.828125 46.734375 
Q 21.96875 47.46875 24.109375 47.828125 
Q 26.265625 48.1875 28.421875 48.1875 
Q 40.625 48.1875 47.75 41.5 
Q 54.890625 34.8125 54.890625 23.390625 
Q 54.890625 11.625 47.5625 5.09375 
Q 40.234375 -1.421875 26.90625 -1.421875 
Q 22.3125 -1.421875 17.546875 -0.640625 
Q 12.796875 0.140625 7.71875 1.703125 
L 7.71875 11.625 
Q 12.109375 9.234375 16.796875 8.0625 
Q 21.484375 6.890625 26.703125 6.890625 
Q 35.15625 6.890625 40.078125 11.328125 
Q 45.015625 15.765625 45.015625 23.390625 
Q 45.015625 31 40.078125 35.4375 
Q 35.15625 39.890625 26.703125 39.890625 
Q 22.75 39.890625 18.8125 39.015625 
Q 14.890625 38.140625 10.796875 36.28125 
z
" id="DejaVuSans-53"/>
      </defs>
      <g transform="translate(133.192218 266.598437)scale(0.1 -0.1)">
       <use xlink:href="#DejaVuSans-53"/>
       <use x="63.623047" xlink:href="#DejaVuSans-48"/>
       <use x="127.246094" xlink:href="#DejaVuSans-48"/>
      </g>
     </g>
    </g>
    <g id="xtick_3">
     <g id="line2d_3">
      <g>
       <use style="stroke:#000000;stroke-width:0.8;" x="216.253755" xlink:href="#m4572425ff4" y="252"/>
      </g>
     </g>
     <g id="text_3">
      <!-- 1000 -->
      <defs>
       <path d="M 12.40625 8.296875 
L 28.515625 8.296875 
L 28.515625 63.921875 
L 10.984375 60.40625 
L 10.984375 69.390625 
L 28.421875 72.90625 
L 38.28125 72.90625 
L 38.28125 8.296875 
L 54.390625 8.296875 
L 54.390625 0 
L 12.40625 0 
z
" id="DejaVuSans-49"/>
      </defs>
      <g transform="translate(203.528755 266.598437)scale(0.1 -0.1)">
       <use xlink:href="#DejaVuSans-49"/>
       <use x="63.623047" xlink:href="#DejaVuSans-48"/>
       <use x="127.246094" xlink:href="#DejaVuSans-48"/>
       <use x="190.869141" xlink:href="#DejaVuSans-48"/>
      </g>
     </g>
    </g>
    <g id="xtick_4">
     <g id="line2d_4">
      <g>
       <use style="stroke:#000000;stroke-width:0.8;" x="289.771542" xlink:href="#m4572425ff4" y="252"/>
      </g>
     </g>
     <g id="text_4">
      <!-- 1500 -->
      <g transform="translate(277.046542 266.598437)scale(0.1 -0.1)">
       <use xlink:href="#DejaVuSans-49"/>
       <use x="63.623047" xlink:href="#DejaVuSans-53"/>
       <use x="127.246094" xlink:href="#DejaVuSans-48"/>
       <use x="190.869141" xlink:href="#DejaVuSans-48"/>
      </g>
     </g>
    </g>
    <g id="xtick_5">
     <g id="line2d_5">
      <g>
       <use style="stroke:#000000;stroke-width:0.8;" x="363.289328" xlink:href="#m4572425ff4" y="252"/>
      </g>
     </g>
     <g id="text_5">
      <!-- 2000 -->
      <defs>
       <path d="M 19.1875 8.296875 
L 53.609375 8.296875 
L 53.609375 0 
L 7.328125 0 
L 7.328125 8.296875 
Q 12.9375 14.109375 22.625 23.890625 
Q 32.328125 33.6875 34.8125 36.53125 
Q 39.546875 41.84375 41.421875 45.53125 
Q 43.3125 49.21875 43.3125 52.78125 
Q 43.3125 58.59375 39.234375 62.25 
Q 35.15625 65.921875 28.609375 65.921875 
Q 23.96875 65.921875 18.8125 64.3125 
Q 13.671875 62.703125 7.8125 59.421875 
L 7.8125 69.390625 
Q 13.765625 71.78125 18.9375 73 
Q 24.125 74.21875 28.421875 74.21875 
Q 39.75 74.21875 46.484375 68.546875 
Q 53.21875 62.890625 53.21875 53.421875 
Q 53.21875 48.921875 51.53125 44.890625 
Q 49.859375 40.875 45.40625 35.40625 
Q 44.1875 33.984375 37.640625 27.21875 
Q 31.109375 20.453125 19.1875 8.296875 
z
" id="DejaVuSans-50"/>
      </defs>
      <g transform="translate(350.564328 266.598437)scale(0.1 -0.1)">
       <use xlink:href="#DejaVuSans-50"/>
       <use x="63.623047" xlink:href="#DejaVuSans-48"/>
       <use x="127.246094" xlink:href="#DejaVuSans-48"/>
       <use x="190.869141" xlink:href="#DejaVuSans-48"/>
      </g>
     </g>
    </g>
   </g>
   <g id="matplotlib.axis_2">
    <g id="ytick_1">
     <g id="line2d_6">
      <defs>
       <path d="M 0 0 
L -3.5 0 
" id="m9907327cc5" style="stroke:#000000;stroke-width:0.8;"/>
      </defs>
      <g>
       <use style="stroke:#000000;stroke-width:0.8;" x="54" xlink:href="#m9907327cc5" y="248.287526"/>
      </g>
     </g>
     <g id="text_6">
      <!-- 0.0 -->
      <defs>
       <path d="M 10.6875 12.40625 
L 21 12.40625 
L 21 0 
L 10.6875 0 
z
" id="DejaVuSans-46"/>
      </defs>
      <g transform="translate(31.096875 252.086744)scale(0.1 -0.1)">
       <use xlink:href="#DejaVuSans-48"/>
       <use x="63.623047" xlink:href="#DejaVuSans-46"/>
       <use x="95.410156" xlink:href="#DejaVuSans-48"/>
      </g>
     </g>
    </g>
    <g id="ytick_2">
     <g id="line2d_7">
      <g>
       <use style="stroke:#000000;stroke-width:0.8;" x="54" xlink:href="#m9907327cc5" y="222.29872"/>
      </g>
     </g>
     <g id="text_7">
      <!-- 0.5 -->
      <g transform="translate(31.096875 226.097939)scale(0.1 -0.1)">
       <use xlink:href="#DejaVuSans-48"/>
       <use x="63.623047" xlink:href="#DejaVuSans-46"/>
       <use x="95.410156" xlink:href="#DejaVuSans-53"/>
      </g>
     </g>
    </g>
    <g id="ytick_3">
     <g id="line2d_8">
      <g>
       <use style="stroke:#000000;stroke-width:0.8;" x="54" xlink:href="#m9907327cc5" y="196.309915"/>
      </g>
     </g>
     <g id="text_8">
      <!-- 1.0 -->
      <g transform="translate(31.096875 200.109133)scale(0.1 -0.1)">
       <use xlink:href="#DejaVuSans-49"/>
       <use x="63.623047" xlink:href="#DejaVuSans-46"/>
       <use x="95.410156" xlink:href="#DejaVuSans-48"/>
      </g>
     </g>
    </g>
    <g id="ytick_4">
     <g id="line2d_9">
      <g>
       <use style="stroke:#000000;stroke-width:0.8;" x="54" xlink:href="#m9907327cc5" y="170.321109"/>
      </g>
     </g>
     <g id="text_9">
      <!-- 1.5 -->
      <g transform="translate(31.096875 174.120328)scale(0.1 -0.1)">
       <use xlink:href="#DejaVuSans-49"/>
       <use x="63.623047" xlink:href="#DejaVuSans-46"/>
       <use x="95.410156" xlink:href="#DejaVuSans-53"/>
      </g>
     </g>
    </g>
    <g id="ytick_5">
     <g id="line2d_10">
      <g>
       <use style="stroke:#000000;stroke-width:0.8;" x="54" xlink:href="#m9907327cc5" y="144.332304"/>
      </g>
     </g>
     <g id="text_10">
      <!-- 2.0 -->
      <g transform="translate(31.096875 148.131522)scale(0.1 -0.1)">
       <use xlink:href="#DejaVuSans-50"/>
       <use x="63.623047" xlink:href="#DejaVuSans-46"/>
       <use x="95.410156" xlink:href="#DejaVuSans-48"/>
      </g>
     </g>
    </g>
    <g id="ytick_6">
     <g id="line2d_11">
      <g>
       <use style="stroke:#000000;stroke-width:0.8;" x="54" xlink:href="#m9907327cc5" y="118.343498"/>
      </g>
     </g>
     <g id="text_11">
      <!-- 2.5 -->
      <g transform="translate(31.096875 122.142717)scale(0.1 -0.1)">
       <use xlink:href="#DejaVuSans-50"/>
       <use x="63.623047" xlink:href="#DejaVuSans-46"/>
       <use x="95.410156" xlink:href="#DejaVuSans-53"/>
      </g>
     </g>
    </g>
    <g id="ytick_7">
     <g id="line2d_12">
      <g>
       <use style="stroke:#000000;stroke-width:0.8;" x="54" xlink:href="#m9907327cc5" y="92.354693"/>
      </g>
     </g>
     <g id="text_12">
      <!-- 3.0 -->
      <defs>
       <path d="M 40.578125 39.3125 
Q 47.65625 37.796875 51.625 33 
Q 55.609375 28.21875 55.609375 21.1875 
Q 55.609375 10.40625 48.1875 4.484375 
Q 40.765625 -1.421875 27.09375 -1.421875 
Q 22.515625 -1.421875 17.65625 -0.515625 
Q 12.796875 0.390625 7.625 2.203125 
L 7.625 11.71875 
Q 11.71875 9.328125 16.59375 8.109375 
Q 21.484375 6.890625 26.8125 6.890625 
Q 36.078125 6.890625 40.9375 10.546875 
Q 45.796875 14.203125 45.796875 21.1875 
Q 45.796875 27.640625 41.28125 31.265625 
Q 36.765625 34.90625 28.71875 34.90625 
L 20.21875 34.90625 
L 20.21875 43.015625 
L 29.109375 43.015625 
Q 36.375 43.015625 40.234375 45.921875 
Q 44.09375 48.828125 44.09375 54.296875 
Q 44.09375 59.90625 40.109375 62.90625 
Q 36.140625 65.921875 28.71875 65.921875 
Q 24.65625 65.921875 20.015625 65.03125 
Q 15.375 64.15625 9.8125 62.3125 
L 9.8125 71.09375 
Q 15.4375 72.65625 20.34375 73.4375 
Q 25.25 74.21875 29.59375 74.21875 
Q 40.828125 74.21875 47.359375 69.109375 
Q 53.90625 64.015625 53.90625 55.328125 
Q 53.90625 49.265625 50.4375 45.09375 
Q 46.96875 40.921875 40.578125 39.3125 
z
" id="DejaVuSans-51"/>
      </defs>
      <g transform="translate(31.096875 96.153911)scale(0.1 -0.1)">
       <use xlink:href="#DejaVuSans-51"/>
       <use x="63.623047" xlink:href="#DejaVuSans-46"/>
       <use x="95.410156" xlink:href="#DejaVuSans-48"/>
      </g>
     </g>
    </g>
    <g id="ytick_8">
     <g id="line2d_13">
      <g>
       <use style="stroke:#000000;stroke-width:0.8;" x="54" xlink:href="#m9907327cc5" y="66.365887"/>
      </g>
     </g>
     <g id="text_13">
      <!-- 3.5 -->
      <g transform="translate(31.096875 70.165106)scale(0.1 -0.1)">
       <use xlink:href="#DejaVuSans-51"/>
       <use x="63.623047" xlink:href="#DejaVuSans-46"/>
       <use x="95.410156" xlink:href="#DejaVuSans-53"/>
      </g>
     </g>
    </g>
    <g id="ytick_9">
     <g id="line2d_14">
      <g>
       <use style="stroke:#000000;stroke-width:0.8;" x="54" xlink:href="#m9907327cc5" y="40.377082"/>
      </g>
     </g>
     <g id="text_14">
      <!-- 4.0 -->
      <defs>
       <path d="M 37.796875 64.3125 
L 12.890625 25.390625 
L 37.796875 25.390625 
z
M 35.203125 72.90625 
L 47.609375 72.90625 
L 47.609375 25.390625 
L 58.015625 25.390625 
L 58.015625 17.1875 
L 47.609375 17.1875 
L 47.609375 0 
L 37.796875 0 
L 37.796875 17.1875 
L 4.890625 17.1875 
L 4.890625 26.703125 
z
" id="DejaVuSans-52"/>
      </defs>
      <g transform="translate(31.096875 44.1763)scale(0.1 -0.1)">
       <use xlink:href="#DejaVuSans-52"/>
       <use x="63.623047" xlink:href="#DejaVuSans-46"/>
       <use x="95.410156" xlink:href="#DejaVuSans-48"/>
      </g>
     </g>
    </g>
   </g>
   <g id="line2d_15">
    <path clip-path="url(#p3294ef44fd)" d="M 69.218182 46.499229 
L 69.512253 50.939879 
L 69.806324 47.7057 
L 69.95336 44.791765 
L 70.100395 47.709611 
L 70.394466 48.669935 
L 70.541502 47.988143 
L 70.835573 52.299642 
L 71.27668 44.443636 
L 71.570751 49.688251 
L 71.717787 47.307258 
L 71.864822 47.135393 
L 72.011858 50.545217 
L 72.158893 48.694319 
L 72.452964 53.571437 
L 72.6 53.759093 
L 72.894071 66.303437 
L 73.041107 65.501458 
L 73.188142 63.528602 
L 73.335178 67.116146 
L 73.482213 65.836287 
L 73.776285 67.892667 
L 74.070356 75.434282 
L 74.217391 77.4429 
L 74.364427 76.42502 
L 74.658498 76.052008 
L 74.805534 74.720904 
L 74.952569 74.592055 
L 75.24664 72.147522 
L 75.393676 70.937043 
L 75.540711 73.074398 
L 75.834783 66.635842 
L 76.128854 69.425207 
L 76.275889 69.403816 
L 76.422925 71.660753 
L 76.56996 71.983124 
L 76.716996 71.312855 
L 76.864032 70.065193 
L 77.011067 72.447785 
L 77.305138 69.697391 
L 77.452174 70.185544 
L 77.599209 70.115177 
L 77.746245 69.556789 
L 77.893281 67.368192 
L 78.040316 73.396108 
L 78.187352 73.293547 
L 78.334387 72.9096 
L 78.481423 71.56859 
L 78.775494 78.192796 
L 78.92253 77.634018 
L 79.069565 77.744172 
L 79.510672 72.116821 
L 79.657708 71.485218 
L 80.098814 73.35244 
L 80.24585 75.153826 
L 80.392885 74.761609 
L 80.539921 74.690755 
L 80.686957 74.788347 
L 80.833992 77.195817 
L 80.981028 75.212431 
L 81.275099 79.16047 
L 81.422134 76.196514 
L 81.56917 78.74095 
L 81.716206 77.452557 
L 81.863241 77.261029 
L 82.157312 83.320393 
L 82.304348 83.7769 
L 82.451383 83.676735 
L 82.598419 84.344107 
L 82.745455 86.408798 
L 82.89249 84.529614 
L 83.039526 85.873234 
L 83.186561 84.613655 
L 83.774704 90.079317 
L 83.921739 88.869441 
L 84.21581 90.2198 
L 84.362846 94.065064 
L 84.509881 91.468544 
L 84.656917 91.251508 
L 84.803953 91.524421 
L 84.950988 88.197998 
L 85.098024 89.116127 
L 85.245059 93.129444 
L 85.392095 90.400538 
L 85.53913 90.126727 
L 85.980237 85.155623 
L 86.127273 87.279253 
L 86.274308 87.580453 
L 86.568379 90.13193 
L 86.715415 88.900112 
L 86.862451 90.604898 
L 87.156522 86.920516 
L 87.450593 90.511749 
L 87.8917 93.418991 
L 88.185771 91.72919 
L 88.332806 95.398742 
L 88.479842 94.442921 
L 88.773913 96.835133 
L 88.920949 96.402742 
L 89.21502 97.67504 
L 89.362055 96.785614 
L 89.509091 97.332054 
L 89.656126 98.343518 
L 89.950198 102.943818 
L 90.097233 101.546469 
L 90.244269 101.336767 
L 90.685375 97.044837 
L 90.832411 96.311522 
L 91.126482 93.980409 
L 91.273518 94.041748 
L 91.420553 95.349127 
L 91.567589 93.332344 
L 92.008696 95.257065 
L 92.155731 93.408184 
L 92.302767 93.637396 
L 92.449802 95.237475 
L 92.596838 95.403101 
L 92.743874 91.7192 
L 92.890909 91.037368 
L 93.037945 92.941948 
L 93.18498 93.134745 
L 93.332016 92.359258 
L 94.067194 99.810768 
L 94.214229 100.895122 
L 94.5083 99.813997 
L 94.655336 100.723665 
L 94.949407 100.666716 
L 95.243478 103.433754 
L 95.390514 103.208954 
L 95.537549 102.300571 
L 95.831621 105.795257 
L 96.566798 98.554931 
L 96.713834 97.81549 
L 96.86087 97.823031 
L 97.007905 96.834105 
L 97.154941 97.142065 
L 97.301976 98.550188 
L 97.449012 98.672712 
L 97.596047 98.197525 
L 97.743083 98.506075 
L 98.037154 101.129613 
L 98.331225 91.130651 
L 98.478261 92.550998 
L 98.625296 92.4587 
L 98.772332 92.167693 
L 98.919368 92.189534 
L 99.213439 98.960662 
L 99.360474 97.7613 
L 99.50751 97.817775 
L 99.948617 103.257539 
L 100.095652 100.153641 
L 100.242688 100.090765 
L 100.389723 101.512704 
L 100.536759 100.008845 
L 100.683794 101.069301 
L 100.977866 98.567898 
L 101.271937 105.448382 
L 101.566008 106.527534 
L 101.713043 104.74221 
L 102.007115 108.398726 
L 102.15415 108.131832 
L 102.448221 112.30121 
L 102.742292 110.068415 
L 103.036364 111.3566 
L 103.183399 113.382956 
L 103.330435 113.673611 
L 103.47747 116.304309 
L 103.624506 116.576381 
L 103.771542 115.901388 
L 103.918577 116.369869 
L 104.065613 115.782774 
L 104.212648 113.998845 
L 104.359684 115.057833 
L 104.506719 113.852245 
L 104.800791 119.114296 
L 104.947826 116.54104 
L 105.094862 116.460259 
L 105.388933 114.238212 
L 105.683004 120.225128 
L 105.83004 118.372831 
L 105.977075 119.34142 
L 106.124111 119.040621 
L 106.418182 121.727643 
L 106.565217 120.213947 
L 107.15336 129.837095 
L 107.300395 128.578264 
L 107.594466 130.436129 
L 107.741502 127.379297 
L 108.329644 132.846103 
L 108.47668 131.255022 
L 108.623715 131.58245 
L 108.770751 131.27871 
L 108.917787 133.218028 
L 109.064822 133.140802 
L 109.211858 132.808925 
L 109.358893 133.16266 
L 109.652964 135.741712 
L 109.947036 134.462433 
L 110.241107 131.826874 
L 110.388142 131.383044 
L 110.682213 133.851196 
L 110.829249 134.160347 
L 110.976285 132.907697 
L 111.12332 133.677422 
L 111.270356 135.754731 
L 111.417391 134.655148 
L 111.564427 135.992056 
L 111.711462 138.395136 
L 111.858498 137.296113 
L 112.152569 140.049478 
L 112.299605 138.226339 
L 112.44664 137.898533 
L 112.593676 137.090802 
L 113.328854 142.923205 
L 113.475889 141.407659 
L 113.916996 143.392322 
L 114.211067 141.347131 
L 114.358103 143.351417 
L 114.505138 143.040423 
L 114.652174 143.35465 
L 114.799209 145.009931 
L 114.946245 142.549943 
L 115.093281 141.972429 
L 115.240316 144.170846 
L 115.387352 144.286327 
L 115.681423 145.208722 
L 115.828458 145.258444 
L 115.975494 145.466364 
L 116.269565 145.187741 
L 116.563636 148.667591 
L 116.710672 149.352262 
L 117.004743 153.901109 
L 117.298814 154.440872 
L 117.44585 154.383975 
L 117.739921 155.490662 
L 118.033992 157.961983 
L 118.475099 159.597691 
L 118.622134 160.798361 
L 118.76917 159.898926 
L 119.063241 161.056952 
L 119.210277 162.966376 
L 119.357312 162.180895 
L 119.504348 162.733111 
L 120.09249 159.83158 
L 120.239526 160.885892 
L 120.533597 156.92308 
L 120.827668 157.096929 
L 120.974704 157.931778 
L 121.121739 157.151064 
L 121.41581 158.766947 
L 121.562846 157.988246 
L 121.856917 159.942802 
L 122.003953 160.200462 
L 122.150988 160.155961 
L 122.298024 159.663729 
L 122.73913 157.131809 
L 122.886166 157.203022 
L 123.033202 157.564261 
L 123.180237 155.898791 
L 123.474308 159.458128 
L 123.621344 160.323209 
L 123.768379 160.422845 
L 123.915415 159.490583 
L 124.209486 161.567859 
L 124.356522 160.794401 
L 124.503557 161.492867 
L 124.650593 162.849211 
L 124.797628 162.172823 
L 125.0917 163.302993 
L 125.238735 163.045192 
L 125.532806 165.244283 
L 125.679842 165.232269 
L 125.826877 165.411754 
L 125.973913 166.473073 
L 126.120949 168.622413 
L 126.267984 168.802259 
L 126.41502 168.509844 
L 126.562055 167.521417 
L 126.709091 168.162566 
L 126.856126 169.651713 
L 127.003162 168.762125 
L 127.150198 168.794278 
L 127.297233 168.460543 
L 127.444269 169.024595 
L 127.591304 167.53593 
L 127.73834 167.871441 
L 128.032411 169.867398 
L 128.179447 170.638235 
L 128.473518 169.892869 
L 128.620553 170.416376 
L 128.914625 171.663604 
L 129.06166 170.889204 
L 129.355731 171.798705 
L 129.502767 171.503702 
L 129.943874 172.650424 
L 130.38498 171.595049 
L 130.532016 171.957692 
L 130.679051 171.526357 
L 130.826087 170.172261 
L 130.973123 170.353391 
L 131.120158 171.235503 
L 131.414229 173.938876 
L 131.561265 174.18641 
L 131.7083 174.188645 
L 131.855336 173.762562 
L 132.149407 174.466035 
L 132.296443 174.623586 
L 132.737549 176.98426 
L 132.884585 177.355503 
L 133.031621 177.28045 
L 133.325692 178.965609 
L 133.472727 178.074301 
L 133.766798 180.662988 
L 133.913834 179.272336 
L 134.06087 179.675018 
L 134.207905 179.082878 
L 134.354941 178.971705 
L 134.501976 179.480896 
L 134.649012 179.500861 
L 135.090119 182.260995 
L 135.237154 183.124634 
L 135.38419 183.19755 
L 135.531225 183.873139 
L 135.678261 183.1612 
L 135.825296 183.549742 
L 135.972332 184.278915 
L 136.266403 183.841511 
L 136.560474 186.004566 
L 136.70751 186.295471 
L 136.854545 187.229219 
L 137.001581 187.297254 
L 137.295652 188.458168 
L 137.442688 188.215802 
L 137.589723 189.51824 
L 137.883794 187.331966 
L 138.03083 187.475288 
L 138.177866 186.608708 
L 138.324901 186.92144 
L 138.471937 185.494917 
L 138.618972 185.87432 
L 138.913043 185.399182 
L 139.207115 187.207706 
L 139.35415 187.327022 
L 139.648221 186.096123 
L 139.795257 184.563431 
L 139.942292 185.389964 
L 140.089328 183.790968 
L 140.236364 183.657771 
L 140.383399 183.894709 
L 140.530435 183.361735 
L 140.67747 184.609818 
L 140.971542 183.77688 
L 141.118577 184.599928 
L 141.265613 184.202923 
L 141.412648 185.19056 
L 141.706719 184.029909 
L 141.853755 184.380072 
L 142.147826 182.027695 
L 142.294862 181.448519 
L 142.588933 182.190198 
L 142.735968 183.226776 
L 142.883004 182.769916 
L 143.03004 183.923768 
L 143.177075 183.174405 
L 143.471146 183.693346 
L 143.618182 183.625933 
L 143.765217 185.361319 
L 143.912253 185.38488 
L 144.059289 185.857859 
L 144.206324 187.340992 
L 144.35336 187.246506 
L 145.235573 192.314017 
L 145.382609 191.866632 
L 145.529644 191.929855 
L 145.823715 193.07823 
L 145.970751 192.808029 
L 146.264822 194.049711 
L 146.411858 193.831633 
L 146.558893 193.241351 
L 146.705929 192.044028 
L 147 192.48221 
L 147.147036 191.670193 
L 147.294071 191.760721 
L 147.441107 192.575056 
L 147.588142 192.474902 
L 147.882213 193.022965 
L 148.470356 195.212525 
L 148.764427 195.573683 
L 149.058498 197.996206 
L 149.352569 197.909295 
L 149.64664 199.852398 
L 149.793676 199.084166 
L 149.940711 199.277981 
L 150.087747 199.659093 
L 150.234783 200.354609 
L 150.381818 199.80296 
L 150.528854 200.723804 
L 150.675889 200.223025 
L 150.822925 200.849271 
L 151.116996 200.973346 
L 151.264032 201.150692 
L 151.411067 200.700408 
L 151.558103 200.917172 
L 151.705138 200.518472 
L 151.852174 200.546109 
L 152.440316 198.423508 
L 152.587352 197.996585 
L 152.734387 199.123185 
L 152.881423 199.088466 
L 153.028458 198.379906 
L 153.175494 198.41409 
L 153.32253 198.805774 
L 153.469565 198.353887 
L 153.616601 198.703228 
L 153.763636 198.337492 
L 153.910672 197.39047 
L 154.057708 197.230329 
L 154.939921 200.187008 
L 155.233992 202.505017 
L 155.381028 202.216957 
L 155.528063 203.05765 
L 155.675099 203.115922 
L 155.822134 202.998858 
L 155.96917 203.656573 
L 156.116206 203.320033 
L 156.410277 203.559035 
L 156.557312 203.988343 
L 156.704348 204.035603 
L 157.145455 205.163487 
L 157.439526 205.712219 
L 157.586561 205.553749 
L 157.880632 204.886808 
L 158.321739 206.553094 
L 158.468775 205.831248 
L 158.61581 205.918909 
L 159.498024 208.22331 
L 159.645059 208.318137 
L 159.792095 208.018124 
L 159.93913 208.673321 
L 160.674308 208.749474 
L 160.821344 209.624566 
L 161.115415 208.764826 
L 161.262451 208.61257 
L 161.409486 209.300417 
L 161.703557 208.877334 
L 161.850593 209.035764 
L 161.997628 209.559196 
L 162.144664 208.171291 
L 162.2917 208.575131 
L 162.585771 208.155866 
L 162.732806 209.00955 
L 162.879842 209.058003 
L 163.026877 208.912199 
L 163.173913 208.547127 
L 163.320949 208.756429 
L 163.61502 209.571764 
L 163.762055 209.02496 
L 164.056126 210.013542 
L 164.93834 211.461123 
L 165.232411 213.314349 
L 166.702767 218.577865 
L 166.849802 218.409817 
L 167.290909 220.091788 
L 167.58498 220.964319 
L 167.732016 221.790984 
L 167.879051 221.859418 
L 168.026087 221.713186 
L 168.173123 222.015377 
L 168.320158 221.59923 
L 168.467194 222.102124 
L 168.761265 222.212412 
L 168.9083 221.854102 
L 169.202372 222.233792 
L 169.496443 221.89042 
L 169.643478 221.878956 
L 169.790514 222.388232 
L 169.937549 222.175853 
L 170.231621 222.197612 
L 170.378656 222.679753 
L 170.672727 222.668404 
L 170.819763 222.488013 
L 170.966798 223.11425 
L 171.113834 223.049172 
L 171.407905 223.971146 
L 171.554941 224.277777 
L 171.701976 224.309319 
L 171.996047 224.916076 
L 172.143083 224.509785 
L 172.437154 224.75549 
L 172.58419 224.485165 
L 172.731225 223.818577 
L 172.878261 224.179119 
L 173.025296 224.096911 
L 173.466403 224.496658 
L 173.613439 224.363094 
L 173.760474 224.646369 
L 173.90751 224.627383 
L 174.054545 224.793333 
L 174.348617 224.126074 
L 174.495652 224.262883 
L 174.642688 224.198462 
L 174.789723 224.362217 
L 174.936759 223.843484 
L 175.23083 224.237688 
L 175.377866 224.382516 
L 175.818972 225.414069 
L 176.407115 224.628825 
L 176.55415 224.190797 
L 176.701186 224.310943 
L 176.995257 224.119156 
L 177.142292 223.625223 
L 177.289328 223.701395 
L 177.436364 223.41786 
L 177.583399 223.506524 
L 177.730435 222.926833 
L 178.024506 223.747714 
L 178.171542 223.767614 
L 178.318577 223.218894 
L 178.612648 223.44628 
L 178.906719 222.883641 
L 179.053755 222.981955 
L 179.200791 222.926071 
L 179.347826 223.033175 
L 179.494862 223.408558 
L 179.935968 223.243266 
L 180.083004 223.65046 
L 180.524111 223.792664 
L 180.671146 224.423271 
L 180.965217 223.556968 
L 181.112253 223.804269 
L 181.259289 224.467001 
L 181.406324 223.98816 
L 181.55336 223.962713 
L 181.700395 223.792459 
L 182.141502 224.544488 
L 182.288538 224.376968 
L 182.582609 225.019768 
L 182.87668 224.718246 
L 183.170751 225.750928 
L 183.317787 225.924375 
L 183.464822 225.749122 
L 183.611858 225.862893 
L 183.905929 226.348622 
L 184.052964 226.506198 
L 184.2 226.196995 
L 184.347036 226.632368 
L 184.494071 226.591254 
L 184.788142 226.984799 
L 185.082213 226.946473 
L 185.229249 227.422872 
L 185.52332 227.313068 
L 185.817391 227.62065 
L 186.111462 227.166398 
L 186.405534 226.919346 
L 186.699605 226.995183 
L 186.84664 227.363115 
L 186.993676 227.265001 
L 187.434783 227.994227 
L 187.581818 227.836494 
L 187.728854 227.992231 
L 187.875889 227.686687 
L 188.022925 228.066594 
L 188.316996 227.679425 
L 188.464032 227.534499 
L 188.905138 228.045178 
L 189.052174 227.917325 
L 189.199209 228.317328 
L 189.640316 228.369308 
L 189.787352 228.169241 
L 189.934387 228.163896 
L 190.081423 228.46135 
L 190.375494 227.588914 
L 190.52253 227.843688 
L 190.669565 227.718803 
L 190.816601 227.762547 
L 191.110672 227.475953 
L 191.404743 227.66838 
L 191.551779 227.820924 
L 191.84585 227.794905 
L 191.992885 227.945356 
L 192.139921 227.790868 
L 192.286957 228.180411 
L 192.433992 227.94173 
L 192.581028 228.023733 
L 192.728063 228.357962 
L 193.022134 228.248615 
L 193.316206 228.94838 
L 193.463241 228.999417 
L 193.610277 228.856306 
L 193.904348 229.066129 
L 194.051383 229.377825 
L 194.198419 229.376613 
L 194.345455 229.693391 
L 194.639526 229.606394 
L 194.786561 229.822058 
L 195.227668 229.098704 
L 195.374704 228.932365 
L 195.668775 228.10871 
L 195.962846 228.341003 
L 196.109881 227.887395 
L 196.403953 227.905969 
L 196.550988 228.208176 
L 196.845059 228.044724 
L 197.13913 227.645469 
L 197.286166 227.593731 
L 197.433202 227.325297 
L 197.580237 227.444892 
L 197.727273 227.203404 
L 197.874308 227.340416 
L 198.021344 227.634877 
L 198.168379 227.568921 
L 198.609486 228.774353 
L 198.756522 228.602283 
L 198.903557 228.755348 
L 199.197628 229.295013 
L 199.344664 229.509897 
L 199.4917 229.352267 
L 200.226877 229.942752 
L 200.373913 230.008496 
L 200.520949 229.859782 
L 200.81502 229.812973 
L 200.962055 229.677972 
L 201.109091 229.956823 
L 201.403162 229.717326 
L 201.550198 229.766913 
L 201.991304 230.20283 
L 202.13834 229.788493 
L 202.579447 229.90268 
L 202.726482 229.85518 
L 203.020553 230.211894 
L 203.167589 230.261359 
L 203.46166 230.719767 
L 204.049802 231.272513 
L 204.343874 231.627326 
L 204.637945 231.550813 
L 204.932016 231.208928 
L 205.079051 231.48416 
L 205.226087 231.180378 
L 205.520158 231.405485 
L 205.814229 231.160196 
L 205.961265 231.304107 
L 206.1083 230.990365 
L 206.549407 229.449844 
L 206.843478 229.65963 
L 207.137549 228.861513 
L 207.431621 228.517865 
L 207.578656 228.670326 
L 207.725692 228.346706 
L 208.166798 228.649209 
L 208.313834 228.581974 
L 208.46087 228.18862 
L 208.754941 228.725799 
L 208.901976 228.440575 
L 209.490119 230.248972 
L 209.78419 229.90097 
L 210.225296 230.199207 
L 210.372332 230.656612 
L 211.10751 229.946436 
L 211.401581 230.222056 
L 211.548617 230.167515 
L 211.695652 229.939294 
L 211.842688 230.221343 
L 212.136759 229.865105 
L 212.283794 229.656803 
L 212.43083 229.814136 
L 212.577866 229.629654 
L 212.724901 229.624904 
L 213.018972 230.029277 
L 213.166008 229.907156 
L 213.313043 229.518087 
L 213.607115 229.846878 
L 213.901186 229.997828 
L 214.048221 230.065633 
L 214.195257 229.841 
L 214.342292 230.202436 
L 214.489328 229.895859 
L 214.636364 230.144994 
L 214.783399 229.748714 
L 214.930435 229.758902 
L 215.07747 229.463669 
L 215.371542 229.477074 
L 215.665613 230.332473 
L 215.812648 230.163739 
L 216.400791 230.84175 
L 216.988933 230.961254 
L 217.135968 231.345492 
L 217.283004 231.369527 
L 217.43004 231.714874 
L 217.577075 231.646135 
L 217.871146 232.089116 
L 218.165217 232.881854 
L 218.312253 233.1009 
L 218.606324 232.636164 
L 218.75336 232.727714 
L 218.900395 232.679837 
L 219.194466 232.893817 
L 219.488538 232.610075 
L 219.635573 232.826588 
L 219.782609 232.581931 
L 219.929644 232.788824 
L 220.370751 232.057098 
L 220.517787 232.08455 
L 220.811858 232.49553 
L 221.105929 232.386231 
L 221.252964 232.222154 
L 221.547036 232.354617 
L 221.694071 232.37789 
L 221.841107 232.216863 
L 221.988142 232.275916 
L 222.282213 232.110947 
L 222.429249 232.345745 
L 222.576285 232.065322 
L 222.870356 232.323052 
L 223.164427 232.5577 
L 223.458498 232.885121 
L 223.899605 232.592419 
L 224.193676 232.827995 
L 224.487747 232.928947 
L 225.36996 233.033531 
L 225.811067 233.024207 
L 225.958103 233.167085 
L 226.546245 232.683446 
L 226.987352 233.085456 
L 227.134387 232.927206 
L 227.428458 233.030121 
L 227.575494 232.828453 
L 227.72253 232.849004 
L 227.869565 232.69731 
L 228.310672 232.713427 
L 228.457708 232.885349 
L 228.751779 232.87178 
L 228.898814 232.906044 
L 229.339921 233.551298 
L 229.486957 233.666098 
L 229.633992 233.596116 
L 229.928063 233.747815 
L 230.075099 233.777024 
L 230.222134 233.664808 
L 230.36917 233.776951 
L 230.810277 234.505803 
L 231.104348 234.361344 
L 231.251383 234.534864 
L 231.398419 234.295028 
L 231.69249 234.538684 
L 231.839526 234.476705 
L 232.280632 233.857457 
L 232.427668 233.816055 
L 232.574704 233.599274 
L 233.456917 233.568599 
L 233.603953 233.315187 
L 233.898024 233.444304 
L 234.486166 234.082395 
L 234.780237 233.898444 
L 235.221344 234.076204 
L 235.368379 233.997733 
L 235.515415 234.058675 
L 235.662451 233.923367 
L 235.956522 234.093829 
L 236.250593 233.592254 
L 236.544664 233.855677 
L 237.132806 233.179225 
L 237.720949 233.468077 
L 238.01502 233.297455 
L 238.309091 233.516333 
L 238.456126 233.399196 
L 238.603162 233.540771 
L 238.750198 233.426283 
L 238.897233 233.16113 
L 239.191304 233.898852 
L 239.33834 233.940708 
L 239.485375 233.844352 
L 239.926482 234.010504 
L 240.073518 234.089033 
L 240.220553 234.010197 
L 240.367589 233.710228 
L 240.514625 233.79848 
L 240.808696 233.667157 
L 241.102767 233.93531 
L 241.249802 233.892548 
L 241.396838 234.206079 
L 241.543874 234.140527 
L 241.837945 234.42149 
L 241.98498 234.205979 
L 242.132016 234.235074 
L 242.279051 233.985652 
L 242.426087 234.147701 
L 242.573123 233.920944 
L 242.867194 233.998854 
L 243.014229 234.077567 
L 243.161265 233.854901 
L 243.3083 234.046176 
L 243.455336 233.921565 
L 243.749407 234.287731 
L 244.043478 233.680943 
L 244.190514 233.824626 
L 244.484585 233.720329 
L 245.072727 232.894519 
L 245.513834 233.22971 
L 245.66087 233.142817 
L 246.101976 233.493471 
L 246.396047 233.418198 
L 246.543083 233.260797 
L 246.690119 233.425858 
L 246.837154 233.790696 
L 246.98419 233.710877 
L 247.131225 233.364092 
L 247.719368 233.577974 
L 247.866403 233.97772 
L 248.013439 233.950764 
L 248.748617 234.492671 
L 249.042688 234.456826 
L 249.336759 234.525371 
L 249.63083 234.21916 
L 249.924901 234.63295 
L 250.218972 235.071856 
L 250.366008 235.120835 
L 250.660079 235.732304 
L 250.807115 235.656653 
L 250.95415 236.13258 
L 251.248221 235.769687 
L 251.395257 235.683999 
L 252.718577 236.577981 
L 252.865613 236.497133 
L 253.306719 236.760856 
L 253.453755 236.538208 
L 253.600791 236.524115 
L 253.894862 235.987003 
L 254.041897 236.300665 
L 254.335968 236.254121 
L 254.924111 236.078767 
L 255.218182 235.962719 
L 255.365217 235.85504 
L 255.512253 235.925775 
L 255.659289 235.77898 
L 255.806324 235.959937 
L 255.95336 235.950262 
L 256.100395 235.625537 
L 256.247431 235.592887 
L 256.394466 235.675913 
L 256.541502 235.617705 
L 256.835573 235.744578 
L 256.982609 235.576677 
L 257.27668 235.741554 
L 257.570751 235.685603 
L 257.717787 235.566365 
L 257.864822 235.65131 
L 258.011858 235.560826 
L 258.305929 235.765616 
L 258.894071 235.715089 
L 259.041107 235.906646 
L 259.188142 235.837366 
L 259.92332 236.427869 
L 260.511462 236.55603 
L 260.805534 236.56493 
L 260.952569 236.889146 
L 261.099605 236.923651 
L 261.687747 237.659462 
L 261.981818 237.419615 
L 262.128854 237.555245 
L 262.275889 237.477559 
L 262.56996 237.539362 
L 263.011067 237.329141 
L 263.305138 237.468712 
L 263.599209 237.444335 
L 263.746245 237.588407 
L 264.187352 237.167857 
L 264.481423 236.972821 
L 264.775494 236.720878 
L 265.363636 236.775619 
L 266.392885 236.446562 
L 266.539921 236.687363 
L 266.686957 236.361673 
L 266.833992 236.416577 
L 267.128063 236.663615 
L 268.010277 236.741774 
L 268.157312 236.612356 
L 269.333597 237.355229 
L 269.480632 237.294017 
L 269.627668 237.579126 
L 270.068775 237.523825 
L 270.21581 237.397153 
L 270.656917 237.561669 
L 270.803953 237.42109 
L 271.098024 237.505324 
L 271.980237 237.469139 
L 272.127273 237.665702 
L 272.421344 237.268319 
L 272.568379 237.016742 
L 273.009486 237.189138 
L 273.156522 237.484312 
L 273.450593 237.506637 
L 273.597628 237.382901 
L 274.038735 237.75047 
L 274.185771 237.615333 
L 274.332806 237.79684 
L 274.920949 237.776396 
L 275.21502 237.525628 
L 275.656126 238.085385 
L 276.244269 237.634084 
L 276.685375 238.076522 
L 276.832411 238.147945 
L 276.979447 237.951054 
L 277.273518 237.84863 
L 277.420553 237.822684 
L 277.714625 237.464416 
L 277.86166 237.523798 
L 278.155731 237.856327 
L 278.449802 237.744405 
L 278.596838 237.786202 
L 278.743874 237.690455 
L 278.890909 237.900355 
L 279.037945 237.663432 
L 279.626087 237.854926 
L 279.773123 237.581414 
L 280.802372 238.641453 
L 281.537549 238.493858 
L 281.684585 238.589398 
L 282.86087 238.187235 
L 283.301976 237.96303 
L 283.596047 238.073525 
L 284.037154 237.978672 
L 284.331225 237.916057 
L 284.478261 237.77246 
L 284.919368 237.99949 
L 285.50751 237.899644 
L 285.801581 238.144386 
L 286.389723 238.167084 
L 287.124901 238.220265 
L 287.271937 238.466722 
L 287.566008 238.356558 
L 287.860079 238.389261 
L 288.007115 238.48658 
L 288.15415 238.440178 
L 288.448221 238.583194 
L 288.742292 238.412342 
L 288.889328 238.427089 
L 289.036364 238.246736 
L 289.183399 238.318791 
L 289.47747 238.223509 
L 289.771542 238.457147 
L 290.065613 238.39923 
L 290.212648 238.237055 
L 290.506719 238.352857 
L 290.947826 238.127411 
L 291.094862 238.255257 
L 291.388933 237.919324 
L 291.535968 237.879996 
L 291.977075 238.194654 
L 292.124111 238.090336 
L 292.271146 238.197665 
L 292.565217 238.012328 
L 293.006324 237.980652 
L 293.15336 238.074486 
L 293.447431 238.032938 
L 293.594466 238.173842 
L 293.741502 238.062464 
L 293.888538 238.145659 
L 294.035573 238.071255 
L 294.329644 238.511789 
L 295.211858 238.824749 
L 295.358893 239.12946 
L 295.8 239.322628 
L 296.094071 239.543701 
L 296.388142 239.660984 
L 296.535178 239.193417 
L 296.829249 239.03078 
L 296.976285 238.911874 
L 297.417391 239.126549 
L 298.005534 238.954314 
L 298.152569 238.934174 
L 298.299605 238.691307 
L 298.593676 238.719403 
L 298.887747 238.354358 
L 299.328854 238.156335 
L 299.622925 238.839911 
L 299.916996 239.127831 
L 300.064032 239.10089 
L 300.211067 238.935731 
L 300.505138 238.971907 
L 300.652174 238.970681 
L 300.799209 238.806218 
L 300.946245 238.907423 
L 301.093281 238.828814 
L 301.387352 238.903148 
L 301.534387 238.667903 
L 301.828458 238.823481 
L 302.12253 238.741663 
L 302.269565 238.951191 
L 302.710672 238.986182 
L 303.298814 239.178795 
L 303.592885 238.930643 
L 303.739921 239.051252 
L 303.886957 238.927434 
L 304.033992 239.03186 
L 304.328063 238.773615 
L 304.475099 239.097955 
L 304.76917 238.937714 
L 305.063241 238.9172 
L 305.210277 238.77999 
L 305.357312 238.859985 
L 305.651383 238.738008 
L 305.945455 238.995031 
L 306.239526 238.843639 
L 306.533597 239.188615 
L 307.121739 239.43497 
L 307.268775 239.666678 
L 307.41581 239.499952 
L 307.562846 239.526302 
L 307.709881 239.689905 
L 308.003953 239.661414 
L 308.150988 239.889501 
L 308.73913 239.725317 
L 308.886166 239.588972 
L 309.621344 239.726115 
L 309.915415 239.590749 
L 310.062451 239.778051 
L 310.356522 239.745323 
L 310.650593 239.798045 
L 311.973913 239.724312 
L 312.120949 239.754571 
L 312.709091 239.291066 
L 313.591304 239.266294 
L 313.73834 239.243979 
L 313.885375 239.077598 
L 314.032411 239.173779 
L 314.473518 238.98191 
L 314.767589 238.947598 
L 315.06166 238.768088 
L 315.355731 239.171049 
L 315.502767 239.018739 
L 315.943874 239.103977 
L 316.532016 238.977445 
L 316.826087 239.342605 
L 316.973123 239.179857 
L 317.267194 239.532152 
L 317.561265 239.26071 
L 318.002372 239.472736 
L 318.296443 239.172796 
L 318.443478 239.440935 
L 318.737549 239.212794 
L 319.178656 239.098932 
L 319.325692 239.182719 
L 319.472727 239.420291 
L 319.619763 239.38481 
L 320.06087 238.925076 
L 320.207905 238.817399 
L 320.354941 238.888149 
L 320.796047 238.540616 
L 321.090119 238.481623 
L 321.237154 238.658574 
L 321.38419 238.498578 
L 321.531225 238.640692 
L 321.825296 238.631104 
L 321.972332 238.877488 
L 322.266403 238.653923 
L 322.560474 238.699922 
L 323.001581 239.330984 
L 323.295652 239.411342 
L 323.736759 239.518917 
L 324.324901 239.575645 
L 324.471937 239.720862 
L 324.618972 239.690786 
L 325.060079 239.370851 
L 325.207115 239.412503 
L 326.236364 238.43901 
L 326.971542 239.072221 
L 327.559684 238.899274 
L 327.853755 239.139019 
L 328.000791 239.23348 
L 328.441897 239.142932 
L 328.588933 239.305065 
L 328.883004 239.186769 
L 329.03004 239.253491 
L 329.177075 239.630916 
L 329.471146 239.491331 
L 329.912253 239.378028 
L 330.794466 239.671143 
L 330.941502 239.360317 
L 331.235573 239.547605 
L 331.67668 239.543721 
L 331.823715 239.719744 
L 332.264822 239.572251 
L 332.411858 239.56887 
L 332.705929 239.411677 
L 333 239.415539 
L 333.294071 239.120743 
L 333.735178 238.917807 
L 333.882213 239.003732 
L 334.029249 238.819832 
L 334.32332 238.956403 
L 334.470356 238.998887 
L 334.617391 239.169 
L 334.764427 239.063146 
L 335.205534 239.102812 
L 335.352569 238.984023 
L 336.087747 239.231956 
L 336.381818 239.384579 
L 336.822925 239.508743 
L 336.96996 239.603827 
L 337.116996 239.487417 
L 337.411067 239.631067 
L 337.705138 239.4475 
L 338.146245 239.348131 
L 338.440316 239.790144 
L 338.587352 239.8331 
L 338.734387 239.755679 
L 339.175494 239.936425 
L 339.616601 240.077567 
L 339.910672 240.08526 
L 340.057708 240.156256 
L 340.498814 240.005987 
L 340.792885 240.120904 
L 341.086957 239.843776 
L 341.381028 239.911837 
L 342.263241 239.816326 
L 342.557312 240.031509 
L 343.145455 240.106609 
L 343.439526 239.939158 
L 343.733597 239.813151 
L 344.027668 240.268727 
L 344.468775 240.208412 
L 344.762846 240.267929 
L 344.909881 240.296416 
L 345.350988 239.778318 
L 345.498024 239.570635 
L 345.645059 239.682969 
L 345.93913 239.673408 
L 346.086166 239.714596 
L 346.380237 240.169216 
L 347.262451 239.679249 
L 347.409486 239.747776 
L 347.556522 239.64304 
L 347.997628 239.763754 
L 348.2917 239.725544 
L 348.438735 239.920013 
L 348.879842 239.648205 
L 349.320949 239.625731 
L 349.467984 239.915267 
L 349.61502 239.900826 
L 350.056126 240.093582 
L 350.350198 239.821876 
L 350.497233 239.95967 
L 350.93834 239.740809 
L 351.673518 239.996329 
L 351.967589 240.359424 
L 352.114625 240.219251 
L 352.408696 240.170661 
L 352.702767 240.164505 
L 352.849802 240.055053 
L 353.143874 240.331186 
L 353.58498 240.562349 
L 353.879051 240.521966 
L 354.173123 240.794869 
L 354.614229 240.653668 
L 354.9083 240.497401 
L 355.202372 240.499061 
L 355.349407 240.467503 
L 355.790514 240.747367 
L 356.084585 240.723759 
L 356.819763 240.861559 
L 357.701976 241.268785 
L 358.143083 241.189282 
L 358.290119 241.301235 
L 358.731225 241.279796 
L 359.172332 241.236485 
L 359.613439 241.342852 
L 359.90751 241.343748 
L 360.348617 241.10332 
L 360.789723 241.162756 
L 361.083794 241.427156 
L 361.524901 241.557472 
L 361.818972 241.621725 
L 362.113043 241.580001 
L 362.260079 241.717058 
L 362.407115 241.667125 
L 362.701186 241.888205 
L 362.995257 241.874123 
L 363.730435 242.101024 
L 363.87747 242.108373 
L 364.171542 241.929553 
L 364.465613 241.811231 
L 364.612648 241.673369 
L 364.906719 241.874645 
L 365.053755 241.959149 
L 365.347826 241.798804 
L 365.641897 241.595793 
L 366.083004 241.807125 
L 366.23004 241.649973 
L 366.671146 241.66116 
L 366.818182 241.586969 
L 367.259289 241.726886 
L 367.847431 241.745622 
L 368.288538 241.859399 
L 368.87668 241.905382 
L 369.023715 241.89901 
L 369.317787 242.069324 
L 371.376285 241.931101 
L 371.964427 241.670994 
L 372.258498 241.688738 
L 372.84664 241.647374 
L 373.287747 241.891946 
L 373.581818 241.996393 
L 373.581818 241.996393 
" style="fill:none;stroke:#1f77b4;stroke-linecap:square;stroke-width:1.5;"/>
   </g>
   <g id="patch_3">
    <path d="M 54 252 
L 54 34.56 
" style="fill:none;stroke:#000000;stroke-linecap:square;stroke-linejoin:miter;stroke-width:0.8;"/>
   </g>
   <g id="patch_4">
    <path d="M 388.8 252 
L 388.8 34.56 
" style="fill:none;stroke:#000000;stroke-linecap:square;stroke-linejoin:miter;stroke-width:0.8;"/>
   </g>
   <g id="patch_5">
    <path d="M 54 252 
L 388.8 252 
" style="fill:none;stroke:#000000;stroke-linecap:square;stroke-linejoin:miter;stroke-width:0.8;"/>
   </g>
   <g id="patch_6">
    <path d="M 54 34.56 
L 388.8 34.56 
" style="fill:none;stroke:#000000;stroke-linecap:square;stroke-linejoin:miter;stroke-width:0.8;"/>
   </g>
  </g>
 </g>
 <defs>
  <clipPath id="p3294ef44fd">
   <rect height="217.44" width="334.8" x="54" y="34.56"/>
  </clipPath>
 </defs>
</svg>
