<?xml version="1.0" encoding="utf-8" standalone="no"?>
<!DOCTYPE svg PUBLIC "-//W3C//DTD SVG 1.1//EN"
  "http://www.w3.org/Graphics/SVG/1.1/DTD/svg11.dtd">
<!-- Created with matplotlib (https://matplotlib.org/) -->
<svg height="288pt" version="1.1" viewBox="0 0 432 288" width="432pt" xmlns="http://www.w3.org/2000/svg" xmlns:xlink="http://www.w3.org/1999/xlink">
 <defs>
  <style type="text/css">
*{stroke-linecap:butt;stroke-linejoin:round;}
  </style>
 </defs>
 <g id="figure_1">
  <g id="patch_1">
   <path d="M 0 288 
L 432 288 
L 432 0 
L 0 0 
z
" style="fill:#ffffff;"/>
  </g>
  <g id="axes_1">
   <g id="patch_2">
    <path d="M 54 252 
L 388.8 252 
L 388.8 34.56 
L 54 34.56 
z
" style="fill:#ffffff;"/>
   </g>
   <g id="matplotlib.axis_1">
    <g id="xtick_1">
     <g id="line2d_1">
      <defs>
       <path d="M 0 0 
L 0 3.5 
" id="m25760375e8" style="stroke:#000000;stroke-width:0.8;"/>
      </defs>
      <g>
       <use style="stroke:#000000;stroke-width:0.8;" x="69.218182" xlink:href="#m25760375e8" y="252"/>
      </g>
     </g>
     <g id="text_1">
      <!-- 0 -->
      <defs>
       <path d="M 31.78125 66.40625 
Q 24.171875 66.40625 20.328125 58.90625 
Q 16.5 51.421875 16.5 36.375 
Q 16.5 21.390625 20.328125 13.890625 
Q 24.171875 6.390625 31.78125 6.390625 
Q 39.453125 6.390625 43.28125 13.890625 
Q 47.125 21.390625 47.125 36.375 
Q 47.125 51.421875 43.28125 58.90625 
Q 39.453125 66.40625 31.78125 66.40625 
z
M 31.78125 74.21875 
Q 44.046875 74.21875 50.515625 64.515625 
Q 56.984375 54.828125 56.984375 36.375 
Q 56.984375 17.96875 50.515625 8.265625 
Q 44.046875 -1.421875 31.78125 -1.421875 
Q 19.53125 -1.421875 13.0625 8.265625 
Q 6.59375 17.96875 6.59375 36.375 
Q 6.59375 54.828125 13.0625 64.515625 
Q 19.53125 74.21875 31.78125 74.21875 
z
" id="DejaVuSans-48"/>
      </defs>
      <g transform="translate(66.036932 266.598437)scale(0.1 -0.1)">
       <use xlink:href="#DejaVuSans-48"/>
      </g>
     </g>
    </g>
    <g id="xtick_2">
     <g id="line2d_2">
      <g>
       <use style="stroke:#000000;stroke-width:0.8;" x="142.067305" xlink:href="#m25760375e8" y="252"/>
      </g>
     </g>
     <g id="text_2">
      <!-- 500 -->
      <defs>
       <path d="M 10.796875 72.90625 
L 49.515625 72.90625 
L 49.515625 64.59375 
L 19.828125 64.59375 
L 19.828125 46.734375 
Q 21.96875 47.46875 24.109375 47.828125 
Q 26.265625 48.1875 28.421875 48.1875 
Q 40.625 48.1875 47.75 41.5 
Q 54.890625 34.8125 54.890625 23.390625 
Q 54.890625 11.625 47.5625 5.09375 
Q 40.234375 -1.421875 26.90625 -1.421875 
Q 22.3125 -1.421875 17.546875 -0.640625 
Q 12.796875 0.140625 7.71875 1.703125 
L 7.71875 11.625 
Q 12.109375 9.234375 16.796875 8.0625 
Q 21.484375 6.890625 26.703125 6.890625 
Q 35.15625 6.890625 40.078125 11.328125 
Q 45.015625 15.765625 45.015625 23.390625 
Q 45.015625 31 40.078125 35.4375 
Q 35.15625 39.890625 26.703125 39.890625 
Q 22.75 39.890625 18.8125 39.015625 
Q 14.890625 38.140625 10.796875 36.28125 
z
" id="DejaVuSans-53"/>
      </defs>
      <g transform="translate(132.523555 266.598437)scale(0.1 -0.1)">
       <use xlink:href="#DejaVuSans-53"/>
       <use x="63.623047" xlink:href="#DejaVuSans-48"/>
       <use x="127.246094" xlink:href="#DejaVuSans-48"/>
      </g>
     </g>
    </g>
    <g id="xtick_3">
     <g id="line2d_3">
      <g>
       <use style="stroke:#000000;stroke-width:0.8;" x="214.916428" xlink:href="#m25760375e8" y="252"/>
      </g>
     </g>
     <g id="text_3">
      <!-- 1000 -->
      <defs>
       <path d="M 12.40625 8.296875 
L 28.515625 8.296875 
L 28.515625 63.921875 
L 10.984375 60.40625 
L 10.984375 69.390625 
L 28.421875 72.90625 
L 38.28125 72.90625 
L 38.28125 8.296875 
L 54.390625 8.296875 
L 54.390625 0 
L 12.40625 0 
z
" id="DejaVuSans-49"/>
      </defs>
      <g transform="translate(202.191428 266.598437)scale(0.1 -0.1)">
       <use xlink:href="#DejaVuSans-49"/>
       <use x="63.623047" xlink:href="#DejaVuSans-48"/>
       <use x="127.246094" xlink:href="#DejaVuSans-48"/>
       <use x="190.869141" xlink:href="#DejaVuSans-48"/>
      </g>
     </g>
    </g>
    <g id="xtick_4">
     <g id="line2d_4">
      <g>
       <use style="stroke:#000000;stroke-width:0.8;" x="287.765551" xlink:href="#m25760375e8" y="252"/>
      </g>
     </g>
     <g id="text_4">
      <!-- 1500 -->
      <g transform="translate(275.040551 266.598437)scale(0.1 -0.1)">
       <use xlink:href="#DejaVuSans-49"/>
       <use x="63.623047" xlink:href="#DejaVuSans-53"/>
       <use x="127.246094" xlink:href="#DejaVuSans-48"/>
       <use x="190.869141" xlink:href="#DejaVuSans-48"/>
      </g>
     </g>
    </g>
    <g id="xtick_5">
     <g id="line2d_5">
      <g>
       <use style="stroke:#000000;stroke-width:0.8;" x="360.614674" xlink:href="#m25760375e8" y="252"/>
      </g>
     </g>
     <g id="text_5">
      <!-- 2000 -->
      <defs>
       <path d="M 19.1875 8.296875 
L 53.609375 8.296875 
L 53.609375 0 
L 7.328125 0 
L 7.328125 8.296875 
Q 12.9375 14.109375 22.625 23.890625 
Q 32.328125 33.6875 34.8125 36.53125 
Q 39.546875 41.84375 41.421875 45.53125 
Q 43.3125 49.21875 43.3125 52.78125 
Q 43.3125 58.59375 39.234375 62.25 
Q 35.15625 65.921875 28.609375 65.921875 
Q 23.96875 65.921875 18.8125 64.3125 
Q 13.671875 62.703125 7.8125 59.421875 
L 7.8125 69.390625 
Q 13.765625 71.78125 18.9375 73 
Q 24.125 74.21875 28.421875 74.21875 
Q 39.75 74.21875 46.484375 68.546875 
Q 53.21875 62.890625 53.21875 53.421875 
Q 53.21875 48.921875 51.53125 44.890625 
Q 49.859375 40.875 45.40625 35.40625 
Q 44.1875 33.984375 37.640625 27.21875 
Q 31.109375 20.453125 19.1875 8.296875 
z
" id="DejaVuSans-50"/>
      </defs>
      <g transform="translate(347.889674 266.598437)scale(0.1 -0.1)">
       <use xlink:href="#DejaVuSans-50"/>
       <use x="63.623047" xlink:href="#DejaVuSans-48"/>
       <use x="127.246094" xlink:href="#DejaVuSans-48"/>
       <use x="190.869141" xlink:href="#DejaVuSans-48"/>
      </g>
     </g>
    </g>
   </g>
   <g id="matplotlib.axis_2">
    <g id="ytick_1">
     <g id="line2d_6">
      <defs>
       <path d="M 0 0 
L -3.5 0 
" id="m38133e5e09" style="stroke:#000000;stroke-width:0.8;"/>
      </defs>
      <g>
       <use style="stroke:#000000;stroke-width:0.8;" x="54" xlink:href="#m38133e5e09" y="245.544848"/>
      </g>
     </g>
     <g id="text_6">
      <!-- 0 -->
      <g transform="translate(40.6375 249.344066)scale(0.1 -0.1)">
       <use xlink:href="#DejaVuSans-48"/>
      </g>
     </g>
    </g>
    <g id="ytick_2">
     <g id="line2d_7">
      <g>
       <use style="stroke:#000000;stroke-width:0.8;" x="54" xlink:href="#m38133e5e09" y="206.916947"/>
      </g>
     </g>
     <g id="text_7">
      <!-- 1 -->
      <g transform="translate(40.6375 210.716166)scale(0.1 -0.1)">
       <use xlink:href="#DejaVuSans-49"/>
      </g>
     </g>
    </g>
    <g id="ytick_3">
     <g id="line2d_8">
      <g>
       <use style="stroke:#000000;stroke-width:0.8;" x="54" xlink:href="#m38133e5e09" y="168.289046"/>
      </g>
     </g>
     <g id="text_8">
      <!-- 2 -->
      <g transform="translate(40.6375 172.088265)scale(0.1 -0.1)">
       <use xlink:href="#DejaVuSans-50"/>
      </g>
     </g>
    </g>
    <g id="ytick_4">
     <g id="line2d_9">
      <g>
       <use style="stroke:#000000;stroke-width:0.8;" x="54" xlink:href="#m38133e5e09" y="129.661145"/>
      </g>
     </g>
     <g id="text_9">
      <!-- 3 -->
      <defs>
       <path d="M 40.578125 39.3125 
Q 47.65625 37.796875 51.625 33 
Q 55.609375 28.21875 55.609375 21.1875 
Q 55.609375 10.40625 48.1875 4.484375 
Q 40.765625 -1.421875 27.09375 -1.421875 
Q 22.515625 -1.421875 17.65625 -0.515625 
Q 12.796875 0.390625 7.625 2.203125 
L 7.625 11.71875 
Q 11.71875 9.328125 16.59375 8.109375 
Q 21.484375 6.890625 26.8125 6.890625 
Q 36.078125 6.890625 40.9375 10.546875 
Q 45.796875 14.203125 45.796875 21.1875 
Q 45.796875 27.640625 41.28125 31.265625 
Q 36.765625 34.90625 28.71875 34.90625 
L 20.21875 34.90625 
L 20.21875 43.015625 
L 29.109375 43.015625 
Q 36.375 43.015625 40.234375 45.921875 
Q 44.09375 48.828125 44.09375 54.296875 
Q 44.09375 59.90625 40.109375 62.90625 
Q 36.140625 65.921875 28.71875 65.921875 
Q 24.65625 65.921875 20.015625 65.03125 
Q 15.375 64.15625 9.8125 62.3125 
L 9.8125 71.09375 
Q 15.4375 72.65625 20.34375 73.4375 
Q 25.25 74.21875 29.59375 74.21875 
Q 40.828125 74.21875 47.359375 69.109375 
Q 53.90625 64.015625 53.90625 55.328125 
Q 53.90625 49.265625 50.4375 45.09375 
Q 46.96875 40.921875 40.578125 39.3125 
z
" id="DejaVuSans-51"/>
      </defs>
      <g transform="translate(40.6375 133.460364)scale(0.1 -0.1)">
       <use xlink:href="#DejaVuSans-51"/>
      </g>
     </g>
    </g>
    <g id="ytick_5">
     <g id="line2d_10">
      <g>
       <use style="stroke:#000000;stroke-width:0.8;" x="54" xlink:href="#m38133e5e09" y="91.033244"/>
      </g>
     </g>
     <g id="text_10">
      <!-- 4 -->
      <defs>
       <path d="M 37.796875 64.3125 
L 12.890625 25.390625 
L 37.796875 25.390625 
z
M 35.203125 72.90625 
L 47.609375 72.90625 
L 47.609375 25.390625 
L 58.015625 25.390625 
L 58.015625 17.1875 
L 47.609375 17.1875 
L 47.609375 0 
L 37.796875 0 
L 37.796875 17.1875 
L 4.890625 17.1875 
L 4.890625 26.703125 
z
" id="DejaVuSans-52"/>
      </defs>
      <g transform="translate(40.6375 94.832463)scale(0.1 -0.1)">
       <use xlink:href="#DejaVuSans-52"/>
      </g>
     </g>
    </g>
    <g id="ytick_6">
     <g id="line2d_11">
      <g>
       <use style="stroke:#000000;stroke-width:0.8;" x="54" xlink:href="#m38133e5e09" y="52.405344"/>
      </g>
     </g>
     <g id="text_11">
      <!-- 5 -->
      <g transform="translate(40.6375 56.204562)scale(0.1 -0.1)">
       <use xlink:href="#DejaVuSans-53"/>
      </g>
     </g>
    </g>
   </g>
   <g id="line2d_12">
    <path clip-path="url(#p555858ddbc)" d="M 69.218182 50.061093 
L 69.36388 54.613983 
L 69.509578 114.53147 
L 69.655277 70.067753 
L 69.800975 90.345024 
L 69.946673 75.359779 
L 70.092371 106.920216 
L 70.23807 80.820944 
L 70.383768 118.282687 
L 70.675164 78.260336 
L 70.820863 96.120554 
L 70.966561 140.739223 
L 71.112259 119.35824 
L 71.257957 78.434241 
L 71.403656 82.216826 
L 71.549354 151.848752 
L 71.84075 75.776735 
L 71.986448 117.539771 
L 72.132147 75.579888 
L 72.277845 95.097832 
L 72.423543 92.085074 
L 72.569241 44.443636 
L 72.71494 47.034373 
L 72.860638 118.728556 
L 73.006336 114.003907 
L 73.152034 88.010816 
L 73.297733 108.149027 
L 73.589129 117.79863 
L 73.734827 45.197572 
L 74.026224 107.768329 
L 74.31762 121.651272 
L 74.463319 116.459373 
L 74.754715 126.457928 
L 74.900413 90.029346 
L 75.19181 131.625408 
L 75.337508 94.874259 
L 75.483206 147.464563 
L 75.920301 84.680787 
L 76.065999 141.333514 
L 76.211698 89.126119 
L 76.357396 128.514157 
L 76.503094 131.909975 
L 76.648792 129.711402 
L 76.794491 114.065418 
L 76.940189 137.622977 
L 77.085887 101.822965 
L 77.231585 119.708786 
L 77.377284 112.857679 
L 77.522982 100.507192 
L 77.66868 124.542808 
L 77.814378 61.098137 
L 77.960077 104.139734 
L 78.251473 126.642364 
L 78.397171 87.487499 
L 78.54287 94.74258 
L 78.688568 126.286938 
L 78.834266 106.661482 
L 78.979964 141.01558 
L 79.125663 122.671614 
L 79.271361 133.305641 
L 79.562757 111.167043 
L 79.708456 149.478562 
L 79.999852 83.989947 
L 80.14555 126.964351 
L 80.582645 92.013073 
L 80.728343 150.692768 
L 80.874042 102.615341 
L 81.01974 107.927002 
L 81.165438 106.71055 
L 81.456835 152.529144 
L 81.748231 108.29872 
L 81.893929 107.799329 
L 82.039627 77.163822 
L 82.185326 128.388773 
L 82.331024 112.559891 
L 82.476722 121.737593 
L 82.62242 154.395047 
L 82.913817 110.764464 
L 83.059515 121.134714 
L 83.350912 93.65825 
L 83.49661 127.795974 
L 83.642308 121.213148 
L 83.788006 134.513288 
L 83.933705 134.709871 
L 84.079403 62.656431 
L 84.225101 165.97707 
L 84.516498 115.134934 
L 84.662196 172.159969 
L 84.953592 83.94901 
L 85.099291 126.899994 
L 85.244989 122.479229 
L 85.390687 152.425688 
L 85.536385 126.464191 
L 85.682084 146.812725 
L 85.827782 92.042986 
L 85.97348 144.702141 
L 86.119178 126.030584 
L 86.264877 122.944126 
L 86.410575 140.90844 
L 86.556273 103.230419 
L 86.701971 142.830421 
L 86.84767 146.463497 
L 86.993368 119.809681 
L 87.284764 130.153509 
L 87.430463 119.191321 
L 87.576161 122.718398 
L 87.721859 147.646561 
L 87.867557 143.600082 
L 88.013256 86.339475 
L 88.158954 118.409503 
L 88.304652 125.30052 
L 88.45035 100.895101 
L 88.596049 125.620047 
L 88.741747 123.607103 
L 88.887445 149.178973 
L 89.033143 151.147025 
L 89.32454 122.599576 
L 89.470238 128.569134 
L 89.615936 107.774343 
L 90.053031 150.391294 
L 90.490126 131.248025 
L 90.635824 128.09425 
L 90.927221 140.881069 
L 91.072919 104.202857 
L 91.218617 151.130411 
L 91.364315 110.621342 
L 91.510013 119.193292 
L 91.80141 153.574969 
L 91.947108 137.927239 
L 92.092806 143.872903 
L 92.238505 137.633245 
L 92.384203 166.244697 
L 92.675599 105.98836 
L 92.821298 147.06331 
L 93.112694 120.687841 
L 93.258392 122.762011 
L 93.404091 120.348563 
L 93.549789 101.446711 
L 93.841185 141.792756 
L 93.986884 123.63481 
L 94.132582 121.15439 
L 94.27828 122.756153 
L 94.423978 135.893329 
L 94.569677 137.894462 
L 94.715375 126.094521 
L 95.006771 167.655328 
L 95.298168 111.489826 
L 95.735263 149.928907 
L 95.880961 115.649356 
L 96.026659 146.266513 
L 96.172357 153.465664 
L 96.463754 132.921167 
L 96.609452 136.424922 
L 96.75515 157.909819 
L 96.900849 113.718303 
L 97.046547 115.001823 
L 97.192245 136.276813 
L 97.337943 134.876575 
L 97.483642 138.064757 
L 97.62934 145.642009 
L 97.775038 162.913885 
L 97.920736 164.314054 
L 98.066435 126.593447 
L 98.212133 151.727341 
L 98.357831 140.04509 
L 98.503529 109.252624 
L 98.649228 118.047869 
L 98.794926 84.136076 
L 98.940624 135.506908 
L 99.086322 145.048597 
L 99.232021 125.966204 
L 99.377719 133.033257 
L 99.523417 121.726233 
L 99.669115 162.487117 
L 99.960512 116.822927 
L 100.251908 139.462642 
L 100.397607 169.191698 
L 100.543305 153.509456 
L 100.689003 75.3847 
L 101.126098 150.355487 
L 101.271796 135.719774 
L 101.417494 109.577244 
L 101.563192 159.026472 
L 101.854589 117.680443 
L 102.145985 152.595577 
L 102.291684 143.559406 
L 102.437382 165.423481 
L 102.58308 116.352997 
L 102.874477 137.957608 
L 103.020175 106.861698 
L 103.165873 155.224492 
L 103.602968 136.796267 
L 104.040063 157.803602 
L 104.185761 109.184003 
L 104.477157 177.272009 
L 104.622856 139.831768 
L 104.768554 165.947418 
L 104.914252 159.59168 
L 105.205649 128.305233 
L 105.351347 173.351923 
L 105.497045 127.571218 
L 105.642743 163.831399 
L 105.788442 142.277707 
L 105.93414 145.962508 
L 106.079838 159.268372 
L 106.225536 137.185985 
L 106.371235 145.266667 
L 106.662631 117.565797 
L 106.808329 172.036123 
L 106.954028 139.884608 
L 107.099726 152.823211 
L 107.245424 180.251698 
L 107.391122 139.024974 
L 107.536821 138.631093 
L 107.828217 148.935715 
L 107.973915 185.550796 
L 108.41101 141.967628 
L 108.556708 159.360539 
L 108.702407 160.720879 
L 108.848105 167.45731 
L 108.993803 136.769877 
L 109.139501 171.029333 
L 109.2852 155.631723 
L 109.576596 179.204793 
L 109.722294 153.325761 
L 109.867993 161.233553 
L 110.013691 159.088241 
L 110.159389 134.817136 
L 110.305087 160.384369 
L 110.450785 162.993337 
L 110.596484 176.071629 
L 110.742182 151.973602 
L 111.033578 171.269391 
L 111.179277 141.30613 
L 111.324975 170.792259 
L 111.470673 158.212711 
L 111.616371 155.788102 
L 111.76207 172.714977 
L 111.907768 162.485579 
L 112.053466 183.646804 
L 112.199164 144.112993 
L 112.344863 157.758751 
L 112.490561 152.064233 
L 112.636259 141.29325 
L 112.781957 154.636786 
L 112.927656 180.934254 
L 113.073354 149.655971 
L 113.219052 164.979363 
L 113.36475 144.374845 
L 113.510449 187.512266 
L 113.656147 182.84924 
L 113.801845 145.558699 
L 113.947543 191.140242 
L 114.23894 154.457171 
L 114.384638 186.754131 
L 114.676035 145.617143 
L 114.967431 171.64127 
L 115.113129 163.965531 
L 115.258828 180.666715 
L 115.404526 164.742161 
L 115.550224 172.388017 
L 115.695922 154.792244 
L 115.841621 158.408268 
L 115.987319 157.623508 
L 116.133017 176.429051 
L 116.278715 154.456236 
L 116.424414 171.348782 
L 116.570112 168.614465 
L 116.861508 186.517851 
L 117.152905 179.060078 
L 117.298603 150.19064 
L 117.444301 159.586974 
L 117.59 178.292841 
L 117.735698 159.329736 
L 117.881396 179.562715 
L 118.027094 169.753908 
L 118.172793 181.405742 
L 118.318491 167.832537 
L 118.464189 169.548188 
L 118.609887 153.490818 
L 118.755586 186.501589 
L 118.901284 181.252181 
L 119.338379 199.079482 
L 119.484077 174.299285 
L 119.629775 177.686798 
L 119.921172 190.209885 
L 120.06687 186.993417 
L 120.358266 171.747006 
L 120.503964 186.705647 
L 120.649663 162.781612 
L 120.795361 192.010025 
L 120.941059 187.599805 
L 121.086757 168.037186 
L 121.378154 178.305164 
L 121.523852 181.871127 
L 121.66955 174.826768 
L 121.815249 189.459918 
L 121.960947 175.262645 
L 122.106645 188.568781 
L 122.398042 171.94151 
L 122.54374 193.357331 
L 122.689438 148.488455 
L 122.980835 187.825135 
L 123.126533 176.514797 
L 123.272231 184.155603 
L 123.417929 175.101663 
L 123.563628 179.868668 
L 123.709326 198.940297 
L 123.855024 176.025758 
L 124.146421 188.711007 
L 124.292119 182.134844 
L 124.437817 181.209688 
L 124.583515 167.510581 
L 124.729214 173.093805 
L 124.874912 163.37094 
L 125.02061 179.193956 
L 125.166308 176.479895 
L 125.312007 177.310694 
L 125.457705 168.602986 
L 125.603403 183.51548 
L 125.749101 186.369627 
L 125.8948 200.683073 
L 126.186196 170.299122 
L 126.331894 195.228205 
L 126.623291 187.44417 
L 126.768989 186.407258 
L 126.914687 204.824645 
L 127.060386 178.657666 
L 127.351782 191.711583 
L 127.49748 163.678805 
L 127.643179 188.483955 
L 127.788877 180.666498 
L 127.934575 179.015388 
L 128.080273 179.147634 
L 128.37167 200.549239 
L 128.663066 182.023389 
L 129.100161 192.43275 
L 129.245859 182.006004 
L 129.391558 191.095177 
L 129.537256 182.483771 
L 129.682954 194.790922 
L 129.828652 182.698193 
L 129.97435 183.644455 
L 130.265747 210.60482 
L 130.411445 175.135967 
L 130.557143 179.452508 
L 130.702842 178.619363 
L 130.994238 193.877973 
L 131.139936 196.89295 
L 131.285635 189.039106 
L 131.431333 195.400708 
L 131.722729 181.607085 
L 131.868428 191.961649 
L 132.014126 193.605684 
L 132.159824 193.440772 
L 132.451221 177.25979 
L 132.596919 191.019057 
L 132.742617 188.088262 
L 132.888315 177.233396 
L 133.034014 179.077928 
L 133.179712 213.29701 
L 133.32541 188.247047 
L 133.471108 205.019466 
L 133.616807 193.233406 
L 133.762505 190.475584 
L 133.908203 193.911199 
L 134.053901 190.559957 
L 134.345298 199.445493 
L 134.490996 188.671168 
L 134.928091 209.610721 
L 135.219487 183.289158 
L 135.510884 199.610234 
L 135.656582 174.840509 
L 135.80228 195.340054 
L 135.947979 199.447661 
L 136.093677 192.627344 
L 136.385073 196.218319 
L 136.530772 191.581009 
L 136.67647 198.043848 
L 136.822168 194.207935 
L 136.967866 207.659043 
L 137.113565 210.702086 
L 137.259263 208.11922 
L 137.550659 196.23234 
L 137.696358 207.543947 
L 137.842056 199.02897 
L 137.987754 204.73368 
L 138.279151 188.818798 
L 138.424849 198.005773 
L 138.570547 196.003997 
L 138.716245 206.32667 
L 138.861944 203.771465 
L 139.007642 206.505906 
L 139.15334 195.243445 
L 139.299038 204.385215 
L 139.590435 194.441488 
L 139.736133 213.566446 
L 139.881831 188.502635 
L 140.173228 210.249459 
L 140.318926 188.627473 
L 140.464624 200.880556 
L 140.610322 186.34113 
L 140.756021 204.668142 
L 141.047417 192.481366 
L 141.193115 206.484699 
L 141.338814 207.220478 
L 141.484512 197.777437 
L 141.775908 195.390525 
L 141.921607 183.725067 
L 142.067305 207.528445 
L 142.213003 180.618885 
L 142.358701 198.689358 
L 142.5044 197.963165 
L 142.650098 205.644699 
L 142.795796 207.053256 
L 142.941494 191.17947 
L 143.087193 204.05307 
L 143.232891 200.860669 
L 143.378589 194.97976 
L 143.524287 201.020653 
L 143.669986 192.644857 
L 143.815684 194.089458 
L 143.961382 197.685945 
L 144.10708 186.459469 
L 144.252779 192.281653 
L 144.398477 189.16898 
L 144.544175 201.452863 
L 144.689873 201.373848 
L 144.835572 199.132031 
L 144.98127 200.737992 
L 145.126968 197.768921 
L 145.272666 187.551363 
L 145.564063 209.063417 
L 145.709761 206.051292 
L 145.855459 216.972994 
L 146.001158 204.403272 
L 146.146856 207.89069 
L 146.292554 217.023988 
L 146.438252 199.616282 
L 146.583951 203.954015 
L 146.729649 199.850662 
L 146.875347 208.399686 
L 147.021045 205.310177 
L 147.166744 206.620471 
L 147.312442 203.515207 
L 147.45814 194.803249 
L 147.749537 205.560439 
L 147.895235 211.3782 
L 148.040933 193.752845 
L 148.186631 197.558375 
L 148.33233 210.706073 
L 148.623726 197.277769 
L 148.769424 199.176839 
L 148.915123 208.352075 
L 149.060821 210.454712 
L 149.352217 200.961829 
L 149.497915 216.057713 
L 149.643614 198.36204 
L 149.789312 211.958712 
L 149.93501 209.897179 
L 150.080708 215.858936 
L 150.372105 202.020896 
L 150.517803 213.863001 
L 150.663501 208.260053 
L 150.8092 214.046574 
L 150.954898 210.144815 
L 151.100596 217.173052 
L 151.391993 204.879652 
L 151.537691 214.12272 
L 151.683389 211.212779 
L 151.829087 196.933625 
L 151.974786 213.33544 
L 152.120484 210.619313 
L 152.266182 211.299483 
L 152.41188 207.858385 
L 152.557579 212.048817 
L 152.703277 204.515488 
L 152.848975 219.205242 
L 152.994673 216.020686 
L 153.28607 204.656849 
L 153.577466 211.481868 
L 153.723165 208.120588 
L 153.868863 210.555588 
L 154.014561 207.481221 
L 154.160259 193.483205 
L 154.451656 209.690531 
L 154.597354 204.867306 
L 154.743052 213.678602 
L 154.888751 212.819403 
L 155.034449 200.087787 
L 155.180147 211.807568 
L 155.325845 213.68009 
L 155.471544 205.332298 
L 155.76294 213.769198 
L 155.908638 201.944839 
L 156.345733 216.790556 
L 156.491431 213.234 
L 156.782828 218.071103 
L 156.928526 217.060204 
L 157.074224 214.908348 
L 157.219923 217.356456 
L 157.365621 205.409014 
L 157.511319 217.362767 
L 158.094112 206.805473 
L 158.23981 214.663862 
L 158.385509 207.900888 
L 158.531207 216.088761 
L 158.676905 214.471637 
L 158.822603 209.252678 
L 158.968301 209.072122 
L 159.114 219.485409 
L 159.259698 221.908703 
L 159.551094 214.155706 
L 159.696793 211.364151 
L 159.842491 213.854214 
L 159.988189 222.272866 
L 160.279586 219.650411 
L 160.425284 206.63377 
L 160.570982 215.847648 
L 160.71668 217.555934 
L 160.862379 212.904077 
L 161.008077 214.499625 
L 161.153775 225.358641 
L 161.299473 209.096036 
L 161.445172 221.238674 
L 161.59087 215.881072 
L 161.736568 204.793499 
L 161.882266 218.810496 
L 162.173663 221.09785 
L 162.319361 219.101795 
L 162.610758 210.417633 
L 162.756456 226.860947 
L 162.902154 214.640049 
L 163.047852 215.371278 
L 163.193551 217.387391 
L 163.339249 216.857434 
L 163.484947 212.024679 
L 163.630645 215.0905 
L 163.776344 215.258874 
L 163.922042 222.279539 
L 164.06774 204.729807 
L 164.359137 219.239477 
L 164.504835 211.648628 
L 164.796231 219.530675 
L 165.087628 215.67169 
L 165.233326 222.21271 
L 165.379024 223.642176 
L 165.524723 212.75206 
L 165.816119 223.991776 
L 165.961817 220.713114 
L 166.107516 221.419442 
L 166.253214 221.344294 
L 166.398912 217.961916 
L 166.54461 220.019305 
L 166.690309 216.212075 
L 166.836007 223.4572 
L 166.981705 221.981984 
L 167.273102 226.699721 
L 167.4188 219.691955 
L 167.564498 222.254972 
L 167.710196 228.490161 
L 167.855895 225.383832 
L 168.001593 226.766894 
L 168.147291 225.138175 
L 168.292989 227.653925 
L 168.438687 226.000144 
L 168.584386 228.741662 
L 168.730084 221.494033 
L 168.875782 231.070797 
L 169.167179 228.002645 
L 169.312877 224.342718 
L 169.604273 228.499025 
L 169.89567 219.808497 
L 170.041368 229.882822 
L 170.187066 220.514401 
L 170.332765 227.166621 
L 170.478463 223.739707 
L 170.624161 228.644658 
L 170.769859 220.058177 
L 170.915558 228.598273 
L 171.061256 228.950229 
L 171.206954 223.715856 
L 171.352652 224.834574 
L 171.498351 228.571271 
L 171.644049 229.063557 
L 171.789747 227.914141 
L 171.935445 230.481569 
L 172.081144 227.247513 
L 172.226842 231.508914 
L 172.37254 226.54361 
L 172.518238 228.393908 
L 172.663937 221.79317 
L 172.809635 229.116431 
L 172.955333 228.915541 
L 173.101031 229.541835 
L 173.24673 231.842748 
L 173.392428 228.297257 
L 173.538126 229.113481 
L 173.683824 225.696248 
L 173.829523 231.978596 
L 173.975221 222.911417 
L 174.266617 226.483257 
L 174.412316 224.55336 
L 174.558014 219.155874 
L 174.703712 233.272978 
L 174.84941 229.259679 
L 174.995109 229.587157 
L 175.140807 231.905188 
L 175.577902 226.003573 
L 175.869298 231.382109 
L 176.014996 225.724263 
L 176.160695 225.742658 
L 176.306393 230.330682 
L 176.452091 228.155984 
L 176.597789 228.130175 
L 176.743488 224.268532 
L 177.034884 227.581556 
L 177.326281 229.983636 
L 177.471979 228.327769 
L 177.617677 234.003074 
L 177.763375 226.295023 
L 177.909074 226.793056 
L 178.054772 228.143124 
L 178.20047 227.598774 
L 178.346168 219.898151 
L 178.491866 227.789349 
L 178.637565 227.753307 
L 178.783263 229.612439 
L 178.928961 218.382798 
L 179.074659 226.874824 
L 179.220358 226.116421 
L 179.366056 229.473817 
L 179.511754 219.514073 
L 179.657452 233.763863 
L 180.094547 220.480098 
L 180.240245 232.57919 
L 180.385944 229.111915 
L 180.531642 229.015181 
L 180.67734 222.920253 
L 180.823038 228.254328 
L 180.968737 227.312499 
L 181.114435 229.19069 
L 181.260133 225.477573 
L 181.55153 228.138497 
L 181.697228 227.77912 
L 181.842926 224.435042 
L 181.988624 227.07999 
L 182.134323 226.120102 
L 182.280021 231.378582 
L 182.717116 223.662068 
L 182.862814 231.55304 
L 183.008512 230.330481 
L 183.15421 225.462032 
L 183.299909 228.733702 
L 183.445607 226.484643 
L 183.591305 227.75185 
L 183.737003 233.893222 
L 183.882702 228.01963 
L 184.0284 226.700784 
L 184.174098 231.453337 
L 184.319796 230.359057 
L 184.611193 224.687418 
L 184.756891 232.848592 
L 184.902589 234.015488 
L 185.048288 228.698103 
L 185.193986 228.773749 
L 185.485382 231.600661 
L 185.631081 226.12044 
L 185.776779 233.895141 
L 185.922477 225.734701 
L 186.068175 231.933102 
L 186.213874 228.122619 
L 186.359572 230.441368 
L 186.50527 229.644497 
L 186.650968 233.739919 
L 186.796667 227.603286 
L 186.942365 233.781629 
L 187.233761 229.453829 
L 187.525158 227.696998 
L 187.670856 227.751753 
L 187.816554 232.360653 
L 187.962252 225.427382 
L 188.399347 232.59224 
L 188.545045 231.589118 
L 188.690744 232.436841 
L 188.836442 228.771027 
L 189.127838 234.949462 
L 189.273537 228.096934 
L 189.419235 231.959259 
L 189.564933 229.198533 
L 189.710631 233.249962 
L 189.85633 229.532789 
L 190.002028 229.220758 
L 190.147726 227.299753 
L 190.439123 232.001779 
L 190.584821 228.957119 
L 190.876217 231.372749 
L 191.021916 228.946518 
L 191.167614 232.702331 
L 191.45901 228.615476 
L 191.604709 232.357391 
L 191.750407 233.192165 
L 191.896105 226.933793 
L 192.041803 227.957044 
L 192.187502 231.883712 
L 192.3332 230.10306 
L 192.478898 229.848709 
L 192.624596 230.670236 
L 192.770295 227.852785 
L 192.915993 231.94303 
L 193.061691 227.437578 
L 193.207389 232.658217 
L 193.498786 229.312762 
L 193.644484 232.696525 
L 193.790182 229.076541 
L 193.935881 234.73641 
L 194.081579 229.154754 
L 194.372975 233.583221 
L 194.518674 231.971769 
L 194.664372 231.952519 
L 194.81007 233.898465 
L 194.955768 231.393181 
L 195.101467 232.642294 
L 195.247165 227.975961 
L 195.538561 232.270316 
L 195.68426 232.485614 
L 195.829958 231.925011 
L 195.975656 232.145942 
L 196.121354 232.002331 
L 196.267053 230.622249 
L 196.412751 232.518225 
L 196.558449 228.025837 
L 196.704147 227.962169 
L 196.849846 229.770064 
L 197.141242 225.800734 
L 197.28694 227.561109 
L 197.432638 234.091607 
L 197.578337 233.285328 
L 197.724035 227.156357 
L 197.869733 232.140952 
L 198.015431 232.170582 
L 198.16113 232.467763 
L 198.306828 230.099694 
L 198.452526 231.108462 
L 198.598224 227.859382 
L 198.889621 231.376945 
L 199.035319 228.012519 
L 199.181017 232.399827 
L 199.326716 228.928917 
L 199.472414 230.062283 
L 199.618112 232.338838 
L 199.76381 228.789735 
L 200.055207 234.020676 
L 200.200905 231.171673 
L 200.346603 231.534077 
L 200.492302 235.560381 
L 200.638 232.571467 
L 200.929396 235.364463 
L 201.075095 230.124858 
L 201.366491 233.617741 
L 201.512189 230.619106 
L 201.803586 232.15773 
L 201.949284 228.989682 
L 202.094982 230.189454 
L 202.240681 229.15626 
L 202.386379 229.139202 
L 202.532077 230.332282 
L 202.677775 232.934382 
L 202.823474 230.587262 
L 202.969172 232.642282 
L 203.11487 231.908701 
L 203.406267 237.259616 
L 203.551965 234.545282 
L 203.697663 228.588638 
L 203.843361 236.459622 
L 203.98906 229.421649 
L 204.134758 233.550807 
L 204.280456 232.91174 
L 204.426154 233.560618 
L 204.571853 233.558319 
L 204.717551 232.892937 
L 204.863249 233.429923 
L 205.008947 232.562661 
L 205.154646 230.837127 
L 205.300344 232.105829 
L 205.446042 231.436338 
L 205.59174 235.398462 
L 205.737439 234.048034 
L 205.883137 234.455196 
L 206.028835 232.002679 
L 206.320232 234.749751 
L 206.46593 231.973605 
L 206.611628 232.679498 
L 206.757326 231.944419 
L 206.903025 232.165574 
L 207.048723 234.152711 
L 207.194421 230.468359 
L 207.340119 232.358199 
L 207.485817 235.697319 
L 207.777214 224.177363 
L 207.922912 223.041819 
L 208.06861 226.71333 
L 208.214309 234.079077 
L 208.360007 232.581196 
L 208.505705 227.414584 
L 208.797102 231.39364 
L 208.9428 229.9565 
L 209.088498 235.37503 
L 209.234196 229.939701 
L 209.379895 234.0465 
L 209.525593 233.390416 
L 209.671291 233.656785 
L 209.962688 228.306178 
L 210.108386 236.130408 
L 210.254084 234.680396 
L 210.399782 231.457948 
L 210.545481 235.216432 
L 210.691179 230.849183 
L 210.836877 233.285657 
L 210.982575 229.68965 
L 211.273972 231.237037 
L 211.41967 229.242392 
L 211.565368 231.848826 
L 211.711067 232.319049 
L 211.856765 236.75505 
L 212.148161 227.878024 
L 212.439558 232.43877 
L 212.585256 230.651071 
L 212.730954 234.270371 
L 212.876653 229.298684 
L 213.022351 235.319738 
L 213.168049 231.288283 
L 213.313747 235.650128 
L 213.459446 230.797741 
L 213.605144 229.972999 
L 213.750842 230.189605 
L 213.89654 232.028142 
L 214.042239 227.508778 
L 214.333635 234.291234 
L 214.625032 230.503937 
L 214.77073 230.972205 
L 214.916428 235.005906 
L 215.062126 231.170195 
L 215.207825 233.791892 
L 215.499221 231.658873 
L 215.644919 230.931595 
L 215.790618 234.670804 
L 215.936316 230.763001 
L 216.082014 234.991251 
L 216.227712 229.760101 
L 216.373411 230.949164 
L 216.519109 225.584877 
L 216.810505 232.048582 
L 217.101902 236.143558 
L 217.2476 231.783287 
L 217.393298 235.866886 
L 217.684695 233.281135 
L 217.830393 236.249024 
L 217.976091 231.804503 
L 218.267488 235.003841 
L 218.413186 230.909398 
L 218.558884 236.642636 
L 218.704582 235.028044 
L 218.850281 235.895983 
L 219.141677 233.269338 
L 219.287375 234.024079 
L 219.433074 234.168837 
L 219.578772 233.567126 
L 219.72447 235.304338 
L 219.870168 231.710618 
L 220.307263 235.15528 
L 220.452961 235.022421 
L 220.59866 235.411916 
L 220.744358 234.362264 
L 220.890056 229.473919 
L 221.035754 236.261877 
L 221.181453 231.367427 
L 221.327151 233.984507 
L 221.472849 231.660181 
L 221.618547 232.796013 
L 221.764246 232.234625 
L 222.055642 237.044416 
L 222.20134 236.357521 
L 222.492737 232.174492 
L 222.784133 233.676751 
L 222.929832 232.773853 
L 223.07553 233.489919 
L 223.221228 232.761901 
L 223.366926 235.900134 
L 223.512625 233.571575 
L 223.658323 233.750622 
L 223.949719 232.093877 
L 224.095418 234.753992 
L 224.241116 234.428651 
L 224.386814 233.136491 
L 224.678211 236.009015 
L 224.823909 235.469757 
L 224.969607 235.514149 
L 225.115305 234.707688 
L 225.261004 232.766517 
L 225.406702 233.138772 
L 225.5524 235.402762 
L 225.698098 235.366442 
L 225.843797 232.584633 
L 225.989495 234.007361 
L 226.135193 233.029561 
L 226.280891 235.765781 
L 226.572288 232.980926 
L 226.717986 233.594018 
L 226.863684 231.940673 
L 227.155081 234.95698 
L 227.300779 235.260122 
L 227.446477 232.719323 
L 227.592175 234.914088 
L 227.737874 233.393299 
L 227.883572 233.58509 
L 228.02927 236.686564 
L 228.174968 234.655748 
L 228.320667 235.245859 
L 228.466365 233.050653 
L 228.612063 235.766861 
L 228.90346 231.009916 
L 229.049158 233.335022 
L 229.194856 233.511111 
L 229.340554 234.757344 
L 229.486253 234.670767 
L 229.631951 232.001155 
L 229.777649 234.495998 
L 229.923347 233.348746 
L 230.069046 235.646817 
L 230.214744 235.769406 
L 230.651839 237.704079 
L 230.797537 235.291401 
L 230.943235 235.646404 
L 231.088933 236.313811 
L 231.234632 235.84254 
L 231.38033 233.484787 
L 231.526028 234.098965 
L 231.671726 235.380665 
L 231.817425 235.542888 
L 231.963123 237.161626 
L 232.400218 233.207144 
L 232.545916 234.580228 
L 232.691614 230.931249 
L 232.837312 236.181985 
L 232.983011 236.435103 
L 233.274407 233.099037 
L 233.565804 234.332612 
L 233.711502 234.676032 
L 233.8572 232.424314 
L 234.002898 236.493258 
L 234.294295 233.720176 
L 234.439993 235.657372 
L 234.585691 234.680336 
L 234.73139 234.583917 
L 234.877088 233.395098 
L 235.022786 236.690648 
L 235.168484 235.286955 
L 235.459881 235.986091 
L 235.605579 236.37394 
L 235.751277 236.212885 
L 235.896975 233.906703 
L 236.042674 234.642493 
L 236.188372 234.309394 
L 236.33407 235.810005 
L 236.479768 233.93593 
L 236.771165 233.330114 
L 237.062561 235.752541 
L 237.20826 235.573943 
L 237.353958 230.774325 
L 237.499656 232.108331 
L 237.645354 236.962205 
L 237.936751 233.457234 
L 238.082449 233.381426 
L 238.228147 234.075988 
L 238.373846 232.80656 
L 238.519544 237.699509 
L 238.665242 236.302868 
L 238.81094 236.559294 
L 239.102337 232.925578 
L 239.393733 235.501647 
L 239.539432 235.197236 
L 239.68513 231.589062 
L 239.830828 236.586408 
L 240.122225 231.632894 
L 240.267923 238.264667 
L 240.413621 235.582971 
L 240.559319 237.584312 
L 240.705018 233.49998 
L 240.850716 234.918376 
L 240.996414 233.711045 
L 241.142112 234.754783 
L 241.287811 233.973758 
L 241.433509 236.527742 
L 241.579207 231.844357 
L 241.724905 237.870998 
L 241.870604 233.339246 
L 242.016302 232.502086 
L 242.162 237.090326 
L 242.307698 237.054777 
L 242.453397 234.561642 
L 242.599095 236.249163 
L 242.744793 235.612096 
L 242.890491 235.803421 
L 243.03619 234.056375 
L 243.327586 236.015423 
L 243.473284 233.877088 
L 243.618983 235.908548 
L 243.764681 231.548032 
L 243.910379 235.294194 
L 244.056077 234.329622 
L 244.201776 235.143695 
L 244.347474 233.218199 
L 244.784569 237.284422 
L 245.075965 231.388096 
L 245.367362 236.697244 
L 245.950154 231.316141 
L 246.095853 231.821309 
L 246.241551 233.397822 
L 246.387249 236.337323 
L 246.532947 236.083799 
L 246.678646 233.894584 
L 246.824344 234.002678 
L 246.970042 236.290075 
L 247.11574 236.703923 
L 247.261439 234.909395 
L 247.552835 234.770578 
L 247.698533 234.944929 
L 247.98993 236.810788 
L 248.135628 232.551778 
L 248.281326 231.54288 
L 248.427025 235.904089 
L 248.572723 235.731622 
L 248.718421 231.935471 
L 248.864119 233.362174 
L 249.009818 237.762845 
L 249.155516 232.997171 
L 249.301214 237.981464 
L 249.446912 236.018605 
L 249.592611 237.397945 
L 249.884007 236.553902 
L 250.175404 235.197158 
L 250.321102 235.820455 
L 250.4668 234.785732 
L 250.612498 232.471083 
L 250.758197 234.375221 
L 250.903895 238.962622 
L 251.049593 236.550228 
L 251.195291 236.748325 
L 251.34099 237.222234 
L 251.486688 236.459599 
L 251.632386 237.7147 
L 251.778084 236.67139 
L 251.923783 236.638426 
L 252.069481 240.070999 
L 252.215179 233.606809 
L 252.797972 238.537865 
L 253.089369 236.03829 
L 253.235067 236.295714 
L 253.526463 237.305091 
L 253.672162 234.573833 
L 253.81786 238.459299 
L 253.963558 235.348566 
L 254.254955 239.225636 
L 254.546351 234.405417 
L 254.692049 236.461929 
L 254.837748 233.462154 
L 255.129144 238.26886 
L 255.274842 235.22429 
L 255.42054 235.207733 
L 255.566239 237.440839 
L 255.711937 236.487168 
L 255.857635 237.584958 
L 256.003333 236.422583 
L 256.149032 236.224891 
L 256.29473 235.218267 
L 256.440428 235.704627 
L 256.586126 235.625197 
L 256.731825 236.277444 
L 256.877523 238.038175 
L 257.023221 237.993794 
L 257.168919 234.399167 
L 257.314618 236.501415 
L 257.460316 235.639454 
L 257.606014 235.596772 
L 257.751712 234.87652 
L 257.897411 235.735404 
L 258.043109 235.7733 
L 258.188807 237.065047 
L 258.334505 235.817582 
L 258.480204 237.241618 
L 258.625902 235.854785 
L 258.7716 235.812678 
L 258.917298 237.685156 
L 259.062997 234.879997 
L 259.208695 237.992464 
L 259.354393 235.974278 
L 259.500091 235.517949 
L 259.64579 235.474194 
L 259.937186 239.042072 
L 260.228583 235.471687 
L 260.374281 237.54036 
L 260.519979 236.580527 
L 260.665677 237.05829 
L 260.811376 237.976192 
L 260.957074 237.242899 
L 261.102772 237.195342 
L 261.24847 235.728923 
L 261.394169 237.447195 
L 261.539867 237.512473 
L 261.685565 236.230178 
L 261.831263 237.399928 
L 261.976962 239.698916 
L 262.12266 238.505327 
L 262.268358 238.516332 
L 262.414056 237.37736 
L 262.705453 239.871268 
L 262.996849 235.046973 
L 263.142548 237.487598 
L 263.288246 236.385687 
L 263.433944 237.940468 
L 263.579642 236.616955 
L 263.725341 236.629115 
L 263.871039 235.601332 
L 264.016737 237.05941 
L 264.162435 237.214275 
L 264.308134 238.036326 
L 264.59953 236.226103 
L 264.745228 239.541307 
L 265.036625 235.5609 
L 265.182323 237.74401 
L 265.328021 236.73188 
L 265.473719 237.034034 
L 265.619418 237.030588 
L 265.765116 236.772472 
L 265.910814 235.622945 
L 266.202211 238.223835 
L 266.347909 236.167268 
L 266.493607 235.936346 
L 266.639305 234.546428 
L 266.785004 237.000738 
L 266.930702 235.854467 
L 267.0764 235.932967 
L 267.222098 237.112099 
L 267.367797 237.037729 
L 267.513495 239.805197 
L 267.659193 234.700475 
L 267.95059 238.814674 
L 268.241986 237.088505 
L 268.387684 238.308175 
L 268.533383 235.43415 
L 268.824779 237.615397 
L 269.116176 236.300268 
L 269.261874 237.617513 
L 269.407572 237.523405 
L 269.55327 235.010432 
L 269.844667 238.88049 
L 269.990365 238.416582 
L 270.136063 236.136895 
L 270.281762 239.287465 
L 270.42746 238.895386 
L 270.573158 238.938129 
L 270.718856 237.732706 
L 270.864555 239.417873 
L 271.155951 235.205748 
L 271.301649 239.591877 
L 271.447348 236.78707 
L 271.593046 236.763986 
L 271.738744 235.525939 
L 271.884442 238.018689 
L 272.030141 236.145904 
L 272.175839 237.659524 
L 272.321537 236.585919 
L 272.612934 237.497369 
L 272.758632 238.724001 
L 272.90433 237.24712 
L 273.050028 239.058465 
L 273.341425 235.133007 
L 273.487123 235.198875 
L 273.632821 238.604017 
L 274.215614 239.841042 
L 274.507011 234.924862 
L 274.944105 239.940451 
L 275.089804 235.650945 
L 275.235502 239.283715 
L 275.3812 236.697083 
L 275.526898 238.161643 
L 275.672597 236.948708 
L 275.818295 238.310634 
L 275.963993 235.70365 
L 276.109691 236.771004 
L 276.25539 238.897498 
L 276.401088 239.386532 
L 276.546786 238.971696 
L 276.838183 235.680336 
L 276.983881 239.726638 
L 277.129579 238.081058 
L 277.275277 239.713416 
L 277.420976 237.633062 
L 277.566674 237.989338 
L 277.712372 239.309804 
L 278.003769 235.632576 
L 278.149467 237.779723 
L 278.440863 234.331035 
L 278.586562 235.454278 
L 278.73226 239.193242 
L 279.023656 238.574959 
L 279.169355 237.78949 
L 279.460751 239.592926 
L 279.606449 235.909162 
L 279.752148 238.800148 
L 279.897846 236.205182 
L 280.189242 239.525989 
L 280.334941 238.370684 
L 280.480639 239.825815 
L 280.626337 235.244509 
L 280.772035 239.505892 
L 280.917734 238.942126 
L 281.063432 239.749317 
L 281.20913 238.76778 
L 281.354828 238.691037 
L 281.500527 237.53078 
L 281.646225 238.285029 
L 281.791923 238.258998 
L 281.937621 237.6041 
L 282.08332 239.066138 
L 282.229018 236.647821 
L 282.374716 239.859751 
L 282.520414 237.329213 
L 282.666113 238.213677 
L 282.811811 236.373619 
L 282.957509 238.634796 
L 283.103207 237.322977 
L 283.394604 238.16735 
L 283.686 236.265141 
L 283.977397 238.317789 
L 284.123095 238.281226 
L 284.268793 239.674721 
L 284.56019 237.314628 
L 284.705888 238.418557 
L 284.851586 237.005105 
L 284.997284 239.149686 
L 285.142983 235.633621 
L 285.434379 238.931778 
L 285.580077 238.931321 
L 285.725776 237.427814 
L 285.871474 238.465484 
L 286.017172 238.517722 
L 286.16287 235.480674 
L 286.454267 239.848136 
L 286.599965 237.354474 
L 287.03706 238.998613 
L 287.182758 238.958129 
L 287.328456 238.06177 
L 287.474155 235.950709 
L 287.619853 238.66407 
L 288.056948 239.296783 
L 288.202646 236.440058 
L 288.348344 238.579743 
L 288.494042 238.670626 
L 288.639741 238.174581 
L 288.785439 239.911961 
L 288.931137 237.828038 
L 289.076835 237.576768 
L 289.222534 237.970821 
L 289.368232 237.900372 
L 289.51393 236.762817 
L 289.659628 238.181451 
L 289.805327 235.539234 
L 289.951025 240.069597 
L 290.096723 237.346217 
L 290.38812 239.08197 
L 290.679516 238.912913 
L 290.825214 238.417544 
L 290.970913 236.886333 
L 291.262309 238.738793 
L 291.408007 237.080703 
L 291.553706 238.092648 
L 291.699404 238.232947 
L 291.845102 239.728246 
L 291.9908 233.906498 
L 292.282197 237.315834 
L 292.427895 238.540241 
L 292.719292 238.194856 
L 293.010688 238.941481 
L 293.156386 236.224427 
L 293.302085 238.360284 
L 293.447783 238.802254 
L 293.593481 238.070845 
L 293.739179 238.991989 
L 294.030576 237.368004 
L 294.321972 239.174999 
L 294.46767 236.437215 
L 294.613369 239.469485 
L 294.904765 238.336279 
L 295.050463 238.766027 
L 295.196162 237.892757 
L 295.34186 239.215562 
L 295.633256 238.468365 
L 295.778955 240.068307 
L 295.924653 240.003698 
L 296.070351 240.753431 
L 296.216049 238.87939 
L 296.361748 238.594134 
L 296.507446 240.630972 
L 296.653144 239.961212 
L 296.798842 240.597675 
L 297.090239 238.655071 
L 297.235937 232.225422 
L 297.527334 237.764882 
L 297.673032 236.855036 
L 297.81873 240.054502 
L 297.964428 239.15588 
L 298.110127 238.975457 
L 298.255825 238.979599 
L 298.401523 238.492878 
L 298.547221 238.963599 
L 298.69292 237.695858 
L 298.838618 239.704338 
L 298.984316 237.143635 
L 299.275713 239.250252 
L 299.421411 237.516129 
L 299.567109 237.650292 
L 299.712807 239.751823 
L 299.858506 239.634824 
L 300.004204 236.134403 
L 300.149902 238.86035 
L 300.2956 239.249762 
L 300.441299 240.635633 
L 300.586997 238.263726 
L 300.732695 239.654066 
L 300.878393 236.70108 
L 301.024092 239.760105 
L 301.461186 236.519136 
L 301.606885 239.200098 
L 301.752583 238.535946 
L 302.043979 238.407278 
L 302.189678 235.753747 
L 302.335376 239.706025 
L 302.481074 237.772796 
L 302.626772 239.743287 
L 302.772471 238.427281 
L 302.918169 239.248677 
L 303.063867 238.54085 
L 303.209565 240.381992 
L 303.355264 240.342973 
L 303.500962 238.758046 
L 303.64666 239.371206 
L 303.792358 238.97258 
L 303.938056 240.140013 
L 304.083755 235.997233 
L 304.375151 238.311775 
L 304.520849 237.359757 
L 304.666548 240.088051 
L 304.957944 235.886491 
L 305.103642 240.574493 
L 305.249341 237.781406 
L 305.395039 237.315716 
L 305.540737 239.623893 
L 305.832134 237.209284 
L 305.977832 239.729842 
L 306.12353 239.166823 
L 306.560625 241.305174 
L 306.706323 238.38322 
L 306.852021 238.479187 
L 306.99772 238.914845 
L 307.143418 239.731586 
L 307.289116 239.138927 
L 307.434814 239.789536 
L 307.580513 239.784137 
L 307.726211 237.873133 
L 307.871909 239.330429 
L 308.017607 238.09639 
L 308.163306 238.173057 
L 308.309004 239.747402 
L 308.454702 238.484984 
L 308.6004 238.957195 
L 308.746099 240.599404 
L 308.891797 239.201321 
L 309.037495 239.811853 
L 309.183193 238.902023 
L 309.328892 238.930612 
L 309.47459 239.278637 
L 309.620288 238.944836 
L 309.765986 239.430301 
L 309.911685 239.20807 
L 310.057383 239.375039 
L 310.203081 239.727918 
L 310.348779 238.67121 
L 310.494478 238.890479 
L 310.640176 240.65705 
L 310.785874 238.656413 
L 310.931572 238.283956 
L 311.077271 239.414455 
L 311.222969 239.28963 
L 311.368667 238.250524 
L 311.660064 239.410262 
L 311.805762 239.100453 
L 311.95146 239.80839 
L 312.242857 239.081829 
L 312.388555 239.640603 
L 312.534253 238.544282 
L 312.679951 239.880051 
L 312.971348 235.018899 
L 313.117046 239.520309 
L 313.262744 238.593885 
L 313.408442 239.081438 
L 313.554141 240.001944 
L 313.699839 238.868924 
L 313.845537 239.546694 
L 314.282632 237.918844 
L 314.42833 236.291371 
L 314.574028 240.839835 
L 314.719727 237.736156 
L 314.865425 238.181701 
L 315.011123 239.553434 
L 315.156821 239.454795 
L 315.30252 238.757647 
L 315.448218 237.254803 
L 315.593916 238.501435 
L 315.739614 240.820896 
L 315.885313 237.147269 
L 316.031011 237.256475 
L 316.322407 240.820145 
L 316.468106 238.834391 
L 316.613804 238.503437 
L 316.759502 239.706005 
L 317.050899 237.58399 
L 317.196597 240.047875 
L 317.342295 239.589809 
L 317.487993 238.420863 
L 317.77939 240.942034 
L 317.925088 236.034091 
L 318.070786 238.939628 
L 318.216485 239.414129 
L 318.362183 238.47795 
L 318.507881 239.773207 
L 318.799278 235.718405 
L 318.944976 241.241892 
L 319.090674 237.104236 
L 319.236372 239.614628 
L 319.527769 236.631346 
L 319.673467 240.535879 
L 319.819165 239.311656 
L 319.964864 241.115087 
L 320.25626 236.733783 
L 320.401958 236.846595 
L 320.693355 239.341593 
L 320.839053 237.085671 
L 320.984751 236.739901 
L 321.13045 237.632501 
L 321.276148 237.293818 
L 321.421846 239.020082 
L 321.567544 237.667968 
L 322.004639 239.216518 
L 322.150337 238.691931 
L 322.296036 238.964438 
L 322.441734 240.293426 
L 322.73313 237.990598 
L 322.878828 240.967991 
L 323.024527 240.351302 
L 323.170225 240.407122 
L 323.315923 239.905232 
L 323.461621 240.456908 
L 323.898716 237.663443 
L 324.044414 239.634037 
L 324.190113 235.967649 
L 324.335811 239.013888 
L 324.481509 236.643717 
L 324.772906 239.977059 
L 324.918604 241.374909 
L 325.21 236.67583 
L 325.501397 238.71918 
L 325.647095 238.60967 
L 325.792793 238.91136 
L 325.938492 237.258782 
L 326.08419 237.422997 
L 326.229888 239.571502 
L 326.375586 237.714201 
L 326.521285 239.624085 
L 326.666983 234.737979 
L 326.812681 239.586664 
L 327.104078 239.976685 
L 327.249776 239.772187 
L 327.686871 238.204536 
L 327.832569 240.090806 
L 327.978267 239.51969 
L 328.123965 239.769781 
L 328.269664 238.111053 
L 328.415362 240.123178 
L 328.56106 237.597976 
L 328.706758 237.364622 
L 328.998155 239.832828 
L 329.143853 237.638251 
L 329.289551 237.889181 
L 329.43525 240.6158 
L 329.580948 240.347759 
L 329.872344 238.031076 
L 330.018043 238.885893 
L 330.163741 238.878795 
L 330.309439 239.410043 
L 330.455137 239.176855 
L 330.600836 240.098069 
L 330.746534 239.686594 
L 330.892232 240.376435 
L 331.03793 239.183825 
L 331.183629 239.850883 
L 331.329327 235.503284 
L 331.475025 239.8759 
L 331.620723 237.870413 
L 331.91212 238.768763 
L 332.057818 238.569616 
L 332.203516 240.505462 
L 332.349215 239.491537 
L 332.494913 240.745254 
L 332.640611 237.904309 
L 332.786309 237.98083 
L 332.932007 237.021003 
L 333.223404 239.210445 
L 333.369102 239.433846 
L 333.5148 236.498604 
L 333.660499 238.904426 
L 333.806197 238.673195 
L 333.951895 238.897935 
L 334.097593 238.823723 
L 334.243292 236.780414 
L 334.38899 237.142534 
L 334.534688 239.821997 
L 334.680386 238.624656 
L 334.826085 239.400218 
L 334.971783 241.098053 
L 335.117481 238.932115 
L 335.263179 240.029414 
L 335.408878 239.77199 
L 335.554576 238.929271 
L 335.700274 236.215228 
L 336.137369 240.718708 
L 336.428765 238.097121 
L 336.574464 240.824635 
L 336.720162 239.021463 
L 336.86586 239.131565 
L 337.157257 238.487202 
L 337.302955 238.555784 
L 337.448653 238.091764 
L 337.594351 240.536476 
L 337.885748 238.532155 
L 338.177144 239.177222 
L 338.322843 238.64521 
L 338.759937 240.427491 
L 339.051334 239.567973 
L 339.197032 240.302428 
L 339.34273 240.366229 
L 339.488429 239.672732 
L 339.634127 240.03631 
L 339.779825 239.367178 
L 339.925523 239.576172 
L 340.071222 238.057474 
L 340.21692 239.099856 
L 340.508316 239.272107 
L 340.654015 238.501173 
L 340.799713 238.685365 
L 341.091109 240.165902 
L 341.236808 235.723706 
L 341.528204 241.228274 
L 341.965299 237.561895 
L 342.110997 240.425363 
L 342.256695 239.133103 
L 342.402393 241.20284 
L 342.548092 240.687432 
L 342.69379 241.7724 
L 342.985186 238.536275 
L 343.130885 239.84497 
L 343.276583 238.887721 
L 343.422281 239.4237 
L 343.567979 236.161028 
L 343.713678 238.53664 
L 343.859376 237.796424 
L 344.150772 241.034597 
L 344.296471 239.694222 
L 344.442169 240.38902 
L 344.587867 240.358261 
L 344.733565 239.014044 
L 344.879264 238.804011 
L 345.024962 240.067873 
L 345.316358 239.211966 
L 345.462057 237.991181 
L 345.607755 238.758892 
L 345.753453 237.282424 
L 345.899151 240.205928 
L 346.04485 239.146205 
L 346.190548 239.444371 
L 346.627643 240.804115 
L 346.773341 236.371467 
L 346.919039 239.614935 
L 347.064737 237.714882 
L 347.210436 239.677287 
L 347.356134 238.253931 
L 347.501832 240.343086 
L 347.64753 240.032586 
L 347.793229 237.247287 
L 347.938927 240.979248 
L 348.084625 239.122702 
L 348.230323 240.528602 
L 348.376022 237.166033 
L 348.667418 240.172869 
L 348.813116 238.468463 
L 348.958815 238.867697 
L 349.104513 237.42038 
L 349.395909 241.387615 
L 349.541608 239.707965 
L 349.687306 240.674931 
L 349.833004 239.400297 
L 349.978702 239.319962 
L 350.124401 240.51231 
L 350.415797 237.883905 
L 350.852892 239.362742 
L 350.99859 238.758823 
L 351.144288 239.255995 
L 351.289987 237.997099 
L 351.435685 238.950757 
L 351.581383 240.972103 
L 351.727081 238.629744 
L 352.018478 241.873848 
L 352.164176 241.004412 
L 352.309874 239.30417 
L 352.455572 240.165095 
L 352.601271 239.495604 
L 352.892667 239.239298 
L 353.038365 238.885494 
L 353.329762 240.858991 
L 353.621158 239.589052 
L 353.766857 240.722953 
L 353.912555 237.974039 
L 354.203951 240.923512 
L 354.34965 240.080583 
L 354.495348 240.760737 
L 354.786744 237.987477 
L 355.078141 240.589927 
L 355.223839 239.825392 
L 355.369537 239.668544 
L 355.515236 239.026555 
L 355.660934 241.407238 
L 355.806632 240.124522 
L 355.95233 240.142186 
L 356.098029 239.017253 
L 356.243727 241.298816 
L 356.535123 239.953007 
L 356.680822 240.748305 
L 356.82652 239.057386 
L 356.972218 239.809707 
L 357.117916 241.953504 
L 357.263615 240.624967 
L 357.409313 241.033348 
L 357.555011 240.669798 
L 357.700709 239.834596 
L 357.846408 241.348758 
L 358.137804 238.824705 
L 358.429201 240.690536 
L 358.574899 240.946348 
L 358.720597 239.621543 
L 358.866295 240.787398 
L 359.011994 239.346149 
L 359.157692 240.622511 
L 359.30339 240.145279 
L 359.449088 240.05267 
L 359.594787 241.505069 
L 359.740485 239.78193 
L 360.031881 241.082498 
L 360.17758 238.835999 
L 360.323278 240.366513 
L 360.468976 239.552051 
L 360.614674 240.071082 
L 360.760373 241.102281 
L 360.906071 240.799714 
L 361.197467 241.687467 
L 361.343165 240.846209 
L 361.634562 241.2777 
L 361.78026 241.797076 
L 361.925958 239.291474 
L 362.071657 240.40117 
L 362.217355 239.746473 
L 362.363053 242.089781 
L 362.508751 240.762901 
L 362.65445 241.804983 
L 362.800148 241.956943 
L 363.091544 239.608853 
L 363.237243 241.405168 
L 363.528639 240.496069 
L 363.674337 242.005632 
L 363.820036 240.571712 
L 363.965734 241.347492 
L 364.111432 239.434956 
L 364.25713 240.44087 
L 364.402829 240.481964 
L 364.694225 239.748002 
L 364.839923 241.490366 
L 365.13132 241.002478 
L 365.277018 239.704904 
L 365.422716 240.764516 
L 365.568415 240.62482 
L 365.714113 240.119706 
L 365.859811 241.619215 
L 366.005509 240.801758 
L 366.151208 241.834473 
L 366.296906 238.449751 
L 366.442604 241.067868 
L 366.588302 241.436321 
L 366.879699 240.244765 
L 367.025397 240.762033 
L 367.171095 240.111914 
L 367.316794 241.563478 
L 367.462492 240.512811 
L 367.60819 240.69851 
L 367.753888 240.484136 
L 367.899587 241.123812 
L 368.045285 241.043487 
L 368.190983 241.205181 
L 368.336681 240.914328 
L 368.628078 241.494977 
L 368.773776 240.001336 
L 369.065173 241.739762 
L 369.210871 240.73552 
L 369.356569 241.313524 
L 369.502267 241.346106 
L 369.647966 241.083137 
L 369.793664 239.978758 
L 369.939362 241.103957 
L 370.08506 240.074722 
L 370.230759 241.027424 
L 370.376457 240.514432 
L 370.522155 240.522999 
L 370.667853 241.21725 
L 370.813552 239.28511 
L 370.95925 241.517489 
L 371.104948 241.072301 
L 371.250646 240.198882 
L 371.396344 241.001573 
L 371.542043 240.336215 
L 371.687741 238.651151 
L 371.833439 241.074221 
L 371.979137 240.498788 
L 372.124836 241.291961 
L 372.270534 241.020821 
L 372.416232 241.006351 
L 372.56193 240.602229 
L 372.707629 241.251078 
L 372.853327 240.037494 
L 372.999025 241.949189 
L 373.144723 242.116364 
L 373.290422 241.186176 
L 373.43612 242.012692 
L 373.581818 241.279977 
L 373.581818 241.279977 
" style="fill:none;stroke:#1f77b4;stroke-linecap:square;stroke-width:1.5;"/>
   </g>
   <g id="patch_3">
    <path d="M 54 252 
L 54 34.56 
" style="fill:none;stroke:#000000;stroke-linecap:square;stroke-linejoin:miter;stroke-width:0.8;"/>
   </g>
   <g id="patch_4">
    <path d="M 388.8 252 
L 388.8 34.56 
" style="fill:none;stroke:#000000;stroke-linecap:square;stroke-linejoin:miter;stroke-width:0.8;"/>
   </g>
   <g id="patch_5">
    <path d="M 54 252 
L 388.8 252 
" style="fill:none;stroke:#000000;stroke-linecap:square;stroke-linejoin:miter;stroke-width:0.8;"/>
   </g>
   <g id="patch_6">
    <path d="M 54 34.56 
L 388.8 34.56 
" style="fill:none;stroke:#000000;stroke-linecap:square;stroke-linejoin:miter;stroke-width:0.8;"/>
   </g>
  </g>
 </g>
 <defs>
  <clipPath id="p555858ddbc">
   <rect height="217.44" width="334.8" x="54" y="34.56"/>
  </clipPath>
 </defs>
</svg>
