<?xml version="1.0" encoding="utf-8" standalone="no"?>
<!DOCTYPE svg PUBLIC "-//W3C//DTD SVG 1.1//EN"
  "http://www.w3.org/Graphics/SVG/1.1/DTD/svg11.dtd">
<!-- Created with matplotlib (https://matplotlib.org/) -->
<svg height="288pt" version="1.1" viewBox="0 0 432 288" width="432pt" xmlns="http://www.w3.org/2000/svg" xmlns:xlink="http://www.w3.org/1999/xlink">
 <defs>
  <style type="text/css">
*{stroke-linecap:butt;stroke-linejoin:round;}
  </style>
 </defs>
 <g id="figure_1">
  <g id="patch_1">
   <path d="M 0 288 
L 432 288 
L 432 0 
L 0 0 
z
" style="fill:#ffffff;"/>
  </g>
  <g id="axes_1">
   <g id="patch_2">
    <path d="M 54 252 
L 388.8 252 
L 388.8 34.56 
L 54 34.56 
z
" style="fill:#ffffff;"/>
   </g>
   <g id="matplotlib.axis_1">
    <g id="xtick_1">
     <g id="line2d_1">
      <defs>
       <path d="M 0 0 
L 0 3.5 
" id="m3ef5e48682" style="stroke:#000000;stroke-width:0.8;"/>
      </defs>
      <g>
       <use style="stroke:#000000;stroke-width:0.8;" x="69.218182" xlink:href="#m3ef5e48682" y="252"/>
      </g>
     </g>
     <g id="text_1">
      <!-- 0 -->
      <defs>
       <path d="M 31.78125 66.40625 
Q 24.171875 66.40625 20.328125 58.90625 
Q 16.5 51.421875 16.5 36.375 
Q 16.5 21.390625 20.328125 13.890625 
Q 24.171875 6.390625 31.78125 6.390625 
Q 39.453125 6.390625 43.28125 13.890625 
Q 47.125 21.390625 47.125 36.375 
Q 47.125 51.421875 43.28125 58.90625 
Q 39.453125 66.40625 31.78125 66.40625 
z
M 31.78125 74.21875 
Q 44.046875 74.21875 50.515625 64.515625 
Q 56.984375 54.828125 56.984375 36.375 
Q 56.984375 17.96875 50.515625 8.265625 
Q 44.046875 -1.421875 31.78125 -1.421875 
Q 19.53125 -1.421875 13.0625 8.265625 
Q 6.59375 17.96875 6.59375 36.375 
Q 6.59375 54.828125 13.0625 64.515625 
Q 19.53125 74.21875 31.78125 74.21875 
z
" id="DejaVuSans-48"/>
      </defs>
      <g transform="translate(66.036932 266.598437)scale(0.1 -0.1)">
       <use xlink:href="#DejaVuSans-48"/>
      </g>
     </g>
    </g>
    <g id="xtick_2">
     <g id="line2d_2">
      <g>
       <use style="stroke:#000000;stroke-width:0.8;" x="117.994406" xlink:href="#m3ef5e48682" y="252"/>
      </g>
     </g>
     <g id="text_2">
      <!-- 500 -->
      <defs>
       <path d="M 10.796875 72.90625 
L 49.515625 72.90625 
L 49.515625 64.59375 
L 19.828125 64.59375 
L 19.828125 46.734375 
Q 21.96875 47.46875 24.109375 47.828125 
Q 26.265625 48.1875 28.421875 48.1875 
Q 40.625 48.1875 47.75 41.5 
Q 54.890625 34.8125 54.890625 23.390625 
Q 54.890625 11.625 47.5625 5.09375 
Q 40.234375 -1.421875 26.90625 -1.421875 
Q 22.3125 -1.421875 17.546875 -0.640625 
Q 12.796875 0.140625 7.71875 1.703125 
L 7.71875 11.625 
Q 12.109375 9.234375 16.796875 8.0625 
Q 21.484375 6.890625 26.703125 6.890625 
Q 35.15625 6.890625 40.078125 11.328125 
Q 45.015625 15.765625 45.015625 23.390625 
Q 45.015625 31 40.078125 35.4375 
Q 35.15625 39.890625 26.703125 39.890625 
Q 22.75 39.890625 18.8125 39.015625 
Q 14.890625 38.140625 10.796875 36.28125 
z
" id="DejaVuSans-53"/>
      </defs>
      <g transform="translate(108.450656 266.598437)scale(0.1 -0.1)">
       <use xlink:href="#DejaVuSans-53"/>
       <use x="63.623047" xlink:href="#DejaVuSans-48"/>
       <use x="127.246094" xlink:href="#DejaVuSans-48"/>
      </g>
     </g>
    </g>
    <g id="xtick_3">
     <g id="line2d_3">
      <g>
       <use style="stroke:#000000;stroke-width:0.8;" x="166.770629" xlink:href="#m3ef5e48682" y="252"/>
      </g>
     </g>
     <g id="text_3">
      <!-- 1000 -->
      <defs>
       <path d="M 12.40625 8.296875 
L 28.515625 8.296875 
L 28.515625 63.921875 
L 10.984375 60.40625 
L 10.984375 69.390625 
L 28.421875 72.90625 
L 38.28125 72.90625 
L 38.28125 8.296875 
L 54.390625 8.296875 
L 54.390625 0 
L 12.40625 0 
z
" id="DejaVuSans-49"/>
      </defs>
      <g transform="translate(154.045629 266.598437)scale(0.1 -0.1)">
       <use xlink:href="#DejaVuSans-49"/>
       <use x="63.623047" xlink:href="#DejaVuSans-48"/>
       <use x="127.246094" xlink:href="#DejaVuSans-48"/>
       <use x="190.869141" xlink:href="#DejaVuSans-48"/>
      </g>
     </g>
    </g>
    <g id="xtick_4">
     <g id="line2d_4">
      <g>
       <use style="stroke:#000000;stroke-width:0.8;" x="215.546853" xlink:href="#m3ef5e48682" y="252"/>
      </g>
     </g>
     <g id="text_4">
      <!-- 1500 -->
      <g transform="translate(202.821853 266.598437)scale(0.1 -0.1)">
       <use xlink:href="#DejaVuSans-49"/>
       <use x="63.623047" xlink:href="#DejaVuSans-53"/>
       <use x="127.246094" xlink:href="#DejaVuSans-48"/>
       <use x="190.869141" xlink:href="#DejaVuSans-48"/>
      </g>
     </g>
    </g>
    <g id="xtick_5">
     <g id="line2d_5">
      <g>
       <use style="stroke:#000000;stroke-width:0.8;" x="264.323077" xlink:href="#m3ef5e48682" y="252"/>
      </g>
     </g>
     <g id="text_5">
      <!-- 2000 -->
      <defs>
       <path d="M 19.1875 8.296875 
L 53.609375 8.296875 
L 53.609375 0 
L 7.328125 0 
L 7.328125 8.296875 
Q 12.9375 14.109375 22.625 23.890625 
Q 32.328125 33.6875 34.8125 36.53125 
Q 39.546875 41.84375 41.421875 45.53125 
Q 43.3125 49.21875 43.3125 52.78125 
Q 43.3125 58.59375 39.234375 62.25 
Q 35.15625 65.921875 28.609375 65.921875 
Q 23.96875 65.921875 18.8125 64.3125 
Q 13.671875 62.703125 7.8125 59.421875 
L 7.8125 69.390625 
Q 13.765625 71.78125 18.9375 73 
Q 24.125 74.21875 28.421875 74.21875 
Q 39.75 74.21875 46.484375 68.546875 
Q 53.21875 62.890625 53.21875 53.421875 
Q 53.21875 48.921875 51.53125 44.890625 
Q 49.859375 40.875 45.40625 35.40625 
Q 44.1875 33.984375 37.640625 27.21875 
Q 31.109375 20.453125 19.1875 8.296875 
z
" id="DejaVuSans-50"/>
      </defs>
      <g transform="translate(251.598077 266.598437)scale(0.1 -0.1)">
       <use xlink:href="#DejaVuSans-50"/>
       <use x="63.623047" xlink:href="#DejaVuSans-48"/>
       <use x="127.246094" xlink:href="#DejaVuSans-48"/>
       <use x="190.869141" xlink:href="#DejaVuSans-48"/>
      </g>
     </g>
    </g>
    <g id="xtick_6">
     <g id="line2d_6">
      <g>
       <use style="stroke:#000000;stroke-width:0.8;" x="313.099301" xlink:href="#m3ef5e48682" y="252"/>
      </g>
     </g>
     <g id="text_6">
      <!-- 2500 -->
      <g transform="translate(300.374301 266.598437)scale(0.1 -0.1)">
       <use xlink:href="#DejaVuSans-50"/>
       <use x="63.623047" xlink:href="#DejaVuSans-53"/>
       <use x="127.246094" xlink:href="#DejaVuSans-48"/>
       <use x="190.869141" xlink:href="#DejaVuSans-48"/>
      </g>
     </g>
    </g>
    <g id="xtick_7">
     <g id="line2d_7">
      <g>
       <use style="stroke:#000000;stroke-width:0.8;" x="361.875524" xlink:href="#m3ef5e48682" y="252"/>
      </g>
     </g>
     <g id="text_7">
      <!-- 3000 -->
      <defs>
       <path d="M 40.578125 39.3125 
Q 47.65625 37.796875 51.625 33 
Q 55.609375 28.21875 55.609375 21.1875 
Q 55.609375 10.40625 48.1875 4.484375 
Q 40.765625 -1.421875 27.09375 -1.421875 
Q 22.515625 -1.421875 17.65625 -0.515625 
Q 12.796875 0.390625 7.625 2.203125 
L 7.625 11.71875 
Q 11.71875 9.328125 16.59375 8.109375 
Q 21.484375 6.890625 26.8125 6.890625 
Q 36.078125 6.890625 40.9375 10.546875 
Q 45.796875 14.203125 45.796875 21.1875 
Q 45.796875 27.640625 41.28125 31.265625 
Q 36.765625 34.90625 28.71875 34.90625 
L 20.21875 34.90625 
L 20.21875 43.015625 
L 29.109375 43.015625 
Q 36.375 43.015625 40.234375 45.921875 
Q 44.09375 48.828125 44.09375 54.296875 
Q 44.09375 59.90625 40.109375 62.90625 
Q 36.140625 65.921875 28.71875 65.921875 
Q 24.65625 65.921875 20.015625 65.03125 
Q 15.375 64.15625 9.8125 62.3125 
L 9.8125 71.09375 
Q 15.4375 72.65625 20.34375 73.4375 
Q 25.25 74.21875 29.59375 74.21875 
Q 40.828125 74.21875 47.359375 69.109375 
Q 53.90625 64.015625 53.90625 55.328125 
Q 53.90625 49.265625 50.4375 45.09375 
Q 46.96875 40.921875 40.578125 39.3125 
z
" id="DejaVuSans-51"/>
      </defs>
      <g transform="translate(349.150524 266.598437)scale(0.1 -0.1)">
       <use xlink:href="#DejaVuSans-51"/>
       <use x="63.623047" xlink:href="#DejaVuSans-48"/>
       <use x="127.246094" xlink:href="#DejaVuSans-48"/>
       <use x="190.869141" xlink:href="#DejaVuSans-48"/>
      </g>
     </g>
    </g>
   </g>
   <g id="matplotlib.axis_2">
    <g id="ytick_1">
     <g id="line2d_8">
      <defs>
       <path d="M 0 0 
L -3.5 0 
" id="me1bf3ebab2" style="stroke:#000000;stroke-width:0.8;"/>
      </defs>
      <g>
       <use style="stroke:#000000;stroke-width:0.8;" x="54" xlink:href="#me1bf3ebab2" y="244.196142"/>
      </g>
     </g>
     <g id="text_8">
      <!-- 0 -->
      <g transform="translate(40.6375 247.995361)scale(0.1 -0.1)">
       <use xlink:href="#DejaVuSans-48"/>
      </g>
     </g>
    </g>
    <g id="ytick_2">
     <g id="line2d_9">
      <g>
       <use style="stroke:#000000;stroke-width:0.8;" x="54" xlink:href="#me1bf3ebab2" y="196.88364"/>
      </g>
     </g>
     <g id="text_9">
      <!-- 2 -->
      <g transform="translate(40.6375 200.682859)scale(0.1 -0.1)">
       <use xlink:href="#DejaVuSans-50"/>
      </g>
     </g>
    </g>
    <g id="ytick_3">
     <g id="line2d_10">
      <g>
       <use style="stroke:#000000;stroke-width:0.8;" x="54" xlink:href="#me1bf3ebab2" y="149.571137"/>
      </g>
     </g>
     <g id="text_10">
      <!-- 4 -->
      <defs>
       <path d="M 37.796875 64.3125 
L 12.890625 25.390625 
L 37.796875 25.390625 
z
M 35.203125 72.90625 
L 47.609375 72.90625 
L 47.609375 25.390625 
L 58.015625 25.390625 
L 58.015625 17.1875 
L 47.609375 17.1875 
L 47.609375 0 
L 37.796875 0 
L 37.796875 17.1875 
L 4.890625 17.1875 
L 4.890625 26.703125 
z
" id="DejaVuSans-52"/>
      </defs>
      <g transform="translate(40.6375 153.370356)scale(0.1 -0.1)">
       <use xlink:href="#DejaVuSans-52"/>
      </g>
     </g>
    </g>
    <g id="ytick_4">
     <g id="line2d_11">
      <g>
       <use style="stroke:#000000;stroke-width:0.8;" x="54" xlink:href="#me1bf3ebab2" y="102.258635"/>
      </g>
     </g>
     <g id="text_11">
      <!-- 6 -->
      <defs>
       <path d="M 33.015625 40.375 
Q 26.375 40.375 22.484375 35.828125 
Q 18.609375 31.296875 18.609375 23.390625 
Q 18.609375 15.53125 22.484375 10.953125 
Q 26.375 6.390625 33.015625 6.390625 
Q 39.65625 6.390625 43.53125 10.953125 
Q 47.40625 15.53125 47.40625 23.390625 
Q 47.40625 31.296875 43.53125 35.828125 
Q 39.65625 40.375 33.015625 40.375 
z
M 52.59375 71.296875 
L 52.59375 62.3125 
Q 48.875 64.0625 45.09375 64.984375 
Q 41.3125 65.921875 37.59375 65.921875 
Q 27.828125 65.921875 22.671875 59.328125 
Q 17.53125 52.734375 16.796875 39.40625 
Q 19.671875 43.65625 24.015625 45.921875 
Q 28.375 48.1875 33.59375 48.1875 
Q 44.578125 48.1875 50.953125 41.515625 
Q 57.328125 34.859375 57.328125 23.390625 
Q 57.328125 12.15625 50.6875 5.359375 
Q 44.046875 -1.421875 33.015625 -1.421875 
Q 20.359375 -1.421875 13.671875 8.265625 
Q 6.984375 17.96875 6.984375 36.375 
Q 6.984375 53.65625 15.1875 63.9375 
Q 23.390625 74.21875 37.203125 74.21875 
Q 40.921875 74.21875 44.703125 73.484375 
Q 48.484375 72.75 52.59375 71.296875 
z
" id="DejaVuSans-54"/>
      </defs>
      <g transform="translate(40.6375 106.057853)scale(0.1 -0.1)">
       <use xlink:href="#DejaVuSans-54"/>
      </g>
     </g>
    </g>
    <g id="ytick_5">
     <g id="line2d_12">
      <g>
       <use style="stroke:#000000;stroke-width:0.8;" x="54" xlink:href="#me1bf3ebab2" y="54.946132"/>
      </g>
     </g>
     <g id="text_12">
      <!-- 8 -->
      <defs>
       <path d="M 31.78125 34.625 
Q 24.75 34.625 20.71875 30.859375 
Q 16.703125 27.09375 16.703125 20.515625 
Q 16.703125 13.921875 20.71875 10.15625 
Q 24.75 6.390625 31.78125 6.390625 
Q 38.8125 6.390625 42.859375 10.171875 
Q 46.921875 13.96875 46.921875 20.515625 
Q 46.921875 27.09375 42.890625 30.859375 
Q 38.875 34.625 31.78125 34.625 
z
M 21.921875 38.8125 
Q 15.578125 40.375 12.03125 44.71875 
Q 8.5 49.078125 8.5 55.328125 
Q 8.5 64.0625 14.71875 69.140625 
Q 20.953125 74.21875 31.78125 74.21875 
Q 42.671875 74.21875 48.875 69.140625 
Q 55.078125 64.0625 55.078125 55.328125 
Q 55.078125 49.078125 51.53125 44.71875 
Q 48 40.375 41.703125 38.8125 
Q 48.828125 37.15625 52.796875 32.3125 
Q 56.78125 27.484375 56.78125 20.515625 
Q 56.78125 9.90625 50.3125 4.234375 
Q 43.84375 -1.421875 31.78125 -1.421875 
Q 19.734375 -1.421875 13.25 4.234375 
Q 6.78125 9.90625 6.78125 20.515625 
Q 6.78125 27.484375 10.78125 32.3125 
Q 14.796875 37.15625 21.921875 38.8125 
z
M 18.3125 54.390625 
Q 18.3125 48.734375 21.84375 45.5625 
Q 25.390625 42.390625 31.78125 42.390625 
Q 38.140625 42.390625 41.71875 45.5625 
Q 45.3125 48.734375 45.3125 54.390625 
Q 45.3125 60.0625 41.71875 63.234375 
Q 38.140625 66.40625 31.78125 66.40625 
Q 25.390625 66.40625 21.84375 63.234375 
Q 18.3125 60.0625 18.3125 54.390625 
z
" id="DejaVuSans-56"/>
      </defs>
      <g transform="translate(40.6375 58.745351)scale(0.1 -0.1)">
       <use xlink:href="#DejaVuSans-56"/>
      </g>
     </g>
    </g>
   </g>
   <g id="line2d_13">
    <path clip-path="url(#pfc6112430a)" d="M 69.218182 159.977185 
L 69.315734 102.413692 
L 69.413287 111.090779 
L 69.510839 81.236035 
L 69.608392 108.425024 
L 69.705944 99.713245 
L 69.803497 141.852773 
L 70.096154 55.14428 
L 70.193706 144.828936 
L 70.291259 86.813373 
L 70.583916 147.872193 
L 70.876573 78.163686 
L 70.974126 133.862229 
L 71.071678 116.563707 
L 71.169231 136.524013 
L 71.266783 85.330486 
L 71.364336 165.086023 
L 71.559441 44.443636 
L 71.656993 118.270714 
L 71.852098 95.477075 
L 72.047203 109.902383 
L 72.144755 123.564035 
L 72.242308 122.72118 
L 72.33986 134.554973 
L 72.437413 129.108051 
L 72.534965 113.866075 
L 72.632517 135.856892 
L 72.73007 132.991693 
L 72.827622 111.998184 
L 72.925175 136.650052 
L 73.022727 90.048551 
L 73.12028 135.557855 
L 73.217832 94.306255 
L 73.315385 131.610378 
L 73.412937 110.120446 
L 73.51049 148.812796 
L 73.608042 147.874023 
L 73.705594 110.956883 
L 73.803147 117.958445 
L 73.900699 111.535517 
L 73.998252 62.32478 
L 74.193357 125.548771 
L 74.290909 106.674611 
L 74.583566 151.695108 
L 74.681119 94.934476 
L 74.973776 138.223074 
L 75.071329 130.772436 
L 75.168881 139.369924 
L 75.461538 92.007963 
L 75.559091 162.616301 
L 75.656643 119.44955 
L 75.754196 131.496423 
L 75.851748 121.361619 
L 75.949301 145.873537 
L 76.046853 137.16118 
L 76.144406 151.555166 
L 76.241958 150.870109 
L 76.437063 132.888101 
L 76.534615 152.843605 
L 76.632168 137.898492 
L 76.72972 140.24284 
L 76.827273 120.877581 
L 76.924825 122.919271 
L 77.022378 130.829615 
L 77.11993 151.86142 
L 77.315035 117.810224 
L 77.412587 119.047676 
L 77.51014 136.888764 
L 77.607692 107.814772 
L 77.705245 160.832222 
L 77.997902 95.157993 
L 78.095455 164.132961 
L 78.290559 103.930239 
L 78.388112 102.608743 
L 78.485664 125.064851 
L 78.583217 122.780767 
L 78.680769 133.864333 
L 78.778322 119.106373 
L 78.875874 134.413864 
L 78.973427 120.685237 
L 79.070979 145.049748 
L 79.168531 99.732619 
L 79.363636 143.064713 
L 79.461189 139.74341 
L 79.558741 99.142604 
L 79.656294 155.939202 
L 79.851399 97.188792 
L 80.046503 142.058227 
L 80.144056 103.138399 
L 80.339161 131.84942 
L 80.436713 129.212201 
L 80.534266 106.19901 
L 80.631818 133.192971 
L 80.729371 105.221363 
L 80.826923 106.441184 
L 80.924476 96.606678 
L 81.11958 122.046458 
L 81.217133 134.301079 
L 81.314685 129.693831 
L 81.50979 76.218583 
L 81.607343 141.525916 
L 81.704895 125.644393 
L 81.802448 139.177179 
L 81.9 110.107248 
L 81.997552 111.489854 
L 82.192657 143.264366 
L 82.29021 140.155439 
L 82.387762 112.740138 
L 82.485315 148.921678 
L 82.582867 92.995893 
L 82.777972 162.376544 
L 82.875524 138.381363 
L 83.265734 166.376481 
L 83.460839 140.798795 
L 83.558392 147.428605 
L 83.753497 129.21343 
L 83.851049 159.949757 
L 83.948601 124.412084 
L 84.046154 130.543719 
L 84.143706 118.438857 
L 84.338811 124.981135 
L 84.436364 114.638434 
L 84.533916 153.628624 
L 84.631469 125.180309 
L 84.826573 166.856947 
L 84.924126 96.238307 
L 85.216783 153.567152 
L 85.314336 107.523472 
L 85.411888 119.272338 
L 85.509441 152.182727 
L 85.606993 146.910603 
L 85.704545 114.827056 
L 85.89965 136.035807 
L 85.997203 151.714941 
L 86.094755 117.753253 
L 86.192308 147.485782 
L 86.28986 138.2004 
L 86.387413 146.284333 
L 86.484965 104.601765 
L 86.582517 140.592495 
L 86.68007 134.870333 
L 86.875175 149.267337 
L 87.07028 167.676536 
L 87.167832 101.929332 
L 87.362937 165.165219 
L 87.46049 76.694522 
L 87.558042 158.349723 
L 87.655594 140.384548 
L 87.850699 163.996936 
L 88.240909 134.909707 
L 88.338462 89.63921 
L 88.436014 165.340913 
L 88.533566 136.07068 
L 88.631119 142.539203 
L 88.728671 117.888632 
L 88.826224 153.809961 
L 88.923776 153.047311 
L 89.021329 146.827313 
L 89.118881 169.450294 
L 89.313986 129.276628 
L 89.411538 129.765948 
L 89.606643 159.567181 
L 89.704196 169.59794 
L 89.996853 134.377133 
L 90.094406 141.172186 
L 90.191958 169.544229 
L 90.387063 158.492817 
L 90.484615 141.080958 
L 90.582168 159.69172 
L 90.67972 109.158811 
L 90.874825 163.088774 
L 90.972378 136.21448 
L 91.167483 152.916692 
L 91.265035 145.15026 
L 91.46014 159.377085 
L 91.557692 127.560817 
L 91.752797 166.398799 
L 91.85035 148.739898 
L 91.947902 164.16483 
L 92.045455 163.656762 
L 92.143007 160.773845 
L 92.240559 177.270126 
L 92.338112 153.719139 
L 92.435664 154.603857 
L 92.533217 182.907382 
L 92.630769 147.005804 
L 92.825874 167.945836 
L 92.923427 157.742815 
L 93.020979 169.06943 
L 93.216084 155.905669 
L 93.411189 160.132197 
L 93.508741 159.458635 
L 93.606294 165.993666 
L 93.703846 158.99522 
L 93.801399 184.252716 
L 93.898951 157.021262 
L 93.996503 185.670772 
L 94.289161 151.621857 
L 94.386713 187.975891 
L 94.484266 146.975303 
L 94.679371 178.187946 
L 94.874476 151.992707 
L 94.972028 176.183709 
L 95.06958 149.093644 
L 95.167133 149.742376 
L 95.264685 156.024725 
L 95.362238 146.844825 
L 95.45979 153.325449 
L 95.654895 184.695194 
L 95.752448 138.586961 
L 96.045105 197.165492 
L 96.24021 147.90452 
L 96.337762 154.59547 
L 96.435315 150.586838 
L 96.532867 186.717186 
L 96.63042 170.910922 
L 96.825524 179.780352 
L 97.020629 150.498932 
L 97.118182 169.893977 
L 97.215734 159.797517 
L 97.508392 186.783889 
L 97.605944 165.34318 
L 97.703497 182.816283 
L 97.801049 148.550586 
L 97.898601 151.776274 
L 98.093706 187.010736 
L 98.191259 163.78116 
L 98.386364 204.389509 
L 98.483916 162.369172 
L 98.581469 169.377159 
L 98.679021 185.590894 
L 98.776573 174.480171 
L 98.874126 183.224459 
L 98.971678 154.375797 
L 99.166783 190.602779 
L 99.264336 156.98186 
L 99.361888 178.484584 
L 99.459441 176.957944 
L 99.654545 195.637018 
L 99.752098 181.006319 
L 99.84965 182.405013 
L 100.044755 192.84941 
L 100.142308 156.226246 
L 100.337413 204.219283 
L 100.434965 196.903352 
L 100.532517 197.819717 
L 100.63007 196.81379 
L 100.727622 199.977658 
L 100.825175 190.045288 
L 101.02028 196.362061 
L 101.117832 176.881436 
L 101.312937 189.120648 
L 101.41049 187.364939 
L 101.508042 181.762845 
L 101.703147 191.898793 
L 101.800699 190.369494 
L 101.898252 194.789129 
L 101.995804 204.708861 
L 102.093357 191.078394 
L 102.190909 201.91006 
L 102.288462 189.235796 
L 102.386014 196.179489 
L 102.581119 172.966258 
L 102.776224 195.278085 
L 102.873776 195.391718 
L 102.971329 201.117263 
L 103.166434 185.674957 
L 103.263986 211.339333 
L 103.459091 184.845404 
L 103.556643 188.325063 
L 103.654196 197.850045 
L 103.751748 197.229872 
L 103.849301 199.839896 
L 103.946853 191.656207 
L 104.044406 207.904466 
L 104.23951 192.03881 
L 104.337063 187.330459 
L 104.62972 202.080881 
L 104.824825 192.529287 
L 104.922378 200.892531 
L 105.117483 179.408325 
L 105.215035 204.367283 
L 105.312587 204.103553 
L 105.507692 190.68046 
L 105.605245 208.265318 
L 105.702797 207.400103 
L 105.80035 195.877785 
L 106.093007 211.796068 
L 106.288112 197.905957 
L 106.483217 210.252859 
L 106.580769 200.23191 
L 106.678322 208.507 
L 106.775874 202.2055 
L 106.873427 209.237306 
L 106.970979 182.508655 
L 107.166084 206.883523 
L 107.263636 200.329041 
L 107.361189 201.367827 
L 107.458741 200.568731 
L 107.653846 206.504106 
L 107.751399 201.035552 
L 107.848951 202.390473 
L 107.946503 210.351287 
L 108.044056 209.056438 
L 108.336713 218.02664 
L 108.531818 205.326651 
L 108.629371 201.720839 
L 108.824476 213.588721 
L 109.01958 206.102742 
L 109.214685 216.011078 
L 109.40979 203.781989 
L 109.604895 214.076608 
L 109.8 205.402214 
L 109.897552 211.132912 
L 109.995105 200.452463 
L 110.092657 208.975059 
L 110.19021 204.495114 
L 110.385315 215.262489 
L 110.58042 217.999623 
L 110.677972 215.756693 
L 110.775524 207.193081 
L 110.970629 218.803647 
L 111.068182 219.40042 
L 111.165734 218.178478 
L 111.263287 202.633795 
L 111.458392 224.898027 
L 111.555944 225.547012 
L 111.751049 210.841642 
L 111.848601 218.737034 
L 112.043706 215.021325 
L 112.141259 222.052844 
L 112.238811 220.120547 
L 112.336364 215.492315 
L 112.531469 224.08486 
L 112.726573 217.463819 
L 112.824126 219.8886 
L 113.116783 215.92332 
L 113.311888 229.440995 
L 113.604545 217.481909 
L 113.702098 226.20846 
L 113.897203 220.546449 
L 113.994755 228.912427 
L 114.092308 228.581384 
L 114.18986 224.426839 
L 114.384965 229.385221 
L 114.482517 228.790167 
L 114.775175 223.011863 
L 114.872727 227.615609 
L 114.97028 225.303586 
L 115.165385 228.624985 
L 115.262937 226.529033 
L 115.36049 231.529003 
L 115.458042 224.542742 
L 115.653147 231.002037 
L 115.750699 219.500057 
L 115.945804 232.36639 
L 116.043357 229.550814 
L 116.140909 231.863449 
L 116.238462 227.727096 
L 116.336014 232.574362 
L 116.433566 232.420764 
L 116.726224 228.519664 
L 116.921329 232.770626 
L 117.116434 228.095164 
L 117.506643 233.11476 
L 117.604196 232.911756 
L 117.701748 233.508267 
L 117.799301 228.375669 
L 117.994406 235.800561 
L 118.091958 193.032555 
L 118.18951 232.967285 
L 118.287063 229.482348 
L 118.482168 232.636258 
L 118.57972 228.185128 
L 118.677273 209.423419 
L 118.774825 234.467254 
L 118.872378 213.101305 
L 118.96993 220.883743 
L 119.067483 203.101293 
L 119.165035 231.518554 
L 119.36014 209.361962 
L 119.457692 225.42611 
L 119.555245 214.10705 
L 119.652797 232.997688 
L 119.75035 208.006123 
L 119.847902 233.872313 
L 119.945455 217.040838 
L 120.043007 228.625609 
L 120.140559 222.041176 
L 120.238112 235.914332 
L 120.335664 234.041318 
L 120.433217 204.290335 
L 120.530769 232.957597 
L 120.628322 230.862565 
L 120.725874 235.453299 
L 120.823427 234.946454 
L 120.920979 216.87941 
L 121.116084 234.317772 
L 121.213636 228.071176 
L 121.311189 231.081795 
L 121.408741 230.593869 
L 121.506294 223.384237 
L 121.701399 236.524344 
L 121.798951 223.530754 
L 121.896503 229.74069 
L 122.189161 225.596914 
L 122.286713 229.921082 
L 122.384266 227.758716 
L 122.481818 234.384963 
L 122.579371 219.173223 
L 122.774476 234.36594 
L 122.872028 232.047471 
L 122.96958 209.818803 
L 123.164685 236.969553 
L 123.262238 235.691459 
L 123.35979 218.563065 
L 123.457343 236.165397 
L 123.554895 234.010855 
L 123.652448 215.586145 
L 123.847552 234.855649 
L 123.945105 221.304541 
L 124.14021 234.272259 
L 124.237762 229.090057 
L 124.335315 229.333985 
L 124.53042 235.69033 
L 124.627972 234.842996 
L 124.725524 235.112938 
L 124.823077 232.733265 
L 124.920629 235.926438 
L 125.115734 211.120602 
L 125.213287 214.690124 
L 125.310839 229.467666 
L 125.505944 217.744108 
L 125.701049 232.58257 
L 125.798601 212.711591 
L 125.993706 230.604777 
L 126.091259 237.862811 
L 126.286364 224.352441 
L 126.481469 234.814963 
L 126.579021 233.427782 
L 126.676573 229.262726 
L 126.871678 237.931534 
L 126.969231 229.93814 
L 127.066783 236.200913 
L 127.164336 232.23206 
L 127.261888 234.905186 
L 127.456993 230.896751 
L 127.554545 233.758978 
L 127.652098 224.615168 
L 127.74965 232.115951 
L 127.847203 228.896073 
L 127.944755 237.04334 
L 128.042308 236.038199 
L 128.13986 210.62904 
L 128.334965 235.464661 
L 128.432517 236.887234 
L 128.627622 230.999827 
L 128.725175 218.235708 
L 128.822727 224.938675 
L 128.92028 196.932621 
L 129.017832 236.504029 
L 129.115385 234.046378 
L 129.212937 216.207264 
L 129.31049 236.140636 
L 129.408042 235.654275 
L 129.505594 233.324225 
L 129.603147 236.43866 
L 129.798252 234.380073 
L 129.895804 234.665986 
L 129.993357 231.920332 
L 130.090909 235.363508 
L 130.286014 223.19732 
L 130.481119 235.307606 
L 130.578671 231.150482 
L 130.676224 239.231029 
L 130.773776 232.83135 
L 130.871329 217.311174 
L 131.066434 238.485384 
L 131.261538 213.997058 
L 131.456643 238.069699 
L 131.651748 221.38026 
L 131.944406 236.826632 
L 132.041958 229.305191 
L 132.13951 236.375428 
L 132.237063 207.430097 
L 132.334615 229.97677 
L 132.432168 218.954077 
L 132.52972 228.731448 
L 132.627273 219.333562 
L 132.724825 235.898367 
L 132.91993 228.444658 
L 133.017483 208.826327 
L 133.115035 236.272851 
L 133.212587 212.489316 
L 133.407692 227.965631 
L 133.505245 208.23708 
L 133.70035 234.993965 
L 133.797902 221.139854 
L 133.895455 236.678253 
L 133.993007 219.584504 
L 134.188112 236.132719 
L 134.285664 234.051934 
L 134.383217 237.106273 
L 134.578322 234.674174 
L 134.675874 227.393119 
L 134.773427 237.53173 
L 134.870979 203.260175 
L 134.968531 236.94472 
L 135.066084 213.55385 
L 135.261189 235.019472 
L 135.358741 236.816858 
L 135.553846 211.36042 
L 135.651399 236.409248 
L 135.748951 234.303336 
L 135.846503 237.188573 
L 136.041608 226.681655 
L 136.139161 236.090379 
L 136.236713 230.725316 
L 136.431818 235.497899 
L 136.529371 235.886162 
L 136.626923 235.077116 
L 136.724476 231.377636 
L 136.91958 237.582988 
L 137.017133 235.78682 
L 137.114685 230.352759 
L 137.212238 238.244265 
L 137.30979 235.111141 
L 137.407343 236.235284 
L 137.504895 231.437161 
L 137.602448 234.832878 
L 137.7 225.319802 
L 137.895105 237.142725 
L 138.09021 234.006051 
L 138.187762 237.052023 
L 138.382867 225.237613 
L 138.48042 235.967734 
L 138.577972 235.034656 
L 138.675524 214.477466 
L 138.870629 238.167028 
L 138.968182 238.484661 
L 139.163287 216.555803 
L 139.260839 217.598 
L 139.358392 233.051682 
L 139.455944 233.03932 
L 139.553497 223.245929 
L 139.748601 238.11628 
L 139.943706 236.152237 
L 140.041259 238.263004 
L 140.138811 223.171874 
L 140.236364 238.29859 
L 140.333916 236.526971 
L 140.431469 236.158733 
L 140.626573 237.98539 
L 140.724126 235.186376 
L 140.821678 238.023352 
L 140.919231 237.059909 
L 141.016783 237.957118 
L 141.114336 236.576296 
L 141.211888 238.48861 
L 141.406993 234.277154 
L 141.602098 238.706455 
L 141.797203 237.493921 
L 141.992308 237.959555 
L 142.08986 239.056974 
L 142.187413 238.133025 
L 142.284965 234.870583 
L 142.382517 239.729551 
L 142.577622 237.792906 
L 142.772727 238.756559 
L 142.87028 237.331528 
L 142.967832 237.339044 
L 143.065385 240.406647 
L 143.26049 236.347201 
L 143.358042 238.313966 
L 143.455594 238.254177 
L 143.553147 238.823223 
L 143.650699 236.904166 
L 143.845804 238.312057 
L 143.943357 239.401523 
L 144.040909 239.161049 
L 144.138462 238.100331 
L 144.333566 239.625319 
L 144.431119 239.251621 
L 144.528671 239.053588 
L 144.626224 237.406557 
L 144.723776 237.495805 
L 144.821329 237.031998 
L 145.016434 239.259753 
L 145.113986 240.186959 
L 145.211538 238.078381 
L 145.309091 239.13939 
L 145.504196 237.502642 
L 145.699301 238.51407 
L 145.796853 238.11397 
L 145.894406 238.379584 
L 145.991958 237.729869 
L 146.08951 239.722864 
L 146.284615 237.488006 
L 146.47972 239.652622 
L 146.577273 237.677582 
L 146.674825 239.740403 
L 146.772378 237.511839 
L 146.86993 238.950283 
L 146.967483 238.860644 
L 147.065035 236.264991 
L 147.26014 239.151767 
L 147.357692 236.551801 
L 147.552797 239.187785 
L 147.747902 237.13609 
L 147.845455 239.685818 
L 147.943007 236.882165 
L 148.138112 239.640952 
L 148.235664 239.549808 
L 148.333217 238.01977 
L 148.430769 238.772466 
L 148.528322 238.558267 
L 148.625874 239.848545 
L 148.820979 236.534822 
L 149.016084 239.710347 
L 149.113636 236.114995 
L 149.308741 239.477032 
L 149.406294 237.704741 
L 149.601399 238.978615 
L 149.698951 237.187306 
L 149.796503 238.526944 
L 149.894056 237.613257 
L 149.991608 238.822699 
L 150.186713 237.92377 
L 150.284266 239.260666 
L 150.381818 238.244784 
L 150.479371 240.741689 
L 150.674476 238.00314 
L 150.772028 239.090031 
L 150.967133 237.574481 
L 151.064685 239.005784 
L 151.162238 237.978773 
L 151.25979 238.283786 
L 151.454895 237.695346 
L 151.552448 238.225161 
L 151.65 237.961969 
L 151.747552 239.984779 
L 151.845105 238.728328 
L 151.942657 235.953268 
L 152.235315 239.81121 
L 152.332867 238.057485 
L 152.43042 238.883852 
L 152.625524 237.580007 
L 153.015734 239.881256 
L 153.113287 239.791395 
L 153.210839 237.090367 
L 153.308392 240.942423 
L 153.503497 238.06771 
L 153.601049 236.767549 
L 153.698601 238.739811 
L 153.796154 237.104377 
L 153.893706 239.023512 
L 153.991259 238.901249 
L 154.088811 238.879431 
L 154.186364 240.232642 
L 154.283916 238.706047 
L 154.381469 238.868328 
L 154.479021 239.034228 
L 154.576573 238.846783 
L 154.674126 240.289074 
L 154.771678 238.318538 
L 154.869231 239.7413 
L 154.966783 238.393506 
L 155.064336 240.025963 
L 155.161888 239.227281 
L 155.64965 240.548462 
L 155.747203 240.262592 
L 155.942308 238.598927 
L 156.03986 238.359003 
L 156.137413 238.46404 
L 156.234965 238.848754 
L 156.332517 239.90466 
L 156.43007 239.485607 
L 156.527622 239.517454 
L 156.625175 237.215896 
L 156.722727 239.10518 
L 156.82028 238.110999 
L 156.917832 240.075387 
L 157.112937 237.569766 
L 157.308042 240.296273 
L 157.503147 237.80498 
L 157.600699 238.420449 
L 157.795804 237.520761 
L 157.990909 240.045616 
L 158.186014 238.241673 
L 158.283566 239.477745 
L 158.381119 239.366994 
L 158.478671 239.750848 
L 158.576224 238.882619 
L 158.771329 239.901675 
L 158.868881 239.157475 
L 158.966434 236.722545 
L 159.161538 238.409807 
L 159.356643 239.221281 
L 159.551748 237.848654 
L 160.03951 239.653567 
L 160.137063 240.582451 
L 160.332168 238.840078 
L 160.42972 240.094821 
L 160.527273 238.717827 
L 160.917483 240.825798 
L 161.015035 236.815496 
L 161.112587 239.446115 
L 161.21014 239.357046 
L 161.307692 238.784878 
L 161.405245 239.210267 
L 161.60035 236.922883 
L 161.795455 239.701628 
L 161.893007 239.904906 
L 161.990559 237.223583 
L 162.185664 240.323672 
L 162.283217 238.325221 
L 162.478322 239.660041 
L 162.575874 238.695434 
L 162.770979 240.114839 
L 162.868531 239.041921 
L 162.966084 240.01096 
L 163.063636 239.215233 
L 163.161189 239.575984 
L 163.258741 239.15791 
L 163.356294 239.190786 
L 163.453846 239.098627 
L 163.551399 240.384048 
L 163.746503 238.375656 
L 163.941608 239.80496 
L 164.136713 239.10405 
L 164.234266 239.95134 
L 164.429371 239.117197 
L 164.526923 238.963045 
L 164.624476 238.06524 
L 164.81958 240.445264 
L 165.014685 239.777788 
L 165.112238 239.33211 
L 165.20979 240.70706 
L 165.307343 239.382301 
L 165.404895 239.780322 
L 165.502448 238.730343 
L 165.6 239.560353 
L 165.697552 238.291754 
L 165.795105 239.962304 
L 165.892657 239.035265 
L 165.99021 240.475589 
L 166.185315 237.811669 
L 166.282867 239.911486 
L 166.38042 238.62608 
L 166.477972 239.770951 
L 166.673077 238.841272 
L 166.868182 240.620525 
L 167.063287 239.241416 
L 167.160839 239.153573 
L 167.258392 239.668585 
L 167.648601 237.51395 
L 167.843706 238.64358 
L 167.941259 238.981683 
L 168.038811 237.66706 
L 168.136364 239.48466 
L 168.233916 239.091456 
L 168.331469 237.972083 
L 168.526573 239.498005 
L 168.624126 238.488174 
L 168.721678 239.390181 
L 168.819231 238.510269 
L 169.014336 240.124581 
L 169.209441 238.143974 
L 169.404545 240.28317 
L 169.502098 240.339085 
L 169.59965 239.838782 
L 169.697203 238.543278 
L 169.892308 239.334597 
L 170.087413 238.816612 
L 170.282517 240.209839 
L 170.477622 237.538649 
L 170.575175 238.98593 
L 170.672727 237.551652 
L 170.867832 240.084054 
L 171.062937 238.469951 
L 171.16049 240.771079 
L 171.453147 239.011321 
L 171.550699 236.502103 
L 171.648252 239.467851 
L 171.745804 239.416443 
L 171.843357 238.760356 
L 171.940909 240.723232 
L 172.038462 238.486811 
L 172.136014 240.474796 
L 172.331119 238.767586 
L 172.428671 239.821313 
L 172.526224 238.984043 
L 172.623776 239.411323 
L 172.721329 239.305108 
L 172.916434 241.053783 
L 173.013986 239.799595 
L 173.111538 240.257848 
L 173.209091 239.861117 
L 173.306643 240.095153 
L 173.501748 239.675923 
L 173.599301 240.479073 
L 173.696853 240.230314 
L 173.891958 238.72784 
L 173.98951 240.571061 
L 174.184615 238.400043 
L 174.477273 240.741519 
L 174.574825 239.34113 
L 174.672378 239.378447 
L 174.867483 238.556312 
L 174.965035 238.900577 
L 175.062587 237.550652 
L 175.16014 240.833792 
L 175.257692 240.78978 
L 175.355245 238.960976 
L 175.452797 239.355528 
L 175.55035 239.252236 
L 175.647902 241.995461 
L 175.745455 239.592249 
L 175.843007 239.889965 
L 175.940559 240.415137 
L 176.038112 239.546059 
L 176.135664 240.34024 
L 176.330769 239.271544 
L 176.428322 240.831417 
L 176.525874 238.061592 
L 176.623427 240.077281 
L 176.916084 239.164464 
L 177.111189 240.292741 
L 177.208741 240.546342 
L 177.306294 239.573598 
L 177.501399 240.046351 
L 177.891608 239.283974 
L 177.989161 239.450996 
L 178.086713 240.024636 
L 178.281818 239.591221 
L 178.379371 237.661343 
L 178.476923 240.268478 
L 178.574476 239.639334 
L 178.672028 240.26482 
L 178.76958 236.700178 
L 178.964685 239.554559 
L 179.062238 241.069477 
L 179.15979 240.780359 
L 179.257343 239.986741 
L 179.354895 240.395953 
L 179.452448 239.101117 
L 179.55 240.078319 
L 179.647552 238.343093 
L 179.745105 239.747706 
L 179.842657 238.8119 
L 180.037762 240.251862 
L 180.135315 239.979246 
L 180.232867 238.18779 
L 180.33042 239.881592 
L 180.427972 239.443125 
L 180.525524 239.958324 
L 180.623077 239.406842 
L 180.720629 240.216357 
L 180.818182 239.08278 
L 180.915734 239.521097 
L 181.013287 238.923757 
L 181.110839 240.250729 
L 181.208392 240.12411 
L 181.305944 240.981749 
L 181.501049 239.615686 
L 181.598601 240.491095 
L 181.696154 236.92485 
L 181.793706 240.919876 
L 181.988811 238.996572 
L 182.086364 239.729657 
L 182.183916 239.255387 
L 182.281469 239.381821 
L 182.476573 241.167258 
L 182.574126 238.876615 
L 182.769231 239.992269 
L 182.866783 239.389924 
L 182.964336 240.491952 
L 183.159441 238.872201 
L 183.354545 239.349992 
L 183.452098 239.292143 
L 183.54965 240.218875 
L 183.93986 238.90094 
L 184.037413 239.962136 
L 184.134965 238.664405 
L 184.232517 239.087978 
L 184.33007 237.254049 
L 184.525175 240.322385 
L 184.72028 238.505968 
L 184.915385 239.822392 
L 185.012937 238.653449 
L 185.208042 240.775881 
L 185.305594 240.779531 
L 185.403147 239.06155 
L 185.500699 240.247506 
L 185.598252 238.708429 
L 185.695804 239.883821 
L 185.793357 238.558207 
L 185.890909 238.640592 
L 186.086014 238.257063 
L 186.183566 239.85141 
L 186.281119 239.777761 
L 186.476224 241.053518 
L 186.671329 238.555638 
L 186.768881 238.196414 
L 187.061538 239.618921 
L 187.159091 240.261354 
L 187.256643 238.480994 
L 187.549301 240.380111 
L 187.646853 238.790049 
L 187.744406 239.253051 
L 187.841958 237.807914 
L 187.93951 240.167295 
L 188.037063 239.903058 
L 188.134615 238.831509 
L 188.232168 240.57433 
L 188.32972 236.150487 
L 188.427273 240.342264 
L 188.524825 239.618009 
L 188.71993 241.132763 
L 188.817483 239.758116 
L 189.012587 241.025355 
L 189.207692 238.215761 
L 189.305245 238.384631 
L 189.402797 238.037764 
L 189.695455 239.617691 
L 189.793007 238.741883 
L 189.890559 238.898732 
L 189.988112 238.809433 
L 190.085664 239.061008 
L 190.183217 239.719691 
L 190.280769 239.691337 
L 190.475874 238.087162 
L 190.573427 240.702786 
L 190.670979 239.740816 
L 190.768531 237.56277 
L 190.866084 239.983991 
L 190.963636 239.708754 
L 191.061189 240.101785 
L 191.256294 239.26181 
L 191.353846 237.729097 
L 191.646503 239.451495 
L 191.744056 238.49546 
L 191.939161 239.816409 
L 192.036713 239.120779 
L 192.134266 240.480852 
L 192.231818 235.108992 
L 192.426923 240.491073 
L 192.622028 239.738193 
L 192.71958 239.747695 
L 192.817133 238.829112 
L 192.914685 240.642702 
L 193.012238 238.287841 
L 193.207343 239.86845 
L 193.402448 240.421306 
L 193.5 239.502004 
L 193.597552 240.738448 
L 193.695105 240.676416 
L 193.792657 237.08084 
L 193.89021 240.036722 
L 193.987762 238.813614 
L 194.085315 239.416578 
L 194.182867 235.865079 
L 194.377972 240.194064 
L 194.573077 237.808316 
L 194.670629 238.127145 
L 194.768182 239.481911 
L 194.865734 239.347199 
L 194.963287 238.162993 
L 195.060839 238.274305 
L 195.255944 239.748648 
L 195.353497 240.121254 
L 195.646154 239.65656 
L 195.743706 238.950751 
L 195.841259 240.110801 
L 195.938811 238.744609 
L 196.036364 240.151331 
L 196.329021 237.655879 
L 196.426573 239.969537 
L 196.524126 239.757419 
L 196.719231 239.014757 
L 196.816783 238.93883 
L 196.914336 238.589297 
L 197.011888 238.638646 
L 197.109441 238.829094 
L 197.304545 240.247328 
L 197.49965 238.142744 
L 197.597203 239.475312 
L 197.792308 238.92404 
L 197.88986 238.088283 
L 197.987413 238.647324 
L 198.084965 237.477746 
L 198.182517 240.027805 
L 198.28007 238.337404 
L 198.377622 238.500745 
L 198.475175 238.607748 
L 198.67028 240.232748 
L 198.767832 238.18285 
L 198.865385 239.499096 
L 198.962937 238.722918 
L 199.06049 240.172952 
L 199.255594 238.189965 
L 199.353147 239.767889 
L 199.450699 238.791337 
L 199.548252 240.355917 
L 199.645804 238.062455 
L 199.743357 239.622947 
L 199.840909 236.705413 
L 199.938462 240.189779 
L 200.133566 236.806392 
L 200.231119 237.436205 
L 200.523776 240.721091 
L 200.718881 238.223802 
L 200.913986 240.609391 
L 201.011538 239.811883 
L 201.109091 240.275851 
L 201.304196 238.599093 
L 201.401748 239.943904 
L 201.499301 238.324199 
L 201.596853 238.535124 
L 201.694406 240.573335 
L 201.88951 238.774585 
L 201.987063 239.098607 
L 202.084615 237.905179 
L 202.182168 238.532867 
L 202.377273 237.833157 
L 202.474825 240.022983 
L 202.572378 238.325802 
L 202.66993 239.127683 
L 202.767483 237.706032 
L 202.865035 238.977049 
L 202.962587 238.935236 
L 203.06014 239.412624 
L 203.255245 237.118363 
L 203.45035 238.464335 
L 203.547902 238.412796 
L 203.645455 239.13419 
L 203.743007 239.042627 
L 203.938112 237.389888 
L 204.035664 237.879313 
L 204.230769 239.571128 
L 204.328322 236.394713 
L 204.425874 240.150584 
L 204.620979 234.934108 
L 204.718531 237.948349 
L 204.816084 237.191414 
L 204.913636 239.015024 
L 205.011189 237.12321 
L 205.108741 238.629107 
L 205.206294 236.787565 
L 205.303846 238.581306 
L 205.498951 237.974113 
L 205.596503 234.100858 
L 205.791608 239.739186 
L 205.889161 236.115466 
L 205.986713 240.64915 
L 206.084266 236.30411 
L 206.181818 236.944083 
L 206.279371 234.24272 
L 206.376923 238.140381 
L 206.474476 234.377128 
L 206.572028 236.182198 
L 206.66958 240.128076 
L 206.864685 237.005682 
L 206.962238 237.949044 
L 207.05979 240.085791 
L 207.254895 236.690786 
L 207.352448 238.568838 
L 207.45 235.02311 
L 207.547552 238.750295 
L 207.742657 237.148222 
L 207.937762 238.947051 
L 208.132867 236.627392 
L 208.327972 239.121353 
L 208.523077 237.877144 
L 208.620629 239.001996 
L 208.718182 238.53963 
L 208.815734 235.60678 
L 208.913287 236.816658 
L 209.010839 235.506202 
L 209.108392 238.208584 
L 209.205944 237.585779 
L 209.303497 237.717725 
L 209.401049 235.983711 
L 209.498601 237.606975 
L 209.596154 235.628668 
L 209.791259 238.723507 
L 209.986364 235.483696 
L 210.083916 235.460155 
L 210.181469 235.018439 
L 210.279021 236.169665 
L 210.376573 235.294796 
L 210.669231 238.579069 
L 210.864336 237.618936 
L 210.961888 234.025203 
L 211.059441 237.144783 
L 211.156993 237.133973 
L 211.254545 238.684569 
L 211.352098 237.536078 
L 211.547203 238.693806 
L 211.644755 235.466708 
L 211.742308 235.913112 
L 211.937413 238.104672 
L 212.132517 235.198387 
L 212.327622 237.844388 
L 212.522727 235.566511 
L 212.62028 234.96424 
L 212.717832 237.688071 
L 212.815385 237.037472 
L 212.912937 233.918149 
L 213.01049 237.226953 
L 213.108042 236.704243 
L 213.205594 237.607128 
L 213.303147 237.46084 
L 213.400699 235.734365 
L 213.498252 238.303558 
L 213.595804 236.50781 
L 213.693357 239.614467 
L 213.790909 234.721681 
L 213.888462 237.246787 
L 213.986014 236.392849 
L 214.181119 238.90254 
L 214.278671 239.184209 
L 214.473776 237.912691 
L 214.571329 237.461513 
L 214.668881 235.04885 
L 214.863986 238.135306 
L 214.961538 237.478828 
L 215.059091 237.724978 
L 215.156643 235.18306 
L 215.351748 237.983717 
L 215.644406 239.633618 
L 215.741958 236.237722 
L 215.83951 238.805935 
L 215.937063 237.776894 
L 216.132168 239.849379 
L 216.327273 236.28541 
L 216.424825 235.149078 
L 216.61993 239.003133 
L 216.717483 238.883837 
L 216.815035 236.230168 
L 216.912587 238.481849 
L 217.205245 235.873486 
L 217.302797 239.458494 
L 217.40035 235.470748 
L 217.497902 238.687249 
L 217.595455 236.690441 
L 217.693007 237.861867 
L 217.790559 237.377674 
L 217.888112 240.122802 
L 218.083217 236.785909 
L 218.180769 237.943806 
L 218.278322 237.152417 
L 218.375874 237.936447 
L 218.473427 236.310141 
L 218.570979 237.70134 
L 218.668531 237.615843 
L 218.766084 236.676341 
L 218.863636 237.57529 
L 218.961189 236.643043 
L 219.058741 239.020148 
L 219.156294 235.338755 
L 219.253846 239.116796 
L 219.351399 234.86719 
L 219.448951 236.494596 
L 219.546503 240.046534 
L 219.741608 237.750977 
L 219.839161 239.05887 
L 219.936713 236.573262 
L 220.034266 239.789643 
L 220.131818 239.380607 
L 220.326923 235.734244 
L 220.424476 239.672551 
L 220.522028 238.17605 
L 220.61958 238.964776 
L 221.107343 236.463427 
L 221.204895 239.039428 
L 221.302448 235.599044 
L 221.4 237.053009 
L 221.595105 233.429553 
L 221.79021 239.662314 
L 221.887762 237.937278 
L 221.985315 235.811699 
L 222.082867 239.706548 
L 222.18042 236.446316 
L 222.473077 240.188887 
L 222.570629 239.477408 
L 222.668182 235.8011 
L 222.863287 240.32195 
L 222.960839 236.74565 
L 223.058392 239.434709 
L 223.155944 239.156477 
L 223.253497 237.501867 
L 223.448601 239.018637 
L 223.546154 238.007728 
L 223.643706 235.590511 
L 223.838811 238.688038 
L 223.936364 238.356907 
L 224.033916 238.727276 
L 224.131469 235.069152 
L 224.326573 239.261157 
L 224.424126 236.78207 
L 224.814336 241.114998 
L 224.911888 239.844979 
L 225.009441 236.440367 
L 225.106993 236.729295 
L 225.302098 240.104662 
L 225.39965 238.112022 
L 225.497203 238.292398 
L 225.594755 239.587653 
L 225.692308 238.825561 
L 225.78986 238.972096 
L 225.887413 237.495936 
L 226.082517 238.526353 
L 226.18007 239.579403 
L 226.375175 238.610649 
L 226.472727 239.487073 
L 226.57028 239.342889 
L 226.667832 239.93976 
L 226.765385 239.48684 
L 226.862937 240.049836 
L 226.96049 239.218147 
L 227.058042 240.082855 
L 227.155594 236.899648 
L 227.253147 239.754476 
L 227.350699 238.926626 
L 227.448252 240.111949 
L 227.545804 238.482643 
L 227.643357 241.230991 
L 227.740909 239.388984 
L 227.838462 239.474018 
L 227.936014 237.831691 
L 228.033566 239.927601 
L 228.131119 239.886063 
L 228.228671 239.332873 
L 228.326224 239.633621 
L 228.423776 238.68211 
L 228.521329 239.016722 
L 228.716434 237.978167 
L 228.813986 237.465679 
L 228.911538 238.518991 
L 229.009091 238.137575 
L 229.106643 240.667404 
L 229.204196 238.788417 
L 229.301748 240.055072 
L 229.399301 239.466314 
L 229.496853 239.665085 
L 229.594406 238.905026 
L 229.78951 239.242831 
L 229.887063 238.952124 
L 229.984615 239.354792 
L 230.082168 238.091473 
L 230.17972 239.585163 
L 230.277273 238.501158 
L 230.374825 238.647626 
L 230.472378 238.892614 
L 230.56993 237.341239 
L 230.862587 239.794523 
L 230.96014 239.288646 
L 231.057692 239.539994 
L 231.155245 239.424476 
L 231.252797 239.636445 
L 231.35035 238.345084 
L 231.447902 240.290227 
L 231.545455 239.937815 
L 231.643007 238.823602 
L 231.740559 239.624874 
L 231.838112 239.599994 
L 232.033217 239.220016 
L 232.130769 237.702335 
L 232.325874 239.265167 
L 232.520979 239.851414 
L 232.618531 240.229694 
L 232.716084 238.670147 
L 232.813636 239.427685 
L 232.911189 239.085973 
L 233.008741 239.559396 
L 233.106294 241.140823 
L 233.301399 239.024088 
L 233.398951 240.219588 
L 233.594056 238.644747 
L 233.789161 239.876854 
L 233.886713 238.079675 
L 233.984266 239.591677 
L 234.081818 239.267165 
L 234.179371 239.320636 
L 234.276923 239.525643 
L 234.374476 240.480274 
L 234.667133 239.890605 
L 234.764685 238.917882 
L 234.95979 239.464901 
L 235.057343 239.293945 
L 235.154895 238.145184 
L 235.35 240.411869 
L 235.447552 240.293852 
L 235.545105 239.996079 
L 235.74021 240.42312 
L 235.837762 238.846512 
L 235.935315 240.539936 
L 236.032867 239.535559 
L 236.13042 239.559261 
L 236.227972 240.7164 
L 236.325524 240.551077 
L 236.423077 239.44439 
L 236.520629 239.973411 
L 236.618182 241.20385 
L 236.813287 239.753887 
L 236.910839 240.55293 
L 237.008392 239.993992 
L 237.105944 241.239788 
L 237.301049 239.486483 
L 237.496154 240.992976 
L 237.593706 239.617135 
L 237.788811 240.688035 
L 237.886364 239.267128 
L 237.983916 239.867811 
L 238.081469 241.534951 
L 238.276573 240.562252 
L 238.471678 239.55627 
L 238.569231 240.716093 
L 238.666783 240.547022 
L 238.764336 239.771824 
L 238.861888 242.116364 
L 238.959441 240.449335 
L 239.056993 240.922137 
L 239.154545 240.326152 
L 239.252098 240.777132 
L 239.34965 240.623954 
L 239.447203 241.03105 
L 239.544755 239.40509 
L 239.73986 240.535791 
L 239.837413 240.38564 
L 239.934965 241.145502 
L 240.032517 240.751888 
L 240.13007 239.623734 
L 240.325175 240.314632 
L 240.422727 240.658536 
L 240.52028 240.313498 
L 240.617832 241.268824 
L 240.812937 238.998788 
L 240.91049 240.903811 
L 241.008042 239.44804 
L 241.300699 241.216924 
L 241.398252 240.886049 
L 241.495804 240.114749 
L 241.593357 240.721652 
L 241.886014 239.16134 
L 241.983566 240.232173 
L 242.178671 239.70502 
L 242.276224 241.399381 
L 242.373776 239.586161 
L 242.471329 241.405531 
L 242.666434 239.555506 
L 242.763986 238.234392 
L 242.959091 240.337107 
L 243.056643 239.106786 
L 243.154196 240.761503 
L 243.251748 239.240311 
L 243.446853 241.56442 
L 243.641958 240.214864 
L 243.73951 240.043048 
L 243.837063 240.571621 
L 243.934615 240.493979 
L 244.032168 239.498953 
L 244.12972 240.397661 
L 244.227273 239.153008 
L 244.324825 240.258202 
L 244.422378 239.799281 
L 244.91014 241.500666 
L 245.105245 238.948262 
L 245.202797 240.526923 
L 245.30035 239.833301 
L 245.495455 241.227654 
L 245.593007 240.169149 
L 245.690559 241.362548 
L 245.885664 240.034287 
L 245.983217 240.016535 
L 246.080769 241.131493 
L 246.178322 239.418897 
L 246.275874 241.221995 
L 246.470979 239.195992 
L 246.568531 239.057433 
L 246.763636 240.183538 
L 246.861189 240.430702 
L 246.958741 239.114106 
L 247.056294 239.483245 
L 247.153846 239.179235 
L 247.251399 241.669697 
L 247.348951 241.517925 
L 247.446503 239.70669 
L 247.544056 240.881149 
L 247.641608 240.165791 
L 247.739161 240.31144 
L 247.836713 240.762484 
L 247.934266 239.514342 
L 248.129371 240.444207 
L 248.226923 238.94197 
L 248.324476 239.945699 
L 248.422028 239.829318 
L 248.51958 239.367799 
L 248.617133 239.677241 
L 248.812238 240.769581 
L 248.90979 240.614725 
L 249.007343 241.251543 
L 249.202448 239.849316 
L 249.3 240.859538 
L 249.495105 240.009959 
L 249.592657 240.091955 
L 249.69021 239.705766 
L 249.787762 241.402045 
L 249.885315 239.504123 
L 249.982867 240.91272 
L 250.08042 240.326214 
L 250.177972 240.913675 
L 250.275524 239.947314 
L 250.373077 240.068241 
L 250.470629 239.418363 
L 250.763287 241.094156 
L 250.860839 240.927733 
L 250.958392 239.6191 
L 251.446154 241.293589 
L 251.543706 238.860882 
L 251.738811 241.465086 
L 252.129021 239.647646 
L 252.226573 239.776214 
L 252.324126 240.654953 
L 252.421678 239.705119 
L 252.519231 239.936202 
L 252.616783 240.654713 
L 252.811888 240.240629 
L 253.006993 241.2678 
L 253.104545 240.369948 
L 253.202098 240.764844 
L 253.29965 239.750958 
L 253.397203 242.081343 
L 253.494755 239.539501 
L 253.592308 241.109965 
L 253.68986 240.985567 
L 253.787413 240.445601 
L 253.884965 240.489732 
L 253.982517 240.609563 
L 254.08007 240.150073 
L 254.275175 241.134412 
L 254.372727 240.206326 
L 254.47028 241.243 
L 254.567832 239.805748 
L 254.665385 241.130799 
L 254.86049 240.14718 
L 254.958042 240.765749 
L 255.055594 239.167455 
L 255.250699 241.243664 
L 255.348252 238.371587 
L 255.445804 241.375713 
L 255.543357 240.325693 
L 255.640909 241.169091 
L 255.738462 241.066233 
L 255.933566 240.083475 
L 256.031119 240.409702 
L 256.226224 240.011211 
L 256.323776 241.148646 
L 256.518881 240.33165 
L 256.616434 240.840764 
L 256.713986 240.586777 
L 256.811538 239.818811 
L 257.104196 241.000018 
L 257.201748 241.205012 
L 257.299301 239.439995 
L 257.396853 239.610988 
L 257.591958 241.485952 
L 257.68951 238.608354 
L 257.982168 240.076362 
L 258.07972 239.940212 
L 258.177273 240.218613 
L 258.274825 236.097655 
L 258.372378 239.864179 
L 258.567483 237.227288 
L 258.762587 240.567741 
L 258.86014 240.083713 
L 258.957692 240.359939 
L 259.055245 238.401737 
L 259.152797 238.929905 
L 259.25035 238.351862 
L 259.445455 239.935089 
L 259.543007 238.399014 
L 259.640559 239.890146 
L 259.835664 238.499096 
L 260.030769 240.506407 
L 260.128322 240.21179 
L 260.225874 241.29342 
L 260.323427 239.633272 
L 260.420979 240.499986 
L 260.518531 239.57402 
L 260.616084 240.168984 
L 260.713636 238.873118 
L 260.908741 240.25746 
L 261.103846 238.913045 
L 261.201399 240.45108 
L 261.298951 239.728845 
L 261.396503 240.357268 
L 261.494056 238.037861 
L 261.689161 240.420642 
L 261.884266 239.197296 
L 261.981818 232.723848 
L 262.176923 239.439641 
L 262.274476 236.655185 
L 262.372028 240.022512 
L 262.46958 238.91372 
L 262.567133 236.207769 
L 262.664685 240.086527 
L 262.85979 236.996934 
L 262.957343 241.493347 
L 263.054895 237.897064 
L 263.152448 238.443577 
L 263.25 238.014051 
L 263.347552 236.041495 
L 263.542657 239.398146 
L 263.64021 239.104891 
L 263.737762 240.233429 
L 263.932867 238.815018 
L 264.03042 235.510231 
L 264.127972 240.051359 
L 264.225524 237.366326 
L 264.323077 239.333266 
L 264.420629 236.262491 
L 264.615734 239.853951 
L 264.713287 238.755231 
L 264.908392 240.498584 
L 265.103497 238.058324 
L 265.201049 239.585372 
L 265.298601 237.016518 
L 265.396154 238.291255 
L 265.493706 237.552009 
L 265.591259 239.171316 
L 265.786364 237.578829 
L 265.883916 237.978827 
L 265.981469 239.872311 
L 266.079021 238.065967 
L 266.176573 238.871054 
L 266.274126 238.014205 
L 266.371678 238.700287 
L 266.469231 238.28994 
L 266.566783 240.228109 
L 266.761888 237.453098 
L 266.859441 240.284763 
L 266.956993 239.37616 
L 267.054545 241.040823 
L 267.152098 236.604301 
L 267.24965 238.027603 
L 267.347203 237.719984 
L 267.542308 239.667167 
L 267.63986 238.077948 
L 267.737413 238.319689 
L 267.932517 240.71253 
L 268.03007 237.028731 
L 268.127622 241.028727 
L 268.322727 239.270013 
L 268.42028 241.292477 
L 268.615385 237.306572 
L 268.712937 236.652499 
L 268.81049 240.843216 
L 269.103147 238.760782 
L 269.200699 240.443386 
L 269.298252 239.417436 
L 269.395804 240.542365 
L 269.590909 234.995398 
L 269.786014 240.28626 
L 269.883566 236.155483 
L 269.981119 236.408558 
L 270.078671 240.037512 
L 270.176224 238.561138 
L 270.371329 239.488578 
L 270.566434 237.862495 
L 270.663986 238.095274 
L 270.956643 240.114874 
L 271.054196 238.09332 
L 271.151748 240.297694 
L 271.249301 239.766802 
L 271.346853 238.058738 
L 271.541958 239.500114 
L 271.737063 238.216555 
L 271.834615 238.628652 
L 271.932168 238.107717 
L 272.02972 238.234285 
L 272.127273 240.160708 
L 272.224825 233.974067 
L 272.322378 239.561391 
L 272.41993 237.690116 
L 272.517483 239.866236 
L 272.615035 238.137118 
L 272.712587 239.292376 
L 272.81014 235.610422 
L 272.907692 238.68985 
L 273.005245 238.280541 
L 273.20035 239.439067 
L 273.395455 237.199646 
L 273.493007 238.166056 
L 273.590559 237.576874 
L 273.688112 235.326062 
L 273.785664 239.213284 
L 273.883217 239.135382 
L 273.980769 238.175947 
L 274.175874 239.238696 
L 274.273427 238.627308 
L 274.468531 238.900443 
L 274.566084 236.169526 
L 274.663636 239.397384 
L 274.761189 233.969407 
L 274.956294 238.617708 
L 275.053846 237.207105 
L 275.248951 238.932057 
L 275.346503 233.466539 
L 275.444056 238.227741 
L 275.639161 235.280807 
L 275.736713 239.775874 
L 275.834266 239.733455 
L 276.029371 237.766082 
L 276.224476 239.898301 
L 276.41958 237.536595 
L 276.517133 238.081382 
L 276.614685 240.038507 
L 276.712238 238.280307 
L 276.80979 232.373949 
L 276.907343 239.203028 
L 277.004895 235.998499 
L 277.102448 236.67311 
L 277.2 236.616426 
L 277.297552 239.536838 
L 277.395105 238.66653 
L 277.59021 239.545601 
L 277.687762 239.286837 
L 277.785315 238.347361 
L 277.882867 239.06453 
L 278.077972 236.955445 
L 278.175524 237.516642 
L 278.370629 239.909785 
L 278.468182 238.914398 
L 278.565734 235.688069 
L 278.663287 239.905893 
L 278.858392 236.797312 
L 279.053497 239.486458 
L 279.151049 239.122017 
L 279.346154 235.6709 
L 279.443706 234.936418 
L 279.638811 239.302436 
L 279.736364 240.196747 
L 279.833916 236.799589 
L 279.931469 237.24007 
L 280.029021 237.597016 
L 280.126573 238.568654 
L 280.224126 238.334351 
L 280.321678 238.565161 
L 280.419231 238.232418 
L 280.516783 239.752214 
L 280.614336 238.729459 
L 280.711888 238.922723 
L 280.809441 240.779751 
L 280.906993 237.224417 
L 281.004545 238.139437 
L 281.102098 236.604529 
L 281.394755 239.910181 
L 281.492308 235.990028 
L 281.58986 236.096653 
L 281.687413 233.655983 
L 281.882517 236.990642 
L 281.98007 236.108172 
L 282.175175 238.759672 
L 282.272727 233.375513 
L 282.37028 239.625614 
L 282.467832 239.320074 
L 282.565385 236.537694 
L 282.662937 239.47125 
L 282.76049 236.460003 
L 282.858042 240.129141 
L 283.150699 236.508016 
L 283.248252 240.049327 
L 283.345804 237.435864 
L 283.540909 241.188803 
L 283.833566 238.149394 
L 283.931119 240.073743 
L 284.126224 235.549481 
L 284.321329 240.683563 
L 284.516434 234.878538 
L 284.711538 239.532921 
L 284.809091 236.100018 
L 285.004196 240.335902 
L 285.101748 237.980209 
L 285.199301 239.277606 
L 285.296853 238.914193 
L 285.394406 239.50664 
L 285.491958 236.728794 
L 285.58951 239.731793 
L 285.687063 237.382877 
L 285.882168 238.084091 
L 285.97972 240.01754 
L 286.077273 236.071344 
L 286.174825 239.335168 
L 286.272378 235.915974 
L 286.467483 241.772016 
L 286.565035 240.927669 
L 286.662587 236.979778 
L 286.76014 238.497918 
L 286.955245 237.617918 
L 287.15035 239.685514 
L 287.247902 238.556906 
L 287.345455 239.920538 
L 287.443007 235.225205 
L 287.540559 240.766462 
L 287.638112 237.091425 
L 287.735664 239.828301 
L 287.833217 239.440283 
L 287.930769 240.601797 
L 288.028322 237.869175 
L 288.125874 239.533785 
L 288.223427 239.485906 
L 288.418531 240.87209 
L 288.516084 240.758488 
L 288.613636 241.257802 
L 288.711189 236.901737 
L 288.906294 239.306579 
L 289.003846 238.082879 
L 289.198951 241.260369 
L 289.296503 238.138927 
L 289.394056 240.123195 
L 289.491608 237.506947 
L 289.589161 239.821571 
L 289.686713 238.221793 
L 289.784266 238.674994 
L 289.881818 238.128323 
L 290.272028 240.316678 
L 290.36958 239.932555 
L 290.467133 241.426399 
L 290.75979 238.565384 
L 290.857343 241.349032 
L 290.954895 240.208064 
L 291.052448 237.486571 
L 291.15 240.389531 
L 291.247552 239.997973 
L 291.345105 240.910727 
L 291.54021 240.341753 
L 291.637762 241.458756 
L 291.832867 239.795333 
L 291.93042 239.808166 
L 292.027972 239.156948 
L 292.223077 240.284755 
L 292.320629 237.637352 
L 292.418182 240.106411 
L 292.515734 233.677512 
L 292.710839 239.176848 
L 292.808392 236.505287 
L 292.905944 241.012027 
L 293.101049 239.196293 
L 293.198601 240.086605 
L 293.296154 238.754947 
L 293.393706 240.776948 
L 293.491259 240.136141 
L 293.588811 240.493634 
L 293.686364 240.194434 
L 293.783916 240.246075 
L 293.881469 238.927444 
L 294.076573 241.275053 
L 294.369231 237.572096 
L 294.466783 238.441783 
L 294.661888 240.483267 
L 294.759441 237.913302 
L 294.856993 238.929904 
L 294.954545 238.731593 
L 295.052098 239.603288 
L 295.14965 237.855251 
L 295.247203 238.205671 
L 295.344755 239.744651 
L 295.637413 236.877393 
L 295.734965 235.061043 
L 295.93007 240.323971 
L 296.027622 240.24902 
L 296.125175 239.936698 
L 296.32028 239.125414 
L 296.417832 238.804433 
L 296.515385 239.24909 
L 296.612937 240.432372 
L 296.71049 240.133171 
L 296.808042 237.143327 
L 296.905594 238.391859 
L 297.003147 238.010856 
L 297.100699 238.2572 
L 297.198252 234.337728 
L 297.393357 239.75807 
L 297.588462 237.251684 
L 297.686014 237.827135 
L 297.783566 240.10706 
L 297.881119 239.46261 
L 297.978671 241.238084 
L 298.076224 238.533948 
L 298.173776 240.079336 
L 298.271329 239.704651 
L 298.368881 240.268857 
L 298.466434 236.270383 
L 298.759091 239.293103 
L 298.954196 237.531506 
L 299.051748 237.898814 
L 299.246853 238.973621 
L 299.344406 238.614187 
L 299.441958 240.425966 
L 299.637063 237.756075 
L 299.734615 240.628628 
L 299.832168 239.084316 
L 299.92972 239.760092 
L 300.027273 236.777577 
L 300.222378 238.791298 
L 300.417483 239.910997 
L 300.71014 237.90968 
L 301.002797 240.263728 
L 301.10035 237.212344 
L 301.295455 240.33932 
L 301.393007 236.026848 
L 301.490559 239.678513 
L 301.588112 235.396643 
L 301.783217 239.804685 
L 301.880769 239.379878 
L 301.978322 239.407659 
L 302.075874 240.871007 
L 302.173427 240.281664 
L 302.270979 241.171017 
L 302.466084 239.443229 
L 302.563636 240.736963 
L 302.758741 239.484158 
L 302.856294 238.788053 
L 302.953846 240.2278 
L 303.051399 238.346206 
L 303.148951 240.688908 
L 303.441608 239.642134 
L 303.636713 236.91527 
L 303.734266 239.688446 
L 303.831818 238.327799 
L 303.929371 239.951007 
L 304.026923 237.216395 
L 304.222028 240.222671 
L 304.31958 239.769648 
L 304.417133 239.920772 
L 304.514685 240.6624 
L 304.612238 239.864674 
L 304.807343 241.286768 
L 305.002448 239.509663 
L 305.1 238.512577 
L 305.197552 240.628111 
L 305.295105 238.353052 
L 305.392657 238.802795 
L 305.49021 238.417293 
L 305.685315 241.170905 
L 305.782867 238.132929 
L 305.88042 240.539263 
L 305.977972 240.227513 
L 306.075524 240.880493 
L 306.270629 238.568951 
L 306.465734 240.315174 
L 306.563287 240.372653 
L 306.660839 239.91682 
L 306.758392 236.791082 
L 306.953497 241.560168 
L 307.051049 241.135261 
L 307.246154 237.12669 
L 307.441259 240.456208 
L 307.538811 237.325762 
L 307.733916 241.693723 
L 307.831469 237.78887 
L 308.026573 240.679748 
L 308.124126 239.172687 
L 308.221678 239.275457 
L 308.319231 238.027813 
L 308.514336 240.547781 
L 308.611888 239.843915 
L 308.709441 239.8929 
L 308.904545 239.399267 
L 309.002098 239.38403 
L 309.09965 240.622017 
L 309.197203 238.890988 
L 309.294755 239.389817 
L 309.392308 241.659224 
L 309.48986 239.997886 
L 309.587413 241.7776 
L 309.684965 240.360133 
L 309.782517 241.060792 
L 309.88007 240.087689 
L 309.977622 240.922077 
L 310.075175 239.093577 
L 310.172727 240.175672 
L 310.27028 238.161882 
L 310.367832 239.898667 
L 310.465385 238.528176 
L 310.66049 239.231723 
L 310.758042 239.076317 
L 310.855594 241.053733 
L 310.953147 239.538038 
L 311.148252 241.487088 
L 311.245804 240.734575 
L 311.343357 240.813024 
L 311.440909 241.486635 
L 311.636014 238.053934 
L 311.831119 240.034978 
L 311.928671 240.287752 
L 312.026224 239.485254 
L 312.123776 240.407867 
L 312.221329 239.9024 
L 312.318881 241.00341 
L 312.416434 239.452988 
L 312.513986 240.213653 
L 312.709091 238.380398 
L 312.806643 237.894686 
L 312.904196 239.988549 
L 313.001748 239.82292 
L 313.196853 238.748702 
L 313.294406 238.436508 
L 313.48951 240.912898 
L 313.684615 237.921341 
L 313.782168 241.15096 
L 313.977273 240.099004 
L 314.074825 238.028076 
L 314.172378 240.005131 
L 314.26993 239.911283 
L 314.367483 240.63236 
L 314.66014 238.451469 
L 314.757692 240.206013 
L 314.855245 239.718526 
L 315.05035 237.217791 
L 315.147902 238.170698 
L 315.245455 241.156686 
L 315.343007 240.175513 
L 315.538112 241.392606 
L 315.635664 240.719384 
L 315.830769 241.051284 
L 315.928322 238.921675 
L 316.123427 241.60333 
L 316.220979 239.827028 
L 316.318531 240.808462 
L 316.416084 240.382715 
L 316.513636 239.453486 
L 316.611189 240.834166 
L 316.708741 240.656961 
L 316.806294 240.472413 
L 316.903846 241.824067 
L 317.098951 240.327773 
L 317.391608 240.726026 
L 317.489161 239.192268 
L 317.586713 239.242524 
L 317.684266 240.627223 
L 317.781818 240.070207 
L 317.976923 241.426086 
L 318.074476 240.359649 
L 318.26958 241.11531 
L 318.367133 239.995511 
L 318.562238 241.233938 
L 318.757343 239.593485 
L 318.854895 240.696163 
L 318.952448 240.389336 
L 319.05 241.334433 
L 319.147552 240.939764 
L 319.245105 241.190398 
L 319.342657 240.120304 
L 319.44021 240.421508 
L 319.537762 240.297393 
L 319.635315 239.310027 
L 319.732867 240.627136 
L 319.927972 238.562189 
L 320.123077 240.089747 
L 320.220629 239.942442 
L 320.318182 240.629708 
L 320.513287 238.872888 
L 320.610839 239.86639 
L 320.708392 239.782906 
L 320.805944 239.858526 
L 320.903497 237.743393 
L 321.098601 240.626653 
L 321.196154 239.583043 
L 321.293706 240.765817 
L 321.586364 238.381373 
L 321.683916 241.358205 
L 321.879021 240.056408 
L 321.976573 240.220015 
L 322.074126 238.504358 
L 322.269231 240.849448 
L 322.366783 239.830154 
L 322.464336 240.827913 
L 322.561888 240.725358 
L 322.659441 237.856577 
L 322.854545 240.502377 
L 323.04965 240.097366 
L 323.244755 240.926025 
L 323.43986 240.615617 
L 323.537413 240.567173 
L 323.634965 240.210583 
L 323.732517 241.166976 
L 323.83007 237.94422 
L 323.927622 241.345404 
L 324.025175 240.328636 
L 324.122727 240.786878 
L 324.22028 239.05659 
L 324.317832 241.768791 
L 324.415385 240.09104 
L 324.512937 240.845824 
L 324.61049 239.347909 
L 324.708042 239.817017 
L 324.805594 240.8898 
L 325.000699 238.734774 
L 325.098252 240.951625 
L 325.195804 239.322774 
L 325.293357 241.083329 
L 325.390909 240.931323 
L 325.488462 238.282766 
L 325.781119 241.021628 
L 326.073776 239.349903 
L 326.171329 240.893905 
L 326.268881 240.179191 
L 326.366434 240.566874 
L 326.561538 238.488752 
L 326.659091 240.08415 
L 326.756643 239.521276 
L 326.854196 241.228978 
L 327.146853 239.346214 
L 327.341958 241.037965 
L 327.43951 240.782849 
L 327.537063 241.596216 
L 327.634615 240.377985 
L 327.732168 237.402349 
L 327.82972 240.569328 
L 327.927273 238.632738 
L 328.024825 240.77222 
L 328.122378 239.87875 
L 328.317483 241.169042 
L 328.415035 240.672529 
L 328.512587 241.881703 
L 328.61014 239.945452 
L 328.805245 241.81481 
L 329.00035 240.174888 
L 329.097902 240.080101 
L 329.195455 240.843656 
L 329.293007 238.576163 
L 329.488112 241.171953 
L 329.585664 240.919977 
L 329.683217 238.894945 
L 329.878322 240.519063 
L 329.975874 240.438848 
L 330.073427 240.561092 
L 330.268531 239.602207 
L 330.366084 240.312304 
L 330.463636 241.839121 
L 330.561189 239.291624 
L 330.658741 240.667113 
L 331.048951 238.356084 
L 331.244056 240.814006 
L 331.341608 238.337649 
L 331.439161 239.716169 
L 331.536713 239.178643 
L 331.634266 240.303619 
L 331.731818 239.836543 
L 331.829371 240.111598 
L 331.926923 238.763327 
L 332.122028 240.309535 
L 332.21958 239.205697 
L 332.414685 240.566257 
L 332.512238 239.625454 
L 332.60979 239.912343 
L 332.707343 241.823274 
L 332.804895 241.455734 
L 332.902448 240.481804 
L 333 241.332325 
L 333.097552 240.86633 
L 333.292657 238.937148 
L 333.39021 241.744186 
L 333.487762 239.678104 
L 333.585315 239.820487 
L 333.78042 240.856681 
L 333.975524 239.68918 
L 334.073077 240.468218 
L 334.170629 239.400193 
L 334.365734 240.262083 
L 334.463287 237.540668 
L 334.658392 240.616825 
L 334.755944 240.458389 
L 334.951049 239.003804 
L 335.048601 238.601067 
L 335.243706 240.050244 
L 335.438811 240.543159 
L 335.536364 240.509739 
L 335.633916 240.907838 
L 335.731469 235.920579 
L 335.829021 240.689798 
L 335.926573 239.290353 
L 336.024126 241.281809 
L 336.121678 237.939095 
L 336.414336 241.282997 
L 336.511888 239.832045 
L 336.609441 239.842954 
L 336.706993 240.23658 
L 336.804545 241.573785 
L 336.902098 235.325746 
L 336.99965 241.114456 
L 337.097203 240.499146 
L 337.194755 238.996337 
L 337.292308 240.698655 
L 337.487413 240.108712 
L 337.584965 237.93755 
L 337.682517 240.687886 
L 337.78007 239.106244 
L 337.877622 240.144416 
L 338.072727 239.079935 
L 338.267832 240.703748 
L 338.56049 239.608838 
L 338.950699 241.993635 
L 339.145804 239.76204 
L 339.243357 239.782279 
L 339.340909 240.887095 
L 339.438462 240.435455 
L 339.633566 241.761139 
L 339.926224 240.221475 
L 340.023776 237.252149 
L 340.121329 240.791637 
L 340.218881 238.312326 
L 340.316434 241.706815 
L 340.511538 239.756285 
L 340.609091 241.128668 
L 340.706643 240.686691 
L 340.901748 238.1966 
L 340.999301 237.793191 
L 341.096853 238.058945 
L 341.291958 239.376476 
L 341.38951 239.215774 
L 341.487063 240.662533 
L 341.584615 239.606281 
L 341.682168 240.512248 
L 341.77972 239.722963 
L 341.877273 240.219859 
L 341.974825 237.88591 
L 342.072378 238.530472 
L 342.16993 240.032276 
L 342.267483 239.808219 
L 342.365035 238.976958 
L 342.462587 239.794057 
L 342.56014 237.723575 
L 342.755245 239.640479 
L 342.852797 240.764811 
L 342.95035 240.750953 
L 343.145455 237.023115 
L 343.243007 239.895785 
L 343.438112 237.255928 
L 343.633217 240.469125 
L 343.730769 239.771536 
L 343.828322 240.091506 
L 344.023427 241.170048 
L 344.120979 240.793916 
L 344.218531 238.723019 
L 344.316084 239.102345 
L 344.413636 235.645513 
L 344.511189 235.671301 
L 344.608741 239.698382 
L 344.803846 238.452772 
L 344.901399 240.301567 
L 344.998951 240.082337 
L 345.194056 237.728181 
L 345.486713 240.529695 
L 345.681818 238.986515 
L 345.779371 240.93565 
L 345.974476 237.679744 
L 346.16958 240.890116 
L 346.267133 239.972654 
L 346.55979 236.886029 
L 346.657343 241.053918 
L 346.754895 240.749597 
L 346.852448 238.302527 
L 346.95 238.366521 
L 347.047552 240.181212 
L 347.145105 236.927302 
L 347.242657 240.142291 
L 347.34021 239.807885 
L 347.437762 240.487856 
L 347.535315 236.342931 
L 347.73042 240.422021 
L 348.023077 237.276397 
L 348.120629 240.358311 
L 348.218182 236.099318 
L 348.315734 241.053164 
L 348.413287 233.435719 
L 348.510839 240.911086 
L 348.608392 240.703883 
L 348.705944 240.58901 
L 348.901049 240.126208 
L 348.998601 238.385284 
L 349.096154 240.424501 
L 349.193706 239.318327 
L 349.291259 239.421468 
L 349.388811 241.105272 
L 349.486364 239.686712 
L 349.583916 241.223221 
L 349.974126 237.993392 
L 350.071678 240.024123 
L 350.169231 239.422899 
L 350.364336 240.450057 
L 350.461888 240.488934 
L 350.559441 238.861919 
L 350.656993 240.180481 
L 350.754545 238.703404 
L 350.852098 239.890494 
L 350.94965 239.668655 
L 351.047203 239.143413 
L 351.242308 236.575712 
L 351.33986 237.869806 
L 351.437413 236.866931 
L 351.534965 233.630723 
L 351.632517 239.132536 
L 351.73007 237.339674 
L 351.925175 240.764674 
L 352.022727 237.80644 
L 352.12028 240.164769 
L 352.217832 237.696689 
L 352.412937 238.666611 
L 352.51049 239.917357 
L 352.608042 238.447821 
L 352.705594 239.657311 
L 352.803147 238.647361 
L 352.900699 240.570107 
L 353.095804 238.039861 
L 353.193357 240.187499 
L 353.290909 240.010317 
L 353.388462 237.834577 
L 353.486014 239.04255 
L 353.583566 236.786371 
L 353.778671 240.132753 
L 353.876224 240.444767 
L 353.973776 235.481103 
L 354.168881 238.590059 
L 354.266434 237.763662 
L 354.559091 239.997709 
L 354.754196 238.585654 
L 354.851748 235.488283 
L 354.949301 238.943593 
L 355.046853 238.756969 
L 355.144406 241.434875 
L 355.241958 238.346705 
L 355.33951 239.20512 
L 355.437063 237.724464 
L 355.534615 240.802503 
L 355.632168 232.373328 
L 355.827273 239.138706 
L 355.924825 241.176323 
L 356.022378 239.607665 
L 356.11993 241.248462 
L 356.217483 238.982952 
L 356.315035 239.530224 
L 356.412587 239.334192 
L 356.51014 236.629025 
L 356.607692 240.530605 
L 356.705245 236.701357 
L 356.802797 239.068445 
L 356.90035 237.81674 
L 357.095455 240.530144 
L 357.193007 238.865276 
L 357.290559 241.104579 
L 357.388112 239.213876 
L 357.485664 240.732531 
L 357.680769 240.305581 
L 357.778322 237.759804 
L 357.875874 240.348587 
L 357.973427 239.99515 
L 358.168531 238.385284 
L 358.266084 240.761569 
L 358.363636 239.924303 
L 358.461189 239.954563 
L 358.558741 239.936059 
L 358.656294 237.407622 
L 358.851399 240.74805 
L 358.948951 239.82208 
L 359.046503 236.100848 
L 359.144056 238.563753 
L 359.241608 237.858131 
L 359.339161 240.724204 
L 359.534266 239.839529 
L 359.631818 240.988397 
L 359.826923 237.228013 
L 360.022028 239.182984 
L 360.11958 237.121635 
L 360.217133 239.227218 
L 360.314685 237.969517 
L 360.412238 239.762581 
L 360.50979 237.815975 
L 360.607343 239.140683 
L 360.704895 237.649841 
L 360.997552 241.235813 
L 361.095105 238.249939 
L 361.192657 238.873823 
L 361.29021 237.228989 
L 361.387762 239.517314 
L 361.485315 235.515248 
L 361.582867 240.079743 
L 361.68042 237.593196 
L 361.777972 239.905057 
L 361.875524 237.813605 
L 362.070629 240.528532 
L 362.168182 239.18143 
L 362.265734 241.322165 
L 362.558392 239.150315 
L 362.655944 240.299382 
L 362.753497 236.812708 
L 362.851049 239.570253 
L 362.948601 237.126979 
L 363.046154 240.010152 
L 363.143706 238.575004 
L 363.241259 240.02171 
L 363.436364 238.10549 
L 363.631469 240.765253 
L 363.729021 237.709992 
L 363.826573 238.134701 
L 363.924126 239.295982 
L 364.021678 238.393762 
L 364.119231 239.500323 
L 364.216783 237.939218 
L 364.314336 239.638922 
L 364.411888 237.472998 
L 364.704545 240.633327 
L 364.802098 237.53302 
L 364.89965 239.107521 
L 364.997203 239.085741 
L 365.094755 238.939218 
L 365.484965 240.144573 
L 365.582517 236.993157 
L 365.68007 239.629705 
L 365.777622 239.058763 
L 365.875175 240.167324 
L 365.972727 239.716678 
L 366.07028 242.005287 
L 366.265385 237.073056 
L 366.46049 241.334171 
L 366.655594 237.601346 
L 366.753147 240.358694 
L 366.948252 239.438531 
L 367.045804 240.408787 
L 367.143357 237.872677 
L 367.338462 240.797115 
L 367.436014 240.047661 
L 367.533566 233.763768 
L 367.631119 240.952874 
L 367.728671 240.280738 
L 367.826224 238.509428 
L 368.021329 239.979309 
L 368.118881 234.107844 
L 368.313986 240.769607 
L 368.509091 238.564557 
L 368.606643 239.715517 
L 368.704196 237.414565 
L 368.801748 241.220315 
L 368.899301 240.433088 
L 368.996853 242.097485 
L 369.191958 234.658222 
L 369.28951 239.606889 
L 369.387063 239.44902 
L 369.484615 237.51726 
L 369.582168 240.613567 
L 369.67972 239.569396 
L 369.777273 240.444556 
L 369.874825 237.338693 
L 370.06993 239.942889 
L 370.265035 236.944379 
L 370.362587 236.957635 
L 370.46014 239.562213 
L 370.557692 239.422978 
L 370.85035 240.864895 
L 370.947902 233.715953 
L 371.143007 239.025211 
L 371.240559 238.34775 
L 371.435664 240.781641 
L 371.533217 237.628846 
L 371.630769 241.028446 
L 371.728322 238.766956 
L 371.825874 240.616779 
L 371.923427 239.443513 
L 372.020979 240.22866 
L 372.118531 237.9616 
L 372.313636 240.591863 
L 372.411189 237.002918 
L 372.508741 237.304345 
L 372.606294 241.436527 
L 372.703846 235.527551 
L 372.801399 240.23423 
L 372.996503 238.200756 
L 373.191608 240.624441 
L 373.289161 237.666724 
L 373.386713 240.803073 
L 373.484266 239.5016 
L 373.581818 241.209439 
L 373.581818 241.209439 
" style="fill:none;stroke:#1f77b4;stroke-linecap:square;stroke-width:1.5;"/>
   </g>
   <g id="patch_3">
    <path d="M 54 252 
L 54 34.56 
" style="fill:none;stroke:#000000;stroke-linecap:square;stroke-linejoin:miter;stroke-width:0.8;"/>
   </g>
   <g id="patch_4">
    <path d="M 388.8 252 
L 388.8 34.56 
" style="fill:none;stroke:#000000;stroke-linecap:square;stroke-linejoin:miter;stroke-width:0.8;"/>
   </g>
   <g id="patch_5">
    <path d="M 54 252 
L 388.8 252 
" style="fill:none;stroke:#000000;stroke-linecap:square;stroke-linejoin:miter;stroke-width:0.8;"/>
   </g>
   <g id="patch_6">
    <path d="M 54 34.56 
L 388.8 34.56 
" style="fill:none;stroke:#000000;stroke-linecap:square;stroke-linejoin:miter;stroke-width:0.8;"/>
   </g>
  </g>
 </g>
 <defs>
  <clipPath id="pfc6112430a">
   <rect height="217.44" width="334.8" x="54" y="34.56"/>
  </clipPath>
 </defs>
</svg>
