<?xml version="1.0" encoding="utf-8" standalone="no"?>
<!DOCTYPE svg PUBLIC "-//W3C//DTD SVG 1.1//EN"
  "http://www.w3.org/Graphics/SVG/1.1/DTD/svg11.dtd">
<!-- Created with matplotlib (https://matplotlib.org/) -->
<svg height="288pt" version="1.1" viewBox="0 0 432 288" width="432pt" xmlns="http://www.w3.org/2000/svg" xmlns:xlink="http://www.w3.org/1999/xlink">
 <defs>
  <style type="text/css">
*{stroke-linecap:butt;stroke-linejoin:round;}
  </style>
 </defs>
 <g id="figure_1">
  <g id="patch_1">
   <path d="M 0 288 
L 432 288 
L 432 0 
L 0 0 
z
" style="fill:#ffffff;"/>
  </g>
  <g id="axes_1">
   <g id="patch_2">
    <path d="M 54 252 
L 388.8 252 
L 388.8 34.56 
L 54 34.56 
z
" style="fill:#ffffff;"/>
   </g>
   <g id="matplotlib.axis_1">
    <g id="xtick_1">
     <g id="line2d_1">
      <defs>
       <path d="M 0 0 
L 0 3.5 
" id="m5e2a51d42f" style="stroke:#000000;stroke-width:0.8;"/>
      </defs>
      <g>
       <use style="stroke:#000000;stroke-width:0.8;" x="69.218182" xlink:href="#m5e2a51d42f" y="252"/>
      </g>
     </g>
     <g id="text_1">
      <!-- 0 -->
      <defs>
       <path d="M 31.78125 66.40625 
Q 24.171875 66.40625 20.328125 58.90625 
Q 16.5 51.421875 16.5 36.375 
Q 16.5 21.390625 20.328125 13.890625 
Q 24.171875 6.390625 31.78125 6.390625 
Q 39.453125 6.390625 43.28125 13.890625 
Q 47.125 21.390625 47.125 36.375 
Q 47.125 51.421875 43.28125 58.90625 
Q 39.453125 66.40625 31.78125 66.40625 
z
M 31.78125 74.21875 
Q 44.046875 74.21875 50.515625 64.515625 
Q 56.984375 54.828125 56.984375 36.375 
Q 56.984375 17.96875 50.515625 8.265625 
Q 44.046875 -1.421875 31.78125 -1.421875 
Q 19.53125 -1.421875 13.0625 8.265625 
Q 6.59375 17.96875 6.59375 36.375 
Q 6.59375 54.828125 13.0625 64.515625 
Q 19.53125 74.21875 31.78125 74.21875 
z
" id="DejaVuSans-48"/>
      </defs>
      <g transform="translate(66.036932 266.598437)scale(0.1 -0.1)">
       <use xlink:href="#DejaVuSans-48"/>
      </g>
     </g>
    </g>
    <g id="xtick_2">
     <g id="line2d_2">
      <g>
       <use style="stroke:#000000;stroke-width:0.8;" x="135.154845" xlink:href="#m5e2a51d42f" y="252"/>
      </g>
     </g>
     <g id="text_2">
      <!-- 1000 -->
      <defs>
       <path d="M 12.40625 8.296875 
L 28.515625 8.296875 
L 28.515625 63.921875 
L 10.984375 60.40625 
L 10.984375 69.390625 
L 28.421875 72.90625 
L 38.28125 72.90625 
L 38.28125 8.296875 
L 54.390625 8.296875 
L 54.390625 0 
L 12.40625 0 
z
" id="DejaVuSans-49"/>
      </defs>
      <g transform="translate(122.429845 266.598437)scale(0.1 -0.1)">
       <use xlink:href="#DejaVuSans-49"/>
       <use x="63.623047" xlink:href="#DejaVuSans-48"/>
       <use x="127.246094" xlink:href="#DejaVuSans-48"/>
       <use x="190.869141" xlink:href="#DejaVuSans-48"/>
      </g>
     </g>
    </g>
    <g id="xtick_3">
     <g id="line2d_3">
      <g>
       <use style="stroke:#000000;stroke-width:0.8;" x="201.091508" xlink:href="#m5e2a51d42f" y="252"/>
      </g>
     </g>
     <g id="text_3">
      <!-- 2000 -->
      <defs>
       <path d="M 19.1875 8.296875 
L 53.609375 8.296875 
L 53.609375 0 
L 7.328125 0 
L 7.328125 8.296875 
Q 12.9375 14.109375 22.625 23.890625 
Q 32.328125 33.6875 34.8125 36.53125 
Q 39.546875 41.84375 41.421875 45.53125 
Q 43.3125 49.21875 43.3125 52.78125 
Q 43.3125 58.59375 39.234375 62.25 
Q 35.15625 65.921875 28.609375 65.921875 
Q 23.96875 65.921875 18.8125 64.3125 
Q 13.671875 62.703125 7.8125 59.421875 
L 7.8125 69.390625 
Q 13.765625 71.78125 18.9375 73 
Q 24.125 74.21875 28.421875 74.21875 
Q 39.75 74.21875 46.484375 68.546875 
Q 53.21875 62.890625 53.21875 53.421875 
Q 53.21875 48.921875 51.53125 44.890625 
Q 49.859375 40.875 45.40625 35.40625 
Q 44.1875 33.984375 37.640625 27.21875 
Q 31.109375 20.453125 19.1875 8.296875 
z
" id="DejaVuSans-50"/>
      </defs>
      <g transform="translate(188.366508 266.598437)scale(0.1 -0.1)">
       <use xlink:href="#DejaVuSans-50"/>
       <use x="63.623047" xlink:href="#DejaVuSans-48"/>
       <use x="127.246094" xlink:href="#DejaVuSans-48"/>
       <use x="190.869141" xlink:href="#DejaVuSans-48"/>
      </g>
     </g>
    </g>
    <g id="xtick_4">
     <g id="line2d_4">
      <g>
       <use style="stroke:#000000;stroke-width:0.8;" x="267.028171" xlink:href="#m5e2a51d42f" y="252"/>
      </g>
     </g>
     <g id="text_4">
      <!-- 3000 -->
      <defs>
       <path d="M 40.578125 39.3125 
Q 47.65625 37.796875 51.625 33 
Q 55.609375 28.21875 55.609375 21.1875 
Q 55.609375 10.40625 48.1875 4.484375 
Q 40.765625 -1.421875 27.09375 -1.421875 
Q 22.515625 -1.421875 17.65625 -0.515625 
Q 12.796875 0.390625 7.625 2.203125 
L 7.625 11.71875 
Q 11.71875 9.328125 16.59375 8.109375 
Q 21.484375 6.890625 26.8125 6.890625 
Q 36.078125 6.890625 40.9375 10.546875 
Q 45.796875 14.203125 45.796875 21.1875 
Q 45.796875 27.640625 41.28125 31.265625 
Q 36.765625 34.90625 28.71875 34.90625 
L 20.21875 34.90625 
L 20.21875 43.015625 
L 29.109375 43.015625 
Q 36.375 43.015625 40.234375 45.921875 
Q 44.09375 48.828125 44.09375 54.296875 
Q 44.09375 59.90625 40.109375 62.90625 
Q 36.140625 65.921875 28.71875 65.921875 
Q 24.65625 65.921875 20.015625 65.03125 
Q 15.375 64.15625 9.8125 62.3125 
L 9.8125 71.09375 
Q 15.4375 72.65625 20.34375 73.4375 
Q 25.25 74.21875 29.59375 74.21875 
Q 40.828125 74.21875 47.359375 69.109375 
Q 53.90625 64.015625 53.90625 55.328125 
Q 53.90625 49.265625 50.4375 45.09375 
Q 46.96875 40.921875 40.578125 39.3125 
z
" id="DejaVuSans-51"/>
      </defs>
      <g transform="translate(254.303171 266.598437)scale(0.1 -0.1)">
       <use xlink:href="#DejaVuSans-51"/>
       <use x="63.623047" xlink:href="#DejaVuSans-48"/>
       <use x="127.246094" xlink:href="#DejaVuSans-48"/>
       <use x="190.869141" xlink:href="#DejaVuSans-48"/>
      </g>
     </g>
    </g>
    <g id="xtick_5">
     <g id="line2d_5">
      <g>
       <use style="stroke:#000000;stroke-width:0.8;" x="332.964834" xlink:href="#m5e2a51d42f" y="252"/>
      </g>
     </g>
     <g id="text_5">
      <!-- 4000 -->
      <defs>
       <path d="M 37.796875 64.3125 
L 12.890625 25.390625 
L 37.796875 25.390625 
z
M 35.203125 72.90625 
L 47.609375 72.90625 
L 47.609375 25.390625 
L 58.015625 25.390625 
L 58.015625 17.1875 
L 47.609375 17.1875 
L 47.609375 0 
L 37.796875 0 
L 37.796875 17.1875 
L 4.890625 17.1875 
L 4.890625 26.703125 
z
" id="DejaVuSans-52"/>
      </defs>
      <g transform="translate(320.239834 266.598437)scale(0.1 -0.1)">
       <use xlink:href="#DejaVuSans-52"/>
       <use x="63.623047" xlink:href="#DejaVuSans-48"/>
       <use x="127.246094" xlink:href="#DejaVuSans-48"/>
       <use x="190.869141" xlink:href="#DejaVuSans-48"/>
      </g>
     </g>
    </g>
   </g>
   <g id="matplotlib.axis_2">
    <g id="ytick_1">
     <g id="line2d_6">
      <defs>
       <path d="M 0 0 
L -3.5 0 
" id="m371b8c689d" style="stroke:#000000;stroke-width:0.8;"/>
      </defs>
      <g>
       <use style="stroke:#000000;stroke-width:0.8;" x="54" xlink:href="#m371b8c689d" y="231.128771"/>
      </g>
     </g>
     <g id="text_6">
      <!-- 4.25 -->
      <defs>
       <path d="M 10.6875 12.40625 
L 21 12.40625 
L 21 0 
L 10.6875 0 
z
" id="DejaVuSans-46"/>
       <path d="M 10.796875 72.90625 
L 49.515625 72.90625 
L 49.515625 64.59375 
L 19.828125 64.59375 
L 19.828125 46.734375 
Q 21.96875 47.46875 24.109375 47.828125 
Q 26.265625 48.1875 28.421875 48.1875 
Q 40.625 48.1875 47.75 41.5 
Q 54.890625 34.8125 54.890625 23.390625 
Q 54.890625 11.625 47.5625 5.09375 
Q 40.234375 -1.421875 26.90625 -1.421875 
Q 22.3125 -1.421875 17.546875 -0.640625 
Q 12.796875 0.140625 7.71875 1.703125 
L 7.71875 11.625 
Q 12.109375 9.234375 16.796875 8.0625 
Q 21.484375 6.890625 26.703125 6.890625 
Q 35.15625 6.890625 40.078125 11.328125 
Q 45.015625 15.765625 45.015625 23.390625 
Q 45.015625 31 40.078125 35.4375 
Q 35.15625 39.890625 26.703125 39.890625 
Q 22.75 39.890625 18.8125 39.015625 
Q 14.890625 38.140625 10.796875 36.28125 
z
" id="DejaVuSans-53"/>
      </defs>
      <g transform="translate(24.734375 234.92799)scale(0.1 -0.1)">
       <use xlink:href="#DejaVuSans-52"/>
       <use x="63.623047" xlink:href="#DejaVuSans-46"/>
       <use x="95.410156" xlink:href="#DejaVuSans-50"/>
       <use x="159.033203" xlink:href="#DejaVuSans-53"/>
      </g>
     </g>
    </g>
    <g id="ytick_2">
     <g id="line2d_7">
      <g>
       <use style="stroke:#000000;stroke-width:0.8;" x="54" xlink:href="#m371b8c689d" y="204.950752"/>
      </g>
     </g>
     <g id="text_7">
      <!-- 4.50 -->
      <g transform="translate(24.734375 208.749971)scale(0.1 -0.1)">
       <use xlink:href="#DejaVuSans-52"/>
       <use x="63.623047" xlink:href="#DejaVuSans-46"/>
       <use x="95.410156" xlink:href="#DejaVuSans-53"/>
       <use x="159.033203" xlink:href="#DejaVuSans-48"/>
      </g>
     </g>
    </g>
    <g id="ytick_3">
     <g id="line2d_8">
      <g>
       <use style="stroke:#000000;stroke-width:0.8;" x="54" xlink:href="#m371b8c689d" y="178.772733"/>
      </g>
     </g>
     <g id="text_8">
      <!-- 4.75 -->
      <defs>
       <path d="M 8.203125 72.90625 
L 55.078125 72.90625 
L 55.078125 68.703125 
L 28.609375 0 
L 18.3125 0 
L 43.21875 64.59375 
L 8.203125 64.59375 
z
" id="DejaVuSans-55"/>
      </defs>
      <g transform="translate(24.734375 182.571952)scale(0.1 -0.1)">
       <use xlink:href="#DejaVuSans-52"/>
       <use x="63.623047" xlink:href="#DejaVuSans-46"/>
       <use x="95.410156" xlink:href="#DejaVuSans-55"/>
       <use x="159.033203" xlink:href="#DejaVuSans-53"/>
      </g>
     </g>
    </g>
    <g id="ytick_4">
     <g id="line2d_9">
      <g>
       <use style="stroke:#000000;stroke-width:0.8;" x="54" xlink:href="#m371b8c689d" y="152.594715"/>
      </g>
     </g>
     <g id="text_9">
      <!-- 5.00 -->
      <g transform="translate(24.734375 156.393934)scale(0.1 -0.1)">
       <use xlink:href="#DejaVuSans-53"/>
       <use x="63.623047" xlink:href="#DejaVuSans-46"/>
       <use x="95.410156" xlink:href="#DejaVuSans-48"/>
       <use x="159.033203" xlink:href="#DejaVuSans-48"/>
      </g>
     </g>
    </g>
    <g id="ytick_5">
     <g id="line2d_10">
      <g>
       <use style="stroke:#000000;stroke-width:0.8;" x="54" xlink:href="#m371b8c689d" y="126.416696"/>
      </g>
     </g>
     <g id="text_10">
      <!-- 5.25 -->
      <g transform="translate(24.734375 130.215915)scale(0.1 -0.1)">
       <use xlink:href="#DejaVuSans-53"/>
       <use x="63.623047" xlink:href="#DejaVuSans-46"/>
       <use x="95.410156" xlink:href="#DejaVuSans-50"/>
       <use x="159.033203" xlink:href="#DejaVuSans-53"/>
      </g>
     </g>
    </g>
    <g id="ytick_6">
     <g id="line2d_11">
      <g>
       <use style="stroke:#000000;stroke-width:0.8;" x="54" xlink:href="#m371b8c689d" y="100.238677"/>
      </g>
     </g>
     <g id="text_11">
      <!-- 5.50 -->
      <g transform="translate(24.734375 104.037896)scale(0.1 -0.1)">
       <use xlink:href="#DejaVuSans-53"/>
       <use x="63.623047" xlink:href="#DejaVuSans-46"/>
       <use x="95.410156" xlink:href="#DejaVuSans-53"/>
       <use x="159.033203" xlink:href="#DejaVuSans-48"/>
      </g>
     </g>
    </g>
    <g id="ytick_7">
     <g id="line2d_12">
      <g>
       <use style="stroke:#000000;stroke-width:0.8;" x="54" xlink:href="#m371b8c689d" y="74.060659"/>
      </g>
     </g>
     <g id="text_12">
      <!-- 5.75 -->
      <g transform="translate(24.734375 77.859877)scale(0.1 -0.1)">
       <use xlink:href="#DejaVuSans-53"/>
       <use x="63.623047" xlink:href="#DejaVuSans-46"/>
       <use x="95.410156" xlink:href="#DejaVuSans-55"/>
       <use x="159.033203" xlink:href="#DejaVuSans-53"/>
      </g>
     </g>
    </g>
    <g id="ytick_8">
     <g id="line2d_13">
      <g>
       <use style="stroke:#000000;stroke-width:0.8;" x="54" xlink:href="#m371b8c689d" y="47.88264"/>
      </g>
     </g>
     <g id="text_13">
      <!-- 6.00 -->
      <defs>
       <path d="M 33.015625 40.375 
Q 26.375 40.375 22.484375 35.828125 
Q 18.609375 31.296875 18.609375 23.390625 
Q 18.609375 15.53125 22.484375 10.953125 
Q 26.375 6.390625 33.015625 6.390625 
Q 39.65625 6.390625 43.53125 10.953125 
Q 47.40625 15.53125 47.40625 23.390625 
Q 47.40625 31.296875 43.53125 35.828125 
Q 39.65625 40.375 33.015625 40.375 
z
M 52.59375 71.296875 
L 52.59375 62.3125 
Q 48.875 64.0625 45.09375 64.984375 
Q 41.3125 65.921875 37.59375 65.921875 
Q 27.828125 65.921875 22.671875 59.328125 
Q 17.53125 52.734375 16.796875 39.40625 
Q 19.671875 43.65625 24.015625 45.921875 
Q 28.375 48.1875 33.59375 48.1875 
Q 44.578125 48.1875 50.953125 41.515625 
Q 57.328125 34.859375 57.328125 23.390625 
Q 57.328125 12.15625 50.6875 5.359375 
Q 44.046875 -1.421875 33.015625 -1.421875 
Q 20.359375 -1.421875 13.671875 8.265625 
Q 6.984375 17.96875 6.984375 36.375 
Q 6.984375 53.65625 15.1875 63.9375 
Q 23.390625 74.21875 37.203125 74.21875 
Q 40.921875 74.21875 44.703125 73.484375 
Q 48.484375 72.75 52.59375 71.296875 
z
" id="DejaVuSans-54"/>
      </defs>
      <g transform="translate(24.734375 51.681859)scale(0.1 -0.1)">
       <use xlink:href="#DejaVuSans-54"/>
       <use x="63.623047" xlink:href="#DejaVuSans-46"/>
       <use x="95.410156" xlink:href="#DejaVuSans-48"/>
       <use x="159.033203" xlink:href="#DejaVuSans-48"/>
      </g>
     </g>
    </g>
   </g>
   <g id="line2d_14">
    <path clip-path="url(#pe3b558f11b)" d="M 69.218182 203.793391 
L 69.284118 199.875643 
L 69.350055 205.690663 
L 69.415992 202.646819 
L 69.547865 205.618133 
L 69.613802 202.585905 
L 69.679738 203.928154 
L 69.745675 203.190347 
L 69.811612 204.3826 
L 69.943485 194.928297 
L 70.009422 195.530279 
L 70.075358 195.130469 
L 70.141295 197.3394 
L 70.339105 190.662155 
L 70.470978 195.615627 
L 70.734725 177.599053 
L 70.800662 176.638683 
L 70.866598 178.049204 
L 70.998472 173.380116 
L 71.064408 173.771044 
L 71.196282 170.588973 
L 71.262218 172.70132 
L 71.328155 168.929305 
L 71.394092 168.995337 
L 71.460028 169.062652 
L 71.591902 176.504671 
L 71.657838 176.339276 
L 71.723775 174.634732 
L 71.855648 179.605575 
L 71.921585 176.240998 
L 72.119395 181.996686 
L 72.185332 182.052887 
L 72.251268 180.298171 
L 72.317205 185.380818 
L 72.515015 178.372198 
L 72.646888 180.376828 
L 72.712825 179.867262 
L 72.910635 170.430519 
L 72.976572 171.384745 
L 73.108445 172.665756 
L 73.174382 172.477377 
L 73.372192 189.362697 
L 73.438128 186.893815 
L 73.570002 190.385434 
L 73.635938 189.922624 
L 73.701875 188.615637 
L 73.767812 189.587701 
L 74.031558 183.057615 
L 74.097495 184.747703 
L 74.229368 179.275399 
L 74.295305 175.687411 
L 74.361242 176.71486 
L 74.427178 175.934105 
L 74.493115 177.242948 
L 74.624988 188.29761 
L 74.690925 182.540772 
L 75.152481 198.248704 
L 75.218418 197.204975 
L 75.284355 198.16914 
L 75.416228 191.962144 
L 75.548101 198.017842 
L 75.745911 208.809969 
L 76.009658 201.989662 
L 76.141531 203.635983 
L 76.207468 203.222438 
L 76.273405 201.004066 
L 76.405278 210.214853 
L 76.537151 206.483335 
L 76.603088 206.810994 
L 76.669025 204.001592 
L 76.800898 206.951882 
L 76.866835 205.720169 
L 76.932771 206.427609 
L 77.130581 212.364618 
L 77.262455 210.361959 
L 77.328391 204.280754 
L 77.394328 213.44002 
L 77.460265 210.161494 
L 77.526201 214.108201 
L 77.724011 200.633236 
L 77.921821 197.521536 
L 78.119631 204.850709 
L 78.185568 205.528294 
L 78.251505 204.746395 
L 78.449315 194.459189 
L 78.515251 196.555977 
L 78.581188 200.27425 
L 78.647125 199.144431 
L 78.713061 198.928437 
L 78.778998 196.045621 
L 78.976808 204.673407 
L 79.042745 206.540035 
L 79.240555 198.710197 
L 79.306491 199.523997 
L 79.636175 211.597128 
L 79.702111 209.288249 
L 79.899921 216.461377 
L 79.965858 216.08879 
L 80.031795 217.719816 
L 80.097731 214.779688 
L 80.295541 224.75767 
L 80.361478 225.575227 
L 80.427415 224.897856 
L 80.559288 235.846092 
L 80.625225 234.147747 
L 80.691161 231.79288 
L 80.888971 239.08986 
L 81.086781 236.153702 
L 81.152718 242.116364 
L 81.218654 240.686309 
L 81.350528 236.63164 
L 81.746148 215.073741 
L 81.812084 215.875976 
L 81.943958 226.128303 
L 82.009894 223.179782 
L 82.405514 205.846659 
L 82.603324 187.734371 
L 82.669261 188.453808 
L 82.735198 191.274653 
L 83.262691 162.544296 
L 83.328628 163.008427 
L 83.394564 164.962055 
L 83.460501 162.907681 
L 83.526438 164.61479 
L 83.724248 151.64111 
L 83.790184 152.277263 
L 83.922058 143.815057 
L 83.987994 146.223668 
L 84.251741 156.159801 
L 84.317678 157.216752 
L 84.515488 170.362031 
L 84.581424 168.907724 
L 84.713298 163.294286 
L 84.845171 169.755153 
L 84.911108 166.153246 
L 84.977044 166.201075 
L 85.042981 165.624426 
L 85.108918 165.810692 
L 85.306728 171.960903 
L 85.438601 167.691797 
L 85.504538 169.759915 
L 85.570474 169.075832 
L 85.636411 169.937447 
L 85.702348 168.817963 
L 85.834221 172.805418 
L 85.900158 170.840436 
L 85.966094 172.125528 
L 86.295778 155.852947 
L 86.361714 156.477372 
L 86.559524 162.36733 
L 86.625461 166.484486 
L 86.691398 165.624209 
L 86.757334 161.205447 
L 86.823271 163.267223 
L 86.889207 166.317198 
L 87.087017 153.719285 
L 87.152954 153.226087 
L 87.218891 148.26015 
L 87.284827 151.019735 
L 87.482637 159.828602 
L 87.548574 156.959652 
L 87.614511 158.861891 
L 87.812321 162.927232 
L 87.944194 159.056124 
L 88.010131 160.942643 
L 88.076067 159.79967 
L 88.603561 145.050752 
L 88.735434 150.276413 
L 88.801371 147.850923 
L 88.867307 149.388004 
L 88.999181 154.973021 
L 89.065117 154.498021 
L 89.262927 144.768098 
L 89.328864 145.326355 
L 89.394801 140.81147 
L 89.460737 142.406612 
L 89.526674 141.563151 
L 89.592611 136.116433 
L 89.724484 146.803981 
L 89.790421 142.846458 
L 89.922294 145.355381 
L 90.054167 141.64973 
L 90.120104 142.538966 
L 90.186041 138.268959 
L 90.251977 139.322239 
L 90.317914 140.582109 
L 90.383851 138.827097 
L 90.647597 151.216287 
L 90.713534 148.619928 
L 90.845407 155.885103 
L 90.911344 164.500581 
L 90.977281 162.745992 
L 91.241027 170.459491 
L 91.306964 177.127605 
L 91.372901 173.005982 
L 91.438837 171.114405 
L 91.504774 173.447187 
L 91.570711 173.064086 
L 91.636647 170.13174 
L 91.702584 171.271833 
L 91.768521 170.348933 
L 91.966331 181.766782 
L 92.032267 178.288838 
L 92.098204 183.255116 
L 92.164141 178.992322 
L 92.296014 185.008795 
L 92.427887 178.375515 
L 92.493824 181.718293 
L 92.625697 183.720097 
L 92.757571 180.687711 
L 92.889444 182.489688 
L 92.95538 183.52133 
L 93.021317 182.148681 
L 93.087254 184.862612 
L 93.285064 167.994708 
L 93.351 168.039111 
L 93.416937 170.113669 
L 93.680684 155.756096 
L 93.74662 159.007923 
L 93.812557 160.595945 
L 94.010367 153.701994 
L 94.076304 153.050865 
L 94.14224 150.671172 
L 94.208177 153.160008 
L 94.274114 151.002602 
L 94.471924 158.678666 
L 94.669734 153.370444 
L 94.73567 158.600457 
L 94.801607 154.660921 
L 94.867544 159.405079 
L 94.93348 157.16103 
L 94.999417 159.770211 
L 95.065354 159.686755 
L 95.13129 159.177999 
L 95.263164 162.180206 
L 95.658784 143.378656 
L 95.790657 144.287344 
L 95.856594 144.343789 
L 95.988467 149.562973 
L 96.054404 148.039476 
L 96.12034 146.469733 
L 96.384087 152.499359 
L 96.51596 149.130664 
L 96.581897 150.284048 
L 96.647834 154.029579 
L 96.71377 153.422154 
L 96.779707 152.668367 
L 96.977517 156.979984 
L 97.043454 152.166987 
L 97.241264 163.368063 
L 97.439074 155.163366 
L 97.50501 156.662168 
L 97.768757 146.368068 
L 97.834694 149.630794 
L 97.966567 142.244736 
L 98.032504 145.124355 
L 98.09844 145.209388 
L 98.164377 142.706756 
L 98.362187 154.274214 
L 98.49406 149.699491 
L 98.559997 153.013406 
L 98.625934 149.921392 
L 98.69187 150.19471 
L 98.757807 150.799597 
L 98.955617 143.508741 
L 99.08749 146.244025 
L 99.153427 142.303102 
L 99.219363 144.805492 
L 99.2853 144.298649 
L 99.351237 140.013583 
L 99.417173 141.520493 
L 99.746857 156.803903 
L 99.944667 148.928375 
L 100.010603 151.637711 
L 100.07654 149.750651 
L 100.208413 151.414969 
L 100.47216 163.56212 
L 100.604033 158.403138 
L 100.66997 160.429737 
L 100.801843 155.679346 
L 100.86778 154.857272 
L 100.999653 162.322842 
L 101.131527 158.975077 
L 101.593083 184.736938 
L 101.65902 183.573242 
L 101.724957 180.934924 
L 102.05464 199.785229 
L 102.64807 176.800116 
L 102.84588 184.526308 
L 102.911817 188.102774 
L 103.04369 179.721928 
L 103.109627 184.718219 
L 103.175563 178.74955 
L 103.2415 181.719431 
L 103.505247 193.325252 
L 103.571183 192.197176 
L 103.703057 179.639137 
L 103.768993 181.470204 
L 104.098677 188.598002 
L 104.23055 186.697867 
L 104.296487 188.131087 
L 104.362423 186.901686 
L 104.42836 191.558231 
L 104.758043 167.621487 
L 104.82398 173.605809 
L 104.889916 172.235301 
L 104.955853 171.742854 
L 105.2196 177.91514 
L 105.285536 178.667875 
L 105.351473 181.368702 
L 105.41741 177.294229 
L 105.549283 182.376555 
L 105.61522 177.273193 
L 105.681156 183.803962 
L 105.747093 180.004603 
L 105.944903 170.136333 
L 106.142713 180.184623 
L 106.20865 181.133342 
L 106.340523 186.908795 
L 106.40646 186.879418 
L 106.472396 186.830034 
L 106.538333 187.706625 
L 106.60427 184.660859 
L 106.670206 190.141234 
L 106.736143 187.27624 
L 106.80208 189.702454 
L 106.99989 180.019038 
L 107.065826 186.283911 
L 107.131763 182.660645 
L 107.1977 181.283442 
L 107.461446 192.376492 
L 107.527383 186.091133 
L 107.59332 192.53798 
L 107.659256 189.81406 
L 107.725193 187.627864 
L 107.79113 189.076654 
L 107.857066 188.742039 
L 107.923003 183.866745 
L 107.98894 187.411986 
L 108.054876 186.681081 
L 108.120813 185.0259 
L 108.18675 187.461132 
L 108.252686 186.516792 
L 108.318623 185.976919 
L 108.38456 183.370643 
L 108.450496 184.745357 
L 108.648306 194.766297 
L 108.846116 183.509997 
L 109.109863 177.338749 
L 109.307673 174.387214 
L 109.37361 164.963553 
L 109.439546 170.2765 
L 109.505483 163.349685 
L 109.57142 163.47866 
L 109.637356 168.558111 
L 109.703293 168.487607 
L 109.76923 159.231786 
L 109.835166 160.992059 
L 109.901103 167.343784 
L 109.96704 163.224301 
L 110.098913 162.01557 
L 110.296723 152.571405 
L 110.36266 150.461912 
L 110.494533 154.737562 
L 110.824216 148.794463 
L 110.956089 141.041641 
L 111.153899 145.49046 
L 111.219836 144.656653 
L 111.549519 154.977972 
L 111.615456 153.475894 
L 111.879203 162.839469 
L 112.011076 155.226644 
L 112.077013 161.168425 
L 112.208886 154.172431 
L 112.274823 155.360298 
L 112.406696 154.029964 
L 112.538569 159.127099 
L 112.604506 152.473461 
L 112.670443 154.135644 
L 112.868253 161.57911 
L 112.934189 162.653954 
L 113.000126 162.026563 
L 113.066063 161.815419 
L 113.131999 163.339151 
L 113.197936 162.824478 
L 113.263873 161.685111 
L 113.527619 169.825065 
L 113.725429 176.468251 
L 113.791366 174.520121 
L 113.989176 169.920332 
L 114.055113 171.304866 
L 114.186986 167.328672 
L 114.252923 168.607638 
L 114.384796 171.685095 
L 114.582606 165.094396 
L 114.714479 169.286601 
L 114.846353 162.233396 
L 114.912289 164.659362 
L 114.978226 164.444695 
L 115.044163 162.505177 
L 115.110099 163.742567 
L 115.176036 163.693744 
L 115.241973 162.454345 
L 115.307909 163.55236 
L 115.373846 167.490413 
L 115.439783 165.052068 
L 115.505719 164.919768 
L 115.571656 166.276367 
L 115.637593 162.249187 
L 115.703529 162.711297 
L 115.769466 162.711014 
L 115.835403 158.488474 
L 115.901339 158.589278 
L 115.967276 163.867464 
L 116.033213 160.549771 
L 116.099149 161.887951 
L 116.362896 155.020983 
L 116.428833 155.402419 
L 116.692579 163.112322 
L 117.088199 145.221036 
L 117.220072 145.419654 
L 117.286009 150.938983 
L 117.351946 150.457863 
L 117.417882 150.055799 
L 117.615692 162.47996 
L 117.681629 163.603963 
L 117.747566 163.122988 
L 118.011312 152.423704 
L 118.275059 144.791276 
L 118.340996 149.28656 
L 118.406932 146.740914 
L 118.472869 147.926365 
L 118.670679 138.475303 
L 118.868489 149.879843 
L 118.934426 147.932575 
L 119.000362 149.134799 
L 119.264109 144.814696 
L 119.527856 150.523257 
L 119.923476 164.696145 
L 120.055349 156.713723 
L 120.121286 159.847233 
L 120.187222 159.021307 
L 120.253159 160.054031 
L 120.582842 149.937959 
L 120.714716 159.201807 
L 120.780652 157.928494 
L 120.912526 160.8233 
L 120.978462 158.146279 
L 121.242209 167.842304 
L 121.374082 172.346657 
L 121.505956 168.995408 
L 121.703766 162.601561 
L 121.835639 167.903947 
L 121.901576 167.052282 
L 121.967512 172.61707 
L 122.033449 170.729492 
L 122.165322 166.041229 
L 122.231259 166.237268 
L 122.297196 167.242538 
L 122.429069 158.4043 
L 122.560942 165.335187 
L 122.626879 164.564109 
L 122.824689 170.39789 
L 122.956562 164.099778 
L 123.022499 165.840523 
L 123.088435 163.679384 
L 123.220309 169.099996 
L 123.286245 175.833545 
L 123.352182 172.195293 
L 123.418119 171.642025 
L 123.681865 178.601735 
L 123.747802 176.770342 
L 123.813739 180.624052 
L 123.879675 178.995994 
L 123.945612 180.906959 
L 124.011549 180.286017 
L 124.209359 175.781 
L 124.407169 181.713681 
L 124.539042 177.494705 
L 124.604979 179.980365 
L 124.670915 176.86792 
L 124.736852 177.069248 
L 124.802789 180.695846 
L 124.868725 179.690014 
L 124.934662 177.87039 
L 125.000599 178.490328 
L 125.132472 187.972882 
L 125.330282 175.326483 
L 125.396219 177.474459 
L 125.528092 171.990452 
L 125.594029 175.258367 
L 125.659965 174.493199 
L 125.725902 174.992616 
L 125.791839 178.783739 
L 126.055585 168.342622 
L 126.121522 169.210621 
L 126.253395 165.473735 
L 126.319332 169.562979 
L 126.385269 169.145087 
L 126.517142 165.365563 
L 126.780889 174.552527 
L 127.110572 179.112233 
L 127.176509 179.193036 
L 127.242445 178.174404 
L 127.374319 170.882229 
L 127.440255 171.86872 
L 127.506192 168.979799 
L 127.638065 177.201832 
L 127.835875 171.533736 
L 127.901812 175.541772 
L 127.967749 174.62074 
L 128.033685 174.470634 
L 128.099622 170.164971 
L 128.165559 170.613064 
L 128.231495 171.319543 
L 128.429305 167.42508 
L 128.824925 183.774809 
L 128.956798 189.354044 
L 129.022735 183.710317 
L 129.088672 184.462173 
L 129.154608 187.07693 
L 129.220545 185.895426 
L 129.286482 187.580153 
L 129.352418 184.769894 
L 129.418355 185.094659 
L 129.484292 184.356632 
L 129.550228 181.906644 
L 129.616165 183.92747 
L 129.813975 180.875904 
L 129.879912 180.85402 
L 130.143658 191.069022 
L 130.341468 184.590504 
L 130.407405 184.978541 
L 130.473342 186.808512 
L 130.605215 184.880658 
L 130.671152 186.579194 
L 130.737088 183.182182 
L 131.066772 192.262587 
L 131.462392 176.313338 
L 131.528328 172.145242 
L 131.594265 172.874781 
L 131.726138 177.738744 
L 131.858012 172.670629 
L 131.923948 173.348215 
L 131.989885 168.250353 
L 132.055822 169.629778 
L 132.121758 168.164206 
L 132.187695 168.513386 
L 132.319568 168.646128 
L 132.451442 165.737899 
L 132.517378 166.652416 
L 132.583315 170.892685 
L 132.847062 162.680508 
L 133.044872 169.08709 
L 133.110808 167.410409 
L 133.176745 167.854774 
L 133.242682 167.176326 
L 133.506428 157.18499 
L 133.572365 159.312202 
L 133.638302 158.319501 
L 133.704238 154.901365 
L 133.770175 155.667457 
L 133.836112 154.857875 
L 133.902048 155.549209 
L 133.967985 153.617467 
L 134.231732 160.477327 
L 134.363605 149.323848 
L 134.429542 151.428407 
L 134.495478 155.047549 
L 134.627352 150.678992 
L 134.693288 153.504643 
L 134.825161 149.432027 
L 134.957035 152.486918 
L 135.022971 151.05533 
L 135.154845 154.993344 
L 135.286718 149.000476 
L 135.352655 149.699456 
L 135.616401 154.215941 
L 135.682338 153.207327 
L 136.209831 175.750878 
L 136.341705 168.68045 
L 136.539515 175.376976 
L 136.605451 173.661268 
L 136.737325 180.094675 
L 136.935135 178.518016 
L 137.001071 177.683338 
L 137.067008 181.207755 
L 137.132945 180.888209 
L 137.330755 185.09546 
L 137.396691 183.778707 
L 137.726375 190.222843 
L 137.858248 184.390155 
L 137.924185 186.827383 
L 137.990121 186.482821 
L 138.056058 186.728201 
L 138.319805 182.335222 
L 138.385741 184.502786 
L 138.451678 180.504974 
L 138.517615 181.046658 
L 138.583551 180.914587 
L 138.715425 178.356731 
L 138.847298 182.884004 
L 138.913235 181.730853 
L 138.979171 182.756577 
L 139.045108 187.41354 
L 139.111045 185.708691 
L 139.242918 187.5302 
L 139.308855 187.525926 
L 139.374791 189.373049 
L 139.506665 183.930838 
L 139.836348 195.98029 
L 139.902285 195.134378 
L 139.968221 195.574567 
L 140.166031 201.478044 
L 140.231968 201.007876 
L 140.297905 200.45425 
L 140.429778 196.57927 
L 140.627588 201.866748 
L 140.759461 206.011183 
L 140.957271 199.766118 
L 141.023208 202.147843 
L 141.221018 195.618272 
L 141.418828 198.18507 
L 141.550701 193.756057 
L 141.682574 201.686007 
L 141.748511 197.055112 
L 141.814448 199.551192 
L 141.880384 197.782566 
L 141.946321 200.224389 
L 142.144131 194.520684 
L 142.276004 201.42562 
L 142.407878 192.206573 
L 142.539751 192.978504 
L 142.803498 182.111017 
L 142.869434 179.868137 
L 142.935371 180.359882 
L 143.001308 182.084638 
L 143.462864 168.301289 
L 143.594738 170.625878 
L 143.726611 167.251521 
L 143.858484 174.981527 
L 144.056294 169.05289 
L 144.122231 169.824382 
L 144.188168 169.409981 
L 144.254104 169.818131 
L 144.320041 167.797191 
L 144.385978 161.042147 
L 144.451914 161.271103 
L 144.517851 160.917987 
L 144.913471 153.448552 
L 144.979408 146.440121 
L 145.111281 154.603641 
L 145.243154 151.231652 
L 145.506901 158.930692 
L 145.572838 157.09574 
L 145.638774 158.090241 
L 145.704711 156.887804 
L 145.836584 160.723606 
L 145.902521 156.764283 
L 145.968458 158.082516 
L 146.100331 152.314663 
L 146.166268 154.561413 
L 146.364078 159.665144 
L 146.495951 161.579613 
L 146.561888 160.348257 
L 146.627824 161.666678 
L 146.825634 155.623795 
L 146.891571 160.033002 
L 146.957507 157.529811 
L 147.023444 157.430542 
L 147.155317 169.90074 
L 147.221254 167.080424 
L 147.287191 168.485411 
L 147.353127 163.350783 
L 147.419064 165.387096 
L 147.485001 165.091446 
L 147.616874 167.244965 
L 147.682811 168.856264 
L 147.748747 163.182002 
L 147.814684 163.861448 
L 147.946557 160.432181 
L 148.012494 156.435265 
L 148.078431 158.346002 
L 148.144367 157.794113 
L 148.408114 148.065818 
L 148.605924 157.731657 
L 148.671861 156.491403 
L 148.803734 160.039729 
L 148.935607 156.125296 
L 149.001544 159.229807 
L 149.067481 159.034583 
L 149.133417 160.170825 
L 149.265291 152.312039 
L 149.463101 159.687976 
L 149.594974 155.620584 
L 149.726847 159.676891 
L 149.858721 157.90779 
L 149.924657 158.50343 
L 150.122467 154.821259 
L 150.188404 154.059135 
L 150.452151 163.861203 
L 150.518087 161.818696 
L 150.584024 161.743759 
L 150.715897 166.386859 
L 150.847771 158.017218 
L 150.913707 159.630686 
L 150.979644 160.256598 
L 151.177454 163.709587 
L 151.309327 162.037313 
L 151.375264 166.940096 
L 151.441201 164.256749 
L 151.639011 176.576257 
L 151.704947 175.707747 
L 151.770884 174.652832 
L 151.836821 171.806526 
L 151.968694 177.391069 
L 152.034631 175.079756 
L 152.100567 177.616025 
L 152.166504 175.332981 
L 152.232441 177.842523 
L 152.298377 177.21018 
L 152.562124 170.057058 
L 152.628061 167.671639 
L 152.82587 175.15461 
L 152.891807 177.969004 
L 152.957744 176.728887 
L 153.02368 176.275967 
L 153.155554 170.884731 
L 153.22149 172.219203 
L 153.353364 166.917165 
L 153.4193 167.646757 
L 153.551174 174.721671 
L 153.748984 166.963707 
L 153.81492 169.291813 
L 153.880857 165.138493 
L 153.946794 165.755307 
L 154.01273 168.157511 
L 154.078667 165.362209 
L 154.144604 169.523342 
L 154.21054 168.158988 
L 154.40835 159.76076 
L 154.474287 162.349846 
L 154.60616 154.725586 
L 154.672097 155.320165 
L 154.738034 155.655999 
L 154.80397 154.769667 
L 155.00178 156.641435 
L 155.067717 156.919747 
L 155.133654 154.543511 
L 155.19959 157.361171 
L 155.265527 154.274479 
L 155.463337 161.331325 
L 155.59521 156.555904 
L 155.661147 158.082797 
L 155.727084 153.542196 
L 155.79302 155.773064 
L 155.858957 155.483841 
L 156.056767 159.56756 
L 156.18864 162.341801 
L 156.254577 161.151514 
L 156.452387 169.150663 
L 156.518324 166.679086 
L 156.650197 168.273925 
L 156.716134 167.14811 
L 156.848007 162.337878 
L 156.97988 164.059004 
L 157.17769 156.164465 
L 157.243627 156.230226 
L 157.441437 159.139456 
L 157.507374 158.496575 
L 157.639247 161.570601 
L 157.77112 158.31947 
L 157.837057 159.631519 
L 157.96893 160.145824 
L 158.16674 152.471755 
L 158.232677 152.269447 
L 158.298614 152.689956 
L 158.36455 149.579176 
L 158.430487 151.996945 
L 158.496424 149.145498 
L 158.56236 149.707817 
L 158.628297 149.006089 
L 158.76017 151.735489 
L 158.826107 148.172903 
L 158.892043 148.853915 
L 158.95798 148.693246 
L 159.023917 152.769293 
L 159.089853 148.889806 
L 159.15579 149.693371 
L 159.287663 152.676167 
L 159.3536 152.459648 
L 159.419537 151.367075 
L 159.485473 156.061962 
L 159.55141 154.780782 
L 159.683283 147.413448 
L 159.74922 147.597919 
L 160.012967 155.066515 
L 160.210777 156.765838 
L 160.34265 148.445161 
L 160.54046 152.672052 
L 160.606397 152.094802 
L 160.93608 173.216539 
L 161.002017 170.139862 
L 161.067953 174.904839 
L 161.13389 170.709411 
L 161.265763 180.85909 
L 161.3317 179.489997 
L 161.397637 180.200166 
L 161.463573 179.830332 
L 161.52951 182.322584 
L 161.92513 170.740088 
L 162.12294 175.648774 
L 162.188877 171.605622 
L 162.254813 173.040492 
L 162.650433 188.331503 
L 162.71637 187.471367 
L 162.848243 181.792576 
L 162.980117 183.798677 
L 163.046053 187.532026 
L 163.11199 184.437084 
L 163.177927 188.627386 
L 163.375737 180.920927 
L 163.639483 167.804273 
L 163.837293 173.576741 
L 163.90323 167.919936 
L 163.969167 168.047582 
L 164.166977 172.830512 
L 164.232913 174.3765 
L 164.29885 171.764716 
L 164.628533 184.705456 
L 164.826343 179.419281 
L 164.89228 182.23758 
L 164.958216 181.799815 
L 165.024153 177.463798 
L 165.09009 178.062022 
L 165.2879 170.379644 
L 165.353836 170.939864 
L 165.419773 171.757758 
L 165.48571 175.012758 
L 165.551646 174.801635 
L 165.617583 173.159366 
L 165.947266 179.12153 
L 166.013203 174.104721 
L 166.07914 176.741336 
L 166.145076 176.810063 
L 166.211013 177.482129 
L 166.27695 179.843962 
L 166.342886 179.437617 
L 166.540696 175.011143 
L 166.606633 178.600956 
L 166.67257 178.537077 
L 166.738506 176.236075 
L 166.804443 178.36174 
L 166.936316 173.440959 
L 167.002253 176.876079 
L 167.200063 173.012381 
L 167.46381 168.924521 
L 167.529746 171.074155 
L 167.595683 170.554645 
L 167.727556 167.92331 
L 167.85943 168.371162 
L 167.925366 166.872076 
L 167.991303 169.829548 
L 168.05724 167.125024 
L 168.123176 168.392474 
L 168.386923 183.530214 
L 168.45286 182.332452 
L 168.518796 178.92219 
L 168.584733 179.279236 
L 168.84848 186.162228 
L 168.914416 185.233047 
L 168.980353 185.618192 
L 169.178163 192.904455 
L 169.44191 184.285349 
L 169.507846 182.522872 
L 169.573783 183.048408 
L 169.63972 184.298732 
L 169.705656 183.423696 
L 169.771593 184.910637 
L 169.83753 180.015712 
L 169.903466 180.571707 
L 170.03534 186.112784 
L 170.101276 185.729228 
L 170.167213 186.135979 
L 170.299086 185.476103 
L 170.562833 201.757533 
L 170.760643 205.392175 
L 171.090326 198.042504 
L 171.222199 201.409819 
L 171.354073 194.788036 
L 171.420009 196.412274 
L 171.551883 188.770239 
L 171.617819 189.453755 
L 171.683756 190.854166 
L 171.749693 190.604432 
L 171.815629 185.535051 
L 171.881566 186.076513 
L 172.079376 191.44706 
L 172.145313 194.296965 
L 172.409059 184.165998 
L 172.474996 180.037355 
L 172.540933 184.153564 
L 172.606869 182.274947 
L 172.672806 177.836761 
L 172.738743 178.381645 
L 172.804679 180.891026 
L 173.332173 154.003755 
L 173.595919 147.804324 
L 173.859666 136.20452 
L 174.189349 143.373434 
L 174.255286 143.016556 
L 174.453096 134.306134 
L 174.519033 138.083585 
L 174.584969 137.481765 
L 174.716843 142.82162 
L 174.848716 135.815648 
L 174.914653 145.29534 
L 174.980589 144.231487 
L 175.046526 146.453411 
L 175.112463 146.219156 
L 175.244336 155.527329 
L 175.376209 157.580952 
L 175.508083 150.879437 
L 175.574019 151.299333 
L 175.771829 158.734758 
L 175.903703 155.551367 
L 175.969639 160.248556 
L 176.035576 159.812537 
L 176.101513 160.568574 
L 176.167449 159.840715 
L 176.233386 164.811755 
L 176.299323 164.427497 
L 176.431196 163.678047 
L 176.563069 166.828009 
L 176.694942 165.793159 
L 176.760879 166.914941 
L 176.826816 163.985184 
L 176.892752 164.6899 
L 177.090562 173.732868 
L 177.222436 173.574913 
L 177.420246 164.687216 
L 177.486182 168.373784 
L 177.552119 168.391973 
L 177.683992 161.626785 
L 177.749929 163.175295 
L 177.815866 167.33934 
L 177.881802 165.08399 
L 178.013676 161.450583 
L 178.409296 178.541123 
L 178.673042 173.512651 
L 178.738979 179.863261 
L 178.804916 179.747462 
L 178.870852 180.033759 
L 178.936789 179.02227 
L 179.002726 175.938235 
L 179.200536 184.441972 
L 179.728029 163.841735 
L 180.123649 180.10316 
L 180.255522 177.594396 
L 180.387396 185.231892 
L 180.453332 185.115726 
L 181.178636 160.267057 
L 181.244572 163.117706 
L 181.310509 163.08306 
L 181.376446 163.469752 
L 181.640192 159.165997 
L 181.706129 163.457657 
L 181.772066 161.059727 
L 181.838002 159.804291 
L 182.035812 146.840002 
L 182.101749 148.930794 
L 182.299559 160.134425 
L 182.365496 161.694018 
L 182.827052 142.192295 
L 183.024862 144.543584 
L 183.222672 131.882401 
L 183.288609 130.160075 
L 183.354545 135.477809 
L 183.420482 133.847318 
L 183.486419 136.040414 
L 183.552355 134.147349 
L 184.013912 159.018014 
L 184.145785 154.836703 
L 184.211722 149.903259 
L 184.277659 152.173739 
L 184.343595 154.205548 
L 184.409532 151.256852 
L 184.475469 151.591212 
L 184.541405 153.939029 
L 184.805152 176.321108 
L 185.002962 167.35087 
L 185.068899 167.764194 
L 185.134835 169.435228 
L 185.266709 166.251041 
L 185.398582 171.038323 
L 185.464519 169.713749 
L 185.530455 171.224798 
L 185.728265 167.2338 
L 185.992012 183.851598 
L 186.057949 180.454944 
L 186.123885 182.449806 
L 186.387632 174.762833 
L 186.453569 171.329339 
L 186.519505 172.302539 
L 186.585442 172.875439 
L 186.651379 168.372345 
L 186.717315 168.381659 
L 186.849189 165.507204 
L 186.915125 171.238898 
L 186.981062 170.320339 
L 187.046999 171.856912 
L 187.178872 169.649495 
L 187.244809 170.604295 
L 187.442619 154.861606 
L 187.508555 153.495466 
L 187.640429 156.151168 
L 187.706365 155.489487 
L 187.772302 153.460089 
L 187.904175 163.101648 
L 187.970112 162.697392 
L 188.167922 155.212626 
L 188.233859 155.30313 
L 188.299795 157.440218 
L 188.365732 156.201696 
L 188.431669 156.964168 
L 188.497605 160.681717 
L 188.563542 158.972611 
L 188.695415 156.384467 
L 188.959162 164.355626 
L 189.025098 162.816645 
L 189.288845 151.431467 
L 189.354782 153.30406 
L 189.420718 151.231956 
L 189.486655 153.449569 
L 189.552592 151.932404 
L 189.750402 148.465166 
L 189.882275 152.183797 
L 189.948212 147.660951 
L 190.080085 154.793562 
L 190.146022 155.313248 
L 190.475705 162.929238 
L 190.607578 158.807546 
L 191.069135 168.305536 
L 191.135072 167.13787 
L 191.266945 163.477722 
L 191.332882 164.185131 
L 191.398818 162.185187 
L 191.464755 163.895764 
L 191.530692 162.341157 
L 191.728502 169.015723 
L 191.794438 172.775095 
L 191.860375 171.385548 
L 191.926312 168.185282 
L 191.992248 171.384468 
L 192.058185 171.014881 
L 192.190058 165.893359 
L 192.321932 172.166011 
L 192.387868 171.184492 
L 192.453805 167.993975 
L 192.519742 169.699189 
L 192.585678 169.255898 
L 192.717552 173.404582 
L 192.783488 171.508116 
L 192.849425 172.913782 
L 193.113172 167.302129 
L 193.179108 172.817412 
L 193.245045 172.094861 
L 193.376918 170.565087 
L 193.442855 172.666925 
L 193.508792 168.851311 
L 193.706602 174.802309 
L 193.838475 172.872587 
L 193.904412 173.79817 
L 194.102222 181.624332 
L 194.168158 178.334654 
L 194.234095 179.737861 
L 194.365968 176.940064 
L 194.497841 180.260218 
L 194.761588 191.775801 
L 194.827525 192.205794 
L 194.893461 196.307853 
L 195.025335 190.333387 
L 195.289081 198.180032 
L 195.355018 197.995423 
L 195.420955 194.616655 
L 195.486891 195.035386 
L 195.552828 197.467734 
L 195.684701 195.107457 
L 195.750638 197.367079 
L 195.816575 196.94666 
L 195.882511 190.9009 
L 195.948448 194.386939 
L 196.014385 192.43342 
L 196.080321 193.148845 
L 196.212195 198.715766 
L 196.278131 197.596066 
L 196.344068 198.5426 
L 196.410005 196.257576 
L 196.541878 202.088812 
L 196.607815 200.287567 
L 196.937498 192.402495 
L 197.069371 197.858119 
L 197.135308 196.811037 
L 197.333118 185.603932 
L 197.399055 186.010302 
L 197.464991 185.34761 
L 197.728738 195.298645 
L 197.860611 195.344852 
L 198.190295 185.116587 
L 198.388105 190.138457 
L 198.454041 187.561096 
L 198.585915 193.9675 
L 198.849661 185.713164 
L 198.915598 185.462224 
L 199.047471 183.268706 
L 199.113408 186.072412 
L 199.179345 184.83748 
L 199.377155 174.244578 
L 199.443091 175.568889 
L 199.509028 175.90918 
L 199.772775 163.076891 
L 199.838711 161.321637 
L 199.970585 170.443993 
L 200.036521 169.9776 
L 200.102458 168.745 
L 200.366205 158.477536 
L 200.498078 160.770177 
L 200.564014 155.565976 
L 200.629951 156.633236 
L 200.695888 156.433477 
L 200.893698 164.094282 
L 201.223381 156.268099 
L 201.355254 160.879776 
L 201.421191 158.015797 
L 201.487128 158.461029 
L 201.553064 157.763287 
L 201.882748 143.078445 
L 201.948684 143.508392 
L 202.014621 147.302379 
L 202.080558 145.978441 
L 202.146494 143.160757 
L 202.212431 143.873834 
L 202.410241 154.065343 
L 202.476178 153.641795 
L 202.542114 154.414873 
L 202.739924 147.253869 
L 202.937734 153.519463 
L 203.003671 150.695553 
L 203.069608 153.402719 
L 203.201481 145.422082 
L 203.267418 147.481358 
L 203.333354 149.621287 
L 203.597101 142.406229 
L 203.728974 142.61042 
L 203.860848 148.142629 
L 203.926784 147.895847 
L 204.058658 146.652191 
L 204.124594 149.754069 
L 204.190531 148.998636 
L 204.256468 149.557717 
L 204.322404 153.108578 
L 204.388341 152.090279 
L 204.454278 154.183995 
L 204.586151 163.7675 
L 204.652088 161.196638 
L 204.718024 161.861196 
L 204.849898 169.460474 
L 204.915834 169.013459 
L 204.981771 166.142018 
L 205.047708 169.253654 
L 205.179581 163.446178 
L 205.311454 166.727651 
L 205.509264 157.215939 
L 205.641138 163.125314 
L 205.707074 162.056726 
L 205.773011 156.78008 
L 205.838948 158.005777 
L 205.904884 163.424777 
L 205.970821 161.249019 
L 206.036758 155.120514 
L 206.102694 156.905808 
L 206.168631 158.034613 
L 206.300504 154.180048 
L 206.366441 155.154858 
L 206.432378 156.886067 
L 206.762061 141.298939 
L 206.827997 141.761197 
L 206.959871 145.440789 
L 207.157681 141.151744 
L 207.223617 135.523267 
L 207.289554 135.855394 
L 207.553301 137.632959 
L 207.685174 138.73564 
L 207.751111 136.279216 
L 207.882984 145.267502 
L 207.948921 144.290241 
L 208.212667 154.040493 
L 208.278604 153.178372 
L 208.344541 151.426829 
L 208.410477 152.553753 
L 208.542351 158.058313 
L 208.674224 154.465691 
L 209.003907 171.835589 
L 209.069844 173.029726 
L 209.135781 171.053876 
L 209.399527 182.099479 
L 209.597337 188.376704 
L 209.663274 186.514849 
L 209.927021 192.544008 
L 209.992957 191.982615 
L 210.784197 163.489289 
L 211.245754 148.811195 
L 211.311691 150.333021 
L 211.377627 153.367417 
L 211.443564 151.702555 
L 211.509501 151.531218 
L 211.773247 141.59047 
L 211.839184 141.609155 
L 212.102931 134.597027 
L 212.168867 134.847673 
L 212.234804 136.014143 
L 212.366677 134.313905 
L 212.432614 135.300247 
L 212.49855 134.644024 
L 212.69636 131.08467 
L 212.762297 135.411319 
L 212.828234 130.75361 
L 212.89417 132.685317 
L 213.026044 129.97127 
L 213.09198 133.086051 
L 213.157917 130.960568 
L 213.223854 127.38495 
L 213.4876 135.863612 
L 213.553537 137.404237 
L 213.619474 134.429251 
L 213.68541 135.016369 
L 213.751347 141.693495 
L 213.817284 140.044225 
L 213.949157 136.938607 
L 214.015094 137.457783 
L 214.08103 134.051054 
L 214.146967 137.4638 
L 214.212904 136.940727 
L 214.27884 135.765461 
L 214.344777 131.146325 
L 214.47665 135.526347 
L 214.740397 126.237795 
L 214.806334 130.219817 
L 214.938207 122.814492 
L 215.004144 124.471505 
L 215.07008 125.157343 
L 215.136017 123.447713 
L 215.201954 124.085785 
L 215.399764 128.990238 
L 215.4657 128.4555 
L 215.531637 129.100356 
L 215.597574 126.843259 
L 215.795384 133.276705 
L 215.927257 132.397968 
L 215.993194 133.102867 
L 216.191004 122.154238 
L 216.322877 120.208728 
L 216.65256 130.590387 
L 216.718497 127.282719 
L 216.784434 129.943272 
L 216.85037 125.490168 
L 216.916307 125.565807 
L 217.04818 133.735619 
L 217.114117 129.124436 
L 217.180054 130.687651 
L 217.24599 131.95793 
L 217.311927 129.620853 
L 217.64161 143.882094 
L 217.707547 140.193537 
L 217.773484 141.622302 
L 217.83942 141.563918 
L 217.905357 142.148617 
L 218.03723 139.138762 
L 218.169104 142.241154 
L 218.366914 150.655225 
L 218.564723 156.964214 
L 218.894407 177.675008 
L 218.960343 179.116714 
L 219.092217 184.762036 
L 219.290027 175.646186 
L 219.355963 176.246351 
L 219.487837 183.374497 
L 219.61971 187.763577 
L 219.685647 187.083267 
L 219.81752 195.515674 
L 219.883457 191.771594 
L 220.01533 200.861069 
L 220.081267 198.926497 
L 220.279077 188.878951 
L 220.345013 189.415974 
L 220.476887 186.22629 
L 220.80657 197.322483 
L 220.938443 191.712736 
L 221.00438 191.933303 
L 221.070317 186.960227 
L 221.136253 188.676601 
L 221.334063 188.651837 
L 221.4 188.267142 
L 221.531873 189.920956 
L 221.663747 181.9485 
L 221.729683 181.821319 
L 221.79562 181.033877 
L 221.927493 184.054674 
L 222.125303 191.494978 
L 222.19124 190.960745 
L 222.323113 187.455343 
L 222.38905 188.262689 
L 222.652797 176.49337 
L 222.98248 180.263426 
L 223.114353 176.910048 
L 223.18029 178.830324 
L 223.444037 169.773812 
L 223.57591 166.361842 
L 223.641847 167.766152 
L 223.707783 163.765417 
L 223.77372 168.306629 
L 223.839657 167.138532 
L 224.16934 154.16031 
L 224.235277 156.045557 
L 224.301213 161.586073 
L 224.56496 150.067486 
L 224.696833 146.942073 
L 224.894643 141.342723 
L 224.96058 142.809935 
L 225.092453 137.502242 
L 225.290263 144.237565 
L 225.422136 141.461148 
L 225.619946 147.530446 
L 225.685883 148.371569 
L 225.75182 148.02061 
L 225.817756 151.650787 
L 225.883693 147.135295 
L 225.94963 148.094393 
L 226.081503 150.196859 
L 226.14744 147.917617 
L 226.279313 154.822425 
L 226.411186 154.060157 
L 226.608996 145.134192 
L 226.674933 143.335861 
L 226.872743 149.867959 
L 227.004616 144.755812 
L 227.3343 157.916996 
L 227.400236 156.458859 
L 227.466173 158.168315 
L 227.663983 144.028239 
L 227.72992 148.500221 
L 227.795856 147.674224 
L 227.993666 149.245153 
L 228.32335 137.047916 
L 228.389286 135.876967 
L 228.587096 143.178833 
L 228.982716 129.954486 
L 229.11459 133.768764 
L 229.3124 140.609365 
L 229.378336 140.565877 
L 229.51021 144.017861 
L 229.576146 138.470337 
L 229.642083 141.08789 
L 229.70802 142.57442 
L 229.90583 137.063951 
L 229.971766 140.669244 
L 230.037703 137.082957 
L 230.367386 156.961651 
L 230.565196 152.238833 
L 230.631133 154.08468 
L 230.697069 151.234725 
L 230.894879 157.776747 
L 231.092689 155.476136 
L 231.158626 156.599057 
L 231.422373 149.680426 
L 231.554246 156.394807 
L 231.620183 155.042084 
L 231.817993 158.799334 
L 231.883929 158.676359 
L 231.949866 160.522393 
L 232.147676 151.339456 
L 232.213613 152.090225 
L 232.345486 154.729355 
L 232.411423 150.963574 
L 232.477359 152.91436 
L 232.609233 157.665701 
L 232.741106 157.000328 
L 232.938916 148.047744 
L 233.070789 140.149993 
L 233.136726 140.32164 
L 233.268599 141.334313 
L 233.334536 134.822868 
L 233.400473 136.163927 
L 233.532346 140.230322 
L 233.598283 139.913582 
L 233.664219 144.959871 
L 233.730156 142.561418 
L 233.796093 141.929237 
L 233.862029 135.823342 
L 233.927966 141.477106 
L 233.993903 139.959667 
L 234.059839 141.001789 
L 234.125776 139.804175 
L 234.191713 140.470319 
L 234.323586 139.608255 
L 234.521396 133.041512 
L 234.587333 131.95194 
L 234.653269 128.718357 
L 234.719206 132.397119 
L 234.785143 128.745395 
L 234.851079 133.436914 
L 234.917016 128.599062 
L 234.982953 130.645392 
L 235.048889 127.528816 
L 235.114826 128.831008 
L 235.180763 129.401109 
L 235.378573 121.81548 
L 235.444509 122.341782 
L 235.642319 130.911779 
L 235.708256 128.165224 
L 236.037939 146.315623 
L 236.103876 146.09855 
L 236.169813 140.294755 
L 236.235749 142.612371 
L 236.367622 139.787911 
L 236.565432 143.5479 
L 236.631369 142.762725 
L 236.829179 155.552279 
L 237.026989 159.644042 
L 237.158862 166.501098 
L 237.290736 159.890936 
L 237.422609 162.559402 
L 237.488546 160.800624 
L 237.554482 161.093359 
L 237.620419 161.502746 
L 237.752292 157.247469 
L 237.818229 161.379224 
L 238.016039 154.985435 
L 238.147912 156.242455 
L 238.279786 147.993615 
L 238.411659 152.281769 
L 238.477596 151.557094 
L 238.741342 137.896617 
L 238.807279 138.019774 
L 238.873216 141.251185 
L 238.939152 140.142567 
L 239.005089 138.757516 
L 239.071026 134.200457 
L 239.136962 134.711173 
L 239.268836 139.754562 
L 239.598519 123.931261 
L 239.862266 120.283558 
L 239.928202 120.170849 
L 239.994139 119.290519 
L 240.389759 135.855803 
L 240.455696 139.25277 
L 240.521632 137.687068 
L 240.587569 138.713872 
L 240.653506 138.38137 
L 240.719442 138.773123 
L 240.785379 141.464307 
L 240.851316 139.269229 
L 240.917252 143.091968 
L 241.049126 135.158736 
L 241.115062 139.67909 
L 241.180999 136.860691 
L 241.312872 143.739968 
L 241.378809 143.663572 
L 241.444746 141.159742 
L 241.510682 142.859941 
L 241.642556 143.941744 
L 241.906302 148.834212 
L 242.104112 143.31365 
L 242.170049 147.353336 
L 242.235986 147.104791 
L 242.301922 147.336752 
L 242.367859 147.045489 
L 242.499732 140.146828 
L 242.565669 143.633701 
L 242.631605 143.259485 
L 242.697542 144.408124 
L 242.895352 138.449641 
L 242.961289 138.671092 
L 243.093162 135.695773 
L 243.159099 131.247099 
L 243.225035 134.048041 
L 243.290972 135.703404 
L 243.356909 134.097415 
L 243.422845 137.145091 
L 243.620655 130.582647 
L 243.752529 136.719985 
L 243.818465 134.62273 
L 243.884402 135.551428 
L 243.950339 137.672881 
L 244.016275 136.425905 
L 244.082212 135.901749 
L 244.148149 136.794304 
L 244.411895 128.348404 
L 244.477832 132.45743 
L 244.609705 126.279188 
L 244.873452 140.431062 
L 244.939389 139.698186 
L 245.005325 139.870138 
L 245.137199 148.177502 
L 245.203135 147.745501 
L 245.269072 142.314421 
L 245.335009 145.271971 
L 245.400945 144.386946 
L 245.466882 148.474146 
L 245.532819 142.258707 
L 245.598755 145.070679 
L 245.730629 151.688009 
L 246.126249 142.213499 
L 246.192185 142.23559 
L 246.258122 149.303967 
L 246.324059 148.224943 
L 246.389995 145.195495 
L 246.455932 146.747999 
L 246.521869 147.00665 
L 246.917489 136.791147 
L 247.115299 143.174456 
L 247.181235 140.69935 
L 247.247172 143.413975 
L 247.313109 142.365695 
L 247.510919 139.206012 
L 247.576855 136.420334 
L 247.642792 138.005088 
L 247.774665 133.975377 
L 247.840602 129.059653 
L 247.906539 129.719668 
L 247.972475 128.650076 
L 248.038412 123.616901 
L 248.104349 125.248778 
L 248.170285 122.545274 
L 248.236222 125.50053 
L 248.302159 124.686236 
L 248.499968 120.072175 
L 248.565905 119.981478 
L 248.631842 116.180661 
L 248.895588 126.352195 
L 249.027462 124.098365 
L 249.093398 124.805246 
L 249.225272 120.207617 
L 249.489018 131.086948 
L 249.554955 131.143118 
L 249.620892 130.683437 
L 249.686828 127.59799 
L 249.752765 128.05364 
L 249.818702 128.022964 
L 249.950575 133.459971 
L 250.016512 132.921844 
L 250.082448 131.932199 
L 250.280258 139.364696 
L 250.412132 142.84511 
L 250.741815 162.314423 
L 250.807752 161.8134 
L 250.873688 160.163702 
L 251.071498 165.554142 
L 251.137435 164.858605 
L 251.335245 170.53015 
L 251.401182 169.376257 
L 251.467118 169.016317 
L 251.796802 177.304668 
L 251.862738 179.665222 
L 252.192422 165.193398 
L 252.258358 167.39533 
L 252.390232 172.289324 
L 252.653978 161.295543 
L 252.719915 161.685294 
L 252.785852 165.360023 
L 252.851788 162.857107 
L 252.983662 156.733884 
L 253.049598 157.695488 
L 253.181472 155.128504 
L 253.379282 146.748555 
L 253.511155 148.268408 
L 253.577092 152.218861 
L 253.774902 147.067182 
L 253.972712 144.254698 
L 254.368331 135.597435 
L 254.500205 137.56607 
L 254.698015 131.64087 
L 254.895825 137.586885 
L 254.961761 137.352788 
L 255.027698 134.939147 
L 255.225508 140.946187 
L 255.291445 141.452921 
L 255.489255 132.440437 
L 255.555191 133.590929 
L 255.621128 137.270333 
L 255.753001 130.678359 
L 255.818938 132.304553 
L 255.950811 132.792574 
L 256.148621 131.768218 
L 256.214558 131.823983 
L 256.280495 125.393178 
L 256.412368 131.967708 
L 256.478305 132.072524 
L 256.544241 130.475652 
L 256.676115 136.327458 
L 256.807988 135.212322 
L 256.939861 136.786116 
L 257.005798 139.707036 
L 257.071735 136.92818 
L 257.137671 137.968241 
L 257.731101 166.229725 
L 257.797038 165.202879 
L 257.928911 170.526287 
L 258.126721 179.01209 
L 258.324531 171.373442 
L 258.390468 171.310883 
L 258.456405 172.824769 
L 258.522341 170.191926 
L 258.588278 170.602393 
L 258.654215 171.700391 
L 258.786088 176.51811 
L 258.852025 174.756241 
L 258.983898 181.212537 
L 259.049835 174.379348 
L 259.115771 176.904117 
L 259.181708 178.157558 
L 259.247645 182.380816 
L 259.379518 170.995078 
L 259.445455 172.961935 
L 259.643265 177.778399 
L 259.709201 173.636805 
L 259.775138 180.17977 
L 259.841075 179.335313 
L 260.764188 145.530329 
L 260.830124 146.906599 
L 261.225744 154.486566 
L 261.291681 150.358559 
L 261.357618 152.336523 
L 261.687301 139.689441 
L 261.753238 142.285302 
L 261.951048 129.361671 
L 262.082921 139.896296 
L 262.346668 129.854095 
L 262.412604 135.424494 
L 262.478541 133.24482 
L 262.544478 131.923598 
L 262.808224 141.184996 
L 262.940098 147.948451 
L 263.071971 149.134244 
L 263.137908 148.19808 
L 263.203844 153.986514 
L 263.269781 150.200972 
L 263.335718 149.521328 
L 263.599464 163.017051 
L 263.665401 158.467908 
L 263.731338 160.495709 
L 263.797274 164.501011 
L 263.863211 160.704367 
L 263.995084 165.753249 
L 264.061021 163.67268 
L 264.456641 183.513058 
L 264.522578 183.544697 
L 264.588514 182.436434 
L 264.720388 185.896507 
L 264.786324 185.013118 
L 264.918198 187.499936 
L 264.984134 187.225029 
L 265.050071 192.117659 
L 265.181944 184.145608 
L 265.247881 186.136789 
L 265.313818 187.291901 
L 265.379754 187.221571 
L 265.445691 186.33606 
L 265.511628 186.893336 
L 265.577564 188.279734 
L 265.775374 181.435421 
L 265.907248 183.198566 
L 265.973184 186.057785 
L 266.039121 184.931687 
L 266.302867 172.808838 
L 266.368804 174.075481 
L 266.434741 173.694985 
L 266.698487 165.257988 
L 266.764424 166.246198 
L 267.028171 154.531619 
L 267.225981 149.841976 
L 267.291917 150.526691 
L 267.357854 151.251324 
L 267.621601 142.346123 
L 267.753474 142.734604 
L 267.819411 140.321001 
L 267.885347 142.888246 
L 267.951284 141.762515 
L 268.017221 139.79066 
L 268.083157 141.680748 
L 268.280967 131.628568 
L 268.544714 137.812 
L 268.610651 131.767301 
L 268.676587 133.569204 
L 269.072207 150.941293 
L 269.138144 146.841003 
L 269.204081 148.509457 
L 269.270017 142.647998 
L 269.335954 142.684143 
L 269.401891 142.096937 
L 269.533764 145.984516 
L 269.599701 145.883221 
L 269.665637 146.013537 
L 269.731574 144.443898 
L 269.797511 144.636537 
L 269.929384 149.331744 
L 270.061257 146.461099 
L 270.325004 155.027381 
L 270.918434 135.472974 
L 270.984371 135.725794 
L 271.116244 134.388077 
L 271.248117 126.305859 
L 271.314054 130.785525 
L 271.379991 125.771458 
L 271.445927 126.614997 
L 271.577801 121.818048 
L 271.907484 104.800005 
L 272.105294 111.303222 
L 272.171231 106.246794 
L 272.237167 107.019246 
L 272.303104 109.843792 
L 272.36904 106.190065 
L 272.434977 109.538332 
L 272.56685 106.012261 
L 272.698724 112.362191 
L 272.76466 111.138108 
L 273.028407 103.034775 
L 273.16028 109.721438 
L 273.35809 103.982649 
L 273.424027 103.116097 
L 273.489964 103.596764 
L 273.621837 105.085238 
L 273.687774 101.316206 
L 273.75371 104.208132 
L 273.819647 101.775392 
L 273.885584 105.658128 
L 273.95152 104.667248 
L 274.14933 97.728112 
L 274.281204 98.029066 
L 274.610887 104.912135 
L 274.676824 102.706853 
L 274.74276 103.864747 
L 275.006507 98.378082 
L 275.072444 101.34711 
L 275.13838 99.948307 
L 275.270254 96.491656 
L 275.468064 90.158574 
L 275.534 90.830512 
L 275.599937 92.996048 
L 275.797747 87.471923 
L 275.863684 85.814643 
L 275.92962 88.894072 
L 275.995557 87.786751 
L 276.061494 88.441595 
L 276.12743 90.827908 
L 276.193367 90.60415 
L 276.32524 88.470805 
L 276.391177 91.853348 
L 276.457114 89.554459 
L 276.52305 90.998319 
L 276.654924 87.784846 
L 276.786797 90.835707 
L 277.050544 85.75111 
L 277.182417 80.737608 
L 277.248354 80.799406 
L 277.31429 78.828533 
L 277.380227 81.306083 
L 277.643974 72.208537 
L 277.70991 73.178945 
L 277.775847 73.309055 
L 277.841784 70.896511 
L 278.039594 73.308832 
L 278.10553 72.826012 
L 278.171467 75.575528 
L 278.237403 75.440402 
L 278.369277 74.424009 
L 278.435213 74.726214 
L 278.633023 72.368811 
L 278.69896 72.71909 
L 278.764897 72.196634 
L 278.830833 70.206449 
L 278.962707 77.027119 
L 279.226453 71.632516 
L 279.29239 72.582062 
L 279.358327 71.950173 
L 279.424263 72.334535 
L 279.556137 75.121908 
L 279.622073 74.05013 
L 280.017693 86.843999 
L 280.08363 83.429504 
L 280.149567 83.981808 
L 280.28144 91.145655 
L 280.47925 99.194236 
L 280.545187 103.071579 
L 280.611123 100.678743 
L 280.67706 98.500621 
L 280.742997 98.614959 
L 280.87487 103.363689 
L 280.940807 102.247527 
L 281.006743 102.624607 
L 281.07268 103.263092 
L 281.27049 107.23998 
L 281.534237 121.566249 
L 281.66611 118.095454 
L 281.929857 127.095574 
L 281.995793 126.141589 
L 282.06173 127.26264 
L 282.325477 118.139337 
L 282.391413 118.602614 
L 282.45735 117.32926 
L 282.523287 119.096195 
L 282.589223 118.896533 
L 282.721097 114.368852 
L 282.787033 114.758011 
L 282.918907 119.494806 
L 283.05078 115.547523 
L 283.116717 116.162528 
L 283.182653 115.706886 
L 283.512337 125.504057 
L 283.578273 120.948091 
L 283.84202 128.974077 
L 283.973893 133.113261 
L 284.03983 127.018045 
L 284.105767 128.243582 
L 284.171703 127.031951 
L 284.23764 128.488596 
L 284.303576 126.345231 
L 284.369513 128.618621 
L 284.501386 122.547713 
L 284.897006 137.059884 
L 284.962943 137.630784 
L 285.094816 144.466273 
L 285.22669 143.445743 
L 285.4245 149.302466 
L 285.490436 149.357049 
L 285.556373 145.336093 
L 285.62231 145.859709 
L 285.688246 146.448823 
L 285.754183 148.843572 
L 285.82012 148.825332 
L 286.01793 144.977353 
L 286.149803 147.717169 
L 286.21574 145.032922 
L 286.281676 150.563386 
L 286.347613 147.402198 
L 286.545423 138.979578 
L 286.743233 141.529066 
L 286.80917 140.527692 
L 286.875106 141.084815 
L 287.072916 144.826641 
L 287.138853 150.064109 
L 287.20479 149.990961 
L 287.336663 146.588615 
L 287.4026 149.991975 
L 287.468536 148.83195 
L 287.534473 148.311626 
L 287.60041 144.926911 
L 287.666346 149.453155 
L 288.127903 128.287916 
L 288.19384 128.400755 
L 288.259776 129.884258 
L 288.523523 122.127024 
L 288.58946 122.648869 
L 288.78727 117.274531 
L 288.919143 115.609315 
L 288.98508 110.626865 
L 289.051016 113.250578 
L 289.116953 114.771019 
L 289.248826 110.296664 
L 289.3807 102.279984 
L 289.446636 105.84393 
L 289.512573 105.65183 
L 289.57851 105.83262 
L 289.77632 101.436643 
L 290.106003 88.353861 
L 290.237876 80.69563 
L 290.303813 82.17089 
L 290.435686 83.864412 
L 290.501623 82.929676 
L 290.963179 108.199761 
L 291.029116 113.124729 
L 291.095053 110.399097 
L 291.160989 108.448584 
L 291.358799 112.836792 
L 291.622546 120.835565 
L 291.688483 120.375705 
L 291.754419 119.92178 
L 291.820356 120.467542 
L 292.084103 130.042822 
L 292.215976 126.494338 
L 292.347849 126.637508 
L 292.611596 132.314294 
L 292.677533 131.326601 
L 292.743469 137.409187 
L 292.809406 135.80856 
L 292.875343 135.830993 
L 292.941279 137.778686 
L 293.666583 116.3103 
L 293.732519 110.122473 
L 293.798456 112.620465 
L 293.864393 116.828513 
L 294.457823 91.329997 
L 294.523759 92.399681 
L 294.589696 92.126986 
L 294.787506 85.812882 
L 294.985316 80.309329 
L 295.249063 72.875012 
L 295.314999 73.542839 
L 295.446873 67.649821 
L 295.644683 75.254259 
L 295.710619 74.481826 
L 295.776556 73.293748 
L 296.040303 75.927931 
L 296.238112 73.328502 
L 296.501859 74.961215 
L 296.633732 70.313713 
L 296.699669 71.977431 
L 296.765606 71.820711 
L 296.831542 72.000981 
L 296.897479 73.396453 
L 297.095289 70.272893 
L 297.161226 71.624855 
L 297.424972 67.682153 
L 297.556846 68.180692 
L 297.622782 70.636743 
L 297.820592 65.407093 
L 297.886529 65.866955 
L 298.018402 62.038196 
L 298.084339 63.094989 
L 298.216212 57.603671 
L 298.348086 51.208087 
L 298.479959 56.800934 
L 298.611832 53.136998 
L 298.677769 53.536919 
L 299.007452 44.443636 
L 299.073389 44.846686 
L 299.139326 47.405304 
L 299.271199 45.07241 
L 299.337136 44.769108 
L 299.534946 49.120156 
L 299.600882 47.856561 
L 299.732756 50.716742 
L 299.798692 48.583111 
L 299.864629 49.886082 
L 299.996502 48.090363 
L 300.128376 49.410903 
L 300.260249 49.359068 
L 300.326186 49.013433 
L 300.523996 53.668235 
L 300.853679 63.534276 
L 300.919616 63.493071 
L 301.513046 81.486131 
L 301.776792 94.400979 
L 301.842729 91.418566 
L 302.238349 107.618304 
L 302.304285 107.76032 
L 302.568032 111.321167 
L 302.963652 125.806686 
L 303.029589 125.143158 
L 303.095525 122.068458 
L 303.359272 132.37821 
L 303.491145 130.293635 
L 303.754892 143.342335 
L 303.820829 143.364624 
L 303.886765 142.883586 
L 304.018639 146.47464 
L 304.150512 140.944945 
L 304.282385 136.919711 
L 304.348322 138.763933 
L 304.414259 140.213315 
L 304.612069 133.945865 
L 304.678005 135.944995 
L 304.875815 123.874848 
L 304.941752 124.05281 
L 305.007689 127.675743 
L 305.139562 124.261304 
L 305.205499 125.134511 
L 305.337372 120.522581 
L 305.403309 123.423051 
L 305.469245 126.149825 
L 305.535182 125.700346 
L 305.732992 121.391372 
L 305.798929 125.074122 
L 305.864865 124.963727 
L 305.930802 121.621457 
L 305.996739 124.080298 
L 306.062675 120.950389 
L 306.128612 124.673725 
L 306.194549 122.8352 
L 306.260485 121.863195 
L 306.392359 114.051307 
L 306.458295 114.550841 
L 306.524232 116.872143 
L 306.656105 109.842591 
L 306.722042 111.294418 
L 306.853915 117.043494 
L 306.919852 115.330826 
L 306.985789 120.324387 
L 307.051725 117.993216 
L 307.117662 112.646333 
L 307.183599 114.102903 
L 307.447345 129.927304 
L 307.513282 128.299957 
L 307.579219 128.1022 
L 307.645155 127.550439 
L 307.711092 125.088431 
L 307.974839 137.058746 
L 308.106712 138.571888 
L 308.172648 134.237597 
L 308.238585 135.380615 
L 308.304522 135.62164 
L 308.436395 138.054024 
L 308.700142 129.943151 
L 308.766078 132.540211 
L 308.897952 128.191137 
L 309.095762 134.341427 
L 309.161698 133.654721 
L 309.293572 128.308885 
L 309.491382 135.120669 
L 309.557318 136.045762 
L 309.623255 134.13933 
L 309.689192 127.784001 
L 309.755128 130.329243 
L 309.821065 130.4815 
L 309.887002 133.482486 
L 310.150748 123.559019 
L 310.348558 125.948774 
L 310.480432 120.574417 
L 310.678242 112.447747 
L 310.744178 114.281588 
L 310.810115 111.760791 
L 310.876052 114.84268 
L 310.941988 114.468677 
L 311.073862 111.379515 
L 311.271672 116.263718 
L 311.337608 115.115062 
L 311.403545 116.40061 
L 311.469482 113.931718 
L 311.535418 114.691814 
L 311.601355 117.797371 
L 311.733228 112.09735 
L 311.996975 129.721153 
L 312.062912 128.930986 
L 312.260722 120.498906 
L 312.392595 131.957983 
L 312.458532 127.795782 
L 312.524468 134.108445 
L 312.590405 132.575353 
L 312.656342 133.206498 
L 313.183835 153.315689 
L 313.249772 152.117559 
L 313.315708 155.498534 
L 313.381645 154.26717 
L 313.447582 155.2371 
L 313.513518 158.692463 
L 313.645392 154.463889 
L 314.041012 172.399021 
L 314.106948 171.332698 
L 314.238821 176.419506 
L 314.304758 175.142835 
L 314.436631 176.001514 
L 314.502568 175.437938 
L 314.766315 168.703487 
L 314.832251 169.621963 
L 314.964125 176.243683 
L 315.095998 173.713631 
L 315.161935 175.254909 
L 315.227871 172.401512 
L 315.359745 181.759041 
L 315.425681 180.302121 
L 315.755365 172.279379 
L 315.887238 172.818726 
L 316.085048 176.97114 
L 316.150985 177.173348 
L 316.348795 181.616664 
L 316.480668 180.521999 
L 316.744415 174.104476 
L 316.876288 178.454741 
L 316.942225 178.431195 
L 317.008161 178.681057 
L 317.271908 181.57817 
L 317.337845 180.341824 
L 317.469718 184.121192 
L 317.535655 183.909585 
L 317.601591 184.362492 
L 317.799401 179.501812 
L 317.931275 184.534127 
L 318.063148 179.002788 
L 318.260958 182.148826 
L 318.326895 182.587442 
L 318.392831 184.207745 
L 318.458768 182.674354 
L 318.524705 186.874247 
L 318.590641 185.676072 
L 318.656578 186.343639 
L 318.788451 189.132283 
L 318.854388 188.212805 
L 318.920325 183.987739 
L 318.986261 187.322048 
L 319.052198 184.86237 
L 319.118135 187.145496 
L 319.381881 179.185414 
L 319.447818 180.721536 
L 319.645628 172.924839 
L 319.843438 180.206555 
L 320.041248 181.506022 
L 320.304994 178.582725 
L 320.370931 178.705416 
L 320.436868 181.52465 
L 320.502804 180.046179 
L 320.568741 178.340609 
L 320.634678 178.371963 
L 320.700614 177.919831 
L 320.766551 179.497248 
L 320.832488 174.850481 
L 320.898424 174.87195 
L 321.030298 172.577787 
L 321.096234 173.327859 
L 321.162171 176.703425 
L 321.228108 173.749238 
L 321.294044 174.047662 
L 321.359981 174.789013 
L 321.425918 174.031972 
L 321.557791 175.297828 
L 321.623728 178.386176 
L 321.689664 175.944134 
L 321.755601 179.123551 
L 321.821538 178.046282 
L 321.953411 179.880663 
L 322.019348 176.885487 
L 322.085284 179.381079 
L 322.217158 176.341179 
L 322.349031 177.208684 
L 322.810588 161.634585 
L 322.876524 162.291314 
L 323.008398 160.946973 
L 323.074334 164.414783 
L 323.140271 162.282481 
L 323.206208 164.772446 
L 323.338081 159.489379 
L 323.469954 154.278672 
L 323.733701 159.333333 
L 323.799638 157.911243 
L 323.931511 150.981531 
L 323.997448 153.01548 
L 324.063384 151.701559 
L 324.261194 157.344221 
L 324.524941 147.856431 
L 324.722751 146.06621 
L 324.788688 146.314662 
L 324.854624 144.534443 
L 324.986498 149.719506 
L 325.250244 142.882077 
L 325.316181 140.811806 
L 325.513991 151.077476 
L 325.975548 140.097843 
L 326.041484 139.120023 
L 326.107421 140.742301 
L 326.503041 122.437637 
L 326.568977 125.721917 
L 326.634914 124.877243 
L 326.700851 125.293436 
L 326.766787 126.700645 
L 327.030534 114.797232 
L 327.096471 117.56413 
L 327.162407 114.532718 
L 327.294281 120.242233 
L 327.360217 117.933897 
L 327.623964 110.407423 
L 327.689901 105.54456 
L 327.755837 106.31615 
L 327.821774 105.97003 
L 327.887711 107.525324 
L 328.019584 105.394564 
L 328.283331 91.41325 
L 328.349267 93.49694 
L 328.415204 92.655466 
L 328.481141 93.121588 
L 328.547077 93.064302 
L 328.678951 87.679435 
L 328.744887 88.126858 
L 328.810824 87.049282 
L 329.074571 91.763501 
L 329.470191 76.190033 
L 329.536127 76.295801 
L 329.602064 76.535237 
L 329.931747 66.620307 
L 330.063621 60.032684 
L 330.129557 60.621994 
L 330.195494 59.987237 
L 330.327367 61.104216 
L 330.393304 60.790596 
L 330.591114 56.870308 
L 330.854861 65.166838 
L 330.920797 65.431474 
L 331.052671 62.333752 
L 331.118607 62.367668 
L 331.448291 78.976815 
L 331.646101 82.584653 
L 331.712037 81.42451 
L 331.843911 83.282705 
L 332.107657 96.741522 
L 332.173594 96.969049 
L 332.23953 96.558556 
L 332.305467 97.973171 
L 332.371404 96.658312 
L 332.63515 104.803574 
L 332.964834 125.661269 
L 333.03077 127.709473 
L 333.22858 137.425442 
L 333.42639 136.19654 
L 333.492327 136.96523 
L 333.558264 139.541181 
L 333.6242 138.477574 
L 333.82201 143.989753 
L 334.01982 137.63101 
L 334.085757 139.287498 
L 334.151694 138.138061 
L 334.283567 142.419521 
L 334.349504 141.35522 
L 334.547314 144.789432 
L 334.745124 136.438255 
L 334.81106 137.018827 
L 335.074807 143.252899 
L 335.20668 151.26526 
L 335.272617 151.060543 
L 335.40449 152.990853 
L 335.470427 150.006195 
L 335.6023 156.435177 
L 335.668237 156.326789 
L 335.734174 153.522529 
L 335.80011 154.729625 
L 335.931984 156.016509 
L 335.99792 161.248112 
L 336.063857 159.472744 
L 336.261667 154.020609 
L 336.327604 154.466133 
L 336.39354 157.795539 
L 336.59135 149.828447 
L 336.657287 150.80322 
L 336.723224 153.963669 
L 336.921034 143.801958 
L 336.98697 144.832551 
L 337.118844 142.646908 
L 337.316654 136.903709 
L 337.448527 144.011257 
L 337.514464 142.930443 
L 337.712274 136.441155 
L 337.77821 136.789649 
L 337.97602 127.245297 
L 338.041957 128.903861 
L 338.17383 127.647863 
L 338.305703 120.128622 
L 338.37164 120.357754 
L 338.437577 120.991862 
L 338.503513 119.374255 
L 338.56945 120.403249 
L 338.635387 119.637151 
L 338.701323 114.380887 
L 338.76726 116.374202 
L 338.833197 116.350347 
L 338.899133 119.374397 
L 338.96507 117.82341 
L 339.16288 117.187705 
L 339.36069 122.278309 
L 339.426627 122.472656 
L 339.492563 122.249239 
L 339.624437 124.797196 
L 339.690373 121.794298 
L 339.75631 123.419403 
L 340.020057 133.189886 
L 340.15193 129.656272 
L 340.283803 134.70272 
L 340.54755 129.235311 
L 340.679423 131.425529 
L 340.94317 122.199627 
L 341.075043 128.255086 
L 341.14098 129.540703 
L 341.33879 118.577115 
L 341.404727 123.776747 
L 341.602537 121.674626 
L 341.73441 124.313303 
L 341.800347 119.960054 
L 341.866283 124.077207 
L 341.93222 122.882723 
L 341.998157 122.705139 
L 342.261903 114.664904 
L 342.459713 112.889464 
L 342.52565 109.055222 
L 342.591587 110.274635 
L 342.657523 111.725729 
L 342.92127 104.41137 
L 343.053143 102.599214 
L 343.185017 104.457203 
L 343.250953 100.446893 
L 343.31689 101.890495 
L 343.382827 100.093034 
L 343.448763 101.176497 
L 343.5147 100.956601 
L 343.646573 102.275555 
L 343.71251 98.290895 
L 343.778447 99.25742 
L 344.042193 109.960584 
L 344.10813 106.738353 
L 344.174066 107.301934 
L 344.371876 115.758851 
L 344.437813 115.030777 
L 344.50375 118.998196 
L 344.635623 114.756558 
L 344.70156 114.557051 
L 344.767496 118.615209 
L 344.833433 117.141592 
L 345.229053 128.416078 
L 345.29499 127.057055 
L 345.360926 125.05482 
L 345.558736 131.358061 
L 345.69061 126.285041 
L 345.954356 133.580724 
L 346.020293 132.92331 
L 346.48185 122.984325 
L 346.67966 110.603677 
L 346.745596 107.557821 
L 346.811533 109.410194 
L 346.87747 108.918764 
L 347.07528 94.526709 
L 347.141216 95.233271 
L 347.207153 93.811836 
L 347.27309 95.033162 
L 348.26214 65.36613 
L 348.328076 65.594318 
L 348.394013 66.675329 
L 348.525886 64.434372 
L 348.591823 65.52864 
L 348.65776 62.465903 
L 348.723696 62.538686 
L 348.85557 71.439363 
L 348.921506 69.613033 
L 349.119316 66.981013 
L 349.449 88.527115 
L 349.580873 87.572824 
L 349.64681 86.254063 
L 349.778683 92.367227 
L 349.910556 85.117199 
L 349.976493 85.512526 
L 350.108366 87.116949 
L 350.174303 86.110651 
L 350.240239 90.990748 
L 350.306176 89.615183 
L 350.372113 88.069473 
L 350.635859 100.468904 
L 350.701796 99.740606 
L 350.833669 101.439056 
L 350.899606 99.096365 
L 351.229289 113.124169 
L 351.295226 112.499017 
L 351.361163 113.999796 
L 351.558973 110.216292 
L 351.690846 115.308022 
L 351.756783 115.167694 
L 351.822719 116.126176 
L 351.888656 110.00799 
L 351.954593 111.298099 
L 352.020529 109.890699 
L 352.086466 105.986461 
L 352.218339 110.599422 
L 352.284276 110.721536 
L 352.350213 114.486415 
L 352.416149 114.111351 
L 352.482086 110.450195 
L 352.745833 119.658338 
L 352.943643 115.241198 
L 353.009579 116.024543 
L 353.075516 119.613144 
L 353.141453 117.945645 
L 353.273326 115.889242 
L 353.405199 117.211153 
L 353.603009 123.268589 
L 353.668946 120.259695 
L 353.734883 120.849554 
L 353.800819 119.807549 
L 353.866756 122.125096 
L 354.064566 116.757646 
L 354.130503 118.462328 
L 354.328313 112.770317 
L 354.460186 117.300773 
L 354.526123 117.281144 
L 354.592059 117.655592 
L 355.119553 103.709796 
L 355.251426 107.092419 
L 355.317363 106.556264 
L 355.383299 103.831462 
L 355.515173 109.717538 
L 355.581109 108.728342 
L 355.647046 109.408604 
L 355.712983 109.383579 
L 355.976729 103.013406 
L 356.042666 108.387938 
L 356.108602 105.784691 
L 356.174539 105.440933 
L 356.372349 116.092345 
L 356.438286 115.556939 
L 356.504222 114.717873 
L 356.636096 108.073472 
L 356.702032 109.48624 
L 356.767969 108.628338 
L 356.899842 112.268151 
L 356.965779 115.870061 
L 357.031716 114.518186 
L 357.097652 109.816672 
L 357.163589 113.16871 
L 357.229526 112.67727 
L 357.361399 114.410605 
L 357.427336 113.745255 
L 357.493272 115.713376 
L 357.625146 112.314931 
L 357.691082 111.977341 
L 357.757019 113.082761 
L 357.954829 119.365956 
L 358.020766 118.372542 
L 358.086702 120.673713 
L 358.152639 118.668963 
L 358.284512 124.290184 
L 358.350449 122.148332 
L 358.416386 122.237351 
L 358.614196 127.599864 
L 358.680132 128.124094 
L 358.746069 120.839334 
L 358.812006 123.356823 
L 358.877942 124.097195 
L 359.141689 107.880912 
L 359.471372 123.913888 
L 359.537309 123.30386 
L 359.669182 118.324293 
L 359.735119 119.1414 
L 359.801056 121.76667 
L 359.866992 116.270196 
L 359.932929 118.66698 
L 359.998866 117.660789 
L 360.262612 127.9718 
L 360.394486 126.328109 
L 360.658232 109.837651 
L 360.724169 112.281487 
L 360.856042 117.358515 
L 360.987916 113.66239 
L 361.053852 112.836908 
L 361.119789 114.956842 
L 361.185726 112.933562 
L 361.251662 113.39215 
L 361.383536 111.46925 
L 361.449472 113.221227 
L 361.515409 112.196894 
L 361.581346 109.631271 
L 361.647282 110.294113 
L 361.779156 115.06165 
L 361.845092 121.053448 
L 361.911029 118.823532 
L 362.240712 108.17504 
L 362.306649 109.172385 
L 362.504459 103.276456 
L 362.702269 113.225847 
L 362.966015 102.85549 
L 363.031952 104.218482 
L 363.097889 102.805797 
L 363.163825 103.361885 
L 363.295699 104.097338 
L 363.361635 108.488816 
L 363.427572 106.604405 
L 363.559445 101.603587 
L 363.625382 102.145834 
L 363.691319 99.793795 
L 363.757255 100.923262 
L 363.955065 104.882909 
L 364.218812 111.330113 
L 364.284749 110.218521 
L 364.416622 113.802569 
L 364.482559 112.033795 
L 364.548495 106.518598 
L 364.614432 107.167259 
L 364.680369 108.375522 
L 364.812242 104.941269 
L 365.141925 117.46315 
L 365.207862 116.530652 
L 365.339735 109.62761 
L 365.405672 111.389019 
L 365.537545 110.207365 
L 365.735355 119.35617 
L 365.801292 120.822181 
L 365.999102 135.851258 
L 366.065039 131.724224 
L 366.130975 135.587297 
L 366.196912 133.923386 
L 366.328785 126.525295 
L 366.526595 136.23517 
L 366.856279 122.420952 
L 367.120025 130.261486 
L 367.185962 128.710501 
L 367.251899 131.133993 
L 367.317835 130.545261 
L 367.383772 130.404754 
L 367.647519 137.017633 
L 367.713455 135.350914 
L 367.779392 130.087186 
L 367.845329 133.223942 
L 367.977202 140.434388 
L 368.043138 139.800031 
L 368.109075 137.666592 
L 368.240948 141.923721 
L 368.504695 137.534777 
L 368.702505 122.347105 
L 368.768442 124.118077 
L 368.900315 118.315868 
L 368.966252 117.169202 
L 369.032188 119.827436 
L 369.229998 114.290774 
L 369.361872 119.197659 
L 369.493745 115.9635 
L 369.559682 116.433452 
L 369.757492 107.504644 
L 369.955302 100.930141 
L 370.021238 101.295377 
L 370.219048 95.520787 
L 370.416858 87.917109 
L 370.482795 88.843258 
L 370.680605 79.440272 
L 370.746542 82.636737 
L 370.812478 82.076112 
L 371.010288 71.688184 
L 371.142162 68.50113 
L 371.208098 69.301442 
L 371.274035 69.209701 
L 371.405908 73.081605 
L 371.471845 71.635198 
L 371.603718 75.403876 
L 371.801528 79.856469 
L 371.867465 79.384549 
L 372.065275 70.552527 
L 372.131212 72.889692 
L 372.197148 74.145975 
L 372.263085 73.52058 
L 372.329022 73.004973 
L 372.460895 76.624594 
L 372.592768 74.169402 
L 372.658705 76.814866 
L 372.724642 75.836066 
L 372.790578 76.126553 
L 372.856515 75.985333 
L 372.922452 77.939948 
L 372.988388 76.894468 
L 373.054325 75.970589 
L 373.120262 72.924089 
L 373.186198 74.700061 
L 373.252135 73.257609 
L 373.515882 58.856505 
L 373.581818 59.354636 
L 373.581818 59.354636 
" style="fill:none;stroke:#1f77b4;stroke-linecap:square;stroke-width:1.5;"/>
   </g>
   <g id="patch_3">
    <path d="M 54 252 
L 54 34.56 
" style="fill:none;stroke:#000000;stroke-linecap:square;stroke-linejoin:miter;stroke-width:0.8;"/>
   </g>
   <g id="patch_4">
    <path d="M 388.8 252 
L 388.8 34.56 
" style="fill:none;stroke:#000000;stroke-linecap:square;stroke-linejoin:miter;stroke-width:0.8;"/>
   </g>
   <g id="patch_5">
    <path d="M 54 252 
L 388.8 252 
" style="fill:none;stroke:#000000;stroke-linecap:square;stroke-linejoin:miter;stroke-width:0.8;"/>
   </g>
   <g id="patch_6">
    <path d="M 54 34.56 
L 388.8 34.56 
" style="fill:none;stroke:#000000;stroke-linecap:square;stroke-linejoin:miter;stroke-width:0.8;"/>
   </g>
  </g>
 </g>
 <defs>
  <clipPath id="pe3b558f11b">
   <rect height="217.44" width="334.8" x="54" y="34.56"/>
  </clipPath>
 </defs>
</svg>
