<?xml version="1.0" encoding="utf-8" standalone="no"?>
<!DOCTYPE svg PUBLIC "-//W3C//DTD SVG 1.1//EN"
  "http://www.w3.org/Graphics/SVG/1.1/DTD/svg11.dtd">
<!-- Created with matplotlib (https://matplotlib.org/) -->
<svg height="288pt" version="1.1" viewBox="0 0 432 288" width="432pt" xmlns="http://www.w3.org/2000/svg" xmlns:xlink="http://www.w3.org/1999/xlink">
 <defs>
  <style type="text/css">
*{stroke-linecap:butt;stroke-linejoin:round;}
  </style>
 </defs>
 <g id="figure_1">
  <g id="patch_1">
   <path d="M 0 288 
L 432 288 
L 432 0 
L 0 0 
z
" style="fill:#ffffff;"/>
  </g>
  <g id="axes_1">
   <g id="patch_2">
    <path d="M 54 252 
L 388.8 252 
L 388.8 34.56 
L 54 34.56 
z
" style="fill:#ffffff;"/>
   </g>
   <g id="matplotlib.axis_1">
    <g id="xtick_1">
     <g id="line2d_1">
      <defs>
       <path d="M 0 0 
L 0 3.5 
" id="m9f93e78257" style="stroke:#000000;stroke-width:0.8;"/>
      </defs>
      <g>
       <use style="stroke:#000000;stroke-width:0.8;" x="69.218182" xlink:href="#m9f93e78257" y="252"/>
      </g>
     </g>
     <g id="text_1">
      <!-- 0 -->
      <defs>
       <path d="M 31.78125 66.40625 
Q 24.171875 66.40625 20.328125 58.90625 
Q 16.5 51.421875 16.5 36.375 
Q 16.5 21.390625 20.328125 13.890625 
Q 24.171875 6.390625 31.78125 6.390625 
Q 39.453125 6.390625 43.28125 13.890625 
Q 47.125 21.390625 47.125 36.375 
Q 47.125 51.421875 43.28125 58.90625 
Q 39.453125 66.40625 31.78125 66.40625 
z
M 31.78125 74.21875 
Q 44.046875 74.21875 50.515625 64.515625 
Q 56.984375 54.828125 56.984375 36.375 
Q 56.984375 17.96875 50.515625 8.265625 
Q 44.046875 -1.421875 31.78125 -1.421875 
Q 19.53125 -1.421875 13.0625 8.265625 
Q 6.59375 17.96875 6.59375 36.375 
Q 6.59375 54.828125 13.0625 64.515625 
Q 19.53125 74.21875 31.78125 74.21875 
z
" id="DejaVuSans-48"/>
      </defs>
      <g transform="translate(66.036932 266.598437)scale(0.1 -0.1)">
       <use xlink:href="#DejaVuSans-48"/>
      </g>
     </g>
    </g>
    <g id="xtick_2">
     <g id="line2d_2">
      <g>
       <use style="stroke:#000000;stroke-width:0.8;" x="134.588379" xlink:href="#m9f93e78257" y="252"/>
      </g>
     </g>
     <g id="text_2">
      <!-- 1000 -->
      <defs>
       <path d="M 12.40625 8.296875 
L 28.515625 8.296875 
L 28.515625 63.921875 
L 10.984375 60.40625 
L 10.984375 69.390625 
L 28.421875 72.90625 
L 38.28125 72.90625 
L 38.28125 8.296875 
L 54.390625 8.296875 
L 54.390625 0 
L 12.40625 0 
z
" id="DejaVuSans-49"/>
      </defs>
      <g transform="translate(121.863379 266.598437)scale(0.1 -0.1)">
       <use xlink:href="#DejaVuSans-49"/>
       <use x="63.623047" xlink:href="#DejaVuSans-48"/>
       <use x="127.246094" xlink:href="#DejaVuSans-48"/>
       <use x="190.869141" xlink:href="#DejaVuSans-48"/>
      </g>
     </g>
    </g>
    <g id="xtick_3">
     <g id="line2d_3">
      <g>
       <use style="stroke:#000000;stroke-width:0.8;" x="199.958575" xlink:href="#m9f93e78257" y="252"/>
      </g>
     </g>
     <g id="text_3">
      <!-- 2000 -->
      <defs>
       <path d="M 19.1875 8.296875 
L 53.609375 8.296875 
L 53.609375 0 
L 7.328125 0 
L 7.328125 8.296875 
Q 12.9375 14.109375 22.625 23.890625 
Q 32.328125 33.6875 34.8125 36.53125 
Q 39.546875 41.84375 41.421875 45.53125 
Q 43.3125 49.21875 43.3125 52.78125 
Q 43.3125 58.59375 39.234375 62.25 
Q 35.15625 65.921875 28.609375 65.921875 
Q 23.96875 65.921875 18.8125 64.3125 
Q 13.671875 62.703125 7.8125 59.421875 
L 7.8125 69.390625 
Q 13.765625 71.78125 18.9375 73 
Q 24.125 74.21875 28.421875 74.21875 
Q 39.75 74.21875 46.484375 68.546875 
Q 53.21875 62.890625 53.21875 53.421875 
Q 53.21875 48.921875 51.53125 44.890625 
Q 49.859375 40.875 45.40625 35.40625 
Q 44.1875 33.984375 37.640625 27.21875 
Q 31.109375 20.453125 19.1875 8.296875 
z
" id="DejaVuSans-50"/>
      </defs>
      <g transform="translate(187.233575 266.598437)scale(0.1 -0.1)">
       <use xlink:href="#DejaVuSans-50"/>
       <use x="63.623047" xlink:href="#DejaVuSans-48"/>
       <use x="127.246094" xlink:href="#DejaVuSans-48"/>
       <use x="190.869141" xlink:href="#DejaVuSans-48"/>
      </g>
     </g>
    </g>
    <g id="xtick_4">
     <g id="line2d_4">
      <g>
       <use style="stroke:#000000;stroke-width:0.8;" x="265.328772" xlink:href="#m9f93e78257" y="252"/>
      </g>
     </g>
     <g id="text_4">
      <!-- 3000 -->
      <defs>
       <path d="M 40.578125 39.3125 
Q 47.65625 37.796875 51.625 33 
Q 55.609375 28.21875 55.609375 21.1875 
Q 55.609375 10.40625 48.1875 4.484375 
Q 40.765625 -1.421875 27.09375 -1.421875 
Q 22.515625 -1.421875 17.65625 -0.515625 
Q 12.796875 0.390625 7.625 2.203125 
L 7.625 11.71875 
Q 11.71875 9.328125 16.59375 8.109375 
Q 21.484375 6.890625 26.8125 6.890625 
Q 36.078125 6.890625 40.9375 10.546875 
Q 45.796875 14.203125 45.796875 21.1875 
Q 45.796875 27.640625 41.28125 31.265625 
Q 36.765625 34.90625 28.71875 34.90625 
L 20.21875 34.90625 
L 20.21875 43.015625 
L 29.109375 43.015625 
Q 36.375 43.015625 40.234375 45.921875 
Q 44.09375 48.828125 44.09375 54.296875 
Q 44.09375 59.90625 40.109375 62.90625 
Q 36.140625 65.921875 28.71875 65.921875 
Q 24.65625 65.921875 20.015625 65.03125 
Q 15.375 64.15625 9.8125 62.3125 
L 9.8125 71.09375 
Q 15.4375 72.65625 20.34375 73.4375 
Q 25.25 74.21875 29.59375 74.21875 
Q 40.828125 74.21875 47.359375 69.109375 
Q 53.90625 64.015625 53.90625 55.328125 
Q 53.90625 49.265625 50.4375 45.09375 
Q 46.96875 40.921875 40.578125 39.3125 
z
" id="DejaVuSans-51"/>
      </defs>
      <g transform="translate(252.603772 266.598437)scale(0.1 -0.1)">
       <use xlink:href="#DejaVuSans-51"/>
       <use x="63.623047" xlink:href="#DejaVuSans-48"/>
       <use x="127.246094" xlink:href="#DejaVuSans-48"/>
       <use x="190.869141" xlink:href="#DejaVuSans-48"/>
      </g>
     </g>
    </g>
    <g id="xtick_5">
     <g id="line2d_5">
      <g>
       <use style="stroke:#000000;stroke-width:0.8;" x="330.698969" xlink:href="#m9f93e78257" y="252"/>
      </g>
     </g>
     <g id="text_5">
      <!-- 4000 -->
      <defs>
       <path d="M 37.796875 64.3125 
L 12.890625 25.390625 
L 37.796875 25.390625 
z
M 35.203125 72.90625 
L 47.609375 72.90625 
L 47.609375 25.390625 
L 58.015625 25.390625 
L 58.015625 17.1875 
L 47.609375 17.1875 
L 47.609375 0 
L 37.796875 0 
L 37.796875 17.1875 
L 4.890625 17.1875 
L 4.890625 26.703125 
z
" id="DejaVuSans-52"/>
      </defs>
      <g transform="translate(317.973969 266.598437)scale(0.1 -0.1)">
       <use xlink:href="#DejaVuSans-52"/>
       <use x="63.623047" xlink:href="#DejaVuSans-48"/>
       <use x="127.246094" xlink:href="#DejaVuSans-48"/>
       <use x="190.869141" xlink:href="#DejaVuSans-48"/>
      </g>
     </g>
    </g>
   </g>
   <g id="matplotlib.axis_2">
    <g id="ytick_1">
     <g id="line2d_6">
      <defs>
       <path d="M 0 0 
L -3.5 0 
" id="m7519f1d65f" style="stroke:#000000;stroke-width:0.8;"/>
      </defs>
      <g>
       <use style="stroke:#000000;stroke-width:0.8;" x="54" xlink:href="#m7519f1d65f" y="218.092817"/>
      </g>
     </g>
     <g id="text_6">
      <!-- 3 -->
      <g transform="translate(40.6375 221.892036)scale(0.1 -0.1)">
       <use xlink:href="#DejaVuSans-51"/>
      </g>
     </g>
    </g>
    <g id="ytick_2">
     <g id="line2d_7">
      <g>
       <use style="stroke:#000000;stroke-width:0.8;" x="54" xlink:href="#m7519f1d65f" y="173.83919"/>
      </g>
     </g>
     <g id="text_7">
      <!-- 4 -->
      <g transform="translate(40.6375 177.638409)scale(0.1 -0.1)">
       <use xlink:href="#DejaVuSans-52"/>
      </g>
     </g>
    </g>
    <g id="ytick_3">
     <g id="line2d_8">
      <g>
       <use style="stroke:#000000;stroke-width:0.8;" x="54" xlink:href="#m7519f1d65f" y="129.585564"/>
      </g>
     </g>
     <g id="text_8">
      <!-- 5 -->
      <defs>
       <path d="M 10.796875 72.90625 
L 49.515625 72.90625 
L 49.515625 64.59375 
L 19.828125 64.59375 
L 19.828125 46.734375 
Q 21.96875 47.46875 24.109375 47.828125 
Q 26.265625 48.1875 28.421875 48.1875 
Q 40.625 48.1875 47.75 41.5 
Q 54.890625 34.8125 54.890625 23.390625 
Q 54.890625 11.625 47.5625 5.09375 
Q 40.234375 -1.421875 26.90625 -1.421875 
Q 22.3125 -1.421875 17.546875 -0.640625 
Q 12.796875 0.140625 7.71875 1.703125 
L 7.71875 11.625 
Q 12.109375 9.234375 16.796875 8.0625 
Q 21.484375 6.890625 26.703125 6.890625 
Q 35.15625 6.890625 40.078125 11.328125 
Q 45.015625 15.765625 45.015625 23.390625 
Q 45.015625 31 40.078125 35.4375 
Q 35.15625 39.890625 26.703125 39.890625 
Q 22.75 39.890625 18.8125 39.015625 
Q 14.890625 38.140625 10.796875 36.28125 
z
" id="DejaVuSans-53"/>
      </defs>
      <g transform="translate(40.6375 133.384783)scale(0.1 -0.1)">
       <use xlink:href="#DejaVuSans-53"/>
      </g>
     </g>
    </g>
    <g id="ytick_4">
     <g id="line2d_9">
      <g>
       <use style="stroke:#000000;stroke-width:0.8;" x="54" xlink:href="#m7519f1d65f" y="85.331937"/>
      </g>
     </g>
     <g id="text_9">
      <!-- 6 -->
      <defs>
       <path d="M 33.015625 40.375 
Q 26.375 40.375 22.484375 35.828125 
Q 18.609375 31.296875 18.609375 23.390625 
Q 18.609375 15.53125 22.484375 10.953125 
Q 26.375 6.390625 33.015625 6.390625 
Q 39.65625 6.390625 43.53125 10.953125 
Q 47.40625 15.53125 47.40625 23.390625 
Q 47.40625 31.296875 43.53125 35.828125 
Q 39.65625 40.375 33.015625 40.375 
z
M 52.59375 71.296875 
L 52.59375 62.3125 
Q 48.875 64.0625 45.09375 64.984375 
Q 41.3125 65.921875 37.59375 65.921875 
Q 27.828125 65.921875 22.671875 59.328125 
Q 17.53125 52.734375 16.796875 39.40625 
Q 19.671875 43.65625 24.015625 45.921875 
Q 28.375 48.1875 33.59375 48.1875 
Q 44.578125 48.1875 50.953125 41.515625 
Q 57.328125 34.859375 57.328125 23.390625 
Q 57.328125 12.15625 50.6875 5.359375 
Q 44.046875 -1.421875 33.015625 -1.421875 
Q 20.359375 -1.421875 13.671875 8.265625 
Q 6.984375 17.96875 6.984375 36.375 
Q 6.984375 53.65625 15.1875 63.9375 
Q 23.390625 74.21875 37.203125 74.21875 
Q 40.921875 74.21875 44.703125 73.484375 
Q 48.484375 72.75 52.59375 71.296875 
z
" id="DejaVuSans-54"/>
      </defs>
      <g transform="translate(40.6375 89.131156)scale(0.1 -0.1)">
       <use xlink:href="#DejaVuSans-54"/>
      </g>
     </g>
    </g>
    <g id="ytick_5">
     <g id="line2d_10">
      <g>
       <use style="stroke:#000000;stroke-width:0.8;" x="54" xlink:href="#m7519f1d65f" y="41.078311"/>
      </g>
     </g>
     <g id="text_10">
      <!-- 7 -->
      <defs>
       <path d="M 8.203125 72.90625 
L 55.078125 72.90625 
L 55.078125 68.703125 
L 28.609375 0 
L 18.3125 0 
L 43.21875 64.59375 
L 8.203125 64.59375 
z
" id="DejaVuSans-55"/>
      </defs>
      <g transform="translate(40.6375 44.87753)scale(0.1 -0.1)">
       <use xlink:href="#DejaVuSans-55"/>
      </g>
     </g>
    </g>
   </g>
   <g id="line2d_11">
    <path clip-path="url(#p5bb66f2219)" d="M 69.218182 163.413415 
L 69.283552 53.476332 
L 69.348922 160.273465 
L 69.414292 67.567569 
L 69.479663 166.965004 
L 69.545033 146.698245 
L 69.610403 156.1728 
L 69.806514 205.280009 
L 70.067994 138.700545 
L 70.133365 228.118492 
L 70.198735 182.489338 
L 70.394845 89.14037 
L 70.460216 200.292747 
L 70.525586 164.884629 
L 70.590956 184.458321 
L 70.787067 108.845135 
L 70.983177 162.683431 
L 71.048547 155.803081 
L 71.113918 179.916857 
L 71.310028 128.430882 
L 71.375398 161.475757 
L 71.440769 134.113063 
L 71.506139 152.330057 
L 71.571509 148.154345 
L 71.636879 174.931976 
L 71.702249 94.29205 
L 71.767619 102.866344 
L 71.83299 139.11217 
L 71.89836 95.528631 
L 71.96373 154.236103 
L 72.0291 107.531256 
L 72.09447 110.337616 
L 72.159841 175.680396 
L 72.225211 94.157313 
L 72.421321 205.890256 
L 72.486692 95.810045 
L 72.552062 133.607033 
L 72.748172 176.975808 
L 72.813543 158.637178 
L 72.878913 171.32264 
L 72.944283 88.154858 
L 73.009653 177.925723 
L 73.075023 138.219153 
L 73.271134 75.36879 
L 73.336504 126.675258 
L 73.401874 120.713748 
L 73.467245 133.285944 
L 73.532615 89.368102 
L 73.663355 169.457243 
L 73.728725 140.365212 
L 73.794096 140.217381 
L 73.859466 194.864286 
L 73.924836 106.941785 
L 73.990206 129.575056 
L 74.120947 230.260469 
L 74.186317 185.134242 
L 74.251687 145.288463 
L 74.317057 145.3965 
L 74.382427 152.420605 
L 74.513168 80.812457 
L 74.578538 155.432013 
L 74.643908 148.194965 
L 74.709278 153.400708 
L 74.774649 111.311427 
L 74.905389 182.226882 
L 74.970759 92.169138 
L 75.036129 136.730672 
L 75.1015 205.19469 
L 75.16687 114.739888 
L 75.23224 149.412426 
L 75.29761 157.312786 
L 75.428351 102.684753 
L 75.493721 110.3937 
L 75.559091 187.856997 
L 75.624461 102.261509 
L 75.689831 186.015792 
L 75.755201 134.955007 
L 75.820572 195.812502 
L 75.885942 161.91412 
L 75.951312 184.769928 
L 76.016682 83.895699 
L 76.082052 147.001497 
L 76.147423 167.49923 
L 76.212793 81.348757 
L 76.278163 103.358105 
L 76.343533 186.300674 
L 76.408903 106.84108 
L 76.474274 143.104681 
L 76.539644 134.771723 
L 76.605014 84.521107 
L 76.670384 158.860065 
L 76.735754 133.657623 
L 76.801125 164.423642 
L 76.866495 122.96336 
L 76.931865 163.091591 
L 76.997235 131.867965 
L 77.193346 206.531953 
L 77.258716 55.680389 
L 77.324086 192.065701 
L 77.389456 127.615943 
L 77.585567 239.153192 
L 77.650937 112.5489 
L 77.716307 176.09661 
L 77.781678 187.109483 
L 77.912418 92.552139 
L 77.977788 106.62134 
L 78.173899 221.956248 
L 78.43538 86.72466 
L 78.50075 185.592862 
L 78.56612 144.444415 
L 78.63149 209.901595 
L 78.69686 87.290649 
L 78.762231 139.835797 
L 78.827601 129.060387 
L 78.958341 179.161911 
L 79.089082 92.763421 
L 79.154452 148.782195 
L 79.219822 86.091798 
L 79.285192 119.616112 
L 79.350562 174.88622 
L 79.415933 112.315111 
L 79.481303 176.681806 
L 79.546673 174.446478 
L 79.612043 160.011786 
L 79.677413 186.338187 
L 79.742784 151.274045 
L 79.808154 185.824741 
L 79.873524 101.159856 
L 79.938894 214.387595 
L 80.004264 135.257026 
L 80.069634 196.002516 
L 80.135005 92.343916 
L 80.200375 154.302516 
L 80.265745 153.027507 
L 80.331115 100.256475 
L 80.527226 198.89728 
L 80.657966 122.667206 
L 80.723336 167.266069 
L 80.788707 160.287327 
L 80.854077 170.00683 
L 80.919447 149.575324 
L 80.984817 89.679072 
L 81.050187 180.088706 
L 81.115558 151.153041 
L 81.180928 166.015917 
L 81.246298 140.701787 
L 81.442409 183.004576 
L 81.507779 144.177617 
L 81.573149 197.488882 
L 81.638519 77.128953 
L 81.703889 110.472889 
L 81.76926 84.372401 
L 81.83463 162.883316 
L 81.9 138.808458 
L 81.96537 153.802422 
L 82.03074 211.358833 
L 82.096111 197.921409 
L 82.226851 134.439378 
L 82.357591 227.777676 
L 82.553702 129.421468 
L 82.684442 240.321523 
L 82.749813 173.431017 
L 82.815183 182.744411 
L 82.945923 141.290364 
L 83.076664 222.859045 
L 83.142034 144.631244 
L 83.207404 158.093322 
L 83.272774 187.385124 
L 83.338144 122.921944 
L 83.403515 242.116364 
L 83.468885 137.574444 
L 83.534255 180.549921 
L 83.599625 110.86883 
L 83.664995 192.997105 
L 83.730366 155.309439 
L 83.926476 83.803133 
L 83.991846 122.167836 
L 84.057216 104.052562 
L 84.122587 126.129338 
L 84.187957 84.094065 
L 84.253327 110.033597 
L 84.318697 91.029687 
L 84.449438 204.175467 
L 84.580178 93.996743 
L 84.710918 168.771347 
L 84.776289 77.500107 
L 84.841659 136.583428 
L 84.972399 86.56887 
L 85.10314 119.605354 
L 85.16851 191.834788 
L 85.23388 178.299654 
L 85.29925 103.645588 
L 85.36462 149.471484 
L 85.429991 126.350957 
L 85.495361 147.977395 
L 85.560731 135.192055 
L 85.626101 104.378668 
L 85.887582 191.944805 
L 86.083693 114.854887 
L 86.149063 102.461808 
L 86.345173 134.537361 
L 86.410544 67.140305 
L 86.541284 184.790265 
L 86.606654 80.083403 
L 86.737395 182.375315 
L 86.802765 144.443651 
L 86.868135 191.615554 
L 86.933505 119.578453 
L 86.998875 201.738189 
L 87.194986 92.05898 
L 87.325726 191.131721 
L 87.456467 78.328879 
L 87.652577 164.437309 
L 87.783318 120.146413 
L 87.848688 150.926801 
L 87.914058 145.234704 
L 88.044799 137.618028 
L 88.110169 141.280607 
L 88.175539 128.579529 
L 88.240909 160.957859 
L 88.306279 147.705492 
L 88.371649 92.802785 
L 88.43702 137.756794 
L 88.50239 86.675195 
L 88.56776 118.546057 
L 88.63313 122.838071 
L 88.763871 52.72488 
L 88.894611 193.634417 
L 88.959981 93.862082 
L 89.025351 189.113461 
L 89.090722 138.480334 
L 89.156092 152.41824 
L 89.221462 108.224168 
L 89.286832 115.808827 
L 89.352202 209.113536 
L 89.482943 82.519106 
L 89.548313 134.628934 
L 89.613683 111.032578 
L 89.679053 115.690899 
L 89.744424 190.934258 
L 89.809794 180.916574 
L 89.875164 138.400041 
L 89.940534 194.094085 
L 90.136645 115.701632 
L 90.202015 158.047448 
L 90.332755 109.292222 
L 90.398126 118.12821 
L 90.463496 152.835087 
L 90.528866 131.121925 
L 90.659606 77.662403 
L 90.724977 160.787755 
L 90.790347 103.346954 
L 90.855717 70.634686 
L 90.921087 128.926583 
L 90.986457 118.961652 
L 91.051828 70.520725 
L 91.117198 182.419043 
L 91.182568 132.560603 
L 91.247938 76.518364 
L 91.313308 149.471861 
L 91.378679 136.412439 
L 91.574789 94.024549 
L 91.7709 148.15353 
L 91.83627 74.18656 
L 91.90164 135.863995 
L 91.96701 101.193746 
L 92.032381 114.735536 
L 92.163121 182.076062 
L 92.228491 66.054954 
L 92.293861 135.12299 
L 92.359231 135.073854 
L 92.424602 142.52512 
L 92.489972 165.116032 
L 92.555342 153.808283 
L 92.620712 120.105523 
L 92.751453 161.150736 
L 92.816823 85.291663 
L 92.882193 230.138871 
L 92.947563 203.471908 
L 93.143674 107.846673 
L 93.339784 226.947121 
L 93.405155 130.38511 
L 93.470525 137.204405 
L 93.535895 107.589171 
L 93.601265 185.770864 
L 93.666635 124.961102 
L 93.732006 186.062475 
L 93.862746 99.784299 
L 93.993486 142.833686 
L 94.058857 85.602215 
L 94.124227 133.85742 
L 94.189597 89.059406 
L 94.254967 190.006681 
L 94.320337 158.774355 
L 94.385708 157.076464 
L 94.451078 87.889459 
L 94.516448 160.239746 
L 94.581818 62.000419 
L 94.647188 185.252971 
L 94.712559 134.926761 
L 94.777929 132.611588 
L 94.843299 103.153961 
L 95.03941 154.55889 
L 95.10478 104.49753 
L 95.23552 163.740773 
L 95.30089 141.396788 
L 95.366261 177.546472 
L 95.562371 113.510405 
L 95.627741 107.863938 
L 95.693112 75.775495 
L 95.823852 143.793586 
L 95.889222 121.104641 
L 95.954592 157.683609 
L 96.019963 91.815555 
L 96.085333 102.214044 
L 96.150703 193.550443 
L 96.216073 135.105622 
L 96.281443 109.382767 
L 96.412184 135.4317 
L 96.542924 58.550163 
L 96.608294 160.064962 
L 96.673664 105.451234 
L 96.739035 168.29647 
L 96.804405 84.331801 
L 96.869775 188.897783 
L 96.935145 137.255525 
L 97.000515 177.61057 
L 97.065886 99.013175 
L 97.131256 178.512529 
L 97.196626 91.977417 
L 97.261996 144.20484 
L 97.327366 146.369194 
L 97.392737 180.137356 
L 97.523477 94.338481 
L 97.654217 185.428103 
L 97.719588 91.789578 
L 97.784958 93.976937 
L 97.850328 139.602197 
L 97.915698 59.608405 
L 97.981068 90.148629 
L 98.046439 91.430747 
L 98.111809 150.31007 
L 98.177179 135.118697 
L 98.242549 114.488455 
L 98.307919 153.573589 
L 98.43866 98.703558 
L 98.5694 144.108198 
L 98.63477 193.491319 
L 98.700141 115.900128 
L 98.765511 123.796562 
L 98.830881 143.76772 
L 98.896251 126.517274 
L 98.961621 129.368029 
L 99.026992 197.425721 
L 99.157732 86.657915 
L 99.223102 97.846464 
L 99.288472 151.357978 
L 99.353843 149.571471 
L 99.419213 84.899242 
L 99.549953 227.205023 
L 99.615323 217.591755 
L 99.680694 76.23628 
L 99.746064 151.938079 
L 99.811434 84.795001 
L 99.876804 117.94791 
L 99.942174 72.492531 
L 100.007545 160.01626 
L 100.072915 100.421093 
L 100.138285 90.575985 
L 100.203655 150.873364 
L 100.269025 92.634797 
L 100.334396 105.705196 
L 100.399766 141.686181 
L 100.465136 95.450338 
L 100.530506 96.237842 
L 100.595876 149.14757 
L 100.661246 139.916584 
L 100.726617 152.558771 
L 100.857357 84.58739 
L 100.922727 171.910329 
L 100.988097 99.996717 
L 101.053468 125.237186 
L 101.118838 109.184746 
L 101.184208 61.782653 
L 101.314948 166.295023 
L 101.380319 145.380738 
L 101.445689 141.71159 
L 101.511059 75.481373 
L 101.576429 169.877435 
L 101.641799 120.585704 
L 101.70717 123.176231 
L 101.90328 170.936353 
L 101.96865 183.787041 
L 102.164761 119.050742 
L 102.230131 175.298376 
L 102.295501 173.759441 
L 102.426242 119.240037 
L 102.491612 108.070442 
L 102.622352 161.237352 
L 102.687723 212.580242 
L 102.753093 83.837663 
L 102.818463 176.330397 
L 102.949203 68.279986 
L 103.014574 140.821089 
L 103.079944 65.625353 
L 103.145314 89.198758 
L 103.210684 81.993356 
L 103.276054 235.49715 
L 103.341425 182.926692 
L 103.472165 91.464916 
L 103.668276 162.438337 
L 103.733646 162.009189 
L 103.929756 202.306299 
L 104.060497 99.665268 
L 104.125867 226.225078 
L 104.191237 168.191487 
L 104.256607 157.602732 
L 104.387348 206.123852 
L 104.452718 112.525897 
L 104.518088 126.520792 
L 104.583458 184.997955 
L 104.714199 69.237975 
L 104.844939 151.32359 
L 104.975679 94.928024 
L 105.04105 223.064945 
L 105.10642 98.841452 
L 105.17179 162.462001 
L 105.23716 185.482164 
L 105.30253 82.50437 
L 105.367901 146.0941 
L 105.433271 170.410906 
L 105.498641 72.90826 
L 105.564011 137.296532 
L 105.629381 143.031217 
L 105.760122 137.080486 
L 105.825492 147.025475 
L 105.890862 62.446603 
L 105.956232 98.771509 
L 106.021603 102.052889 
L 106.217713 229.679952 
L 106.283083 146.886859 
L 106.348454 173.080056 
L 106.413824 166.455838 
L 106.479194 177.669073 
L 106.544564 158.186205 
L 106.609934 227.140422 
L 106.675305 124.828644 
L 106.740675 180.351555 
L 107.002156 52.783832 
L 107.132896 216.219242 
L 107.198266 102.773308 
L 107.263636 176.465081 
L 107.459747 119.456836 
L 107.525117 152.787102 
L 107.590487 126.731074 
L 107.655858 141.726611 
L 107.851968 184.930532 
L 107.917338 97.053656 
L 107.982709 195.666287 
L 108.113449 69.250371 
L 108.178819 74.306918 
L 108.244189 66.065936 
L 108.30956 236.520051 
L 108.37493 158.056947 
L 108.4403 197.53437 
L 108.701781 101.543859 
L 108.963261 241.848065 
L 109.028632 123.436871 
L 109.094002 208.496069 
L 109.224742 98.851604 
L 109.355483 233.383245 
L 109.486223 117.560623 
L 109.551593 142.867129 
L 109.682334 111.536915 
L 109.747704 214.98607 
L 109.813074 107.309678 
L 109.878444 214.481065 
L 110.009185 95.853775 
L 110.074555 149.422354 
L 110.139925 113.658797 
L 110.205295 68.310422 
L 110.270665 188.161249 
L 110.336036 129.061847 
L 110.401406 123.784366 
L 110.466776 206.63342 
L 110.532146 168.567468 
L 110.597516 87.699011 
L 110.662887 150.506041 
L 110.728257 104.081047 
L 110.793627 136.610552 
L 110.858997 128.742812 
L 110.989738 98.837758 
L 111.055108 180.732444 
L 111.120478 117.497611 
L 111.185848 142.570425 
L 111.381959 79.870012 
L 111.578069 163.19068 
L 111.64344 78.559566 
L 111.70881 215.496964 
L 111.77418 88.471661 
L 111.83955 138.511613 
L 111.90492 186.865806 
L 111.970291 158.856243 
L 112.035661 73.002984 
L 112.166401 227.620145 
L 112.231771 71.486775 
L 112.297142 110.116916 
L 112.362512 104.573411 
L 112.493252 119.089598 
L 112.558622 144.945246 
L 112.623993 92.714099 
L 112.754733 166.907592 
L 112.885473 72.402923 
L 112.950843 132.977293 
L 113.016214 121.172046 
L 113.081584 100.19025 
L 113.277694 141.666009 
L 113.343065 125.678384 
L 113.408435 152.028611 
L 113.473805 122.162767 
L 113.539175 178.839909 
L 113.604545 107.325847 
L 113.669916 187.273411 
L 113.735286 182.356677 
L 113.800656 166.76516 
L 113.866026 116.543168 
L 113.996767 173.214825 
L 114.062137 68.430393 
L 114.127507 158.807456 
L 114.192877 68.10264 
L 114.258247 104.18538 
L 114.323618 181.515777 
L 114.454358 75.032506 
L 114.585098 170.189546 
L 114.650469 152.481139 
L 114.715839 99.405834 
L 114.781209 209.988308 
L 114.911949 100.288258 
L 114.97732 189.401959 
L 115.04269 112.808669 
L 115.10806 150.554557 
L 115.2388 134.074121 
L 115.304171 89.055513 
L 115.369541 178.857325 
L 115.434911 157.989592 
L 115.500281 73.512739 
L 115.565651 126.287007 
L 115.631022 146.663135 
L 115.696392 142.629081 
L 115.957873 176.883841 
L 116.023243 91.922171 
L 116.088613 95.043638 
L 116.219353 161.92533 
L 116.350094 161.589176 
L 116.415464 139.143412 
L 116.480834 188.926447 
L 116.546204 162.548464 
L 116.611575 164.847912 
L 116.742315 91.188011 
L 116.807685 97.833833 
L 116.873055 140.500433 
L 117.003796 72.473197 
L 117.330647 173.922016 
L 117.396017 98.559866 
L 117.461387 188.512622 
L 117.526757 131.355056 
L 117.592127 168.524875 
L 117.657498 147.151539 
L 117.722868 110.516238 
L 117.788238 174.061025 
L 117.853608 67.932977 
L 117.918978 142.081346 
L 117.984349 89.05061 
L 118.049719 105.691245 
L 118.180459 164.970519 
L 118.245829 68.799674 
L 118.3112 169.850455 
L 118.37657 98.42403 
L 118.44194 162.079505 
L 118.50731 113.878927 
L 118.57268 122.223408 
L 118.638051 183.493161 
L 118.703421 149.215421 
L 118.768791 136.89306 
L 118.899531 162.201044 
L 118.964902 87.373617 
L 119.030272 97.79972 
L 119.095642 95.719474 
L 119.161012 128.816667 
L 119.226382 104.508526 
L 119.291753 124.142461 
L 119.357123 118.971189 
L 119.422493 72.888863 
L 119.487863 193.470012 
L 119.553233 132.163828 
L 119.618604 97.461252 
L 119.683974 183.136171 
L 119.749344 152.36722 
L 119.880084 174.850887 
L 120.010825 101.856107 
L 120.076195 125.436 
L 120.141565 117.390176 
L 120.206935 62.275423 
L 120.272306 131.80432 
L 120.337676 70.531237 
L 120.468416 150.964161 
L 120.533786 145.825017 
L 120.729897 69.349563 
L 120.795267 66.827842 
L 120.991378 180.684065 
L 121.056748 179.805923 
L 121.252858 102.81357 
L 121.383599 172.022314 
L 121.448969 90.730978 
L 121.514339 168.258392 
L 121.579709 155.875978 
L 121.64508 134.848449 
L 121.71045 137.841108 
L 121.77582 131.203444 
L 121.84119 135.607997 
L 121.90656 166.226863 
L 121.971931 118.493121 
L 122.037301 178.113266 
L 122.102671 160.983235 
L 122.168041 87.508067 
L 122.233411 99.810344 
L 122.429522 170.261739 
L 122.625633 88.20795 
L 122.691003 101.401302 
L 122.756373 54.891409 
L 122.821743 195.867738 
L 122.887113 144.317206 
L 123.017854 102.764731 
L 123.083224 132.629297 
L 123.148594 104.578079 
L 123.213964 179.120138 
L 123.279335 128.046413 
L 123.344705 151.389727 
L 123.475445 123.365383 
L 123.606186 154.710401 
L 123.671556 142.101257 
L 123.736926 95.741905 
L 123.802296 132.750968 
L 123.867666 103.572322 
L 123.998407 175.794455 
L 124.063777 157.265085 
L 124.129147 187.154849 
L 124.259888 95.298294 
L 124.325258 114.190238 
L 124.455998 148.622251 
L 124.521368 65.612664 
L 124.586739 83.077608 
L 124.717479 226.003805 
L 124.848219 129.560255 
L 124.91359 126.022587 
L 124.97896 184.57758 
L 125.04433 107.094165 
L 125.1097 122.861945 
L 125.17507 166.437105 
L 125.24044 100.742157 
L 125.305811 130.817118 
L 125.436551 171.566997 
L 125.501921 132.825912 
L 125.567291 134.730469 
L 125.632662 144.717565 
L 125.698032 126.035262 
L 125.828772 156.925517 
L 125.894142 147.386673 
L 125.959513 194.821579 
L 126.024883 123.179548 
L 126.090253 165.301628 
L 126.220993 96.401958 
L 126.286364 138.349842 
L 126.351734 135.968142 
L 126.417104 148.63854 
L 126.482474 138.611201 
L 126.547844 147.613994 
L 126.613215 114.366564 
L 126.743955 200.335368 
L 126.809325 133.223938 
L 126.874695 139.039897 
L 126.940066 158.138189 
L 127.005436 96.761669 
L 127.070806 109.708445 
L 127.266917 176.034091 
L 127.332287 77.189985 
L 127.397657 136.662587 
L 127.463027 131.340644 
L 127.528397 166.779319 
L 127.593768 92.856253 
L 127.659138 122.719775 
L 127.724508 163.718967 
L 127.789878 109.603488 
L 127.855248 175.090759 
L 127.920619 166.432858 
L 127.985989 76.627503 
L 128.051359 81.24146 
L 128.116729 176.390683 
L 128.182099 72.749701 
L 128.24747 149.770708 
L 128.31284 83.390845 
L 128.37821 122.611083 
L 128.44358 213.485532 
L 128.574321 120.931881 
L 128.770431 180.186827 
L 128.835801 143.180265 
L 128.901172 155.860397 
L 128.966542 157.398259 
L 129.031912 140.109634 
L 129.097282 182.903243 
L 129.162652 157.180255 
L 129.228022 150.598636 
L 129.293393 115.766679 
L 129.358763 140.971072 
L 129.489503 97.861926 
L 129.554873 156.133323 
L 129.620244 108.080398 
L 129.750984 187.036107 
L 129.816354 100.062766 
L 129.881724 102.396264 
L 129.947095 171.690511 
L 130.012465 146.639235 
L 130.208575 92.172931 
L 130.273946 100.620596 
L 130.339316 134.96128 
L 130.404686 117.966479 
L 130.470056 101.897519 
L 130.600797 208.718152 
L 130.731537 87.236409 
L 130.927648 196.443255 
L 131.123758 115.693843 
L 131.254499 166.239088 
L 131.319869 135.314142 
L 131.385239 206.640917 
L 131.450609 131.492057 
L 131.515979 148.807624 
L 131.58135 143.072237 
L 131.64672 114.946087 
L 131.71209 175.125506 
L 131.77746 152.96208 
L 131.84283 171.589674 
L 131.908201 113.254354 
L 131.973571 115.38749 
L 132.038941 188.074875 
L 132.104311 149.141201 
L 132.169681 185.885701 
L 132.235052 158.207215 
L 132.300422 83.426491 
L 132.365792 141.105033 
L 132.431162 120.229752 
L 132.496532 106.786476 
L 132.692643 144.070125 
L 132.758013 150.134803 
L 132.823383 69.877941 
L 132.954124 142.001478 
L 133.019494 132.67844 
L 133.084864 162.034114 
L 133.215604 124.067446 
L 133.280975 151.665833 
L 133.346345 99.795019 
L 133.411715 128.944142 
L 133.477085 124.525871 
L 133.542455 65.778572 
L 133.738566 190.287942 
L 133.869306 82.999398 
L 133.934677 158.134197 
L 134.000047 147.05501 
L 134.065417 118.307708 
L 134.130787 155.394041 
L 134.196157 123.412929 
L 134.261528 149.122648 
L 134.326898 117.673015 
L 134.392268 174.698659 
L 134.457638 128.271037 
L 134.523008 145.888373 
L 134.588379 129.100653 
L 134.653749 188.860759 
L 134.719119 126.708866 
L 134.784489 133.869854 
L 134.849859 156.581227 
L 134.91523 121.852535 
L 134.9806 144.38098 
L 135.11134 157.798992 
L 135.17671 77.733783 
L 135.242081 141.80481 
L 135.307451 129.098923 
L 135.438191 76.055831 
L 135.503561 92.360617 
L 135.568932 59.956062 
L 135.634302 178.860745 
L 135.699672 115.477402 
L 135.765042 102.806357 
L 135.830412 146.045157 
L 135.895783 110.039414 
L 135.961153 163.644917 
L 136.026523 66.322758 
L 136.091893 162.352188 
L 136.157263 126.17701 
L 136.222634 130.711711 
L 136.288004 143.092476 
L 136.418744 88.864892 
L 136.484114 180.17019 
L 136.549485 145.710084 
L 136.614855 109.897538 
L 136.680225 119.595494 
L 136.745595 167.269169 
L 136.810965 100.16105 
L 136.876336 108.07767 
L 136.941706 180.650371 
L 137.007076 139.078914 
L 137.137816 178.380617 
L 137.203187 164.01474 
L 137.268557 72.322191 
L 137.333927 141.79779 
L 137.399297 138.820449 
L 137.464667 161.695321 
L 137.530037 155.894494 
L 137.595408 147.14609 
L 137.660778 170.208097 
L 137.726148 136.114602 
L 137.791518 205.632743 
L 137.856888 131.861199 
L 137.922259 158.932084 
L 137.987629 158.947572 
L 138.052999 159.983268 
L 138.118369 81.431924 
L 138.183739 179.487126 
L 138.24911 147.216831 
L 138.31448 75.063905 
L 138.37985 96.761395 
L 138.44522 173.53669 
L 138.51059 135.332887 
L 138.575961 166.055408 
L 138.641331 133.915992 
L 138.772071 180.423668 
L 138.837441 119.199774 
L 138.902812 128.264299 
L 138.968182 125.197573 
L 139.033552 74.998239 
L 139.164292 174.633249 
L 139.229663 168.436536 
L 139.360403 134.600061 
L 139.425773 144.453132 
L 139.491143 128.453509 
L 139.556514 170.564135 
L 139.621884 153.729083 
L 139.687254 154.467197 
L 139.752624 182.307679 
L 139.817994 100.623429 
L 139.883365 140.706012 
L 139.948735 114.553271 
L 140.144845 147.358774 
L 140.210216 119.217532 
L 140.406326 173.673076 
L 140.471696 136.360637 
L 140.537067 141.247226 
L 140.602437 156.643624 
L 140.667807 129.341086 
L 140.733177 145.268504 
L 140.798547 155.192948 
L 140.863918 184.172442 
L 140.994658 92.837139 
L 141.060028 177.454931 
L 141.125398 143.995917 
L 141.256139 171.363609 
L 141.321509 133.841942 
L 141.386879 191.732156 
L 141.517619 72.067234 
L 141.64836 201.434275 
L 141.71373 125.960973 
L 141.7791 163.063835 
L 141.84447 182.229579 
L 141.975211 152.69504 
L 142.040581 171.588903 
L 142.105951 169.340863 
L 142.171321 168.869446 
L 142.236692 162.417294 
L 142.367432 127.105434 
L 142.498172 159.778186 
L 142.563543 158.744868 
L 142.628913 128.978448 
L 142.759653 179.652346 
L 142.825023 87.554172 
L 142.890394 135.387565 
L 142.955764 92.273418 
L 143.021134 176.667473 
L 143.086504 95.339263 
L 143.151874 107.802037 
L 143.282615 173.041838 
L 143.347985 151.785024 
L 143.413355 150.902557 
L 143.478725 109.954366 
L 143.609466 185.772646 
L 143.674836 171.706313 
L 143.740206 97.213082 
L 143.805576 187.246763 
L 143.870947 130.941001 
L 143.936317 213.674306 
L 144.001687 100.373029 
L 144.067057 127.445624 
L 144.132427 132.180781 
L 144.263168 214.699397 
L 144.328538 66.349754 
L 144.393908 101.302435 
L 144.524649 186.351698 
L 144.590019 76.613007 
L 144.655389 164.600027 
L 144.720759 99.432717 
L 144.786129 118.451656 
L 144.8515 130.005939 
L 144.98224 174.021837 
L 145.11298 44.443636 
L 145.178351 184.029949 
L 145.243721 105.529407 
L 145.374461 152.090934 
L 145.505201 120.791098 
L 145.570572 142.429959 
L 145.635942 59.533158 
L 145.766682 164.532396 
L 145.832052 172.550607 
L 145.897423 86.426721 
L 145.962793 135.841599 
L 146.028163 134.828538 
L 146.093533 164.270581 
L 146.158903 102.773838 
L 146.224274 159.739501 
L 146.289644 150.754811 
L 146.355014 54.658279 
L 146.420384 101.180305 
L 146.485754 181.12816 
L 146.551125 108.040818 
L 146.616495 165.221724 
L 146.681865 109.302616 
L 146.747235 130.703797 
L 146.812605 99.031221 
L 146.877976 129.026887 
L 146.943346 93.260795 
L 147.008716 192.82163 
L 147.074086 116.283953 
L 147.139456 144.585295 
L 147.204827 155.65561 
L 147.335567 130.022844 
L 147.400937 182.298103 
L 147.466307 146.761317 
L 147.531678 98.2108 
L 147.597048 188.170225 
L 147.662418 153.186606 
L 147.793158 85.543949 
L 147.923899 128.371093 
L 148.054639 91.442982 
L 148.18538 173.877871 
L 148.25075 117.300295 
L 148.31612 120.010953 
L 148.38149 175.579887 
L 148.44686 173.064031 
L 148.708341 92.321303 
L 148.839082 179.174371 
L 148.904452 116.365461 
L 148.969822 149.034722 
L 149.100562 193.648932 
L 149.296673 76.251447 
L 149.362043 144.586829 
L 149.427413 125.580916 
L 149.492784 110.863536 
L 149.558154 154.509682 
L 149.688894 94.50083 
L 149.754264 128.057061 
L 149.819634 121.959151 
L 149.885005 118.861123 
L 149.950375 64.163716 
L 150.081115 172.735242 
L 150.211856 91.826316 
L 150.407966 171.230469 
L 150.538707 152.200264 
L 150.604077 106.880601 
L 150.669447 140.493711 
L 150.734817 105.483291 
L 150.930928 171.093708 
L 150.996298 116.628208 
L 151.061668 195.268123 
L 151.127038 85.460703 
L 151.192409 102.64448 
L 151.257779 155.405341 
L 151.323149 129.452118 
L 151.388519 152.463609 
L 151.453889 102.474858 
L 151.51926 136.21158 
L 151.58463 186.363738 
L 151.65 149.322118 
L 151.71537 167.575504 
L 151.78074 173.686369 
L 151.976851 83.234412 
L 152.238332 181.248339 
L 152.303702 145.43055 
L 152.369072 174.760029 
L 152.434442 92.665529 
L 152.499813 120.660681 
L 152.565183 160.02621 
L 152.695923 93.86341 
L 152.761293 96.977998 
L 152.826664 134.463513 
L 152.892034 102.671811 
L 153.088144 175.185615 
L 153.153515 132.174743 
L 153.218885 148.41042 
L 153.284255 191.833585 
L 153.349625 93.998002 
L 153.480366 214.726505 
L 153.545736 202.001316 
L 153.676476 98.349173 
L 153.807216 171.23407 
L 153.872587 113.637299 
L 153.937957 115.356055 
L 154.003327 173.39932 
L 154.068697 112.904167 
L 154.134067 145.958952 
L 154.199438 125.254657 
L 154.264808 134.655989 
L 154.330178 158.450551 
L 154.526289 101.246704 
L 154.591659 171.591767 
L 154.657029 99.588614 
L 154.722399 147.902035 
L 154.787769 161.141621 
L 154.85314 127.972938 
L 154.91851 173.400366 
L 154.98388 76.575841 
L 155.04925 150.198079 
L 155.11462 115.788599 
L 155.179991 90.673092 
L 155.245361 98.142731 
L 155.441471 159.983395 
L 155.572212 60.934908 
L 155.702952 163.855763 
L 155.768322 103.21895 
L 155.833693 142.862583 
L 155.899063 190.034618 
L 155.964433 143.397988 
L 156.029803 166.10004 
L 156.160544 108.194439 
L 156.225914 183.567709 
L 156.291284 135.489949 
L 156.356654 143.211572 
L 156.422024 81.808572 
L 156.487395 103.264862 
L 156.683505 158.041401 
L 156.748875 136.940426 
L 156.814246 138.506686 
L 156.879616 141.103727 
L 156.944986 139.47845 
L 157.010356 117.276307 
L 157.075726 166.156369 
L 157.141097 89.077429 
L 157.271837 178.79369 
L 157.402577 88.988238 
L 157.533318 154.430189 
L 157.598688 94.723081 
L 157.664058 115.231211 
L 157.794799 164.027632 
L 157.860169 101.657383 
L 157.925539 109.680066 
L 158.056279 173.606023 
L 158.18702 130.481712 
L 158.25239 135.948237 
L 158.38313 121.029503 
L 158.4485 122.44271 
L 158.579241 170.527058 
L 158.644611 87.702167 
L 158.709981 138.446554 
L 158.775351 165.5072 
L 158.840722 119.67339 
L 158.906092 138.183299 
L 159.036832 74.968648 
L 159.102202 82.948049 
L 159.232943 139.047316 
L 159.298313 130.724246 
L 159.429053 188.204865 
L 159.625164 103.601585 
L 159.755904 174.623815 
L 159.821275 89.521604 
L 159.886645 115.242975 
L 159.952015 160.449565 
L 160.082755 85.482742 
L 160.148126 144.595659 
L 160.213496 100.52815 
L 160.278866 136.616974 
L 160.344236 65.822759 
L 160.409606 154.930145 
L 160.474977 151.868442 
L 160.671087 82.276464 
L 160.736457 185.406266 
L 160.801828 136.574716 
L 160.867198 201.109415 
L 160.932568 68.72642 
L 160.997938 140.598751 
L 161.063308 157.70231 
L 161.128679 137.454307 
L 161.194049 147.521669 
L 161.259419 151.59551 
L 161.324789 169.052827 
L 161.5209 53.749059 
L 161.65164 163.219349 
L 161.71701 98.817134 
L 161.782381 116.272716 
L 161.913121 155.912294 
L 161.978491 123.246604 
L 162.043861 166.959558 
L 162.109231 73.267849 
L 162.174602 111.267899 
L 162.239972 151.010077 
L 162.305342 94.232958 
L 162.370712 192.257461 
L 162.436082 164.621514 
L 162.632193 210.058202 
L 162.828304 91.284528 
L 162.893674 183.093295 
L 162.959044 63.920688 
L 163.024414 202.843273 
L 163.089784 193.778221 
L 163.155155 128.14547 
L 163.220525 144.703303 
L 163.285895 119.824996 
L 163.351265 125.460955 
L 163.416635 147.989593 
L 163.482006 95.480341 
L 163.547376 127.158543 
L 163.612746 119.175551 
L 163.678116 75.956683 
L 163.808857 179.581219 
L 163.874227 162.349907 
L 163.939597 179.695622 
L 164.004967 98.995108 
L 164.070337 141.109605 
L 164.135708 155.303898 
L 164.201078 130.575994 
L 164.331818 198.231035 
L 164.593299 77.019107 
L 164.658669 103.740528 
L 164.724039 183.876457 
L 164.78941 91.111662 
L 164.85478 175.957514 
L 164.92015 97.382459 
L 164.98552 166.84044 
L 165.05089 105.353851 
L 165.116261 184.440089 
L 165.181631 126.255129 
L 165.247001 130.104024 
L 165.312371 124.496323 
L 165.377741 89.761435 
L 165.508482 143.252723 
L 165.573852 149.931362 
L 165.639222 145.136864 
L 165.704592 104.824973 
L 165.769963 195.990012 
L 165.835333 185.213764 
L 165.900703 120.716186 
L 165.966073 169.620053 
L 166.031443 152.249069 
L 166.096813 102.733901 
L 166.292924 192.172491 
L 166.358294 115.500562 
L 166.423664 151.567342 
L 166.489035 152.725467 
L 166.554405 137.498422 
L 166.619775 139.806647 
L 166.685145 147.829183 
L 166.750515 133.524228 
L 166.815886 80.171566 
L 166.881256 140.941722 
L 166.946626 135.586933 
L 167.077366 128.586518 
L 167.208107 149.630367 
L 167.338847 100.082296 
L 167.404217 155.420031 
L 167.469588 113.622674 
L 167.534958 171.793458 
L 167.600328 169.102531 
L 167.665698 175.946474 
L 167.796439 97.511315 
L 167.861809 171.941082 
L 167.927179 131.294893 
L 167.992549 136.141538 
L 168.25403 108.807986 
L 168.38477 167.027473 
L 168.450141 194.883154 
L 168.646251 122.199393 
L 168.711621 114.404876 
L 168.776992 162.255944 
L 168.842362 100.513382 
L 168.973102 166.894878 
L 169.038472 93.826452 
L 169.103843 129.810206 
L 169.169213 126.223947 
L 169.234583 136.598791 
L 169.299953 177.054433 
L 169.496064 70.708231 
L 169.561434 144.356635 
L 169.626804 139.932168 
L 169.692174 103.688605 
L 169.757545 179.83213 
L 169.822915 92.177821 
L 169.953655 206.410507 
L 170.280506 110.011215 
L 170.345876 182.133184 
L 170.411246 138.155548 
L 170.476617 137.062862 
L 170.541987 211.969855 
L 170.672727 120.041154 
L 170.738097 137.359695 
L 170.803468 195.905931 
L 170.999578 67.493999 
L 171.064948 154.383199 
L 171.130319 144.540596 
L 171.195689 118.165159 
L 171.261059 127.009349 
L 171.45717 147.093756 
L 171.58791 79.422045 
L 171.65328 176.528882 
L 171.71865 158.84173 
L 171.784021 160.807953 
L 171.849391 119.577881 
L 171.914761 143.646766 
L 171.980131 167.719138 
L 172.045501 136.728671 
L 172.110872 203.553555 
L 172.176242 190.229392 
L 172.241612 182.189498 
L 172.372352 122.811878 
L 172.437723 172.305097 
L 172.503093 143.560849 
L 172.568463 139.490656 
L 172.699203 176.970311 
L 172.764574 158.312426 
L 172.829944 162.35907 
L 172.895314 194.6572 
L 173.026054 87.503836 
L 173.156795 165.206844 
L 173.222165 130.476903 
L 173.287535 91.389873 
L 173.483646 191.578677 
L 173.549016 54.10684 
L 173.614386 164.064984 
L 173.679756 132.387991 
L 173.745127 142.058408 
L 173.810497 185.029562 
L 173.875867 167.546898 
L 173.941237 51.778877 
L 174.006607 140.39194 
L 174.071978 97.684194 
L 174.202718 54.73928 
L 174.268088 150.745669 
L 174.333458 143.977149 
L 174.398828 81.939046 
L 174.464199 170.249439 
L 174.529569 163.059183 
L 174.594939 72.261561 
L 174.660309 91.008219 
L 174.725679 88.041955 
L 174.85642 181.814643 
L 174.98716 66.65286 
L 175.05253 87.138544 
L 175.117901 149.714741 
L 175.183271 128.134614 
L 175.248641 94.101316 
L 175.314011 147.937845 
L 175.379381 104.037935 
L 175.444752 131.220358 
L 175.510122 108.280736 
L 175.640862 160.157 
L 175.706232 138.720738 
L 175.771603 150.148171 
L 175.836973 169.802981 
L 176.033083 84.042579 
L 176.098454 93.953139 
L 176.163824 156.163189 
L 176.229194 119.560638 
L 176.425305 206.857229 
L 176.490675 101.517886 
L 176.556045 129.66259 
L 176.621415 216.038252 
L 176.817526 72.020179 
L 176.882896 203.632003 
L 176.948266 163.140325 
L 177.013636 167.227598 
L 177.079007 94.272753 
L 177.144377 137.511306 
L 177.275117 79.537311 
L 177.471228 153.804738 
L 177.601968 120.859298 
L 177.667338 148.043413 
L 177.732709 79.583422 
L 177.798079 162.814973 
L 177.863449 115.522627 
L 177.928819 180.237022 
L 177.994189 141.279613 
L 178.05956 97.952354 
L 178.12493 124.319855 
L 178.1903 160.491195 
L 178.25567 150.134846 
L 178.38641 137.68264 
L 178.451781 169.585844 
L 178.517151 119.037616 
L 178.582521 143.575365 
L 178.647891 128.486956 
L 178.713261 156.54235 
L 178.844002 110.635075 
L 178.909372 162.351782 
L 179.105483 98.867535 
L 179.170853 165.396914 
L 179.236223 129.977755 
L 179.366963 105.962859 
L 179.432334 163.016389 
L 179.497704 144.172681 
L 179.563074 164.552412 
L 179.693814 131.014237 
L 179.889925 176.038538 
L 179.955295 183.347231 
L 180.020665 122.524332 
L 180.086036 173.622062 
L 180.216776 106.161135 
L 180.347516 120.191277 
L 180.412887 189.62363 
L 180.478257 160.808478 
L 180.543627 120.483431 
L 180.608997 162.710442 
L 180.674367 87.840998 
L 180.739738 187.3237 
L 180.805108 131.453546 
L 180.870478 211.334679 
L 180.935848 95.815965 
L 181.001218 109.375303 
L 181.066589 87.20323 
L 181.131959 88.761621 
L 181.197329 124.318297 
L 181.262699 69.554365 
L 181.328069 84.817842 
L 181.58955 220.028473 
L 181.65492 112.484505 
L 181.720291 178.111979 
L 181.916401 125.748935 
L 182.047142 196.279339 
L 182.177882 106.24629 
L 182.243252 158.825738 
L 182.308622 65.106667 
L 182.373993 126.081113 
L 182.439363 84.183339 
L 182.504733 143.926749 
L 182.570103 124.512612 
L 182.635473 147.924481 
L 182.700843 90.117783 
L 182.766214 140.905273 
L 182.831584 53.365646 
L 182.896954 155.555764 
L 182.962324 112.616457 
L 183.027694 126.891692 
L 183.093065 171.250888 
L 183.158435 170.682062 
L 183.223805 94.066471 
L 183.289175 123.053229 
L 183.354545 162.204753 
L 183.419916 145.773564 
L 183.681396 51.622551 
L 183.812137 187.615639 
L 183.877507 100.057372 
L 183.942877 189.092212 
L 184.073618 76.633141 
L 184.138988 140.588492 
L 184.204358 137.018226 
L 184.269728 114.726502 
L 184.400469 161.007944 
L 184.465839 83.218997 
L 184.531209 149.097902 
L 184.596579 133.743056 
L 184.661949 166.636945 
L 184.72732 63.894977 
L 184.79269 92.400051 
L 184.85806 87.847439 
L 184.9888 157.249713 
L 185.054171 97.828776 
L 185.119541 122.184211 
L 185.184911 111.124657 
L 185.315651 205.000621 
L 185.511762 151.971544 
L 185.577132 173.572142 
L 185.642502 172.087737 
L 185.707873 101.969243 
L 185.773243 123.721655 
L 185.838613 85.197809 
L 185.969353 158.259404 
L 186.034724 111.111217 
L 186.296204 214.42059 
L 186.492315 104.638675 
L 186.557685 117.987384 
L 186.623055 98.707347 
L 186.688425 119.003568 
L 186.753796 105.587989 
L 186.819166 89.761405 
L 186.949906 167.512863 
L 187.015276 166.797261 
L 187.146017 109.401697 
L 187.211387 112.099853 
L 187.276757 109.418301 
L 187.472868 175.981597 
L 187.538238 181.54354 
L 187.603608 164.231514 
L 187.668978 98.394177 
L 187.734349 132.394752 
L 187.865089 95.667506 
L 187.995829 173.655611 
L 188.0612 112.023911 
L 188.12657 200.147679 
L 188.19194 161.898473 
L 188.25731 95.544762 
L 188.32268 172.249125 
L 188.388051 87.468703 
L 188.453421 88.415079 
L 188.518791 184.513745 
L 188.584161 117.491865 
L 188.649531 184.88438 
L 188.714902 79.112329 
L 188.780272 145.31706 
L 188.845642 166.926078 
L 188.911012 49.296153 
L 188.976382 171.146374 
L 189.041753 66.018571 
L 189.107123 120.229775 
L 189.172493 121.825256 
L 189.237863 146.817483 
L 189.368604 83.839172 
L 189.499344 186.445697 
L 189.630084 107.306467 
L 189.695455 149.860204 
L 189.760825 85.50755 
L 189.826195 110.969904 
L 189.891565 149.130243 
L 189.956935 87.957817 
L 190.087676 203.728708 
L 190.218416 141.836641 
L 190.414527 193.432921 
L 190.479897 87.615025 
L 190.545267 132.383125 
L 190.676007 91.66485 
L 190.806748 142.077801 
L 190.872118 95.320002 
L 190.937488 127.992128 
L 191.002858 136.344729 
L 191.068229 125.894397 
L 191.133599 62.126403 
L 191.198969 156.96512 
L 191.264339 102.246996 
L 191.329709 167.599305 
L 191.39508 127.084533 
L 191.46045 161.779443 
L 191.52582 88.556453 
L 191.65656 187.565947 
L 191.721931 75.023438 
L 191.852671 182.058399 
L 191.918041 103.250267 
L 191.983411 156.641604 
L 192.048782 93.689064 
L 192.114152 122.680793 
L 192.179522 168.314104 
L 192.244892 145.037015 
L 192.310262 100.909751 
L 192.375633 179.213637 
L 192.441003 111.865533 
L 192.506373 163.049789 
L 192.571743 122.385216 
L 192.637113 158.51424 
L 192.702484 151.784725 
L 192.767854 142.225564 
L 192.833224 144.448997 
L 192.898594 154.094268 
L 192.963964 124.438291 
L 193.029335 178.247541 
L 193.094705 166.495468 
L 193.160075 165.737801 
L 193.225445 127.699995 
L 193.290815 152.385843 
L 193.356186 156.805365 
L 193.486926 86.625187 
L 193.552296 150.753918 
L 193.617666 121.588099 
L 193.748407 80.319874 
L 193.813777 166.968094 
L 193.879147 160.812815 
L 193.944517 85.239731 
L 194.009888 112.315615 
L 194.075258 156.631638 
L 194.140628 154.098304 
L 194.205998 122.778418 
L 194.271368 194.131272 
L 194.336739 154.704925 
L 194.402109 99.380121 
L 194.467479 131.42022 
L 194.532849 129.706874 
L 194.598219 135.545158 
L 194.66359 104.322599 
L 194.72896 189.255143 
L 194.79433 110.160797 
L 194.8597 156.022491 
L 195.055811 113.098576 
L 195.121181 175.988424 
L 195.186551 164.581146 
L 195.251921 159.846903 
L 195.317291 133.057485 
L 195.382662 143.804217 
L 195.513402 196.236655 
L 195.644142 182.311173 
L 195.709513 121.245644 
L 195.774883 190.809542 
L 195.840253 143.717772 
L 195.905623 101.241187 
L 196.036364 194.240676 
L 196.232474 144.673166 
L 196.297844 154.220911 
L 196.363215 100.62677 
L 196.428585 151.398302 
L 196.493955 117.961978 
L 196.559325 106.296363 
L 196.690066 169.438369 
L 196.755436 166.298847 
L 196.820806 165.679528 
L 196.886176 119.579609 
L 196.951546 135.585668 
L 197.016917 161.960482 
L 197.147657 98.823444 
L 197.213027 121.405942 
L 197.278397 174.698774 
L 197.409138 84.497223 
L 197.474508 170.565155 
L 197.539878 122.172891 
L 197.605248 143.217997 
L 197.670619 217.910803 
L 197.735989 128.977937 
L 197.801359 156.586834 
L 197.866729 180.9822 
L 197.932099 120.253154 
L 198.06284 206.659451 
L 198.12821 127.052543 
L 198.19358 166.786328 
L 198.25895 124.584853 
L 198.324321 137.771173 
L 198.389691 170.625601 
L 198.455061 134.248001 
L 198.520431 215.065958 
L 198.585801 124.425344 
L 198.651172 154.3372 
L 198.781912 88.476171 
L 198.847282 166.633928 
L 198.912652 151.714532 
L 198.978022 142.738129 
L 199.108763 190.463642 
L 199.239503 141.960124 
L 199.304873 143.981491 
L 199.370244 169.088843 
L 199.566354 93.390773 
L 199.762465 160.201139 
L 199.893205 158.013626 
L 199.958575 130.039536 
L 200.023946 176.597268 
L 200.154686 115.433427 
L 200.220056 137.477213 
L 200.285426 107.365543 
L 200.350797 150.563627 
L 200.416167 124.629784 
L 200.612277 168.834361 
L 200.743018 147.330108 
L 200.808388 54.808399 
L 200.873758 114.811286 
L 200.939128 147.531852 
L 201.004499 143.667568 
L 201.069869 90.466291 
L 201.135239 115.304771 
L 201.200609 114.664032 
L 201.265979 101.578309 
L 201.46209 182.930568 
L 201.52746 158.552501 
L 201.658201 83.190789 
L 201.723571 86.224554 
L 201.788941 185.100449 
L 201.854311 117.062684 
L 201.919681 168.008583 
L 201.985052 157.65877 
L 202.050422 78.913044 
L 202.115792 135.962315 
L 202.181162 121.988582 
L 202.377273 172.229047 
L 202.573383 89.369931 
L 202.769494 173.37459 
L 202.900234 87.85161 
L 202.965604 115.080307 
L 203.030975 138.473489 
L 203.096345 65.483793 
L 203.161715 153.788244 
L 203.227085 105.551699 
L 203.292455 99.548203 
L 203.357826 64.046145 
L 203.423196 154.780019 
L 203.488566 120.548715 
L 203.553936 91.870751 
L 203.619306 98.708422 
L 203.750047 189.902749 
L 203.946157 94.239281 
L 204.011528 137.318538 
L 204.076898 93.325924 
L 204.273008 186.76676 
L 204.403749 105.211082 
L 204.534489 163.971109 
L 204.66523 75.565333 
L 204.79597 173.041944 
L 204.86134 84.270485 
L 204.92671 100.135479 
L 204.992081 145.489643 
L 205.057451 128.771224 
L 205.122821 136.101747 
L 205.188191 123.011494 
L 205.318932 159.899495 
L 205.384302 147.167203 
L 205.449672 156.675603 
L 205.645783 101.990526 
L 205.711153 148.160967 
L 205.776523 127.011346 
L 205.907263 141.830554 
L 205.972634 206.470633 
L 206.103374 110.233406 
L 206.299485 185.283216 
L 206.430225 140.147855 
L 206.495595 197.251269 
L 206.560965 74.269902 
L 206.626336 83.131667 
L 206.691706 154.655807 
L 206.757076 132.848383 
L 206.822446 62.226263 
L 206.887816 169.597112 
L 206.953187 79.675047 
L 207.083927 169.461293 
L 207.214667 72.540023 
L 207.345408 169.463067 
L 207.476148 66.850256 
L 207.606888 119.694854 
L 207.672259 125.431655 
L 207.737629 82.039229 
L 207.868369 153.009024 
L 207.933739 81.268526 
L 207.99911 133.037182 
L 208.06448 57.190743 
L 208.12985 137.691436 
L 208.19522 66.272859 
L 208.26059 149.609192 
L 208.325961 145.035104 
L 208.391331 168.874525 
L 208.456701 104.954629 
L 208.522071 133.730954 
L 208.587441 91.981561 
L 208.652812 108.943185 
L 208.848922 135.348507 
L 208.914292 147.345485 
L 208.979663 189.556448 
L 209.110403 150.442172 
L 209.175773 154.687584 
L 209.241143 181.822686 
L 209.306514 131.323429 
L 209.371884 137.722315 
L 209.437254 166.367088 
L 209.502624 120.845114 
L 209.567994 168.993787 
L 209.633365 157.088328 
L 209.764105 139.111428 
L 209.829475 137.179968 
L 209.894845 139.023581 
L 209.960216 161.952492 
L 210.090956 69.857903 
L 210.156326 143.44338 
L 210.221696 141.982323 
L 210.352437 188.088287 
L 210.417807 179.61484 
L 210.483177 173.684189 
L 210.548547 118.77247 
L 210.679288 165.080461 
L 210.744658 105.99592 
L 210.810028 166.728244 
L 210.875398 142.913379 
L 211.006139 172.389292 
L 211.136879 133.138433 
L 211.202249 131.387519 
L 211.267619 116.786337 
L 211.33299 162.768303 
L 211.46373 75.550911 
L 211.5291 145.088934 
L 211.59447 114.331659 
L 211.659841 138.92545 
L 211.790581 75.769246 
L 211.921321 139.432769 
L 211.986692 64.587549 
L 212.052062 120.243278 
L 212.117432 110.066979 
L 212.182802 97.6777 
L 212.313543 160.774591 
L 212.444283 52.597612 
L 212.575023 132.83585 
L 212.640394 125.590571 
L 212.705764 140.618135 
L 212.836504 114.595489 
L 212.901874 139.013468 
L 212.967245 104.930284 
L 213.032615 160.78197 
L 213.097985 115.358602 
L 213.163355 145.137409 
L 213.228725 119.096227 
L 213.294096 131.2004 
L 213.359466 129.116824 
L 213.424836 102.65751 
L 213.490206 116.103202 
L 213.620947 174.595125 
L 213.751687 126.905613 
L 213.817057 150.229284 
L 213.947798 103.031833 
L 214.013168 161.395307 
L 214.078538 72.662107 
L 214.143908 150.520942 
L 214.209278 64.382459 
L 214.274649 147.803315 
L 214.340019 105.923193 
L 214.405389 70.610113 
L 214.470759 129.740621 
L 214.536129 98.796763 
L 214.6015 77.47624 
L 214.73224 172.03872 
L 214.79761 111.29165 
L 214.86298 133.975559 
L 214.928351 160.055584 
L 215.059091 82.008986 
L 215.124461 168.295531 
L 215.189831 83.00976 
L 215.255201 86.715397 
L 215.385942 149.614163 
L 215.451312 63.406294 
L 215.516682 173.72986 
L 215.582052 129.949925 
L 215.712793 80.743882 
L 215.778163 188.854515 
L 215.843533 147.536337 
L 215.908903 87.291793 
L 215.974274 106.635891 
L 216.105014 50.651836 
L 216.170384 185.101685 
L 216.235754 89.488997 
L 216.301125 104.046792 
L 216.366495 181.34793 
L 216.431865 138.789477 
L 216.497235 120.605664 
L 216.562605 131.073015 
L 216.627976 167.481037 
L 216.693346 123.93908 
L 216.758716 130.651039 
L 216.824086 141.255276 
L 216.889456 75.556198 
L 216.954827 108.693458 
L 217.020197 159.159514 
L 217.216307 90.089618 
L 217.281678 70.957067 
L 217.347048 134.39776 
L 217.412418 65.039147 
L 217.477788 95.845054 
L 217.543158 66.709322 
L 217.608529 147.149425 
L 217.673899 88.420851 
L 217.804639 164.23298 
L 218.06612 92.300549 
L 218.19686 96.568697 
L 218.327601 170.052923 
L 218.458341 108.954235 
L 218.523711 174.622949 
L 218.654452 66.140193 
L 218.785192 159.481514 
L 218.850562 159.189409 
L 218.981303 144.88047 
L 219.046673 117.434441 
L 219.112043 163.546415 
L 219.177413 119.594006 
L 219.242784 141.204399 
L 219.373524 114.692211 
L 219.504264 178.759618 
L 219.635005 136.793895 
L 219.700375 198.375121 
L 219.765745 147.676251 
L 219.831115 148.344163 
L 219.961856 165.705897 
L 220.027226 154.99263 
L 220.092596 155.712903 
L 220.157966 115.184484 
L 220.223336 200.218752 
L 220.288707 172.130584 
L 220.354077 169.184714 
L 220.484817 116.250442 
L 220.550187 68.081986 
L 220.811668 195.582782 
L 220.942409 141.221655 
L 221.073149 200.032349 
L 221.138519 191.853679 
L 221.203889 109.747386 
L 221.26926 162.948057 
L 221.33463 169.992586 
L 221.46537 76.438447 
L 221.53074 136.949779 
L 221.596111 83.421766 
L 221.661481 154.185735 
L 221.726851 85.278577 
L 221.922962 186.263084 
L 222.053702 139.742241 
L 222.119072 184.298767 
L 222.184442 95.773477 
L 222.249813 139.818239 
L 222.315183 140.615774 
L 222.380553 112.204146 
L 222.445923 177.41672 
L 222.511293 148.410833 
L 222.642034 164.219186 
L 222.707404 148.326828 
L 222.772774 172.277613 
L 222.903515 66.521315 
L 222.968885 167.685279 
L 223.034255 166.980978 
L 223.230366 99.080464 
L 223.361106 169.359393 
L 223.491846 186.32586 
L 223.557216 114.36514 
L 223.622587 128.776035 
L 223.687957 172.254147 
L 223.818697 92.77137 
L 223.884067 106.911813 
L 224.014808 186.6431 
L 224.145548 93.691314 
L 224.210918 120.989808 
L 224.276289 108.045119 
L 224.407029 80.872853 
L 224.472399 173.706631 
L 224.537769 103.059071 
L 224.60314 149.284072 
L 224.73388 113.841574 
L 224.79925 145.485463 
L 224.86462 75.46586 
L 224.929991 164.151413 
L 224.995361 71.293038 
L 225.060731 190.892014 
L 225.126101 157.176509 
L 225.191471 103.544833 
L 225.256842 156.206824 
L 225.387582 85.592757 
L 225.583693 162.524621 
L 225.714433 62.153956 
L 225.779803 138.911553 
L 225.845173 121.868383 
L 225.910544 79.179082 
L 226.106654 171.547842 
L 226.237395 139.788257 
L 226.302765 78.032969 
L 226.433505 175.136974 
L 226.629616 123.82849 
L 226.760356 179.98201 
L 226.825726 126.111454 
L 226.891097 140.146711 
L 227.021837 94.404539 
L 227.087207 143.774755 
L 227.152577 95.464428 
L 227.217948 119.677843 
L 227.283318 178.666251 
L 227.348688 138.876045 
L 227.414058 74.348004 
L 227.479428 184.516855 
L 227.544799 156.077531 
L 227.610169 144.544193 
L 227.675539 77.692064 
L 227.740909 86.866471 
L 227.806279 136.644926 
L 227.871649 73.437283 
L 228.00239 151.747013 
L 228.06776 97.575761 
L 228.13313 175.433926 
L 228.1985 106.838491 
L 228.263871 127.048243 
L 228.459981 158.995488 
L 228.525351 113.54337 
L 228.590722 160.239104 
L 228.656092 103.087851 
L 228.721462 134.690608 
L 228.852202 67.027733 
L 228.917573 67.580184 
L 229.113683 182.271506 
L 229.309794 68.933529 
L 229.375164 79.499212 
L 229.440534 128.728986 
L 229.505904 115.907629 
L 229.571275 118.043458 
L 229.636645 102.330047 
L 229.702015 165.081528 
L 229.767385 110.376349 
L 229.832755 184.708947 
L 229.898126 74.785431 
L 229.963496 132.352243 
L 230.028866 64.887854 
L 230.094236 76.762654 
L 230.290347 166.299091 
L 230.355717 122.029065 
L 230.421087 170.814293 
L 230.486457 112.077501 
L 230.551828 132.587414 
L 230.617198 124.292706 
L 230.682568 190.052914 
L 230.813308 79.309189 
L 230.944049 152.806089 
L 231.009419 110.177384 
L 231.074789 128.996405 
L 231.140159 110.688288 
L 231.20553 176.014088 
L 231.2709 98.097702 
L 231.33627 186.487165 
L 231.40164 166.036659 
L 231.46701 121.847593 
L 231.532381 183.11852 
L 231.597751 149.911976 
L 231.663121 98.230909 
L 231.728491 128.572371 
L 231.859231 185.34945 
L 231.924602 81.869964 
L 231.989972 135.889207 
L 232.055342 90.136218 
L 232.120712 164.493203 
L 232.316823 78.779726 
L 232.382193 184.538948 
L 232.447563 71.66668 
L 232.512933 124.86902 
L 232.643674 78.184843 
L 232.709044 146.266389 
L 232.774414 111.727578 
L 232.839784 101.912921 
L 232.905155 183.169707 
L 232.970525 151.023552 
L 233.101265 168.683447 
L 233.166635 144.064645 
L 233.232006 73.580303 
L 233.297376 155.545982 
L 233.362746 58.689391 
L 233.558857 164.895815 
L 233.624227 87.554507 
L 233.820337 165.432995 
L 233.885708 156.57615 
L 234.016448 71.863507 
L 234.081818 137.8472 
L 234.147188 109.53478 
L 234.212559 113.650126 
L 234.277929 82.532077 
L 234.343299 101.205133 
L 234.474039 146.036334 
L 234.53941 72.522374 
L 234.60478 105.107171 
L 234.67015 186.289662 
L 234.73552 110.196229 
L 234.80089 159.0049 
L 234.866261 186.211681 
L 234.997001 67.825614 
L 235.062371 78.739043 
L 235.127741 169.63228 
L 235.323852 57.433186 
L 235.389222 157.809 
L 235.454592 96.787722 
L 235.519963 101.915353 
L 235.585333 101.726015 
L 235.716073 163.590123 
L 235.781443 149.803873 
L 235.846813 88.034734 
L 235.912184 137.32406 
L 235.977554 92.270724 
L 236.042924 139.981693 
L 236.108294 48.265201 
L 236.173664 147.794854 
L 236.239035 110.893335 
L 236.304405 110.118233 
L 236.369775 153.858079 
L 236.435145 95.356283 
L 236.500515 162.144742 
L 236.565886 89.648674 
L 236.631256 115.125892 
L 236.696626 181.759198 
L 236.761996 160.303609 
L 236.892737 66.059186 
L 237.023477 187.638967 
L 237.088847 167.993861 
L 237.154217 179.52578 
L 237.219588 173.010207 
L 237.350328 85.724393 
L 237.415698 150.354737 
L 237.481068 136.958987 
L 237.546439 159.316743 
L 237.677179 74.741154 
L 237.742549 89.532473 
L 237.87329 215.259249 
L 237.93866 121.166205 
L 238.00403 166.87155 
L 238.0694 183.563251 
L 238.13477 91.24988 
L 238.200141 152.598979 
L 238.265511 178.217703 
L 238.330881 165.531725 
L 238.396251 94.445192 
L 238.461621 104.411207 
L 238.592362 147.852373 
L 238.657732 61.795495 
L 238.723102 145.054057 
L 238.788472 55.358857 
L 238.853843 101.759196 
L 238.919213 83.195673 
L 238.984583 181.71123 
L 239.180694 70.829096 
L 239.311434 130.560547 
L 239.376804 66.855382 
L 239.507545 167.060635 
L 239.572915 98.980888 
L 239.638285 142.02503 
L 239.703655 92.178498 
L 239.769025 111.528076 
L 239.834396 145.375618 
L 239.899766 122.384671 
L 239.965136 103.479848 
L 240.030506 141.716665 
L 240.095876 131.145151 
L 240.226617 80.354294 
L 240.357357 159.680183 
L 240.488097 81.317896 
L 240.553468 175.472082 
L 240.618838 50.928839 
L 240.684208 120.736942 
L 240.749578 140.253379 
L 240.814948 66.466331 
L 240.945689 176.798559 
L 241.141799 89.157278 
L 241.27254 170.662892 
L 241.33791 160.368241 
L 241.40328 85.828098 
L 241.534021 179.534185 
L 241.730131 122.198899 
L 241.795501 119.57322 
L 241.860872 77.617204 
L 241.926242 142.626548 
L 241.991612 92.525328 
L 242.056982 133.093891 
L 242.122352 62.864155 
L 242.187723 99.009022 
L 242.253093 177.307321 
L 242.318463 93.189216 
L 242.383833 145.881055 
L 242.449203 177.026209 
L 242.579944 78.999551 
L 242.645314 132.940057 
L 242.710684 151.223103 
L 242.776054 140.383649 
L 242.841425 143.828208 
L 242.906795 107.587419 
L 243.037535 165.489354 
L 243.102905 55.255639 
L 243.168276 104.336409 
L 243.233646 93.523153 
L 243.429756 144.272678 
L 243.495127 61.419466 
L 243.560497 92.995043 
L 243.625867 107.962813 
L 243.691237 197.850766 
L 243.756607 86.008 
L 243.821978 109.060314 
L 243.887348 108.987084 
L 243.952718 178.641619 
L 244.083458 89.665299 
L 244.214199 153.313487 
L 244.279569 64.9722 
L 244.344939 203.114854 
L 244.410309 150.882208 
L 244.475679 91.745445 
L 244.54105 130.425809 
L 244.67179 52.79275 
L 244.867901 150.570346 
L 244.933271 140.967138 
L 244.998641 109.281223 
L 245.064011 182.640541 
L 245.129381 155.419238 
L 245.390862 79.766575 
L 245.586973 178.78658 
L 245.652343 76.976547 
L 245.717713 135.920523 
L 245.783083 149.681259 
L 245.848454 127.398541 
L 245.979194 173.013709 
L 246.044564 103.731364 
L 246.109934 147.252184 
L 246.175305 123.221128 
L 246.240675 175.139244 
L 246.306045 100.477307 
L 246.371415 103.743721 
L 246.436785 137.254962 
L 246.502156 93.725042 
L 246.567526 179.808052 
L 246.632896 70.943577 
L 246.763636 172.729013 
L 246.829007 169.211007 
L 246.959747 67.642606 
L 247.025117 180.941546 
L 247.155858 63.627244 
L 247.351968 175.270055 
L 247.482709 65.154785 
L 247.548079 177.471379 
L 247.613449 145.448906 
L 247.678819 73.701059 
L 247.744189 170.002269 
L 247.87493 77.98798 
L 247.9403 91.619194 
L 248.00567 89.843441 
L 248.07104 150.105807 
L 248.13641 121.37756 
L 248.201781 160.81458 
L 248.267151 135.899191 
L 248.397891 117.756442 
L 248.463261 136.986089 
L 248.528632 115.306689 
L 248.594002 139.202436 
L 248.659372 124.744869 
L 248.724742 131.191183 
L 248.855483 86.404085 
L 248.920853 89.962027 
L 248.986223 111.913709 
L 249.116963 50.042612 
L 249.247704 132.963085 
L 249.313074 122.150767 
L 249.378444 138.030349 
L 249.443814 116.227548 
L 249.509185 166.503854 
L 249.639925 66.071053 
L 249.770665 160.364226 
L 249.966776 103.583785 
L 250.032146 158.370141 
L 250.097516 64.868276 
L 250.162887 77.40327 
L 250.489738 155.437268 
L 250.555108 157.254459 
L 250.685848 81.87831 
L 250.816589 129.272833 
L 250.947329 186.749299 
L 251.012699 167.373845 
L 251.078069 108.432052 
L 251.14344 119.838003 
L 251.20881 188.895483 
L 251.27418 166.806088 
L 251.40492 147.950059 
L 251.601031 189.23585 
L 251.666401 118.116578 
L 251.731771 155.581157 
L 251.927882 104.377937 
L 251.993252 163.519743 
L 252.058622 130.108781 
L 252.123993 176.183001 
L 252.189363 154.451923 
L 252.320103 103.577487 
L 252.385473 149.937037 
L 252.450843 140.37015 
L 252.516214 116.570616 
L 252.581584 161.282992 
L 252.646954 136.091899 
L 252.712324 149.093181 
L 252.777694 143.95452 
L 252.843065 95.465676 
L 252.908435 140.84777 
L 252.973805 99.524286 
L 253.039175 167.510845 
L 253.169916 74.778422 
L 253.235286 77.849141 
L 253.366026 161.889626 
L 253.496767 80.468669 
L 253.692877 144.951167 
L 253.758247 115.18546 
L 253.823618 183.511872 
L 253.888988 145.526199 
L 253.954358 74.606435 
L 254.085098 164.612248 
L 254.346579 92.245099 
L 254.47732 148.619279 
L 254.54269 120.377537 
L 254.60806 172.829403 
L 254.67343 104.67282 
L 254.7388 153.133131 
L 254.804171 122.739856 
L 254.869541 117.542149 
L 254.934911 144.803518 
L 255.000281 81.674329 
L 255.065651 118.598708 
L 255.131022 112.734086 
L 255.196392 128.104047 
L 255.261762 85.91657 
L 255.457873 155.099851 
L 255.588613 93.383927 
L 255.653983 102.069262 
L 255.719353 109.760792 
L 255.784724 104.621011 
L 255.850094 107.206235 
L 255.980834 126.690129 
L 256.046204 120.067254 
L 256.111575 153.801992 
L 256.176945 119.297551 
L 256.242315 119.557372 
L 256.307685 129.87574 
L 256.373055 63.295442 
L 256.438425 88.205853 
L 256.569166 165.461343 
L 256.699906 86.974411 
L 256.765276 101.853934 
L 256.830647 171.06359 
L 256.896017 145.440335 
L 257.026757 79.049428 
L 257.157498 145.34119 
L 257.288238 61.399628 
L 257.353608 201.573963 
L 257.418978 170.152161 
L 257.549719 89.87235 
L 257.615089 180.114392 
L 257.680459 147.760629 
L 257.745829 97.320766 
L 257.8112 114.689518 
L 257.87657 140.496395 
L 257.94194 100.794124 
L 258.00731 172.560216 
L 258.07268 87.885127 
L 258.203421 174.897596 
L 258.268791 135.886405 
L 258.464902 182.982682 
L 258.530272 152.111455 
L 258.595642 201.376361 
L 258.791753 136.009314 
L 258.987863 202.196727 
L 259.053233 100.164391 
L 259.118604 126.05369 
L 259.183974 71.77275 
L 259.249344 129.819176 
L 259.314714 105.855407 
L 259.380084 85.890422 
L 259.576195 152.552716 
L 259.641565 122.992146 
L 259.706935 156.178131 
L 259.837676 114.812396 
L 259.903046 153.476339 
L 259.968416 141.138556 
L 260.033786 83.171878 
L 260.099157 213.900091 
L 260.164527 146.275071 
L 260.229897 163.050854 
L 260.360637 60.31062 
L 260.491378 166.134983 
L 260.687488 100.796749 
L 260.752858 201.258356 
L 260.818229 158.48918 
L 260.948969 133.599749 
L 261.014339 139.355095 
L 261.14508 70.244484 
L 261.21045 139.49332 
L 261.27582 114.551619 
L 261.34119 150.189238 
L 261.40656 141.537131 
L 261.471931 65.362089 
L 261.537301 159.079505 
L 261.602671 145.434816 
L 261.733411 85.38248 
L 261.798782 149.901009 
L 261.864152 95.603219 
L 261.929522 163.815524 
L 261.994892 124.09763 
L 262.060262 74.592272 
L 262.125633 187.868863 
L 262.191003 132.230925 
L 262.256373 81.024667 
L 262.321743 157.265318 
L 262.387113 104.612566 
L 262.452484 71.315699 
L 262.517854 133.900307 
L 262.583224 96.472152 
L 262.648594 68.810545 
L 262.713964 128.151659 
L 262.779335 99.11005 
L 262.844705 106.985184 
L 262.910075 93.196539 
L 262.975445 173.084724 
L 263.040815 140.042639 
L 263.106186 76.144681 
L 263.171556 128.763921 
L 263.236926 104.021105 
L 263.302296 87.902835 
L 263.367666 197.317849 
L 263.433037 163.490045 
L 263.498407 135.595712 
L 263.563777 162.070037 
L 263.629147 140.869415 
L 263.694517 188.71801 
L 263.759888 163.86058 
L 263.825258 177.533467 
L 263.955998 120.786804 
L 264.021368 164.500888 
L 264.086739 125.315742 
L 264.152109 165.661192 
L 264.217479 93.485515 
L 264.282849 133.658284 
L 264.47896 188.465219 
L 264.6097 84.990246 
L 264.67507 159.23436 
L 264.74044 143.994146 
L 264.805811 122.082509 
L 264.871181 189.98148 
L 264.936551 110.758617 
L 265.001921 121.214259 
L 265.067291 182.684033 
L 265.132662 110.024964 
L 265.198032 157.839631 
L 265.263402 200.874408 
L 265.524883 87.78176 
L 265.655623 179.716939 
L 265.786364 116.480556 
L 265.851734 131.518381 
L 265.917104 99.257664 
L 265.982474 172.679885 
L 266.047844 126.890839 
L 266.113215 95.781319 
L 266.243955 182.085236 
L 266.309325 139.650776 
L 266.505436 201.556274 
L 266.570806 73.686023 
L 266.636176 108.221506 
L 266.832287 181.33369 
L 267.093768 89.996363 
L 267.159138 133.643586 
L 267.224508 120.971704 
L 267.289878 106.938007 
L 267.355248 152.641316 
L 267.420619 97.817457 
L 267.485989 153.60362 
L 267.616729 73.026984 
L 267.682099 138.337463 
L 267.74747 103.201691 
L 267.81284 103.437968 
L 267.87821 127.718339 
L 267.94358 114.080639 
L 268.00895 134.630355 
L 268.139691 63.988884 
L 268.205061 99.646166 
L 268.270431 159.074821 
L 268.466542 62.673907 
L 268.597282 105.541924 
L 268.662652 173.127031 
L 268.728022 85.069132 
L 268.793393 140.265269 
L 268.989503 172.401281 
L 269.054873 70.650466 
L 269.120244 170.459514 
L 269.185614 133.158218 
L 269.250984 93.345547 
L 269.381724 175.257389 
L 269.447095 162.649742 
L 269.512465 76.59416 
L 269.577835 174.251109 
L 269.643205 157.177031 
L 269.708575 171.121724 
L 269.773946 147.263525 
L 269.839316 177.368967 
L 269.904686 153.628529 
L 269.970056 183.409968 
L 270.035426 81.593538 
L 270.100797 126.727592 
L 270.166167 52.03918 
L 270.231537 96.80292 
L 270.296907 62.852169 
L 270.362277 170.767866 
L 270.427648 138.133327 
L 270.493018 101.682771 
L 270.558388 129.976389 
L 270.623758 86.882729 
L 270.754499 184.046737 
L 270.819869 76.701676 
L 270.885239 82.016807 
L 271.015979 152.50762 
L 271.08135 138.943184 
L 271.14672 161.910579 
L 271.27746 59.412411 
L 271.408201 103.431172 
L 271.473571 99.900417 
L 271.538941 101.132443 
L 271.604311 119.283527 
L 271.735052 87.403477 
L 271.865792 137.538955 
L 272.061903 64.101429 
L 272.192643 154.215586 
L 272.258013 87.36985 
L 272.323383 171.793465 
L 272.388754 144.026502 
L 272.454124 91.239603 
L 272.519494 102.942022 
L 272.584864 99.667599 
L 272.650234 64.674466 
L 272.715604 78.734135 
L 272.780975 81.830201 
L 272.846345 114.91813 
L 272.911715 97.50911 
L 272.977085 111.951531 
L 273.042455 83.152591 
L 273.107826 151.517997 
L 273.173196 150.625094 
L 273.238566 66.666429 
L 273.303936 144.899832 
L 273.369306 93.727168 
L 273.434677 167.18988 
L 273.500047 137.954248 
L 273.565417 130.792651 
L 273.761528 86.073422 
L 273.826898 153.174641 
L 273.892268 71.088963 
L 273.957638 162.822007 
L 274.023008 107.151271 
L 274.088379 50.13911 
L 274.153749 87.643695 
L 274.219119 67.242336 
L 274.284489 104.268355 
L 274.349859 96.562099 
L 274.41523 98.037777 
L 274.4806 138.858052 
L 274.54597 72.231056 
L 274.61134 136.584632 
L 274.67671 73.714001 
L 274.742081 131.379553 
L 274.807451 116.591578 
L 274.938191 85.375911 
L 275.068932 145.739334 
L 275.134302 94.741564 
L 275.199672 130.017018 
L 275.265042 157.423767 
L 275.330412 63.996918 
L 275.395783 90.576259 
L 275.461153 105.100851 
L 275.526523 76.706106 
L 275.591893 117.572522 
L 275.722634 81.766858 
L 275.788004 139.968514 
L 275.853374 93.031545 
L 275.918744 118.112272 
L 275.984114 120.662057 
L 276.049485 68.471879 
L 276.114855 132.55005 
L 276.180225 76.882579 
L 276.245595 91.515879 
L 276.376336 107.474441 
L 276.441706 123.596743 
L 276.572446 85.588187 
L 276.637816 107.657682 
L 276.703187 78.43476 
L 276.768557 103.497913 
L 276.833927 68.456597 
L 276.899297 78.589134 
L 276.964667 145.617205 
L 277.095408 74.309498 
L 277.226148 130.842087 
L 277.291518 96.750624 
L 277.356888 98.732485 
L 277.422259 87.14083 
L 277.552999 139.886369 
L 277.683739 91.284251 
L 277.74911 124.065274 
L 277.81448 84.723478 
L 277.87985 91.955066 
L 277.94522 82.297596 
L 278.01059 52.25163 
L 278.206701 119.635865 
L 278.337441 67.267246 
L 278.402812 72.072995 
L 278.468182 52.955908 
L 278.598922 120.366749 
L 278.664292 78.858692 
L 278.729663 100.24793 
L 278.795033 138.398209 
L 278.860403 81.057864 
L 278.925773 83.149821 
L 278.991143 144.006959 
L 279.056514 105.133043 
L 279.121884 107.334049 
L 279.317994 79.997093 
L 279.383365 94.970412 
L 279.448735 73.774932 
L 279.514105 74.52607 
L 279.579475 69.536274 
L 279.710216 172.07943 
L 279.906326 73.086735 
L 279.971696 126.039394 
L 280.037067 67.531007 
L 280.102437 103.594083 
L 280.167807 94.199794 
L 280.233177 146.54641 
L 280.298547 134.95402 
L 280.363918 101.113335 
L 280.429288 105.494039 
L 280.494658 113.923244 
L 280.560028 169.228254 
L 280.625398 56.766016 
L 280.690769 86.670961 
L 280.756139 140.201266 
L 280.821509 128.721422 
L 280.886879 60.471198 
L 280.952249 86.354124 
L 281.08299 153.301354 
L 281.14836 149.053245 
L 281.21373 106.02134 
L 281.2791 167.55618 
L 281.34447 146.043354 
L 281.409841 58.786071 
L 281.475211 100.656791 
L 281.540581 83.039054 
L 281.671321 165.237846 
L 281.736692 85.792742 
L 281.802062 113.867914 
L 281.867432 107.83495 
L 281.932802 120.844896 
L 281.998172 91.450401 
L 282.128913 176.504594 
L 282.194283 118.518312 
L 282.259653 157.480169 
L 282.455764 109.718415 
L 282.586504 148.276844 
L 282.782615 87.063912 
L 282.847985 113.624802 
L 283.044096 57.460202 
L 283.240206 147.164199 
L 283.370947 83.211324 
L 283.436317 99.815182 
L 283.501687 90.6541 
L 283.567057 67.214351 
L 283.632427 141.849146 
L 283.697798 136.75228 
L 283.763168 102.515258 
L 284.024649 188.251692 
L 284.090019 125.349725 
L 284.155389 127.432229 
L 284.220759 115.177529 
L 284.286129 146.277157 
L 284.3515 86.294335 
L 284.41687 143.653343 
L 284.48224 129.39148 
L 284.54761 131.793317 
L 284.61298 162.572647 
L 284.809091 70.889721 
L 284.874461 139.753813 
L 284.939831 136.485622 
L 285.005201 149.944964 
L 285.070572 78.18181 
L 285.135942 149.110584 
L 285.201312 82.956761 
L 285.266682 94.476943 
L 285.332052 171.585175 
L 285.397423 165.286385 
L 285.462793 74.75133 
L 285.528163 155.074394 
L 285.593533 145.809503 
L 285.658903 143.758883 
L 285.724274 67.352465 
L 285.789644 184.634236 
L 285.855014 155.997877 
L 285.920384 137.961168 
L 285.985754 78.902392 
L 286.051125 147.197596 
L 286.116495 122.735365 
L 286.247235 68.160148 
L 286.312605 72.17601 
L 286.508716 172.937793 
L 286.574086 116.361789 
L 286.639456 119.420951 
L 286.704827 179.360913 
L 286.770197 107.804729 
L 286.835567 151.64527 
L 286.900937 138.438659 
L 286.966307 99.765859 
L 287.031678 182.123468 
L 287.162418 63.455043 
L 287.423899 163.750924 
L 287.489269 88.86454 
L 287.554639 122.402512 
L 287.68538 175.8813 
L 287.75075 116.266059 
L 287.81612 149.9265 
L 287.88149 173.708987 
L 287.94686 93.20947 
L 288.012231 148.276024 
L 288.077601 129.641389 
L 288.142971 133.723056 
L 288.273711 136.793578 
L 288.339082 85.110234 
L 288.404452 145.780965 
L 288.469822 117.804149 
L 288.665933 56.951017 
L 288.796673 78.993717 
L 288.927413 70.115367 
L 289.123524 110.587368 
L 289.188894 121.496031 
L 289.254264 92.789311 
L 289.319634 128.46321 
L 289.385005 127.038772 
L 289.450375 129.813726 
L 289.515745 88.83456 
L 289.581115 114.837621 
L 289.646485 94.512878 
L 289.711856 95.790049 
L 289.777226 134.34023 
L 289.907966 64.493566 
L 289.973336 72.336472 
L 290.038707 71.038584 
L 290.169447 150.618826 
L 290.300187 149.271813 
L 290.365558 156.187215 
L 290.430928 93.897429 
L 290.496298 115.817909 
L 290.561668 106.774199 
L 290.627038 47.900533 
L 290.692409 141.279448 
L 290.757779 58.253085 
L 290.823149 97.659735 
L 290.953889 54.733704 
L 291.08463 155.264067 
L 291.15 137.665557 
L 291.21537 62.315163 
L 291.28074 140.71898 
L 291.346111 109.305105 
L 291.476851 169.801598 
L 291.542221 132.736826 
L 291.607591 142.545841 
L 291.672962 144.285532 
L 291.738332 173.899164 
L 291.803702 63.358972 
L 291.869072 87.698515 
L 291.934442 150.328707 
L 291.999813 128.673672 
L 292.130553 159.138236 
L 292.195923 136.216261 
L 292.261293 161.003995 
L 292.392034 87.82182 
L 292.457404 126.474848 
L 292.522774 99.257189 
L 292.588144 113.914156 
L 292.653515 109.472353 
L 292.784255 133.664809 
L 292.849625 131.990365 
L 292.914995 76.215995 
L 292.980366 167.31534 
L 293.045736 140.624463 
L 293.176476 133.132613 
L 293.307216 82.465448 
L 293.437957 163.649109 
L 293.503327 69.924866 
L 293.568697 84.72461 
L 293.634067 88.482365 
L 293.764808 72.323416 
L 293.830178 112.34795 
L 293.895548 93.776979 
L 294.026289 76.897562 
L 294.091659 143.746945 
L 294.157029 130.211696 
L 294.41851 66.679575 
L 294.54925 160.613479 
L 294.679991 48.355176 
L 294.810731 87.814235 
L 294.876101 76.340189 
L 294.941471 107.191608 
L 295.006842 93.275903 
L 295.072212 90.643927 
L 295.137582 82.880906 
L 295.202952 117.792138 
L 295.268322 109.189036 
L 295.464433 78.687302 
L 295.529803 70.990647 
L 295.595173 78.636666 
L 295.660544 130.531569 
L 295.725914 96.373596 
L 295.791284 106.393367 
L 295.856654 77.558383 
L 295.922024 111.770115 
L 295.987395 94.037217 
L 296.052765 76.083912 
L 296.248875 128.447188 
L 296.314246 127.987909 
L 296.444986 51.737002 
L 296.510356 130.315604 
L 296.575726 103.436203 
L 296.641097 85.574528 
L 296.706467 86.98343 
L 296.771837 119.034968 
L 296.837207 116.524534 
L 296.902577 105.666358 
L 296.967948 115.669854 
L 297.033318 74.70627 
L 297.098688 75.712834 
L 297.164058 109.740814 
L 297.229428 80.83779 
L 297.294799 90.181619 
L 297.360169 77.18325 
L 297.425539 83.243556 
L 297.556279 100.520223 
L 297.621649 68.896701 
L 297.68702 77.953974 
L 297.81776 106.307019 
L 297.9485 74.347773 
L 298.013871 82.005249 
L 298.079241 87.603642 
L 298.209981 75.062716 
L 298.275351 121.193889 
L 298.340722 73.976205 
L 298.406092 114.187219 
L 298.471462 54.518335 
L 298.536832 85.52665 
L 298.602202 59.716336 
L 298.732943 94.395488 
L 298.863683 52.69314 
L 299.059794 108.876784 
L 299.125164 102.302948 
L 299.190534 84.357922 
L 299.255904 85.90703 
L 299.321275 92.504164 
L 299.386645 58.378704 
L 299.452015 98.469329 
L 299.517385 77.545529 
L 299.582755 85.444553 
L 299.648126 66.477153 
L 299.778866 120.047289 
L 299.844236 71.816814 
L 299.909606 78.33857 
L 299.974977 84.926154 
L 300.040347 119.288487 
L 300.105717 100.441098 
L 300.171087 107.02789 
L 300.236457 78.625276 
L 300.301828 116.767144 
L 300.432568 53.166775 
L 300.497938 128.884254 
L 300.628679 63.931341 
L 300.759419 103.827966 
L 300.890159 74.785616 
L 301.0209 132.403877 
L 301.15164 85.387709 
L 301.21701 128.497954 
L 301.282381 71.000853 
L 301.413121 146.68482 
L 301.543861 51.979155 
L 301.609231 107.607392 
L 301.674602 97.275512 
L 301.739972 112.172563 
L 301.805342 167.013562 
L 301.870712 82.699332 
L 301.936082 120.92385 
L 302.001453 160.159363 
L 302.066823 103.555794 
L 302.132193 136.779904 
L 302.197563 141.840058 
L 302.262933 140.319034 
L 302.459044 68.369511 
L 302.655155 183.73313 
L 302.720525 114.112726 
L 302.785895 182.93438 
L 302.916635 81.086057 
L 302.982006 130.17855 
L 303.047376 88.756856 
L 303.112746 89.978 
L 303.178116 131.248675 
L 303.243486 122.583614 
L 303.308857 86.236616 
L 303.504967 164.66216 
L 303.570337 95.419292 
L 303.635708 103.707627 
L 303.701078 79.127002 
L 303.831818 155.548307 
L 304.027929 89.373326 
L 304.158669 175.435489 
L 304.28941 138.273088 
L 304.35478 137.463035 
L 304.42015 112.55877 
L 304.48552 158.678388 
L 304.55089 132.538523 
L 304.616261 133.308654 
L 304.681631 69.470871 
L 304.747001 98.428481 
L 304.812371 115.134871 
L 304.877741 93.737842 
L 304.943112 172.274787 
L 305.008482 144.523066 
L 305.073852 53.258895 
L 305.139222 95.46644 
L 305.204592 77.121597 
L 305.269963 137.260289 
L 305.335333 74.020258 
L 305.400703 99.357771 
L 305.466073 98.256721 
L 305.596813 143.862436 
L 305.727554 72.791461 
L 305.858294 109.55186 
L 305.923664 64.367203 
L 306.054405 174.390221 
L 306.185145 109.253812 
L 306.250515 121.132795 
L 306.315886 58.738707 
L 306.446626 150.027963 
L 306.511996 97.635109 
L 306.577366 164.110811 
L 306.642737 85.847155 
L 306.708107 153.889443 
L 306.773477 106.888878 
L 306.838847 158.593059 
L 306.904217 66.478682 
L 306.969588 75.065506 
L 307.100328 152.781129 
L 307.231068 73.867272 
L 307.296439 158.465178 
L 307.361809 127.271282 
L 307.427179 140.245208 
L 307.492549 85.458607 
L 307.557919 180.263781 
L 307.62329 131.881424 
L 307.68866 51.874928 
L 307.75403 78.497616 
L 307.88477 167.597021 
L 307.950141 165.648139 
L 308.015511 172.384193 
L 308.080881 71.159921 
L 308.146251 94.830083 
L 308.211621 119.957155 
L 308.276992 101.201998 
L 308.342362 166.108275 
L 308.407732 147.246937 
L 308.603843 86.891393 
L 308.669213 140.189308 
L 308.734583 99.287781 
L 308.799953 148.427523 
L 308.865323 113.430166 
L 308.930694 159.651767 
L 308.996064 62.366871 
L 309.061434 96.050359 
L 309.126804 135.798441 
L 309.192174 73.507807 
L 309.257545 108.815968 
L 309.322915 130.847729 
L 309.453655 82.596328 
L 309.519025 192.136012 
L 309.584396 133.645153 
L 309.649766 80.92525 
L 309.715136 134.219805 
L 309.780506 75.278739 
L 309.845876 80.417479 
L 309.976617 183.913426 
L 310.172727 52.424904 
L 310.238097 70.141806 
L 310.303468 175.984105 
L 310.368838 54.513159 
L 310.434208 130.497217 
L 310.499578 99.17881 
L 310.564948 132.187072 
L 310.630319 115.819981 
L 310.695689 138.931161 
L 310.761059 96.173345 
L 310.826429 98.23463 
L 310.891799 132.947667 
L 310.95717 72.611087 
L 311.02254 101.575011 
L 311.08791 99.410323 
L 311.15328 74.642705 
L 311.284021 118.667266 
L 311.349391 96.510204 
L 311.414761 152.689212 
L 311.480131 141.946985 
L 311.545501 85.657799 
L 311.610872 133.896664 
L 311.676242 115.976485 
L 311.741612 77.036561 
L 311.806982 185.833673 
L 311.872352 53.604463 
L 311.937723 131.091306 
L 312.003093 88.068004 
L 312.068463 115.993953 
L 312.133833 136.407878 
L 312.199203 97.076938 
L 312.395314 174.413029 
L 312.460684 162.246247 
L 312.526054 185.304923 
L 312.722165 97.593907 
L 312.787535 109.656261 
L 312.918276 165.612223 
L 312.983646 103.863551 
L 313.049016 163.89584 
L 313.114386 103.932573 
L 313.179756 110.114974 
L 313.245127 182.382751 
L 313.310497 164.22859 
L 313.375867 134.77303 
L 313.441237 189.171532 
L 313.506607 180.603663 
L 313.637348 92.335933 
L 313.702718 142.62205 
L 313.768088 78.649725 
L 313.833458 133.226544 
L 313.898828 79.535055 
L 314.029569 156.383004 
L 314.094939 104.917115 
L 314.160309 116.448452 
L 314.35642 177.644557 
L 314.42179 167.815985 
L 314.48716 182.292807 
L 314.617901 112.614583 
L 314.683271 131.520883 
L 314.748641 160.682755 
L 314.879381 105.020663 
L 315.010122 144.488217 
L 315.075492 129.876871 
L 315.140862 163.297981 
L 315.271603 118.527412 
L 315.467713 166.30115 
L 315.533083 115.551511 
L 315.598454 161.732889 
L 315.663824 130.570055 
L 315.729194 114.453591 
L 315.794564 205.520785 
L 315.859934 170.669365 
L 316.056045 120.857527 
L 316.121415 174.146305 
L 316.186785 105.976709 
L 316.252156 139.46979 
L 316.317526 116.812664 
L 316.382896 127.490847 
L 316.448266 127.840705 
L 316.513636 115.826476 
L 316.579007 119.695114 
L 316.709747 189.009937 
L 316.775117 121.424709 
L 316.840487 144.30548 
L 316.971228 128.805386 
L 317.101968 150.201446 
L 317.167338 153.681363 
L 317.232709 114.716106 
L 317.298079 173.278471 
L 317.363449 146.236218 
L 317.428819 160.274768 
L 317.494189 118.615836 
L 317.55956 120.073304 
L 317.62493 165.266973 
L 317.6903 127.724634 
L 317.75567 153.392706 
L 317.82104 141.875188 
L 317.88641 173.768054 
L 317.951781 139.579201 
L 318.017151 143.347152 
L 318.082521 163.534645 
L 318.147891 103.157815 
L 318.213261 114.091592 
L 318.344002 183.188454 
L 318.540112 137.687372 
L 318.605483 186.63448 
L 318.670853 142.785394 
L 318.736223 143.20546 
L 318.801593 181.746435 
L 318.932334 112.89996 
L 318.997704 189.586312 
L 319.063074 106.729468 
L 319.128444 139.407981 
L 319.193814 156.627961 
L 319.389925 115.800097 
L 319.455295 179.199945 
L 319.520665 101.685402 
L 319.586036 176.09374 
L 319.651406 94.869626 
L 319.716776 98.783448 
L 319.782146 163.164502 
L 319.847516 86.614376 
L 319.912887 141.333255 
L 319.978257 99.254775 
L 320.043627 103.578406 
L 320.174367 190.648052 
L 320.239738 164.540529 
L 320.305108 174.941491 
L 320.435848 142.996624 
L 320.566589 164.142407 
L 320.631959 132.12576 
L 320.697329 143.065877 
L 320.828069 105.283737 
L 320.89344 162.941877 
L 320.95881 116.494507 
L 321.02418 153.635189 
L 321.08955 149.575903 
L 321.15492 134.824193 
L 321.220291 165.020058 
L 321.285661 106.117618 
L 321.351031 143.157393 
L 321.416401 121.768241 
L 321.481771 163.431543 
L 321.547142 147.049378 
L 321.612512 171.390092 
L 321.743252 111.9004 
L 321.808622 152.253753 
L 321.873993 143.510326 
L 321.939363 140.368783 
L 322.004733 131.824428 
L 322.070103 169.313463 
L 322.135473 136.885459 
L 322.200843 156.776753 
L 322.266214 157.427354 
L 322.331584 106.032857 
L 322.396954 119.405471 
L 322.462324 111.265571 
L 322.527694 129.856748 
L 322.658435 83.479931 
L 322.854545 150.32512 
L 322.919916 99.819445 
L 322.985286 117.179902 
L 323.181396 156.259893 
L 323.246767 85.81011 
L 323.312137 143.505235 
L 323.377507 121.560199 
L 323.442877 128.453174 
L 323.508247 165.372212 
L 323.573618 125.994416 
L 323.638988 159.639389 
L 323.835098 73.307537 
L 324.031209 179.994184 
L 324.096579 117.63644 
L 324.161949 181.073626 
L 324.29269 66.371791 
L 324.42343 147.143649 
L 324.4888 129.4868 
L 324.619541 179.3118 
L 324.684911 164.745693 
L 324.750281 113.608507 
L 324.815651 123.395471 
L 324.881022 141.916516 
L 324.946392 77.082837 
L 325.011762 87.811841 
L 325.207873 134.161807 
L 325.273243 73.587476 
L 325.403983 144.446776 
L 325.469353 101.262814 
L 325.534724 111.94922 
L 325.600094 90.363538 
L 325.665464 95.363617 
L 325.730834 101.247556 
L 325.796204 188.119259 
L 325.861575 168.696683 
L 325.926945 186.539106 
L 325.992315 108.844736 
L 326.057685 111.695124 
L 326.123055 120.80494 
L 326.188425 62.956201 
L 326.319166 175.433907 
L 326.449906 71.391116 
L 326.515276 101.417558 
L 326.580647 83.473109 
L 326.646017 63.40348 
L 326.907498 120.652417 
L 326.972868 123.280165 
L 327.038238 108.70525 
L 327.103608 154.355232 
L 327.168978 153.870224 
L 327.299719 101.806637 
L 327.365089 126.031097 
L 327.430459 84.327157 
L 327.495829 171.3389 
L 327.5612 89.389717 
L 327.62657 114.011436 
L 327.69194 149.81489 
L 327.82268 74.315767 
L 327.888051 60.827544 
L 328.018791 102.754924 
L 328.084161 60.185511 
L 328.149531 114.632537 
L 328.214902 105.951821 
L 328.280272 117.312906 
L 328.345642 74.592733 
L 328.411012 85.097688 
L 328.476382 109.488676 
L 328.541753 75.706639 
L 328.737863 147.800266 
L 328.868604 71.032935 
L 328.999344 112.069398 
L 329.064714 61.111084 
L 329.130084 79.143833 
L 329.195455 82.745858 
L 329.326195 106.691248 
L 329.391565 91.95334 
L 329.456935 108.514011 
L 329.587676 62.38578 
L 329.653046 111.378844 
L 329.718416 90.486877 
L 329.783786 55.613231 
L 329.849157 118.021102 
L 329.914527 110.49665 
L 329.979897 105.955467 
L 330.176007 65.84755 
L 330.306748 90.574315 
L 330.437488 47.800196 
L 330.502858 84.527028 
L 330.568229 49.828796 
L 330.698969 105.558638 
L 330.764339 54.751258 
L 330.829709 68.553294 
L 330.89508 114.455892 
L 330.96045 86.959284 
L 331.09119 140.191636 
L 331.221931 105.371167 
L 331.287301 129.317611 
L 331.352671 76.378035 
L 331.548782 153.442462 
L 331.614152 148.411186 
L 331.679522 126.162284 
L 331.744892 147.644405 
L 331.810262 141.321004 
L 331.941003 98.892833 
L 332.006373 130.034993 
L 332.071743 71.850958 
L 332.267854 143.470073 
L 332.333224 146.568404 
L 332.594705 103.38383 
L 332.660075 130.467224 
L 332.725445 69.958737 
L 332.790815 110.042539 
L 332.856186 87.623926 
L 332.921556 165.231417 
L 332.986926 98.794539 
L 333.052296 171.36578 
L 333.117666 170.402937 
L 333.183037 113.786509 
L 333.248407 117.589287 
L 333.444517 150.086198 
L 333.509888 113.417967 
L 333.575258 142.609761 
L 333.640628 77.854688 
L 333.705998 117.225291 
L 333.902109 150.005971 
L 334.032849 103.33909 
L 334.16359 156.951285 
L 334.29433 103.913976 
L 334.3597 109.363952 
L 334.42507 176.347197 
L 334.49044 121.40414 
L 334.555811 176.803097 
L 334.686551 111.593324 
L 334.751921 113.810569 
L 334.817291 111.270796 
L 334.882662 117.451567 
L 335.013402 93.228905 
L 335.078772 76.092709 
L 335.209513 150.197968 
L 335.274883 151.282053 
L 335.340253 91.855256 
L 335.470993 194.06134 
L 335.667104 125.807312 
L 335.732474 177.80047 
L 335.797844 118.686268 
L 335.863215 188.893672 
L 335.928585 153.88031 
L 336.059325 92.458066 
L 336.124695 171.002171 
L 336.190066 127.444019 
L 336.320806 168.505289 
L 336.386176 86.462606 
L 336.451546 108.32149 
L 336.516917 96.708999 
L 336.713027 161.029389 
L 336.843768 86.746862 
L 336.909138 78.442541 
L 337.039878 164.126639 
L 337.105248 70.312283 
L 337.170619 134.119212 
L 337.235989 94.045869 
L 337.301359 137.239058 
L 337.49747 73.778287 
L 337.56284 82.577041 
L 337.62821 81.678142 
L 337.69358 174.302085 
L 337.75895 118.175589 
L 337.824321 121.551424 
L 337.889691 81.77363 
L 337.955061 121.045246 
L 338.020431 78.073239 
L 338.085801 146.497521 
L 338.151172 136.542534 
L 338.216542 86.159873 
L 338.281912 110.102658 
L 338.412652 163.045317 
L 338.608763 79.850527 
L 338.674133 133.50034 
L 338.739503 103.445579 
L 338.870244 145.273911 
L 338.935614 137.60764 
L 339.000984 77.427353 
L 339.197095 149.108224 
L 339.262465 90.806572 
L 339.327835 111.631398 
L 339.393205 164.859421 
L 339.458575 86.569548 
L 339.523946 129.008482 
L 339.589316 117.583559 
L 339.654686 127.609174 
L 339.720056 167.494197 
L 339.785426 66.441026 
L 339.850797 147.082288 
L 339.916167 125.232512 
L 339.981537 85.206344 
L 340.112277 159.095507 
L 340.243018 110.036688 
L 340.308388 109.781482 
L 340.373758 123.516236 
L 340.439128 107.732736 
L 340.504499 179.623276 
L 340.635239 86.759072 
L 340.700609 91.969183 
L 340.765979 77.330491 
L 340.83135 131.363252 
L 340.89672 104.991675 
L 340.96209 129.22187 
L 341.02746 93.349802 
L 341.09283 125.194131 
L 341.158201 104.794286 
L 341.223571 78.703251 
L 341.288941 176.731872 
L 341.354311 141.54497 
L 341.485052 101.449652 
L 341.550422 65.909946 
L 341.615792 68.523443 
L 341.681162 167.523977 
L 341.746532 108.14314 
L 341.811903 92.144835 
L 341.877273 141.305669 
L 341.942643 132.790071 
L 342.073383 89.428492 
L 342.138754 157.909522 
L 342.334864 79.936514 
L 342.465604 108.329974 
L 342.530975 86.501823 
L 342.596345 111.099632 
L 342.661715 91.224632 
L 342.727085 104.55076 
L 342.792455 92.657676 
L 342.857826 138.038291 
L 342.923196 135.180518 
L 342.988566 58.919761 
L 343.184677 142.993969 
L 343.315417 77.663851 
L 343.380787 107.268211 
L 343.446157 94.225768 
L 343.511528 61.874592 
L 343.576898 130.005695 
L 343.642268 98.076367 
L 343.838379 125.913718 
L 343.903749 80.437986 
L 343.969119 107.68768 
L 344.099859 183.898737 
L 344.16523 110.062913 
L 344.2306 134.613637 
L 344.36134 111.69076 
L 344.42671 117.908597 
L 344.492081 187.15241 
L 344.557451 166.957542 
L 344.622821 158.667869 
L 344.688191 102.753869 
L 344.753561 158.173948 
L 344.818932 87.68605 
L 344.884302 105.037546 
L 344.949672 111.049517 
L 345.015042 150.254251 
L 345.080412 69.007095 
L 345.211153 153.749694 
L 345.341893 114.429666 
L 345.407263 155.3778 
L 345.472634 107.017933 
L 345.538004 114.489817 
L 345.603374 100.486784 
L 345.668744 132.966473 
L 345.734114 94.575038 
L 345.799485 132.59812 
L 345.930225 58.726542 
L 345.995595 111.045699 
L 346.060965 110.353575 
L 346.126336 101.944907 
L 346.191706 144.104211 
L 346.257076 118.614356 
L 346.387816 58.27025 
L 346.453187 121.685666 
L 346.518557 85.655888 
L 346.649297 107.475436 
L 346.845408 44.831185 
L 347.041518 143.787759 
L 347.302999 63.726727 
L 347.433739 133.544039 
L 347.56448 71.028673 
L 347.62985 104.079591 
L 347.69522 94.87284 
L 347.76059 81.052122 
L 347.891331 98.34946 
L 347.956701 85.694332 
L 348.087441 106.819389 
L 348.152812 60.536881 
L 348.218182 98.06228 
L 348.348922 65.494897 
L 348.414292 100.563588 
L 348.479663 60.527812 
L 348.545033 89.157765 
L 348.610403 77.457771 
L 348.675773 81.097713 
L 348.806514 120.90584 
L 348.871884 91.034621 
L 349.002624 161.823834 
L 349.198735 65.326647 
L 349.329475 91.098321 
L 349.394845 182.882727 
L 349.460216 122.001764 
L 349.525586 137.193117 
L 349.590956 193.149053 
L 349.656326 107.491864 
L 349.721696 136.993912 
L 349.852437 82.899537 
L 349.917807 144.39048 
L 349.983177 119.184462 
L 350.113918 57.058692 
L 350.179288 115.698599 
L 350.244658 97.769938 
L 350.310028 105.138975 
L 350.375398 77.436203 
L 350.440769 165.61202 
L 350.506139 69.037827 
L 350.571509 71.566162 
L 350.702249 166.863639 
L 350.767619 159.593887 
L 350.89836 85.442695 
L 351.0291 81.854709 
L 351.09447 59.970603 
L 351.290581 135.321422 
L 351.355951 138.725763 
L 351.421321 151.944854 
L 351.617432 74.598755 
L 351.682802 185.672091 
L 351.748172 82.212901 
L 351.813543 152.535411 
L 351.944283 81.99193 
L 352.009653 107.706415 
L 352.075023 76.869842 
L 352.140394 144.35613 
L 352.205764 112.806395 
L 352.271134 125.498361 
L 352.336504 179.81774 
L 352.401874 144.599133 
L 352.467245 101.767637 
L 352.532615 148.135486 
L 352.597985 137.891567 
L 352.663355 55.745776 
L 352.859466 147.939525 
L 352.990206 71.139463 
L 353.120947 103.671317 
L 353.186317 82.611232 
L 353.251687 133.747657 
L 353.317057 117.189881 
L 353.447798 146.20663 
L 353.513168 99.037305 
L 353.578538 101.839908 
L 353.709278 121.49497 
L 353.840019 64.155675 
L 354.036129 178.883059 
L 354.23224 80.444676 
L 354.36298 114.0709 
L 354.428351 85.600791 
L 354.559091 168.838251 
L 354.624461 82.713294 
L 354.689831 107.366292 
L 354.755201 83.358096 
L 354.820572 108.684172 
L 354.885942 70.450563 
L 355.016682 152.28688 
L 355.082052 135.763941 
L 355.147423 79.303527 
L 355.212793 101.060804 
L 355.278163 104.560973 
L 355.343533 75.947096 
L 355.408903 155.438877 
L 355.474274 115.03076 
L 355.539644 100.725518 
L 355.605014 181.880821 
L 355.735754 79.69812 
L 355.801125 115.458556 
L 355.866495 82.177613 
L 355.931865 91.834428 
L 355.997235 91.537018 
L 356.127976 141.110333 
L 356.193346 192.164509 
L 356.258716 56.732147 
L 356.324086 106.361418 
L 356.389456 173.146674 
L 356.454827 156.905735 
L 356.716307 72.377543 
L 356.781678 115.434353 
L 356.847048 106.0286 
L 356.912418 65.579383 
L 357.043158 157.377583 
L 357.108529 148.012898 
L 357.239269 87.372773 
L 357.304639 140.795735 
L 357.370009 98.850858 
L 357.43538 103.593409 
L 357.50075 118.48323 
L 357.56612 58.921702 
L 357.63149 135.218409 
L 357.69686 97.111616 
L 357.762231 132.05263 
L 357.827601 73.453943 
L 357.958341 171.284206 
L 358.023711 113.930079 
L 358.089082 159.604736 
L 358.154452 97.817376 
L 358.219822 140.599059 
L 358.285192 147.143515 
L 358.350562 166.275811 
L 358.481303 78.345606 
L 358.546673 83.720091 
L 358.612043 149.292875 
L 358.677413 99.488308 
L 358.808154 150.193943 
L 358.873524 65.937805 
L 358.938894 100.353944 
L 359.004264 119.190217 
L 359.135005 70.940185 
L 359.200375 78.812302 
L 359.265745 57.851919 
L 359.331115 148.798733 
L 359.396485 125.896856 
L 359.461856 140.826467 
L 359.527226 184.361935 
L 359.723336 98.88276 
L 359.919447 132.862148 
L 359.984817 45.555558 
L 360.050187 140.381138 
L 360.115558 86.158632 
L 360.180928 152.244574 
L 360.246298 87.42121 
L 360.377038 191.143517 
L 360.442409 72.931362 
L 360.507779 104.094151 
L 360.573149 61.404273 
L 360.638519 74.232868 
L 360.703889 73.654652 
L 360.76926 70.003761 
L 360.9 190.598584 
L 360.96537 185.11621 
L 361.161481 64.042078 
L 361.226851 120.453247 
L 361.292221 114.234488 
L 361.357591 107.434481 
L 361.488332 130.047152 
L 361.684442 74.734389 
L 361.945923 161.674814 
L 362.076664 86.323866 
L 362.142034 127.628045 
L 362.207404 125.639578 
L 362.272774 89.544514 
L 362.338144 90.840519 
L 362.403515 116.164258 
L 362.468885 58.087896 
L 362.534255 94.79348 
L 362.730366 167.304383 
L 362.861106 96.331498 
L 362.926476 122.4802 
L 362.991846 89.373129 
L 363.057216 100.521817 
L 363.122587 96.548614 
L 363.253327 71.039875 
L 363.318697 84.601302 
L 363.384067 76.029796 
L 363.449438 146.097091 
L 363.514808 107.510804 
L 363.580178 109.000296 
L 363.645548 180.062816 
L 363.776289 67.606728 
L 363.841659 83.612931 
L 363.972399 153.673014 
L 364.037769 119.797063 
L 364.10314 168.564027 
L 364.16851 144.621247 
L 364.23388 133.316039 
L 364.36462 55.473272 
L 364.495361 139.546186 
L 364.626101 66.110239 
L 364.691471 121.399517 
L 364.756842 107.260052 
L 364.822212 109.987511 
L 364.887582 83.773074 
L 364.952952 149.243812 
L 365.018322 96.764563 
L 365.083693 148.309295 
L 365.149063 136.952082 
L 365.214433 135.133837 
L 365.345173 91.241181 
L 365.410544 106.103716 
L 365.475914 158.056881 
L 365.541284 89.613638 
L 365.606654 108.722939 
L 365.672024 187.30299 
L 365.737395 151.08541 
L 365.868135 105.018164 
L 365.933505 176.047926 
L 365.998875 157.094747 
L 366.064246 158.944665 
L 366.129616 74.585902 
L 366.194986 174.448204 
L 366.260356 80.168869 
L 366.325726 93.120796 
L 366.391097 70.740877 
L 366.521837 163.946866 
L 366.587207 146.354795 
L 366.652577 95.31469 
L 366.717948 108.87645 
L 366.783318 107.674719 
L 366.848688 74.020062 
L 366.914058 94.719568 
L 366.979428 153.462083 
L 367.044799 103.994921 
L 367.110169 138.556463 
L 367.175539 150.001858 
L 367.240909 77.251464 
L 367.306279 108.103297 
L 367.371649 111.19826 
L 367.43702 104.825417 
L 367.50239 137.375939 
L 367.56776 103.212927 
L 367.63313 160.202664 
L 367.6985 153.562103 
L 367.829241 45.744829 
L 367.894611 189.485978 
L 367.959981 173.330833 
L 368.090722 95.111881 
L 368.156092 121.089727 
L 368.221462 156.282628 
L 368.286832 115.819361 
L 368.352202 165.80448 
L 368.417573 131.212948 
L 368.613683 72.891727 
L 368.744424 78.414059 
L 368.809794 105.272418 
L 368.940534 75.632785 
L 369.005904 73.25195 
L 369.202015 143.970262 
L 369.267385 122.468693 
L 369.398126 148.837889 
L 369.463496 61.76219 
L 369.528866 63.892689 
L 369.659606 113.807562 
L 369.724977 61.603514 
L 369.790347 65.88845 
L 369.921087 99.18808 
L 369.986457 44.910613 
L 370.051828 117.526894 
L 370.117198 81.491985 
L 370.182568 88.476067 
L 370.247938 75.387019 
L 370.313308 103.57096 
L 370.378679 82.509739 
L 370.444049 115.360534 
L 370.509419 61.79268 
L 370.640159 149.721589 
L 370.70553 86.221408 
L 370.7709 150.498637 
L 370.83627 111.375504 
L 370.90164 54.382057 
L 371.032381 105.544598 
L 371.097751 109.533615 
L 371.163121 63.672097 
L 371.228491 93.571752 
L 371.293861 71.302082 
L 371.359231 122.266012 
L 371.424602 100.855611 
L 371.489972 80.209795 
L 371.686082 128.099473 
L 371.751453 99.285144 
L 371.882193 135.793057 
L 372.078304 55.742401 
L 372.143674 102.259423 
L 372.209044 85.660947 
L 372.405155 109.662964 
L 372.535895 56.711782 
L 372.732006 100.566726 
L 372.862746 86.029085 
L 372.928116 109.25561 
L 373.124227 62.572295 
L 373.189597 92.565828 
L 373.254967 76.538479 
L 373.516448 52.332566 
L 373.581818 63.013421 
L 373.581818 63.013421 
" style="fill:none;stroke:#1f77b4;stroke-linecap:square;stroke-width:1.5;"/>
   </g>
   <g id="patch_3">
    <path d="M 54 252 
L 54 34.56 
" style="fill:none;stroke:#000000;stroke-linecap:square;stroke-linejoin:miter;stroke-width:0.8;"/>
   </g>
   <g id="patch_4">
    <path d="M 388.8 252 
L 388.8 34.56 
" style="fill:none;stroke:#000000;stroke-linecap:square;stroke-linejoin:miter;stroke-width:0.8;"/>
   </g>
   <g id="patch_5">
    <path d="M 54 252 
L 388.8 252 
" style="fill:none;stroke:#000000;stroke-linecap:square;stroke-linejoin:miter;stroke-width:0.8;"/>
   </g>
   <g id="patch_6">
    <path d="M 54 34.56 
L 388.8 34.56 
" style="fill:none;stroke:#000000;stroke-linecap:square;stroke-linejoin:miter;stroke-width:0.8;"/>
   </g>
  </g>
 </g>
 <defs>
  <clipPath id="p5bb66f2219">
   <rect height="217.44" width="334.8" x="54" y="34.56"/>
  </clipPath>
 </defs>
</svg>
