<?xml version="1.0" encoding="utf-8" standalone="no"?>
<!DOCTYPE svg PUBLIC "-//W3C//DTD SVG 1.1//EN"
  "http://www.w3.org/Graphics/SVG/1.1/DTD/svg11.dtd">
<!-- Created with matplotlib (https://matplotlib.org/) -->
<svg height="288pt" version="1.1" viewBox="0 0 432 288" width="432pt" xmlns="http://www.w3.org/2000/svg" xmlns:xlink="http://www.w3.org/1999/xlink">
 <defs>
  <style type="text/css">
*{stroke-linecap:butt;stroke-linejoin:round;}
  </style>
 </defs>
 <g id="figure_1">
  <g id="patch_1">
   <path d="M 0 288 
L 432 288 
L 432 0 
L 0 0 
z
" style="fill:#ffffff;"/>
  </g>
  <g id="axes_1">
   <g id="patch_2">
    <path d="M 54 252 
L 388.8 252 
L 388.8 34.56 
L 54 34.56 
z
" style="fill:#ffffff;"/>
   </g>
   <g id="matplotlib.axis_1">
    <g id="xtick_1">
     <g id="line2d_1">
      <defs>
       <path d="M 0 0 
L 0 3.5 
" id="m50046580fc" style="stroke:#000000;stroke-width:0.8;"/>
      </defs>
      <g>
       <use style="stroke:#000000;stroke-width:0.8;" x="69.218182" xlink:href="#m50046580fc" y="252"/>
      </g>
     </g>
     <g id="text_1">
      <!-- 0 -->
      <defs>
       <path d="M 31.78125 66.40625 
Q 24.171875 66.40625 20.328125 58.90625 
Q 16.5 51.421875 16.5 36.375 
Q 16.5 21.390625 20.328125 13.890625 
Q 24.171875 6.390625 31.78125 6.390625 
Q 39.453125 6.390625 43.28125 13.890625 
Q 47.125 21.390625 47.125 36.375 
Q 47.125 51.421875 43.28125 58.90625 
Q 39.453125 66.40625 31.78125 66.40625 
z
M 31.78125 74.21875 
Q 44.046875 74.21875 50.515625 64.515625 
Q 56.984375 54.828125 56.984375 36.375 
Q 56.984375 17.96875 50.515625 8.265625 
Q 44.046875 -1.421875 31.78125 -1.421875 
Q 19.53125 -1.421875 13.0625 8.265625 
Q 6.59375 17.96875 6.59375 36.375 
Q 6.59375 54.828125 13.0625 64.515625 
Q 19.53125 74.21875 31.78125 74.21875 
z
" id="DejaVuSans-48"/>
      </defs>
      <g transform="translate(66.036932 266.598437)scale(0.1 -0.1)">
       <use xlink:href="#DejaVuSans-48"/>
      </g>
     </g>
    </g>
    <g id="xtick_2">
     <g id="line2d_2">
      <g>
       <use style="stroke:#000000;stroke-width:0.8;" x="106.481115" xlink:href="#m50046580fc" y="252"/>
      </g>
     </g>
     <g id="text_2">
      <!-- 250 -->
      <defs>
       <path d="M 19.1875 8.296875 
L 53.609375 8.296875 
L 53.609375 0 
L 7.328125 0 
L 7.328125 8.296875 
Q 12.9375 14.109375 22.625 23.890625 
Q 32.328125 33.6875 34.8125 36.53125 
Q 39.546875 41.84375 41.421875 45.53125 
Q 43.3125 49.21875 43.3125 52.78125 
Q 43.3125 58.59375 39.234375 62.25 
Q 35.15625 65.921875 28.609375 65.921875 
Q 23.96875 65.921875 18.8125 64.3125 
Q 13.671875 62.703125 7.8125 59.421875 
L 7.8125 69.390625 
Q 13.765625 71.78125 18.9375 73 
Q 24.125 74.21875 28.421875 74.21875 
Q 39.75 74.21875 46.484375 68.546875 
Q 53.21875 62.890625 53.21875 53.421875 
Q 53.21875 48.921875 51.53125 44.890625 
Q 49.859375 40.875 45.40625 35.40625 
Q 44.1875 33.984375 37.640625 27.21875 
Q 31.109375 20.453125 19.1875 8.296875 
z
" id="DejaVuSans-50"/>
       <path d="M 10.796875 72.90625 
L 49.515625 72.90625 
L 49.515625 64.59375 
L 19.828125 64.59375 
L 19.828125 46.734375 
Q 21.96875 47.46875 24.109375 47.828125 
Q 26.265625 48.1875 28.421875 48.1875 
Q 40.625 48.1875 47.75 41.5 
Q 54.890625 34.8125 54.890625 23.390625 
Q 54.890625 11.625 47.5625 5.09375 
Q 40.234375 -1.421875 26.90625 -1.421875 
Q 22.3125 -1.421875 17.546875 -0.640625 
Q 12.796875 0.140625 7.71875 1.703125 
L 7.71875 11.625 
Q 12.109375 9.234375 16.796875 8.0625 
Q 21.484375 6.890625 26.703125 6.890625 
Q 35.15625 6.890625 40.078125 11.328125 
Q 45.015625 15.765625 45.015625 23.390625 
Q 45.015625 31 40.078125 35.4375 
Q 35.15625 39.890625 26.703125 39.890625 
Q 22.75 39.890625 18.8125 39.015625 
Q 14.890625 38.140625 10.796875 36.28125 
z
" id="DejaVuSans-53"/>
      </defs>
      <g transform="translate(96.937365 266.598437)scale(0.1 -0.1)">
       <use xlink:href="#DejaVuSans-50"/>
       <use x="63.623047" xlink:href="#DejaVuSans-53"/>
       <use x="127.246094" xlink:href="#DejaVuSans-48"/>
      </g>
     </g>
    </g>
    <g id="xtick_3">
     <g id="line2d_3">
      <g>
       <use style="stroke:#000000;stroke-width:0.8;" x="143.744048" xlink:href="#m50046580fc" y="252"/>
      </g>
     </g>
     <g id="text_3">
      <!-- 500 -->
      <g transform="translate(134.200298 266.598437)scale(0.1 -0.1)">
       <use xlink:href="#DejaVuSans-53"/>
       <use x="63.623047" xlink:href="#DejaVuSans-48"/>
       <use x="127.246094" xlink:href="#DejaVuSans-48"/>
      </g>
     </g>
    </g>
    <g id="xtick_4">
     <g id="line2d_4">
      <g>
       <use style="stroke:#000000;stroke-width:0.8;" x="181.006981" xlink:href="#m50046580fc" y="252"/>
      </g>
     </g>
     <g id="text_4">
      <!-- 750 -->
      <defs>
       <path d="M 8.203125 72.90625 
L 55.078125 72.90625 
L 55.078125 68.703125 
L 28.609375 0 
L 18.3125 0 
L 43.21875 64.59375 
L 8.203125 64.59375 
z
" id="DejaVuSans-55"/>
      </defs>
      <g transform="translate(171.463231 266.598437)scale(0.1 -0.1)">
       <use xlink:href="#DejaVuSans-55"/>
       <use x="63.623047" xlink:href="#DejaVuSans-53"/>
       <use x="127.246094" xlink:href="#DejaVuSans-48"/>
      </g>
     </g>
    </g>
    <g id="xtick_5">
     <g id="line2d_5">
      <g>
       <use style="stroke:#000000;stroke-width:0.8;" x="218.269914" xlink:href="#m50046580fc" y="252"/>
      </g>
     </g>
     <g id="text_5">
      <!-- 1000 -->
      <defs>
       <path d="M 12.40625 8.296875 
L 28.515625 8.296875 
L 28.515625 63.921875 
L 10.984375 60.40625 
L 10.984375 69.390625 
L 28.421875 72.90625 
L 38.28125 72.90625 
L 38.28125 8.296875 
L 54.390625 8.296875 
L 54.390625 0 
L 12.40625 0 
z
" id="DejaVuSans-49"/>
      </defs>
      <g transform="translate(205.544914 266.598437)scale(0.1 -0.1)">
       <use xlink:href="#DejaVuSans-49"/>
       <use x="63.623047" xlink:href="#DejaVuSans-48"/>
       <use x="127.246094" xlink:href="#DejaVuSans-48"/>
       <use x="190.869141" xlink:href="#DejaVuSans-48"/>
      </g>
     </g>
    </g>
    <g id="xtick_6">
     <g id="line2d_6">
      <g>
       <use style="stroke:#000000;stroke-width:0.8;" x="255.532847" xlink:href="#m50046580fc" y="252"/>
      </g>
     </g>
     <g id="text_6">
      <!-- 1250 -->
      <g transform="translate(242.807847 266.598437)scale(0.1 -0.1)">
       <use xlink:href="#DejaVuSans-49"/>
       <use x="63.623047" xlink:href="#DejaVuSans-50"/>
       <use x="127.246094" xlink:href="#DejaVuSans-53"/>
       <use x="190.869141" xlink:href="#DejaVuSans-48"/>
      </g>
     </g>
    </g>
    <g id="xtick_7">
     <g id="line2d_7">
      <g>
       <use style="stroke:#000000;stroke-width:0.8;" x="292.79578" xlink:href="#m50046580fc" y="252"/>
      </g>
     </g>
     <g id="text_7">
      <!-- 1500 -->
      <g transform="translate(280.07078 266.598437)scale(0.1 -0.1)">
       <use xlink:href="#DejaVuSans-49"/>
       <use x="63.623047" xlink:href="#DejaVuSans-53"/>
       <use x="127.246094" xlink:href="#DejaVuSans-48"/>
       <use x="190.869141" xlink:href="#DejaVuSans-48"/>
      </g>
     </g>
    </g>
    <g id="xtick_8">
     <g id="line2d_8">
      <g>
       <use style="stroke:#000000;stroke-width:0.8;" x="330.058712" xlink:href="#m50046580fc" y="252"/>
      </g>
     </g>
     <g id="text_8">
      <!-- 1750 -->
      <g transform="translate(317.333712 266.598437)scale(0.1 -0.1)">
       <use xlink:href="#DejaVuSans-49"/>
       <use x="63.623047" xlink:href="#DejaVuSans-55"/>
       <use x="127.246094" xlink:href="#DejaVuSans-53"/>
       <use x="190.869141" xlink:href="#DejaVuSans-48"/>
      </g>
     </g>
    </g>
    <g id="xtick_9">
     <g id="line2d_9">
      <g>
       <use style="stroke:#000000;stroke-width:0.8;" x="367.321645" xlink:href="#m50046580fc" y="252"/>
      </g>
     </g>
     <g id="text_9">
      <!-- 2000 -->
      <g transform="translate(354.596645 266.598437)scale(0.1 -0.1)">
       <use xlink:href="#DejaVuSans-50"/>
       <use x="63.623047" xlink:href="#DejaVuSans-48"/>
       <use x="127.246094" xlink:href="#DejaVuSans-48"/>
       <use x="190.869141" xlink:href="#DejaVuSans-48"/>
      </g>
     </g>
    </g>
   </g>
   <g id="matplotlib.axis_2">
    <g id="ytick_1">
     <g id="line2d_10">
      <defs>
       <path d="M 0 0 
L -3.5 0 
" id="me0539fdc1d" style="stroke:#000000;stroke-width:0.8;"/>
      </defs>
      <g>
       <use style="stroke:#000000;stroke-width:0.8;" x="54" xlink:href="#me0539fdc1d" y="244.566401"/>
      </g>
     </g>
     <g id="text_10">
      <!-- 0 -->
      <g transform="translate(40.6375 248.365619)scale(0.1 -0.1)">
       <use xlink:href="#DejaVuSans-48"/>
      </g>
     </g>
    </g>
    <g id="ytick_2">
     <g id="line2d_11">
      <g>
       <use style="stroke:#000000;stroke-width:0.8;" x="54" xlink:href="#me0539fdc1d" y="204.937112"/>
      </g>
     </g>
     <g id="text_11">
      <!-- 1 -->
      <g transform="translate(40.6375 208.736331)scale(0.1 -0.1)">
       <use xlink:href="#DejaVuSans-49"/>
      </g>
     </g>
    </g>
    <g id="ytick_3">
     <g id="line2d_12">
      <g>
       <use style="stroke:#000000;stroke-width:0.8;" x="54" xlink:href="#me0539fdc1d" y="165.307824"/>
      </g>
     </g>
     <g id="text_12">
      <!-- 2 -->
      <g transform="translate(40.6375 169.107043)scale(0.1 -0.1)">
       <use xlink:href="#DejaVuSans-50"/>
      </g>
     </g>
    </g>
    <g id="ytick_4">
     <g id="line2d_13">
      <g>
       <use style="stroke:#000000;stroke-width:0.8;" x="54" xlink:href="#me0539fdc1d" y="125.678536"/>
      </g>
     </g>
     <g id="text_13">
      <!-- 3 -->
      <defs>
       <path d="M 40.578125 39.3125 
Q 47.65625 37.796875 51.625 33 
Q 55.609375 28.21875 55.609375 21.1875 
Q 55.609375 10.40625 48.1875 4.484375 
Q 40.765625 -1.421875 27.09375 -1.421875 
Q 22.515625 -1.421875 17.65625 -0.515625 
Q 12.796875 0.390625 7.625 2.203125 
L 7.625 11.71875 
Q 11.71875 9.328125 16.59375 8.109375 
Q 21.484375 6.890625 26.8125 6.890625 
Q 36.078125 6.890625 40.9375 10.546875 
Q 45.796875 14.203125 45.796875 21.1875 
Q 45.796875 27.640625 41.28125 31.265625 
Q 36.765625 34.90625 28.71875 34.90625 
L 20.21875 34.90625 
L 20.21875 43.015625 
L 29.109375 43.015625 
Q 36.375 43.015625 40.234375 45.921875 
Q 44.09375 48.828125 44.09375 54.296875 
Q 44.09375 59.90625 40.109375 62.90625 
Q 36.140625 65.921875 28.71875 65.921875 
Q 24.65625 65.921875 20.015625 65.03125 
Q 15.375 64.15625 9.8125 62.3125 
L 9.8125 71.09375 
Q 15.4375 72.65625 20.34375 73.4375 
Q 25.25 74.21875 29.59375 74.21875 
Q 40.828125 74.21875 47.359375 69.109375 
Q 53.90625 64.015625 53.90625 55.328125 
Q 53.90625 49.265625 50.4375 45.09375 
Q 46.96875 40.921875 40.578125 39.3125 
z
" id="DejaVuSans-51"/>
      </defs>
      <g transform="translate(40.6375 129.477754)scale(0.1 -0.1)">
       <use xlink:href="#DejaVuSans-51"/>
      </g>
     </g>
    </g>
    <g id="ytick_5">
     <g id="line2d_14">
      <g>
       <use style="stroke:#000000;stroke-width:0.8;" x="54" xlink:href="#me0539fdc1d" y="86.049247"/>
      </g>
     </g>
     <g id="text_14">
      <!-- 4 -->
      <defs>
       <path d="M 37.796875 64.3125 
L 12.890625 25.390625 
L 37.796875 25.390625 
z
M 35.203125 72.90625 
L 47.609375 72.90625 
L 47.609375 25.390625 
L 58.015625 25.390625 
L 58.015625 17.1875 
L 47.609375 17.1875 
L 47.609375 0 
L 37.796875 0 
L 37.796875 17.1875 
L 4.890625 17.1875 
L 4.890625 26.703125 
z
" id="DejaVuSans-52"/>
      </defs>
      <g transform="translate(40.6375 89.848466)scale(0.1 -0.1)">
       <use xlink:href="#DejaVuSans-52"/>
      </g>
     </g>
    </g>
    <g id="ytick_6">
     <g id="line2d_15">
      <g>
       <use style="stroke:#000000;stroke-width:0.8;" x="54" xlink:href="#me0539fdc1d" y="46.419959"/>
      </g>
     </g>
     <g id="text_15">
      <!-- 5 -->
      <g transform="translate(40.6375 50.219178)scale(0.1 -0.1)">
       <use xlink:href="#DejaVuSans-53"/>
      </g>
     </g>
    </g>
   </g>
   <g id="line2d_16">
    <path clip-path="url(#pe739346503)" d="M 69.218182 98.387297 
L 69.367234 70.011084 
L 69.516285 119.502824 
L 69.665337 84.310504 
L 69.814389 82.080767 
L 69.96344 112.101244 
L 70.261544 61.017328 
L 70.410596 77.711959 
L 70.559647 74.881703 
L 70.857751 66.796261 
L 71.155854 135.380913 
L 71.304906 58.356326 
L 71.453958 88.238928 
L 71.60301 87.518415 
L 71.752061 102.717342 
L 71.901113 90.409098 
L 72.050165 62.613539 
L 72.199216 126.465456 
L 72.348268 67.193517 
L 72.49732 68.151959 
L 72.646372 106.350576 
L 72.795423 70.283981 
L 73.093527 136.780451 
L 73.242579 49.690187 
L 73.39163 117.718818 
L 73.689734 66.681133 
L 73.987837 118.478551 
L 74.136889 105.832991 
L 74.285941 83.10331 
L 74.434992 105.323738 
L 74.584044 53.771396 
L 74.733096 70.547023 
L 74.882148 101.63739 
L 75.329303 60.54517 
L 75.478355 75.1642 
L 75.627406 63.958777 
L 75.92551 114.12238 
L 76.074561 89.422151 
L 76.223613 109.386136 
L 76.372665 82.663111 
L 76.521717 98.146472 
L 76.670768 90.670411 
L 76.81982 95.702253 
L 76.968872 87.328031 
L 77.117924 88.495597 
L 77.266975 122.147845 
L 77.565079 73.863246 
L 77.714131 114.852748 
L 77.863182 122.592026 
L 78.012234 111.886408 
L 78.161286 76.360541 
L 78.310337 89.693715 
L 78.459389 73.677141 
L 78.608441 79.575638 
L 78.757493 79.838331 
L 78.906544 92.950711 
L 79.055596 70.907308 
L 79.3537 106.066086 
L 79.502751 73.897926 
L 79.651803 79.764832 
L 79.949907 126.582361 
L 80.098958 114.91231 
L 80.24801 65.491783 
L 80.397062 122.445425 
L 80.546113 81.971128 
L 80.844217 112.212867 
L 80.993269 78.05022 
L 81.14232 121.756881 
L 81.291372 80.274817 
L 81.440424 104.900338 
L 81.738527 81.283259 
L 81.887579 104.356713 
L 82.036631 109.500404 
L 82.185682 98.546544 
L 82.483786 100.406293 
L 82.781889 142.182924 
L 82.930941 72.632493 
L 83.378096 126.028323 
L 83.527148 74.828452 
L 83.825252 130.064152 
L 83.974303 121.291724 
L 84.123355 85.42233 
L 84.272407 104.883138 
L 84.421458 105.336541 
L 84.57051 130.583207 
L 84.719562 100.612645 
L 84.868614 106.747511 
L 85.017665 90.941877 
L 85.315769 117.67134 
L 85.464821 117.306954 
L 85.762924 139.797473 
L 85.911976 97.03424 
L 86.061028 117.434914 
L 86.210079 110.432248 
L 86.359131 80.852395 
L 86.508183 105.856489 
L 86.657234 84.51533 
L 86.806286 85.2871 
L 87.10439 124.430691 
L 87.253441 88.321946 
L 87.402493 92.031017 
L 87.551545 157.188675 
L 87.700597 90.617463 
L 88.147752 150.549275 
L 88.296803 120.394503 
L 88.445855 137.891063 
L 88.743959 116.212655 
L 88.89301 69.049964 
L 89.042062 105.401711 
L 89.340166 55.335865 
L 89.489217 126.247355 
L 89.638269 136.891252 
L 89.936373 118.230886 
L 90.085424 102.974016 
L 90.383528 143.75566 
L 90.532579 84.750433 
L 90.681631 78.739714 
L 90.830683 137.835861 
L 90.979735 115.333816 
L 91.128786 129.331403 
L 91.277838 107.763843 
L 91.42689 127.46189 
L 91.575942 121.213024 
L 91.724993 100.495646 
L 91.874045 134.729501 
L 92.023097 59.327962 
L 92.172149 128.674157 
L 92.3212 44.443636 
L 92.619304 149.685412 
L 92.768355 111.592899 
L 92.917407 108.680579 
L 93.066459 139.625404 
L 93.215511 114.666313 
L 93.364562 116.451897 
L 93.513614 92.200412 
L 93.662666 139.848837 
L 93.811718 142.50439 
L 93.960769 98.775978 
L 94.109821 129.469123 
L 94.407924 124.611055 
L 94.556976 92.126899 
L 94.706028 136.915053 
L 94.85508 77.069886 
L 95.004131 139.087141 
L 95.153183 143.717077 
L 95.302235 121.895951 
L 95.451287 138.718173 
L 95.600338 142.90021 
L 95.898442 96.255213 
L 96.047494 124.170112 
L 96.345597 109.209102 
L 96.494649 105.955172 
L 96.6437 108.389636 
L 96.941804 141.733489 
L 97.090856 107.71979 
L 97.388959 150.599545 
L 97.538011 90.743754 
L 97.836114 148.286663 
L 97.985166 112.333107 
L 98.134218 128.606624 
L 98.28327 96.00263 
L 98.432321 110.178362 
L 98.581373 153.621834 
L 98.730425 127.791822 
L 98.879476 123.015109 
L 99.028528 152.364059 
L 99.17758 130.450713 
L 99.326632 141.23403 
L 99.624735 78.88005 
L 99.922839 145.866725 
L 100.07189 150.475148 
L 100.369994 79.480696 
L 100.519045 133.096461 
L 100.668097 140.042828 
L 100.817149 128.276466 
L 100.966201 142.152996 
L 101.115252 139.716175 
L 101.264304 120.315775 
L 101.413356 153.477591 
L 101.562408 116.594303 
L 101.711459 159.311862 
L 101.860511 152.51596 
L 102.009563 81.826936 
L 102.307666 133.322059 
L 102.456718 142.741189 
L 102.754821 127.869128 
L 102.903873 117.477904 
L 103.052925 117.236474 
L 103.201977 76.738301 
L 103.351028 140.96263 
L 103.50008 136.149367 
L 103.798184 106.958446 
L 103.947235 157.844405 
L 104.096287 138.550299 
L 104.245339 144.076724 
L 104.394391 117.132623 
L 104.543442 112.52009 
L 104.692494 115.809413 
L 104.841546 84.95893 
L 105.139649 157.737312 
L 105.288701 72.915594 
L 105.586804 138.092706 
L 105.735856 136.472657 
L 105.884908 129.540826 
L 106.03396 129.858357 
L 106.332063 145.374896 
L 106.481115 138.223202 
L 106.630167 122.053659 
L 106.92827 135.877136 
L 107.226373 127.830909 
L 107.524477 152.241183 
L 107.673529 129.316914 
L 107.82258 161.320191 
L 107.971632 132.773969 
L 108.120684 138.591416 
L 108.418787 154.481791 
L 108.567839 137.342733 
L 108.716891 136.743674 
L 108.865942 95.193685 
L 109.164046 170.995568 
L 109.313098 113.441806 
L 109.462149 148.377494 
L 109.611201 122.577273 
L 109.760253 144.793123 
L 109.909305 121.950421 
L 110.058356 141.735695 
L 110.207408 128.081962 
L 110.35646 127.473984 
L 110.505512 139.649672 
L 110.654563 137.388501 
L 110.803615 148.850682 
L 110.952667 100.729738 
L 111.101718 145.732847 
L 111.399822 130.600771 
L 111.697925 182.407867 
L 111.846977 174.972044 
L 112.145081 136.246567 
L 112.294132 145.439315 
L 112.443184 144.426465 
L 112.592236 174.369473 
L 112.741288 155.222547 
L 112.890339 168.173091 
L 113.039391 137.14658 
L 113.337494 164.341002 
L 113.635598 156.430014 
L 113.78465 123.559977 
L 113.933701 152.928022 
L 114.231805 167.939815 
L 114.380857 160.063253 
L 114.529908 120.930669 
L 114.828012 158.450182 
L 114.977063 164.596197 
L 115.126115 177.267802 
L 115.275167 163.233675 
L 115.424219 161.843912 
L 115.57327 187.880609 
L 115.722322 154.142571 
L 115.871374 165.994023 
L 116.020426 157.671845 
L 116.169477 164.885123 
L 116.467581 145.647963 
L 116.765684 160.3364 
L 116.914736 130.369702 
L 117.063788 151.410195 
L 117.212839 148.126012 
L 117.361891 147.30922 
L 117.510943 153.645131 
L 117.809046 188.68107 
L 117.958098 178.975361 
L 118.10715 151.835086 
L 118.405253 178.197924 
L 118.554305 170.797944 
L 118.703357 179.840148 
L 119.00146 142.109609 
L 119.150512 193.061161 
L 119.299564 161.554572 
L 119.597667 181.264259 
L 119.746719 164.198058 
L 119.895771 169.171324 
L 120.044822 199.068361 
L 120.342926 141.778203 
L 120.491978 168.294967 
L 120.641029 172.639278 
L 120.790081 171.009417 
L 120.939133 186.890424 
L 121.088184 170.623312 
L 121.237236 170.290728 
L 121.386288 199.137868 
L 121.833443 162.446202 
L 122.131547 194.063514 
L 122.42965 180.822104 
L 122.578702 190.209136 
L 122.727754 170.142292 
L 122.876805 187.294393 
L 123.025857 154.377887 
L 123.174909 181.880597 
L 123.32396 177.103537 
L 123.473012 184.401124 
L 123.771116 186.791584 
L 123.920167 199.234685 
L 124.069219 170.818773 
L 124.218271 173.075225 
L 124.367323 164.816745 
L 124.516374 198.71392 
L 124.665426 203.379359 
L 124.814478 197.545726 
L 124.96353 174.73769 
L 125.261633 186.580255 
L 125.410685 193.665027 
L 125.708788 186.113497 
L 125.85784 170.318692 
L 126.006892 189.010546 
L 126.155943 181.107029 
L 126.304995 157.751381 
L 126.454047 184.262861 
L 126.603099 186.417937 
L 126.901202 205.670341 
L 127.050254 192.146491 
L 127.199305 167.435505 
L 127.348357 202.224746 
L 127.497409 170.796765 
L 127.646461 187.533278 
L 127.795512 187.953903 
L 127.944564 190.233629 
L 128.093616 201.484264 
L 128.242668 181.214162 
L 128.391719 202.630104 
L 128.540771 178.59584 
L 128.689823 188.684738 
L 128.838875 179.117794 
L 128.987926 213.281456 
L 129.136978 183.293105 
L 129.28603 186.301028 
L 129.435081 186.889982 
L 129.584133 182.760617 
L 129.733185 185.05136 
L 129.882237 179.381721 
L 130.031288 191.732389 
L 130.18034 190.253352 
L 130.329392 183.71831 
L 130.478444 200.338456 
L 130.627495 174.736787 
L 130.776547 202.080302 
L 130.925599 198.70082 
L 131.074651 190.617515 
L 131.223702 192.278442 
L 131.372754 189.768649 
L 131.521806 193.508562 
L 131.670857 189.54713 
L 131.819909 156.416857 
L 132.267064 193.619057 
L 132.416116 189.403557 
L 132.565168 178.375405 
L 133.012323 205.493703 
L 133.161375 206.990335 
L 133.459478 191.327093 
L 133.757582 178.108781 
L 133.906633 199.570544 
L 134.055685 193.407219 
L 134.204737 192.491386 
L 134.353789 201.268395 
L 134.651892 206.210912 
L 134.800944 211.475071 
L 134.949996 197.177882 
L 135.099047 198.615948 
L 135.248099 205.260556 
L 135.397151 198.249082 
L 135.546202 207.422397 
L 135.695254 205.450718 
L 135.844306 205.460384 
L 135.993358 204.069676 
L 136.291461 188.962645 
L 136.440513 187.643642 
L 136.589565 206.945135 
L 136.738616 197.207828 
L 136.887668 206.027114 
L 137.03672 207.47213 
L 137.185772 206.090509 
L 137.334823 211.39109 
L 137.632927 202.645335 
L 137.781978 211.049649 
L 137.93103 200.524507 
L 138.229134 208.757145 
L 138.378185 207.977187 
L 138.527237 211.739945 
L 138.676289 218.357778 
L 138.825341 209.788353 
L 138.974392 212.387876 
L 139.123444 209.041453 
L 139.272496 196.542583 
L 139.421548 214.077985 
L 139.570599 201.880626 
L 139.719651 199.53871 
L 139.868703 213.131506 
L 140.017754 201.016165 
L 140.166806 212.858235 
L 140.315858 205.696548 
L 140.46491 216.884479 
L 140.613961 211.644345 
L 140.763013 217.466631 
L 140.912065 205.022091 
L 141.061117 210.594277 
L 141.210168 199.829844 
L 141.35922 216.117008 
L 141.508272 204.718161 
L 141.806375 220.697877 
L 141.955427 213.267116 
L 142.104479 218.885024 
L 142.25353 213.013672 
L 142.402582 201.915905 
L 142.700686 217.619852 
L 142.849737 215.855378 
L 142.998789 217.715681 
L 143.147841 222.089186 
L 143.296893 206.8609 
L 143.445944 210.583353 
L 143.594996 209.533877 
L 143.744048 214.747512 
L 143.893099 205.742445 
L 144.191203 222.982504 
L 144.340255 201.417429 
L 144.638358 221.299288 
L 144.78741 212.688478 
L 145.085513 225.612251 
L 145.234565 208.384119 
L 145.383617 211.304105 
L 145.532669 225.87251 
L 145.68172 220.4478 
L 145.830772 225.970572 
L 145.979824 219.957141 
L 146.128875 219.278923 
L 146.277927 222.239917 
L 146.576031 219.838945 
L 146.874134 225.71273 
L 147.023186 221.096803 
L 147.172238 223.169915 
L 147.321289 227.15273 
L 147.470341 226.861666 
L 147.768444 220.535327 
L 147.917496 210.114517 
L 148.066548 224.584756 
L 148.2156 214.811861 
L 148.364651 223.11773 
L 148.662755 223.995538 
L 148.811807 230.717529 
L 148.960858 222.979315 
L 149.10991 228.610713 
L 149.258962 229.362429 
L 149.408014 231.599338 
L 149.706117 228.135427 
L 149.855169 222.828081 
L 150.00422 229.699937 
L 150.153272 225.687804 
L 150.451376 233.963078 
L 150.600427 221.596797 
L 150.898531 231.084803 
L 151.047583 229.650827 
L 151.196634 220.579949 
L 151.345686 221.29943 
L 151.64379 227.469496 
L 151.792841 225.329488 
L 151.941893 219.017099 
L 152.090945 226.575283 
L 152.239996 219.886681 
L 152.389048 225.630703 
L 152.5381 224.012305 
L 152.836203 233.811482 
L 152.985255 224.823769 
L 153.134307 227.797794 
L 153.283359 219.28581 
L 153.730514 228.429864 
L 153.879565 221.255795 
L 154.028617 223.406393 
L 154.177669 228.806726 
L 154.326721 229.242494 
L 154.475772 231.464483 
L 154.624824 224.278705 
L 154.773876 226.545008 
L 154.922928 232.636289 
L 155.071979 221.418547 
L 155.519135 232.362097 
L 155.668186 231.222286 
L 155.817238 231.291389 
L 155.96629 231.193746 
L 156.115341 232.937148 
L 156.264393 221.019265 
L 156.413445 224.555175 
L 156.562497 223.968522 
L 156.711548 221.270079 
L 157.009652 232.895495 
L 157.158704 228.192151 
L 157.307755 227.468592 
L 157.456807 230.672039 
L 157.605859 227.420895 
L 157.754911 228.341993 
L 157.903962 228.393109 
L 158.053014 230.133132 
L 158.202066 229.718167 
L 158.351117 227.88589 
L 158.500169 231.908247 
L 158.649221 226.72489 
L 158.798273 228.100663 
L 158.947324 228.438656 
L 159.096376 229.530951 
L 159.39448 227.456002 
L 159.841635 227.103205 
L 159.990686 232.678547 
L 160.437842 225.354481 
L 160.586893 226.964986 
L 160.735945 226.1929 
L 160.884997 224.113103 
L 161.034049 232.02701 
L 161.1831 221.37383 
L 161.332152 232.604283 
L 161.481204 227.133917 
L 161.779307 233.419887 
L 161.928359 227.115015 
L 162.077411 234.080616 
L 162.375514 230.308183 
L 162.524566 223.688655 
L 162.673618 233.61172 
L 162.822669 231.25821 
L 162.971721 233.271771 
L 163.269825 231.383341 
L 163.418876 227.327914 
L 163.866032 234.531433 
L 164.015083 234.007068 
L 164.164135 228.774528 
L 164.313187 235.026494 
L 164.462238 233.946278 
L 164.61129 229.985055 
L 164.760342 230.598107 
L 164.909394 233.669674 
L 165.058445 227.013667 
L 165.207497 233.277732 
L 165.505601 228.975897 
L 165.654652 230.617115 
L 165.803704 230.323804 
L 165.952756 232.538431 
L 166.101807 231.115151 
L 166.250859 227.401174 
L 166.548963 232.282259 
L 166.698014 232.318075 
L 166.996118 233.987846 
L 167.14517 230.918604 
L 167.294221 231.385553 
L 167.443273 233.59171 
L 167.592325 230.485791 
L 167.741377 232.243027 
L 167.890428 228.545686 
L 168.03948 227.712721 
L 168.188532 231.653247 
L 168.337583 229.681582 
L 168.486635 232.724362 
L 168.635687 232.563786 
L 168.784739 228.392116 
L 168.93379 230.273046 
L 169.082842 230.233818 
L 169.231894 233.663169 
L 169.380946 225.779574 
L 169.679049 234.538797 
L 169.828101 228.219807 
L 169.977153 230.509919 
L 170.126204 230.214759 
L 170.275256 233.216248 
L 170.424308 228.64212 
L 170.573359 228.016021 
L 170.722411 232.033579 
L 170.871463 228.515717 
L 171.169566 232.147359 
L 171.318618 229.033793 
L 171.46767 229.804205 
L 171.616722 233.525495 
L 171.765773 229.494585 
L 171.914825 235.160742 
L 172.063877 230.807164 
L 172.212929 232.117055 
L 172.36198 230.046343 
L 172.511032 230.280935 
L 172.809135 233.322798 
L 173.107239 232.451836 
L 173.256291 234.314034 
L 173.405342 228.962991 
L 173.703446 230.07566 
L 173.852498 232.842877 
L 174.001549 232.323488 
L 174.150601 228.861498 
L 174.448704 236.913097 
L 174.597756 230.073619 
L 174.746808 233.412354 
L 174.89586 233.422422 
L 175.044911 236.484355 
L 175.193963 233.764659 
L 175.343015 235.341738 
L 175.492067 231.473855 
L 175.641118 233.719575 
L 175.79017 231.478766 
L 175.939222 234.377095 
L 176.088274 232.473436 
L 176.237325 228.977563 
L 176.386377 233.393598 
L 176.535429 232.966979 
L 176.68448 228.630094 
L 176.833532 236.4734 
L 176.982584 229.757679 
L 177.131636 230.935969 
L 177.280687 234.691192 
L 177.429739 232.19712 
L 177.578791 232.606006 
L 177.727843 233.5756 
L 177.876894 232.984591 
L 178.025946 230.642956 
L 178.174998 232.2734 
L 178.32405 232.061857 
L 178.473101 231.313088 
L 178.622153 233.044377 
L 178.771205 233.010986 
L 179.069308 229.474618 
L 179.21836 232.232262 
L 179.367412 232.149896 
L 179.516463 234.12722 
L 179.665515 232.658284 
L 179.814567 228.953904 
L 180.261722 236.970843 
L 180.410774 229.905007 
L 180.559825 235.01273 
L 180.708877 232.371515 
L 180.857929 234.617778 
L 181.006981 232.538989 
L 181.156032 234.4059 
L 181.305084 231.492183 
L 181.454136 237.971229 
L 181.603188 230.043623 
L 181.752239 232.745656 
L 181.901291 232.693826 
L 182.050343 230.865664 
L 182.348446 234.182939 
L 182.497498 233.651281 
L 182.944653 227.986699 
L 183.242757 236.744032 
L 183.391808 232.413988 
L 183.689912 231.575406 
L 183.838964 237.074999 
L 184.137067 229.234179 
L 184.286119 232.94566 
L 184.435171 231.904067 
L 184.584222 233.075558 
L 184.733274 230.889593 
L 184.882326 234.812646 
L 185.031377 234.880472 
L 185.180429 238.906849 
L 185.329481 235.435935 
L 185.478533 235.521203 
L 185.627584 230.074728 
L 186.07474 236.801451 
L 186.223791 229.347365 
L 186.372843 232.850626 
L 186.521895 233.0881 
L 186.670946 228.856125 
L 186.819998 237.506182 
L 186.96905 236.515116 
L 187.267153 231.730015 
L 187.416205 234.965982 
L 187.565257 230.202197 
L 187.714309 234.385809 
L 187.86336 232.065458 
L 188.012412 236.814597 
L 188.161464 234.02647 
L 188.310516 234.576882 
L 188.459567 236.014303 
L 188.608619 233.777538 
L 188.757671 233.904768 
L 188.906722 229.576397 
L 189.055774 230.637718 
L 189.353878 237.024709 
L 189.502929 232.840513 
L 189.651981 236.462839 
L 189.950085 229.824979 
L 190.099136 234.770417 
L 190.248188 234.701121 
L 190.39724 231.879348 
L 190.546292 232.136138 
L 190.695343 234.559431 
L 190.844395 232.394562 
L 190.993447 234.999936 
L 191.29155 232.414376 
L 191.440602 236.804763 
L 191.589654 234.336887 
L 191.738705 234.645217 
L 191.887757 235.289223 
L 192.036809 234.628974 
L 192.185861 236.594009 
L 192.334912 229.958064 
L 192.633016 236.049004 
L 192.782067 235.537601 
L 192.931119 233.587849 
L 193.080171 237.513754 
L 193.378274 233.508528 
L 193.527326 235.749851 
L 193.676378 231.952089 
L 193.82543 234.652807 
L 194.123533 231.828652 
L 194.421637 235.050719 
L 194.570688 236.381452 
L 194.71974 230.011505 
L 194.868792 233.813752 
L 195.017843 233.559358 
L 195.166895 236.521775 
L 195.315947 235.164171 
L 195.464999 235.686719 
L 195.763102 232.858616 
L 195.912154 235.598616 
L 196.061206 233.102455 
L 196.210257 237.180896 
L 196.508361 231.775525 
L 196.657413 232.209466 
L 196.806464 234.346949 
L 196.955516 233.755074 
L 197.104568 235.365886 
L 197.253619 232.922901 
L 197.402671 234.336556 
L 197.551723 237.93601 
L 197.849826 234.030377 
L 197.998878 232.697832 
L 198.296982 237.004618 
L 198.446033 235.467469 
L 198.595085 235.207242 
L 198.744137 234.157192 
L 199.191292 235.325476 
L 199.489395 234.731098 
L 199.638447 234.601168 
L 199.787499 233.086172 
L 199.936551 233.564045 
L 200.085602 234.699011 
L 200.234654 237.166705 
L 200.383706 233.239447 
L 200.532758 234.466537 
L 200.681809 233.955155 
L 200.830861 230.946336 
L 200.979913 235.528375 
L 201.128964 236.15706 
L 201.278016 234.395081 
L 201.427068 230.465553 
L 201.57612 236.257112 
L 201.725171 236.772517 
L 201.874223 233.685231 
L 202.023275 237.736589 
L 202.172327 232.964285 
L 202.321378 232.132749 
L 202.619482 236.477607 
L 202.768534 237.806305 
L 203.066637 234.674013 
L 203.215689 234.665861 
L 203.36474 235.844881 
L 203.513792 236.040235 
L 203.662844 235.670055 
L 203.811896 236.716548 
L 203.960947 232.985966 
L 204.109999 235.388297 
L 204.259051 235.134453 
L 204.557154 235.807524 
L 204.706206 233.33866 
L 204.855258 235.983313 
L 205.00431 232.286605 
L 205.451465 237.210618 
L 205.600516 236.525499 
L 205.749568 231.864388 
L 205.89862 235.470446 
L 206.047672 235.376049 
L 206.196723 234.662024 
L 206.345775 238.265856 
L 206.494827 236.981647 
L 206.643879 238.739085 
L 206.79293 236.547365 
L 206.941982 236.055618 
L 207.091034 237.616052 
L 207.240085 234.031423 
L 207.389137 236.975671 
L 207.538189 237.436232 
L 207.687241 237.058457 
L 207.836292 235.888005 
L 207.985344 233.501188 
L 208.134396 236.618866 
L 208.283448 233.358291 
L 208.432499 238.400029 
L 208.581551 238.940023 
L 208.730603 236.219681 
L 208.879655 237.542979 
L 209.028706 235.130833 
L 209.177758 237.929092 
L 209.32681 237.714255 
L 209.475861 236.885073 
L 209.624913 237.627854 
L 209.773965 231.702415 
L 209.923017 237.982467 
L 210.072068 233.97886 
L 210.370172 236.665882 
L 210.519224 233.32135 
L 210.966379 237.228863 
L 211.115431 236.046058 
L 211.264482 236.392538 
L 211.413534 234.596361 
L 211.562586 235.677821 
L 211.711637 231.74564 
L 212.158793 236.565959 
L 212.456896 233.257749 
L 212.605948 238.027775 
L 212.755 237.785951 
L 213.053103 235.069735 
L 213.202155 237.750687 
L 213.351206 237.670955 
L 213.500258 235.232759 
L 213.64931 237.83211 
L 213.798362 234.30326 
L 214.096465 233.544055 
L 214.245517 239.192813 
L 214.394569 234.906947 
L 214.841724 238.479356 
L 215.139827 237.154931 
L 215.288879 237.392133 
L 215.437931 235.399404 
L 215.586982 237.382405 
L 215.736034 234.185749 
L 215.885086 236.649164 
L 216.034138 235.379298 
L 216.481293 238.38236 
L 216.630345 236.731013 
L 216.779396 237.779112 
L 217.0775 235.407113 
L 217.375603 236.846476 
L 217.524655 237.829931 
L 217.673707 237.459192 
L 217.822758 237.712435 
L 217.97181 234.888906 
L 218.269914 238.702195 
L 218.418965 236.618038 
L 218.568017 236.950544 
L 218.717069 236.241113 
L 218.866121 238.817757 
L 219.015172 235.496542 
L 219.164224 235.251235 
L 219.313276 236.940932 
L 219.462327 235.231142 
L 219.611379 237.731207 
L 219.760431 237.756176 
L 219.909483 235.51453 
L 220.058534 237.347817 
L 220.356638 237.903709 
L 220.50569 239.831236 
L 220.803793 237.313989 
L 220.952845 238.865605 
L 221.250948 236.308409 
L 221.4 236.376975 
L 221.549052 235.507729 
L 221.698103 236.176092 
L 221.847155 236.057631 
L 221.996207 239.58377 
L 222.29431 237.133406 
L 222.443362 235.864394 
L 222.592414 237.243931 
L 222.741466 236.980103 
L 222.890517 238.949758 
L 223.039569 236.23601 
L 223.188621 236.359521 
L 223.337673 238.468662 
L 223.486724 236.940016 
L 223.635776 236.648432 
L 223.784828 237.198069 
L 223.933879 238.686082 
L 224.082931 234.636301 
L 224.231983 238.41541 
L 224.381035 235.789285 
L 224.530086 238.080414 
L 224.679138 233.614204 
L 224.82819 238.928418 
L 224.977242 236.821399 
L 225.126293 237.378874 
L 225.275345 234.322219 
L 225.573448 239.252461 
L 225.7225 236.780235 
L 225.871552 237.796296 
L 226.020604 236.895714 
L 226.169655 239.608132 
L 226.467759 235.25783 
L 226.616811 235.908735 
L 226.914914 239.293104 
L 227.063966 237.154533 
L 227.213018 238.903465 
L 227.362069 236.320501 
L 227.511121 237.22399 
L 227.660173 236.767423 
L 227.809224 235.476604 
L 227.958276 238.096048 
L 228.107328 236.638271 
L 228.25638 236.533687 
L 228.405431 235.926869 
L 228.554483 236.572801 
L 228.703535 234.995595 
L 228.852587 238.019833 
L 229.001638 236.0051 
L 229.15069 236.596861 
L 229.299742 237.752698 
L 229.448794 236.986504 
L 229.597845 237.508562 
L 229.746897 237.505575 
L 229.895949 235.03838 
L 230.045 239.160487 
L 230.194052 237.002676 
L 230.343104 237.473748 
L 230.492156 237.291726 
L 230.641207 238.237464 
L 230.790259 235.744061 
L 230.939311 237.389284 
L 231.088363 235.682777 
L 231.237414 238.010095 
L 231.386466 237.541272 
L 231.535518 239.286809 
L 231.684569 237.710741 
L 231.833621 239.763746 
L 231.982673 237.194287 
L 232.131725 237.204532 
L 232.280776 237.981898 
L 232.429828 239.553612 
L 232.57888 237.005603 
L 232.876983 239.920305 
L 233.175087 235.918434 
L 233.324139 239.542673 
L 233.47319 239.231357 
L 233.622242 236.535032 
L 233.771294 238.887578 
L 233.920345 238.840309 
L 234.069397 239.127547 
L 234.218449 237.699957 
L 234.367501 238.424571 
L 234.516552 234.011095 
L 234.665604 237.554441 
L 234.814656 236.153048 
L 234.963708 237.52096 
L 235.112759 237.379225 
L 235.261811 239.2044 
L 235.410863 238.276302 
L 235.559915 238.254153 
L 235.708966 237.628175 
L 235.858018 238.698047 
L 236.00707 237.10689 
L 236.156121 238.732635 
L 236.305173 238.035736 
L 236.603277 239.053367 
L 236.90138 236.278907 
L 237.050432 238.440886 
L 237.199484 236.830017 
L 237.497587 238.157522 
L 237.646639 236.309522 
L 237.79569 238.960562 
L 237.944742 235.962826 
L 238.242846 238.33562 
L 238.391897 237.326207 
L 238.540949 235.117679 
L 238.690001 236.909193 
L 238.839053 240.398919 
L 238.988104 235.315832 
L 239.137156 238.304706 
L 239.286208 236.365871 
L 239.43526 239.256579 
L 239.584311 238.769785 
L 239.733363 235.60558 
L 239.882415 238.734002 
L 240.32957 237.388601 
L 240.478622 237.608569 
L 240.627673 237.433655 
L 240.776725 238.773535 
L 240.925777 237.957304 
L 241.074829 235.297979 
L 241.22388 236.613203 
L 241.372932 239.171137 
L 241.521984 238.521934 
L 241.671036 240.035024 
L 241.820087 237.810055 
L 241.969139 237.791639 
L 242.118191 238.67897 
L 242.267242 238.594376 
L 242.416294 235.080595 
L 242.565346 237.01266 
L 242.714398 235.858076 
L 242.863449 238.724046 
L 243.012501 237.21611 
L 243.161553 237.255661 
L 243.459656 238.303174 
L 243.608708 238.194377 
L 243.75776 237.038027 
L 243.906812 237.207895 
L 244.055863 239.26719 
L 244.204915 239.166595 
L 244.353967 237.210452 
L 244.65207 239.871699 
L 244.801122 238.393769 
L 244.950174 238.702635 
L 245.099225 237.238784 
L 245.248277 237.861701 
L 245.397329 236.932216 
L 245.546381 238.081739 
L 245.695432 238.110024 
L 245.844484 239.998646 
L 246.142587 236.039364 
L 246.291639 239.409292 
L 246.440691 238.671446 
L 246.589743 237.202789 
L 246.738794 236.918939 
L 246.887846 239.245703 
L 247.18595 238.584417 
L 247.335001 235.860722 
L 247.484053 238.091767 
L 247.633105 233.878758 
L 247.782157 238.547834 
L 247.931208 238.345721 
L 248.08026 237.544722 
L 248.229312 238.256971 
L 248.378363 235.167433 
L 248.527415 237.903617 
L 248.676467 238.034949 
L 248.825519 239.196726 
L 248.97457 238.781789 
L 249.123622 239.142311 
L 249.421726 237.465208 
L 249.570777 239.452442 
L 249.719829 236.762757 
L 249.868881 238.955973 
L 250.017933 239.097415 
L 250.166984 239.871105 
L 250.316036 238.707358 
L 250.465088 239.651946 
L 250.614139 237.258049 
L 250.912243 239.638889 
L 251.061295 238.247142 
L 251.359398 238.910483 
L 251.50845 237.662566 
L 251.657502 238.889782 
L 251.806553 238.24924 
L 251.955605 239.354829 
L 252.104657 238.820599 
L 252.253708 240.464969 
L 252.40276 240.18057 
L 252.551812 238.081752 
L 252.700864 238.738888 
L 252.849915 238.325002 
L 252.998967 237.000981 
L 253.297071 239.699185 
L 253.446122 237.783656 
L 253.595174 237.794784 
L 253.744226 236.856173 
L 253.893278 239.357859 
L 254.042329 238.359347 
L 254.191381 238.24309 
L 254.340433 237.95065 
L 254.489484 238.929995 
L 254.638536 238.583894 
L 254.787588 239.681823 
L 254.93664 237.678311 
L 255.085691 239.554043 
L 255.234743 237.467013 
L 255.383795 240.112305 
L 255.681898 239.100388 
L 255.980002 238.469145 
L 256.129054 234.919817 
L 256.427157 239.284392 
L 256.72526 237.692071 
L 256.874312 237.364812 
L 257.023364 236.728223 
L 257.321467 240.738251 
L 257.470519 236.747076 
L 257.619571 238.578871 
L 257.917674 239.052977 
L 258.215778 238.12723 
L 258.364829 240.428904 
L 258.513881 239.93889 
L 258.662933 236.448632 
L 258.811985 237.113075 
L 258.961036 236.789308 
L 259.25914 239.441247 
L 259.408192 238.719129 
L 259.557243 239.269604 
L 259.706295 240.312383 
L 259.855347 238.288052 
L 260.004399 239.936927 
L 260.15345 237.714741 
L 260.302502 238.659855 
L 260.451554 238.702056 
L 260.600605 239.221445 
L 260.749657 239.109047 
L 260.898709 237.511146 
L 261.047761 239.844291 
L 261.196812 239.538221 
L 261.345864 237.414244 
L 261.494916 238.539939 
L 261.643968 238.113401 
L 261.793019 236.704328 
L 262.091123 239.65709 
L 262.240175 238.154419 
L 262.389226 238.278509 
L 262.538278 238.779598 
L 262.68733 238.584118 
L 262.836381 239.436751 
L 263.134485 237.371532 
L 263.283537 237.501017 
L 263.432588 239.601823 
L 263.58164 237.750007 
L 263.730692 237.797554 
L 264.028795 238.805712 
L 264.177847 238.573758 
L 264.47595 237.255264 
L 264.625002 237.862169 
L 264.774054 239.617608 
L 264.923106 239.95245 
L 265.072157 239.554865 
L 265.221209 239.778266 
L 265.370261 238.456159 
L 265.519313 238.686153 
L 265.668364 238.629498 
L 265.817416 239.56706 
L 265.966468 237.321338 
L 266.11552 239.474034 
L 266.264571 239.67002 
L 266.562675 237.793094 
L 266.711726 237.699537 
L 266.860778 238.762447 
L 267.158882 236.179678 
L 267.307933 239.711883 
L 267.456985 238.499792 
L 267.606037 238.911794 
L 267.755089 239.934017 
L 268.053192 239.812333 
L 268.202244 238.319993 
L 268.351296 238.434363 
L 268.649399 240.048681 
L 268.947502 235.921846 
L 269.096554 236.969041 
L 269.245606 239.516635 
L 269.394658 239.426398 
L 269.543709 238.759817 
L 269.692761 238.923282 
L 270.139916 237.746855 
L 270.288968 239.448161 
L 270.43802 238.124488 
L 270.587071 239.711886 
L 270.736123 238.29999 
L 270.885175 239.762228 
L 271.034227 238.009613 
L 271.183278 239.244102 
L 271.33233 235.691736 
L 271.481382 239.559618 
L 271.630434 239.856497 
L 271.779485 237.769425 
L 271.928537 238.90444 
L 272.077589 238.56396 
L 272.226641 237.848923 
L 272.375692 238.122899 
L 272.524744 239.627157 
L 272.673796 239.37082 
L 272.822847 240.12573 
L 272.971899 237.766334 
L 273.270003 239.484735 
L 273.419054 237.748409 
L 273.568106 240.214362 
L 273.717158 239.030313 
L 273.86621 239.386323 
L 274.015261 239.222092 
L 274.164313 237.910847 
L 274.313365 239.222355 
L 274.462417 239.324669 
L 274.611468 239.945566 
L 274.76052 238.258197 
L 274.909572 238.708295 
L 275.207675 240.284196 
L 275.505779 238.191237 
L 275.65483 240.213511 
L 275.803882 240.515403 
L 275.952934 240.059179 
L 276.101986 238.202949 
L 276.251037 240.259083 
L 276.549141 238.189712 
L 276.698193 239.568535 
L 276.847244 236.171905 
L 276.996296 239.985895 
L 277.145348 237.16786 
L 277.294399 240.115717 
L 277.741555 237.754014 
L 277.890606 239.689555 
L 278.039658 239.300638 
L 278.18871 239.735878 
L 278.486813 238.067776 
L 278.635865 239.88313 
L 278.784917 238.276103 
L 278.933968 238.948061 
L 279.08302 238.572117 
L 279.381124 239.706944 
L 279.530175 239.373042 
L 279.679227 239.793092 
L 279.977331 237.654044 
L 280.275434 240.899318 
L 280.573538 239.081894 
L 280.722589 239.634045 
L 280.871641 237.987965 
L 281.020693 240.574357 
L 281.169744 240.64405 
L 281.318796 239.491178 
L 281.765951 240.03194 
L 282.064055 238.69325 
L 282.213107 239.14739 
L 282.362158 239.227456 
L 282.51121 239.797646 
L 282.809314 238.591243 
L 282.958365 240.265466 
L 283.107417 238.091142 
L 283.256469 239.14072 
L 283.40552 238.603629 
L 283.554572 239.72044 
L 283.852676 239.841769 
L 284.001727 240.069536 
L 284.150779 238.807066 
L 284.299831 239.046181 
L 284.448883 239.598785 
L 284.746986 237.941633 
L 284.896038 237.810316 
L 285.045089 238.747602 
L 285.194141 237.517604 
L 285.492245 240.309859 
L 285.641296 238.025535 
L 285.790348 239.494908 
L 285.9394 239.330261 
L 286.088452 238.410715 
L 286.237503 239.726718 
L 286.386555 239.465576 
L 286.535607 239.949808 
L 286.684659 240.99827 
L 286.83371 237.942714 
L 286.982762 239.252601 
L 287.131814 239.417815 
L 287.280865 237.395903 
L 287.429917 233.844072 
L 287.578969 239.049459 
L 287.728021 239.593895 
L 287.877072 239.346759 
L 288.175176 237.330773 
L 288.324228 234.573437 
L 288.473279 239.327727 
L 288.622331 238.25179 
L 288.771383 239.758138 
L 289.069486 237.267607 
L 289.218538 240.140827 
L 289.516641 238.433396 
L 289.665693 239.953448 
L 289.814745 238.641989 
L 289.963797 239.247209 
L 290.112848 239.342095 
L 290.2619 237.299705 
L 290.709055 241.215639 
L 290.858107 239.762123 
L 291.007159 239.701951 
L 291.15621 238.056889 
L 291.305262 239.515972 
L 291.454314 239.421227 
L 291.603366 237.962488 
L 291.752417 238.066447 
L 291.901469 239.313614 
L 292.199573 237.958938 
L 292.348624 238.755112 
L 292.497676 238.029827 
L 292.646728 238.143363 
L 292.79578 239.331322 
L 292.944831 235.87354 
L 293.093883 238.844503 
L 293.242935 239.4719 
L 293.391986 239.144168 
L 293.541038 238.433208 
L 293.69009 238.460993 
L 293.839142 237.413096 
L 294.137245 239.130776 
L 294.286297 239.516888 
L 294.435349 239.437071 
L 294.733452 235.599077 
L 294.882504 235.744035 
L 295.031556 238.822149 
L 295.180607 238.085079 
L 295.329659 236.539082 
L 295.627762 238.118848 
L 295.776814 238.557942 
L 295.925866 240.049315 
L 296.074918 238.686908 
L 296.223969 240.624635 
L 296.373021 239.444492 
L 296.522073 239.790058 
L 296.671125 239.41552 
L 296.820176 236.820824 
L 296.969228 240.883327 
L 297.11828 237.766178 
L 297.267331 238.178809 
L 297.416383 238.944608 
L 297.565435 239.09868 
L 297.714487 239.654365 
L 297.863538 239.479993 
L 298.01259 239.091214 
L 298.161642 239.194663 
L 298.310694 238.342665 
L 298.608797 239.766008 
L 298.757849 238.91495 
L 298.906901 240.283944 
L 299.055952 239.686692 
L 299.205004 239.644788 
L 299.503107 235.889163 
L 299.801211 238.381109 
L 299.950263 238.555076 
L 300.099314 238.948969 
L 300.248366 238.795006 
L 300.397418 239.611193 
L 300.695521 239.118716 
L 300.844573 239.799787 
L 301.142677 237.986458 
L 301.291728 238.417353 
L 301.44078 238.064587 
L 301.589832 237.376855 
L 301.738883 240.184618 
L 301.887935 238.910522 
L 302.036987 234.9274 
L 302.186039 237.577987 
L 302.33509 237.554253 
L 302.633194 238.425228 
L 302.782246 239.915684 
L 302.931297 239.631862 
L 303.080349 239.971721 
L 303.229401 240.754848 
L 303.378452 240.688846 
L 303.527504 240.048923 
L 303.676556 238.855676 
L 303.825608 239.409792 
L 303.974659 238.170003 
L 304.123711 240.341929 
L 304.272763 240.440456 
L 304.421815 239.990071 
L 304.719918 237.245137 
L 304.86897 239.897614 
L 305.018022 238.443298 
L 305.167073 240.024007 
L 305.316125 239.996113 
L 305.465177 237.532594 
L 305.614228 238.926574 
L 305.76328 238.587029 
L 305.912332 238.588947 
L 306.061384 237.96256 
L 306.210435 237.874851 
L 306.359487 240.783957 
L 306.508539 238.587805 
L 306.657591 238.752414 
L 306.806642 240.719708 
L 307.104746 238.278587 
L 307.402849 239.772323 
L 307.551901 235.857021 
L 307.700953 240.483835 
L 307.850004 239.023862 
L 307.999056 240.046441 
L 308.148108 238.917437 
L 308.29716 240.177503 
L 308.446211 239.119473 
L 308.595263 239.448167 
L 308.744315 240.58155 
L 308.893367 240.656514 
L 309.042418 240.415244 
L 309.19147 239.853438 
L 309.340522 237.324139 
L 309.489574 240.271526 
L 309.638625 240.322509 
L 309.787677 238.357682 
L 309.936729 237.954069 
L 310.08578 240.54906 
L 310.234832 240.176104 
L 310.383884 239.229278 
L 310.681987 241.379646 
L 310.831039 238.724259 
L 311.129143 240.924167 
L 311.278194 239.462405 
L 311.427246 239.759923 
L 311.576298 237.540277 
L 311.725349 238.570338 
L 311.874401 238.201211 
L 312.023453 238.481641 
L 312.172505 240.067473 
L 312.321556 239.691087 
L 312.470608 236.015297 
L 312.61966 238.846747 
L 312.768712 237.60073 
L 312.917763 238.310087 
L 313.066815 240.557547 
L 313.215867 238.970709 
L 313.364919 239.375437 
L 313.51397 239.246063 
L 313.663022 239.673411 
L 313.812074 238.752482 
L 313.961125 240.400154 
L 314.110177 234.982277 
L 314.408281 238.82046 
L 314.557332 240.129336 
L 314.706384 238.076759 
L 314.855436 239.771911 
L 315.004488 236.888266 
L 315.153539 240.403472 
L 315.302591 238.25778 
L 315.451643 240.898283 
L 315.749746 239.767251 
L 315.898798 240.829496 
L 316.04785 238.127433 
L 316.196901 237.818114 
L 316.345953 240.701177 
L 316.495005 240.495902 
L 316.644057 239.840451 
L 316.793108 239.931039 
L 316.94216 239.385459 
L 317.091212 239.584572 
L 317.240264 241.528969 
L 317.538367 240.335281 
L 317.687419 237.833051 
L 318.134574 240.164428 
L 318.283626 240.038125 
L 318.432677 237.951962 
L 318.581729 240.631104 
L 318.730781 238.033212 
L 318.879833 240.885594 
L 319.028884 238.915178 
L 319.177936 238.828536 
L 319.326988 239.691572 
L 319.47604 237.320315 
L 319.625091 240.634462 
L 319.774143 238.864756 
L 319.923195 238.650768 
L 320.072246 239.968447 
L 320.221298 237.820838 
L 320.37035 239.422551 
L 320.519402 239.132132 
L 320.668453 239.190103 
L 320.817505 239.103367 
L 321.115609 237.875444 
L 321.26466 239.876722 
L 321.413712 239.515857 
L 321.562764 240.261051 
L 321.711816 239.435105 
L 321.860867 240.04047 
L 322.009919 237.785122 
L 322.158971 239.228824 
L 322.308022 239.150728 
L 322.457074 239.883811 
L 322.606126 237.498582 
L 322.755178 238.914769 
L 322.904229 238.073357 
L 323.053281 240.526682 
L 323.202333 237.822811 
L 323.351385 240.376142 
L 323.649488 239.880083 
L 323.79854 238.966173 
L 323.947591 240.847148 
L 324.096643 240.217406 
L 324.245695 238.157881 
L 324.543798 240.961093 
L 324.69285 240.817785 
L 324.990954 239.754044 
L 325.289057 241.209954 
L 325.438109 241.082538 
L 325.587161 239.00689 
L 325.736212 240.147632 
L 325.885264 239.322522 
L 326.034316 240.001813 
L 326.183367 239.98466 
L 326.332419 241.04882 
L 326.481471 241.139005 
L 326.630523 237.927394 
L 326.779574 240.023986 
L 326.928626 239.661253 
L 327.077678 240.849675 
L 327.375781 239.273318 
L 327.673885 240.066331 
L 327.822937 238.610106 
L 327.971988 238.591312 
L 328.12104 236.807812 
L 328.270092 240.556251 
L 328.419143 238.395518 
L 328.568195 239.446261 
L 328.717247 238.975004 
L 329.01535 241.167313 
L 329.313454 238.725082 
L 329.760609 239.348881 
L 330.058712 240.514274 
L 330.207764 237.154017 
L 330.356816 240.616665 
L 330.505868 240.707292 
L 330.654919 238.515924 
L 330.803971 240.762103 
L 330.953023 239.531674 
L 331.102075 240.111615 
L 331.251126 238.500966 
L 331.400178 240.073471 
L 331.847333 238.137878 
L 332.145437 239.795022 
L 332.44354 238.503844 
L 332.592592 240.590739 
L 332.741644 238.862441 
L 332.890695 241.404131 
L 333.188799 233.666961 
L 333.337851 238.97217 
L 333.486902 237.661951 
L 333.785006 240.902388 
L 334.083109 240.496453 
L 334.232161 239.219536 
L 334.381213 239.811091 
L 334.530264 237.885044 
L 334.679316 239.145152 
L 334.828368 238.105752 
L 334.97742 240.384996 
L 335.275523 237.306054 
L 335.722678 240.86144 
L 335.87173 239.294792 
L 336.020782 240.720928 
L 336.169833 240.355119 
L 336.318885 238.290364 
L 336.467937 238.928618 
L 336.616989 237.613447 
L 336.915092 240.390883 
L 337.064144 238.010319 
L 337.362247 240.037371 
L 337.511299 239.674755 
L 337.660351 238.561642 
L 337.809403 238.43625 
L 337.958454 240.64945 
L 338.107506 239.811933 
L 338.256558 240.304211 
L 338.405609 238.09651 
L 338.554661 240.940171 
L 338.852765 238.294939 
L 339.001816 237.766489 
L 339.150868 239.446804 
L 339.29992 239.679928 
L 339.448972 239.546569 
L 339.598023 239.072071 
L 339.747075 241.246109 
L 339.896127 237.939159 
L 340.045179 237.93382 
L 340.19423 241.088263 
L 340.492334 238.348571 
L 340.641385 239.743648 
L 340.790437 239.890972 
L 340.939489 239.626957 
L 341.088541 237.83603 
L 341.237592 239.633577 
L 341.386644 239.602358 
L 341.535696 239.832297 
L 341.684748 240.404128 
L 341.833799 238.487269 
L 341.982851 240.117445 
L 342.131903 237.744019 
L 342.430006 239.16175 
L 342.579058 240.166365 
L 342.877161 238.56466 
L 343.026213 238.406339 
L 343.175265 238.546625 
L 343.324317 237.449199 
L 343.473368 240.715801 
L 343.62242 238.495659 
L 343.771472 240.790383 
L 343.920524 240.439506 
L 344.069575 236.848061 
L 344.218627 236.826423 
L 344.367679 239.614453 
L 344.51673 237.90341 
L 344.665782 238.381036 
L 344.814834 241.287655 
L 345.112937 236.97572 
L 345.261989 240.208932 
L 345.411041 239.982885 
L 345.709144 238.996861 
L 345.858196 239.000868 
L 346.007248 238.496159 
L 346.1563 240.789795 
L 346.305351 238.94865 
L 346.454403 240.663509 
L 346.603455 240.378765 
L 346.752506 239.370155 
L 346.901558 239.601039 
L 347.05061 237.110873 
L 347.199662 237.373802 
L 347.348713 238.286776 
L 347.497765 240.472497 
L 347.795869 239.986556 
L 347.94492 240.926591 
L 348.093972 240.524648 
L 348.243024 240.456812 
L 348.392076 239.5976 
L 348.541127 239.694429 
L 348.690179 237.637387 
L 348.839231 239.881313 
L 348.988282 238.802783 
L 349.137334 240.549462 
L 349.286386 238.191948 
L 349.435438 237.963242 
L 349.584489 239.730253 
L 349.733541 239.213354 
L 349.882593 239.58472 
L 350.031645 240.760498 
L 350.180696 237.092384 
L 350.329748 238.244141 
L 350.4788 240.543773 
L 350.627851 239.731074 
L 350.776903 241.231306 
L 350.925955 239.125797 
L 351.075007 239.714863 
L 351.224058 239.392479 
L 351.37311 236.7127 
L 351.671214 240.601346 
L 351.820265 239.647873 
L 352.267421 240.034845 
L 352.416472 241.074333 
L 352.565524 238.190327 
L 352.714576 237.734355 
L 352.863627 240.674524 
L 353.012679 239.110515 
L 353.161731 240.164845 
L 353.310783 239.708305 
L 353.459834 240.618223 
L 353.608886 240.044624 
L 353.757938 241.68804 
L 353.90699 236.826236 
L 354.056041 240.208229 
L 354.205093 239.513393 
L 354.354145 240.002667 
L 354.503197 236.148843 
L 354.652248 238.554328 
L 354.8013 237.243572 
L 354.950352 237.805734 
L 355.099403 240.99916 
L 355.248455 240.258489 
L 355.397507 237.594713 
L 355.69561 239.934419 
L 355.993714 238.220873 
L 356.142766 239.167892 
L 356.291817 235.446265 
L 356.440869 239.794945 
L 356.589921 240.585295 
L 356.738972 238.524253 
L 356.888024 240.443535 
L 357.037076 240.679037 
L 357.484231 238.738617 
L 357.633283 239.978436 
L 357.782335 239.075128 
L 357.931386 238.862686 
L 358.080438 235.575527 
L 358.22949 239.34002 
L 358.378542 238.0184 
L 358.676645 239.134504 
L 358.825697 238.517509 
L 358.974748 239.235859 
L 359.1238 237.968394 
L 359.272852 240.133275 
L 359.421904 236.699085 
L 359.570955 239.24421 
L 359.720007 239.718645 
L 360.018111 237.382836 
L 360.167162 239.597244 
L 360.316214 237.953179 
L 360.614318 240.817848 
L 360.763369 240.595467 
L 360.912421 240.696998 
L 361.061473 238.888136 
L 361.210524 239.305916 
L 361.359576 239.187057 
L 361.508628 239.882361 
L 361.806731 239.363853 
L 361.955783 242.116364 
L 362.104835 239.718829 
L 362.253887 240.444313 
L 362.55199 239.260583 
L 362.701042 239.649237 
L 362.850093 238.816214 
L 363.148197 240.612148 
L 363.4463 237.971337 
L 363.595352 239.925578 
L 363.744404 239.715045 
L 363.893456 240.659804 
L 364.042507 238.447531 
L 364.191559 239.093734 
L 364.340611 240.439306 
L 364.489663 240.261672 
L 364.787766 237.470234 
L 364.936818 238.26767 
L 365.085869 240.674685 
L 365.234921 240.472215 
L 365.383973 237.828117 
L 365.533025 239.717591 
L 365.831128 238.819809 
L 365.98018 234.524666 
L 366.278283 240.124377 
L 366.427335 238.263143 
L 366.576387 239.152804 
L 366.725439 238.970233 
L 366.87449 238.078795 
L 367.172594 240.071255 
L 367.470697 239.571575 
L 367.619749 239.926299 
L 367.768801 236.439619 
L 367.917852 236.18183 
L 368.215956 239.294423 
L 368.365008 239.451606 
L 368.514059 238.41867 
L 368.663111 240.04068 
L 368.812163 238.684326 
L 368.961214 239.904191 
L 369.110266 239.369025 
L 369.259318 239.99255 
L 369.40837 241.340543 
L 369.557421 240.508399 
L 369.706473 241.310099 
L 369.855525 241.275933 
L 370.004577 241.001692 
L 370.153628 239.928134 
L 370.30268 240.698925 
L 370.451732 240.180913 
L 370.600784 240.90484 
L 370.749835 240.090114 
L 370.898887 240.776738 
L 371.047939 238.217325 
L 371.19699 240.110321 
L 371.346042 239.947861 
L 371.495094 239.301247 
L 371.793197 240.786311 
L 371.942249 240.995517 
L 372.091301 240.892653 
L 372.240353 238.390076 
L 372.389404 240.359296 
L 372.538456 240.640351 
L 372.687508 241.577855 
L 372.985611 239.556575 
L 373.283715 241.240661 
L 373.432766 240.838224 
L 373.581818 241.219945 
L 373.581818 241.219945 
" style="fill:none;stroke:#1f77b4;stroke-linecap:square;stroke-width:1.5;"/>
   </g>
   <g id="patch_3">
    <path d="M 54 252 
L 54 34.56 
" style="fill:none;stroke:#000000;stroke-linecap:square;stroke-linejoin:miter;stroke-width:0.8;"/>
   </g>
   <g id="patch_4">
    <path d="M 388.8 252 
L 388.8 34.56 
" style="fill:none;stroke:#000000;stroke-linecap:square;stroke-linejoin:miter;stroke-width:0.8;"/>
   </g>
   <g id="patch_5">
    <path d="M 54 252 
L 388.8 252 
" style="fill:none;stroke:#000000;stroke-linecap:square;stroke-linejoin:miter;stroke-width:0.8;"/>
   </g>
   <g id="patch_6">
    <path d="M 54 34.56 
L 388.8 34.56 
" style="fill:none;stroke:#000000;stroke-linecap:square;stroke-linejoin:miter;stroke-width:0.8;"/>
   </g>
  </g>
 </g>
 <defs>
  <clipPath id="pe739346503">
   <rect height="217.44" width="334.8" x="54" y="34.56"/>
  </clipPath>
 </defs>
</svg>
